<svg width="589" height="418" viewBox="0 0 589 418" fill="none" xmlns="http://www.w3.org/2000/svg">
<rect width="589" height="418" fill="white"/>
<path d="M410.385 402V398.749H411.862C412.215 398.749 412.527 398.817 412.796 398.953C413.065 399.086 413.276 399.274 413.428 399.515C413.579 399.757 413.655 400.043 413.655 400.374C413.655 400.703 413.579 400.989 413.428 401.234C413.276 401.475 413.065 401.664 412.796 401.8C412.527 401.933 412.215 402 411.862 402H410.385ZM411.138 401.382H411.825C412.042 401.382 412.229 401.342 412.387 401.262C412.548 401.178 412.672 401.06 412.759 400.909C412.849 400.757 412.893 400.579 412.893 400.374C412.893 400.167 412.849 399.989 412.759 399.84C412.672 399.689 412.548 399.573 412.387 399.492C412.229 399.408 412.042 399.367 411.825 399.367H411.138V401.382ZM415.704 402V401.512L415.658 401.406V400.532C415.658 400.378 415.61 400.257 415.514 400.17C415.421 400.083 415.277 400.04 415.082 400.04C414.949 400.04 414.817 400.062 414.687 400.105C414.56 400.145 414.452 400.201 414.362 400.272L414.102 399.766C414.238 399.67 414.402 399.596 414.594 399.543C414.786 399.49 414.981 399.464 415.179 399.464C415.56 399.464 415.856 399.554 416.066 399.734C416.277 399.913 416.382 400.193 416.382 400.574V402H415.704ZM414.942 402.037C414.747 402.037 414.58 402.005 414.441 401.94C414.302 401.872 414.195 401.78 414.12 401.666C414.046 401.551 414.009 401.423 414.009 401.28C414.009 401.131 414.045 401.001 414.116 400.89C414.19 400.779 414.306 400.692 414.464 400.63C414.622 400.565 414.828 400.532 415.082 400.532H415.746V400.955H415.161C414.99 400.955 414.873 400.983 414.808 401.039C414.746 401.094 414.715 401.164 414.715 401.248C414.715 401.34 414.751 401.415 414.822 401.471C414.896 401.523 414.997 401.549 415.124 401.549C415.244 401.549 415.353 401.522 415.449 401.466C415.545 401.407 415.614 401.322 415.658 401.21L415.769 401.545C415.717 401.706 415.621 401.828 415.481 401.912C415.342 401.995 415.162 402.037 414.942 402.037ZM418.06 402.037C417.766 402.037 417.537 401.963 417.372 401.814C417.208 401.663 417.126 401.438 417.126 401.141V398.949H417.851V401.131C417.851 401.237 417.879 401.319 417.934 401.378C417.99 401.433 418.066 401.461 418.162 401.461C418.277 401.461 418.374 401.43 418.455 401.368L418.65 401.879C418.575 401.932 418.486 401.972 418.38 402C418.278 402.025 418.171 402.037 418.06 402.037ZM416.741 400.114V399.557H418.473V400.114H416.741ZM420.589 402V401.512L420.543 401.406V400.532C420.543 400.378 420.495 400.257 420.399 400.17C420.306 400.083 420.162 400.04 419.967 400.04C419.834 400.04 419.702 400.062 419.572 400.105C419.445 400.145 419.337 400.201 419.247 400.272L418.987 399.766C419.123 399.67 419.287 399.596 419.479 399.543C419.671 399.49 419.866 399.464 420.064 399.464C420.445 399.464 420.741 399.554 420.951 399.734C421.162 399.913 421.267 400.193 421.267 400.574V402H420.589ZM419.827 402.037C419.632 402.037 419.465 402.005 419.326 401.94C419.186 401.872 419.08 401.78 419.005 401.666C418.931 401.551 418.894 401.423 418.894 401.28C418.894 401.131 418.929 401.001 419.001 400.89C419.075 400.779 419.191 400.692 419.349 400.63C419.507 400.565 419.713 400.532 419.967 400.532H420.631V400.955H420.046C419.875 400.955 419.758 400.983 419.693 401.039C419.631 401.094 419.6 401.164 419.6 401.248C419.6 401.34 419.635 401.415 419.707 401.471C419.781 401.523 419.882 401.549 420.008 401.549C420.129 401.549 420.238 401.522 420.334 401.466C420.43 401.407 420.499 401.322 420.543 401.21L420.654 401.545C420.601 401.706 420.505 401.828 420.366 401.912C420.227 401.995 420.047 402.037 419.827 402.037ZM424.845 402.056C424.594 402.056 424.361 402.015 424.144 401.935C423.93 401.851 423.744 401.734 423.586 401.582C423.429 401.43 423.305 401.252 423.215 401.048C423.128 400.844 423.085 400.619 423.085 400.374C423.085 400.13 423.128 399.905 423.215 399.701C423.305 399.497 423.429 399.319 423.586 399.167C423.747 399.015 423.935 398.899 424.148 398.819C424.362 398.735 424.596 398.693 424.85 398.693C425.132 398.693 425.385 398.743 425.611 398.842C425.841 398.938 426.033 399.08 426.187 399.269L425.704 399.715C425.593 399.588 425.469 399.494 425.333 399.432C425.197 399.367 425.048 399.334 424.887 399.334C424.735 399.334 424.596 399.359 424.469 399.408C424.342 399.458 424.232 399.529 424.139 399.622C424.046 399.715 423.974 399.825 423.921 399.952C423.871 400.079 423.847 400.22 423.847 400.374C423.847 400.529 423.871 400.67 423.921 400.797C423.974 400.924 424.046 401.034 424.139 401.127C424.232 401.22 424.342 401.291 424.469 401.34C424.596 401.39 424.735 401.415 424.887 401.415C425.048 401.415 425.197 401.384 425.333 401.322C425.469 401.257 425.593 401.159 425.704 401.029L426.187 401.475C426.033 401.664 425.841 401.808 425.611 401.907C425.385 402.006 425.13 402.056 424.845 402.056ZM427.64 402.037C427.432 402.037 427.246 401.997 427.082 401.916C426.921 401.836 426.796 401.714 426.706 401.549C426.616 401.382 426.571 401.17 426.571 400.913V399.501H427.296V400.806C427.296 401.014 427.339 401.167 427.426 401.266C427.516 401.362 427.641 401.41 427.802 401.41C427.914 401.41 428.013 401.387 428.1 401.34C428.186 401.291 428.254 401.217 428.304 401.118C428.353 401.015 428.378 400.888 428.378 400.737V399.501H429.103V402H428.415V401.313L428.541 401.512C428.457 401.686 428.333 401.817 428.169 401.907C428.008 401.994 427.832 402.037 427.64 402.037ZM429.774 402V398.554H430.498V402H429.774ZM432.379 402.037C432.084 402.037 431.855 401.963 431.691 401.814C431.527 401.663 431.445 401.438 431.445 401.141V398.949H432.17V401.131C432.17 401.237 432.198 401.319 432.253 401.378C432.309 401.433 432.385 401.461 432.481 401.461C432.595 401.461 432.693 401.43 432.773 401.368L432.968 401.879C432.894 401.932 432.804 401.972 432.699 402C432.597 402.025 432.49 402.037 432.379 402.037ZM431.06 400.114V399.557H432.792V400.114H431.06ZM434.429 402.037C434.222 402.037 434.036 401.997 433.872 401.916C433.711 401.836 433.586 401.714 433.496 401.549C433.406 401.382 433.361 401.17 433.361 400.913V399.501H434.086V400.806C434.086 401.014 434.129 401.167 434.216 401.266C434.306 401.362 434.431 401.41 434.592 401.41C434.704 401.41 434.803 401.387 434.889 401.34C434.976 401.291 435.044 401.217 435.094 401.118C435.143 401.015 435.168 400.888 435.168 400.737V399.501H435.892V402H435.205V401.313L435.331 401.512C435.247 401.686 435.123 401.817 434.959 401.907C434.798 401.994 434.621 402.037 434.429 402.037ZM436.564 402V399.501H437.256V400.207L437.158 400.003C437.233 399.826 437.352 399.693 437.516 399.603C437.68 399.511 437.88 399.464 438.115 399.464V400.133C438.084 400.13 438.056 400.128 438.031 400.128C438.007 400.125 437.98 400.124 437.952 400.124C437.754 400.124 437.593 400.181 437.469 400.295C437.349 400.407 437.288 400.582 437.288 400.82V402H436.564ZM439.768 402.037C439.483 402.037 439.232 401.981 439.015 401.87C438.802 401.758 438.636 401.607 438.518 401.415C438.401 401.22 438.342 400.998 438.342 400.751C438.342 400.5 438.399 400.278 438.514 400.086C438.631 399.891 438.791 399.74 438.992 399.631C439.193 399.52 439.421 399.464 439.675 399.464C439.919 399.464 440.139 399.517 440.334 399.622C440.532 399.724 440.689 399.873 440.803 400.068C440.918 400.26 440.975 400.491 440.975 400.76C440.975 400.788 440.974 400.82 440.971 400.857C440.968 400.892 440.964 400.924 440.961 400.955H438.932V400.532H440.58L440.302 400.658C440.302 400.528 440.275 400.415 440.223 400.319C440.17 400.223 440.097 400.148 440.005 400.096C439.912 400.04 439.803 400.012 439.679 400.012C439.556 400.012 439.446 400.04 439.35 400.096C439.257 400.148 439.184 400.224 439.131 400.323C439.079 400.419 439.052 400.534 439.052 400.667V400.779C439.052 400.915 439.082 401.036 439.141 401.141C439.203 401.243 439.288 401.322 439.396 401.378C439.508 401.43 439.638 401.457 439.786 401.457C439.919 401.457 440.036 401.436 440.135 401.396C440.237 401.356 440.33 401.296 440.413 401.215L440.799 401.633C440.684 401.763 440.54 401.864 440.367 401.935C440.193 402.003 439.994 402.037 439.768 402.037ZM441.732 402.037C441.608 402.037 441.501 401.995 441.411 401.912C441.324 401.825 441.281 401.715 441.281 401.582C441.281 401.449 441.324 401.342 441.411 401.262C441.501 401.178 441.608 401.136 441.732 401.136C441.859 401.136 441.965 401.178 442.052 401.262C442.139 401.342 442.182 401.449 442.182 401.582C442.182 401.715 442.139 401.825 442.052 401.912C441.965 401.995 441.859 402.037 441.732 402.037ZM443.775 398.749H444.643L445.317 399.734L445.99 398.749H446.873L445.791 400.305L446.961 402H446.074L445.317 400.922L444.569 402H443.701L444.862 400.337L443.775 398.749ZM448.435 402.037C448.15 402.037 447.899 401.981 447.683 401.87C447.469 401.758 447.303 401.607 447.186 401.415C447.068 401.22 447.009 400.998 447.009 400.751C447.009 400.5 447.067 400.278 447.181 400.086C447.299 399.891 447.458 399.74 447.659 399.631C447.861 399.52 448.088 399.464 448.342 399.464C448.587 399.464 448.807 399.517 449.002 399.622C449.2 399.724 449.356 399.873 449.471 400.068C449.585 400.26 449.643 400.491 449.643 400.76C449.643 400.788 449.641 400.82 449.638 400.857C449.635 400.892 449.632 400.924 449.629 400.955H447.599V400.532H449.248L448.969 400.658C448.969 400.528 448.943 400.415 448.89 400.319C448.838 400.223 448.765 400.148 448.672 400.096C448.579 400.04 448.471 400.012 448.347 400.012C448.223 400.012 448.113 400.04 448.017 400.096C447.924 400.148 447.851 400.224 447.799 400.323C447.746 400.419 447.72 400.534 447.72 400.667V400.779C447.72 400.915 447.749 401.036 447.808 401.141C447.87 401.243 447.955 401.322 448.064 401.378C448.175 401.43 448.305 401.457 448.454 401.457C448.587 401.457 448.703 401.436 448.802 401.396C448.904 401.356 448.997 401.296 449.081 401.215L449.466 401.633C449.352 401.763 449.208 401.864 449.034 401.935C448.861 402.003 448.661 402.037 448.435 402.037ZM450.198 402V399.501H450.918V400.477H452.005V399.501H452.729V402H452.005V401.066H450.918V402H450.198ZM455.141 401.675V400.096H454.324L454.31 400.416C454.304 400.549 454.296 400.676 454.287 400.797C454.277 400.918 454.259 401.028 454.231 401.127C454.206 401.223 454.169 401.305 454.12 401.373C454.07 401.438 454.003 401.483 453.92 401.508L453.205 401.406C453.294 401.406 453.367 401.379 453.423 401.327C453.479 401.271 453.522 401.195 453.553 401.099C453.584 401 453.607 400.888 453.623 400.765C453.638 400.638 453.649 400.504 453.655 400.365L453.688 399.501H455.866V401.675H455.141ZM453.121 402.539V401.406H456.223V402.539H455.55V402H453.794V402.539H453.121ZM457.919 402.056C457.715 402.056 457.529 402.026 457.362 401.967C457.195 401.906 457.049 401.811 456.926 401.684C456.805 401.554 456.71 401.388 456.642 401.187C456.577 400.986 456.545 400.746 456.545 400.467C456.545 400.269 456.562 400.088 456.596 399.924C456.63 399.76 456.681 399.611 456.749 399.478C456.817 399.342 456.904 399.223 457.009 399.12C457.118 399.015 457.243 398.928 457.385 398.86C457.531 398.789 457.695 398.735 457.878 398.698L459.067 398.461L459.164 399.083L458.115 399.292C458.053 399.305 457.981 399.322 457.901 399.343C457.823 399.362 457.745 399.391 457.664 399.432C457.587 399.472 457.514 399.529 457.446 399.603C457.381 399.675 457.328 399.769 457.288 399.887C457.248 400.001 457.227 400.144 457.227 400.314C457.227 400.367 457.229 400.407 457.232 400.435C457.238 400.463 457.243 400.492 457.246 400.523C457.252 400.554 457.255 400.602 457.255 400.667L457.023 400.439C457.091 400.294 457.178 400.17 457.283 400.068C457.392 399.966 457.515 399.888 457.655 399.836C457.797 399.78 457.955 399.752 458.128 399.752C458.364 399.752 458.57 399.8 458.746 399.896C458.926 399.989 459.065 400.121 459.164 400.291C459.263 400.461 459.313 400.655 459.313 400.871C459.313 401.107 459.254 401.314 459.136 401.494C459.019 401.67 458.855 401.808 458.644 401.907C458.437 402.006 458.195 402.056 457.919 402.056ZM457.957 401.494C458.077 401.494 458.184 401.467 458.277 401.415C458.37 401.359 458.441 401.286 458.491 401.197C458.543 401.104 458.57 401 458.57 400.885C458.57 400.774 458.543 400.675 458.491 400.588C458.441 400.501 458.37 400.433 458.277 400.384C458.184 400.334 458.076 400.309 457.952 400.309C457.831 400.309 457.723 400.334 457.627 400.384C457.531 400.43 457.457 400.495 457.404 400.579C457.351 400.662 457.325 400.76 457.325 400.871C457.325 400.986 457.351 401.091 457.404 401.187C457.46 401.28 457.534 401.354 457.627 401.41C457.723 401.466 457.833 401.494 457.957 401.494ZM460.075 402.938C459.945 402.938 459.817 402.918 459.69 402.878C459.563 402.838 459.459 402.782 459.379 402.711L459.643 402.195C459.699 402.245 459.763 402.283 459.834 402.311C459.908 402.339 459.981 402.353 460.052 402.353C460.154 402.353 460.235 402.328 460.294 402.279C460.356 402.232 460.411 402.153 460.461 402.042L460.591 401.735L460.647 401.656L461.543 399.501H462.24L461.111 402.153C461.031 402.355 460.938 402.512 460.832 402.627C460.73 402.742 460.616 402.822 460.489 402.869C460.365 402.915 460.227 402.938 460.075 402.938ZM460.503 402.098L459.388 399.501H460.136L461 401.591L460.503 402.098ZM464.359 402L463.523 400.816L464.113 400.467L465.213 402H464.359ZM462.589 402V399.501H463.314V402H462.589ZM463.1 401.053V400.472H463.973V401.053H463.1ZM464.182 400.834L463.504 400.76L464.382 399.501H465.153L464.182 400.834ZM466.884 402V399.501H469.369V402H468.645V399.933L468.807 400.096H467.442L467.604 399.933V402H466.884ZM471.234 402.037C470.968 402.037 470.731 401.981 470.524 401.87C470.319 401.758 470.157 401.607 470.036 401.415C469.918 401.22 469.86 400.998 469.86 400.751C469.86 400.5 469.918 400.278 470.036 400.086C470.157 399.891 470.319 399.74 470.524 399.631C470.731 399.52 470.968 399.464 471.234 399.464C471.497 399.464 471.733 399.52 471.94 399.631C472.148 399.74 472.31 399.89 472.428 400.082C472.546 400.274 472.604 400.497 472.604 400.751C472.604 400.998 472.546 401.22 472.428 401.415C472.31 401.607 472.148 401.758 471.94 401.87C471.733 401.981 471.497 402.037 471.234 402.037ZM471.234 401.443C471.355 401.443 471.463 401.415 471.559 401.359C471.655 401.303 471.731 401.224 471.787 401.122C471.843 401.017 471.871 400.893 471.871 400.751C471.871 400.605 471.843 400.481 471.787 400.379C471.731 400.277 471.655 400.198 471.559 400.142C471.463 400.086 471.355 400.059 471.234 400.059C471.114 400.059 471.005 400.086 470.909 400.142C470.813 400.198 470.736 400.277 470.677 400.379C470.621 400.481 470.593 400.605 470.593 400.751C470.593 400.893 470.621 401.017 470.677 401.122C470.736 401.224 470.813 401.303 470.909 401.359C471.005 401.415 471.114 401.443 471.234 401.443ZM475.914 402V401.512L475.867 401.406V400.532C475.867 400.378 475.819 400.257 475.723 400.17C475.63 400.083 475.486 400.04 475.291 400.04C475.158 400.04 475.027 400.062 474.896 400.105C474.77 400.145 474.661 400.201 474.571 400.272L474.311 399.766C474.447 399.67 474.612 399.596 474.804 399.543C474.996 399.49 475.191 399.464 475.389 399.464C475.77 399.464 476.065 399.554 476.276 399.734C476.486 399.913 476.592 400.193 476.592 400.574V402H475.914ZM475.152 402.037C474.957 402.037 474.79 402.005 474.65 401.94C474.511 401.872 474.404 401.78 474.33 401.666C474.256 401.551 474.218 401.423 474.218 401.28C474.218 401.131 474.254 401.001 474.325 400.89C474.4 400.779 474.516 400.692 474.674 400.63C474.831 400.565 475.037 400.532 475.291 400.532H475.955V400.955H475.37C475.2 400.955 475.082 400.983 475.017 401.039C474.955 401.094 474.924 401.164 474.924 401.248C474.924 401.34 474.96 401.415 475.031 401.471C475.105 401.523 475.206 401.549 475.333 401.549C475.454 401.549 475.562 401.522 475.658 401.466C475.754 401.407 475.824 401.322 475.867 401.21L475.979 401.545C475.926 401.706 475.83 401.828 475.691 401.912C475.551 401.995 475.372 402.037 475.152 402.037ZM477.221 402V399.501H477.941V400.477H479.028V399.501H479.752V402H479.028V401.066H477.941V402H477.221ZM481.941 402V401.512L481.895 401.406V400.532C481.895 400.378 481.847 400.257 481.751 400.17C481.658 400.083 481.514 400.04 481.319 400.04C481.186 400.04 481.054 400.062 480.924 400.105C480.797 400.145 480.689 400.201 480.599 400.272L480.339 399.766C480.475 399.67 480.639 399.596 480.831 399.543C481.023 399.49 481.218 399.464 481.417 399.464C481.797 399.464 482.093 399.554 482.304 399.734C482.514 399.913 482.619 400.193 482.619 400.574V402H481.941ZM481.18 402.037C480.985 402.037 480.817 402.005 480.678 401.94C480.539 401.872 480.432 401.78 480.358 401.666C480.283 401.551 480.246 401.423 480.246 401.28C480.246 401.131 480.282 401.001 480.353 400.89C480.427 400.779 480.543 400.692 480.701 400.63C480.859 400.565 481.065 400.532 481.319 400.532H481.983V400.955H481.398C481.228 400.955 481.11 400.983 481.045 401.039C480.983 401.094 480.952 401.164 480.952 401.248C480.952 401.34 480.988 401.415 481.059 401.471C481.133 401.523 481.234 401.549 481.361 401.549C481.482 401.549 481.59 401.522 481.686 401.466C481.782 401.407 481.852 401.322 481.895 401.21L482.006 401.545C481.954 401.706 481.858 401.828 481.718 401.912C481.579 401.995 481.4 402.037 481.18 402.037ZM482.933 401.995L482.97 401.401C482.989 401.404 483.007 401.407 483.026 401.41C483.045 401.41 483.062 401.41 483.077 401.41C483.164 401.41 483.232 401.385 483.281 401.336C483.331 401.286 483.368 401.22 483.393 401.136C483.418 401.049 483.435 400.952 483.444 400.844C483.456 400.735 483.466 400.622 483.472 400.504L483.509 399.501H485.645V402H484.921V399.919L485.083 400.096H483.987L484.141 399.91L484.108 400.537C484.099 400.76 484.08 400.964 484.052 401.15C484.028 401.336 483.986 401.497 483.927 401.633C483.868 401.766 483.789 401.87 483.69 401.944C483.591 402.015 483.464 402.051 483.309 402.051C483.254 402.051 483.195 402.046 483.133 402.037C483.071 402.028 483.004 402.014 482.933 401.995ZM486.342 402V399.501H487.062V400.988L488.279 399.501H488.943V402H488.223V400.514L487.011 402H486.342ZM490.462 402.046C490.27 402.046 490.078 402.026 489.886 401.986C489.697 401.946 489.522 401.885 489.361 401.805L489.556 401.299C489.683 401.361 489.821 401.409 489.97 401.443C490.122 401.474 490.275 401.489 490.43 401.489C490.541 401.489 490.637 401.478 490.718 401.457C490.801 401.432 490.865 401.398 490.908 401.354C490.951 401.311 490.973 401.258 490.973 401.197C490.973 401.116 490.939 401.056 490.871 401.015C490.803 400.972 490.704 400.95 490.574 400.95H490.063V400.5H490.513C490.597 400.5 490.668 400.491 490.727 400.472C490.786 400.453 490.829 400.427 490.857 400.393C490.888 400.356 490.903 400.313 490.903 400.263C490.903 400.21 490.885 400.165 490.848 400.128C490.81 400.091 490.756 400.063 490.685 400.045C490.614 400.023 490.524 400.012 490.416 400.012C490.292 400.012 490.163 400.028 490.03 400.059C489.897 400.086 489.761 400.128 489.621 400.184L489.445 399.682C489.609 399.614 489.772 399.56 489.933 399.52C490.094 399.48 490.253 399.458 490.411 399.455C490.643 399.449 490.852 399.473 491.038 399.529C491.224 399.585 491.369 399.665 491.475 399.771C491.583 399.876 491.637 400.004 491.637 400.156C491.637 400.277 491.6 400.385 491.526 400.481C491.454 400.577 491.355 400.653 491.228 400.709C491.102 400.761 490.959 400.788 490.801 400.788L490.82 400.644C491.095 400.644 491.312 400.7 491.47 400.811C491.628 400.919 491.707 401.068 491.707 401.257C491.707 401.418 491.651 401.559 491.54 401.68C491.431 401.797 491.283 401.889 491.094 401.954C490.908 402.015 490.697 402.046 490.462 402.046ZM492.564 402.938C492.434 402.938 492.305 402.918 492.178 402.878C492.051 402.838 491.948 402.782 491.867 402.711L492.132 402.195C492.188 402.245 492.251 402.283 492.322 402.311C492.397 402.339 492.469 402.353 492.541 402.353C492.643 402.353 492.723 402.328 492.782 402.279C492.844 402.232 492.9 402.153 492.949 402.042L493.079 401.735L493.135 401.656L494.031 399.501H494.728L493.6 402.153C493.519 402.355 493.426 402.512 493.321 402.627C493.219 402.742 493.104 402.822 492.977 402.869C492.853 402.915 492.716 402.938 492.564 402.938ZM492.991 402.098L491.876 399.501H492.624L493.488 401.591L492.991 402.098ZM498.111 401.675V400.096H497.294L497.28 400.416C497.274 400.549 497.266 400.676 497.257 400.797C497.248 400.918 497.229 401.028 497.201 401.127C497.176 401.223 497.139 401.305 497.09 401.373C497.04 401.438 496.974 401.483 496.89 401.508L496.175 401.406C496.265 401.406 496.337 401.379 496.393 401.327C496.449 401.271 496.492 401.195 496.523 401.099C496.554 401 496.577 400.888 496.593 400.765C496.608 400.638 496.619 400.504 496.625 400.365L496.658 399.501H498.836V401.675H498.111ZM496.091 402.539V401.406H499.194V402.539H498.52V402H496.765V402.539H496.091ZM501.145 402V401.512L501.099 401.406V400.532C501.099 400.378 501.051 400.257 500.955 400.17C500.862 400.083 500.718 400.04 500.523 400.04C500.39 400.04 500.258 400.062 500.128 400.105C500.001 400.145 499.893 400.201 499.803 400.272L499.543 399.766C499.679 399.67 499.843 399.596 500.035 399.543C500.227 399.49 500.422 399.464 500.62 399.464C501.001 399.464 501.297 399.554 501.507 399.734C501.718 399.913 501.823 400.193 501.823 400.574V402H501.145ZM500.383 402.037C500.188 402.037 500.021 402.005 499.882 401.94C499.742 401.872 499.636 401.78 499.561 401.666C499.487 401.551 499.45 401.423 499.45 401.28C499.45 401.131 499.485 401.001 499.557 400.89C499.631 400.779 499.747 400.692 499.905 400.63C500.063 400.565 500.269 400.532 500.523 400.532H501.187V400.955H500.602C500.431 400.955 500.314 400.983 500.249 401.039C500.187 401.094 500.156 401.164 500.156 401.248C500.156 401.34 500.191 401.415 500.263 401.471C500.337 401.523 500.438 401.549 500.565 401.549C500.685 401.549 500.794 401.522 500.89 401.466C500.986 401.407 501.055 401.322 501.099 401.21L501.21 401.545C501.157 401.706 501.061 401.828 500.922 401.912C500.783 401.995 500.603 402.037 500.383 402.037ZM502.453 402V399.501H503.172V400.477H504.259V399.501H504.984V402H504.259V401.066H503.172V402H502.453ZM505.677 402V399.501H506.397V400.477H507.484V399.501H508.209V402H507.484V401.066H506.397V402H505.677ZM511.475 402V399.501H512.195V402H511.475ZM510.217 400.3C510.545 400.303 510.791 400.378 510.955 400.523C511.122 400.665 511.206 400.868 511.206 401.131C511.206 401.407 511.111 401.622 510.923 401.777C510.734 401.929 510.466 402.005 510.119 402.005L508.902 402V399.501H509.622V400.3H510.217ZM510.054 401.489C510.193 401.492 510.3 401.463 510.374 401.401C510.449 401.339 510.486 401.246 510.486 401.122C510.486 400.998 510.449 400.91 510.374 400.857C510.3 400.802 510.193 400.772 510.054 400.769L509.622 400.765V401.489H510.054ZM512.559 402L513.678 400.532L513.664 400.932L512.592 399.501H513.404L514.082 400.435L513.776 400.444L514.477 399.501H515.248L514.171 400.918V400.528L515.285 402H514.463L513.753 401.006L514.055 401.048L513.349 402H512.559ZM515.902 402.037C515.778 402.037 515.671 401.995 515.582 401.912C515.495 401.825 515.452 401.715 515.452 401.582C515.452 401.449 515.495 401.342 515.582 401.262C515.671 401.178 515.778 401.136 515.902 401.136C516.029 401.136 516.136 401.178 516.223 401.262C516.309 401.342 516.353 401.449 516.353 401.582C516.353 401.715 516.309 401.825 516.223 401.912C516.136 401.995 516.029 402.037 515.902 402.037ZM520.458 398.749H521.21V402H520.458V398.749ZM518.981 402H518.229V398.749H518.981V402ZM520.514 400.667H518.925V400.031H520.514V400.667ZM523.465 402V401.512L523.418 401.406V400.532C523.418 400.378 523.37 400.257 523.274 400.17C523.181 400.083 523.037 400.04 522.842 400.04C522.709 400.04 522.578 400.062 522.448 400.105C522.321 400.145 522.212 400.201 522.122 400.272L521.862 399.766C521.999 399.67 522.163 399.596 522.355 399.543C522.547 399.49 522.742 399.464 522.94 399.464C523.321 399.464 523.616 399.554 523.827 399.734C524.038 399.913 524.143 400.193 524.143 400.574V402H523.465ZM522.703 402.037C522.508 402.037 522.341 402.005 522.201 401.94C522.062 401.872 521.955 401.78 521.881 401.666C521.807 401.551 521.77 401.423 521.77 401.28C521.77 401.131 521.805 401.001 521.876 400.89C521.951 400.779 522.067 400.692 522.225 400.63C522.383 400.565 522.588 400.532 522.842 400.532H523.507V400.955H522.921C522.751 400.955 522.633 400.983 522.568 401.039C522.506 401.094 522.475 401.164 522.475 401.248C522.475 401.34 522.511 401.415 522.582 401.471C522.657 401.523 522.757 401.549 522.884 401.549C523.005 401.549 523.113 401.522 523.209 401.466C523.305 401.407 523.375 401.322 523.418 401.21L523.53 401.545C523.477 401.706 523.381 401.828 523.242 401.912C523.102 401.995 522.923 402.037 522.703 402.037ZM526.347 401.043C526.244 401.099 526.131 401.144 526.008 401.178C525.884 401.212 525.748 401.229 525.599 401.229C525.271 401.229 525.018 401.155 524.842 401.006C524.665 400.854 524.577 400.614 524.577 400.286V399.501H525.302V400.24C525.302 400.395 525.342 400.506 525.422 400.574C525.503 400.639 525.616 400.672 525.761 400.672C525.867 400.672 525.967 400.659 526.063 400.635C526.162 400.61 526.257 400.574 526.347 400.528V401.043ZM526.296 402V399.501H527.02V402H526.296ZM529.211 402V401.512L529.165 401.406V400.532C529.165 400.378 529.117 400.257 529.021 400.17C528.928 400.083 528.784 400.04 528.589 400.04C528.456 400.04 528.324 400.062 528.194 400.105C528.067 400.145 527.959 400.201 527.869 400.272L527.609 399.766C527.745 399.67 527.909 399.596 528.101 399.543C528.293 399.49 528.488 399.464 528.686 399.464C529.067 399.464 529.363 399.554 529.574 399.734C529.784 399.913 529.889 400.193 529.889 400.574V402H529.211ZM528.45 402.037C528.255 402.037 528.087 402.005 527.948 401.94C527.809 401.872 527.702 401.78 527.628 401.666C527.553 401.551 527.516 401.423 527.516 401.28C527.516 401.131 527.552 401.001 527.623 400.89C527.697 400.779 527.813 400.692 527.971 400.63C528.129 400.565 528.335 400.532 528.589 400.532H529.253V400.955H528.668C528.498 400.955 528.38 400.983 528.315 401.039C528.253 401.094 528.222 401.164 528.222 401.248C528.222 401.34 528.258 401.415 528.329 401.471C528.403 401.523 528.504 401.549 528.631 401.549C528.752 401.549 528.86 401.522 528.956 401.466C529.052 401.407 529.122 401.322 529.165 401.21L529.276 401.545C529.224 401.706 529.128 401.828 528.988 401.912C528.849 401.995 528.669 402.037 528.45 402.037ZM530.203 401.995L530.24 401.401C530.259 401.404 530.277 401.407 530.296 401.41C530.314 401.41 530.331 401.41 530.347 401.41C530.434 401.41 530.502 401.385 530.551 401.336C530.601 401.286 530.638 401.22 530.663 401.136C530.688 401.049 530.705 400.952 530.714 400.844C530.726 400.735 530.736 400.622 530.742 400.504L530.779 399.501H532.915V402H532.191V399.919L532.353 400.096H531.257L531.411 399.91L531.378 400.537C531.369 400.76 531.35 400.964 531.322 401.15C531.298 401.336 531.256 401.497 531.197 401.633C531.138 401.766 531.059 401.87 530.96 401.944C530.861 402.015 530.734 402.051 530.579 402.051C530.523 402.051 530.465 402.046 530.403 402.037C530.341 402.028 530.274 402.014 530.203 401.995ZM534.964 400.3C535.292 400.303 535.541 400.378 535.711 400.523C535.885 400.665 535.971 400.868 535.971 401.131C535.971 401.407 535.874 401.622 535.679 401.777C535.484 401.929 535.213 402.005 534.866 402.005L533.612 402V399.501H534.332V400.3H534.964ZM534.801 401.489C534.94 401.492 535.047 401.463 535.122 401.401C535.196 401.339 535.233 401.246 535.233 401.122C535.233 400.998 535.196 400.91 535.122 400.857C535.047 400.802 534.94 400.772 534.801 400.769L534.332 400.765V401.489H534.801ZM536.424 402V399.501H537.144V400.477H538.231V399.501H538.955V402H538.231V401.066H537.144V402H536.424ZM542.222 402V399.501H542.942V402H542.222ZM540.963 400.3C541.292 400.303 541.538 400.378 541.702 400.523C541.869 400.665 541.953 400.868 541.953 401.131C541.953 401.407 541.858 401.622 541.669 401.777C541.48 401.929 541.213 402.005 540.866 402.005L539.649 402V399.501H540.369V400.3H540.963ZM540.801 401.489C540.94 401.492 541.047 401.463 541.121 401.401C541.196 401.339 541.233 401.246 541.233 401.122C541.233 400.998 541.196 400.91 541.121 400.857C541.047 400.802 540.94 400.772 540.801 400.769L540.369 400.765V401.489H540.801ZM543.64 402V399.501H544.36V400.988L545.577 399.501H546.241V402H545.521V400.514L544.309 402H543.64ZM544.894 399.232C544.622 399.232 544.417 399.173 544.281 399.055C544.145 398.935 544.075 398.754 544.072 398.512H544.546C544.549 398.617 544.578 398.701 544.634 398.763C544.69 398.825 544.775 398.856 544.89 398.856C545.001 398.856 545.086 398.825 545.145 398.763C545.207 398.701 545.238 398.617 545.238 398.512H545.721C545.721 398.754 545.651 398.935 545.512 399.055C545.373 399.173 545.167 399.232 544.894 399.232ZM548.592 402.938C548.462 402.938 548.333 402.918 548.207 402.878C548.08 402.838 547.976 402.782 547.895 402.711L548.16 402.195C548.216 402.245 548.279 402.283 548.35 402.311C548.425 402.339 548.498 402.353 548.569 402.353C548.671 402.353 548.751 402.328 548.81 402.279C548.872 402.232 548.928 402.153 548.977 402.042L549.108 401.735L549.163 401.656L550.06 399.501H550.756L549.628 402.153C549.547 402.355 549.454 402.512 549.349 402.627C549.247 402.742 549.132 402.822 549.005 402.869C548.881 402.915 548.744 402.938 548.592 402.938ZM549.019 402.098L547.905 399.501H548.652L549.516 401.591L549.019 402.098ZM552.578 402.037C552.368 402.037 552.183 401.991 552.025 401.898C551.868 401.805 551.744 401.664 551.654 401.475C551.567 401.283 551.524 401.042 551.524 400.751C551.524 400.456 551.566 400.215 551.649 400.026C551.733 399.837 551.854 399.696 552.012 399.603C552.169 399.511 552.358 399.464 552.578 399.464C552.813 399.464 553.024 399.518 553.21 399.627C553.399 399.732 553.547 399.881 553.656 400.073C553.767 400.265 553.823 400.491 553.823 400.751C553.823 401.014 553.767 401.241 553.656 401.433C553.547 401.625 553.399 401.774 553.21 401.879C553.024 401.985 552.813 402.037 552.578 402.037ZM551.101 402.901V399.501H551.793V400.012L551.779 400.755L551.826 401.494V402.901H551.101ZM552.453 401.443C552.573 401.443 552.68 401.415 552.773 401.359C552.869 401.303 552.945 401.224 553.001 401.122C553.06 401.017 553.089 400.893 553.089 400.751C553.089 400.605 553.06 400.481 553.001 400.379C552.945 400.277 552.869 400.198 552.773 400.142C552.68 400.086 552.573 400.059 552.453 400.059C552.332 400.059 552.224 400.086 552.128 400.142C552.032 400.198 551.956 400.277 551.9 400.379C551.844 400.481 551.816 400.605 551.816 400.751C551.816 400.893 551.844 401.017 551.9 401.122C551.956 401.224 552.032 401.303 552.128 401.359C552.224 401.415 552.332 401.443 552.453 401.443ZM555.501 402.037C555.235 402.037 554.998 401.981 554.79 401.87C554.586 401.758 554.424 401.607 554.303 401.415C554.185 401.22 554.126 400.998 554.126 400.751C554.126 400.5 554.185 400.278 554.303 400.086C554.424 399.891 554.586 399.74 554.79 399.631C554.998 399.52 555.235 399.464 555.501 399.464C555.764 399.464 556 399.52 556.207 399.631C556.414 399.74 556.577 399.89 556.695 400.082C556.812 400.274 556.871 400.497 556.871 400.751C556.871 400.998 556.812 401.22 556.695 401.415C556.577 401.607 556.414 401.758 556.207 401.87C556 401.981 555.764 402.037 555.501 402.037ZM555.501 401.443C555.622 401.443 555.73 401.415 555.826 401.359C555.922 401.303 555.998 401.224 556.054 401.122C556.109 401.017 556.137 400.893 556.137 400.751C556.137 400.605 556.109 400.481 556.054 400.379C555.998 400.277 555.922 400.198 555.826 400.142C555.73 400.086 555.622 400.059 555.501 400.059C555.38 400.059 555.272 400.086 555.176 400.142C555.08 400.198 555.003 400.277 554.944 400.379C554.888 400.481 554.86 400.605 554.86 400.751C554.86 400.893 554.888 401.017 554.944 401.122C555.003 401.224 555.08 401.303 555.176 401.359C555.272 401.415 555.38 401.443 555.501 401.443ZM557.369 402V399.501H558.647C558.959 399.501 559.204 399.559 559.381 399.673C559.557 399.785 559.645 399.943 559.645 400.147C559.645 400.351 559.562 400.512 559.394 400.63C559.23 400.744 559.012 400.802 558.74 400.802L558.814 400.635C559.117 400.635 559.343 400.69 559.492 400.802C559.644 400.913 559.72 401.076 559.72 401.289C559.72 401.509 559.636 401.683 559.469 401.81C559.302 401.937 559.046 402 558.702 402H557.369ZM558.034 401.508H558.642C558.775 401.508 558.874 401.486 558.939 401.443C559.007 401.396 559.041 401.327 559.041 401.234C559.041 401.138 559.011 401.068 558.949 401.025C558.887 400.978 558.789 400.955 558.656 400.955H558.034V401.508ZM558.034 400.528H558.582C558.709 400.528 558.803 400.504 558.865 400.458C558.93 400.412 558.963 400.345 558.963 400.258C558.963 400.169 558.93 400.102 558.865 400.059C558.803 400.015 558.709 399.994 558.582 399.994H558.034V400.528ZM561.48 402.037C561.195 402.037 560.944 401.981 560.728 401.87C560.514 401.758 560.348 401.607 560.231 401.415C560.113 401.22 560.054 400.998 560.054 400.751C560.054 400.5 560.112 400.278 560.226 400.086C560.344 399.891 560.503 399.74 560.705 399.631C560.906 399.52 561.133 399.464 561.387 399.464C561.632 399.464 561.852 399.517 562.047 399.622C562.245 399.724 562.401 399.873 562.516 400.068C562.63 400.26 562.688 400.491 562.688 400.76C562.688 400.788 562.686 400.82 562.683 400.857C562.68 400.892 562.677 400.924 562.674 400.955H560.644V400.532H562.293L562.014 400.658C562.014 400.528 561.988 400.415 561.935 400.319C561.883 400.223 561.81 400.148 561.717 400.096C561.624 400.04 561.516 400.012 561.392 400.012C561.268 400.012 561.158 400.04 561.062 400.096C560.969 400.148 560.896 400.224 560.844 400.323C560.791 400.419 560.765 400.534 560.765 400.667V400.779C560.765 400.915 560.794 401.036 560.853 401.141C560.915 401.243 561 401.322 561.109 401.378C561.22 401.43 561.35 401.457 561.499 401.457C561.632 401.457 561.748 401.436 561.847 401.396C561.949 401.356 562.042 401.296 562.126 401.215L562.511 401.633C562.397 401.763 562.253 401.864 562.079 401.935C561.906 402.003 561.706 402.037 561.48 402.037ZM563.243 402V399.501H563.963V400.477H565.05V399.501H565.774V402H565.05V401.066H563.963V402H563.243ZM567.819 400.3C568.148 400.303 568.397 400.378 568.567 400.523C568.741 400.665 568.827 400.868 568.827 401.131C568.827 401.407 568.73 401.622 568.535 401.777C568.34 401.929 568.069 402.005 567.722 402.005L566.468 402V399.501H567.188V400.3H567.819ZM567.657 401.489C567.796 401.492 567.903 401.463 567.977 401.401C568.052 401.339 568.089 401.246 568.089 401.122C568.089 400.998 568.052 400.91 567.977 400.857C567.903 400.802 567.796 400.772 567.657 400.769L567.188 400.765V401.489H567.657Z" fill="#D8D8D8"/>
<path d="M180.067 62.0436H182.371C181.98 64.8889 179.966 66.3368 177.574 66.3368C174.917 66.3368 172.727 64.5238 172.727 61.049C172.727 57.6497 174.917 55.7486 177.574 55.7486C179.978 55.7486 181.842 57.2216 182.32 59.7522H179.966C179.701 58.4806 178.745 57.8637 177.574 57.8637C176.076 57.8637 174.917 58.8709 174.917 61.049C174.917 63.2397 176.063 64.2343 177.574 64.2343C178.845 64.2343 179.903 63.5292 180.067 62.0436ZM183.112 55.9626H185.252V62.6227L190.187 55.9626H192.328V66.1479H190.187V59.4375L185.252 66.1479H183.112V55.9626ZM201.659 55.9626H204.026V66.1479H201.886V60.3188L199.607 66.1479H197.92L195.641 60.3062V66.1479H193.501V55.9626H195.855L198.764 63.9825L201.659 55.9626ZM213.352 55.9626H215.719V66.1479H213.578V60.3188L211.3 66.1479H209.613L207.334 60.3062V66.1479H205.193V55.9626H207.548L210.456 63.9825L213.352 55.9626ZM216.886 55.9626H224.163V58.0022H219.089V59.8152L223.319 59.8404V61.8673L219.089 61.8548V64.121H224.163V66.1479H216.886V55.9626ZM224.549 55.9626H233.903V58.0022H230.353V66.1479H228.099V58.0022H224.549V55.9626ZM239.422 55.9626C241.625 55.9626 242.771 57.6497 242.771 59.2486C242.771 61.3512 241.185 62.4968 239.51 62.4968H236.967V66.1479H234.714V55.9626H236.212H239.422ZM239.372 60.5202C240.19 60.5202 240.795 60.0292 240.795 59.2486C240.795 58.468 240.152 57.9393 239.372 57.9393H236.967V60.5202H239.372ZM243.455 55.9626H245.596V62.6227L250.531 55.9626H252.671V66.1479H250.531V59.4375L245.596 66.1479H243.455V55.9626ZM258.742 55.9626H261.008V66.1479H258.742V61.54C257.936 62.0814 256.665 62.0814 256.665 62.0814C254.801 62.0814 253.416 61.0238 253.416 59.1605V55.9626H255.481V58.9213C255.481 59.79 256.211 60.1677 257.055 60.1677C257.886 60.1677 258.742 59.7774 258.742 58.9213V55.9626ZM264.434 55.9626V59.8152H268.727V55.9626H270.993V66.1479H268.727V61.8548H264.434V66.1479H262.18V55.9626H264.434ZM281.493 55.9626H283.746V66.1479H281.493V55.9626ZM276.394 60.067C279.441 60.067 280.448 61.4519 280.448 63.1641C280.448 65.808 278.031 66.1479 275.89 66.1479H272.176V55.9626H274.43V60.067H276.394ZM278.32 63.1263V62.8494C278.32 62.1821 277.665 61.6407 276.658 61.6407H274.468V64.335H276.658C277.665 64.335 278.32 63.7936 278.32 63.1263ZM284.914 55.9626H292.191V58.0022H287.117V59.8152L291.347 59.8404V61.8673L287.117 61.8548V64.121H292.191V66.1479H284.914V55.9626ZM302.003 55.9626C304.207 55.9626 305.352 57.6497 305.352 59.2486C305.352 61.3512 303.766 62.4968 302.092 62.4968H299.548V66.1479H297.295V55.9626H298.793H302.003ZM301.953 60.5202C302.771 60.5202 303.376 60.0292 303.376 59.2486C303.376 58.468 302.734 57.9393 301.953 57.9393H299.548V60.5202H301.953ZM311.901 66.1479L311.108 64.0454H307.356L306.563 66.1479H304.422L308.162 55.9626H310.529L314.041 66.1479H311.901ZM308.061 62.1695H310.403L309.232 59.0724L308.061 62.1695ZM321.04 62.0436H323.344C322.954 64.8889 320.939 66.3368 318.547 66.3368C315.891 66.3368 313.7 64.5238 313.7 61.049C313.7 57.6497 315.891 55.7486 318.547 55.7486C320.952 55.7486 322.815 57.2216 323.294 59.7522H320.939C320.675 58.4806 319.718 57.8637 318.547 57.8637C317.049 57.8637 315.891 58.8709 315.891 61.049C315.891 63.2397 317.037 64.2343 318.547 64.2343C319.819 64.2343 320.876 63.5292 321.04 62.0436ZM324.085 55.9626H332.684V66.1479H330.418V58.0022H326.339V66.1479H324.085V55.9626ZM338.569 55.9626C340.772 55.9626 341.917 57.6497 341.917 59.2486C341.917 61.3512 340.331 62.4968 338.657 62.4968H336.113V66.1479H333.86V55.9626H335.358H338.569ZM338.518 60.5202C339.336 60.5202 339.941 60.0292 339.941 59.2486C339.941 58.468 339.299 57.9393 338.518 57.9393H336.113V60.5202H338.518ZM342.602 55.9626H349.879V58.0022H344.805V59.8152L349.035 59.8404V61.8673L344.805 61.8548V64.121H349.879V66.1479H342.602V55.9626ZM357.164 64.1084V58.0022H354.734V59.2612C354.734 61.4896 354.255 63.0256 353.739 64.1084H357.164ZM359.43 64.1084H361.004V68.1875H358.977V66.1479H352.052V68.1875H350.025V64.1084C351.322 64.1084 352.279 64.1084 351.234 64.1084C352.115 64.1084 352.745 61.6533 352.745 58.8961V55.9626C353.865 55.9626 358.133 55.9626 359.43 55.9626V64.1084ZM361.622 55.9626H368.899V58.0022H363.825V59.8152L368.055 59.8404V61.8673L363.825 61.8548V64.121H368.899V66.1479H361.622V55.9626ZM371.148 55.9626H377.745V66.1354H375.529V57.9896H373.036V60.2936C373.036 61.9807 373.036 65.3044 370.909 66.0472C370.443 66.2109 369.826 66.1605 369.033 66.1102V64.0958C369.612 64.1461 370.04 64.1084 370.33 63.9447C371.135 63.504 371.148 60.7972 371.148 59.8152V55.9626ZM378.945 55.9626H386.222V58.0022H381.149V59.8152L385.379 59.8404V61.8673L381.149 61.8548V64.121H386.222V66.1479H378.945V55.9626ZM389.252 55.9626V59.8152H393.545V55.9626H395.811V66.1479H393.545V61.8548H389.252V66.1479H386.998V55.9626H389.252ZM396.994 55.9626H399.135V62.6227L404.07 55.9626H406.21V66.1479H404.07V59.4375L399.135 66.1479H396.994V55.9626ZM406.855 66.1479L409.247 62.2576C408.051 61.8044 407.283 60.558 407.283 59.2486C407.283 57.5616 408.642 55.9626 410.858 55.9626H415.58V66.1479H413.313V62.4843C413.313 62.4843 413.062 62.4843 411.45 62.4843L409.436 66.1479H406.855ZM410.682 60.5076H413.313V57.9393H410.682C409.901 57.9393 409.259 58.4555 409.259 59.2486C409.259 60.0292 409.901 60.5076 410.682 60.5076Z" fill="black"/>
<g opacity="0.05">
<rect x="98.2656" y="321" width="7.35556" height="2" fill="#2300FA"/>
<rect x="108.525" y="314" width="7.35556" height="9" fill="#2300FA"/>
<rect x="118.786" y="297" width="7.35556" height="26" fill="#2300FA"/>
<rect x="129.046" y="267" width="7.35556" height="56" fill="#2300FA"/>
<rect x="139.307" y="212" width="7.35556" height="111" fill="#2300FA"/>
<rect x="149.566" y="143" width="7.35556" height="180" fill="#2300FA"/>
<rect x="159.827" y="118" width="7.35556" height="205" fill="#2300FA"/>
<rect x="170.088" y="143" width="7.35556" height="180" fill="#2300FA"/>
<rect x="180.348" y="212" width="7.35556" height="111" fill="#2300FA"/>
<rect x="190.608" y="267" width="7.35556" height="56" fill="#2300FA"/>
<rect x="200.868" y="297" width="7.35556" height="26" fill="#2300FA"/>
<rect x="211.129" y="314" width="7.35556" height="9" fill="#2300FA"/>
<rect x="221.389" y="321" width="7.35556" height="2" fill="#2300FA"/>
</g>
<path d="M86.4589 326.055C86.329 326.056 86.2611 326.055 86.2611 326.055H86.4589C88.5261 326.032 106.28 325.267 115.389 306.055C148.801 235.591 141.126 118 164.005 118C186.884 118 180.234 235.591 213.645 306.055C222.755 325.267 240.508 326.032 242.576 326.055H242.773C242.773 326.055 242.705 326.056 242.576 326.055H86.4589Z" fill="#DCFF00" fill-opacity="0.25"/>
<path d="M48.0049 326.055H86.2611M281.03 326.055H242.773M86.2611 326.055C86.2611 326.055 105.707 326.474 115.389 306.055C148.801 235.591 141.126 118 164.005 118C186.884 118 180.234 235.591 213.645 306.055C223.327 326.474 242.773 326.055 242.773 326.055M86.2611 326.055H242.773" stroke="#DCFF00" stroke-width="2"/>
<path d="M163.996 117L163.996 326" stroke="#9A9C9E" stroke-width="2"/>
<path d="M48.0068 117V326H281.007" stroke="#9A9C9E" stroke-width="2"/>
<path d="M32.2546 221.143C32.4706 221.623 32.6346 222.103 32.7466 222.583C32.8586 223.055 32.9146 223.511 32.9146 223.951C32.9146 224.935 32.6786 225.703 32.2066 226.255C31.7266 226.799 31.0506 227.071 30.1786 227.071L27.4066 227.071L27.4066 226.195L30.0826 226.195C30.7306 226.195 31.2346 225.991 31.5946 225.583C31.9546 225.167 32.1346 224.595 32.1346 223.867C32.1346 223.435 32.0786 222.987 31.9666 222.523C31.8466 222.059 31.6786 221.599 31.4626 221.143L32.2546 221.143ZM35.8066 221.299L27.4066 221.299L27.4066 220.435L35.8066 220.435L35.8066 221.299ZM35.8066 213.878L34.4146 213.878L34.1866 213.914L31.8586 213.914C31.3226 213.914 30.9106 214.066 30.6226 214.37C30.3346 214.666 30.1906 215.11 30.1906 215.702C30.1906 216.11 30.2586 216.498 30.3946 216.866C30.5306 217.234 30.7106 217.546 30.9346 217.802L30.2986 218.186C30.0266 217.866 29.8186 217.482 29.6746 217.034C29.5226 216.586 29.4466 216.114 29.4466 215.618C29.4466 214.802 29.6506 214.174 30.0586 213.734C30.4586 213.286 31.0706 213.062 31.8946 213.062L35.8066 213.062L35.8066 213.878ZM35.8666 216.05C35.8666 216.522 35.7906 216.934 35.6386 217.286C35.4786 217.63 35.2626 217.894 34.9906 218.078C34.7106 218.262 34.3906 218.354 34.0306 218.354C33.7026 218.354 33.4066 218.278 33.1426 218.126C32.8706 217.966 32.6546 217.71 32.4946 217.358C32.3266 216.998 32.2426 216.518 32.2426 215.918L32.2426 213.746L32.8786 213.746L32.8786 215.894C32.8786 216.502 32.9866 216.926 33.2026 217.166C33.4186 217.398 33.6866 217.514 34.0066 217.514C34.3666 217.514 34.6546 217.374 34.8706 217.094C35.0866 216.814 35.1946 216.422 35.1946 215.918C35.1946 215.438 35.0866 215.026 34.8706 214.682C34.6466 214.33 34.3266 214.074 33.9106 213.914L34.4986 213.722C34.9146 213.882 35.2466 214.162 35.4946 214.562C35.7426 214.954 35.8666 215.45 35.8666 216.05ZM35.8666 208.154C35.8666 208.778 35.7306 209.338 35.4586 209.834C35.1786 210.322 34.7986 210.706 34.3186 210.986C33.8306 211.266 33.2746 211.406 32.6506 211.406C32.0186 211.406 31.4626 211.266 30.9826 210.986C30.5026 210.706 30.1266 210.322 29.8546 209.834C29.5826 209.338 29.4466 208.778 29.4466 208.154C29.4466 207.618 29.5506 207.134 29.7586 206.702C29.9666 206.27 30.2786 205.93 30.6946 205.682L31.1266 206.318C30.8066 206.534 30.5706 206.802 30.4186 207.122C30.2666 207.442 30.1906 207.79 30.1906 208.166C30.1906 208.614 30.2946 209.018 30.5026 209.378C30.7026 209.738 30.9866 210.022 31.3546 210.23C31.7226 210.438 32.1546 210.542 32.6506 210.542C33.1466 210.542 33.5786 210.438 33.9466 210.23C34.3146 210.022 34.6026 209.738 34.8106 209.378C35.0106 209.018 35.1106 208.614 35.1106 208.166C35.1106 207.79 35.0346 207.442 34.8826 207.122C34.7306 206.802 34.4986 206.534 34.1866 206.318L34.6186 205.682C35.0266 205.93 35.3386 206.27 35.5546 206.702C35.7626 207.134 35.8666 207.618 35.8666 208.154ZM35.8066 202.949L30.0226 202.949L30.2506 202.733L30.2506 205.337L29.5066 205.337L29.5066 199.709L30.2506 199.709L30.2506 202.313L30.0226 202.097L35.8066 202.097L35.8066 202.949ZM35.8666 196.178C35.8666 196.786 35.7306 197.334 35.4586 197.822C35.1786 198.302 34.7986 198.682 34.3186 198.962C33.8306 199.242 33.2746 199.382 32.6506 199.382C32.0186 199.382 31.4626 199.242 30.9826 198.962C30.5026 198.682 30.1266 198.302 29.8546 197.822C29.5826 197.342 29.4466 196.794 29.4466 196.178C29.4466 195.554 29.5826 195.002 29.8546 194.522C30.1266 194.034 30.5026 193.654 30.9826 193.382C31.4626 193.102 32.0186 192.962 32.6506 192.962C33.2746 192.962 33.8306 193.102 34.3186 193.382C34.7986 193.654 35.1786 194.034 35.4586 194.522C35.7306 195.01 35.8666 195.562 35.8666 196.178ZM35.1106 196.178C35.1106 195.722 35.0106 195.318 34.8106 194.966C34.6026 194.614 34.3146 194.338 33.9466 194.138C33.5706 193.93 33.1386 193.826 32.6506 193.826C32.1546 193.826 31.7226 193.93 31.3546 194.138C30.9866 194.338 30.7026 194.614 30.5026 194.966C30.2946 195.318 30.1906 195.718 30.1906 196.166C30.1906 196.614 30.2946 197.014 30.5026 197.366C30.7026 197.718 30.9866 197.998 31.3546 198.206C31.7226 198.414 32.1546 198.518 32.6506 198.518C33.1386 198.518 33.5706 198.414 33.9466 198.206C34.3146 197.998 34.6026 197.718 34.8106 197.366C35.0106 197.014 35.1106 196.618 35.1106 196.178ZM35.8066 190.176L30.0226 190.176L30.2506 189.96L30.2506 192.564L29.5066 192.564L29.5066 186.936L30.2506 186.936L30.2506 189.54L30.0226 189.324L35.8066 189.324L35.8066 190.176ZM35.8066 181.792L34.4146 181.792L34.1866 181.828L31.8586 181.828C31.3226 181.828 30.9106 181.98 30.6226 182.284C30.3346 182.58 30.1906 183.024 30.1906 183.616C30.1906 184.024 30.2586 184.412 30.3946 184.78C30.5306 185.148 30.7106 185.46 30.9346 185.716L30.2986 186.1C30.0266 185.78 29.8186 185.396 29.6746 184.948C29.5226 184.5 29.4466 184.028 29.4466 183.532C29.4466 182.716 29.6506 182.088 30.0586 181.648C30.4586 181.2 31.0706 180.976 31.8946 180.976L35.8066 180.976L35.8066 181.792ZM35.8666 183.964C35.8666 184.436 35.7906 184.848 35.6386 185.2C35.4786 185.544 35.2626 185.808 34.9906 185.992C34.7106 186.176 34.3906 186.268 34.0306 186.268C33.7026 186.268 33.4066 186.192 33.1426 186.04C32.8706 185.88 32.6546 185.624 32.4946 185.272C32.3266 184.912 32.2426 184.432 32.2426 183.832L32.2426 181.66L32.8786 181.66L32.8786 183.808C32.8786 184.416 32.9866 184.84 33.2026 185.08C33.4186 185.312 33.6866 185.428 34.0066 185.428C34.3666 185.428 34.6546 185.288 34.8706 185.008C35.0866 184.728 35.1946 184.336 35.1946 183.832C35.1946 183.352 35.0866 182.94 34.8706 182.596C34.6466 182.244 34.3266 181.988 33.9106 181.828L34.4986 181.636C34.9146 181.796 35.2466 182.076 35.4946 182.476C35.7426 182.868 35.8666 183.364 35.8666 183.964Z" fill="black"/>
<path d="M280.996 328V323L286.996 325.609L280.996 328Z" fill="#9A9C9E" stroke="#9A9C9E" stroke-width="2"/>
<path d="M50.5059 116L45.5059 116L48.1146 110L50.5059 116Z" fill="#9A9C9E" stroke="#9A9C9E" stroke-width="2"/>
<path d="M148.179 338.345H148.935C148.566 340.388 147.036 341.144 145.596 341.144C143.508 341.144 142.167 339.659 142.167 337.355C142.167 336.185 142.518 335.204 143.175 334.529C143.787 333.908 144.642 333.566 145.596 333.566C147.306 333.566 148.512 334.547 148.89 336.194H148.134C147.747 334.817 146.649 334.304 145.596 334.304C144.273 334.304 142.905 335.168 142.905 337.355C142.905 339.614 144.273 340.406 145.596 340.406C146.964 340.406 147.891 339.677 148.179 338.345ZM152.561 333.719C154.109 333.719 154.946 334.826 154.946 335.87C154.946 336.914 154.127 337.976 152.57 337.976H150.356V341H149.609V333.719H152.561ZM152.705 337.238C153.416 337.238 154.217 336.788 154.217 335.87C154.217 334.934 153.407 334.457 152.705 334.457H150.356V337.238H152.705ZM156.279 334.43V336.743H159.78V337.454L156.279 337.436V340.298H160.437V341H155.55V333.719H160.437V334.43H156.279ZM166.359 340.316V334.421H163.515V335.663C163.542 336.986 163.236 339.065 162.714 340.316H166.359ZM167.07 340.325H168.519V342.467H167.808V341.009H161.337V342.467H160.635V340.325H161.742C162.408 339.686 162.777 337.526 162.795 335.744V333.728H167.07V340.325ZM173.858 341V337.445H169.718V341H168.98V333.719H169.718V336.743H173.858V333.719H174.596V341H173.858ZM176.309 334.43V336.743H179.81V337.454L176.309 337.436V340.298H180.467V341H175.58V333.719H180.467V334.43H176.309ZM181.794 334.43V336.743H185.295V337.454L181.794 337.436V340.298H185.952V341H181.065V333.719H185.952V334.43H181.794ZM153.003 350L150.483 343.565V350H149.745V342.719H150.924L153.345 348.956L155.748 342.719H156.936V350H156.189L156.198 343.565L153.678 350H153.003ZM161.096 342.566C163.175 342.566 164.525 344.015 164.525 346.355C164.525 349.154 162.752 350.144 161.096 350.144C159.008 350.144 157.667 348.659 157.667 346.355C157.667 345.185 158.018 344.204 158.675 343.529C159.287 342.908 160.142 342.566 161.096 342.566ZM161.096 349.406C162.779 349.406 163.778 348.308 163.778 346.355C163.778 344.087 162.41 343.304 161.096 343.304C159.773 343.304 158.405 344.168 158.405 346.355C158.405 348.614 159.773 349.406 161.096 349.406ZM170.09 349.316V343.421H167.246V344.663C167.273 345.986 166.967 348.065 166.445 349.316H170.09ZM170.801 349.325H172.25V351.467H171.539V350.009H165.068V351.467H164.366V349.325H165.473C166.139 348.686 166.508 346.526 166.526 344.744V342.728H170.801V349.325ZM177.196 347.912H173.983L173.236 350H172.462L175.18 342.719H176.008L178.735 350H177.943L177.196 347.912ZM175.594 343.403L174.235 347.201H176.944L175.594 343.403ZM143.805 359L141.285 352.565V359H140.547V351.719H141.726L144.147 357.956L146.55 351.719H147.738V359H146.991L147 352.565L144.48 359H143.805ZM149.45 352.43V354.743H152.951V355.454L149.45 355.436V358.298H153.608V359H148.721V351.719H153.608V352.43H149.45ZM159.53 358.316V352.421H156.686V353.663C156.713 354.986 156.407 357.065 155.885 358.316H159.53ZM160.241 358.325H161.69V360.467H160.979V359.009H154.508V360.467H153.806V358.325H154.913C155.579 357.686 155.948 355.526 155.966 353.744V351.728H160.241V358.325ZM167.542 352.565L163.105 359H162.151V351.719H162.889V358.154L167.308 351.719H168.28V359H167.542V352.565ZM173.518 356.912H170.305L169.558 359H168.784L171.502 351.719H172.33L175.057 359H174.265L173.518 356.912ZM171.916 352.403L170.557 356.201H173.266L171.916 352.403ZM180.423 359V355.445H176.283V359H175.545V351.719H176.283V354.743H180.423V351.719H181.161V359H180.423ZM186.394 356.912H183.181L182.434 359H181.66L184.378 351.719H185.206L187.933 359H187.141L186.394 356.912ZM184.792 352.403L183.433 356.201H186.142L184.792 352.403Z" fill="black"/>
<g opacity="0.05">
<rect x="331.007" y="320" width="9.44258" height="3" fill="#2300FA"/>
<rect x="343.354" y="311" width="9.44258" height="12" fill="#2300FA"/>
<rect x="355.701" y="283" width="9.44258" height="40" fill="#2300FA"/>
<rect x="368.049" y="227" width="9.44258" height="96" fill="#2300FA"/>
<rect x="380.396" y="139" width="9.44258" height="184" fill="#2300FA"/>
<rect x="392.743" y="121" width="9.44258" height="202" fill="#2300FA"/>
<rect x="405.091" y="169" width="9.44258" height="154" fill="#2300FA"/>
<rect x="417.438" y="245" width="9.44258" height="78" fill="#2300FA"/>
<rect x="429.785" y="275" width="9.44258" height="48" fill="#2300FA"/>
<rect x="442.133" y="245" width="9.44258" height="78" fill="#2300FA"/>
<rect x="454.48" y="163" width="9.44258" height="160" fill="#2300FA"/>
<rect x="466.827" y="119" width="9.44258" height="204" fill="#2300FA"/>
<rect x="479.175" y="163" width="9.44258" height="160" fill="#2300FA"/>
<rect x="491.522" y="251" width="9.44258" height="72" fill="#2300FA"/>
<rect x="503.869" y="283" width="9.44258" height="40" fill="#2300FA"/>
<rect x="516.217" y="311" width="9.44258" height="12" fill="#2300FA"/>
<rect x="528.564" y="320" width="9.44258" height="3" fill="#2300FA"/>
</g>
<path d="M346.397 306.055C337.288 325.267 320.534 326.032 318.467 326.055H513.573H553.166H553.582C551.515 326.032 533.762 325.267 524.652 306.055C491.24 235.591 497.891 118 475.012 118C454.494 118 458.548 204.73 435.509 281.714C412.3 204.731 415.53 118 395.013 118C372.134 118 379.808 235.591 346.397 306.055Z" fill="#DCFF00" fill-opacity="0.25"/>
<path d="M513.573 326.055H553.582C551.515 326.032 533.762 325.267 524.652 306.055C491.24 235.591 497.891 118 475.012 118C454.494 118 458.548 204.73 435.509 281.714C412.3 204.731 415.53 118 395.013 118C372.134 118 379.808 235.591 346.397 306.055C337.288 325.267 320.534 326.032 318.467 326.055H553.166" stroke="#DCFF00" stroke-width="2"/>
<path d="M435.506 117L435.506 326" stroke="#9A9C9E" stroke-width="2"/>
<path d="M395.006 117L395.006 326" stroke="#9A9C9E" stroke-width="2" stroke-dasharray="4 4"/>
<path d="M475.004 117L475.004 326" stroke="#9A9C9E" stroke-width="2" stroke-dasharray="4 4"/>
<path d="M319.006 117V326H552.006" stroke="#9A9C9E" stroke-width="2"/>
<path d="M303.322 221.143C303.538 221.623 303.702 222.103 303.814 222.583C303.926 223.055 303.982 223.511 303.982 223.951C303.982 224.935 303.746 225.703 303.274 226.255C302.794 226.799 302.118 227.071 301.246 227.071L298.474 227.071L298.474 226.195L301.15 226.195C301.798 226.195 302.302 225.991 302.662 225.583C303.022 225.167 303.202 224.595 303.202 223.867C303.202 223.435 303.146 222.987 303.034 222.523C302.914 222.059 302.746 221.599 302.53 221.143L303.322 221.143ZM306.874 221.299L298.474 221.299L298.474 220.435L306.874 220.435L306.874 221.299ZM306.874 213.878L305.482 213.878L305.254 213.914L302.926 213.914C302.39 213.914 301.978 214.066 301.69 214.37C301.402 214.666 301.258 215.11 301.258 215.702C301.258 216.11 301.326 216.498 301.462 216.866C301.598 217.234 301.778 217.546 302.002 217.802L301.366 218.186C301.094 217.866 300.886 217.482 300.742 217.034C300.59 216.586 300.514 216.114 300.514 215.618C300.514 214.802 300.718 214.174 301.126 213.734C301.526 213.286 302.138 213.062 302.962 213.062L306.874 213.062L306.874 213.878ZM306.934 216.05C306.934 216.522 306.858 216.934 306.706 217.286C306.546 217.63 306.33 217.894 306.058 218.078C305.778 218.262 305.458 218.354 305.098 218.354C304.77 218.354 304.474 218.278 304.21 218.126C303.938 217.966 303.722 217.71 303.562 217.358C303.394 216.998 303.31 216.518 303.31 215.918L303.31 213.746L303.946 213.746L303.946 215.894C303.946 216.502 304.054 216.926 304.27 217.166C304.486 217.398 304.754 217.514 305.074 217.514C305.434 217.514 305.722 217.374 305.938 217.094C306.154 216.814 306.262 216.422 306.262 215.918C306.262 215.438 306.154 215.026 305.938 214.682C305.714 214.33 305.394 214.074 304.978 213.914L305.566 213.722C305.982 213.882 306.314 214.162 306.562 214.562C306.81 214.954 306.934 215.45 306.934 216.05ZM306.934 208.154C306.934 208.778 306.798 209.338 306.526 209.834C306.246 210.322 305.866 210.706 305.386 210.986C304.898 211.266 304.342 211.406 303.718 211.406C303.086 211.406 302.53 211.266 302.05 210.986C301.57 210.706 301.194 210.322 300.922 209.834C300.65 209.338 300.514 208.778 300.514 208.154C300.514 207.618 300.618 207.134 300.826 206.702C301.034 206.27 301.346 205.93 301.762 205.682L302.194 206.318C301.874 206.534 301.638 206.802 301.486 207.122C301.334 207.442 301.258 207.79 301.258 208.166C301.258 208.614 301.362 209.018 301.57 209.378C301.77 209.738 302.054 210.022 302.422 210.23C302.79 210.438 303.222 210.542 303.718 210.542C304.214 210.542 304.646 210.438 305.014 210.23C305.382 210.022 305.67 209.738 305.878 209.378C306.078 209.018 306.178 208.614 306.178 208.166C306.178 207.79 306.102 207.442 305.95 207.122C305.798 206.802 305.566 206.534 305.254 206.318L305.686 205.682C306.094 205.93 306.406 206.27 306.622 206.702C306.83 207.134 306.934 207.618 306.934 208.154ZM306.874 202.949L301.09 202.949L301.318 202.733L301.318 205.337L300.574 205.337L300.574 199.709L301.318 199.709L301.318 202.313L301.09 202.097L306.874 202.097L306.874 202.949ZM306.934 196.178C306.934 196.786 306.798 197.334 306.526 197.822C306.246 198.302 305.866 198.682 305.386 198.962C304.898 199.242 304.342 199.382 303.718 199.382C303.086 199.382 302.53 199.242 302.05 198.962C301.57 198.682 301.194 198.302 300.922 197.822C300.65 197.342 300.514 196.794 300.514 196.178C300.514 195.554 300.65 195.002 300.922 194.522C301.194 194.034 301.57 193.654 302.05 193.382C302.53 193.102 303.086 192.962 303.718 192.962C304.342 192.962 304.898 193.102 305.386 193.382C305.866 193.654 306.246 194.034 306.526 194.522C306.798 195.01 306.934 195.562 306.934 196.178ZM306.178 196.178C306.178 195.722 306.078 195.318 305.878 194.966C305.67 194.614 305.382 194.338 305.014 194.138C304.638 193.93 304.206 193.826 303.718 193.826C303.222 193.826 302.79 193.93 302.422 194.138C302.054 194.338 301.77 194.614 301.57 194.966C301.362 195.318 301.258 195.718 301.258 196.166C301.258 196.614 301.362 197.014 301.57 197.366C301.77 197.718 302.054 197.998 302.422 198.206C302.79 198.414 303.222 198.518 303.718 198.518C304.206 198.518 304.638 198.414 305.014 198.206C305.382 197.998 305.67 197.718 305.878 197.366C306.078 197.014 306.178 196.618 306.178 196.178ZM306.874 190.176L301.09 190.176L301.318 189.96L301.318 192.564L300.574 192.564L300.574 186.936L301.318 186.936L301.318 189.54L301.09 189.324L306.874 189.324L306.874 190.176ZM306.874 181.792L305.482 181.792L305.254 181.828L302.926 181.828C302.39 181.828 301.978 181.98 301.69 182.284C301.402 182.58 301.258 183.024 301.258 183.616C301.258 184.024 301.326 184.412 301.462 184.78C301.598 185.148 301.778 185.46 302.002 185.716L301.366 186.1C301.094 185.78 300.886 185.396 300.742 184.948C300.59 184.5 300.514 184.028 300.514 183.532C300.514 182.716 300.718 182.088 301.126 181.648C301.526 181.2 302.138 180.976 302.962 180.976L306.874 180.976L306.874 181.792ZM306.934 183.964C306.934 184.436 306.858 184.848 306.706 185.2C306.546 185.544 306.33 185.808 306.058 185.992C305.778 186.176 305.458 186.268 305.098 186.268C304.77 186.268 304.474 186.192 304.21 186.04C303.938 185.88 303.722 185.624 303.562 185.272C303.394 184.912 303.31 184.432 303.31 183.832L303.31 181.66L303.946 181.66L303.946 183.808C303.946 184.416 304.054 184.84 304.27 185.08C304.486 185.312 304.754 185.428 305.074 185.428C305.434 185.428 305.722 185.288 305.938 185.008C306.154 184.728 306.262 184.336 306.262 183.832C306.262 183.352 306.154 182.94 305.938 182.596C305.714 182.244 305.394 181.988 304.978 181.828L305.566 181.636C305.982 181.796 306.314 182.076 306.562 182.476C306.81 182.868 306.934 183.364 306.934 183.964Z" fill="black"/>
<path d="M552.004 328V323L558.004 325.609L552.004 328Z" fill="#9A9C9E" stroke="#9A9C9E" stroke-width="2"/>
<path d="M321.506 116L316.506 116L319.115 110L321.506 116Z" fill="#9A9C9E" stroke="#9A9C9E" stroke-width="2"/>
<path d="M398.006 359.995L391.571 362.515L398.006 362.515L398.006 363.253L390.725 363.253L390.725 362.074L396.962 359.653L390.725 357.25L390.725 356.062L398.006 356.062L398.006 356.809L391.571 356.8L398.006 359.32L398.006 359.995ZM390.572 351.902C390.572 349.823 392.021 348.473 394.361 348.473C397.16 348.473 398.15 350.246 398.15 351.902C398.15 353.99 396.665 355.331 394.361 355.331C393.191 355.331 392.21 354.98 391.535 354.323C390.914 353.711 390.572 352.856 390.572 351.902ZM397.412 351.902C397.412 350.219 396.314 349.22 394.361 349.22C392.093 349.22 391.31 350.588 391.31 351.902C391.31 353.225 392.174 354.593 394.361 354.593C396.62 354.593 397.412 353.225 397.412 351.902ZM397.322 342.908L391.427 342.908L391.427 345.752L392.669 345.752C393.992 345.725 396.071 346.031 397.322 346.553L397.322 342.908ZM397.331 342.197L397.331 340.748L399.473 340.748L399.473 341.459L398.015 341.459L398.015 347.93L399.473 347.93L399.473 348.632L397.331 348.632L397.331 347.525C396.692 346.859 394.532 346.49 392.75 346.472L390.734 346.472L390.734 342.197L397.331 342.197ZM395.918 335.802L395.918 339.015L398.006 339.762L398.006 340.536L390.725 337.818L390.725 336.99L398.006 334.263L398.006 335.055L395.918 335.802ZM391.409 337.404L395.207 338.763L395.207 336.054L391.409 337.404Z" fill="black"/>
<path d="M480.006 359.995L473.571 362.515L480.006 362.515L480.006 363.253L472.725 363.253L472.725 362.074L478.962 359.653L472.725 357.25L472.725 356.062L480.006 356.062L480.006 356.809L473.571 356.8L480.006 359.32L480.006 359.995ZM472.572 351.902C472.572 349.823 474.021 348.473 476.361 348.473C479.16 348.473 480.15 350.246 480.15 351.902C480.15 353.99 478.665 355.331 476.361 355.331C475.191 355.331 474.21 354.98 473.535 354.323C472.914 353.711 472.572 352.856 472.572 351.902ZM479.412 351.902C479.412 350.219 478.314 349.22 476.361 349.22C474.093 349.22 473.31 350.588 473.31 351.902C473.31 353.225 474.174 354.593 476.361 354.593C478.62 354.593 479.412 353.225 479.412 351.902ZM479.322 342.908L473.427 342.908L473.427 345.752L474.669 345.752C475.992 345.725 478.071 346.031 479.322 346.553L479.322 342.908ZM479.331 342.197L479.331 340.748L481.473 340.748L481.473 341.459L480.015 341.459L480.015 347.93L481.473 347.93L481.473 348.632L479.331 348.632L479.331 347.525C478.692 346.859 476.532 346.49 474.75 346.472L472.734 346.472L472.734 342.197L479.331 342.197ZM477.918 335.802L477.918 339.015L480.006 339.762L480.006 340.536L472.725 337.818L472.725 336.99L480.006 334.263L480.006 335.055L477.918 335.802ZM473.409 337.404L477.207 338.763L477.207 336.054L473.409 337.404Z" fill="black"/>
<path d="M420.187 338.345H420.943C420.574 340.388 419.044 341.144 417.604 341.144C415.516 341.144 414.175 339.659 414.175 337.355C414.175 336.185 414.526 335.204 415.183 334.529C415.795 333.908 416.65 333.566 417.604 333.566C419.314 333.566 420.52 334.547 420.898 336.194H420.142C419.755 334.817 418.657 334.304 417.604 334.304C416.281 334.304 414.913 335.168 414.913 337.355C414.913 339.614 416.281 340.406 417.604 340.406C418.972 340.406 419.899 339.677 420.187 338.345ZM424.568 333.719C426.116 333.719 426.953 334.826 426.953 335.87C426.953 336.914 426.134 337.976 424.577 337.976H422.363V341H421.616V333.719H424.568ZM424.712 337.238C425.423 337.238 426.224 336.788 426.224 335.87C426.224 334.934 425.414 334.457 424.712 334.457H422.363V337.238H424.712ZM428.287 334.43V336.743H431.788V337.454L428.287 337.436V340.298H432.445V341H427.558V333.719H432.445V334.43H428.287ZM438.367 340.316V334.421H435.523V335.663C435.55 336.986 435.244 339.065 434.722 340.316H438.367ZM439.078 340.325H440.527V342.467H439.816V341.009H433.345V342.467H432.643V340.325H433.75C434.416 339.686 434.785 337.526 434.803 335.744V333.728H439.078V340.325ZM445.865 341V337.445H441.725V341H440.987V333.719H441.725V336.743H445.865V333.719H446.603V341H445.865ZM448.317 334.43V336.743H451.818V337.454L448.317 337.436V340.298H452.475V341H447.588V333.719H452.475V334.43H448.317ZM453.801 334.43V336.743H457.302V337.454L453.801 337.436V340.298H457.959V341H453.072V333.719H457.959V334.43H453.801ZM415.813 350L413.293 343.565V350H412.555V342.719H413.734L416.155 348.956L418.558 342.719H419.746V350H418.999L419.008 343.565L416.488 350H415.813ZM421.458 343.43V345.743H424.959V346.454L421.458 346.436V349.298H425.616V350H420.729V342.719H425.616V343.43H421.458ZM431.538 349.316V343.421H428.694V344.663C428.721 345.986 428.415 348.065 427.893 349.316H431.538ZM432.249 349.325H433.698V351.467H432.987V350.009H426.516V351.467H425.814V349.325H426.921C427.587 348.686 427.956 346.526 427.974 344.744V342.728H432.249V349.325ZM439.549 343.565L435.112 350H434.158V342.719H434.896V349.154L439.315 342.719H440.287V350H439.549V343.565ZM445.526 347.912H442.313L441.566 350H440.792L443.51 342.719H444.338L447.065 350H446.273L445.526 347.912ZM443.924 343.403L442.565 347.201H445.274L443.924 343.403ZM452.431 350V346.445H448.291V350H447.553V342.719H448.291V345.743H452.431V342.719H453.169V350H452.431ZM458.401 347.912H455.188L454.441 350H453.667L456.385 342.719H457.213L459.94 350H459.148L458.401 347.912ZM456.799 343.403L455.44 347.201H458.149L456.799 343.403Z" fill="black"/>
</svg>
