<svg width="589" height="413" viewBox="0 0 589 413" fill="none" xmlns="http://www.w3.org/2000/svg">
<rect width="589" height="413" fill="white"/>
<path d="M410.385 402V398.749H411.862C412.215 398.749 412.527 398.817 412.796 398.953C413.065 399.086 413.276 399.274 413.428 399.515C413.579 399.757 413.655 400.043 413.655 400.374C413.655 400.703 413.579 400.989 413.428 401.234C413.276 401.475 413.065 401.664 412.796 401.8C412.527 401.933 412.215 402 411.862 402H410.385ZM411.138 401.382H411.825C412.042 401.382 412.229 401.342 412.387 401.262C412.548 401.178 412.672 401.06 412.759 400.909C412.849 400.757 412.893 400.579 412.893 400.374C412.893 400.167 412.849 399.989 412.759 399.84C412.672 399.689 412.548 399.573 412.387 399.492C412.229 399.408 412.042 399.367 411.825 399.367H411.138V401.382ZM415.704 402V401.512L415.658 401.406V400.532C415.658 400.378 415.61 400.257 415.514 400.17C415.421 400.083 415.277 400.04 415.082 400.04C414.949 400.04 414.817 400.062 414.687 400.105C414.56 400.145 414.452 400.201 414.362 400.272L414.102 399.766C414.238 399.67 414.402 399.596 414.594 399.543C414.786 399.49 414.981 399.464 415.179 399.464C415.56 399.464 415.856 399.554 416.066 399.734C416.277 399.913 416.382 400.193 416.382 400.574V402H415.704ZM414.942 402.037C414.747 402.037 414.58 402.005 414.441 401.94C414.302 401.872 414.195 401.78 414.12 401.666C414.046 401.551 414.009 401.423 414.009 401.28C414.009 401.131 414.045 401.001 414.116 400.89C414.19 400.779 414.306 400.692 414.464 400.63C414.622 400.565 414.828 400.532 415.082 400.532H415.746V400.955H415.161C414.99 400.955 414.873 400.983 414.808 401.039C414.746 401.094 414.715 401.164 414.715 401.248C414.715 401.34 414.751 401.415 414.822 401.471C414.896 401.523 414.997 401.549 415.124 401.549C415.244 401.549 415.353 401.522 415.449 401.466C415.545 401.407 415.614 401.322 415.658 401.21L415.769 401.545C415.717 401.706 415.621 401.828 415.481 401.912C415.342 401.995 415.162 402.037 414.942 402.037ZM418.06 402.037C417.766 402.037 417.537 401.963 417.372 401.814C417.208 401.663 417.126 401.438 417.126 401.141V398.949H417.851V401.131C417.851 401.237 417.879 401.319 417.934 401.378C417.99 401.433 418.066 401.461 418.162 401.461C418.277 401.461 418.374 401.43 418.455 401.368L418.65 401.879C418.575 401.932 418.486 401.972 418.38 402C418.278 402.025 418.171 402.037 418.06 402.037ZM416.741 400.114V399.557H418.473V400.114H416.741ZM420.589 402V401.512L420.543 401.406V400.532C420.543 400.378 420.495 400.257 420.399 400.17C420.306 400.083 420.162 400.04 419.967 400.04C419.834 400.04 419.702 400.062 419.572 400.105C419.445 400.145 419.337 400.201 419.247 400.272L418.987 399.766C419.123 399.67 419.287 399.596 419.479 399.543C419.671 399.49 419.866 399.464 420.064 399.464C420.445 399.464 420.741 399.554 420.951 399.734C421.162 399.913 421.267 400.193 421.267 400.574V402H420.589ZM419.827 402.037C419.632 402.037 419.465 402.005 419.326 401.94C419.186 401.872 419.08 401.78 419.005 401.666C418.931 401.551 418.894 401.423 418.894 401.28C418.894 401.131 418.929 401.001 419.001 400.89C419.075 400.779 419.191 400.692 419.349 400.63C419.507 400.565 419.713 400.532 419.967 400.532H420.631V400.955H420.046C419.875 400.955 419.758 400.983 419.693 401.039C419.631 401.094 419.6 401.164 419.6 401.248C419.6 401.34 419.635 401.415 419.707 401.471C419.781 401.523 419.882 401.549 420.008 401.549C420.129 401.549 420.238 401.522 420.334 401.466C420.43 401.407 420.499 401.322 420.543 401.21L420.654 401.545C420.601 401.706 420.505 401.828 420.366 401.912C420.227 401.995 420.047 402.037 419.827 402.037ZM424.845 402.056C424.594 402.056 424.361 402.015 424.144 401.935C423.93 401.851 423.744 401.734 423.586 401.582C423.429 401.43 423.305 401.252 423.215 401.048C423.128 400.844 423.085 400.619 423.085 400.374C423.085 400.13 423.128 399.905 423.215 399.701C423.305 399.497 423.429 399.319 423.586 399.167C423.747 399.015 423.935 398.899 424.148 398.819C424.362 398.735 424.596 398.693 424.85 398.693C425.132 398.693 425.385 398.743 425.611 398.842C425.841 398.938 426.033 399.08 426.187 399.269L425.704 399.715C425.593 399.588 425.469 399.494 425.333 399.432C425.197 399.367 425.048 399.334 424.887 399.334C424.735 399.334 424.596 399.359 424.469 399.408C424.342 399.458 424.232 399.529 424.139 399.622C424.046 399.715 423.974 399.825 423.921 399.952C423.871 400.079 423.847 400.22 423.847 400.374C423.847 400.529 423.871 400.67 423.921 400.797C423.974 400.924 424.046 401.034 424.139 401.127C424.232 401.22 424.342 401.291 424.469 401.34C424.596 401.39 424.735 401.415 424.887 401.415C425.048 401.415 425.197 401.384 425.333 401.322C425.469 401.257 425.593 401.159 425.704 401.029L426.187 401.475C426.033 401.664 425.841 401.808 425.611 401.907C425.385 402.006 425.13 402.056 424.845 402.056ZM427.64 402.037C427.432 402.037 427.246 401.997 427.082 401.916C426.921 401.836 426.796 401.714 426.706 401.549C426.616 401.382 426.571 401.17 426.571 400.913V399.501H427.296V400.806C427.296 401.014 427.339 401.167 427.426 401.266C427.516 401.362 427.641 401.41 427.802 401.41C427.914 401.41 428.013 401.387 428.1 401.34C428.186 401.291 428.254 401.217 428.304 401.118C428.353 401.015 428.378 400.888 428.378 400.737V399.501H429.103V402H428.415V401.313L428.541 401.512C428.457 401.686 428.333 401.817 428.169 401.907C428.008 401.994 427.832 402.037 427.64 402.037ZM429.774 402V398.554H430.498V402H429.774ZM432.379 402.037C432.084 402.037 431.855 401.963 431.691 401.814C431.527 401.663 431.445 401.438 431.445 401.141V398.949H432.17V401.131C432.17 401.237 432.198 401.319 432.253 401.378C432.309 401.433 432.385 401.461 432.481 401.461C432.595 401.461 432.693 401.43 432.773 401.368L432.968 401.879C432.894 401.932 432.804 401.972 432.699 402C432.597 402.025 432.49 402.037 432.379 402.037ZM431.06 400.114V399.557H432.792V400.114H431.06ZM434.429 402.037C434.222 402.037 434.036 401.997 433.872 401.916C433.711 401.836 433.586 401.714 433.496 401.549C433.406 401.382 433.361 401.17 433.361 400.913V399.501H434.086V400.806C434.086 401.014 434.129 401.167 434.216 401.266C434.306 401.362 434.431 401.41 434.592 401.41C434.704 401.41 434.803 401.387 434.889 401.34C434.976 401.291 435.044 401.217 435.094 401.118C435.143 401.015 435.168 400.888 435.168 400.737V399.501H435.892V402H435.205V401.313L435.331 401.512C435.247 401.686 435.123 401.817 434.959 401.907C434.798 401.994 434.621 402.037 434.429 402.037ZM436.564 402V399.501H437.256V400.207L437.158 400.003C437.233 399.826 437.352 399.693 437.516 399.603C437.68 399.511 437.88 399.464 438.115 399.464V400.133C438.084 400.13 438.056 400.128 438.031 400.128C438.007 400.125 437.98 400.124 437.952 400.124C437.754 400.124 437.593 400.181 437.469 400.295C437.349 400.407 437.288 400.582 437.288 400.82V402H436.564ZM439.768 402.037C439.483 402.037 439.232 401.981 439.015 401.87C438.802 401.758 438.636 401.607 438.518 401.415C438.401 401.22 438.342 400.998 438.342 400.751C438.342 400.5 438.399 400.278 438.514 400.086C438.631 399.891 438.791 399.74 438.992 399.631C439.193 399.52 439.421 399.464 439.675 399.464C439.919 399.464 440.139 399.517 440.334 399.622C440.532 399.724 440.689 399.873 440.803 400.068C440.918 400.26 440.975 400.491 440.975 400.76C440.975 400.788 440.974 400.82 440.971 400.857C440.968 400.892 440.964 400.924 440.961 400.955H438.932V400.532H440.58L440.302 400.658C440.302 400.528 440.275 400.415 440.223 400.319C440.17 400.223 440.097 400.148 440.005 400.096C439.912 400.04 439.803 400.012 439.679 400.012C439.556 400.012 439.446 400.04 439.35 400.096C439.257 400.148 439.184 400.224 439.131 400.323C439.079 400.419 439.052 400.534 439.052 400.667V400.779C439.052 400.915 439.082 401.036 439.141 401.141C439.203 401.243 439.288 401.322 439.396 401.378C439.508 401.43 439.638 401.457 439.786 401.457C439.919 401.457 440.036 401.436 440.135 401.396C440.237 401.356 440.33 401.296 440.413 401.215L440.799 401.633C440.684 401.763 440.54 401.864 440.367 401.935C440.193 402.003 439.994 402.037 439.768 402.037ZM441.732 402.037C441.608 402.037 441.501 401.995 441.411 401.912C441.324 401.825 441.281 401.715 441.281 401.582C441.281 401.449 441.324 401.342 441.411 401.262C441.501 401.178 441.608 401.136 441.732 401.136C441.859 401.136 441.965 401.178 442.052 401.262C442.139 401.342 442.182 401.449 442.182 401.582C442.182 401.715 442.139 401.825 442.052 401.912C441.965 401.995 441.859 402.037 441.732 402.037ZM443.775 398.749H444.643L445.317 399.734L445.99 398.749H446.873L445.791 400.305L446.961 402H446.074L445.317 400.922L444.569 402H443.701L444.862 400.337L443.775 398.749ZM448.435 402.037C448.15 402.037 447.899 401.981 447.683 401.87C447.469 401.758 447.303 401.607 447.186 401.415C447.068 401.22 447.009 400.998 447.009 400.751C447.009 400.5 447.067 400.278 447.181 400.086C447.299 399.891 447.458 399.74 447.659 399.631C447.861 399.52 448.088 399.464 448.342 399.464C448.587 399.464 448.807 399.517 449.002 399.622C449.2 399.724 449.356 399.873 449.471 400.068C449.585 400.26 449.643 400.491 449.643 400.76C449.643 400.788 449.641 400.82 449.638 400.857C449.635 400.892 449.632 400.924 449.629 400.955H447.599V400.532H449.248L448.969 400.658C448.969 400.528 448.943 400.415 448.89 400.319C448.838 400.223 448.765 400.148 448.672 400.096C448.579 400.04 448.471 400.012 448.347 400.012C448.223 400.012 448.113 400.04 448.017 400.096C447.924 400.148 447.851 400.224 447.799 400.323C447.746 400.419 447.72 400.534 447.72 400.667V400.779C447.72 400.915 447.749 401.036 447.808 401.141C447.87 401.243 447.955 401.322 448.064 401.378C448.175 401.43 448.305 401.457 448.454 401.457C448.587 401.457 448.703 401.436 448.802 401.396C448.904 401.356 448.997 401.296 449.081 401.215L449.466 401.633C449.352 401.763 449.208 401.864 449.034 401.935C448.861 402.003 448.661 402.037 448.435 402.037ZM450.198 402V399.501H450.918V400.477H452.005V399.501H452.729V402H452.005V401.066H450.918V402H450.198ZM455.141 401.675V400.096H454.324L454.31 400.416C454.304 400.549 454.296 400.676 454.287 400.797C454.277 400.918 454.259 401.028 454.231 401.127C454.206 401.223 454.169 401.305 454.12 401.373C454.07 401.438 454.003 401.483 453.92 401.508L453.205 401.406C453.294 401.406 453.367 401.379 453.423 401.327C453.479 401.271 453.522 401.195 453.553 401.099C453.584 401 453.607 400.888 453.623 400.765C453.638 400.638 453.649 400.504 453.655 400.365L453.688 399.501H455.866V401.675H455.141ZM453.121 402.539V401.406H456.223V402.539H455.55V402H453.794V402.539H453.121ZM457.919 402.056C457.715 402.056 457.529 402.026 457.362 401.967C457.195 401.906 457.049 401.811 456.926 401.684C456.805 401.554 456.71 401.388 456.642 401.187C456.577 400.986 456.545 400.746 456.545 400.467C456.545 400.269 456.562 400.088 456.596 399.924C456.63 399.76 456.681 399.611 456.749 399.478C456.817 399.342 456.904 399.223 457.009 399.12C457.118 399.015 457.243 398.928 457.385 398.86C457.531 398.789 457.695 398.735 457.878 398.698L459.067 398.461L459.164 399.083L458.115 399.292C458.053 399.305 457.981 399.322 457.901 399.343C457.823 399.362 457.745 399.391 457.664 399.432C457.587 399.472 457.514 399.529 457.446 399.603C457.381 399.675 457.328 399.769 457.288 399.887C457.248 400.001 457.227 400.144 457.227 400.314C457.227 400.367 457.229 400.407 457.232 400.435C457.238 400.463 457.243 400.492 457.246 400.523C457.252 400.554 457.255 400.602 457.255 400.667L457.023 400.439C457.091 400.294 457.178 400.17 457.283 400.068C457.392 399.966 457.515 399.888 457.655 399.836C457.797 399.78 457.955 399.752 458.128 399.752C458.364 399.752 458.57 399.8 458.746 399.896C458.926 399.989 459.065 400.121 459.164 400.291C459.263 400.461 459.313 400.655 459.313 400.871C459.313 401.107 459.254 401.314 459.136 401.494C459.019 401.67 458.855 401.808 458.644 401.907C458.437 402.006 458.195 402.056 457.919 402.056ZM457.957 401.494C458.077 401.494 458.184 401.467 458.277 401.415C458.37 401.359 458.441 401.286 458.491 401.197C458.543 401.104 458.57 401 458.57 400.885C458.57 400.774 458.543 400.675 458.491 400.588C458.441 400.501 458.37 400.433 458.277 400.384C458.184 400.334 458.076 400.309 457.952 400.309C457.831 400.309 457.723 400.334 457.627 400.384C457.531 400.43 457.457 400.495 457.404 400.579C457.351 400.662 457.325 400.76 457.325 400.871C457.325 400.986 457.351 401.091 457.404 401.187C457.46 401.28 457.534 401.354 457.627 401.41C457.723 401.466 457.833 401.494 457.957 401.494ZM460.075 402.938C459.945 402.938 459.817 402.918 459.69 402.878C459.563 402.838 459.459 402.782 459.379 402.711L459.643 402.195C459.699 402.245 459.763 402.283 459.834 402.311C459.908 402.339 459.981 402.353 460.052 402.353C460.154 402.353 460.235 402.328 460.294 402.279C460.356 402.232 460.411 402.153 460.461 402.042L460.591 401.735L460.647 401.656L461.543 399.501H462.24L461.111 402.153C461.031 402.355 460.938 402.512 460.832 402.627C460.73 402.742 460.616 402.822 460.489 402.869C460.365 402.915 460.227 402.938 460.075 402.938ZM460.503 402.098L459.388 399.501H460.136L461 401.591L460.503 402.098ZM464.359 402L463.523 400.816L464.113 400.467L465.213 402H464.359ZM462.589 402V399.501H463.314V402H462.589ZM463.1 401.053V400.472H463.973V401.053H463.1ZM464.182 400.834L463.504 400.76L464.382 399.501H465.153L464.182 400.834ZM466.884 402V399.501H469.369V402H468.645V399.933L468.807 400.096H467.442L467.604 399.933V402H466.884ZM471.234 402.037C470.968 402.037 470.731 401.981 470.524 401.87C470.319 401.758 470.157 401.607 470.036 401.415C469.918 401.22 469.86 400.998 469.86 400.751C469.86 400.5 469.918 400.278 470.036 400.086C470.157 399.891 470.319 399.74 470.524 399.631C470.731 399.52 470.968 399.464 471.234 399.464C471.497 399.464 471.733 399.52 471.94 399.631C472.148 399.74 472.31 399.89 472.428 400.082C472.546 400.274 472.604 400.497 472.604 400.751C472.604 400.998 472.546 401.22 472.428 401.415C472.31 401.607 472.148 401.758 471.94 401.87C471.733 401.981 471.497 402.037 471.234 402.037ZM471.234 401.443C471.355 401.443 471.463 401.415 471.559 401.359C471.655 401.303 471.731 401.224 471.787 401.122C471.843 401.017 471.871 400.893 471.871 400.751C471.871 400.605 471.843 400.481 471.787 400.379C471.731 400.277 471.655 400.198 471.559 400.142C471.463 400.086 471.355 400.059 471.234 400.059C471.114 400.059 471.005 400.086 470.909 400.142C470.813 400.198 470.736 400.277 470.677 400.379C470.621 400.481 470.593 400.605 470.593 400.751C470.593 400.893 470.621 401.017 470.677 401.122C470.736 401.224 470.813 401.303 470.909 401.359C471.005 401.415 471.114 401.443 471.234 401.443ZM475.914 402V401.512L475.867 401.406V400.532C475.867 400.378 475.819 400.257 475.723 400.17C475.63 400.083 475.486 400.04 475.291 400.04C475.158 400.04 475.027 400.062 474.896 400.105C474.77 400.145 474.661 400.201 474.571 400.272L474.311 399.766C474.447 399.67 474.612 399.596 474.804 399.543C474.996 399.49 475.191 399.464 475.389 399.464C475.77 399.464 476.065 399.554 476.276 399.734C476.486 399.913 476.592 400.193 476.592 400.574V402H475.914ZM475.152 402.037C474.957 402.037 474.79 402.005 474.65 401.94C474.511 401.872 474.404 401.78 474.33 401.666C474.256 401.551 474.218 401.423 474.218 401.28C474.218 401.131 474.254 401.001 474.325 400.89C474.4 400.779 474.516 400.692 474.674 400.63C474.831 400.565 475.037 400.532 475.291 400.532H475.955V400.955H475.37C475.2 400.955 475.082 400.983 475.017 401.039C474.955 401.094 474.924 401.164 474.924 401.248C474.924 401.34 474.96 401.415 475.031 401.471C475.105 401.523 475.206 401.549 475.333 401.549C475.454 401.549 475.562 401.522 475.658 401.466C475.754 401.407 475.824 401.322 475.867 401.21L475.979 401.545C475.926 401.706 475.83 401.828 475.691 401.912C475.551 401.995 475.372 402.037 475.152 402.037ZM477.221 402V399.501H477.941V400.477H479.028V399.501H479.752V402H479.028V401.066H477.941V402H477.221ZM481.941 402V401.512L481.895 401.406V400.532C481.895 400.378 481.847 400.257 481.751 400.17C481.658 400.083 481.514 400.04 481.319 400.04C481.186 400.04 481.054 400.062 480.924 400.105C480.797 400.145 480.689 400.201 480.599 400.272L480.339 399.766C480.475 399.67 480.639 399.596 480.831 399.543C481.023 399.49 481.218 399.464 481.417 399.464C481.797 399.464 482.093 399.554 482.304 399.734C482.514 399.913 482.619 400.193 482.619 400.574V402H481.941ZM481.18 402.037C480.985 402.037 480.817 402.005 480.678 401.94C480.539 401.872 480.432 401.78 480.358 401.666C480.283 401.551 480.246 401.423 480.246 401.28C480.246 401.131 480.282 401.001 480.353 400.89C480.427 400.779 480.543 400.692 480.701 400.63C480.859 400.565 481.065 400.532 481.319 400.532H481.983V400.955H481.398C481.228 400.955 481.11 400.983 481.045 401.039C480.983 401.094 480.952 401.164 480.952 401.248C480.952 401.34 480.988 401.415 481.059 401.471C481.133 401.523 481.234 401.549 481.361 401.549C481.482 401.549 481.59 401.522 481.686 401.466C481.782 401.407 481.852 401.322 481.895 401.21L482.006 401.545C481.954 401.706 481.858 401.828 481.718 401.912C481.579 401.995 481.4 402.037 481.18 402.037ZM482.933 401.995L482.97 401.401C482.989 401.404 483.007 401.407 483.026 401.41C483.045 401.41 483.062 401.41 483.077 401.41C483.164 401.41 483.232 401.385 483.281 401.336C483.331 401.286 483.368 401.22 483.393 401.136C483.418 401.049 483.435 400.952 483.444 400.844C483.456 400.735 483.466 400.622 483.472 400.504L483.509 399.501H485.645V402H484.921V399.919L485.083 400.096H483.987L484.141 399.91L484.108 400.537C484.099 400.76 484.08 400.964 484.052 401.15C484.028 401.336 483.986 401.497 483.927 401.633C483.868 401.766 483.789 401.87 483.69 401.944C483.591 402.015 483.464 402.051 483.309 402.051C483.254 402.051 483.195 402.046 483.133 402.037C483.071 402.028 483.004 402.014 482.933 401.995ZM486.342 402V399.501H487.062V400.988L488.279 399.501H488.943V402H488.223V400.514L487.011 402H486.342ZM490.462 402.046C490.27 402.046 490.078 402.026 489.886 401.986C489.697 401.946 489.522 401.885 489.361 401.805L489.556 401.299C489.683 401.361 489.821 401.409 489.97 401.443C490.122 401.474 490.275 401.489 490.43 401.489C490.541 401.489 490.637 401.478 490.718 401.457C490.801 401.432 490.865 401.398 490.908 401.354C490.951 401.311 490.973 401.258 490.973 401.197C490.973 401.116 490.939 401.056 490.871 401.015C490.803 400.972 490.704 400.95 490.574 400.95H490.063V400.5H490.513C490.597 400.5 490.668 400.491 490.727 400.472C490.786 400.453 490.829 400.427 490.857 400.393C490.888 400.356 490.903 400.313 490.903 400.263C490.903 400.21 490.885 400.165 490.848 400.128C490.81 400.091 490.756 400.063 490.685 400.045C490.614 400.023 490.524 400.012 490.416 400.012C490.292 400.012 490.163 400.028 490.03 400.059C489.897 400.086 489.761 400.128 489.621 400.184L489.445 399.682C489.609 399.614 489.772 399.56 489.933 399.52C490.094 399.48 490.253 399.458 490.411 399.455C490.643 399.449 490.852 399.473 491.038 399.529C491.224 399.585 491.369 399.665 491.475 399.771C491.583 399.876 491.637 400.004 491.637 400.156C491.637 400.277 491.6 400.385 491.526 400.481C491.454 400.577 491.355 400.653 491.228 400.709C491.102 400.761 490.959 400.788 490.801 400.788L490.82 400.644C491.095 400.644 491.312 400.7 491.47 400.811C491.628 400.919 491.707 401.068 491.707 401.257C491.707 401.418 491.651 401.559 491.54 401.68C491.431 401.797 491.283 401.889 491.094 401.954C490.908 402.015 490.697 402.046 490.462 402.046ZM492.564 402.938C492.434 402.938 492.305 402.918 492.178 402.878C492.051 402.838 491.948 402.782 491.867 402.711L492.132 402.195C492.188 402.245 492.251 402.283 492.322 402.311C492.397 402.339 492.469 402.353 492.541 402.353C492.643 402.353 492.723 402.328 492.782 402.279C492.844 402.232 492.9 402.153 492.949 402.042L493.079 401.735L493.135 401.656L494.031 399.501H494.728L493.6 402.153C493.519 402.355 493.426 402.512 493.321 402.627C493.219 402.742 493.104 402.822 492.977 402.869C492.853 402.915 492.716 402.938 492.564 402.938ZM492.991 402.098L491.876 399.501H492.624L493.488 401.591L492.991 402.098ZM498.111 401.675V400.096H497.294L497.28 400.416C497.274 400.549 497.266 400.676 497.257 400.797C497.248 400.918 497.229 401.028 497.201 401.127C497.176 401.223 497.139 401.305 497.09 401.373C497.04 401.438 496.974 401.483 496.89 401.508L496.175 401.406C496.265 401.406 496.337 401.379 496.393 401.327C496.449 401.271 496.492 401.195 496.523 401.099C496.554 401 496.577 400.888 496.593 400.765C496.608 400.638 496.619 400.504 496.625 400.365L496.658 399.501H498.836V401.675H498.111ZM496.091 402.539V401.406H499.194V402.539H498.52V402H496.765V402.539H496.091ZM501.145 402V401.512L501.099 401.406V400.532C501.099 400.378 501.051 400.257 500.955 400.17C500.862 400.083 500.718 400.04 500.523 400.04C500.39 400.04 500.258 400.062 500.128 400.105C500.001 400.145 499.893 400.201 499.803 400.272L499.543 399.766C499.679 399.67 499.843 399.596 500.035 399.543C500.227 399.49 500.422 399.464 500.62 399.464C501.001 399.464 501.297 399.554 501.507 399.734C501.718 399.913 501.823 400.193 501.823 400.574V402H501.145ZM500.383 402.037C500.188 402.037 500.021 402.005 499.882 401.94C499.742 401.872 499.636 401.78 499.561 401.666C499.487 401.551 499.45 401.423 499.45 401.28C499.45 401.131 499.485 401.001 499.557 400.89C499.631 400.779 499.747 400.692 499.905 400.63C500.063 400.565 500.269 400.532 500.523 400.532H501.187V400.955H500.602C500.431 400.955 500.314 400.983 500.249 401.039C500.187 401.094 500.156 401.164 500.156 401.248C500.156 401.34 500.191 401.415 500.263 401.471C500.337 401.523 500.438 401.549 500.565 401.549C500.685 401.549 500.794 401.522 500.89 401.466C500.986 401.407 501.055 401.322 501.099 401.21L501.21 401.545C501.157 401.706 501.061 401.828 500.922 401.912C500.783 401.995 500.603 402.037 500.383 402.037ZM502.453 402V399.501H503.172V400.477H504.259V399.501H504.984V402H504.259V401.066H503.172V402H502.453ZM505.677 402V399.501H506.397V400.477H507.484V399.501H508.209V402H507.484V401.066H506.397V402H505.677ZM511.475 402V399.501H512.195V402H511.475ZM510.217 400.3C510.545 400.303 510.791 400.378 510.955 400.523C511.122 400.665 511.206 400.868 511.206 401.131C511.206 401.407 511.111 401.622 510.923 401.777C510.734 401.929 510.466 402.005 510.119 402.005L508.902 402V399.501H509.622V400.3H510.217ZM510.054 401.489C510.193 401.492 510.3 401.463 510.374 401.401C510.449 401.339 510.486 401.246 510.486 401.122C510.486 400.998 510.449 400.91 510.374 400.857C510.3 400.802 510.193 400.772 510.054 400.769L509.622 400.765V401.489H510.054ZM512.559 402L513.678 400.532L513.664 400.932L512.592 399.501H513.404L514.082 400.435L513.776 400.444L514.477 399.501H515.248L514.171 400.918V400.528L515.285 402H514.463L513.753 401.006L514.055 401.048L513.349 402H512.559ZM515.902 402.037C515.778 402.037 515.671 401.995 515.582 401.912C515.495 401.825 515.452 401.715 515.452 401.582C515.452 401.449 515.495 401.342 515.582 401.262C515.671 401.178 515.778 401.136 515.902 401.136C516.029 401.136 516.136 401.178 516.223 401.262C516.309 401.342 516.353 401.449 516.353 401.582C516.353 401.715 516.309 401.825 516.223 401.912C516.136 401.995 516.029 402.037 515.902 402.037ZM520.458 398.749H521.21V402H520.458V398.749ZM518.981 402H518.229V398.749H518.981V402ZM520.514 400.667H518.925V400.031H520.514V400.667ZM523.465 402V401.512L523.418 401.406V400.532C523.418 400.378 523.37 400.257 523.274 400.17C523.181 400.083 523.037 400.04 522.842 400.04C522.709 400.04 522.578 400.062 522.448 400.105C522.321 400.145 522.212 400.201 522.122 400.272L521.862 399.766C521.999 399.67 522.163 399.596 522.355 399.543C522.547 399.49 522.742 399.464 522.94 399.464C523.321 399.464 523.616 399.554 523.827 399.734C524.038 399.913 524.143 400.193 524.143 400.574V402H523.465ZM522.703 402.037C522.508 402.037 522.341 402.005 522.201 401.94C522.062 401.872 521.955 401.78 521.881 401.666C521.807 401.551 521.77 401.423 521.77 401.28C521.77 401.131 521.805 401.001 521.876 400.89C521.951 400.779 522.067 400.692 522.225 400.63C522.383 400.565 522.588 400.532 522.842 400.532H523.507V400.955H522.921C522.751 400.955 522.633 400.983 522.568 401.039C522.506 401.094 522.475 401.164 522.475 401.248C522.475 401.34 522.511 401.415 522.582 401.471C522.657 401.523 522.757 401.549 522.884 401.549C523.005 401.549 523.113 401.522 523.209 401.466C523.305 401.407 523.375 401.322 523.418 401.21L523.53 401.545C523.477 401.706 523.381 401.828 523.242 401.912C523.102 401.995 522.923 402.037 522.703 402.037ZM526.347 401.043C526.244 401.099 526.131 401.144 526.008 401.178C525.884 401.212 525.748 401.229 525.599 401.229C525.271 401.229 525.018 401.155 524.842 401.006C524.665 400.854 524.577 400.614 524.577 400.286V399.501H525.302V400.24C525.302 400.395 525.342 400.506 525.422 400.574C525.503 400.639 525.616 400.672 525.761 400.672C525.867 400.672 525.967 400.659 526.063 400.635C526.162 400.61 526.257 400.574 526.347 400.528V401.043ZM526.296 402V399.501H527.02V402H526.296ZM529.211 402V401.512L529.165 401.406V400.532C529.165 400.378 529.117 400.257 529.021 400.17C528.928 400.083 528.784 400.04 528.589 400.04C528.456 400.04 528.324 400.062 528.194 400.105C528.067 400.145 527.959 400.201 527.869 400.272L527.609 399.766C527.745 399.67 527.909 399.596 528.101 399.543C528.293 399.49 528.488 399.464 528.686 399.464C529.067 399.464 529.363 399.554 529.574 399.734C529.784 399.913 529.889 400.193 529.889 400.574V402H529.211ZM528.45 402.037C528.255 402.037 528.087 402.005 527.948 401.94C527.809 401.872 527.702 401.78 527.628 401.666C527.553 401.551 527.516 401.423 527.516 401.28C527.516 401.131 527.552 401.001 527.623 400.89C527.697 400.779 527.813 400.692 527.971 400.63C528.129 400.565 528.335 400.532 528.589 400.532H529.253V400.955H528.668C528.498 400.955 528.38 400.983 528.315 401.039C528.253 401.094 528.222 401.164 528.222 401.248C528.222 401.34 528.258 401.415 528.329 401.471C528.403 401.523 528.504 401.549 528.631 401.549C528.752 401.549 528.86 401.522 528.956 401.466C529.052 401.407 529.122 401.322 529.165 401.21L529.276 401.545C529.224 401.706 529.128 401.828 528.988 401.912C528.849 401.995 528.669 402.037 528.45 402.037ZM530.203 401.995L530.24 401.401C530.259 401.404 530.277 401.407 530.296 401.41C530.314 401.41 530.331 401.41 530.347 401.41C530.434 401.41 530.502 401.385 530.551 401.336C530.601 401.286 530.638 401.22 530.663 401.136C530.688 401.049 530.705 400.952 530.714 400.844C530.726 400.735 530.736 400.622 530.742 400.504L530.779 399.501H532.915V402H532.191V399.919L532.353 400.096H531.257L531.411 399.91L531.378 400.537C531.369 400.76 531.35 400.964 531.322 401.15C531.298 401.336 531.256 401.497 531.197 401.633C531.138 401.766 531.059 401.87 530.96 401.944C530.861 402.015 530.734 402.051 530.579 402.051C530.523 402.051 530.465 402.046 530.403 402.037C530.341 402.028 530.274 402.014 530.203 401.995ZM534.964 400.3C535.292 400.303 535.541 400.378 535.711 400.523C535.885 400.665 535.971 400.868 535.971 401.131C535.971 401.407 535.874 401.622 535.679 401.777C535.484 401.929 535.213 402.005 534.866 402.005L533.612 402V399.501H534.332V400.3H534.964ZM534.801 401.489C534.94 401.492 535.047 401.463 535.122 401.401C535.196 401.339 535.233 401.246 535.233 401.122C535.233 400.998 535.196 400.91 535.122 400.857C535.047 400.802 534.94 400.772 534.801 400.769L534.332 400.765V401.489H534.801ZM536.424 402V399.501H537.144V400.477H538.231V399.501H538.955V402H538.231V401.066H537.144V402H536.424ZM542.222 402V399.501H542.942V402H542.222ZM540.963 400.3C541.292 400.303 541.538 400.378 541.702 400.523C541.869 400.665 541.953 400.868 541.953 401.131C541.953 401.407 541.858 401.622 541.669 401.777C541.48 401.929 541.213 402.005 540.866 402.005L539.649 402V399.501H540.369V400.3H540.963ZM540.801 401.489C540.94 401.492 541.047 401.463 541.121 401.401C541.196 401.339 541.233 401.246 541.233 401.122C541.233 400.998 541.196 400.91 541.121 400.857C541.047 400.802 540.94 400.772 540.801 400.769L540.369 400.765V401.489H540.801ZM543.64 402V399.501H544.36V400.988L545.577 399.501H546.241V402H545.521V400.514L544.309 402H543.64ZM544.894 399.232C544.622 399.232 544.417 399.173 544.281 399.055C544.145 398.935 544.075 398.754 544.072 398.512H544.546C544.549 398.617 544.578 398.701 544.634 398.763C544.69 398.825 544.775 398.856 544.89 398.856C545.001 398.856 545.086 398.825 545.145 398.763C545.207 398.701 545.238 398.617 545.238 398.512H545.721C545.721 398.754 545.651 398.935 545.512 399.055C545.373 399.173 545.167 399.232 544.894 399.232ZM548.592 402.938C548.462 402.938 548.333 402.918 548.207 402.878C548.08 402.838 547.976 402.782 547.895 402.711L548.16 402.195C548.216 402.245 548.279 402.283 548.35 402.311C548.425 402.339 548.498 402.353 548.569 402.353C548.671 402.353 548.751 402.328 548.81 402.279C548.872 402.232 548.928 402.153 548.977 402.042L549.108 401.735L549.163 401.656L550.06 399.501H550.756L549.628 402.153C549.547 402.355 549.454 402.512 549.349 402.627C549.247 402.742 549.132 402.822 549.005 402.869C548.881 402.915 548.744 402.938 548.592 402.938ZM549.019 402.098L547.905 399.501H548.652L549.516 401.591L549.019 402.098ZM552.578 402.037C552.368 402.037 552.183 401.991 552.025 401.898C551.868 401.805 551.744 401.664 551.654 401.475C551.567 401.283 551.524 401.042 551.524 400.751C551.524 400.456 551.566 400.215 551.649 400.026C551.733 399.837 551.854 399.696 552.012 399.603C552.169 399.511 552.358 399.464 552.578 399.464C552.813 399.464 553.024 399.518 553.21 399.627C553.399 399.732 553.547 399.881 553.656 400.073C553.767 400.265 553.823 400.491 553.823 400.751C553.823 401.014 553.767 401.241 553.656 401.433C553.547 401.625 553.399 401.774 553.21 401.879C553.024 401.985 552.813 402.037 552.578 402.037ZM551.101 402.901V399.501H551.793V400.012L551.779 400.755L551.826 401.494V402.901H551.101ZM552.453 401.443C552.573 401.443 552.68 401.415 552.773 401.359C552.869 401.303 552.945 401.224 553.001 401.122C553.06 401.017 553.089 400.893 553.089 400.751C553.089 400.605 553.06 400.481 553.001 400.379C552.945 400.277 552.869 400.198 552.773 400.142C552.68 400.086 552.573 400.059 552.453 400.059C552.332 400.059 552.224 400.086 552.128 400.142C552.032 400.198 551.956 400.277 551.9 400.379C551.844 400.481 551.816 400.605 551.816 400.751C551.816 400.893 551.844 401.017 551.9 401.122C551.956 401.224 552.032 401.303 552.128 401.359C552.224 401.415 552.332 401.443 552.453 401.443ZM555.501 402.037C555.235 402.037 554.998 401.981 554.79 401.87C554.586 401.758 554.424 401.607 554.303 401.415C554.185 401.22 554.126 400.998 554.126 400.751C554.126 400.5 554.185 400.278 554.303 400.086C554.424 399.891 554.586 399.74 554.79 399.631C554.998 399.52 555.235 399.464 555.501 399.464C555.764 399.464 556 399.52 556.207 399.631C556.414 399.74 556.577 399.89 556.695 400.082C556.812 400.274 556.871 400.497 556.871 400.751C556.871 400.998 556.812 401.22 556.695 401.415C556.577 401.607 556.414 401.758 556.207 401.87C556 401.981 555.764 402.037 555.501 402.037ZM555.501 401.443C555.622 401.443 555.73 401.415 555.826 401.359C555.922 401.303 555.998 401.224 556.054 401.122C556.109 401.017 556.137 400.893 556.137 400.751C556.137 400.605 556.109 400.481 556.054 400.379C555.998 400.277 555.922 400.198 555.826 400.142C555.73 400.086 555.622 400.059 555.501 400.059C555.38 400.059 555.272 400.086 555.176 400.142C555.08 400.198 555.003 400.277 554.944 400.379C554.888 400.481 554.86 400.605 554.86 400.751C554.86 400.893 554.888 401.017 554.944 401.122C555.003 401.224 555.08 401.303 555.176 401.359C555.272 401.415 555.38 401.443 555.501 401.443ZM557.369 402V399.501H558.647C558.959 399.501 559.204 399.559 559.381 399.673C559.557 399.785 559.645 399.943 559.645 400.147C559.645 400.351 559.562 400.512 559.394 400.63C559.23 400.744 559.012 400.802 558.74 400.802L558.814 400.635C559.117 400.635 559.343 400.69 559.492 400.802C559.644 400.913 559.72 401.076 559.72 401.289C559.72 401.509 559.636 401.683 559.469 401.81C559.302 401.937 559.046 402 558.702 402H557.369ZM558.034 401.508H558.642C558.775 401.508 558.874 401.486 558.939 401.443C559.007 401.396 559.041 401.327 559.041 401.234C559.041 401.138 559.011 401.068 558.949 401.025C558.887 400.978 558.789 400.955 558.656 400.955H558.034V401.508ZM558.034 400.528H558.582C558.709 400.528 558.803 400.504 558.865 400.458C558.93 400.412 558.963 400.345 558.963 400.258C558.963 400.169 558.93 400.102 558.865 400.059C558.803 400.015 558.709 399.994 558.582 399.994H558.034V400.528ZM561.48 402.037C561.195 402.037 560.944 401.981 560.728 401.87C560.514 401.758 560.348 401.607 560.231 401.415C560.113 401.22 560.054 400.998 560.054 400.751C560.054 400.5 560.112 400.278 560.226 400.086C560.344 399.891 560.503 399.74 560.705 399.631C560.906 399.52 561.133 399.464 561.387 399.464C561.632 399.464 561.852 399.517 562.047 399.622C562.245 399.724 562.401 399.873 562.516 400.068C562.63 400.26 562.688 400.491 562.688 400.76C562.688 400.788 562.686 400.82 562.683 400.857C562.68 400.892 562.677 400.924 562.674 400.955H560.644V400.532H562.293L562.014 400.658C562.014 400.528 561.988 400.415 561.935 400.319C561.883 400.223 561.81 400.148 561.717 400.096C561.624 400.04 561.516 400.012 561.392 400.012C561.268 400.012 561.158 400.04 561.062 400.096C560.969 400.148 560.896 400.224 560.844 400.323C560.791 400.419 560.765 400.534 560.765 400.667V400.779C560.765 400.915 560.794 401.036 560.853 401.141C560.915 401.243 561 401.322 561.109 401.378C561.22 401.43 561.35 401.457 561.499 401.457C561.632 401.457 561.748 401.436 561.847 401.396C561.949 401.356 562.042 401.296 562.126 401.215L562.511 401.633C562.397 401.763 562.253 401.864 562.079 401.935C561.906 402.003 561.706 402.037 561.48 402.037ZM563.243 402V399.501H563.963V400.477H565.05V399.501H565.774V402H565.05V401.066H563.963V402H563.243ZM567.819 400.3C568.148 400.303 568.397 400.378 568.567 400.523C568.741 400.665 568.827 400.868 568.827 401.131C568.827 401.407 568.73 401.622 568.535 401.777C568.34 401.929 568.069 402.005 567.722 402.005L566.468 402V399.501H567.188V400.3H567.819ZM567.657 401.489C567.796 401.492 567.903 401.463 567.977 401.401C568.052 401.339 568.089 401.246 568.089 401.122C568.089 400.998 568.052 400.91 567.977 400.857C567.903 400.802 567.796 400.772 567.657 400.769L567.188 400.765V401.489H567.657Z" fill="#D8D8D8"/>
<path d="M175.39 61.1479L174.597 59.0454H170.845L170.052 61.1479H167.912L171.651 50.9626H174.018L177.531 61.1479H175.39ZM171.55 57.1695H173.892L172.721 54.0724L171.55 57.1695ZM184.53 57.0436H186.834C186.443 59.8889 184.429 61.3368 182.037 61.3368C179.38 61.3368 177.19 59.5238 177.19 56.049C177.19 52.6497 179.38 50.7486 182.037 50.7486C184.441 50.7486 186.305 52.2216 186.783 54.7522H184.429C184.164 53.4806 183.208 52.8637 182.037 52.8637C180.539 52.8637 179.38 53.8709 179.38 56.049C179.38 58.2397 180.526 59.2343 182.037 59.2343C183.308 59.2343 184.366 58.5292 184.53 57.0436ZM187.575 50.9626H189.715V57.6227L194.65 50.9626H196.791V61.1479H194.65V54.4375L189.715 61.1479H187.575V50.9626ZM206.122 50.9626H208.489V61.1479H206.349V55.3188L204.07 61.1479H202.383L200.104 55.3062V61.1479H197.964V50.9626H200.318L203.227 58.9825L206.122 50.9626ZM217.815 50.9626H220.182V61.1479H218.041V55.3188L215.763 61.1479H214.076L211.797 55.3062V61.1479H209.656V50.9626H212.011L214.919 58.9825L217.815 50.9626ZM221.349 50.9626H228.626V53.0022H223.552V54.8152L227.782 54.8404V56.8673L223.552 56.8548V59.121H228.626V61.1479H221.349V50.9626ZM229.012 50.9626H238.366V53.0022H234.816V61.1479H232.562V53.0022H229.012V50.9626ZM243.885 50.9626C246.088 50.9626 247.234 52.6497 247.234 54.2486C247.234 56.3512 245.648 57.4968 243.973 57.4968H241.43V61.1479H239.177V50.9626H240.675H243.885ZM243.835 55.5202C244.653 55.5202 245.258 55.0292 245.258 54.2486C245.258 53.468 244.615 52.9393 243.835 52.9393H241.43V55.5202H243.835ZM247.918 50.9626H250.059V57.6227L254.994 50.9626H257.134V61.1479H254.994V54.4375L250.059 61.1479H247.918V50.9626ZM263.205 50.9626H265.471V61.1479H263.205V56.54C262.399 57.0814 261.128 57.0814 261.128 57.0814C259.264 57.0814 257.879 56.0238 257.879 54.1605V50.9626H259.944V53.9213C259.944 54.79 260.674 55.1677 261.518 55.1677C262.349 55.1677 263.205 54.7774 263.205 53.9213V50.9626ZM268.897 50.9626V54.8152H273.19V50.9626H275.456V61.1479H273.19V56.8548H268.897V61.1479H266.643V50.9626H268.897ZM285.956 50.9626H288.209V61.1479H285.956V50.9626ZM280.857 55.067C283.904 55.067 284.911 56.4519 284.911 58.1641C284.911 60.808 282.494 61.1479 280.353 61.1479H276.639V50.9626H278.893V55.067H280.857ZM282.783 58.1263V57.8494C282.783 57.1821 282.128 56.6407 281.121 56.6407H278.931V59.335H281.121C282.128 59.335 282.783 58.7936 282.783 58.1263ZM289.377 50.9626H296.654V53.0022H291.58V54.8152L295.81 54.8404V56.8673L291.58 56.8548V59.121H296.654V61.1479H289.377V50.9626ZM306.466 50.9626C308.67 50.9626 309.815 52.6497 309.815 54.2486C309.815 56.3512 308.229 57.4968 306.555 57.4968H304.011V61.1479H301.758V50.9626H303.256H306.466ZM306.416 55.5202C307.234 55.5202 307.839 55.0292 307.839 54.2486C307.839 53.468 307.197 52.9393 306.416 52.9393H304.011V55.5202H306.416ZM316.364 61.1479L315.571 59.0454H311.819L311.026 61.1479H308.885L312.625 50.9626H314.992L318.504 61.1479H316.364ZM312.524 57.1695H314.866L313.695 54.0724L312.524 57.1695ZM325.503 57.0436H327.807C327.417 59.8889 325.402 61.3368 323.01 61.3368C320.354 61.3368 318.163 59.5238 318.163 56.049C318.163 52.6497 320.354 50.7486 323.01 50.7486C325.415 50.7486 327.278 52.2216 327.757 54.7522H325.402C325.138 53.4806 324.181 52.8637 323.01 52.8637C321.512 52.8637 320.354 53.8709 320.354 56.049C320.354 58.2397 321.5 59.2343 323.01 59.2343C324.282 59.2343 325.339 58.5292 325.503 57.0436ZM328.548 50.9626H337.147V61.1479H334.881V53.0022H330.802V61.1479H328.548V50.9626ZM343.031 50.9626C345.235 50.9626 346.38 52.6497 346.38 54.2486C346.38 56.3512 344.794 57.4968 343.12 57.4968H340.576V61.1479H338.323V50.9626H339.821H343.031ZM342.981 55.5202C343.799 55.5202 344.404 55.0292 344.404 54.2486C344.404 53.468 343.762 52.9393 342.981 52.9393H340.576V55.5202H342.981ZM347.065 50.9626H354.342V53.0022H349.268V54.8152L353.498 54.8404V56.8673L349.268 56.8548V59.121H354.342V61.1479H347.065V50.9626ZM361.627 59.1084V53.0022H359.197V54.2612C359.197 56.4896 358.718 58.0256 358.202 59.1084H361.627ZM363.893 59.1084H365.467V63.1875H363.44V61.1479H356.515V63.1875H354.488V59.1084C355.785 59.1084 356.742 59.1084 355.697 59.1084C356.578 59.1084 357.208 56.6533 357.208 53.8961V50.9626C358.328 50.9626 362.596 50.9626 363.893 50.9626V59.1084ZM366.085 50.9626H373.362V53.0022H368.288V54.8152L372.518 54.8404V56.8673L368.288 56.8548V59.121H373.362V61.1479H366.085V50.9626ZM375.611 50.9626H382.208V61.1354H379.992V52.9896H377.499V55.2936C377.499 56.9807 377.499 60.3044 375.372 61.0472C374.906 61.2109 374.289 61.1605 373.496 61.1102V59.0958C374.075 59.1461 374.503 59.1084 374.793 58.9447C375.598 58.504 375.611 55.7972 375.611 54.8152V50.9626ZM383.408 50.9626H390.685V53.0022H385.612V54.8152L389.842 54.8404V56.8673L385.612 56.8548V59.121H390.685V61.1479H383.408V50.9626ZM393.715 50.9626V54.8152H398.008V50.9626H400.274V61.1479H398.008V56.8548H393.715V61.1479H391.461V50.9626H393.715ZM401.457 50.9626H403.598V57.6227L408.533 50.9626H410.673V61.1479H408.533V54.4375L403.598 61.1479H401.457V50.9626ZM411.318 61.1479L413.71 57.2576C412.514 56.8044 411.746 55.558 411.746 54.2486C411.746 52.5616 413.105 50.9626 415.321 50.9626H420.043V61.1479H417.776V57.4843C417.776 57.4843 417.525 57.4843 415.913 57.4843L413.899 61.1479H411.318ZM415.145 55.5076H417.776V52.9393H415.145C414.364 52.9393 413.722 53.4555 413.722 54.2486C413.722 55.0292 414.364 55.5076 415.145 55.5076Z" fill="black"/>
<g opacity="0.05">
<rect x="49" y="322" width="7.35556" height="2" fill="#2300FA"/>
<rect x="59.2607" y="308" width="7.35556" height="16" fill="#2300FA"/>
<rect x="69.5205" y="275" width="7.35556" height="49" fill="#2300FA"/>
<rect x="79.7812" y="219" width="7.35556" height="105" fill="#2300FA"/>
<rect x="90.041" y="144" width="7.35556" height="180" fill="#2300FA"/>
<rect x="100.302" y="118" width="7.35556" height="206" fill="#2300FA"/>
<rect x="110.562" y="144" width="7.35556" height="180" fill="#2300FA"/>
<rect x="120.822" y="219" width="7.35556" height="105" fill="#2300FA"/>
<rect x="131.083" y="275" width="7.35556" height="49" fill="#2300FA"/>
<rect x="141.343" y="294" width="7.35556" height="30" fill="#2300FA"/>
<rect x="151.604" y="311" width="7.35556" height="13" fill="#2300FA"/>
<rect x="161.863" y="315" width="7.35556" height="9" fill="#2300FA"/>
<rect x="172.124" y="319" width="7.35556" height="5" fill="#2300FA"/>
<rect x="182.384" y="322" width="7.35556" height="2" fill="#2300FA"/>
<rect x="192.645" y="322" width="7.35556" height="2" fill="#2300FA"/>
</g>
<path d="M251.03 326.055H252.773C252.773 326.055 164.677 325.777 153.645 306.055C114.234 235.591 125.884 117 103.005 117C80.1257 117 88.3727 242.527 55.3892 316.055C50.9754 325.894 46.483 326.053 46.269 326.055H251.03Z" fill="#DCFF00" fill-opacity="0.25"/>
<path d="M46.0049 326.055H46.2611M251.03 326.055H252.773M46.2611 326.055C46.2611 326.055 50.8664 326.137 55.3892 316.055C88.3727 242.527 80.1257 117 103.005 117C125.884 117 114.234 235.591 153.645 306.055C164.677 325.777 252.773 326.055 252.773 326.055M46.2611 326.055H252.773" stroke="#DCFF00" stroke-width="2"/>
<path d="M159.005 117L159.005 326" stroke="#9A9C9E" stroke-width="2"/>
<path d="M48.002 117L48.001 326H291.001" stroke="#9A9C9E" stroke-width="2"/>
<path d="M290.999 328V323L296.999 325.609L290.999 328Z" fill="#9A9C9E" stroke="#9A9C9E" stroke-width="2"/>
<path d="M50.5 116L45.5 116L48.1087 110L50.5 116Z" fill="#9A9C9E" stroke="#9A9C9E" stroke-width="2"/>
<path d="M132.172 367.551L125.84 364.782L130.39 369.332L129.868 369.854L124.72 364.706L125.554 363.872L131.676 366.57L128.965 360.461L129.805 359.621L134.953 364.769L134.425 365.298L129.881 360.741L132.649 367.073L132.172 367.551ZM131.518 358.913L133.154 360.549L135.629 358.073L136.132 358.576L133.644 361.039L135.667 363.063L138.607 360.123L139.104 360.619L135.648 364.075L130.5 358.926L133.955 355.47L134.458 355.973L131.518 358.913ZM142.808 355.947L138.64 351.779L136.629 353.79L137.507 354.668C138.461 355.585 139.715 357.271 140.231 358.525L142.808 355.947ZM143.317 355.451L144.342 354.426L145.856 355.941L145.354 356.444L144.323 355.413L139.747 359.989L140.778 361.02L140.281 361.516L138.767 360.001L139.55 359.219C139.569 358.296 138.302 356.507 137.055 355.235L135.629 353.809L138.652 350.786L143.317 355.451ZM144.406 346.216L145.819 353.904L145.144 354.578L139.996 349.43L140.518 348.908L145.068 353.458L143.643 345.783L144.33 345.096L149.478 350.244L148.956 350.766L144.406 346.216ZM151.706 345.064L149.434 347.336L150.382 349.341L149.835 349.888L146.608 342.818L147.194 342.232L154.27 345.452L153.71 346.012L151.706 345.064ZM147.385 343.009L149.109 346.655L151.025 344.74L147.385 343.009ZM158.065 341.658L155.551 339.144L152.624 342.071L155.138 344.585L154.616 345.107L149.467 339.958L149.989 339.437L152.127 341.575L155.055 338.648L152.917 336.509L153.438 335.987L158.587 341.136L158.065 341.658ZM160.81 335.959L158.539 338.231L159.487 340.236L158.939 340.783L155.713 333.713L156.298 333.127L163.375 336.348L162.815 336.908L160.81 335.959ZM156.489 333.904L158.214 337.55L160.13 335.635L156.489 333.904Z" fill="black"/>
<path d="M217.267 230.248C217.859 230.848 218.171 231.72 218.171 232.76C218.171 234.808 216.979 236.128 215.123 236.128C213.843 236.128 212.483 235.456 212.155 233.64H212.819C213.083 234.824 213.907 235.472 215.123 235.472C216.283 235.472 217.483 234.784 217.515 232.84H214.683V232.208H217.475C217.267 230.672 216.179 230.048 215.123 230.048C214.179 230.048 213.211 230.504 212.867 231.728H212.187C212.531 230.264 213.603 229.392 215.123 229.392C215.971 229.392 216.731 229.696 217.267 230.248ZM223.938 233.64H224.61C224.282 235.456 222.922 236.128 221.642 236.128C219.786 236.128 218.594 234.808 218.594 232.76C218.594 231.72 218.906 230.848 219.49 230.248C220.034 229.696 220.794 229.392 221.642 229.392C223.162 229.392 224.234 230.264 224.57 231.728H223.898C223.554 230.504 222.578 230.048 221.642 230.048C220.466 230.048 219.25 230.816 219.25 232.76C219.25 234.768 220.466 235.472 221.642 235.472C222.858 235.472 223.682 234.824 223.938 233.64ZM225.856 233.112L229.136 229.528H230.024L227.632 232.144L230.32 236H229.528L227.184 232.632L225.856 234.08V236H225.208V229.528H225.856V233.112ZM235.367 233.64H236.039C235.711 235.456 234.351 236.128 233.071 236.128C231.215 236.128 230.023 234.808 230.023 232.76C230.023 231.72 230.335 230.848 230.919 230.248C231.463 229.696 232.223 229.392 233.071 229.392C234.591 229.392 235.663 230.264 235.999 231.728H235.327C234.983 230.504 234.007 230.048 233.071 230.048C231.895 230.048 230.679 230.816 230.679 232.76C230.679 234.768 231.895 235.472 233.071 235.472C234.287 235.472 235.111 234.824 235.367 233.64ZM242.035 230.16H239.323V236H238.667V230.16H235.963V229.528H242.035V230.16ZM245.075 229.528C246.451 229.528 247.195 230.512 247.195 231.44C247.195 232.368 246.467 233.312 245.083 233.312H243.115V236H242.451V229.528H245.075ZM245.203 232.656C245.835 232.656 246.547 232.256 246.547 231.44C246.547 230.608 245.827 230.184 245.203 230.184H243.115V232.656H245.203ZM248.38 230.16V232.216H251.492V232.848L248.38 232.832V235.376H252.076V236H247.732V229.528H252.076V230.16H248.38ZM255.503 236L253.263 230.28V236H252.607V229.528H253.655L255.807 235.072L257.943 229.528H258.999V236H258.335L258.343 230.28L256.103 236H255.503ZM263.648 234.144H260.792L260.128 236H259.44L261.856 229.528H262.592L265.016 236H264.312L263.648 234.144ZM262.224 230.136L261.016 233.512H263.424L262.224 230.136ZM269.63 230.152H267.07V230.52C267.07 231.896 267.062 232.968 266.902 234.248C266.734 235.656 266.422 236 265.158 236C265.158 236 265.158 235.496 265.158 235.376C266.118 235.376 266.182 235.296 266.342 233.848C266.406 233.288 266.478 232.4 266.478 231.328V229.528H270.262V236H269.63V230.152ZM273.826 232.376C275.098 232.376 275.834 233.312 275.834 234.152C275.834 235.368 275.186 236 273.69 236H271.154V229.528H271.802V232.376H273.826ZM273.81 235.368C274.626 235.368 275.186 235.056 275.186 234.248C275.186 233.592 274.674 233.008 273.794 233.008H271.802V235.368H273.81ZM280.732 236V232.84H277.052V236H276.396V229.528H277.052V232.216H280.732V229.528H281.388V236H280.732ZM285.087 229.392C286.935 229.392 288.135 230.68 288.135 232.76C288.135 235.248 286.559 236.128 285.087 236.128C283.231 236.128 282.039 234.808 282.039 232.76C282.039 231.72 282.351 230.848 282.935 230.248C283.479 229.696 284.239 229.392 285.087 229.392ZM285.087 235.472C286.583 235.472 287.471 234.496 287.471 232.76C287.471 230.744 286.255 230.048 285.087 230.048C283.911 230.048 282.695 230.816 282.695 232.76C282.695 234.768 283.911 235.472 285.087 235.472ZM215.891 240.656C216.851 240.8 217.107 241.576 217.107 242.296C217.107 243.32 216.459 244 214.963 244H212.427V237.528H214.875C216.003 237.528 216.715 238.408 216.715 239.352C216.715 239.768 216.515 240.44 215.891 240.656ZM214.683 238.168H213.075V240.376C213.595 240.376 214.283 240.376 214.675 240.376C215.571 240.376 216.051 240.104 216.051 239.28C216.051 238.632 215.603 238.168 214.683 238.168ZM215.083 243.368C215.899 243.368 216.459 243.056 216.459 242.248C216.459 241.592 215.947 241.008 215.067 241.008H213.075V243.368H215.083ZM220.654 240.376C221.926 240.376 222.662 241.312 222.662 242.152C222.662 243.368 222.014 244 220.518 244H217.982V237.528H218.63V240.376H220.654ZM220.638 243.368C221.454 243.368 222.014 243.056 222.014 242.248C222.014 241.592 221.502 241.008 220.622 241.008H218.63V243.368H220.638ZM224.07 244H223.422V237.528H224.07V244ZM230.078 241.64H230.75C230.422 243.456 229.062 244.128 227.782 244.128C225.926 244.128 224.734 242.808 224.734 240.76C224.734 239.72 225.046 238.848 225.63 238.248C226.174 237.696 226.934 237.392 227.782 237.392C229.302 237.392 230.374 238.264 230.71 239.728H230.038C229.694 238.504 228.718 238.048 227.782 238.048C226.606 238.048 225.39 238.816 225.39 240.76C225.39 242.768 226.606 243.472 227.782 243.472C228.998 243.472 229.822 242.824 230.078 241.64ZM234.173 237.392C236.021 237.392 237.221 238.68 237.221 240.76C237.221 243.248 235.645 244.128 234.173 244.128C232.317 244.128 231.125 242.808 231.125 240.76C231.125 239.72 231.437 238.848 232.021 238.248C232.565 237.696 233.325 237.392 234.173 237.392ZM234.173 243.472C235.669 243.472 236.557 242.496 236.557 240.76C236.557 238.744 235.341 238.048 234.173 238.048C232.997 238.048 231.781 238.816 231.781 240.76C231.781 242.768 232.997 243.472 234.173 243.472ZM238.528 241.112L241.808 237.528H242.696L240.304 240.144L242.992 244H242.2L239.856 240.632L238.528 242.08V244H237.88V237.528H238.528V241.112ZM248.219 238.28L244.275 244H243.427V237.528H244.083V243.248L248.011 237.528H248.875V244H248.219V238.28ZM250.403 238.16V240.216H253.515V240.848L250.403 240.832V243.376H254.099V244H249.755V237.528H254.099V238.16H250.403ZM216.851 250.224C216.851 251.528 216.059 252.128 214.555 252.128C212.171 252.128 212.115 250.656 212.115 250.064H212.723C212.723 250.4 212.803 251.504 214.467 251.504C215.923 251.504 216.307 250.808 216.219 250.064C216.155 249.504 215.507 249.024 214.355 249.024V248.424C215.955 248.424 216.051 247.496 216.051 247.152C216.051 246.376 215.307 246.032 214.643 246.032C213.579 246.032 213.107 246.624 213.011 247.288H212.355C212.427 246.312 213.139 245.4 214.547 245.4C216.043 245.4 216.691 246.16 216.691 247.304C216.691 248.416 215.707 248.712 215.707 248.712C215.707 248.712 216.851 248.872 216.851 250.224ZM221.888 252V248.84H218.208V252H217.552V245.528H218.208V248.216H221.888V245.528H222.544V252H221.888ZM227.195 250.144H224.339L223.675 252H222.987L225.403 245.528H226.139L228.563 252H227.859L227.195 250.144ZM225.771 246.136L224.563 249.512H226.971L225.771 246.136ZM230.247 249.016C228.991 249.016 227.967 248.504 227.967 247.376V245.528H228.623V247.056C228.623 247.96 229.263 248.368 230.247 248.368C231.263 248.368 231.863 247.96 231.863 247.056V245.528H232.527V252H231.863V248.488C231.863 248.488 231.527 249.016 230.247 249.016ZM234.044 246.16V248.216H237.156V248.848L234.044 248.832V251.376H237.74V252H233.396V245.528H237.74V246.16H234.044ZM242.607 252V248.84H238.927V252H238.271V245.528H238.927V248.216H242.607V245.528H243.263V252H242.607ZM248.93 246.28L244.986 252H244.138V245.528H244.794V251.248L248.722 245.528H249.586V252H248.93V246.28ZM250.946 252H250.178L251.746 249.176H252.506L250.946 252ZM252.434 245.528H255.106V252H254.434V249.176H253.946H251.746C251.274 249.096 250.314 248.712 250.314 247.352C250.314 245.992 251.618 245.528 252.434 245.528ZM254.434 248.52V246.2H252.306C251.61 246.2 250.97 246.656 250.97 247.352C250.97 248.176 251.418 248.52 252.306 248.52H254.434Z" fill="black"/>
<path d="M88.1985 352.532L81.8664 349.764L86.4166 354.314L85.8948 354.836L80.7463 349.687L81.58 348.854L87.7021 351.552L84.9911 345.443L85.8311 344.603L90.9796 349.751L90.4514 350.279L85.9075 345.723L88.6758 352.055L88.1985 352.532ZM88.6644 341.553C90.1345 340.083 92.1136 340.153 93.7683 341.807C95.7475 343.787 95.1938 345.74 94.0228 346.911C92.5464 348.388 90.5481 348.286 88.9189 346.657C88.0916 345.829 87.6461 344.888 87.6334 343.946C87.6271 343.074 87.9898 342.227 88.6644 341.553ZM93.501 346.39C94.6911 345.199 94.621 343.717 93.2401 342.336C91.6364 340.732 90.1154 341.146 89.1862 342.075C88.2507 343.01 87.8943 344.589 89.4408 346.135C91.0381 347.732 92.5655 347.325 93.501 346.39ZM99.7976 339.966L95.6292 335.797L93.6182 337.808L94.4964 338.686C95.451 339.603 96.7047 341.289 97.2202 342.543L99.7976 339.966ZM100.307 339.469L101.331 338.445L102.846 339.959L102.343 340.462L101.312 339.431L96.7365 344.007L97.7675 345.038L97.2711 345.534L95.7565 344.019L96.5392 343.237C96.5583 342.314 95.2919 340.526 94.0446 339.253L92.619 337.827L95.6419 334.804L100.307 339.469ZM103.829 333.948L101.557 336.22L102.505 338.225L101.958 338.772L98.7317 331.702L99.3172 331.117L106.394 334.337L105.834 334.897L103.829 333.948ZM99.5081 331.893L101.233 335.539L103.148 333.624L99.5081 331.893Z" fill="black"/>
<path d="M108.207 359.762L108.741 359.228C109.925 360.933 109.378 362.55 108.359 363.568C106.883 365.044 104.885 364.942 103.256 363.313C102.428 362.486 101.983 361.544 101.97 360.602C101.964 359.73 102.326 358.884 103.001 358.209C104.21 357 105.757 356.841 107.189 357.738L106.654 358.273C105.407 357.573 104.267 357.987 103.523 358.731C102.587 359.667 102.231 361.245 103.777 362.791C105.375 364.389 106.902 363.982 107.838 363.046C108.805 362.079 108.945 360.908 108.207 359.762ZM108.034 353.393C109.128 352.298 110.503 352.489 111.241 353.228C111.979 353.966 112.151 355.296 111.05 356.397L109.485 357.962L111.623 360.101L111.095 360.629L105.946 355.48L108.034 353.393ZM110.624 355.779C111.127 355.277 111.375 354.392 110.726 353.743C110.064 353.081 109.154 353.317 108.658 353.813L106.997 355.474L108.963 357.44L110.624 355.779ZM111.166 351.266L112.801 352.902L115.277 350.426L115.78 350.929L113.291 353.392L115.315 355.416L118.255 352.476L118.752 352.972L115.296 356.428L110.148 351.279L113.603 347.824L114.106 348.326L111.166 351.266ZM122.456 348.301L118.287 344.132L116.276 346.143L117.155 347.021C118.109 347.938 119.363 349.624 119.878 350.878L122.456 348.301ZM122.965 347.804L123.99 346.78L125.504 348.294L125.001 348.797L123.97 347.766L119.395 352.342L120.426 353.373L119.929 353.869L118.415 352.354L119.198 351.572C119.217 350.649 117.95 348.861 116.703 347.588L115.277 346.162L118.3 343.139L122.965 347.804ZM128.242 343.482L125.728 340.968L122.8 343.896L125.314 346.41L124.792 346.931L119.644 341.783L120.166 341.261L122.304 343.399L125.231 340.472L123.093 338.334L123.615 337.812L128.763 342.96L128.242 343.482ZM125.329 337.103L126.965 338.738L129.441 336.263L129.943 336.766L127.455 339.228L129.479 341.252L132.419 338.312L132.915 338.808L129.46 342.264L124.311 337.116L127.767 333.66L128.27 334.163L125.329 337.103ZM129.207 333.225L130.843 334.86L133.319 332.385L133.821 332.888L131.333 335.35L133.357 337.374L136.297 334.434L136.793 334.93L133.338 338.386L128.189 333.238L131.645 329.782L132.148 330.285L129.207 333.225Z" fill="black"/>
<path d="M131.005 117L131.005 326" stroke="#9A9C9E" stroke-width="2" stroke-dasharray="4 8 12 16"/>
<path d="M103.005 117L103.005 326" stroke="#9A9C9E" stroke-width="2" stroke-dasharray="4 4"/>
<path d="M33.2478 212.153C33.4638 212.633 33.6278 213.113 33.7398 213.593C33.8518 214.065 33.9078 214.521 33.9078 214.961C33.9078 215.945 33.6718 216.713 33.1998 217.265C32.7198 217.809 32.0438 218.081 31.1718 218.081L28.3998 218.081L28.3998 217.205L31.0758 217.205C31.7238 217.205 32.2278 217.001 32.5878 216.593C32.9478 216.177 33.1278 215.605 33.1278 214.877C33.1278 214.445 33.0718 213.997 32.9598 213.533C32.8398 213.069 32.6718 212.609 32.4558 212.153L33.2478 212.153ZM36.7998 212.309L28.3998 212.309L28.3998 211.445L36.7998 211.445L36.7998 212.309ZM36.7998 204.887L35.4078 204.887L35.1798 204.923L32.8518 204.923C32.3158 204.923 31.9038 205.075 31.6158 205.379C31.3278 205.675 31.1838 206.119 31.1838 206.711C31.1838 207.119 31.2518 207.507 31.3878 207.875C31.5238 208.243 31.7038 208.555 31.9278 208.811L31.2918 209.195C31.0198 208.875 30.8118 208.491 30.6678 208.043C30.5158 207.595 30.4398 207.123 30.4398 206.627C30.4398 205.811 30.6438 205.183 31.0518 204.743C31.4518 204.295 32.0638 204.071 32.8878 204.071L36.7998 204.071L36.7998 204.887ZM36.8598 207.059C36.8598 207.531 36.7838 207.943 36.6318 208.295C36.4718 208.639 36.2558 208.903 35.9838 209.087C35.7038 209.271 35.3838 209.363 35.0238 209.363C34.6958 209.363 34.3998 209.287 34.1358 209.135C33.8638 208.975 33.6478 208.719 33.4878 208.367C33.3198 208.007 33.2358 207.527 33.2358 206.927L33.2358 204.755L33.8718 204.755L33.8718 206.903C33.8718 207.511 33.9798 207.935 34.1958 208.175C34.4118 208.407 34.6798 208.523 34.9998 208.523C35.3598 208.523 35.6478 208.383 35.8638 208.103C36.0798 207.823 36.1878 207.431 36.1878 206.927C36.1878 206.447 36.0798 206.035 35.8638 205.691C35.6398 205.339 35.3198 205.083 34.9038 204.923L35.4918 204.731C35.9078 204.891 36.2398 205.171 36.4878 205.571C36.7358 205.963 36.8598 206.459 36.8598 207.059ZM36.8598 199.163C36.8598 199.787 36.7238 200.347 36.4518 200.843C36.1718 201.331 35.7918 201.715 35.3118 201.995C34.8238 202.275 34.2678 202.415 33.6438 202.415C33.0118 202.415 32.4558 202.275 31.9758 201.995C31.4958 201.715 31.1198 201.331 30.8478 200.843C30.5758 200.347 30.4398 199.787 30.4398 199.163C30.4398 198.627 30.5438 198.143 30.7518 197.711C30.9598 197.279 31.2718 196.939 31.6878 196.691L32.1198 197.327C31.7998 197.543 31.5638 197.811 31.4118 198.131C31.2598 198.451 31.1838 198.799 31.1838 199.175C31.1838 199.623 31.2878 200.027 31.4958 200.387C31.6958 200.747 31.9798 201.031 32.3478 201.239C32.7158 201.447 33.1478 201.551 33.6438 201.551C34.1398 201.551 34.5718 201.447 34.9398 201.239C35.3078 201.031 35.5958 200.747 35.8038 200.387C36.0038 200.027 36.1038 199.623 36.1038 199.175C36.1038 198.799 36.0278 198.451 35.8758 198.131C35.7238 197.811 35.4918 197.543 35.1798 197.327L35.6118 196.691C36.0198 196.939 36.3318 197.279 36.5478 197.711C36.7558 198.143 36.8598 198.627 36.8598 199.163ZM36.7998 193.959L31.0158 193.959L31.2438 193.743L31.2438 196.347L30.4998 196.347L30.4998 190.719L31.2438 190.719L31.2438 193.323L31.0158 193.107L36.7998 193.107L36.7998 193.959ZM36.8598 187.188C36.8598 187.796 36.7238 188.344 36.4518 188.832C36.1718 189.312 35.7918 189.692 35.3118 189.972C34.8238 190.252 34.2678 190.392 33.6438 190.392C33.0118 190.392 32.4558 190.252 31.9758 189.972C31.4958 189.692 31.1198 189.312 30.8478 188.832C30.5758 188.352 30.4398 187.804 30.4398 187.188C30.4398 186.564 30.5758 186.012 30.8478 185.532C31.1198 185.044 31.4958 184.664 31.9758 184.392C32.4558 184.112 33.0118 183.972 33.6438 183.972C34.2678 183.972 34.8238 184.112 35.3118 184.392C35.7918 184.664 36.1718 185.044 36.4518 185.532C36.7238 186.02 36.8598 186.572 36.8598 187.188ZM36.1038 187.188C36.1038 186.732 36.0038 186.328 35.8038 185.976C35.5958 185.624 35.3078 185.348 34.9398 185.148C34.5638 184.94 34.1318 184.836 33.6438 184.836C33.1478 184.836 32.7158 184.94 32.3478 185.148C31.9798 185.348 31.6958 185.624 31.4958 185.976C31.2878 186.328 31.1838 186.728 31.1838 187.176C31.1838 187.624 31.2878 188.024 31.4958 188.376C31.6958 188.728 31.9798 189.008 32.3478 189.216C32.7158 189.424 33.1478 189.528 33.6438 189.528C34.1318 189.528 34.5638 189.424 34.9398 189.216C35.3078 189.008 35.5958 188.728 35.8038 188.376C36.0038 188.024 36.1038 187.628 36.1038 187.188ZM36.7998 181.185L31.0158 181.185L31.2438 180.969L31.2438 183.573L30.4998 183.573L30.4998 177.945L31.2438 177.945L31.2438 180.549L31.0158 180.333L36.7998 180.333L36.7998 181.185ZM36.7998 172.801L35.4078 172.801L35.1798 172.837L32.8518 172.837C32.3158 172.837 31.9038 172.989 31.6158 173.293C31.3278 173.589 31.1838 174.033 31.1838 174.625C31.1838 175.033 31.2518 175.421 31.3878 175.789C31.5238 176.157 31.7038 176.469 31.9278 176.725L31.2918 177.109C31.0198 176.789 30.8118 176.405 30.6678 175.957C30.5158 175.509 30.4398 175.037 30.4398 174.541C30.4398 173.725 30.6438 173.097 31.0518 172.657C31.4518 172.209 32.0638 171.985 32.8878 171.985L36.7998 171.985L36.7998 172.801ZM36.8598 174.973C36.8598 175.445 36.7838 175.857 36.6318 176.209C36.4718 176.553 36.2558 176.817 35.9838 177.001C35.7038 177.185 35.3838 177.277 35.0238 177.277C34.6958 177.277 34.3998 177.201 34.1358 177.049C33.8638 176.889 33.6478 176.633 33.4878 176.281C33.3198 175.921 33.2358 175.441 33.2358 174.841L33.2358 172.669L33.8718 172.669L33.8718 174.817C33.8718 175.425 33.9798 175.849 34.1958 176.089C34.4118 176.321 34.6798 176.437 34.9998 176.437C35.3598 176.437 35.6478 176.297 35.8638 176.017C36.0798 175.737 36.1878 175.345 36.1878 174.841C36.1878 174.361 36.0798 173.949 35.8638 173.605C35.6398 173.253 35.3198 172.997 34.9038 172.837L35.4918 172.645C35.9078 172.805 36.2398 173.085 36.4878 173.485C36.7358 173.877 36.8598 174.373 36.8598 174.973Z" fill="black"/>
<g opacity="0.05">
<rect width="7.35556" height="2" transform="matrix(-1 0 0 1 550.999 321)" fill="#2300FA"/>
<rect width="7.35556" height="16" transform="matrix(-1 0 0 1 540.738 307)" fill="#2300FA"/>
<rect width="7.35556" height="49" transform="matrix(-1 0 0 1 530.479 274)" fill="#2300FA"/>
<rect width="7.35556" height="105" transform="matrix(-1 0 0 1 520.218 218)" fill="#2300FA"/>
<rect width="7.35556" height="180" transform="matrix(-1 0 0 1 509.958 143)" fill="#2300FA"/>
<rect width="7.35556" height="206" transform="matrix(-1 0 0 1 499.697 117)" fill="#2300FA"/>
<rect width="7.35556" height="180" transform="matrix(-1 0 0 1 489.438 143)" fill="#2300FA"/>
<rect width="7.35556" height="105" transform="matrix(-1 0 0 1 479.177 218)" fill="#2300FA"/>
<rect width="7.35556" height="49" transform="matrix(-1 0 0 1 468.916 274)" fill="#2300FA"/>
<rect width="7.35556" height="30" transform="matrix(-1 0 0 1 458.656 293)" fill="#2300FA"/>
<rect width="7.35556" height="13" transform="matrix(-1 0 0 1 448.396 310)" fill="#2300FA"/>
<rect width="7.35556" height="9" transform="matrix(-1 0 0 1 438.136 314)" fill="#2300FA"/>
<rect width="7.35556" height="5" transform="matrix(-1 0 0 1 427.875 318)" fill="#2300FA"/>
<rect width="7.35556" height="2" transform="matrix(-1 0 0 1 417.615 321)" fill="#2300FA"/>
<rect width="7.35556" height="2" transform="matrix(-1 0 0 1 407.354 321)" fill="#2300FA"/>
</g>
<path d="M542.645 316.055C547.059 325.894 551.551 326.053 551.765 326.055H345.261C345.261 326.055 433.358 325.777 444.389 306.055C483.8 235.591 472.15 117 495.029 117C517.909 117 509.661 242.527 542.645 316.055Z" fill="#DCFF00" fill-opacity="0.25"/>
<path d="M552.029 326.055H551.773M327.005 326.055H345.261M551.773 326.055C551.773 326.055 547.168 326.137 542.645 316.055C509.661 242.527 517.909 117 495.029 117C472.15 117 483.8 235.591 444.389 306.055C433.358 325.777 345.261 326.055 345.261 326.055M551.773 326.055H345.261" stroke="#DCFF00" stroke-width="2"/>
<path d="M318.999 117V326H551.999" stroke="#9A9C9E" stroke-width="2"/>
<path d="M303.317 212.017C303.533 212.497 303.697 212.977 303.809 213.457C303.921 213.929 303.977 214.385 303.977 214.825C303.977 215.809 303.741 216.577 303.269 217.129C302.789 217.673 302.113 217.945 301.241 217.945L298.469 217.945L298.469 217.069L301.145 217.069C301.793 217.069 302.297 216.865 302.657 216.457C303.017 216.041 303.197 215.469 303.197 214.741C303.197 214.309 303.141 213.861 303.029 213.397C302.909 212.933 302.741 212.473 302.525 212.017L303.317 212.017ZM306.869 212.173L298.469 212.173L298.469 211.309L306.869 211.309L306.869 212.173ZM306.869 204.751L305.477 204.751L305.249 204.787L302.921 204.787C302.385 204.787 301.973 204.939 301.685 205.243C301.397 205.539 301.253 205.983 301.253 206.575C301.253 206.983 301.321 207.371 301.457 207.739C301.593 208.107 301.773 208.419 301.997 208.675L301.361 209.059C301.089 208.739 300.881 208.355 300.737 207.907C300.585 207.459 300.509 206.987 300.509 206.491C300.509 205.675 300.713 205.047 301.121 204.607C301.521 204.159 302.133 203.935 302.957 203.935L306.869 203.935L306.869 204.751ZM306.929 206.923C306.929 207.395 306.853 207.807 306.701 208.159C306.541 208.503 306.325 208.767 306.053 208.951C305.773 209.135 305.453 209.227 305.093 209.227C304.765 209.227 304.469 209.151 304.205 208.999C303.933 208.839 303.717 208.583 303.557 208.231C303.389 207.871 303.305 207.391 303.305 206.791L303.305 204.619L303.941 204.619L303.941 206.767C303.941 207.375 304.049 207.799 304.265 208.039C304.481 208.271 304.749 208.387 305.069 208.387C305.429 208.387 305.717 208.247 305.933 207.967C306.149 207.687 306.257 207.295 306.257 206.791C306.257 206.311 306.149 205.899 305.933 205.555C305.709 205.203 305.389 204.947 304.973 204.787L305.561 204.595C305.977 204.755 306.309 205.035 306.557 205.435C306.805 205.827 306.929 206.323 306.929 206.923ZM306.929 199.027C306.929 199.651 306.793 200.211 306.521 200.707C306.241 201.195 305.861 201.579 305.381 201.859C304.893 202.139 304.337 202.279 303.713 202.279C303.081 202.279 302.525 202.139 302.045 201.859C301.565 201.579 301.189 201.195 300.917 200.707C300.645 200.211 300.509 199.651 300.509 199.027C300.509 198.491 300.613 198.007 300.821 197.575C301.029 197.143 301.341 196.803 301.757 196.555L302.189 197.191C301.869 197.407 301.633 197.675 301.481 197.995C301.329 198.315 301.253 198.663 301.253 199.039C301.253 199.487 301.357 199.891 301.565 200.251C301.765 200.611 302.049 200.895 302.417 201.103C302.785 201.311 303.217 201.415 303.713 201.415C304.209 201.415 304.641 201.311 305.009 201.103C305.377 200.895 305.665 200.611 305.873 200.251C306.073 199.891 306.173 199.487 306.173 199.039C306.173 198.663 306.097 198.315 305.945 197.995C305.793 197.675 305.561 197.407 305.249 197.191L305.681 196.555C306.089 196.803 306.401 197.143 306.617 197.575C306.825 198.007 306.929 198.491 306.929 199.027ZM306.869 193.823L301.085 193.823L301.313 193.607L301.313 196.211L300.569 196.211L300.569 190.583L301.313 190.583L301.313 193.187L301.085 192.971L306.869 192.971L306.869 193.823ZM306.929 187.052C306.929 187.66 306.793 188.208 306.521 188.696C306.241 189.176 305.861 189.556 305.381 189.836C304.893 190.116 304.337 190.256 303.713 190.256C303.081 190.256 302.525 190.116 302.045 189.836C301.565 189.556 301.189 189.176 300.917 188.696C300.645 188.216 300.509 187.668 300.509 187.052C300.509 186.428 300.645 185.876 300.917 185.396C301.189 184.908 301.565 184.528 302.045 184.256C302.525 183.976 303.081 183.836 303.713 183.836C304.337 183.836 304.893 183.976 305.381 184.256C305.861 184.528 306.241 184.908 306.521 185.396C306.793 185.884 306.929 186.436 306.929 187.052ZM306.173 187.052C306.173 186.596 306.073 186.192 305.873 185.84C305.665 185.488 305.377 185.212 305.009 185.012C304.633 184.804 304.201 184.7 303.713 184.7C303.217 184.7 302.785 184.804 302.417 185.012C302.049 185.212 301.765 185.488 301.565 185.84C301.357 186.192 301.253 186.592 301.253 187.04C301.253 187.488 301.357 187.888 301.565 188.24C301.765 188.592 302.049 188.872 302.417 189.08C302.785 189.288 303.217 189.392 303.713 189.392C304.201 189.392 304.633 189.288 305.009 189.08C305.377 188.872 305.665 188.592 305.873 188.24C306.073 187.888 306.173 187.492 306.173 187.052ZM306.869 181.049L301.085 181.049L301.313 180.833L301.313 183.437L300.569 183.437L300.569 177.809L301.313 177.809L301.313 180.413L301.085 180.197L306.869 180.197L306.869 181.049ZM306.869 172.665L305.477 172.665L305.249 172.701L302.921 172.701C302.385 172.701 301.973 172.853 301.685 173.157C301.397 173.453 301.253 173.897 301.253 174.489C301.253 174.897 301.321 175.285 301.457 175.653C301.593 176.021 301.773 176.333 301.997 176.589L301.361 176.973C301.089 176.653 300.881 176.269 300.737 175.821C300.585 175.373 300.509 174.901 300.509 174.405C300.509 173.589 300.713 172.961 301.121 172.521C301.521 172.073 302.133 171.849 302.957 171.849L306.869 171.849L306.869 172.665ZM306.929 174.837C306.929 175.309 306.853 175.721 306.701 176.073C306.541 176.417 306.325 176.681 306.053 176.865C305.773 177.049 305.453 177.141 305.093 177.141C304.765 177.141 304.469 177.065 304.205 176.913C303.933 176.753 303.717 176.497 303.557 176.145C303.389 175.785 303.305 175.305 303.305 174.705L303.305 172.533L303.941 172.533L303.941 174.681C303.941 175.289 304.049 175.713 304.265 175.953C304.481 176.185 304.749 176.301 305.069 176.301C305.429 176.301 305.717 176.161 305.933 175.881C306.149 175.601 306.257 175.209 306.257 174.705C306.257 174.225 306.149 173.813 305.933 173.469C305.709 173.117 305.389 172.861 304.973 172.701L305.561 172.509C305.977 172.669 306.309 172.949 306.557 173.349C306.805 173.741 306.929 174.237 306.929 174.837Z" fill="black"/>
<path d="M552.003 328V323L558.003 325.609L552.003 328Z" fill="#9A9C9E" stroke="#9A9C9E" stroke-width="2"/>
<path d="M321.5 116L316.5 116L319.109 110L321.5 116Z" fill="#9A9C9E" stroke="#9A9C9E" stroke-width="2"/>
<path d="M439.013 117L439.013 326" stroke="#9A9C9E" stroke-width="2"/>
<path d="M467.013 117L467.013 326" stroke="#9A9C9E" stroke-width="2" stroke-dasharray="4 8 12 16"/>
<path d="M495.012 117L495.012 326" stroke="#9A9C9E" stroke-width="2" stroke-dasharray="4 4"/>
<path d="M334.277 230.248C334.869 230.848 335.181 231.72 335.181 232.76C335.181 234.808 333.989 236.128 332.133 236.128C330.853 236.128 329.493 235.456 329.165 233.64H329.829C330.093 234.824 330.917 235.472 332.133 235.472C333.293 235.472 334.493 234.784 334.525 232.84H331.693V232.208H334.485C334.277 230.672 333.189 230.048 332.133 230.048C331.189 230.048 330.221 230.504 329.877 231.728H329.197C329.541 230.264 330.613 229.392 332.133 229.392C332.981 229.392 333.741 229.696 334.277 230.248ZM340.948 233.64H341.62C341.292 235.456 339.932 236.128 338.652 236.128C336.796 236.128 335.604 234.808 335.604 232.76C335.604 231.72 335.916 230.848 336.5 230.248C337.044 229.696 337.804 229.392 338.652 229.392C340.172 229.392 341.244 230.264 341.58 231.728H340.908C340.564 230.504 339.588 230.048 338.652 230.048C337.476 230.048 336.26 230.816 336.26 232.76C336.26 234.768 337.476 235.472 338.652 235.472C339.868 235.472 340.692 234.824 340.948 233.64ZM342.866 233.112L346.146 229.528H347.034L344.642 232.144L347.33 236H346.538L344.194 232.632L342.866 234.08V236H342.218V229.528H342.866V233.112ZM352.377 233.64H353.049C352.721 235.456 351.361 236.128 350.081 236.128C348.225 236.128 347.033 234.808 347.033 232.76C347.033 231.72 347.345 230.848 347.929 230.248C348.473 229.696 349.233 229.392 350.081 229.392C351.601 229.392 352.673 230.264 353.009 231.728H352.337C351.993 230.504 351.017 230.048 350.081 230.048C348.905 230.048 347.689 230.816 347.689 232.76C347.689 234.768 348.905 235.472 350.081 235.472C351.297 235.472 352.121 234.824 352.377 233.64ZM359.045 230.16H356.333V236H355.677V230.16H352.973V229.528H359.045V230.16ZM362.084 229.528C363.46 229.528 364.204 230.512 364.204 231.44C364.204 232.368 363.476 233.312 362.092 233.312H360.124V236H359.46V229.528H362.084ZM362.212 232.656C362.844 232.656 363.556 232.256 363.556 231.44C363.556 230.608 362.836 230.184 362.212 230.184H360.124V232.656H362.212ZM365.39 230.16V232.216H368.502V232.848L365.39 232.832V235.376H369.086V236H364.742V229.528H369.086V230.16H365.39ZM372.513 236L370.273 230.28V236H369.617V229.528H370.665L372.817 235.072L374.953 229.528H376.009V236H375.345L375.353 230.28L373.113 236H372.513ZM380.658 234.144H377.802L377.138 236H376.45L378.866 229.528H379.602L382.026 236H381.322L380.658 234.144ZM379.234 230.136L378.026 233.512H380.434L379.234 230.136ZM386.64 230.152H384.08V230.52C384.08 231.896 384.072 232.968 383.912 234.248C383.744 235.656 383.432 236 382.168 236C382.168 236 382.168 235.496 382.168 235.376C383.128 235.376 383.192 235.296 383.352 233.848C383.416 233.288 383.488 232.4 383.488 231.328V229.528H387.272V236H386.64V230.152ZM390.835 232.376C392.107 232.376 392.843 233.312 392.843 234.152C392.843 235.368 392.195 236 390.699 236H388.163V229.528H388.811V232.376H390.835ZM390.819 235.368C391.635 235.368 392.195 235.056 392.195 234.248C392.195 233.592 391.683 233.008 390.803 233.008H388.811V235.368H390.819ZM397.742 236V232.84H394.062V236H393.406V229.528H394.062V232.216H397.742V229.528H398.398V236H397.742ZM402.097 229.392C403.945 229.392 405.145 230.68 405.145 232.76C405.145 235.248 403.569 236.128 402.097 236.128C400.241 236.128 399.049 234.808 399.049 232.76C399.049 231.72 399.361 230.848 399.945 230.248C400.489 229.696 401.249 229.392 402.097 229.392ZM402.097 235.472C403.593 235.472 404.481 234.496 404.481 232.76C404.481 230.744 403.265 230.048 402.097 230.048C400.921 230.048 399.705 230.816 399.705 232.76C399.705 234.768 400.921 235.472 402.097 235.472ZM333.773 244V240.84H330.093V244H329.437V237.528H330.093V240.216H333.773V237.528H334.429V244H333.773ZM340.096 238.28L336.152 244H335.304V237.528H335.96V243.248L339.888 237.528H340.752V244H340.096V238.28ZM346.056 242.224C346.056 243.528 345.264 244.128 343.76 244.128C341.376 244.128 341.32 242.656 341.32 242.064H341.928C341.928 242.4 342.008 243.504 343.672 243.504C345.128 243.504 345.512 242.808 345.424 242.064C345.36 241.504 344.712 241.024 343.56 241.024V240.424C345.16 240.424 345.256 239.496 345.256 239.152C345.256 238.376 344.512 238.032 343.848 238.032C342.784 238.032 342.312 238.624 342.216 239.288H341.56C341.632 238.312 342.344 237.4 343.752 237.4C345.248 237.4 345.896 238.16 345.896 239.304C345.896 240.416 344.912 240.712 344.912 240.712C344.912 240.712 346.056 240.872 346.056 242.224ZM347.405 241.112L350.685 237.528H351.573L349.181 240.144L351.869 244H351.077L348.733 240.632L347.405 242.08V244H346.757V237.528H347.405V241.112ZM357.096 238.28L353.152 244H352.304V237.528H352.96V243.248L356.888 237.528H357.752V244H357.096V238.28ZM359.28 238.16V240.216H362.392V240.848L359.28 240.832V243.376H362.976V244H358.632V237.528H362.976V238.16H359.28ZM333.861 250.224C333.861 251.528 333.069 252.128 331.565 252.128C329.181 252.128 329.125 250.656 329.125 250.064H329.733C329.733 250.4 329.813 251.504 331.477 251.504C332.933 251.504 333.317 250.808 333.229 250.064C333.165 249.504 332.517 249.024 331.365 249.024V248.424C332.965 248.424 333.061 247.496 333.061 247.152C333.061 246.376 332.317 246.032 331.653 246.032C330.589 246.032 330.117 246.624 330.021 247.288H329.365C329.437 246.312 330.149 245.4 331.557 245.4C333.053 245.4 333.701 246.16 333.701 247.304C333.701 248.416 332.717 248.712 332.717 248.712C332.717 248.712 333.861 248.872 333.861 250.224ZM338.898 252V248.84H335.218V252H334.562V245.528H335.218V248.216H338.898V245.528H339.554V252H338.898ZM344.205 250.144H341.349L340.685 252H339.997L342.413 245.528H343.149L345.573 252H344.869L344.205 250.144ZM342.781 246.136L341.573 249.512H343.981L342.781 246.136ZM347.257 249.016C346.001 249.016 344.977 248.504 344.977 247.376V245.528H345.633V247.056C345.633 247.96 346.273 248.368 347.257 248.368C348.273 248.368 348.873 247.96 348.873 247.056V245.528H349.537V252H348.873V248.488C348.873 248.488 348.537 249.016 347.257 249.016ZM351.054 246.16V248.216H354.166V248.848L351.054 248.832V251.376H354.75V252H350.406V245.528H354.75V246.16H351.054ZM359.617 252V248.84H355.937V252H355.281V245.528H355.937V248.216H359.617V245.528H360.273V252H359.617ZM365.94 246.28L361.996 252H361.148V245.528H361.804V251.248L365.732 245.528H366.596V252H365.94V246.28ZM367.956 252H367.188L368.756 249.176H369.516L367.956 252ZM369.444 245.528H372.116V252H371.444V249.176H370.956H368.756C368.284 249.096 367.324 248.712 367.324 247.352C367.324 245.992 368.628 245.528 369.444 245.528ZM371.444 248.52V246.2H369.316C368.62 246.2 367.98 246.656 367.98 247.352C367.98 248.176 368.428 248.52 369.316 248.52H371.444Z" fill="black"/>
<path d="M404.257 291.351C404.074 291.558 403.758 291.578 403.551 291.395L400.176 288.419C399.969 288.236 399.949 287.92 400.132 287.713C400.314 287.506 400.63 287.486 400.837 287.669L403.838 290.314L406.483 287.314C406.666 287.107 406.982 287.087 407.189 287.27C407.396 287.453 407.416 287.769 407.233 287.976L404.257 291.351ZM380.319 252L380.465 251.521C388.261 253.893 393.888 257.687 397.741 263.972C401.579 270.232 403.622 278.912 404.381 290.989L403.882 291.02L403.383 291.052C402.628 279.032 400.599 270.547 396.888 264.494C393.193 258.465 387.795 254.797 380.174 252.478L380.319 252Z" fill="#9A9C9E"/>
<path d="M413.766 367.136L407.434 364.368L411.984 368.918L411.462 369.44L406.314 364.292L407.147 363.458L413.27 366.156L410.559 360.047L411.399 359.207L416.547 364.355L416.019 364.884L411.475 360.327L414.243 366.659L413.766 367.136ZM413.112 358.499L414.747 360.135L417.223 357.659L417.726 358.162L415.237 360.625L417.261 362.649L420.201 359.708L420.698 360.205L417.242 363.66L412.094 358.512L415.549 355.056L416.052 355.559L413.112 358.499ZM424.402 355.533L420.233 351.365L418.222 353.376L419.101 354.254C420.055 355.171 421.309 356.857 421.824 358.111L424.402 355.533ZM424.911 355.037L425.935 354.012L427.45 355.527L426.947 356.03L425.916 354.999L421.341 359.575L422.372 360.605L421.875 361.102L420.361 359.587L421.143 358.804C421.162 357.882 419.896 356.093 418.649 354.821L417.223 353.395L420.246 350.372L424.911 355.037ZM426 345.802L427.413 353.49L426.738 354.164L421.59 349.016L422.112 348.494L426.662 353.044L425.236 345.369L425.924 344.682L431.072 349.83L430.55 350.352L426 345.802ZM433.3 344.65L431.028 346.922L431.976 348.927L431.429 349.474L428.202 342.404L428.787 341.818L435.864 345.038L435.304 345.598L433.3 344.65ZM428.978 342.594L430.703 346.241L432.619 344.325L428.978 342.594ZM439.659 341.244L437.145 338.73L434.218 341.657L436.731 344.171L436.21 344.693L431.061 339.544L431.583 339.023L433.721 341.161L436.649 338.233L434.51 336.095L435.032 335.573L440.181 340.722L439.659 341.244ZM442.404 335.545L440.132 337.817L441.081 339.822L440.533 340.369L437.307 333.299L437.892 332.713L444.969 335.934L444.409 336.494L442.404 335.545ZM438.083 333.49L439.808 337.136L441.723 335.221L438.083 333.49Z" fill="black"/>
<path d="M479.195 352.118L472.862 349.35L477.413 353.9L476.891 354.422L471.742 349.273L472.576 348.44L478.698 351.138L475.987 345.029L476.827 344.188L481.976 349.337L481.447 349.865L476.904 345.309L479.672 351.641L479.195 352.118ZM479.66 341.139C481.131 339.669 483.11 339.739 484.764 341.393C486.744 343.373 486.19 345.326 485.019 346.497C483.542 347.974 481.544 347.872 479.915 346.243C479.088 345.415 478.642 344.474 478.63 343.532C478.623 342.66 478.986 341.813 479.66 341.139ZM484.497 345.975C485.687 344.785 485.617 343.303 484.236 341.922C482.632 340.318 481.111 340.732 480.182 341.661C479.247 342.596 478.89 344.174 480.437 345.721C482.034 347.318 483.562 346.911 484.497 345.975ZM490.794 339.552L486.625 335.383L484.614 337.394L485.492 338.272C486.447 339.189 487.701 340.875 488.216 342.129L490.794 339.552ZM491.303 339.055L492.327 338.031L493.842 339.545L493.339 340.048L492.308 339.017L487.733 343.593L488.764 344.624L488.267 345.12L486.753 343.605L487.535 342.823C487.554 341.9 486.288 340.112 485.041 338.839L483.615 337.413L486.638 334.39L491.303 339.055ZM494.825 333.534L492.553 335.806L493.502 337.811L492.954 338.358L489.728 331.288L490.313 330.702L497.39 333.923L496.83 334.483L494.825 333.534ZM490.504 331.479L492.229 335.125L494.144 333.21L490.504 331.479Z" fill="black"/>
<path d="M440.348 359.348L440.883 358.814C442.067 360.519 441.519 362.136 440.501 363.154C439.025 364.63 437.026 364.528 435.397 362.899C434.57 362.072 434.124 361.13 434.112 360.188C434.105 359.316 434.468 358.47 435.143 357.795C436.352 356.586 437.898 356.427 439.33 357.324L438.796 357.859C437.548 357.159 436.409 357.573 435.664 358.317C434.729 359.253 434.373 360.831 435.919 362.377C437.516 363.975 439.044 363.567 439.979 362.632C440.947 361.665 441.087 360.494 440.348 359.348ZM440.175 352.979C441.27 351.884 442.645 352.075 443.383 352.813C444.121 353.552 444.293 354.882 443.192 355.983L441.626 357.548L443.765 359.687L443.237 360.215L438.088 355.066L440.175 352.979ZM442.766 355.365C443.268 354.863 443.517 353.978 442.867 353.329C442.206 352.667 441.295 352.903 440.799 353.399L439.138 355.06L441.105 357.026L442.766 355.365ZM443.307 350.852L444.943 352.488L447.419 350.012L447.921 350.515L445.433 352.978L447.457 355.002L450.397 352.062L450.893 352.558L447.438 356.014L442.289 350.865L445.745 347.409L446.248 347.912L443.307 350.852ZM454.597 347.886L450.429 343.718L448.418 345.729L449.296 346.607C450.251 347.524 451.505 349.21 452.02 350.464L454.597 347.886ZM455.107 347.39L456.131 346.365L457.646 347.88L457.143 348.383L456.112 347.352L451.536 351.928L452.567 352.959L452.071 353.455L450.556 351.94L451.339 351.158C451.358 350.235 450.092 348.446 448.844 347.174L447.419 345.748L450.442 342.725L455.107 347.39ZM460.383 343.068L457.869 340.554L454.942 343.482L457.456 345.995L456.934 346.517L451.785 341.369L452.307 340.847L454.446 342.985L457.373 340.058L455.235 337.92L455.757 337.398L460.905 342.546L460.383 343.068ZM457.471 336.689L459.107 338.324L461.582 335.849L462.085 336.352L459.597 338.814L461.62 340.838L464.56 337.898L465.057 338.394L461.601 341.85L456.453 336.702L459.908 333.246L460.411 333.749L457.471 336.689ZM461.349 332.811L462.985 334.446L465.46 331.971L465.963 332.474L463.475 334.936L465.498 336.96L468.439 334.02L468.935 334.516L465.479 337.972L460.331 332.824L463.786 329.368L464.289 329.871L461.349 332.811Z" fill="black"/>
<path d="M183.941 295.351C184.124 295.558 184.44 295.578 184.647 295.395L188.022 292.419C188.229 292.236 188.249 291.92 188.066 291.713C187.884 291.506 187.568 291.486 187.361 291.669L184.361 294.314L181.715 291.314C181.532 291.107 181.216 291.087 181.009 291.27C180.802 291.453 180.782 291.769 180.965 291.976L183.941 295.351ZM207.879 256L207.733 255.521C199.937 257.893 194.31 261.687 190.457 267.972C186.619 274.232 184.576 282.912 183.817 294.989L184.316 295.02L184.815 295.052C185.57 283.032 187.599 274.547 191.31 268.494C195.006 262.465 200.403 258.797 208.025 256.478L207.879 256Z" fill="#9A9C9E"/>
</svg>
