<svg width="308" height="385" viewBox="0 0 308 385" fill="none" xmlns="http://www.w3.org/2000/svg">
<rect width="308" height="385" fill="white"/>
<path d="M129.385 369V365.749H130.862C131.215 365.749 131.527 365.817 131.796 365.953C132.065 366.086 132.276 366.274 132.428 366.515C132.579 366.757 132.655 367.043 132.655 367.374C132.655 367.703 132.579 367.989 132.428 368.234C132.276 368.475 132.065 368.664 131.796 368.8C131.527 368.933 131.215 369 130.862 369H129.385ZM130.138 368.382H130.825C131.042 368.382 131.229 368.342 131.387 368.262C131.548 368.178 131.672 368.06 131.759 367.909C131.849 367.757 131.893 367.579 131.893 367.374C131.893 367.167 131.849 366.989 131.759 366.84C131.672 366.689 131.548 366.573 131.387 366.492C131.229 366.408 131.042 366.367 130.825 366.367H130.138V368.382ZM134.704 369V368.512L134.658 368.406V367.532C134.658 367.378 134.61 367.257 134.514 367.17C134.421 367.083 134.277 367.04 134.082 367.04C133.949 367.04 133.817 367.062 133.687 367.105C133.56 367.145 133.452 367.201 133.362 367.272L133.102 366.766C133.238 366.67 133.402 366.596 133.594 366.543C133.786 366.49 133.981 366.464 134.179 366.464C134.56 366.464 134.856 366.554 135.066 366.734C135.277 366.913 135.382 367.193 135.382 367.574V369H134.704ZM133.942 369.037C133.747 369.037 133.58 369.005 133.441 368.94C133.302 368.872 133.195 368.78 133.12 368.666C133.046 368.551 133.009 368.423 133.009 368.28C133.009 368.131 133.045 368.001 133.116 367.89C133.19 367.779 133.306 367.692 133.464 367.63C133.622 367.565 133.828 367.532 134.082 367.532H134.746V367.955H134.161C133.99 367.955 133.873 367.983 133.808 368.039C133.746 368.094 133.715 368.164 133.715 368.248C133.715 368.34 133.751 368.415 133.822 368.471C133.896 368.523 133.997 368.549 134.124 368.549C134.244 368.549 134.353 368.522 134.449 368.466C134.545 368.407 134.614 368.322 134.658 368.21L134.769 368.545C134.717 368.706 134.621 368.828 134.481 368.912C134.342 368.995 134.162 369.037 133.942 369.037ZM137.06 369.037C136.766 369.037 136.537 368.963 136.372 368.814C136.208 368.663 136.126 368.438 136.126 368.141V365.949H136.851V368.131C136.851 368.237 136.879 368.319 136.934 368.378C136.99 368.433 137.066 368.461 137.162 368.461C137.277 368.461 137.374 368.43 137.455 368.368L137.65 368.879C137.575 368.932 137.486 368.972 137.38 369C137.278 369.025 137.171 369.037 137.06 369.037ZM135.741 367.114V366.557H137.473V367.114H135.741ZM139.589 369V368.512L139.543 368.406V367.532C139.543 367.378 139.495 367.257 139.399 367.17C139.306 367.083 139.162 367.04 138.967 367.04C138.834 367.04 138.702 367.062 138.572 367.105C138.445 367.145 138.337 367.201 138.247 367.272L137.987 366.766C138.123 366.67 138.287 366.596 138.479 366.543C138.671 366.49 138.866 366.464 139.064 366.464C139.445 366.464 139.741 366.554 139.951 366.734C140.162 366.913 140.267 367.193 140.267 367.574V369H139.589ZM138.827 369.037C138.632 369.037 138.465 369.005 138.326 368.94C138.186 368.872 138.08 368.78 138.005 368.666C137.931 368.551 137.894 368.423 137.894 368.28C137.894 368.131 137.929 368.001 138.001 367.89C138.075 367.779 138.191 367.692 138.349 367.63C138.507 367.565 138.713 367.532 138.967 367.532H139.631V367.955H139.046C138.875 367.955 138.758 367.983 138.693 368.039C138.631 368.094 138.6 368.164 138.6 368.248C138.6 368.34 138.635 368.415 138.707 368.471C138.781 368.523 138.882 368.549 139.008 368.549C139.129 368.549 139.238 368.522 139.334 368.466C139.43 368.407 139.499 368.322 139.543 368.21L139.654 368.545C139.601 368.706 139.505 368.828 139.366 368.912C139.227 368.995 139.047 369.037 138.827 369.037ZM143.845 369.056C143.594 369.056 143.361 369.015 143.144 368.935C142.93 368.851 142.744 368.734 142.586 368.582C142.429 368.43 142.305 368.252 142.215 368.048C142.128 367.844 142.085 367.619 142.085 367.374C142.085 367.13 142.128 366.905 142.215 366.701C142.305 366.497 142.429 366.319 142.586 366.167C142.747 366.015 142.935 365.899 143.148 365.819C143.362 365.735 143.596 365.693 143.85 365.693C144.132 365.693 144.385 365.743 144.611 365.842C144.841 365.938 145.033 366.08 145.187 366.269L144.704 366.715C144.593 366.588 144.469 366.494 144.333 366.432C144.197 366.367 144.048 366.334 143.887 366.334C143.735 366.334 143.596 366.359 143.469 366.408C143.342 366.458 143.232 366.529 143.139 366.622C143.046 366.715 142.974 366.825 142.921 366.952C142.871 367.079 142.847 367.22 142.847 367.374C142.847 367.529 142.871 367.67 142.921 367.797C142.974 367.924 143.046 368.034 143.139 368.127C143.232 368.22 143.342 368.291 143.469 368.34C143.596 368.39 143.735 368.415 143.887 368.415C144.048 368.415 144.197 368.384 144.333 368.322C144.469 368.257 144.593 368.159 144.704 368.029L145.187 368.475C145.033 368.664 144.841 368.808 144.611 368.907C144.385 369.006 144.13 369.056 143.845 369.056ZM146.64 369.037C146.432 369.037 146.246 368.997 146.082 368.916C145.921 368.836 145.796 368.714 145.706 368.549C145.616 368.382 145.571 368.17 145.571 367.913V366.501H146.296V367.806C146.296 368.014 146.339 368.167 146.426 368.266C146.516 368.362 146.641 368.41 146.802 368.41C146.914 368.41 147.013 368.387 147.1 368.34C147.186 368.291 147.254 368.217 147.304 368.118C147.353 368.015 147.378 367.888 147.378 367.737V366.501H148.103V369H147.415V368.313L147.541 368.512C147.457 368.686 147.333 368.817 147.169 368.907C147.008 368.994 146.832 369.037 146.64 369.037ZM148.774 369V365.554H149.498V369H148.774ZM151.379 369.037C151.084 369.037 150.855 368.963 150.691 368.814C150.527 368.663 150.445 368.438 150.445 368.141V365.949H151.17V368.131C151.17 368.237 151.198 368.319 151.253 368.378C151.309 368.433 151.385 368.461 151.481 368.461C151.595 368.461 151.693 368.43 151.773 368.368L151.968 368.879C151.894 368.932 151.804 368.972 151.699 369C151.597 369.025 151.49 369.037 151.379 369.037ZM150.06 367.114V366.557H151.792V367.114H150.06ZM153.429 369.037C153.222 369.037 153.036 368.997 152.872 368.916C152.711 368.836 152.586 368.714 152.496 368.549C152.406 368.382 152.361 368.17 152.361 367.913V366.501H153.086V367.806C153.086 368.014 153.129 368.167 153.216 368.266C153.306 368.362 153.431 368.41 153.592 368.41C153.704 368.41 153.803 368.387 153.889 368.34C153.976 368.291 154.044 368.217 154.094 368.118C154.143 368.015 154.168 367.888 154.168 367.737V366.501H154.892V369H154.205V368.313L154.331 368.512C154.247 368.686 154.123 368.817 153.959 368.907C153.798 368.994 153.621 369.037 153.429 369.037ZM155.564 369V366.501H156.256V367.207L156.158 367.003C156.233 366.826 156.352 366.693 156.516 366.603C156.68 366.511 156.88 366.464 157.115 366.464V367.133C157.084 367.13 157.056 367.128 157.031 367.128C157.007 367.125 156.98 367.124 156.952 367.124C156.754 367.124 156.593 367.181 156.469 367.295C156.349 367.407 156.288 367.582 156.288 367.82V369H155.564ZM158.768 369.037C158.483 369.037 158.232 368.981 158.015 368.87C157.802 368.758 157.636 368.607 157.518 368.415C157.401 368.22 157.342 367.998 157.342 367.751C157.342 367.5 157.399 367.278 157.514 367.086C157.631 366.891 157.791 366.74 157.992 366.631C158.193 366.52 158.421 366.464 158.675 366.464C158.919 366.464 159.139 366.517 159.334 366.622C159.532 366.724 159.689 366.873 159.803 367.068C159.918 367.26 159.975 367.491 159.975 367.76C159.975 367.788 159.974 367.82 159.971 367.857C159.968 367.892 159.964 367.924 159.961 367.955H157.932V367.532H159.58L159.302 367.658C159.302 367.528 159.275 367.415 159.223 367.319C159.17 367.223 159.097 367.148 159.005 367.096C158.912 367.04 158.803 367.012 158.679 367.012C158.556 367.012 158.446 367.04 158.35 367.096C158.257 367.148 158.184 367.224 158.131 367.323C158.079 367.419 158.052 367.534 158.052 367.667V367.779C158.052 367.915 158.082 368.036 158.141 368.141C158.203 368.243 158.288 368.322 158.396 368.378C158.508 368.43 158.638 368.457 158.786 368.457C158.919 368.457 159.036 368.436 159.135 368.396C159.237 368.356 159.33 368.296 159.413 368.215L159.799 368.633C159.684 368.763 159.54 368.864 159.367 368.935C159.193 369.003 158.994 369.037 158.768 369.037ZM160.732 369.037C160.608 369.037 160.501 368.995 160.411 368.912C160.324 368.825 160.281 368.715 160.281 368.582C160.281 368.449 160.324 368.342 160.411 368.262C160.501 368.178 160.608 368.136 160.732 368.136C160.859 368.136 160.965 368.178 161.052 368.262C161.139 368.342 161.182 368.449 161.182 368.582C161.182 368.715 161.139 368.825 161.052 368.912C160.965 368.995 160.859 369.037 160.732 369.037ZM162.775 365.749H163.643L164.317 366.734L164.99 365.749H165.873L164.791 367.305L165.961 369H165.074L164.317 367.922L163.569 369H162.701L163.862 367.337L162.775 365.749ZM167.435 369.037C167.15 369.037 166.899 368.981 166.683 368.87C166.469 368.758 166.303 368.607 166.186 368.415C166.068 368.22 166.009 367.998 166.009 367.751C166.009 367.5 166.067 367.278 166.181 367.086C166.299 366.891 166.458 366.74 166.659 366.631C166.861 366.52 167.088 366.464 167.342 366.464C167.587 366.464 167.807 366.517 168.002 366.622C168.2 366.724 168.356 366.873 168.471 367.068C168.585 367.26 168.643 367.491 168.643 367.76C168.643 367.788 168.641 367.82 168.638 367.857C168.635 367.892 168.632 367.924 168.629 367.955H166.599V367.532H168.248L167.969 367.658C167.969 367.528 167.943 367.415 167.89 367.319C167.838 367.223 167.765 367.148 167.672 367.096C167.579 367.04 167.471 367.012 167.347 367.012C167.223 367.012 167.113 367.04 167.017 367.096C166.924 367.148 166.851 367.224 166.799 367.323C166.746 367.419 166.72 367.534 166.72 367.667V367.779C166.72 367.915 166.749 368.036 166.808 368.141C166.87 368.243 166.955 368.322 167.064 368.378C167.175 368.43 167.305 368.457 167.454 368.457C167.587 368.457 167.703 368.436 167.802 368.396C167.904 368.356 167.997 368.296 168.081 368.215L168.466 368.633C168.352 368.763 168.208 368.864 168.034 368.935C167.861 369.003 167.661 369.037 167.435 369.037ZM169.198 369V366.501H169.918V367.477H171.005V366.501H171.729V369H171.005V368.066H169.918V369H169.198ZM174.141 368.675V367.096H173.324L173.31 367.416C173.304 367.549 173.296 367.676 173.287 367.797C173.277 367.918 173.259 368.028 173.231 368.127C173.206 368.223 173.169 368.305 173.12 368.373C173.07 368.438 173.003 368.483 172.92 368.508L172.205 368.406C172.294 368.406 172.367 368.379 172.423 368.327C172.479 368.271 172.522 368.195 172.553 368.099C172.584 368 172.607 367.888 172.623 367.765C172.638 367.638 172.649 367.504 172.655 367.365L172.688 366.501H174.866V368.675H174.141ZM172.121 369.539V368.406H175.223V369.539H174.55V369H172.794V369.539H172.121ZM176.919 369.056C176.715 369.056 176.529 369.026 176.362 368.967C176.195 368.906 176.049 368.811 175.926 368.684C175.805 368.554 175.71 368.388 175.642 368.187C175.577 367.986 175.545 367.746 175.545 367.467C175.545 367.269 175.562 367.088 175.596 366.924C175.63 366.76 175.681 366.611 175.749 366.478C175.817 366.342 175.904 366.223 176.009 366.12C176.118 366.015 176.243 365.928 176.385 365.86C176.531 365.789 176.695 365.735 176.878 365.698L178.067 365.461L178.164 366.083L177.115 366.292C177.053 366.305 176.981 366.322 176.901 366.343C176.823 366.362 176.745 366.391 176.664 366.432C176.587 366.472 176.514 366.529 176.446 366.603C176.381 366.675 176.328 366.769 176.288 366.887C176.248 367.001 176.227 367.144 176.227 367.314C176.227 367.367 176.229 367.407 176.232 367.435C176.238 367.463 176.243 367.492 176.246 367.523C176.252 367.554 176.255 367.602 176.255 367.667L176.023 367.439C176.091 367.294 176.178 367.17 176.283 367.068C176.392 366.966 176.515 366.888 176.655 366.836C176.797 366.78 176.955 366.752 177.128 366.752C177.364 366.752 177.57 366.8 177.746 366.896C177.926 366.989 178.065 367.121 178.164 367.291C178.263 367.461 178.313 367.655 178.313 367.871C178.313 368.107 178.254 368.314 178.136 368.494C178.019 368.67 177.855 368.808 177.644 368.907C177.437 369.006 177.195 369.056 176.919 369.056ZM176.957 368.494C177.077 368.494 177.184 368.467 177.277 368.415C177.37 368.359 177.441 368.286 177.491 368.197C177.543 368.104 177.57 368 177.57 367.885C177.57 367.774 177.543 367.675 177.491 367.588C177.441 367.501 177.37 367.433 177.277 367.384C177.184 367.334 177.076 367.309 176.952 367.309C176.831 367.309 176.723 367.334 176.627 367.384C176.531 367.43 176.457 367.495 176.404 367.579C176.351 367.662 176.325 367.76 176.325 367.871C176.325 367.986 176.351 368.091 176.404 368.187C176.46 368.28 176.534 368.354 176.627 368.41C176.723 368.466 176.833 368.494 176.957 368.494ZM179.075 369.938C178.945 369.938 178.817 369.918 178.69 369.878C178.563 369.838 178.459 369.782 178.379 369.711L178.643 369.195C178.699 369.245 178.763 369.283 178.834 369.311C178.908 369.339 178.981 369.353 179.052 369.353C179.154 369.353 179.235 369.328 179.294 369.279C179.356 369.232 179.411 369.153 179.461 369.042L179.591 368.735L179.647 368.656L180.543 366.501H181.24L180.111 369.153C180.031 369.355 179.938 369.512 179.832 369.627C179.73 369.742 179.616 369.822 179.489 369.869C179.365 369.915 179.227 369.938 179.075 369.938ZM179.503 369.098L178.388 366.501H179.136L180 368.591L179.503 369.098ZM183.359 369L182.523 367.816L183.113 367.467L184.213 369H183.359ZM181.589 369V366.501H182.314V369H181.589ZM182.1 368.053V367.472H182.973V368.053H182.1ZM183.182 367.834L182.504 367.76L183.382 366.501H184.153L183.182 367.834ZM185.884 369V366.501H188.369V369H187.645V366.933L187.807 367.096H186.442L186.604 366.933V369H185.884ZM190.234 369.037C189.968 369.037 189.731 368.981 189.524 368.87C189.319 368.758 189.157 368.607 189.036 368.415C188.918 368.22 188.86 367.998 188.86 367.751C188.86 367.5 188.918 367.278 189.036 367.086C189.157 366.891 189.319 366.74 189.524 366.631C189.731 366.52 189.968 366.464 190.234 366.464C190.497 366.464 190.733 366.52 190.94 366.631C191.148 366.74 191.31 366.89 191.428 367.082C191.546 367.274 191.604 367.497 191.604 367.751C191.604 367.998 191.546 368.22 191.428 368.415C191.31 368.607 191.148 368.758 190.94 368.87C190.733 368.981 190.497 369.037 190.234 369.037ZM190.234 368.443C190.355 368.443 190.463 368.415 190.559 368.359C190.655 368.303 190.731 368.224 190.787 368.122C190.843 368.017 190.871 367.893 190.871 367.751C190.871 367.605 190.843 367.481 190.787 367.379C190.731 367.277 190.655 367.198 190.559 367.142C190.463 367.086 190.355 367.059 190.234 367.059C190.114 367.059 190.005 367.086 189.909 367.142C189.813 367.198 189.736 367.277 189.677 367.379C189.621 367.481 189.593 367.605 189.593 367.751C189.593 367.893 189.621 368.017 189.677 368.122C189.736 368.224 189.813 368.303 189.909 368.359C190.005 368.415 190.114 368.443 190.234 368.443ZM194.914 369V368.512L194.867 368.406V367.532C194.867 367.378 194.819 367.257 194.723 367.17C194.63 367.083 194.486 367.04 194.291 367.04C194.158 367.04 194.027 367.062 193.896 367.105C193.77 367.145 193.661 367.201 193.571 367.272L193.311 366.766C193.447 366.67 193.612 366.596 193.804 366.543C193.996 366.49 194.191 366.464 194.389 366.464C194.77 366.464 195.065 366.554 195.276 366.734C195.486 366.913 195.592 367.193 195.592 367.574V369H194.914ZM194.152 369.037C193.957 369.037 193.79 369.005 193.65 368.94C193.511 368.872 193.404 368.78 193.33 368.666C193.256 368.551 193.218 368.423 193.218 368.28C193.218 368.131 193.254 368.001 193.325 367.89C193.4 367.779 193.516 367.692 193.674 367.63C193.831 367.565 194.037 367.532 194.291 367.532H194.955V367.955H194.37C194.2 367.955 194.082 367.983 194.017 368.039C193.955 368.094 193.924 368.164 193.924 368.248C193.924 368.34 193.96 368.415 194.031 368.471C194.105 368.523 194.206 368.549 194.333 368.549C194.454 368.549 194.562 368.522 194.658 368.466C194.754 368.407 194.824 368.322 194.867 368.21L194.979 368.545C194.926 368.706 194.83 368.828 194.691 368.912C194.551 368.995 194.372 369.037 194.152 369.037ZM196.221 369V366.501H196.941V367.477H198.028V366.501H198.752V369H198.028V368.066H196.941V369H196.221ZM200.941 369V368.512L200.895 368.406V367.532C200.895 367.378 200.847 367.257 200.751 367.17C200.658 367.083 200.514 367.04 200.319 367.04C200.186 367.04 200.054 367.062 199.924 367.105C199.797 367.145 199.689 367.201 199.599 367.272L199.339 366.766C199.475 366.67 199.639 366.596 199.831 366.543C200.023 366.49 200.218 366.464 200.417 366.464C200.797 366.464 201.093 366.554 201.304 366.734C201.514 366.913 201.619 367.193 201.619 367.574V369H200.941ZM200.18 369.037C199.985 369.037 199.817 369.005 199.678 368.94C199.539 368.872 199.432 368.78 199.358 368.666C199.283 368.551 199.246 368.423 199.246 368.28C199.246 368.131 199.282 368.001 199.353 367.89C199.427 367.779 199.543 367.692 199.701 367.63C199.859 367.565 200.065 367.532 200.319 367.532H200.983V367.955H200.398C200.228 367.955 200.11 367.983 200.045 368.039C199.983 368.094 199.952 368.164 199.952 368.248C199.952 368.34 199.988 368.415 200.059 368.471C200.133 368.523 200.234 368.549 200.361 368.549C200.482 368.549 200.59 368.522 200.686 368.466C200.782 368.407 200.852 368.322 200.895 368.21L201.006 368.545C200.954 368.706 200.858 368.828 200.718 368.912C200.579 368.995 200.4 369.037 200.18 369.037ZM201.933 368.995L201.97 368.401C201.989 368.404 202.007 368.407 202.026 368.41C202.045 368.41 202.062 368.41 202.077 368.41C202.164 368.41 202.232 368.385 202.281 368.336C202.331 368.286 202.368 368.22 202.393 368.136C202.418 368.049 202.435 367.952 202.444 367.844C202.456 367.735 202.466 367.622 202.472 367.504L202.509 366.501H204.645V369H203.921V366.919L204.083 367.096H202.987L203.141 366.91L203.108 367.537C203.099 367.76 203.08 367.964 203.052 368.15C203.028 368.336 202.986 368.497 202.927 368.633C202.868 368.766 202.789 368.87 202.69 368.944C202.591 369.015 202.464 369.051 202.309 369.051C202.254 369.051 202.195 369.046 202.133 369.037C202.071 369.028 202.004 369.014 201.933 368.995ZM205.342 369V366.501H206.062V367.988L207.279 366.501H207.943V369H207.223V367.514L206.011 369H205.342ZM209.462 369.046C209.27 369.046 209.078 369.026 208.886 368.986C208.697 368.946 208.522 368.885 208.361 368.805L208.556 368.299C208.683 368.361 208.821 368.409 208.97 368.443C209.122 368.474 209.275 368.489 209.43 368.489C209.541 368.489 209.637 368.478 209.718 368.457C209.801 368.432 209.865 368.398 209.908 368.354C209.951 368.311 209.973 368.258 209.973 368.197C209.973 368.116 209.939 368.056 209.871 368.015C209.803 367.972 209.704 367.95 209.574 367.95H209.063V367.5H209.513C209.597 367.5 209.668 367.491 209.727 367.472C209.786 367.453 209.829 367.427 209.857 367.393C209.888 367.356 209.903 367.313 209.903 367.263C209.903 367.21 209.885 367.165 209.848 367.128C209.81 367.091 209.756 367.063 209.685 367.045C209.614 367.023 209.524 367.012 209.416 367.012C209.292 367.012 209.163 367.028 209.03 367.059C208.897 367.086 208.761 367.128 208.621 367.184L208.445 366.682C208.609 366.614 208.772 366.56 208.933 366.52C209.094 366.48 209.253 366.458 209.411 366.455C209.643 366.449 209.852 366.473 210.038 366.529C210.224 366.585 210.369 366.665 210.475 366.771C210.583 366.876 210.637 367.004 210.637 367.156C210.637 367.277 210.6 367.385 210.526 367.481C210.454 367.577 210.355 367.653 210.228 367.709C210.102 367.761 209.959 367.788 209.801 367.788L209.82 367.644C210.095 367.644 210.312 367.7 210.47 367.811C210.628 367.919 210.707 368.068 210.707 368.257C210.707 368.418 210.651 368.559 210.54 368.68C210.431 368.797 210.283 368.889 210.094 368.954C209.908 369.015 209.697 369.046 209.462 369.046ZM211.564 369.938C211.434 369.938 211.305 369.918 211.178 369.878C211.051 369.838 210.948 369.782 210.867 369.711L211.132 369.195C211.188 369.245 211.251 369.283 211.322 369.311C211.397 369.339 211.469 369.353 211.541 369.353C211.643 369.353 211.723 369.328 211.782 369.279C211.844 369.232 211.9 369.153 211.949 369.042L212.079 368.735L212.135 368.656L213.031 366.501H213.728L212.6 369.153C212.519 369.355 212.426 369.512 212.321 369.627C212.219 369.742 212.104 369.822 211.977 369.869C211.853 369.915 211.716 369.938 211.564 369.938ZM211.991 369.098L210.876 366.501H211.624L212.488 368.591L211.991 369.098ZM217.111 368.675V367.096H216.294L216.28 367.416C216.274 367.549 216.266 367.676 216.257 367.797C216.248 367.918 216.229 368.028 216.201 368.127C216.176 368.223 216.139 368.305 216.09 368.373C216.04 368.438 215.974 368.483 215.89 368.508L215.175 368.406C215.265 368.406 215.337 368.379 215.393 368.327C215.449 368.271 215.492 368.195 215.523 368.099C215.554 368 215.577 367.888 215.593 367.765C215.608 367.638 215.619 367.504 215.625 367.365L215.658 366.501H217.836V368.675H217.111ZM215.091 369.539V368.406H218.194V369.539H217.52V369H215.765V369.539H215.091ZM220.145 369V368.512L220.099 368.406V367.532C220.099 367.378 220.051 367.257 219.955 367.17C219.862 367.083 219.718 367.04 219.523 367.04C219.39 367.04 219.258 367.062 219.128 367.105C219.001 367.145 218.893 367.201 218.803 367.272L218.543 366.766C218.679 366.67 218.843 366.596 219.035 366.543C219.227 366.49 219.422 366.464 219.62 366.464C220.001 366.464 220.297 366.554 220.507 366.734C220.718 366.913 220.823 367.193 220.823 367.574V369H220.145ZM219.383 369.037C219.188 369.037 219.021 369.005 218.882 368.94C218.742 368.872 218.636 368.78 218.561 368.666C218.487 368.551 218.45 368.423 218.45 368.28C218.45 368.131 218.485 368.001 218.557 367.89C218.631 367.779 218.747 367.692 218.905 367.63C219.063 367.565 219.269 367.532 219.523 367.532H220.187V367.955H219.602C219.431 367.955 219.314 367.983 219.249 368.039C219.187 368.094 219.156 368.164 219.156 368.248C219.156 368.34 219.191 368.415 219.263 368.471C219.337 368.523 219.438 368.549 219.565 368.549C219.685 368.549 219.794 368.522 219.89 368.466C219.986 368.407 220.055 368.322 220.099 368.21L220.21 368.545C220.157 368.706 220.061 368.828 219.922 368.912C219.783 368.995 219.603 369.037 219.383 369.037ZM221.453 369V366.501H222.172V367.477H223.259V366.501H223.984V369H223.259V368.066H222.172V369H221.453ZM224.677 369V366.501H225.397V367.477H226.484V366.501H227.209V369H226.484V368.066H225.397V369H224.677ZM230.475 369V366.501H231.195V369H230.475ZM229.217 367.3C229.545 367.303 229.791 367.378 229.955 367.523C230.122 367.665 230.206 367.868 230.206 368.131C230.206 368.407 230.111 368.622 229.923 368.777C229.734 368.929 229.466 369.005 229.119 369.005L227.902 369V366.501H228.622V367.3H229.217ZM229.054 368.489C229.193 368.492 229.3 368.463 229.374 368.401C229.449 368.339 229.486 368.246 229.486 368.122C229.486 367.998 229.449 367.91 229.374 367.857C229.3 367.802 229.193 367.772 229.054 367.769L228.622 367.765V368.489H229.054ZM231.559 369L232.678 367.532L232.664 367.932L231.592 366.501H232.404L233.082 367.435L232.776 367.444L233.477 366.501H234.248L233.171 367.918V367.528L234.285 369H233.463L232.753 368.006L233.055 368.048L232.349 369H231.559ZM234.902 369.037C234.778 369.037 234.671 368.995 234.582 368.912C234.495 368.825 234.452 368.715 234.452 368.582C234.452 368.449 234.495 368.342 234.582 368.262C234.671 368.178 234.778 368.136 234.902 368.136C235.029 368.136 235.136 368.178 235.223 368.262C235.309 368.342 235.353 368.449 235.353 368.582C235.353 368.715 235.309 368.825 235.223 368.912C235.136 368.995 235.029 369.037 234.902 369.037ZM239.458 365.749H240.21V369H239.458V365.749ZM237.981 369H237.229V365.749H237.981V369ZM239.514 367.667H237.925V367.031H239.514V367.667ZM242.465 369V368.512L242.418 368.406V367.532C242.418 367.378 242.37 367.257 242.274 367.17C242.181 367.083 242.037 367.04 241.842 367.04C241.709 367.04 241.578 367.062 241.448 367.105C241.321 367.145 241.212 367.201 241.122 367.272L240.862 366.766C240.999 366.67 241.163 366.596 241.355 366.543C241.547 366.49 241.742 366.464 241.94 366.464C242.321 366.464 242.616 366.554 242.827 366.734C243.038 366.913 243.143 367.193 243.143 367.574V369H242.465ZM241.703 369.037C241.508 369.037 241.341 369.005 241.201 368.94C241.062 368.872 240.955 368.78 240.881 368.666C240.807 368.551 240.77 368.423 240.77 368.28C240.77 368.131 240.805 368.001 240.876 367.89C240.951 367.779 241.067 367.692 241.225 367.63C241.383 367.565 241.588 367.532 241.842 367.532H242.507V367.955H241.921C241.751 367.955 241.633 367.983 241.568 368.039C241.506 368.094 241.475 368.164 241.475 368.248C241.475 368.34 241.511 368.415 241.582 368.471C241.657 368.523 241.757 368.549 241.884 368.549C242.005 368.549 242.113 368.522 242.209 368.466C242.305 368.407 242.375 368.322 242.418 368.21L242.53 368.545C242.477 368.706 242.381 368.828 242.242 368.912C242.102 368.995 241.923 369.037 241.703 369.037ZM245.347 368.043C245.244 368.099 245.131 368.144 245.008 368.178C244.884 368.212 244.748 368.229 244.599 368.229C244.271 368.229 244.018 368.155 243.842 368.006C243.665 367.854 243.577 367.614 243.577 367.286V366.501H244.302V367.24C244.302 367.395 244.342 367.506 244.422 367.574C244.503 367.639 244.616 367.672 244.761 367.672C244.867 367.672 244.967 367.659 245.063 367.635C245.162 367.61 245.257 367.574 245.347 367.528V368.043ZM245.296 369V366.501H246.02V369H245.296ZM248.211 369V368.512L248.165 368.406V367.532C248.165 367.378 248.117 367.257 248.021 367.17C247.928 367.083 247.784 367.04 247.589 367.04C247.456 367.04 247.324 367.062 247.194 367.105C247.067 367.145 246.959 367.201 246.869 367.272L246.609 366.766C246.745 366.67 246.909 366.596 247.101 366.543C247.293 366.49 247.488 366.464 247.686 366.464C248.067 366.464 248.363 366.554 248.574 366.734C248.784 366.913 248.889 367.193 248.889 367.574V369H248.211ZM247.45 369.037C247.255 369.037 247.087 369.005 246.948 368.94C246.809 368.872 246.702 368.78 246.628 368.666C246.553 368.551 246.516 368.423 246.516 368.28C246.516 368.131 246.552 368.001 246.623 367.89C246.697 367.779 246.813 367.692 246.971 367.63C247.129 367.565 247.335 367.532 247.589 367.532H248.253V367.955H247.668C247.498 367.955 247.38 367.983 247.315 368.039C247.253 368.094 247.222 368.164 247.222 368.248C247.222 368.34 247.258 368.415 247.329 368.471C247.403 368.523 247.504 368.549 247.631 368.549C247.752 368.549 247.86 368.522 247.956 368.466C248.052 368.407 248.122 368.322 248.165 368.21L248.276 368.545C248.224 368.706 248.128 368.828 247.988 368.912C247.849 368.995 247.669 369.037 247.45 369.037ZM249.203 368.995L249.24 368.401C249.259 368.404 249.277 368.407 249.296 368.41C249.314 368.41 249.331 368.41 249.347 368.41C249.434 368.41 249.502 368.385 249.551 368.336C249.601 368.286 249.638 368.22 249.663 368.136C249.688 368.049 249.705 367.952 249.714 367.844C249.726 367.735 249.736 367.622 249.742 367.504L249.779 366.501H251.915V369H251.191V366.919L251.353 367.096H250.257L250.411 366.91L250.378 367.537C250.369 367.76 250.35 367.964 250.322 368.15C250.298 368.336 250.256 368.497 250.197 368.633C250.138 368.766 250.059 368.87 249.96 368.944C249.861 369.015 249.734 369.051 249.579 369.051C249.523 369.051 249.465 369.046 249.403 369.037C249.341 369.028 249.274 369.014 249.203 368.995ZM253.964 367.3C254.292 367.303 254.541 367.378 254.711 367.523C254.885 367.665 254.971 367.868 254.971 368.131C254.971 368.407 254.874 368.622 254.679 368.777C254.484 368.929 254.213 369.005 253.866 369.005L252.612 369V366.501H253.332V367.3H253.964ZM253.801 368.489C253.94 368.492 254.047 368.463 254.122 368.401C254.196 368.339 254.233 368.246 254.233 368.122C254.233 367.998 254.196 367.91 254.122 367.857C254.047 367.802 253.94 367.772 253.801 367.769L253.332 367.765V368.489H253.801ZM255.424 369V366.501H256.144V367.477H257.231V366.501H257.955V369H257.231V368.066H256.144V369H255.424ZM261.222 369V366.501H261.942V369H261.222ZM259.963 367.3C260.292 367.303 260.538 367.378 260.702 367.523C260.869 367.665 260.953 367.868 260.953 368.131C260.953 368.407 260.858 368.622 260.669 368.777C260.48 368.929 260.213 369.005 259.866 369.005L258.649 369V366.501H259.369V367.3H259.963ZM259.801 368.489C259.94 368.492 260.047 368.463 260.121 368.401C260.196 368.339 260.233 368.246 260.233 368.122C260.233 367.998 260.196 367.91 260.121 367.857C260.047 367.802 259.94 367.772 259.801 367.769L259.369 367.765V368.489H259.801ZM262.64 369V366.501H263.36V367.988L264.577 366.501H265.241V369H264.521V367.514L263.309 369H262.64ZM263.894 366.232C263.622 366.232 263.417 366.173 263.281 366.055C263.145 365.935 263.075 365.754 263.072 365.512H263.546C263.549 365.617 263.578 365.701 263.634 365.763C263.69 365.825 263.775 365.856 263.89 365.856C264.001 365.856 264.086 365.825 264.145 365.763C264.207 365.701 264.238 365.617 264.238 365.512H264.721C264.721 365.754 264.651 365.935 264.512 366.055C264.373 366.173 264.167 366.232 263.894 366.232ZM267.592 369.938C267.462 369.938 267.333 369.918 267.207 369.878C267.08 369.838 266.976 369.782 266.895 369.711L267.16 369.195C267.216 369.245 267.279 369.283 267.35 369.311C267.425 369.339 267.498 369.353 267.569 369.353C267.671 369.353 267.751 369.328 267.81 369.279C267.872 369.232 267.928 369.153 267.977 369.042L268.108 368.735L268.163 368.656L269.06 366.501H269.756L268.628 369.153C268.547 369.355 268.454 369.512 268.349 369.627C268.247 369.742 268.132 369.822 268.005 369.869C267.881 369.915 267.744 369.938 267.592 369.938ZM268.019 369.098L266.905 366.501H267.652L268.516 368.591L268.019 369.098ZM271.578 369.037C271.368 369.037 271.183 368.991 271.025 368.898C270.868 368.805 270.744 368.664 270.654 368.475C270.567 368.283 270.524 368.042 270.524 367.751C270.524 367.456 270.566 367.215 270.649 367.026C270.733 366.837 270.854 366.696 271.012 366.603C271.169 366.511 271.358 366.464 271.578 366.464C271.813 366.464 272.024 366.518 272.21 366.627C272.399 366.732 272.547 366.881 272.656 367.073C272.767 367.265 272.823 367.491 272.823 367.751C272.823 368.014 272.767 368.241 272.656 368.433C272.547 368.625 272.399 368.774 272.21 368.879C272.024 368.985 271.813 369.037 271.578 369.037ZM270.101 369.901V366.501H270.793V367.012L270.779 367.755L270.826 368.494V369.901H270.101ZM271.453 368.443C271.573 368.443 271.68 368.415 271.773 368.359C271.869 368.303 271.945 368.224 272.001 368.122C272.06 368.017 272.089 367.893 272.089 367.751C272.089 367.605 272.06 367.481 272.001 367.379C271.945 367.277 271.869 367.198 271.773 367.142C271.68 367.086 271.573 367.059 271.453 367.059C271.332 367.059 271.224 367.086 271.128 367.142C271.032 367.198 270.956 367.277 270.9 367.379C270.844 367.481 270.816 367.605 270.816 367.751C270.816 367.893 270.844 368.017 270.9 368.122C270.956 368.224 271.032 368.303 271.128 368.359C271.224 368.415 271.332 368.443 271.453 368.443ZM274.501 369.037C274.235 369.037 273.998 368.981 273.79 368.87C273.586 368.758 273.424 368.607 273.303 368.415C273.185 368.22 273.126 367.998 273.126 367.751C273.126 367.5 273.185 367.278 273.303 367.086C273.424 366.891 273.586 366.74 273.79 366.631C273.998 366.52 274.235 366.464 274.501 366.464C274.764 366.464 275 366.52 275.207 366.631C275.414 366.74 275.577 366.89 275.695 367.082C275.812 367.274 275.871 367.497 275.871 367.751C275.871 367.998 275.812 368.22 275.695 368.415C275.577 368.607 275.414 368.758 275.207 368.87C275 368.981 274.764 369.037 274.501 369.037ZM274.501 368.443C274.622 368.443 274.73 368.415 274.826 368.359C274.922 368.303 274.998 368.224 275.054 368.122C275.109 368.017 275.137 367.893 275.137 367.751C275.137 367.605 275.109 367.481 275.054 367.379C274.998 367.277 274.922 367.198 274.826 367.142C274.73 367.086 274.622 367.059 274.501 367.059C274.38 367.059 274.272 367.086 274.176 367.142C274.08 367.198 274.003 367.277 273.944 367.379C273.888 367.481 273.86 367.605 273.86 367.751C273.86 367.893 273.888 368.017 273.944 368.122C274.003 368.224 274.08 368.303 274.176 368.359C274.272 368.415 274.38 368.443 274.501 368.443ZM276.369 369V366.501H277.647C277.959 366.501 278.204 366.559 278.381 366.673C278.557 366.785 278.645 366.943 278.645 367.147C278.645 367.351 278.562 367.512 278.394 367.63C278.23 367.744 278.012 367.802 277.74 367.802L277.814 367.635C278.117 367.635 278.343 367.69 278.492 367.802C278.644 367.913 278.72 368.076 278.72 368.289C278.72 368.509 278.636 368.683 278.469 368.81C278.302 368.937 278.046 369 277.702 369H276.369ZM277.034 368.508H277.642C277.775 368.508 277.874 368.486 277.939 368.443C278.007 368.396 278.041 368.327 278.041 368.234C278.041 368.138 278.011 368.068 277.949 368.025C277.887 367.978 277.789 367.955 277.656 367.955H277.034V368.508ZM277.034 367.528H277.582C277.709 367.528 277.803 367.504 277.865 367.458C277.93 367.412 277.963 367.345 277.963 367.258C277.963 367.169 277.93 367.102 277.865 367.059C277.803 367.015 277.709 366.994 277.582 366.994H277.034V367.528ZM280.48 369.037C280.195 369.037 279.944 368.981 279.728 368.87C279.514 368.758 279.348 368.607 279.231 368.415C279.113 368.22 279.054 367.998 279.054 367.751C279.054 367.5 279.112 367.278 279.226 367.086C279.344 366.891 279.503 366.74 279.705 366.631C279.906 366.52 280.133 366.464 280.387 366.464C280.632 366.464 280.852 366.517 281.047 366.622C281.245 366.724 281.401 366.873 281.516 367.068C281.63 367.26 281.688 367.491 281.688 367.76C281.688 367.788 281.686 367.82 281.683 367.857C281.68 367.892 281.677 367.924 281.674 367.955H279.644V367.532H281.293L281.014 367.658C281.014 367.528 280.988 367.415 280.935 367.319C280.883 367.223 280.81 367.148 280.717 367.096C280.624 367.04 280.516 367.012 280.392 367.012C280.268 367.012 280.158 367.04 280.062 367.096C279.969 367.148 279.896 367.224 279.844 367.323C279.791 367.419 279.765 367.534 279.765 367.667V367.779C279.765 367.915 279.794 368.036 279.853 368.141C279.915 368.243 280 368.322 280.109 368.378C280.22 368.43 280.35 368.457 280.499 368.457C280.632 368.457 280.748 368.436 280.847 368.396C280.949 368.356 281.042 368.296 281.126 368.215L281.511 368.633C281.397 368.763 281.253 368.864 281.079 368.935C280.906 369.003 280.706 369.037 280.48 369.037ZM282.243 369V366.501H282.963V367.477H284.05V366.501H284.774V369H284.05V368.066H282.963V369H282.243ZM286.819 367.3C287.148 367.303 287.397 367.378 287.567 367.523C287.741 367.665 287.827 367.868 287.827 368.131C287.827 368.407 287.73 368.622 287.535 368.777C287.34 368.929 287.069 369.005 286.722 369.005L285.468 369V366.501H286.188V367.3H286.819ZM286.657 368.489C286.796 368.492 286.903 368.463 286.977 368.401C287.052 368.339 287.089 368.246 287.089 368.122C287.089 367.998 287.052 367.91 286.977 367.857C286.903 367.802 286.796 367.772 286.657 367.769L286.188 367.765V368.489H286.657Z" fill="#D8D8D8"/>
<g opacity="0.05">
<rect x="77.0605" y="306" width="10.1556" height="2" fill="#2300FA"/>
<rect x="90.1211" y="291" width="10.1556" height="17" fill="#2300FA"/>
<rect x="103.181" y="258" width="10.1556" height="50" fill="#2300FA"/>
<rect x="116.241" y="210" width="10.1556" height="98" fill="#2300FA"/>
<rect x="129.302" y="154" width="10.1556" height="154" fill="#2300FA"/>
<rect x="142.362" y="94" width="10.1556" height="214" fill="#2300FA"/>
<rect x="155.422" y="64" width="10.1556" height="244" fill="#2300FA"/>
<rect x="168.482" y="94" width="10.1556" height="214" fill="#2300FA"/>
<rect x="181.543" y="154" width="10.1556" height="154" fill="#2300FA"/>
<rect x="194.604" y="210" width="10.1556" height="98" fill="#2300FA"/>
<rect x="207.663" y="258" width="10.1556" height="50" fill="#2300FA"/>
<rect x="220.724" y="291" width="10.1556" height="17" fill="#2300FA"/>
<rect x="233.784" y="306" width="10.1556" height="2" fill="#2300FA"/>
</g>
<path d="M62.454 310.907C62.3241 310.908 62.2562 310.907 62.2562 310.907H62.454C64.5212 310.884 82.2748 310.119 91.3843 290.907C124.796 220.443 137.121 62.8518 160 62.8521C182.879 62.8523 196.229 220.443 229.64 290.907C238.75 310.119 256.504 310.884 258.571 310.907H258.769C258.769 310.907 258.701 310.908 258.571 310.907H62.454Z" fill="#DCFF00" fill-opacity="0.25"/>
<path d="M44 310.907H62.2562M277.025 310.907H258.769M62.2562 310.907C62.2562 310.907 81.7024 311.326 91.3843 290.907C124.796 220.443 137.121 62.8518 160 62.8521C182.879 62.8523 196.229 220.443 229.64 290.907C239.322 311.326 258.769 310.907 258.769 310.907M62.2562 310.907H258.769" stroke="#DCFF00" stroke-width="2"/>
<path d="M118.996 203.852L117.996 310.852" stroke="#9A9C9E" stroke-width="2" stroke-dasharray="4 4"/>
<path d="M202.992 203.852L201.992 310.852" stroke="#9A9C9E" stroke-width="2" stroke-dasharray="4 4"/>
<path d="M43.6084 69.0205V310.907H276.633" stroke="#9A9C9E" stroke-width="2"/>
<path d="M28.2498 197.049C28.4658 197.529 28.6298 198.009 28.7418 198.489C28.8538 198.961 28.9098 199.417 28.9098 199.857C28.9098 200.841 28.6738 201.609 28.2018 202.161C27.7218 202.705 27.0458 202.977 26.1738 202.977L23.4018 202.977L23.4018 202.101L26.0778 202.101C26.7258 202.101 27.2298 201.897 27.5898 201.489C27.9498 201.073 28.1298 200.501 28.1298 199.773C28.1298 199.341 28.0738 198.893 27.9618 198.429C27.8418 197.965 27.6738 197.505 27.4578 197.049L28.2498 197.049ZM31.8018 197.205L23.4018 197.205L23.4018 196.341L31.8018 196.341L31.8018 197.205ZM31.8018 189.783L30.4098 189.783L30.1818 189.819L27.8538 189.819C27.3178 189.819 26.9058 189.971 26.6178 190.275C26.3298 190.571 26.1858 191.015 26.1858 191.607C26.1858 192.015 26.2538 192.403 26.3898 192.771C26.5258 193.139 26.7058 193.451 26.9298 193.707L26.2938 194.091C26.0218 193.771 25.8138 193.387 25.6698 192.939C25.5178 192.491 25.4418 192.019 25.4418 191.523C25.4418 190.707 25.6458 190.079 26.0538 189.639C26.4538 189.191 27.0658 188.967 27.8898 188.967L31.8018 188.967L31.8018 189.783ZM31.8618 191.955C31.8618 192.427 31.7858 192.839 31.6338 193.191C31.4738 193.535 31.2578 193.799 30.9858 193.983C30.7058 194.167 30.3858 194.259 30.0258 194.259C29.6978 194.259 29.4018 194.183 29.1378 194.031C28.8658 193.871 28.6498 193.615 28.4898 193.263C28.3218 192.903 28.2378 192.423 28.2378 191.823L28.2378 189.651L28.8738 189.651L28.8738 191.799C28.8738 192.407 28.9818 192.831 29.1978 193.071C29.4138 193.303 29.6818 193.419 30.0018 193.419C30.3618 193.419 30.6498 193.279 30.8658 192.999C31.0818 192.719 31.1898 192.327 31.1898 191.823C31.1898 191.343 31.0818 190.931 30.8658 190.587C30.6418 190.235 30.3218 189.979 29.9058 189.819L30.4938 189.627C30.9098 189.787 31.2418 190.067 31.4898 190.467C31.7378 190.859 31.8618 191.355 31.8618 191.955ZM31.8618 184.059C31.8618 184.683 31.7258 185.243 31.4538 185.739C31.1738 186.227 30.7938 186.611 30.3138 186.891C29.8258 187.171 29.2698 187.311 28.6458 187.311C28.0138 187.311 27.4578 187.171 26.9778 186.891C26.4978 186.611 26.1218 186.227 25.8498 185.739C25.5778 185.243 25.4418 184.683 25.4418 184.059C25.4418 183.523 25.5458 183.039 25.7538 182.607C25.9618 182.175 26.2738 181.835 26.6898 181.587L27.1218 182.223C26.8018 182.439 26.5658 182.707 26.4138 183.027C26.2618 183.347 26.1858 183.695 26.1858 184.071C26.1858 184.519 26.2898 184.923 26.4978 185.283C26.6978 185.643 26.9818 185.927 27.3498 186.135C27.7178 186.343 28.1498 186.447 28.6458 186.447C29.1418 186.447 29.5738 186.343 29.9418 186.135C30.3098 185.927 30.5978 185.643 30.8058 185.283C31.0058 184.923 31.1058 184.519 31.1058 184.071C31.1058 183.695 31.0298 183.347 30.8778 183.027C30.7258 182.707 30.4938 182.439 30.1818 182.223L30.6138 181.587C31.0218 181.835 31.3338 182.175 31.5498 182.607C31.7578 183.039 31.8618 183.523 31.8618 184.059ZM31.8018 178.855L26.0178 178.855L26.2458 178.639L26.2458 181.243L25.5018 181.243L25.5018 175.615L26.2458 175.615L26.2458 178.219L26.0178 178.003L31.8018 178.003L31.8018 178.855ZM31.8618 172.084C31.8618 172.692 31.7258 173.24 31.4538 173.728C31.1738 174.208 30.7938 174.588 30.3138 174.868C29.8258 175.148 29.2698 175.288 28.6458 175.288C28.0138 175.288 27.4578 175.148 26.9778 174.868C26.4978 174.588 26.1218 174.208 25.8498 173.728C25.5778 173.248 25.4418 172.7 25.4418 172.084C25.4418 171.46 25.5778 170.908 25.8498 170.428C26.1218 169.94 26.4978 169.56 26.9778 169.288C27.4578 169.008 28.0138 168.868 28.6458 168.868C29.2698 168.868 29.8258 169.008 30.3138 169.288C30.7938 169.56 31.1738 169.94 31.4538 170.428C31.7258 170.916 31.8618 171.468 31.8618 172.084ZM31.1058 172.084C31.1058 171.628 31.0058 171.224 30.8058 170.872C30.5978 170.52 30.3098 170.244 29.9418 170.044C29.5658 169.836 29.1338 169.732 28.6458 169.732C28.1498 169.732 27.7178 169.836 27.3498 170.044C26.9818 170.244 26.6978 170.52 26.4978 170.872C26.2898 171.224 26.1858 171.624 26.1858 172.072C26.1858 172.52 26.2898 172.92 26.4978 173.272C26.6978 173.624 26.9818 173.904 27.3498 174.112C27.7178 174.32 28.1498 174.424 28.6458 174.424C29.1338 174.424 29.5658 174.32 29.9418 174.112C30.3098 173.904 30.5978 173.624 30.8058 173.272C31.0058 172.92 31.1058 172.524 31.1058 172.084ZM31.8018 166.081L26.0178 166.081L26.2458 165.865L26.2458 168.469L25.5018 168.469L25.5018 162.841L26.2458 162.841L26.2458 165.445L26.0178 165.229L31.8018 165.229L31.8018 166.081ZM31.8018 157.697L30.4098 157.697L30.1818 157.733L27.8538 157.733C27.3178 157.733 26.9058 157.885 26.6178 158.189C26.3298 158.485 26.1858 158.929 26.1858 159.521C26.1858 159.929 26.2538 160.317 26.3898 160.685C26.5258 161.053 26.7058 161.365 26.9298 161.621L26.2938 162.005C26.0218 161.685 25.8138 161.301 25.6698 160.853C25.5178 160.405 25.4418 159.933 25.4418 159.437C25.4418 158.621 25.6458 157.993 26.0538 157.553C26.4538 157.105 27.0658 156.881 27.8898 156.881L31.8018 156.881L31.8018 157.697ZM31.8618 159.869C31.8618 160.341 31.7858 160.753 31.6338 161.105C31.4738 161.449 31.2578 161.713 30.9858 161.897C30.7058 162.081 30.3858 162.173 30.0258 162.173C29.6978 162.173 29.4018 162.097 29.1378 161.945C28.8658 161.785 28.6498 161.529 28.4898 161.177C28.3218 160.817 28.2378 160.337 28.2378 159.737L28.2378 157.565L28.8738 157.565L28.8738 159.713C28.8738 160.321 28.9818 160.745 29.1978 160.985C29.4138 161.217 29.6818 161.333 30.0018 161.333C30.3618 161.333 30.6498 161.193 30.8658 160.913C31.0818 160.633 31.1898 160.241 31.1898 159.737C31.1898 159.257 31.0818 158.845 30.8658 158.501C30.6418 158.149 30.3218 157.893 29.9058 157.733L30.4938 157.541C30.9098 157.701 31.2418 157.981 31.4898 158.381C31.7378 158.773 31.8618 159.269 31.8618 159.869Z" fill="black"/>
<path d="M276.997 312.852V307.852L282.997 310.461L276.997 312.852Z" fill="#9A9C9E" stroke="#9A9C9E" stroke-width="2"/>
<path d="M46.0049 69.8521L41.0049 69.8521L43.6136 63.8521L46.0049 69.8521Z" fill="#9A9C9E" stroke="#9A9C9E" stroke-width="2"/>
<path d="M118.835 321.216C118.835 322.647 118.367 323.601 117.692 324.204L118.349 324.942L117.791 325.428L117.071 324.618C116.549 324.888 115.973 325.005 115.406 325.005C113.318 325.005 111.977 323.52 111.977 321.216C111.977 320.037 112.319 319.065 112.985 318.381C113.597 317.76 114.452 317.427 115.406 317.427C117.485 317.427 118.835 318.876 118.835 321.216ZM115.406 324.267C115.838 324.267 116.225 324.186 116.567 324.051L115.406 322.737L115.955 322.251L117.197 323.646C117.773 323.133 118.088 322.305 118.088 321.216C118.088 318.948 116.72 318.165 115.406 318.165C114.083 318.165 112.715 319.029 112.715 321.216C112.715 323.466 114.083 324.267 115.406 324.267ZM123.752 324.852H119.315V324.114L121.358 324.123V318.417L119.432 319.668L119.441 318.822L121.376 317.571H122.123V324.114H123.752V324.852Z" fill="black"/>
<path d="M203.774 321.216C203.774 322.647 203.306 323.601 202.631 324.204L203.288 324.942L202.73 325.428L202.01 324.618C201.488 324.888 200.912 325.005 200.345 325.005C198.257 325.005 196.916 323.52 196.916 321.216C196.916 320.037 197.258 319.065 197.924 318.381C198.536 317.76 199.391 317.427 200.345 317.427C202.424 317.427 203.774 318.876 203.774 321.216ZM200.345 324.267C200.777 324.267 201.164 324.186 201.506 324.051L200.345 322.737L200.894 322.251L202.136 323.646C202.712 323.133 203.027 322.305 203.027 321.216C203.027 318.948 201.659 318.165 200.345 318.165C199.022 318.165 197.654 319.029 197.654 321.216C197.654 323.466 199.022 324.267 200.345 324.267ZM207.476 320.784C207.476 320.784 208.961 320.937 208.961 322.71C208.961 324.24 208.061 324.996 206.567 324.996C205.208 324.996 204.317 324.231 204.245 322.953H204.965C205.208 323.943 205.649 324.276 206.765 324.276C207.746 324.276 208.223 323.565 208.223 322.593C208.223 321.972 207.746 321.252 206.594 321.126V320.478C207.404 320.361 207.782 319.956 207.782 319.425C207.782 318.525 207.296 318.156 206.504 318.156C205.838 318.156 205.496 318.471 205.334 319.074H204.605C204.677 318.12 205.352 317.418 206.504 317.418C207.899 317.418 208.529 318.336 208.529 319.245C208.529 320.667 207.476 320.784 207.476 320.784Z" fill="black"/>
<path d="M152.656 198.292V208H150.664V198.292H152.656ZM162.686 203.128C162.686 204.652 162.254 205.84 161.534 206.668L162.41 207.664L160.958 208.936L159.962 207.82C159.374 208.06 158.738 208.18 158.054 208.18C155.522 208.18 153.434 206.452 153.434 203.128C153.434 199.888 155.522 198.088 158.054 198.088C160.706 198.088 162.686 199.96 162.686 203.128ZM158.054 206.176C158.198 206.176 158.342 206.164 158.474 206.14L157.538 205.084L158.99 203.8L160.13 205.084C160.418 204.604 160.586 203.956 160.586 203.128C160.586 201.052 159.494 200.092 158.054 200.092C156.626 200.092 155.522 201.064 155.522 203.128C155.522 205.216 156.614 206.176 158.054 206.176ZM169.532 204.292L171.824 208H169.352L167.432 204.508C165.896 204.508 165.656 204.508 165.656 204.508V208H163.508V198.292H167.996C170.108 198.292 171.404 199.816 171.404 201.424C171.404 202.66 170.672 203.86 169.532 204.292ZM165.656 202.624H168.164C168.908 202.624 169.52 202.168 169.52 201.424C169.52 200.668 168.908 200.176 168.164 200.176H165.656V202.624Z" fill="black"/>
<path d="M202.993 202.852H203.993V204.852H202.993V202.852ZM183.786 204.559C183.396 204.169 183.396 203.535 183.786 203.145L190.15 196.781C190.541 196.39 191.174 196.39 191.564 196.781C191.955 197.172 191.955 197.805 191.564 198.195L185.907 203.852L191.564 209.509C191.955 209.899 191.955 210.533 191.564 210.923C191.174 211.314 190.541 211.314 190.15 210.923L183.786 204.559ZM184.493 203.852V202.852H202.993V203.852V204.852H184.493V203.852Z" fill="#9A9C9E"/>
<path d="M118.993 204.852H117.993V202.852H118.993V204.852ZM138.2 203.145C138.591 203.535 138.591 204.169 138.2 204.559L131.836 210.923C131.446 211.314 130.813 211.314 130.422 210.923C130.032 210.533 130.032 209.899 130.422 209.509L136.079 203.852L130.422 198.195C130.032 197.805 130.032 197.172 130.422 196.781C130.813 196.39 131.446 196.39 131.836 196.781L138.2 203.145ZM118.993 203.852V202.852H137.493V203.852V204.852H118.993V203.852Z" fill="#9A9C9E"/>
</svg>
