<svg width="308" height="171" viewBox="0 0 308 171" fill="none" xmlns="http://www.w3.org/2000/svg">
<rect width="308" height="171" fill="white"/>
<path d="M129.385 155V151.749H130.862C131.215 151.749 131.527 151.817 131.796 151.953C132.065 152.086 132.276 152.274 132.428 152.515C132.579 152.757 132.655 153.043 132.655 153.374C132.655 153.703 132.579 153.989 132.428 154.234C132.276 154.475 132.065 154.664 131.796 154.8C131.527 154.933 131.215 155 130.862 155H129.385ZM130.138 154.382H130.825C131.042 154.382 131.229 154.342 131.387 154.262C131.548 154.178 131.672 154.06 131.759 153.909C131.849 153.757 131.893 153.579 131.893 153.374C131.893 153.167 131.849 152.989 131.759 152.84C131.672 152.689 131.548 152.573 131.387 152.492C131.229 152.408 131.042 152.367 130.825 152.367H130.138V154.382ZM134.704 155V154.512L134.658 154.406V153.532C134.658 153.378 134.61 153.257 134.514 153.17C134.421 153.083 134.277 153.04 134.082 153.04C133.949 153.04 133.817 153.062 133.687 153.105C133.56 153.145 133.452 153.201 133.362 153.272L133.102 152.766C133.238 152.67 133.402 152.596 133.594 152.543C133.786 152.49 133.981 152.464 134.179 152.464C134.56 152.464 134.856 152.554 135.066 152.734C135.277 152.913 135.382 153.193 135.382 153.574V155H134.704ZM133.942 155.037C133.747 155.037 133.58 155.005 133.441 154.94C133.302 154.872 133.195 154.78 133.12 154.666C133.046 154.551 133.009 154.423 133.009 154.28C133.009 154.131 133.045 154.001 133.116 153.89C133.19 153.779 133.306 153.692 133.464 153.63C133.622 153.565 133.828 153.532 134.082 153.532H134.746V153.955H134.161C133.99 153.955 133.873 153.983 133.808 154.039C133.746 154.094 133.715 154.164 133.715 154.248C133.715 154.34 133.751 154.415 133.822 154.471C133.896 154.523 133.997 154.549 134.124 154.549C134.244 154.549 134.353 154.522 134.449 154.466C134.545 154.407 134.614 154.322 134.658 154.21L134.769 154.545C134.717 154.706 134.621 154.828 134.481 154.912C134.342 154.995 134.162 155.037 133.942 155.037ZM137.06 155.037C136.766 155.037 136.537 154.963 136.372 154.814C136.208 154.663 136.126 154.438 136.126 154.141V151.949H136.851V154.131C136.851 154.237 136.879 154.319 136.934 154.378C136.99 154.433 137.066 154.461 137.162 154.461C137.277 154.461 137.374 154.43 137.455 154.368L137.65 154.879C137.575 154.932 137.486 154.972 137.38 155C137.278 155.025 137.171 155.037 137.06 155.037ZM135.741 153.114V152.557H137.473V153.114H135.741ZM139.589 155V154.512L139.543 154.406V153.532C139.543 153.378 139.495 153.257 139.399 153.17C139.306 153.083 139.162 153.04 138.967 153.04C138.834 153.04 138.702 153.062 138.572 153.105C138.445 153.145 138.337 153.201 138.247 153.272L137.987 152.766C138.123 152.67 138.287 152.596 138.479 152.543C138.671 152.49 138.866 152.464 139.064 152.464C139.445 152.464 139.741 152.554 139.951 152.734C140.162 152.913 140.267 153.193 140.267 153.574V155H139.589ZM138.827 155.037C138.632 155.037 138.465 155.005 138.326 154.94C138.186 154.872 138.08 154.78 138.005 154.666C137.931 154.551 137.894 154.423 137.894 154.28C137.894 154.131 137.929 154.001 138.001 153.89C138.075 153.779 138.191 153.692 138.349 153.63C138.507 153.565 138.713 153.532 138.967 153.532H139.631V153.955H139.046C138.875 153.955 138.758 153.983 138.693 154.039C138.631 154.094 138.6 154.164 138.6 154.248C138.6 154.34 138.635 154.415 138.707 154.471C138.781 154.523 138.882 154.549 139.008 154.549C139.129 154.549 139.238 154.522 139.334 154.466C139.43 154.407 139.499 154.322 139.543 154.21L139.654 154.545C139.601 154.706 139.505 154.828 139.366 154.912C139.227 154.995 139.047 155.037 138.827 155.037ZM143.845 155.056C143.594 155.056 143.361 155.015 143.144 154.935C142.93 154.851 142.744 154.734 142.586 154.582C142.429 154.43 142.305 154.252 142.215 154.048C142.128 153.844 142.085 153.619 142.085 153.374C142.085 153.13 142.128 152.905 142.215 152.701C142.305 152.497 142.429 152.319 142.586 152.167C142.747 152.015 142.935 151.899 143.148 151.819C143.362 151.735 143.596 151.693 143.85 151.693C144.132 151.693 144.385 151.743 144.611 151.842C144.841 151.938 145.033 152.08 145.187 152.269L144.704 152.715C144.593 152.588 144.469 152.494 144.333 152.432C144.197 152.367 144.048 152.334 143.887 152.334C143.735 152.334 143.596 152.359 143.469 152.408C143.342 152.458 143.232 152.529 143.139 152.622C143.046 152.715 142.974 152.825 142.921 152.952C142.871 153.079 142.847 153.22 142.847 153.374C142.847 153.529 142.871 153.67 142.921 153.797C142.974 153.924 143.046 154.034 143.139 154.127C143.232 154.22 143.342 154.291 143.469 154.34C143.596 154.39 143.735 154.415 143.887 154.415C144.048 154.415 144.197 154.384 144.333 154.322C144.469 154.257 144.593 154.159 144.704 154.029L145.187 154.475C145.033 154.664 144.841 154.808 144.611 154.907C144.385 155.006 144.13 155.056 143.845 155.056ZM146.64 155.037C146.432 155.037 146.246 154.997 146.082 154.916C145.921 154.836 145.796 154.714 145.706 154.549C145.616 154.382 145.571 154.17 145.571 153.913V152.501H146.296V153.806C146.296 154.014 146.339 154.167 146.426 154.266C146.516 154.362 146.641 154.41 146.802 154.41C146.914 154.41 147.013 154.387 147.1 154.34C147.186 154.291 147.254 154.217 147.304 154.118C147.353 154.015 147.378 153.888 147.378 153.737V152.501H148.103V155H147.415V154.313L147.541 154.512C147.457 154.686 147.333 154.817 147.169 154.907C147.008 154.994 146.832 155.037 146.64 155.037ZM148.774 155V151.554H149.498V155H148.774ZM151.379 155.037C151.084 155.037 150.855 154.963 150.691 154.814C150.527 154.663 150.445 154.438 150.445 154.141V151.949H151.17V154.131C151.17 154.237 151.198 154.319 151.253 154.378C151.309 154.433 151.385 154.461 151.481 154.461C151.595 154.461 151.693 154.43 151.773 154.368L151.968 154.879C151.894 154.932 151.804 154.972 151.699 155C151.597 155.025 151.49 155.037 151.379 155.037ZM150.06 153.114V152.557H151.792V153.114H150.06ZM153.429 155.037C153.222 155.037 153.036 154.997 152.872 154.916C152.711 154.836 152.586 154.714 152.496 154.549C152.406 154.382 152.361 154.17 152.361 153.913V152.501H153.086V153.806C153.086 154.014 153.129 154.167 153.216 154.266C153.306 154.362 153.431 154.41 153.592 154.41C153.704 154.41 153.803 154.387 153.889 154.34C153.976 154.291 154.044 154.217 154.094 154.118C154.143 154.015 154.168 153.888 154.168 153.737V152.501H154.892V155H154.205V154.313L154.331 154.512C154.247 154.686 154.123 154.817 153.959 154.907C153.798 154.994 153.621 155.037 153.429 155.037ZM155.564 155V152.501H156.256V153.207L156.158 153.003C156.233 152.826 156.352 152.693 156.516 152.603C156.68 152.511 156.88 152.464 157.115 152.464V153.133C157.084 153.13 157.056 153.128 157.031 153.128C157.007 153.125 156.98 153.124 156.952 153.124C156.754 153.124 156.593 153.181 156.469 153.295C156.349 153.407 156.288 153.582 156.288 153.82V155H155.564ZM158.768 155.037C158.483 155.037 158.232 154.981 158.015 154.87C157.802 154.758 157.636 154.607 157.518 154.415C157.401 154.22 157.342 153.998 157.342 153.751C157.342 153.5 157.399 153.278 157.514 153.086C157.631 152.891 157.791 152.74 157.992 152.631C158.193 152.52 158.421 152.464 158.675 152.464C158.919 152.464 159.139 152.517 159.334 152.622C159.532 152.724 159.689 152.873 159.803 153.068C159.918 153.26 159.975 153.491 159.975 153.76C159.975 153.788 159.974 153.82 159.971 153.857C159.968 153.892 159.964 153.924 159.961 153.955H157.932V153.532H159.58L159.302 153.658C159.302 153.528 159.275 153.415 159.223 153.319C159.17 153.223 159.097 153.148 159.005 153.096C158.912 153.04 158.803 153.012 158.679 153.012C158.556 153.012 158.446 153.04 158.35 153.096C158.257 153.148 158.184 153.224 158.131 153.323C158.079 153.419 158.052 153.534 158.052 153.667V153.779C158.052 153.915 158.082 154.036 158.141 154.141C158.203 154.243 158.288 154.322 158.396 154.378C158.508 154.43 158.638 154.457 158.786 154.457C158.919 154.457 159.036 154.436 159.135 154.396C159.237 154.356 159.33 154.296 159.413 154.215L159.799 154.633C159.684 154.763 159.54 154.864 159.367 154.935C159.193 155.003 158.994 155.037 158.768 155.037ZM160.732 155.037C160.608 155.037 160.501 154.995 160.411 154.912C160.324 154.825 160.281 154.715 160.281 154.582C160.281 154.449 160.324 154.342 160.411 154.262C160.501 154.178 160.608 154.136 160.732 154.136C160.859 154.136 160.965 154.178 161.052 154.262C161.139 154.342 161.182 154.449 161.182 154.582C161.182 154.715 161.139 154.825 161.052 154.912C160.965 154.995 160.859 155.037 160.732 155.037ZM162.775 151.749H163.643L164.317 152.734L164.99 151.749H165.873L164.791 153.305L165.961 155H165.074L164.317 153.922L163.569 155H162.701L163.862 153.337L162.775 151.749ZM167.435 155.037C167.15 155.037 166.899 154.981 166.683 154.87C166.469 154.758 166.303 154.607 166.186 154.415C166.068 154.22 166.009 153.998 166.009 153.751C166.009 153.5 166.067 153.278 166.181 153.086C166.299 152.891 166.458 152.74 166.659 152.631C166.861 152.52 167.088 152.464 167.342 152.464C167.587 152.464 167.807 152.517 168.002 152.622C168.2 152.724 168.356 152.873 168.471 153.068C168.585 153.26 168.643 153.491 168.643 153.76C168.643 153.788 168.641 153.82 168.638 153.857C168.635 153.892 168.632 153.924 168.629 153.955H166.599V153.532H168.248L167.969 153.658C167.969 153.528 167.943 153.415 167.89 153.319C167.838 153.223 167.765 153.148 167.672 153.096C167.579 153.04 167.471 153.012 167.347 153.012C167.223 153.012 167.113 153.04 167.017 153.096C166.924 153.148 166.851 153.224 166.799 153.323C166.746 153.419 166.72 153.534 166.72 153.667V153.779C166.72 153.915 166.749 154.036 166.808 154.141C166.87 154.243 166.955 154.322 167.064 154.378C167.175 154.43 167.305 154.457 167.454 154.457C167.587 154.457 167.703 154.436 167.802 154.396C167.904 154.356 167.997 154.296 168.081 154.215L168.466 154.633C168.352 154.763 168.208 154.864 168.034 154.935C167.861 155.003 167.661 155.037 167.435 155.037ZM169.198 155V152.501H169.918V153.477H171.005V152.501H171.729V155H171.005V154.066H169.918V155H169.198ZM174.141 154.675V153.096H173.324L173.31 153.416C173.304 153.549 173.296 153.676 173.287 153.797C173.277 153.918 173.259 154.028 173.231 154.127C173.206 154.223 173.169 154.305 173.12 154.373C173.07 154.438 173.003 154.483 172.92 154.508L172.205 154.406C172.294 154.406 172.367 154.379 172.423 154.327C172.479 154.271 172.522 154.195 172.553 154.099C172.584 154 172.607 153.888 172.623 153.765C172.638 153.638 172.649 153.504 172.655 153.365L172.688 152.501H174.866V154.675H174.141ZM172.121 155.539V154.406H175.223V155.539H174.55V155H172.794V155.539H172.121ZM176.919 155.056C176.715 155.056 176.529 155.026 176.362 154.967C176.195 154.906 176.049 154.811 175.926 154.684C175.805 154.554 175.71 154.388 175.642 154.187C175.577 153.986 175.545 153.746 175.545 153.467C175.545 153.269 175.562 153.088 175.596 152.924C175.63 152.76 175.681 152.611 175.749 152.478C175.817 152.342 175.904 152.223 176.009 152.12C176.118 152.015 176.243 151.928 176.385 151.86C176.531 151.789 176.695 151.735 176.878 151.698L178.067 151.461L178.164 152.083L177.115 152.292C177.053 152.305 176.981 152.322 176.901 152.343C176.823 152.362 176.745 152.391 176.664 152.432C176.587 152.472 176.514 152.529 176.446 152.603C176.381 152.675 176.328 152.769 176.288 152.887C176.248 153.001 176.227 153.144 176.227 153.314C176.227 153.367 176.229 153.407 176.232 153.435C176.238 153.463 176.243 153.492 176.246 153.523C176.252 153.554 176.255 153.602 176.255 153.667L176.023 153.439C176.091 153.294 176.178 153.17 176.283 153.068C176.392 152.966 176.515 152.888 176.655 152.836C176.797 152.78 176.955 152.752 177.128 152.752C177.364 152.752 177.57 152.8 177.746 152.896C177.926 152.989 178.065 153.121 178.164 153.291C178.263 153.461 178.313 153.655 178.313 153.871C178.313 154.107 178.254 154.314 178.136 154.494C178.019 154.67 177.855 154.808 177.644 154.907C177.437 155.006 177.195 155.056 176.919 155.056ZM176.957 154.494C177.077 154.494 177.184 154.467 177.277 154.415C177.37 154.359 177.441 154.286 177.491 154.197C177.543 154.104 177.57 154 177.57 153.885C177.57 153.774 177.543 153.675 177.491 153.588C177.441 153.501 177.37 153.433 177.277 153.384C177.184 153.334 177.076 153.309 176.952 153.309C176.831 153.309 176.723 153.334 176.627 153.384C176.531 153.43 176.457 153.495 176.404 153.579C176.351 153.662 176.325 153.76 176.325 153.871C176.325 153.986 176.351 154.091 176.404 154.187C176.46 154.28 176.534 154.354 176.627 154.41C176.723 154.466 176.833 154.494 176.957 154.494ZM179.075 155.938C178.945 155.938 178.817 155.918 178.69 155.878C178.563 155.838 178.459 155.782 178.379 155.711L178.643 155.195C178.699 155.245 178.763 155.283 178.834 155.311C178.908 155.339 178.981 155.353 179.052 155.353C179.154 155.353 179.235 155.328 179.294 155.279C179.356 155.232 179.411 155.153 179.461 155.042L179.591 154.735L179.647 154.656L180.543 152.501H181.24L180.111 155.153C180.031 155.355 179.938 155.512 179.832 155.627C179.73 155.742 179.616 155.822 179.489 155.869C179.365 155.915 179.227 155.938 179.075 155.938ZM179.503 155.098L178.388 152.501H179.136L180 154.591L179.503 155.098ZM183.359 155L182.523 153.816L183.113 153.467L184.213 155H183.359ZM181.589 155V152.501H182.314V155H181.589ZM182.1 154.053V153.472H182.973V154.053H182.1ZM183.182 153.834L182.504 153.76L183.382 152.501H184.153L183.182 153.834ZM185.884 155V152.501H188.369V155H187.645V152.933L187.807 153.096H186.442L186.604 152.933V155H185.884ZM190.234 155.037C189.968 155.037 189.731 154.981 189.524 154.87C189.319 154.758 189.157 154.607 189.036 154.415C188.918 154.22 188.86 153.998 188.86 153.751C188.86 153.5 188.918 153.278 189.036 153.086C189.157 152.891 189.319 152.74 189.524 152.631C189.731 152.52 189.968 152.464 190.234 152.464C190.497 152.464 190.733 152.52 190.94 152.631C191.148 152.74 191.31 152.89 191.428 153.082C191.546 153.274 191.604 153.497 191.604 153.751C191.604 153.998 191.546 154.22 191.428 154.415C191.31 154.607 191.148 154.758 190.94 154.87C190.733 154.981 190.497 155.037 190.234 155.037ZM190.234 154.443C190.355 154.443 190.463 154.415 190.559 154.359C190.655 154.303 190.731 154.224 190.787 154.122C190.843 154.017 190.871 153.893 190.871 153.751C190.871 153.605 190.843 153.481 190.787 153.379C190.731 153.277 190.655 153.198 190.559 153.142C190.463 153.086 190.355 153.059 190.234 153.059C190.114 153.059 190.005 153.086 189.909 153.142C189.813 153.198 189.736 153.277 189.677 153.379C189.621 153.481 189.593 153.605 189.593 153.751C189.593 153.893 189.621 154.017 189.677 154.122C189.736 154.224 189.813 154.303 189.909 154.359C190.005 154.415 190.114 154.443 190.234 154.443ZM194.914 155V154.512L194.867 154.406V153.532C194.867 153.378 194.819 153.257 194.723 153.17C194.63 153.083 194.486 153.04 194.291 153.04C194.158 153.04 194.027 153.062 193.896 153.105C193.77 153.145 193.661 153.201 193.571 153.272L193.311 152.766C193.447 152.67 193.612 152.596 193.804 152.543C193.996 152.49 194.191 152.464 194.389 152.464C194.77 152.464 195.065 152.554 195.276 152.734C195.486 152.913 195.592 153.193 195.592 153.574V155H194.914ZM194.152 155.037C193.957 155.037 193.79 155.005 193.65 154.94C193.511 154.872 193.404 154.78 193.33 154.666C193.256 154.551 193.218 154.423 193.218 154.28C193.218 154.131 193.254 154.001 193.325 153.89C193.4 153.779 193.516 153.692 193.674 153.63C193.831 153.565 194.037 153.532 194.291 153.532H194.955V153.955H194.37C194.2 153.955 194.082 153.983 194.017 154.039C193.955 154.094 193.924 154.164 193.924 154.248C193.924 154.34 193.96 154.415 194.031 154.471C194.105 154.523 194.206 154.549 194.333 154.549C194.454 154.549 194.562 154.522 194.658 154.466C194.754 154.407 194.824 154.322 194.867 154.21L194.979 154.545C194.926 154.706 194.83 154.828 194.691 154.912C194.551 154.995 194.372 155.037 194.152 155.037ZM196.221 155V152.501H196.941V153.477H198.028V152.501H198.752V155H198.028V154.066H196.941V155H196.221ZM200.941 155V154.512L200.895 154.406V153.532C200.895 153.378 200.847 153.257 200.751 153.17C200.658 153.083 200.514 153.04 200.319 153.04C200.186 153.04 200.054 153.062 199.924 153.105C199.797 153.145 199.689 153.201 199.599 153.272L199.339 152.766C199.475 152.67 199.639 152.596 199.831 152.543C200.023 152.49 200.218 152.464 200.417 152.464C200.797 152.464 201.093 152.554 201.304 152.734C201.514 152.913 201.619 153.193 201.619 153.574V155H200.941ZM200.18 155.037C199.985 155.037 199.817 155.005 199.678 154.94C199.539 154.872 199.432 154.78 199.358 154.666C199.283 154.551 199.246 154.423 199.246 154.28C199.246 154.131 199.282 154.001 199.353 153.89C199.427 153.779 199.543 153.692 199.701 153.63C199.859 153.565 200.065 153.532 200.319 153.532H200.983V153.955H200.398C200.228 153.955 200.11 153.983 200.045 154.039C199.983 154.094 199.952 154.164 199.952 154.248C199.952 154.34 199.988 154.415 200.059 154.471C200.133 154.523 200.234 154.549 200.361 154.549C200.482 154.549 200.59 154.522 200.686 154.466C200.782 154.407 200.852 154.322 200.895 154.21L201.006 154.545C200.954 154.706 200.858 154.828 200.718 154.912C200.579 154.995 200.4 155.037 200.18 155.037ZM201.933 154.995L201.97 154.401C201.989 154.404 202.007 154.407 202.026 154.41C202.045 154.41 202.062 154.41 202.077 154.41C202.164 154.41 202.232 154.385 202.281 154.336C202.331 154.286 202.368 154.22 202.393 154.136C202.418 154.049 202.435 153.952 202.444 153.844C202.456 153.735 202.466 153.622 202.472 153.504L202.509 152.501H204.645V155H203.921V152.919L204.083 153.096H202.987L203.141 152.91L203.108 153.537C203.099 153.76 203.08 153.964 203.052 154.15C203.028 154.336 202.986 154.497 202.927 154.633C202.868 154.766 202.789 154.87 202.69 154.944C202.591 155.015 202.464 155.051 202.309 155.051C202.254 155.051 202.195 155.046 202.133 155.037C202.071 155.028 202.004 155.014 201.933 154.995ZM205.342 155V152.501H206.062V153.988L207.279 152.501H207.943V155H207.223V153.514L206.011 155H205.342ZM209.462 155.046C209.27 155.046 209.078 155.026 208.886 154.986C208.697 154.946 208.522 154.885 208.361 154.805L208.556 154.299C208.683 154.361 208.821 154.409 208.97 154.443C209.122 154.474 209.275 154.489 209.43 154.489C209.541 154.489 209.637 154.478 209.718 154.457C209.801 154.432 209.865 154.398 209.908 154.354C209.951 154.311 209.973 154.258 209.973 154.197C209.973 154.116 209.939 154.056 209.871 154.015C209.803 153.972 209.704 153.95 209.574 153.95H209.063V153.5H209.513C209.597 153.5 209.668 153.491 209.727 153.472C209.786 153.453 209.829 153.427 209.857 153.393C209.888 153.356 209.903 153.313 209.903 153.263C209.903 153.21 209.885 153.165 209.848 153.128C209.81 153.091 209.756 153.063 209.685 153.045C209.614 153.023 209.524 153.012 209.416 153.012C209.292 153.012 209.163 153.028 209.03 153.059C208.897 153.086 208.761 153.128 208.621 153.184L208.445 152.682C208.609 152.614 208.772 152.56 208.933 152.52C209.094 152.48 209.253 152.458 209.411 152.455C209.643 152.449 209.852 152.473 210.038 152.529C210.224 152.585 210.369 152.665 210.475 152.771C210.583 152.876 210.637 153.004 210.637 153.156C210.637 153.277 210.6 153.385 210.526 153.481C210.454 153.577 210.355 153.653 210.228 153.709C210.102 153.761 209.959 153.788 209.801 153.788L209.82 153.644C210.095 153.644 210.312 153.7 210.47 153.811C210.628 153.919 210.707 154.068 210.707 154.257C210.707 154.418 210.651 154.559 210.54 154.68C210.431 154.797 210.283 154.889 210.094 154.954C209.908 155.015 209.697 155.046 209.462 155.046ZM211.564 155.938C211.434 155.938 211.305 155.918 211.178 155.878C211.051 155.838 210.948 155.782 210.867 155.711L211.132 155.195C211.188 155.245 211.251 155.283 211.322 155.311C211.397 155.339 211.469 155.353 211.541 155.353C211.643 155.353 211.723 155.328 211.782 155.279C211.844 155.232 211.9 155.153 211.949 155.042L212.079 154.735L212.135 154.656L213.031 152.501H213.728L212.6 155.153C212.519 155.355 212.426 155.512 212.321 155.627C212.219 155.742 212.104 155.822 211.977 155.869C211.853 155.915 211.716 155.938 211.564 155.938ZM211.991 155.098L210.876 152.501H211.624L212.488 154.591L211.991 155.098ZM217.111 154.675V153.096H216.294L216.28 153.416C216.274 153.549 216.266 153.676 216.257 153.797C216.248 153.918 216.229 154.028 216.201 154.127C216.176 154.223 216.139 154.305 216.09 154.373C216.04 154.438 215.974 154.483 215.89 154.508L215.175 154.406C215.265 154.406 215.337 154.379 215.393 154.327C215.449 154.271 215.492 154.195 215.523 154.099C215.554 154 215.577 153.888 215.593 153.765C215.608 153.638 215.619 153.504 215.625 153.365L215.658 152.501H217.836V154.675H217.111ZM215.091 155.539V154.406H218.194V155.539H217.52V155H215.765V155.539H215.091ZM220.145 155V154.512L220.099 154.406V153.532C220.099 153.378 220.051 153.257 219.955 153.17C219.862 153.083 219.718 153.04 219.523 153.04C219.39 153.04 219.258 153.062 219.128 153.105C219.001 153.145 218.893 153.201 218.803 153.272L218.543 152.766C218.679 152.67 218.843 152.596 219.035 152.543C219.227 152.49 219.422 152.464 219.62 152.464C220.001 152.464 220.297 152.554 220.507 152.734C220.718 152.913 220.823 153.193 220.823 153.574V155H220.145ZM219.383 155.037C219.188 155.037 219.021 155.005 218.882 154.94C218.742 154.872 218.636 154.78 218.561 154.666C218.487 154.551 218.45 154.423 218.45 154.28C218.45 154.131 218.485 154.001 218.557 153.89C218.631 153.779 218.747 153.692 218.905 153.63C219.063 153.565 219.269 153.532 219.523 153.532H220.187V153.955H219.602C219.431 153.955 219.314 153.983 219.249 154.039C219.187 154.094 219.156 154.164 219.156 154.248C219.156 154.34 219.191 154.415 219.263 154.471C219.337 154.523 219.438 154.549 219.565 154.549C219.685 154.549 219.794 154.522 219.89 154.466C219.986 154.407 220.055 154.322 220.099 154.21L220.21 154.545C220.157 154.706 220.061 154.828 219.922 154.912C219.783 154.995 219.603 155.037 219.383 155.037ZM221.453 155V152.501H222.172V153.477H223.259V152.501H223.984V155H223.259V154.066H222.172V155H221.453ZM224.677 155V152.501H225.397V153.477H226.484V152.501H227.209V155H226.484V154.066H225.397V155H224.677ZM230.475 155V152.501H231.195V155H230.475ZM229.217 153.3C229.545 153.303 229.791 153.378 229.955 153.523C230.122 153.665 230.206 153.868 230.206 154.131C230.206 154.407 230.111 154.622 229.923 154.777C229.734 154.929 229.466 155.005 229.119 155.005L227.902 155V152.501H228.622V153.3H229.217ZM229.054 154.489C229.193 154.492 229.3 154.463 229.374 154.401C229.449 154.339 229.486 154.246 229.486 154.122C229.486 153.998 229.449 153.91 229.374 153.857C229.3 153.802 229.193 153.772 229.054 153.769L228.622 153.765V154.489H229.054ZM231.559 155L232.678 153.532L232.664 153.932L231.592 152.501H232.404L233.082 153.435L232.776 153.444L233.477 152.501H234.248L233.171 153.918V153.528L234.285 155H233.463L232.753 154.006L233.055 154.048L232.349 155H231.559ZM234.902 155.037C234.778 155.037 234.671 154.995 234.582 154.912C234.495 154.825 234.452 154.715 234.452 154.582C234.452 154.449 234.495 154.342 234.582 154.262C234.671 154.178 234.778 154.136 234.902 154.136C235.029 154.136 235.136 154.178 235.223 154.262C235.309 154.342 235.353 154.449 235.353 154.582C235.353 154.715 235.309 154.825 235.223 154.912C235.136 154.995 235.029 155.037 234.902 155.037ZM239.458 151.749H240.21V155H239.458V151.749ZM237.981 155H237.229V151.749H237.981V155ZM239.514 153.667H237.925V153.031H239.514V153.667ZM242.465 155V154.512L242.418 154.406V153.532C242.418 153.378 242.37 153.257 242.274 153.17C242.181 153.083 242.037 153.04 241.842 153.04C241.709 153.04 241.578 153.062 241.448 153.105C241.321 153.145 241.212 153.201 241.122 153.272L240.862 152.766C240.999 152.67 241.163 152.596 241.355 152.543C241.547 152.49 241.742 152.464 241.94 152.464C242.321 152.464 242.616 152.554 242.827 152.734C243.038 152.913 243.143 153.193 243.143 153.574V155H242.465ZM241.703 155.037C241.508 155.037 241.341 155.005 241.201 154.94C241.062 154.872 240.955 154.78 240.881 154.666C240.807 154.551 240.77 154.423 240.77 154.28C240.77 154.131 240.805 154.001 240.876 153.89C240.951 153.779 241.067 153.692 241.225 153.63C241.383 153.565 241.588 153.532 241.842 153.532H242.507V153.955H241.921C241.751 153.955 241.633 153.983 241.568 154.039C241.506 154.094 241.475 154.164 241.475 154.248C241.475 154.34 241.511 154.415 241.582 154.471C241.657 154.523 241.757 154.549 241.884 154.549C242.005 154.549 242.113 154.522 242.209 154.466C242.305 154.407 242.375 154.322 242.418 154.21L242.53 154.545C242.477 154.706 242.381 154.828 242.242 154.912C242.102 154.995 241.923 155.037 241.703 155.037ZM245.347 154.043C245.244 154.099 245.131 154.144 245.008 154.178C244.884 154.212 244.748 154.229 244.599 154.229C244.271 154.229 244.018 154.155 243.842 154.006C243.665 153.854 243.577 153.614 243.577 153.286V152.501H244.302V153.24C244.302 153.395 244.342 153.506 244.422 153.574C244.503 153.639 244.616 153.672 244.761 153.672C244.867 153.672 244.967 153.659 245.063 153.635C245.162 153.61 245.257 153.574 245.347 153.528V154.043ZM245.296 155V152.501H246.02V155H245.296ZM248.211 155V154.512L248.165 154.406V153.532C248.165 153.378 248.117 153.257 248.021 153.17C247.928 153.083 247.784 153.04 247.589 153.04C247.456 153.04 247.324 153.062 247.194 153.105C247.067 153.145 246.959 153.201 246.869 153.272L246.609 152.766C246.745 152.67 246.909 152.596 247.101 152.543C247.293 152.49 247.488 152.464 247.686 152.464C248.067 152.464 248.363 152.554 248.574 152.734C248.784 152.913 248.889 153.193 248.889 153.574V155H248.211ZM247.45 155.037C247.255 155.037 247.087 155.005 246.948 154.94C246.809 154.872 246.702 154.78 246.628 154.666C246.553 154.551 246.516 154.423 246.516 154.28C246.516 154.131 246.552 154.001 246.623 153.89C246.697 153.779 246.813 153.692 246.971 153.63C247.129 153.565 247.335 153.532 247.589 153.532H248.253V153.955H247.668C247.498 153.955 247.38 153.983 247.315 154.039C247.253 154.094 247.222 154.164 247.222 154.248C247.222 154.34 247.258 154.415 247.329 154.471C247.403 154.523 247.504 154.549 247.631 154.549C247.752 154.549 247.86 154.522 247.956 154.466C248.052 154.407 248.122 154.322 248.165 154.21L248.276 154.545C248.224 154.706 248.128 154.828 247.988 154.912C247.849 154.995 247.669 155.037 247.45 155.037ZM249.203 154.995L249.24 154.401C249.259 154.404 249.277 154.407 249.296 154.41C249.314 154.41 249.331 154.41 249.347 154.41C249.434 154.41 249.502 154.385 249.551 154.336C249.601 154.286 249.638 154.22 249.663 154.136C249.688 154.049 249.705 153.952 249.714 153.844C249.726 153.735 249.736 153.622 249.742 153.504L249.779 152.501H251.915V155H251.191V152.919L251.353 153.096H250.257L250.411 152.91L250.378 153.537C250.369 153.76 250.35 153.964 250.322 154.15C250.298 154.336 250.256 154.497 250.197 154.633C250.138 154.766 250.059 154.87 249.96 154.944C249.861 155.015 249.734 155.051 249.579 155.051C249.523 155.051 249.465 155.046 249.403 155.037C249.341 155.028 249.274 155.014 249.203 154.995ZM253.964 153.3C254.292 153.303 254.541 153.378 254.711 153.523C254.885 153.665 254.971 153.868 254.971 154.131C254.971 154.407 254.874 154.622 254.679 154.777C254.484 154.929 254.213 155.005 253.866 155.005L252.612 155V152.501H253.332V153.3H253.964ZM253.801 154.489C253.94 154.492 254.047 154.463 254.122 154.401C254.196 154.339 254.233 154.246 254.233 154.122C254.233 153.998 254.196 153.91 254.122 153.857C254.047 153.802 253.94 153.772 253.801 153.769L253.332 153.765V154.489H253.801ZM255.424 155V152.501H256.144V153.477H257.231V152.501H257.955V155H257.231V154.066H256.144V155H255.424ZM261.222 155V152.501H261.942V155H261.222ZM259.963 153.3C260.292 153.303 260.538 153.378 260.702 153.523C260.869 153.665 260.953 153.868 260.953 154.131C260.953 154.407 260.858 154.622 260.669 154.777C260.48 154.929 260.213 155.005 259.866 155.005L258.649 155V152.501H259.369V153.3H259.963ZM259.801 154.489C259.94 154.492 260.047 154.463 260.121 154.401C260.196 154.339 260.233 154.246 260.233 154.122C260.233 153.998 260.196 153.91 260.121 153.857C260.047 153.802 259.94 153.772 259.801 153.769L259.369 153.765V154.489H259.801ZM262.64 155V152.501H263.36V153.988L264.577 152.501H265.241V155H264.521V153.514L263.309 155H262.64ZM263.894 152.232C263.622 152.232 263.417 152.173 263.281 152.055C263.145 151.935 263.075 151.754 263.072 151.512H263.546C263.549 151.617 263.578 151.701 263.634 151.763C263.69 151.825 263.775 151.856 263.89 151.856C264.001 151.856 264.086 151.825 264.145 151.763C264.207 151.701 264.238 151.617 264.238 151.512H264.721C264.721 151.754 264.651 151.935 264.512 152.055C264.373 152.173 264.167 152.232 263.894 152.232ZM267.592 155.938C267.462 155.938 267.333 155.918 267.207 155.878C267.08 155.838 266.976 155.782 266.895 155.711L267.16 155.195C267.216 155.245 267.279 155.283 267.35 155.311C267.425 155.339 267.498 155.353 267.569 155.353C267.671 155.353 267.751 155.328 267.81 155.279C267.872 155.232 267.928 155.153 267.977 155.042L268.108 154.735L268.163 154.656L269.06 152.501H269.756L268.628 155.153C268.547 155.355 268.454 155.512 268.349 155.627C268.247 155.742 268.132 155.822 268.005 155.869C267.881 155.915 267.744 155.938 267.592 155.938ZM268.019 155.098L266.905 152.501H267.652L268.516 154.591L268.019 155.098ZM271.578 155.037C271.368 155.037 271.183 154.991 271.025 154.898C270.868 154.805 270.744 154.664 270.654 154.475C270.567 154.283 270.524 154.042 270.524 153.751C270.524 153.456 270.566 153.215 270.649 153.026C270.733 152.837 270.854 152.696 271.012 152.603C271.169 152.511 271.358 152.464 271.578 152.464C271.813 152.464 272.024 152.518 272.21 152.627C272.399 152.732 272.547 152.881 272.656 153.073C272.767 153.265 272.823 153.491 272.823 153.751C272.823 154.014 272.767 154.241 272.656 154.433C272.547 154.625 272.399 154.774 272.21 154.879C272.024 154.985 271.813 155.037 271.578 155.037ZM270.101 155.901V152.501H270.793V153.012L270.779 153.755L270.826 154.494V155.901H270.101ZM271.453 154.443C271.573 154.443 271.68 154.415 271.773 154.359C271.869 154.303 271.945 154.224 272.001 154.122C272.06 154.017 272.089 153.893 272.089 153.751C272.089 153.605 272.06 153.481 272.001 153.379C271.945 153.277 271.869 153.198 271.773 153.142C271.68 153.086 271.573 153.059 271.453 153.059C271.332 153.059 271.224 153.086 271.128 153.142C271.032 153.198 270.956 153.277 270.9 153.379C270.844 153.481 270.816 153.605 270.816 153.751C270.816 153.893 270.844 154.017 270.9 154.122C270.956 154.224 271.032 154.303 271.128 154.359C271.224 154.415 271.332 154.443 271.453 154.443ZM274.501 155.037C274.235 155.037 273.998 154.981 273.79 154.87C273.586 154.758 273.424 154.607 273.303 154.415C273.185 154.22 273.126 153.998 273.126 153.751C273.126 153.5 273.185 153.278 273.303 153.086C273.424 152.891 273.586 152.74 273.79 152.631C273.998 152.52 274.235 152.464 274.501 152.464C274.764 152.464 275 152.52 275.207 152.631C275.414 152.74 275.577 152.89 275.695 153.082C275.812 153.274 275.871 153.497 275.871 153.751C275.871 153.998 275.812 154.22 275.695 154.415C275.577 154.607 275.414 154.758 275.207 154.87C275 154.981 274.764 155.037 274.501 155.037ZM274.501 154.443C274.622 154.443 274.73 154.415 274.826 154.359C274.922 154.303 274.998 154.224 275.054 154.122C275.109 154.017 275.137 153.893 275.137 153.751C275.137 153.605 275.109 153.481 275.054 153.379C274.998 153.277 274.922 153.198 274.826 153.142C274.73 153.086 274.622 153.059 274.501 153.059C274.38 153.059 274.272 153.086 274.176 153.142C274.08 153.198 274.003 153.277 273.944 153.379C273.888 153.481 273.86 153.605 273.86 153.751C273.86 153.893 273.888 154.017 273.944 154.122C274.003 154.224 274.08 154.303 274.176 154.359C274.272 154.415 274.38 154.443 274.501 154.443ZM276.369 155V152.501H277.647C277.959 152.501 278.204 152.559 278.381 152.673C278.557 152.785 278.645 152.943 278.645 153.147C278.645 153.351 278.562 153.512 278.394 153.63C278.23 153.744 278.012 153.802 277.74 153.802L277.814 153.635C278.117 153.635 278.343 153.69 278.492 153.802C278.644 153.913 278.72 154.076 278.72 154.289C278.72 154.509 278.636 154.683 278.469 154.81C278.302 154.937 278.046 155 277.702 155H276.369ZM277.034 154.508H277.642C277.775 154.508 277.874 154.486 277.939 154.443C278.007 154.396 278.041 154.327 278.041 154.234C278.041 154.138 278.011 154.068 277.949 154.025C277.887 153.978 277.789 153.955 277.656 153.955H277.034V154.508ZM277.034 153.528H277.582C277.709 153.528 277.803 153.504 277.865 153.458C277.93 153.412 277.963 153.345 277.963 153.258C277.963 153.169 277.93 153.102 277.865 153.059C277.803 153.015 277.709 152.994 277.582 152.994H277.034V153.528ZM280.48 155.037C280.195 155.037 279.944 154.981 279.728 154.87C279.514 154.758 279.348 154.607 279.231 154.415C279.113 154.22 279.054 153.998 279.054 153.751C279.054 153.5 279.112 153.278 279.226 153.086C279.344 152.891 279.503 152.74 279.705 152.631C279.906 152.52 280.133 152.464 280.387 152.464C280.632 152.464 280.852 152.517 281.047 152.622C281.245 152.724 281.401 152.873 281.516 153.068C281.63 153.26 281.688 153.491 281.688 153.76C281.688 153.788 281.686 153.82 281.683 153.857C281.68 153.892 281.677 153.924 281.674 153.955H279.644V153.532H281.293L281.014 153.658C281.014 153.528 280.988 153.415 280.935 153.319C280.883 153.223 280.81 153.148 280.717 153.096C280.624 153.04 280.516 153.012 280.392 153.012C280.268 153.012 280.158 153.04 280.062 153.096C279.969 153.148 279.896 153.224 279.844 153.323C279.791 153.419 279.765 153.534 279.765 153.667V153.779C279.765 153.915 279.794 154.036 279.853 154.141C279.915 154.243 280 154.322 280.109 154.378C280.22 154.43 280.35 154.457 280.499 154.457C280.632 154.457 280.748 154.436 280.847 154.396C280.949 154.356 281.042 154.296 281.126 154.215L281.511 154.633C281.397 154.763 281.253 154.864 281.079 154.935C280.906 155.003 280.706 155.037 280.48 155.037ZM282.243 155V152.501H282.963V153.477H284.05V152.501H284.774V155H284.05V154.066H282.963V155H282.243ZM286.819 153.3C287.148 153.303 287.397 153.378 287.567 153.523C287.741 153.665 287.827 153.868 287.827 154.131C287.827 154.407 287.73 154.622 287.535 154.777C287.34 154.929 287.069 155.005 286.722 155.005L285.468 155V152.501H286.188V153.3H286.819ZM286.657 154.489C286.796 154.492 286.903 154.463 286.977 154.401C287.052 154.339 287.089 154.246 287.089 154.122C287.089 153.998 287.052 153.91 286.977 153.857C286.903 153.802 286.796 153.772 286.657 153.769L286.188 153.765V154.489H286.657Z" fill="#D8D8D8"/>
<path d="M37.7087 73.238C38.7887 73.4 39.0767 74.273 39.0767 75.083C39.0767 76.235 38.3477 77 36.6647 77H33.8117V69.719H36.5657C37.8347 69.719 38.6357 70.709 38.6357 71.771C38.6357 72.239 38.4107 72.995 37.7087 73.238ZM36.3497 70.439H34.5407V72.923C35.1257 72.923 35.8997 72.923 36.3407 72.923C37.3487 72.923 37.8887 72.617 37.8887 71.69C37.8887 70.961 37.3847 70.439 36.3497 70.439ZM36.7997 76.289C37.7177 76.289 38.3477 75.938 38.3477 75.029C38.3477 74.291 37.7717 73.634 36.7817 73.634H34.5407V76.289H36.7997ZM43.0667 72.923C44.4977 72.923 45.3257 73.976 45.3257 74.921C45.3257 76.289 44.5967 77 42.9137 77H40.0607V69.719H40.7897V72.923H43.0667ZM43.0487 76.289C43.9667 76.289 44.5967 75.938 44.5967 75.029C44.5967 74.291 44.0207 73.634 43.0307 73.634H40.7897V76.289H43.0487ZM46.9097 77H46.1807V69.719H46.9097V77ZM50.9153 72.923C52.4453 72.923 53.1743 73.976 53.1743 74.921C53.1743 76.406 52.4453 77 50.7623 77H47.9093V69.719H52.4723V70.439H48.6383V72.923H50.9153ZM50.8973 76.289C51.8153 76.289 52.4453 75.938 52.4453 75.029C52.4453 74.291 51.8693 73.634 50.8793 73.634H48.6383V76.289H50.8973ZM56.7852 69.719C58.3332 69.719 59.1702 70.826 59.1702 71.87C59.1702 72.914 58.3512 73.976 56.7942 73.976H54.5802V77H53.8332V69.719H56.7852ZM56.9292 73.238C57.6402 73.238 58.4412 72.788 58.4412 71.87C58.4412 70.934 57.6312 70.457 56.9292 70.457H54.5802V73.238H56.9292ZM62.9516 69.566C65.0306 69.566 66.3806 71.015 66.3806 73.355C66.3806 76.154 64.6076 77.144 62.9516 77.144C60.8636 77.144 59.5226 75.659 59.5226 73.355C59.5226 72.185 59.8736 71.204 60.5306 70.529C61.1426 69.908 61.9976 69.566 62.9516 69.566ZM62.9516 76.406C64.6346 76.406 65.6336 75.308 65.6336 73.355C65.6336 71.087 64.2656 70.304 62.9516 70.304C61.6286 70.304 60.2606 71.168 60.2606 73.355C60.2606 75.614 61.6286 76.406 62.9516 76.406ZM72.8822 74.345H73.6382C73.2692 76.388 71.7392 77.144 70.2992 77.144C68.2112 77.144 66.8702 75.659 66.8702 73.355C66.8702 72.185 67.2212 71.204 67.8782 70.529C68.4902 69.908 69.3452 69.566 70.2992 69.566C72.0092 69.566 73.2152 70.547 73.5932 72.194H72.8372C72.4502 70.817 71.3522 70.304 70.2992 70.304C68.9762 70.304 67.6082 71.168 67.6082 73.355C67.6082 75.614 68.9762 76.406 70.2992 76.406C71.6672 76.406 72.5942 75.677 72.8822 74.345ZM77.3177 72.923C78.7487 72.923 79.5767 73.976 79.5767 74.921C79.5767 76.289 78.8477 77 77.1647 77H74.3117V69.719H75.0407V72.923H77.3177ZM77.2997 76.289C78.2177 76.289 78.8477 75.938 78.8477 75.029C78.8477 74.291 78.2717 73.634 77.2817 73.634H75.0407V76.289H77.2997ZM81.1607 77H80.4317V69.719H81.1607V77Z" fill="black"/>
<path d="M230.709 73.238C231.789 73.4 232.077 74.273 232.077 75.083C232.077 76.235 231.348 77 229.665 77H226.812V69.719H229.566C230.835 69.719 231.636 70.709 231.636 71.771C231.636 72.239 231.411 72.995 230.709 73.238ZM229.35 70.439H227.541V72.923C228.126 72.923 228.9 72.923 229.341 72.923C230.349 72.923 230.889 72.617 230.889 71.69C230.889 70.961 230.385 70.439 229.35 70.439ZM229.8 76.289C230.718 76.289 231.348 75.938 231.348 75.029C231.348 74.291 230.772 73.634 229.782 73.634H227.541V76.289H229.8ZM236.067 72.923C237.498 72.923 238.326 73.976 238.326 74.921C238.326 76.289 237.597 77 235.914 77H233.061V69.719H233.79V72.923H236.067ZM236.049 76.289C236.967 76.289 237.597 75.938 237.597 75.029C237.597 74.291 237.021 73.634 236.031 73.634H233.79V76.289H236.049ZM239.91 77H239.181V69.719H239.91V77ZM243.915 72.923C245.445 72.923 246.174 73.976 246.174 74.921C246.174 76.406 245.445 77 243.762 77H240.909V69.719H245.472V70.439H241.638V72.923H243.915ZM243.897 76.289C244.815 76.289 245.445 75.938 245.445 75.029C245.445 74.291 244.869 73.634 243.879 73.634H241.638V76.289H243.897ZM249.785 69.719C251.333 69.719 252.17 70.826 252.17 71.87C252.17 72.914 251.351 73.976 249.794 73.976H247.58V77H246.833V69.719H249.785ZM249.929 73.238C250.64 73.238 251.441 72.788 251.441 71.87C251.441 70.934 250.631 70.457 249.929 70.457H247.58V73.238H249.929ZM255.952 69.566C258.031 69.566 259.381 71.015 259.381 73.355C259.381 76.154 257.608 77.144 255.952 77.144C253.864 77.144 252.523 75.659 252.523 73.355C252.523 72.185 252.874 71.204 253.531 70.529C254.143 69.908 254.998 69.566 255.952 69.566ZM255.952 76.406C257.635 76.406 258.634 75.308 258.634 73.355C258.634 71.087 257.266 70.304 255.952 70.304C254.629 70.304 253.261 71.168 253.261 73.355C253.261 75.614 254.629 76.406 255.952 76.406ZM265.882 74.345H266.638C266.269 76.388 264.739 77.144 263.299 77.144C261.211 77.144 259.87 75.659 259.87 73.355C259.87 72.185 260.221 71.204 260.878 70.529C261.49 69.908 262.345 69.566 263.299 69.566C265.009 69.566 266.215 70.547 266.593 72.194H265.837C265.45 70.817 264.352 70.304 263.299 70.304C261.976 70.304 260.608 71.168 260.608 73.355C260.608 75.614 261.976 76.406 263.299 76.406C264.667 76.406 265.594 75.677 265.882 74.345ZM270.318 72.923C271.749 72.923 272.577 73.976 272.577 74.921C272.577 76.289 271.848 77 270.165 77H267.312V69.719H268.041V72.923H270.318ZM270.3 76.289C271.218 76.289 271.848 75.938 271.848 75.029C271.848 74.291 271.272 73.634 270.282 73.634H268.041V76.289H270.3ZM274.161 77H273.432V69.719H274.161V77Z" fill="black"/>
<path d="M281.198 82V77L287.198 79.6087L281.198 82Z" fill="#9A9C9E" stroke="#9A9C9E" stroke-width="2"/>
<rect opacity="0.25" x="221" y="68" width="59" height="12" fill="#DCFF00"/>
<rect opacity="0.25" x="28" y="68" width="59" height="12" fill="#DCFF00"/>
<rect opacity="0.25" x="87" y="68" width="134" height="12" fill="#9A9C9E"/>
<path d="M149.985 94.9617L147.713 97.2336L148.661 99.2383L148.114 99.7856L144.894 92.7089L145.473 92.1298L152.55 95.3499L151.99 95.9099L149.985 94.9617ZM145.664 92.9062L147.395 96.5463L149.304 94.6372L145.664 92.9062ZM150.687 86.9159L151.24 86.3622L154.613 93.2989L153.913 93.999L146.97 90.6324L147.53 90.0724L153.659 93.0444L150.687 86.9159ZM156.843 86.9834L156.34 86.4806L158.434 84.3869L160.973 86.9261L160.528 87.3716L159.885 86.8816C159.898 87.7343 159.541 88.5617 158.841 89.2617C157.365 90.7381 155.367 90.6363 153.738 89.0071C152.91 88.1798 152.465 87.238 152.452 86.2961C152.446 85.4242 152.808 84.5778 153.483 83.9032C154.52 82.8659 155.869 82.5477 157.378 83.3305L156.83 83.8778C155.717 83.3623 154.679 83.7505 154.005 84.4251C153.069 85.3606 152.707 86.9325 154.259 88.4853C155.869 90.0954 157.454 89.6053 158.32 88.7398C159.013 88.0462 159.745 86.7416 158.415 85.4115L156.843 86.9834Z" fill="black"/>
<path d="M54.2871 126.027L52.8234 125.365L50.9269 127.261L51.5888 128.725L50.5069 129.807L47.2486 122.768L48.445 121.572L55.3753 124.938L54.2871 126.027ZM50.3351 125.957L51.5188 124.773L49.3614 123.799L50.3351 125.957ZM57.4848 122.829L56.2629 124.051L49.4153 120.602L50.4972 119.52L55.442 122.008L52.96 117.057L54.0419 115.975L57.4848 122.829ZM59.2397 116.008L61.3462 113.902L63.8727 116.428L63.179 117.122L62.6317 116.766C62.5681 117.567 62.1926 118.312 61.5816 118.923C60.2388 120.266 58.2151 120.457 56.4587 118.7C54.7404 116.982 54.8868 114.914 56.2296 113.571C57.4133 112.387 59.0488 112.164 60.5316 113.125L59.3861 114.271C58.5969 113.889 57.8651 114.074 57.2987 114.64C56.5414 115.397 56.4714 116.498 57.566 117.593C58.6733 118.7 59.7552 118.624 60.5189 117.86C61.0534 117.326 61.2571 116.626 60.9262 115.849L60.0034 116.772L59.2397 116.008ZM66.5607 109.209L64.0979 111.672L63.1433 110.717L65.6062 108.254L66.5607 109.209ZM69.8731 100.144L70.9295 99.0873L76.078 104.236L75.0215 105.292L69.0267 104.287L72.495 107.819L71.445 108.869L66.2965 103.72L67.3466 102.67L73.3478 103.618L69.8731 100.144ZM74.5779 97.5136L74.0942 98.4173L75.1825 98.6018L75.0552 99.3018L73.9733 99.1109L74.1642 100.193L73.4642 100.32L73.2733 99.2255L72.3887 99.7028L72.0514 99.0727L72.9233 98.6082L72.166 97.8509L72.7196 97.2972L73.4769 98.0545L73.9479 97.1763L74.5779 97.5136ZM78.2614 95.892C79.2733 95.2492 80.527 94.4537 81.558 95.4847C82.5762 96.5029 82.5189 97.9857 81.0361 99.4685C79.8015 100.703 78.3123 100.754 77.3896 99.8312L77.2878 99.7294L78.5096 98.5075L78.6115 98.6094C79.0569 99.0548 79.687 98.7303 80.1643 98.253C80.6161 97.8011 80.9407 97.2093 80.4761 96.7447C80.0943 96.3629 79.4197 96.7829 78.6305 97.2666C77.6314 97.8839 76.3777 98.6539 75.4167 97.693C74.4176 96.6938 74.6022 95.211 75.8877 93.9255C77.0714 92.7418 78.5796 92.5954 79.547 93.5627L79.6488 93.6646L78.5224 94.791L78.4205 94.6892C78.0323 94.301 77.2878 94.5746 76.7977 95.0646C76.4668 95.3956 76.1422 96.0383 76.5113 96.4074C76.8741 96.7702 77.5169 96.3693 78.2614 95.892ZM78.2356 91.7812L82.964 87.0528L83.995 88.0838L82.2003 89.8784L86.3178 93.9959L85.1787 95.135L81.0612 91.0176L79.2665 92.8122L78.2356 91.7812ZM85.2855 84.7313C86.6347 83.3821 88.8875 83.4331 90.3067 84.8522C91.7322 86.2778 91.7831 88.5306 90.434 89.8798L88.4611 91.8526L83.3127 86.7041L85.2855 84.7313ZM85.4701 86.5832L88.582 89.6952L89.4539 88.8233C90.1158 88.1615 90.033 86.9332 89.3584 86.1187C89.3521 86.1123 89.3521 86.1123 89.3521 86.1123C89.3394 86.0996 89.333 86.0932 89.3203 86.0805C89.2884 86.0359 89.2503 85.9977 89.2057 85.9532C89.193 85.9405 89.1803 85.9277 89.1612 85.9086C88.3402 85.1386 87.0356 85.0177 86.3419 85.7114L85.4701 86.5832Z" fill="black"/>
<path d="M187.321 126.993L185.857 126.331L183.96 128.228L184.622 129.691L183.54 130.773L180.282 123.735L181.478 122.538L188.409 125.905L187.321 126.993ZM183.369 126.923L184.552 125.739L182.395 124.766L183.369 126.923ZM190.518 123.795L189.296 125.017L182.449 121.568L183.531 120.486L188.475 122.974L185.994 118.023L187.075 116.941L190.518 123.795ZM192.273 116.975L194.38 114.868L196.906 117.395L196.212 118.088L195.665 117.732C195.602 118.534 195.226 119.279 194.615 119.889C193.272 121.232 191.249 121.423 189.492 119.667C187.774 117.948 187.92 115.88 189.263 114.537C190.447 113.354 192.082 113.131 193.565 114.092L192.42 115.237C191.63 114.856 190.899 115.04 190.332 115.607C189.575 116.364 189.505 117.465 190.599 118.559C191.707 119.667 192.789 119.59 193.552 118.827C194.087 118.292 194.291 117.592 193.96 116.816L193.037 117.738L192.273 116.975ZM199.263 108.585L200.224 109.546L199.174 110.596L200.237 111.658L199.251 112.645L198.188 111.582L197.138 112.632L196.177 111.671L197.227 110.621L196.164 109.558L197.15 108.572L198.213 109.635L199.263 108.585ZM203.547 100.47L204.603 99.4137L209.752 104.562L208.695 105.619L202.7 104.613L206.169 108.145L205.119 109.195L199.97 104.047L201.02 102.997L207.021 103.945L203.547 100.47ZM208.252 97.84L207.768 98.7436L208.856 98.9282L208.729 99.6282L207.647 99.4373L207.838 100.519L207.138 100.646L206.947 99.5519L206.062 100.029L205.725 99.3991L206.597 98.9346L205.84 98.1772L206.393 97.6236L207.151 98.3809L207.621 97.5027L208.252 97.84ZM211.935 96.2183C212.947 95.5756 214.201 94.7801 215.232 95.811C216.25 96.8293 216.193 98.3121 214.71 99.7949C213.475 101.029 211.986 101.08 211.063 100.158L210.961 100.056L212.183 98.8339L212.285 98.9358C212.731 99.3812 213.361 99.0567 213.838 98.5794C214.29 98.1275 214.614 97.5357 214.15 97.0711C213.768 96.6893 213.093 97.1093 212.304 97.593C211.305 98.2103 210.051 98.9803 209.09 98.0193C208.091 97.0202 208.276 95.5374 209.561 94.2519C210.745 93.0682 212.253 92.9218 213.221 93.8891L213.322 93.991L212.196 95.1174L212.094 95.0156C211.706 94.6273 210.961 94.901 210.471 95.391C210.14 95.722 209.816 96.3647 210.185 96.7338C210.548 97.0966 211.19 96.6956 211.935 96.2183ZM211.909 92.1076L216.638 87.3792L217.669 88.4102L215.874 90.2048L219.991 94.3223L218.852 95.4614L214.735 91.3439L212.94 93.1386L211.909 92.1076ZM218.959 85.0577C220.308 83.7085 222.561 83.7594 223.98 85.1786C225.406 86.6041 225.457 88.857 224.108 90.2061L222.135 92.179L216.986 87.0305L218.959 85.0577ZM219.144 86.9096L222.256 90.0216L223.128 89.1497C223.789 88.4879 223.707 87.2596 223.032 86.445C223.026 86.4387 223.026 86.4387 223.026 86.4387C223.013 86.4259 223.007 86.4196 222.994 86.4069C222.962 86.3623 222.924 86.3241 222.879 86.2796C222.867 86.2668 222.854 86.2541 222.835 86.235C222.014 85.465 220.709 85.3441 220.016 86.0377L219.144 86.9096Z" fill="black"/>
<path d="M156.057 68L156.057 81" stroke="#9A9C9E" stroke-width="2" stroke-dasharray="4 4"/>
<path d="M87.0566 68L87.0566 81" stroke="#9A9C9E" stroke-width="2"/>
<path d="M221.057 81L221.057 68" stroke="#9A9C9E" stroke-width="2"/>
<path d="M27.8076 80.0547H280.832" stroke="#9A9C9E" stroke-width="2"/>
</svg>
