<svg width="308" height="241" viewBox="0 0 308 241" fill="none" xmlns="http://www.w3.org/2000/svg">
<rect width="308" height="241" fill="white"/>
<path d="M129.385 225V221.749H130.862C131.215 221.749 131.527 221.817 131.796 221.953C132.065 222.086 132.276 222.274 132.428 222.515C132.579 222.757 132.655 223.043 132.655 223.374C132.655 223.703 132.579 223.989 132.428 224.234C132.276 224.475 132.065 224.664 131.796 224.8C131.527 224.933 131.215 225 130.862 225H129.385ZM130.138 224.382H130.825C131.042 224.382 131.229 224.342 131.387 224.262C131.548 224.178 131.672 224.06 131.759 223.909C131.849 223.757 131.893 223.579 131.893 223.374C131.893 223.167 131.849 222.989 131.759 222.84C131.672 222.689 131.548 222.573 131.387 222.492C131.229 222.408 131.042 222.367 130.825 222.367H130.138V224.382ZM134.704 225V224.512L134.658 224.406V223.532C134.658 223.378 134.61 223.257 134.514 223.17C134.421 223.083 134.277 223.04 134.082 223.04C133.949 223.04 133.817 223.062 133.687 223.105C133.56 223.145 133.452 223.201 133.362 223.272L133.102 222.766C133.238 222.67 133.402 222.596 133.594 222.543C133.786 222.49 133.981 222.464 134.179 222.464C134.56 222.464 134.856 222.554 135.066 222.734C135.277 222.913 135.382 223.193 135.382 223.574V225H134.704ZM133.942 225.037C133.747 225.037 133.58 225.005 133.441 224.94C133.302 224.872 133.195 224.78 133.12 224.666C133.046 224.551 133.009 224.423 133.009 224.28C133.009 224.131 133.045 224.001 133.116 223.89C133.19 223.779 133.306 223.692 133.464 223.63C133.622 223.565 133.828 223.532 134.082 223.532H134.746V223.955H134.161C133.99 223.955 133.873 223.983 133.808 224.039C133.746 224.094 133.715 224.164 133.715 224.248C133.715 224.34 133.751 224.415 133.822 224.471C133.896 224.523 133.997 224.549 134.124 224.549C134.244 224.549 134.353 224.522 134.449 224.466C134.545 224.407 134.614 224.322 134.658 224.21L134.769 224.545C134.717 224.706 134.621 224.828 134.481 224.912C134.342 224.995 134.162 225.037 133.942 225.037ZM137.06 225.037C136.766 225.037 136.537 224.963 136.372 224.814C136.208 224.663 136.126 224.438 136.126 224.141V221.949H136.851V224.131C136.851 224.237 136.879 224.319 136.934 224.378C136.99 224.433 137.066 224.461 137.162 224.461C137.277 224.461 137.374 224.43 137.455 224.368L137.65 224.879C137.575 224.932 137.486 224.972 137.38 225C137.278 225.025 137.171 225.037 137.06 225.037ZM135.741 223.114V222.557H137.473V223.114H135.741ZM139.589 225V224.512L139.543 224.406V223.532C139.543 223.378 139.495 223.257 139.399 223.17C139.306 223.083 139.162 223.04 138.967 223.04C138.834 223.04 138.702 223.062 138.572 223.105C138.445 223.145 138.337 223.201 138.247 223.272L137.987 222.766C138.123 222.67 138.287 222.596 138.479 222.543C138.671 222.49 138.866 222.464 139.064 222.464C139.445 222.464 139.741 222.554 139.951 222.734C140.162 222.913 140.267 223.193 140.267 223.574V225H139.589ZM138.827 225.037C138.632 225.037 138.465 225.005 138.326 224.94C138.186 224.872 138.08 224.78 138.005 224.666C137.931 224.551 137.894 224.423 137.894 224.28C137.894 224.131 137.929 224.001 138.001 223.89C138.075 223.779 138.191 223.692 138.349 223.63C138.507 223.565 138.713 223.532 138.967 223.532H139.631V223.955H139.046C138.875 223.955 138.758 223.983 138.693 224.039C138.631 224.094 138.6 224.164 138.6 224.248C138.6 224.34 138.635 224.415 138.707 224.471C138.781 224.523 138.882 224.549 139.008 224.549C139.129 224.549 139.238 224.522 139.334 224.466C139.43 224.407 139.499 224.322 139.543 224.21L139.654 224.545C139.601 224.706 139.505 224.828 139.366 224.912C139.227 224.995 139.047 225.037 138.827 225.037ZM143.845 225.056C143.594 225.056 143.361 225.015 143.144 224.935C142.93 224.851 142.744 224.734 142.586 224.582C142.429 224.43 142.305 224.252 142.215 224.048C142.128 223.844 142.085 223.619 142.085 223.374C142.085 223.13 142.128 222.905 142.215 222.701C142.305 222.497 142.429 222.319 142.586 222.167C142.747 222.015 142.935 221.899 143.148 221.819C143.362 221.735 143.596 221.693 143.85 221.693C144.132 221.693 144.385 221.743 144.611 221.842C144.841 221.938 145.033 222.08 145.187 222.269L144.704 222.715C144.593 222.588 144.469 222.494 144.333 222.432C144.197 222.367 144.048 222.334 143.887 222.334C143.735 222.334 143.596 222.359 143.469 222.408C143.342 222.458 143.232 222.529 143.139 222.622C143.046 222.715 142.974 222.825 142.921 222.952C142.871 223.079 142.847 223.22 142.847 223.374C142.847 223.529 142.871 223.67 142.921 223.797C142.974 223.924 143.046 224.034 143.139 224.127C143.232 224.22 143.342 224.291 143.469 224.34C143.596 224.39 143.735 224.415 143.887 224.415C144.048 224.415 144.197 224.384 144.333 224.322C144.469 224.257 144.593 224.159 144.704 224.029L145.187 224.475C145.033 224.664 144.841 224.808 144.611 224.907C144.385 225.006 144.13 225.056 143.845 225.056ZM146.64 225.037C146.432 225.037 146.246 224.997 146.082 224.916C145.921 224.836 145.796 224.714 145.706 224.549C145.616 224.382 145.571 224.17 145.571 223.913V222.501H146.296V223.806C146.296 224.014 146.339 224.167 146.426 224.266C146.516 224.362 146.641 224.41 146.802 224.41C146.914 224.41 147.013 224.387 147.1 224.34C147.186 224.291 147.254 224.217 147.304 224.118C147.353 224.015 147.378 223.888 147.378 223.737V222.501H148.103V225H147.415V224.313L147.541 224.512C147.457 224.686 147.333 224.817 147.169 224.907C147.008 224.994 146.832 225.037 146.64 225.037ZM148.774 225V221.554H149.498V225H148.774ZM151.379 225.037C151.084 225.037 150.855 224.963 150.691 224.814C150.527 224.663 150.445 224.438 150.445 224.141V221.949H151.17V224.131C151.17 224.237 151.198 224.319 151.253 224.378C151.309 224.433 151.385 224.461 151.481 224.461C151.595 224.461 151.693 224.43 151.773 224.368L151.968 224.879C151.894 224.932 151.804 224.972 151.699 225C151.597 225.025 151.49 225.037 151.379 225.037ZM150.06 223.114V222.557H151.792V223.114H150.06ZM153.429 225.037C153.222 225.037 153.036 224.997 152.872 224.916C152.711 224.836 152.586 224.714 152.496 224.549C152.406 224.382 152.361 224.17 152.361 223.913V222.501H153.086V223.806C153.086 224.014 153.129 224.167 153.216 224.266C153.306 224.362 153.431 224.41 153.592 224.41C153.704 224.41 153.803 224.387 153.889 224.34C153.976 224.291 154.044 224.217 154.094 224.118C154.143 224.015 154.168 223.888 154.168 223.737V222.501H154.892V225H154.205V224.313L154.331 224.512C154.247 224.686 154.123 224.817 153.959 224.907C153.798 224.994 153.621 225.037 153.429 225.037ZM155.564 225V222.501H156.256V223.207L156.158 223.003C156.233 222.826 156.352 222.693 156.516 222.603C156.68 222.511 156.88 222.464 157.115 222.464V223.133C157.084 223.13 157.056 223.128 157.031 223.128C157.007 223.125 156.98 223.124 156.952 223.124C156.754 223.124 156.593 223.181 156.469 223.295C156.349 223.407 156.288 223.582 156.288 223.82V225H155.564ZM158.768 225.037C158.483 225.037 158.232 224.981 158.015 224.87C157.802 224.758 157.636 224.607 157.518 224.415C157.401 224.22 157.342 223.998 157.342 223.751C157.342 223.5 157.399 223.278 157.514 223.086C157.631 222.891 157.791 222.74 157.992 222.631C158.193 222.52 158.421 222.464 158.675 222.464C158.919 222.464 159.139 222.517 159.334 222.622C159.532 222.724 159.689 222.873 159.803 223.068C159.918 223.26 159.975 223.491 159.975 223.76C159.975 223.788 159.974 223.82 159.971 223.857C159.968 223.892 159.964 223.924 159.961 223.955H157.932V223.532H159.58L159.302 223.658C159.302 223.528 159.275 223.415 159.223 223.319C159.17 223.223 159.097 223.148 159.005 223.096C158.912 223.04 158.803 223.012 158.679 223.012C158.556 223.012 158.446 223.04 158.35 223.096C158.257 223.148 158.184 223.224 158.131 223.323C158.079 223.419 158.052 223.534 158.052 223.667V223.779C158.052 223.915 158.082 224.036 158.141 224.141C158.203 224.243 158.288 224.322 158.396 224.378C158.508 224.43 158.638 224.457 158.786 224.457C158.919 224.457 159.036 224.436 159.135 224.396C159.237 224.356 159.33 224.296 159.413 224.215L159.799 224.633C159.684 224.763 159.54 224.864 159.367 224.935C159.193 225.003 158.994 225.037 158.768 225.037ZM160.732 225.037C160.608 225.037 160.501 224.995 160.411 224.912C160.324 224.825 160.281 224.715 160.281 224.582C160.281 224.449 160.324 224.342 160.411 224.262C160.501 224.178 160.608 224.136 160.732 224.136C160.859 224.136 160.965 224.178 161.052 224.262C161.139 224.342 161.182 224.449 161.182 224.582C161.182 224.715 161.139 224.825 161.052 224.912C160.965 224.995 160.859 225.037 160.732 225.037ZM162.775 221.749H163.643L164.317 222.734L164.99 221.749H165.873L164.791 223.305L165.961 225H165.074L164.317 223.922L163.569 225H162.701L163.862 223.337L162.775 221.749ZM167.435 225.037C167.15 225.037 166.899 224.981 166.683 224.87C166.469 224.758 166.303 224.607 166.186 224.415C166.068 224.22 166.009 223.998 166.009 223.751C166.009 223.5 166.067 223.278 166.181 223.086C166.299 222.891 166.458 222.74 166.659 222.631C166.861 222.52 167.088 222.464 167.342 222.464C167.587 222.464 167.807 222.517 168.002 222.622C168.2 222.724 168.356 222.873 168.471 223.068C168.585 223.26 168.643 223.491 168.643 223.76C168.643 223.788 168.641 223.82 168.638 223.857C168.635 223.892 168.632 223.924 168.629 223.955H166.599V223.532H168.248L167.969 223.658C167.969 223.528 167.943 223.415 167.89 223.319C167.838 223.223 167.765 223.148 167.672 223.096C167.579 223.04 167.471 223.012 167.347 223.012C167.223 223.012 167.113 223.04 167.017 223.096C166.924 223.148 166.851 223.224 166.799 223.323C166.746 223.419 166.72 223.534 166.72 223.667V223.779C166.72 223.915 166.749 224.036 166.808 224.141C166.87 224.243 166.955 224.322 167.064 224.378C167.175 224.43 167.305 224.457 167.454 224.457C167.587 224.457 167.703 224.436 167.802 224.396C167.904 224.356 167.997 224.296 168.081 224.215L168.466 224.633C168.352 224.763 168.208 224.864 168.034 224.935C167.861 225.003 167.661 225.037 167.435 225.037ZM169.198 225V222.501H169.918V223.477H171.005V222.501H171.729V225H171.005V224.066H169.918V225H169.198ZM174.141 224.675V223.096H173.324L173.31 223.416C173.304 223.549 173.296 223.676 173.287 223.797C173.277 223.918 173.259 224.028 173.231 224.127C173.206 224.223 173.169 224.305 173.12 224.373C173.07 224.438 173.003 224.483 172.92 224.508L172.205 224.406C172.294 224.406 172.367 224.379 172.423 224.327C172.479 224.271 172.522 224.195 172.553 224.099C172.584 224 172.607 223.888 172.623 223.765C172.638 223.638 172.649 223.504 172.655 223.365L172.688 222.501H174.866V224.675H174.141ZM172.121 225.539V224.406H175.223V225.539H174.55V225H172.794V225.539H172.121ZM176.919 225.056C176.715 225.056 176.529 225.026 176.362 224.967C176.195 224.906 176.049 224.811 175.926 224.684C175.805 224.554 175.71 224.388 175.642 224.187C175.577 223.986 175.545 223.746 175.545 223.467C175.545 223.269 175.562 223.088 175.596 222.924C175.63 222.76 175.681 222.611 175.749 222.478C175.817 222.342 175.904 222.223 176.009 222.12C176.118 222.015 176.243 221.928 176.385 221.86C176.531 221.789 176.695 221.735 176.878 221.698L178.067 221.461L178.164 222.083L177.115 222.292C177.053 222.305 176.981 222.322 176.901 222.343C176.823 222.362 176.745 222.391 176.664 222.432C176.587 222.472 176.514 222.529 176.446 222.603C176.381 222.675 176.328 222.769 176.288 222.887C176.248 223.001 176.227 223.144 176.227 223.314C176.227 223.367 176.229 223.407 176.232 223.435C176.238 223.463 176.243 223.492 176.246 223.523C176.252 223.554 176.255 223.602 176.255 223.667L176.023 223.439C176.091 223.294 176.178 223.17 176.283 223.068C176.392 222.966 176.515 222.888 176.655 222.836C176.797 222.78 176.955 222.752 177.128 222.752C177.364 222.752 177.57 222.8 177.746 222.896C177.926 222.989 178.065 223.121 178.164 223.291C178.263 223.461 178.313 223.655 178.313 223.871C178.313 224.107 178.254 224.314 178.136 224.494C178.019 224.67 177.855 224.808 177.644 224.907C177.437 225.006 177.195 225.056 176.919 225.056ZM176.957 224.494C177.077 224.494 177.184 224.467 177.277 224.415C177.37 224.359 177.441 224.286 177.491 224.197C177.543 224.104 177.57 224 177.57 223.885C177.57 223.774 177.543 223.675 177.491 223.588C177.441 223.501 177.37 223.433 177.277 223.384C177.184 223.334 177.076 223.309 176.952 223.309C176.831 223.309 176.723 223.334 176.627 223.384C176.531 223.43 176.457 223.495 176.404 223.579C176.351 223.662 176.325 223.76 176.325 223.871C176.325 223.986 176.351 224.091 176.404 224.187C176.46 224.28 176.534 224.354 176.627 224.41C176.723 224.466 176.833 224.494 176.957 224.494ZM179.075 225.938C178.945 225.938 178.817 225.918 178.69 225.878C178.563 225.838 178.459 225.782 178.379 225.711L178.643 225.195C178.699 225.245 178.763 225.283 178.834 225.311C178.908 225.339 178.981 225.353 179.052 225.353C179.154 225.353 179.235 225.328 179.294 225.279C179.356 225.232 179.411 225.153 179.461 225.042L179.591 224.735L179.647 224.656L180.543 222.501H181.24L180.111 225.153C180.031 225.355 179.938 225.512 179.832 225.627C179.73 225.742 179.616 225.822 179.489 225.869C179.365 225.915 179.227 225.938 179.075 225.938ZM179.503 225.098L178.388 222.501H179.136L180 224.591L179.503 225.098ZM183.359 225L182.523 223.816L183.113 223.467L184.213 225H183.359ZM181.589 225V222.501H182.314V225H181.589ZM182.1 224.053V223.472H182.973V224.053H182.1ZM183.182 223.834L182.504 223.76L183.382 222.501H184.153L183.182 223.834ZM185.884 225V222.501H188.369V225H187.645V222.933L187.807 223.096H186.442L186.604 222.933V225H185.884ZM190.234 225.037C189.968 225.037 189.731 224.981 189.524 224.87C189.319 224.758 189.157 224.607 189.036 224.415C188.918 224.22 188.86 223.998 188.86 223.751C188.86 223.5 188.918 223.278 189.036 223.086C189.157 222.891 189.319 222.74 189.524 222.631C189.731 222.52 189.968 222.464 190.234 222.464C190.497 222.464 190.733 222.52 190.94 222.631C191.148 222.74 191.31 222.89 191.428 223.082C191.546 223.274 191.604 223.497 191.604 223.751C191.604 223.998 191.546 224.22 191.428 224.415C191.31 224.607 191.148 224.758 190.94 224.87C190.733 224.981 190.497 225.037 190.234 225.037ZM190.234 224.443C190.355 224.443 190.463 224.415 190.559 224.359C190.655 224.303 190.731 224.224 190.787 224.122C190.843 224.017 190.871 223.893 190.871 223.751C190.871 223.605 190.843 223.481 190.787 223.379C190.731 223.277 190.655 223.198 190.559 223.142C190.463 223.086 190.355 223.059 190.234 223.059C190.114 223.059 190.005 223.086 189.909 223.142C189.813 223.198 189.736 223.277 189.677 223.379C189.621 223.481 189.593 223.605 189.593 223.751C189.593 223.893 189.621 224.017 189.677 224.122C189.736 224.224 189.813 224.303 189.909 224.359C190.005 224.415 190.114 224.443 190.234 224.443ZM194.914 225V224.512L194.867 224.406V223.532C194.867 223.378 194.819 223.257 194.723 223.17C194.63 223.083 194.486 223.04 194.291 223.04C194.158 223.04 194.027 223.062 193.896 223.105C193.77 223.145 193.661 223.201 193.571 223.272L193.311 222.766C193.447 222.67 193.612 222.596 193.804 222.543C193.996 222.49 194.191 222.464 194.389 222.464C194.77 222.464 195.065 222.554 195.276 222.734C195.486 222.913 195.592 223.193 195.592 223.574V225H194.914ZM194.152 225.037C193.957 225.037 193.79 225.005 193.65 224.94C193.511 224.872 193.404 224.78 193.33 224.666C193.256 224.551 193.218 224.423 193.218 224.28C193.218 224.131 193.254 224.001 193.325 223.89C193.4 223.779 193.516 223.692 193.674 223.63C193.831 223.565 194.037 223.532 194.291 223.532H194.955V223.955H194.37C194.2 223.955 194.082 223.983 194.017 224.039C193.955 224.094 193.924 224.164 193.924 224.248C193.924 224.34 193.96 224.415 194.031 224.471C194.105 224.523 194.206 224.549 194.333 224.549C194.454 224.549 194.562 224.522 194.658 224.466C194.754 224.407 194.824 224.322 194.867 224.21L194.979 224.545C194.926 224.706 194.83 224.828 194.691 224.912C194.551 224.995 194.372 225.037 194.152 225.037ZM196.221 225V222.501H196.941V223.477H198.028V222.501H198.752V225H198.028V224.066H196.941V225H196.221ZM200.941 225V224.512L200.895 224.406V223.532C200.895 223.378 200.847 223.257 200.751 223.17C200.658 223.083 200.514 223.04 200.319 223.04C200.186 223.04 200.054 223.062 199.924 223.105C199.797 223.145 199.689 223.201 199.599 223.272L199.339 222.766C199.475 222.67 199.639 222.596 199.831 222.543C200.023 222.49 200.218 222.464 200.417 222.464C200.797 222.464 201.093 222.554 201.304 222.734C201.514 222.913 201.619 223.193 201.619 223.574V225H200.941ZM200.18 225.037C199.985 225.037 199.817 225.005 199.678 224.94C199.539 224.872 199.432 224.78 199.358 224.666C199.283 224.551 199.246 224.423 199.246 224.28C199.246 224.131 199.282 224.001 199.353 223.89C199.427 223.779 199.543 223.692 199.701 223.63C199.859 223.565 200.065 223.532 200.319 223.532H200.983V223.955H200.398C200.228 223.955 200.11 223.983 200.045 224.039C199.983 224.094 199.952 224.164 199.952 224.248C199.952 224.34 199.988 224.415 200.059 224.471C200.133 224.523 200.234 224.549 200.361 224.549C200.482 224.549 200.59 224.522 200.686 224.466C200.782 224.407 200.852 224.322 200.895 224.21L201.006 224.545C200.954 224.706 200.858 224.828 200.718 224.912C200.579 224.995 200.4 225.037 200.18 225.037ZM201.933 224.995L201.97 224.401C201.989 224.404 202.007 224.407 202.026 224.41C202.045 224.41 202.062 224.41 202.077 224.41C202.164 224.41 202.232 224.385 202.281 224.336C202.331 224.286 202.368 224.22 202.393 224.136C202.418 224.049 202.435 223.952 202.444 223.844C202.456 223.735 202.466 223.622 202.472 223.504L202.509 222.501H204.645V225H203.921V222.919L204.083 223.096H202.987L203.141 222.91L203.108 223.537C203.099 223.76 203.08 223.964 203.052 224.15C203.028 224.336 202.986 224.497 202.927 224.633C202.868 224.766 202.789 224.87 202.69 224.944C202.591 225.015 202.464 225.051 202.309 225.051C202.254 225.051 202.195 225.046 202.133 225.037C202.071 225.028 202.004 225.014 201.933 224.995ZM205.342 225V222.501H206.062V223.988L207.279 222.501H207.943V225H207.223V223.514L206.011 225H205.342ZM209.462 225.046C209.27 225.046 209.078 225.026 208.886 224.986C208.697 224.946 208.522 224.885 208.361 224.805L208.556 224.299C208.683 224.361 208.821 224.409 208.97 224.443C209.122 224.474 209.275 224.489 209.43 224.489C209.541 224.489 209.637 224.478 209.718 224.457C209.801 224.432 209.865 224.398 209.908 224.354C209.951 224.311 209.973 224.258 209.973 224.197C209.973 224.116 209.939 224.056 209.871 224.015C209.803 223.972 209.704 223.95 209.574 223.95H209.063V223.5H209.513C209.597 223.5 209.668 223.491 209.727 223.472C209.786 223.453 209.829 223.427 209.857 223.393C209.888 223.356 209.903 223.313 209.903 223.263C209.903 223.21 209.885 223.165 209.848 223.128C209.81 223.091 209.756 223.063 209.685 223.045C209.614 223.023 209.524 223.012 209.416 223.012C209.292 223.012 209.163 223.028 209.03 223.059C208.897 223.086 208.761 223.128 208.621 223.184L208.445 222.682C208.609 222.614 208.772 222.56 208.933 222.52C209.094 222.48 209.253 222.458 209.411 222.455C209.643 222.449 209.852 222.473 210.038 222.529C210.224 222.585 210.369 222.665 210.475 222.771C210.583 222.876 210.637 223.004 210.637 223.156C210.637 223.277 210.6 223.385 210.526 223.481C210.454 223.577 210.355 223.653 210.228 223.709C210.102 223.761 209.959 223.788 209.801 223.788L209.82 223.644C210.095 223.644 210.312 223.7 210.47 223.811C210.628 223.919 210.707 224.068 210.707 224.257C210.707 224.418 210.651 224.559 210.54 224.68C210.431 224.797 210.283 224.889 210.094 224.954C209.908 225.015 209.697 225.046 209.462 225.046ZM211.564 225.938C211.434 225.938 211.305 225.918 211.178 225.878C211.051 225.838 210.948 225.782 210.867 225.711L211.132 225.195C211.188 225.245 211.251 225.283 211.322 225.311C211.397 225.339 211.469 225.353 211.541 225.353C211.643 225.353 211.723 225.328 211.782 225.279C211.844 225.232 211.9 225.153 211.949 225.042L212.079 224.735L212.135 224.656L213.031 222.501H213.728L212.6 225.153C212.519 225.355 212.426 225.512 212.321 225.627C212.219 225.742 212.104 225.822 211.977 225.869C211.853 225.915 211.716 225.938 211.564 225.938ZM211.991 225.098L210.876 222.501H211.624L212.488 224.591L211.991 225.098ZM217.111 224.675V223.096H216.294L216.28 223.416C216.274 223.549 216.266 223.676 216.257 223.797C216.248 223.918 216.229 224.028 216.201 224.127C216.176 224.223 216.139 224.305 216.09 224.373C216.04 224.438 215.974 224.483 215.89 224.508L215.175 224.406C215.265 224.406 215.337 224.379 215.393 224.327C215.449 224.271 215.492 224.195 215.523 224.099C215.554 224 215.577 223.888 215.593 223.765C215.608 223.638 215.619 223.504 215.625 223.365L215.658 222.501H217.836V224.675H217.111ZM215.091 225.539V224.406H218.194V225.539H217.52V225H215.765V225.539H215.091ZM220.145 225V224.512L220.099 224.406V223.532C220.099 223.378 220.051 223.257 219.955 223.17C219.862 223.083 219.718 223.04 219.523 223.04C219.39 223.04 219.258 223.062 219.128 223.105C219.001 223.145 218.893 223.201 218.803 223.272L218.543 222.766C218.679 222.67 218.843 222.596 219.035 222.543C219.227 222.49 219.422 222.464 219.62 222.464C220.001 222.464 220.297 222.554 220.507 222.734C220.718 222.913 220.823 223.193 220.823 223.574V225H220.145ZM219.383 225.037C219.188 225.037 219.021 225.005 218.882 224.94C218.742 224.872 218.636 224.78 218.561 224.666C218.487 224.551 218.45 224.423 218.45 224.28C218.45 224.131 218.485 224.001 218.557 223.89C218.631 223.779 218.747 223.692 218.905 223.63C219.063 223.565 219.269 223.532 219.523 223.532H220.187V223.955H219.602C219.431 223.955 219.314 223.983 219.249 224.039C219.187 224.094 219.156 224.164 219.156 224.248C219.156 224.34 219.191 224.415 219.263 224.471C219.337 224.523 219.438 224.549 219.565 224.549C219.685 224.549 219.794 224.522 219.89 224.466C219.986 224.407 220.055 224.322 220.099 224.21L220.21 224.545C220.157 224.706 220.061 224.828 219.922 224.912C219.783 224.995 219.603 225.037 219.383 225.037ZM221.453 225V222.501H222.172V223.477H223.259V222.501H223.984V225H223.259V224.066H222.172V225H221.453ZM224.677 225V222.501H225.397V223.477H226.484V222.501H227.209V225H226.484V224.066H225.397V225H224.677ZM230.475 225V222.501H231.195V225H230.475ZM229.217 223.3C229.545 223.303 229.791 223.378 229.955 223.523C230.122 223.665 230.206 223.868 230.206 224.131C230.206 224.407 230.111 224.622 229.923 224.777C229.734 224.929 229.466 225.005 229.119 225.005L227.902 225V222.501H228.622V223.3H229.217ZM229.054 224.489C229.193 224.492 229.3 224.463 229.374 224.401C229.449 224.339 229.486 224.246 229.486 224.122C229.486 223.998 229.449 223.91 229.374 223.857C229.3 223.802 229.193 223.772 229.054 223.769L228.622 223.765V224.489H229.054ZM231.559 225L232.678 223.532L232.664 223.932L231.592 222.501H232.404L233.082 223.435L232.776 223.444L233.477 222.501H234.248L233.171 223.918V223.528L234.285 225H233.463L232.753 224.006L233.055 224.048L232.349 225H231.559ZM234.902 225.037C234.778 225.037 234.671 224.995 234.582 224.912C234.495 224.825 234.452 224.715 234.452 224.582C234.452 224.449 234.495 224.342 234.582 224.262C234.671 224.178 234.778 224.136 234.902 224.136C235.029 224.136 235.136 224.178 235.223 224.262C235.309 224.342 235.353 224.449 235.353 224.582C235.353 224.715 235.309 224.825 235.223 224.912C235.136 224.995 235.029 225.037 234.902 225.037ZM239.458 221.749H240.21V225H239.458V221.749ZM237.981 225H237.229V221.749H237.981V225ZM239.514 223.667H237.925V223.031H239.514V223.667ZM242.465 225V224.512L242.418 224.406V223.532C242.418 223.378 242.37 223.257 242.274 223.17C242.181 223.083 242.037 223.04 241.842 223.04C241.709 223.04 241.578 223.062 241.448 223.105C241.321 223.145 241.212 223.201 241.122 223.272L240.862 222.766C240.999 222.67 241.163 222.596 241.355 222.543C241.547 222.49 241.742 222.464 241.94 222.464C242.321 222.464 242.616 222.554 242.827 222.734C243.038 222.913 243.143 223.193 243.143 223.574V225H242.465ZM241.703 225.037C241.508 225.037 241.341 225.005 241.201 224.94C241.062 224.872 240.955 224.78 240.881 224.666C240.807 224.551 240.77 224.423 240.77 224.28C240.77 224.131 240.805 224.001 240.876 223.89C240.951 223.779 241.067 223.692 241.225 223.63C241.383 223.565 241.588 223.532 241.842 223.532H242.507V223.955H241.921C241.751 223.955 241.633 223.983 241.568 224.039C241.506 224.094 241.475 224.164 241.475 224.248C241.475 224.34 241.511 224.415 241.582 224.471C241.657 224.523 241.757 224.549 241.884 224.549C242.005 224.549 242.113 224.522 242.209 224.466C242.305 224.407 242.375 224.322 242.418 224.21L242.53 224.545C242.477 224.706 242.381 224.828 242.242 224.912C242.102 224.995 241.923 225.037 241.703 225.037ZM245.347 224.043C245.244 224.099 245.131 224.144 245.008 224.178C244.884 224.212 244.748 224.229 244.599 224.229C244.271 224.229 244.018 224.155 243.842 224.006C243.665 223.854 243.577 223.614 243.577 223.286V222.501H244.302V223.24C244.302 223.395 244.342 223.506 244.422 223.574C244.503 223.639 244.616 223.672 244.761 223.672C244.867 223.672 244.967 223.659 245.063 223.635C245.162 223.61 245.257 223.574 245.347 223.528V224.043ZM245.296 225V222.501H246.02V225H245.296ZM248.211 225V224.512L248.165 224.406V223.532C248.165 223.378 248.117 223.257 248.021 223.17C247.928 223.083 247.784 223.04 247.589 223.04C247.456 223.04 247.324 223.062 247.194 223.105C247.067 223.145 246.959 223.201 246.869 223.272L246.609 222.766C246.745 222.67 246.909 222.596 247.101 222.543C247.293 222.49 247.488 222.464 247.686 222.464C248.067 222.464 248.363 222.554 248.574 222.734C248.784 222.913 248.889 223.193 248.889 223.574V225H248.211ZM247.45 225.037C247.255 225.037 247.087 225.005 246.948 224.94C246.809 224.872 246.702 224.78 246.628 224.666C246.553 224.551 246.516 224.423 246.516 224.28C246.516 224.131 246.552 224.001 246.623 223.89C246.697 223.779 246.813 223.692 246.971 223.63C247.129 223.565 247.335 223.532 247.589 223.532H248.253V223.955H247.668C247.498 223.955 247.38 223.983 247.315 224.039C247.253 224.094 247.222 224.164 247.222 224.248C247.222 224.34 247.258 224.415 247.329 224.471C247.403 224.523 247.504 224.549 247.631 224.549C247.752 224.549 247.86 224.522 247.956 224.466C248.052 224.407 248.122 224.322 248.165 224.21L248.276 224.545C248.224 224.706 248.128 224.828 247.988 224.912C247.849 224.995 247.669 225.037 247.45 225.037ZM249.203 224.995L249.24 224.401C249.259 224.404 249.277 224.407 249.296 224.41C249.314 224.41 249.331 224.41 249.347 224.41C249.434 224.41 249.502 224.385 249.551 224.336C249.601 224.286 249.638 224.22 249.663 224.136C249.688 224.049 249.705 223.952 249.714 223.844C249.726 223.735 249.736 223.622 249.742 223.504L249.779 222.501H251.915V225H251.191V222.919L251.353 223.096H250.257L250.411 222.91L250.378 223.537C250.369 223.76 250.35 223.964 250.322 224.15C250.298 224.336 250.256 224.497 250.197 224.633C250.138 224.766 250.059 224.87 249.96 224.944C249.861 225.015 249.734 225.051 249.579 225.051C249.523 225.051 249.465 225.046 249.403 225.037C249.341 225.028 249.274 225.014 249.203 224.995ZM253.964 223.3C254.292 223.303 254.541 223.378 254.711 223.523C254.885 223.665 254.971 223.868 254.971 224.131C254.971 224.407 254.874 224.622 254.679 224.777C254.484 224.929 254.213 225.005 253.866 225.005L252.612 225V222.501H253.332V223.3H253.964ZM253.801 224.489C253.94 224.492 254.047 224.463 254.122 224.401C254.196 224.339 254.233 224.246 254.233 224.122C254.233 223.998 254.196 223.91 254.122 223.857C254.047 223.802 253.94 223.772 253.801 223.769L253.332 223.765V224.489H253.801ZM255.424 225V222.501H256.144V223.477H257.231V222.501H257.955V225H257.231V224.066H256.144V225H255.424ZM261.222 225V222.501H261.942V225H261.222ZM259.963 223.3C260.292 223.303 260.538 223.378 260.702 223.523C260.869 223.665 260.953 223.868 260.953 224.131C260.953 224.407 260.858 224.622 260.669 224.777C260.48 224.929 260.213 225.005 259.866 225.005L258.649 225V222.501H259.369V223.3H259.963ZM259.801 224.489C259.94 224.492 260.047 224.463 260.121 224.401C260.196 224.339 260.233 224.246 260.233 224.122C260.233 223.998 260.196 223.91 260.121 223.857C260.047 223.802 259.94 223.772 259.801 223.769L259.369 223.765V224.489H259.801ZM262.64 225V222.501H263.36V223.988L264.577 222.501H265.241V225H264.521V223.514L263.309 225H262.64ZM263.894 222.232C263.622 222.232 263.417 222.173 263.281 222.055C263.145 221.935 263.075 221.754 263.072 221.512H263.546C263.549 221.617 263.578 221.701 263.634 221.763C263.69 221.825 263.775 221.856 263.89 221.856C264.001 221.856 264.086 221.825 264.145 221.763C264.207 221.701 264.238 221.617 264.238 221.512H264.721C264.721 221.754 264.651 221.935 264.512 222.055C264.373 222.173 264.167 222.232 263.894 222.232ZM267.592 225.938C267.462 225.938 267.333 225.918 267.207 225.878C267.08 225.838 266.976 225.782 266.895 225.711L267.16 225.195C267.216 225.245 267.279 225.283 267.35 225.311C267.425 225.339 267.498 225.353 267.569 225.353C267.671 225.353 267.751 225.328 267.81 225.279C267.872 225.232 267.928 225.153 267.977 225.042L268.108 224.735L268.163 224.656L269.06 222.501H269.756L268.628 225.153C268.547 225.355 268.454 225.512 268.349 225.627C268.247 225.742 268.132 225.822 268.005 225.869C267.881 225.915 267.744 225.938 267.592 225.938ZM268.019 225.098L266.905 222.501H267.652L268.516 224.591L268.019 225.098ZM271.578 225.037C271.368 225.037 271.183 224.991 271.025 224.898C270.868 224.805 270.744 224.664 270.654 224.475C270.567 224.283 270.524 224.042 270.524 223.751C270.524 223.456 270.566 223.215 270.649 223.026C270.733 222.837 270.854 222.696 271.012 222.603C271.169 222.511 271.358 222.464 271.578 222.464C271.813 222.464 272.024 222.518 272.21 222.627C272.399 222.732 272.547 222.881 272.656 223.073C272.767 223.265 272.823 223.491 272.823 223.751C272.823 224.014 272.767 224.241 272.656 224.433C272.547 224.625 272.399 224.774 272.21 224.879C272.024 224.985 271.813 225.037 271.578 225.037ZM270.101 225.901V222.501H270.793V223.012L270.779 223.755L270.826 224.494V225.901H270.101ZM271.453 224.443C271.573 224.443 271.68 224.415 271.773 224.359C271.869 224.303 271.945 224.224 272.001 224.122C272.06 224.017 272.089 223.893 272.089 223.751C272.089 223.605 272.06 223.481 272.001 223.379C271.945 223.277 271.869 223.198 271.773 223.142C271.68 223.086 271.573 223.059 271.453 223.059C271.332 223.059 271.224 223.086 271.128 223.142C271.032 223.198 270.956 223.277 270.9 223.379C270.844 223.481 270.816 223.605 270.816 223.751C270.816 223.893 270.844 224.017 270.9 224.122C270.956 224.224 271.032 224.303 271.128 224.359C271.224 224.415 271.332 224.443 271.453 224.443ZM274.501 225.037C274.235 225.037 273.998 224.981 273.79 224.87C273.586 224.758 273.424 224.607 273.303 224.415C273.185 224.22 273.126 223.998 273.126 223.751C273.126 223.5 273.185 223.278 273.303 223.086C273.424 222.891 273.586 222.74 273.79 222.631C273.998 222.52 274.235 222.464 274.501 222.464C274.764 222.464 275 222.52 275.207 222.631C275.414 222.74 275.577 222.89 275.695 223.082C275.812 223.274 275.871 223.497 275.871 223.751C275.871 223.998 275.812 224.22 275.695 224.415C275.577 224.607 275.414 224.758 275.207 224.87C275 224.981 274.764 225.037 274.501 225.037ZM274.501 224.443C274.622 224.443 274.73 224.415 274.826 224.359C274.922 224.303 274.998 224.224 275.054 224.122C275.109 224.017 275.137 223.893 275.137 223.751C275.137 223.605 275.109 223.481 275.054 223.379C274.998 223.277 274.922 223.198 274.826 223.142C274.73 223.086 274.622 223.059 274.501 223.059C274.38 223.059 274.272 223.086 274.176 223.142C274.08 223.198 274.003 223.277 273.944 223.379C273.888 223.481 273.86 223.605 273.86 223.751C273.86 223.893 273.888 224.017 273.944 224.122C274.003 224.224 274.08 224.303 274.176 224.359C274.272 224.415 274.38 224.443 274.501 224.443ZM276.369 225V222.501H277.647C277.959 222.501 278.204 222.559 278.381 222.673C278.557 222.785 278.645 222.943 278.645 223.147C278.645 223.351 278.562 223.512 278.394 223.63C278.23 223.744 278.012 223.802 277.74 223.802L277.814 223.635C278.117 223.635 278.343 223.69 278.492 223.802C278.644 223.913 278.72 224.076 278.72 224.289C278.72 224.509 278.636 224.683 278.469 224.81C278.302 224.937 278.046 225 277.702 225H276.369ZM277.034 224.508H277.642C277.775 224.508 277.874 224.486 277.939 224.443C278.007 224.396 278.041 224.327 278.041 224.234C278.041 224.138 278.011 224.068 277.949 224.025C277.887 223.978 277.789 223.955 277.656 223.955H277.034V224.508ZM277.034 223.528H277.582C277.709 223.528 277.803 223.504 277.865 223.458C277.93 223.412 277.963 223.345 277.963 223.258C277.963 223.169 277.93 223.102 277.865 223.059C277.803 223.015 277.709 222.994 277.582 222.994H277.034V223.528ZM280.48 225.037C280.195 225.037 279.944 224.981 279.728 224.87C279.514 224.758 279.348 224.607 279.231 224.415C279.113 224.22 279.054 223.998 279.054 223.751C279.054 223.5 279.112 223.278 279.226 223.086C279.344 222.891 279.503 222.74 279.705 222.631C279.906 222.52 280.133 222.464 280.387 222.464C280.632 222.464 280.852 222.517 281.047 222.622C281.245 222.724 281.401 222.873 281.516 223.068C281.63 223.26 281.688 223.491 281.688 223.76C281.688 223.788 281.686 223.82 281.683 223.857C281.68 223.892 281.677 223.924 281.674 223.955H279.644V223.532H281.293L281.014 223.658C281.014 223.528 280.988 223.415 280.935 223.319C280.883 223.223 280.81 223.148 280.717 223.096C280.624 223.04 280.516 223.012 280.392 223.012C280.268 223.012 280.158 223.04 280.062 223.096C279.969 223.148 279.896 223.224 279.844 223.323C279.791 223.419 279.765 223.534 279.765 223.667V223.779C279.765 223.915 279.794 224.036 279.853 224.141C279.915 224.243 280 224.322 280.109 224.378C280.22 224.43 280.35 224.457 280.499 224.457C280.632 224.457 280.748 224.436 280.847 224.396C280.949 224.356 281.042 224.296 281.126 224.215L281.511 224.633C281.397 224.763 281.253 224.864 281.079 224.935C280.906 225.003 280.706 225.037 280.48 225.037ZM282.243 225V222.501H282.963V223.477H284.05V222.501H284.774V225H284.05V224.066H282.963V225H282.243ZM286.819 223.3C287.148 223.303 287.397 223.378 287.567 223.523C287.741 223.665 287.827 223.868 287.827 224.131C287.827 224.407 287.73 224.622 287.535 224.777C287.34 224.929 287.069 225.005 286.722 225.005L285.468 225V222.501H286.188V223.3H286.819ZM286.657 224.489C286.796 224.492 286.903 224.463 286.977 224.401C287.052 224.339 287.089 224.246 287.089 224.122C287.089 223.998 287.052 223.91 286.977 223.857C286.903 223.802 286.796 223.772 286.657 223.769L286.188 223.765V224.489H286.657Z" fill="#D8D8D8"/>
<path d="M280.198 167V162L286.198 164.609L280.198 167Z" fill="#9A9C9E" stroke="#9A9C9E" stroke-width="2"/>
<path d="M130.449 204.258L124.117 201.489L128.667 206.04L128.146 206.562L122.997 201.413L123.831 200.579L129.953 203.278L127.242 197.168L128.082 196.328L133.23 201.477L132.702 202.005L128.158 197.448L130.927 203.781L130.449 204.258ZM129.795 195.621L131.431 197.256L133.906 194.781L134.409 195.283L131.921 197.746L133.944 199.77L136.885 196.83L137.381 197.326L133.925 200.782L128.777 195.633L132.233 192.178L132.735 192.68L129.795 195.621ZM141.085 192.655L136.917 188.486L134.906 190.497L135.784 191.376C136.738 192.292 137.992 193.978 138.508 195.232L141.085 192.655ZM141.594 192.158L142.619 191.134L144.133 192.648L143.631 193.151L142.6 192.12L138.024 196.696L139.055 197.727L138.559 198.223L137.044 196.709L137.827 195.926C137.846 195.003 136.579 193.215 135.332 191.942L133.907 190.516L136.929 187.494L141.594 192.158ZM142.683 182.923L144.096 190.611L143.422 191.286L138.273 186.137L138.795 185.615L143.345 190.166L141.92 182.491L142.607 181.803L147.755 186.952L147.234 187.474L142.683 182.923ZM149.983 181.771L147.711 184.043L148.659 186.048L148.112 186.595L144.885 179.525L145.471 178.939L152.548 182.16L151.988 182.72L149.983 181.771ZM145.662 179.716L147.386 183.362L149.302 181.447L145.662 179.716ZM156.342 178.365L153.828 175.851L150.901 178.779L153.415 181.292L152.893 181.814L147.744 176.666L148.266 176.144L150.405 178.282L153.332 175.355L151.194 173.216L151.716 172.695L156.864 177.843L156.342 178.365ZM159.088 172.667L156.816 174.939L157.764 176.943L157.217 177.491L153.99 170.42L154.576 169.835L161.652 173.055L161.092 173.615L159.088 172.667ZM154.766 170.611L156.491 174.258L158.407 172.342L154.766 170.611Z" fill="black"/>
<path d="M33.6348 186.265L27.3026 183.496L31.8529 188.047L31.331 188.568L26.1826 183.42L27.0163 182.586L33.1384 185.285L30.4274 179.175L31.2674 178.335L36.4158 183.484L35.8876 184.012L31.3438 179.455L34.1121 185.787L33.6348 186.265ZM36.3726 174.426L37.7854 182.114L37.1108 182.789L31.9624 177.64L32.4842 177.118L37.0344 181.669L35.6089 173.994L36.2962 173.306L41.4447 178.455L40.9228 178.977L36.3726 174.426ZM45.5941 174.305L43.0803 171.792L40.1529 174.719L42.6666 177.233L42.1448 177.755L36.9964 172.606L37.5182 172.084L39.6565 174.223L42.5839 171.295L40.4456 169.157L40.9675 168.635L46.1159 173.784L45.5941 174.305Z" fill="black"/>
<path d="M36.6476 198.11C37.6595 199.122 38.0031 200.127 37.9522 201.031L38.9387 201.088L38.8877 201.826L37.8059 201.763C37.6277 202.323 37.3031 202.813 36.9022 203.214C35.4257 204.69 33.4275 204.588 31.7983 202.959C30.9646 202.125 30.5191 201.196 30.5064 200.242C30.5 199.37 30.8691 198.53 31.5437 197.855C33.0138 196.385 34.993 196.455 36.6476 198.11ZM36.3803 202.692C36.6858 202.386 36.9022 202.055 37.0486 201.718L35.2985 201.61L35.343 200.878L37.2077 200.986C37.2522 200.216 36.8895 199.408 36.1194 198.638C34.5157 197.034 32.9947 197.448 32.0656 198.377C31.1301 199.313 30.7737 200.891 32.3201 202.437C33.9111 204.028 35.4448 203.627 36.3803 202.692ZM42.6958 197.204L39.5584 200.341L39.0365 199.819L40.4875 198.381L36.4528 194.346L35.9755 196.593L35.3836 195.988L35.8673 193.735L36.3955 193.207L41.0221 197.834L42.174 196.682L42.6958 197.204ZM43.0857 191.684L40.6229 194.147L40.1201 193.645L42.583 191.182L43.0857 191.684ZM49.0846 190.815L45.9472 193.952L45.4254 193.43L46.8763 191.992L42.8416 187.957L42.3643 190.204L41.7725 189.599L42.2561 187.346L42.7843 186.818L47.4109 191.445L48.5628 190.293L49.0846 190.815ZM50.2764 189.623L49.5955 190.304L48.8954 189.604L49.5764 188.923L50.2764 189.623ZM52.4542 187.649C51.7159 188.502 50.3731 188.852 49.5586 188.037L50.1059 187.49C50.3859 187.77 51.1559 187.942 51.8623 187.184C52.5751 186.433 52.4414 185.562 51.6587 184.779C51.0286 184.149 50.214 184.085 49.5204 184.766C48.8331 185.441 48.8776 185.969 49.1004 186.306L48.604 186.803L45.6956 183.894L48.5531 181.037L49.0749 181.559L46.7075 183.926L48.4385 185.657C48.4385 185.657 48.2667 185.052 49.0876 184.232C50.0104 183.309 51.2577 183.398 52.1487 184.289C53.4979 185.638 53.1542 186.834 52.4542 187.649ZM52.2701 179.242L51.691 180.33L52.9956 180.553L52.9129 180.992L51.6146 180.763L51.8374 182.067L51.4046 182.144L51.1819 180.839L50.1064 181.405L49.8963 181.017L50.9464 180.464L50.0427 179.56L50.4182 179.184L51.3219 180.088L51.8819 179.032L52.2701 179.242ZM59.0769 175.681C60.0887 176.692 60.4324 177.698 60.3815 178.602L61.3679 178.659L61.317 179.397L60.2351 179.333C60.0569 179.893 59.7323 180.384 59.3314 180.784C57.855 182.261 55.8567 182.159 54.2275 180.53C53.3938 179.696 52.9484 178.767 52.9356 177.812C52.9293 176.941 53.2984 176.101 53.973 175.426C55.443 173.956 57.4222 174.026 59.0769 175.681ZM58.8096 180.263C59.115 179.957 59.3314 179.626 59.4778 179.289L57.7277 179.181L57.7722 178.449L59.6369 178.557C59.6814 177.787 59.3187 176.979 58.5486 176.209C56.9449 174.605 55.4239 175.019 54.4948 175.948C53.5593 176.883 53.2029 178.462 54.7494 180.008C56.3404 181.599 57.8741 181.198 58.8096 180.263ZM62.5986 172.808L66.1051 173.807L65.4942 174.418L62.0004 173.406L62.5986 172.808ZM62.2931 170.211C63.375 171.293 62.9231 172.369 62.5986 172.808L60.8548 174.552L60.4603 174.946L62.7131 177.199L62.1849 177.727L57.0365 172.579L59.1557 170.447C59.8048 169.798 61.2112 169.13 62.2931 170.211ZM61.6376 172.725C62.344 172.019 62.4267 171.389 61.7712 170.733C61.2176 170.18 60.3457 170.326 59.7921 170.88L58.0929 172.579L59.9384 174.424L61.6376 172.725Z" fill="black"/>
<path d="M253.721 190.058L247.389 187.289L251.939 191.839L251.417 192.361L246.269 187.213L247.102 186.379L253.224 189.077L250.513 182.968L251.353 182.128L256.502 187.276L255.974 187.805L251.43 183.248L254.198 189.58L253.721 190.058ZM258.724 182.101L256.452 184.373L257.401 186.378L256.853 186.925L253.627 179.855L254.212 179.269L261.289 182.49L260.729 183.05L258.724 182.101ZM254.403 180.046L256.128 183.692L258.043 181.777L254.403 180.046ZM259.852 179.331L259.611 173.871L260.317 173.165L260.495 177.148L265.701 178.078L265.071 178.708L260.527 177.893L260.622 180.101L262.15 181.629L261.634 182.144L256.486 176.996L257.001 176.48L259.852 179.331ZM267.838 172.185L268.373 171.651C269.557 173.356 269.009 174.973 267.991 175.991C266.515 177.467 264.516 177.366 262.887 175.736C262.06 174.909 261.614 173.967 261.602 173.025C261.595 172.153 261.958 171.307 262.633 170.632C263.842 169.423 265.388 169.264 266.82 170.162L266.286 170.696C265.038 169.996 263.899 170.41 263.154 171.154C262.219 172.09 261.863 173.668 263.409 175.215C265.006 176.812 266.534 176.405 267.469 175.469C268.437 174.502 268.577 173.331 267.838 172.185Z" fill="black"/>
<path d="M111.696 57L111.696 164.852" stroke="#9A9C9E" stroke-width="2" stroke-dasharray="6 6"/>
<path d="M155.808 78.5L155.808 164.852" stroke="#DCFF00" stroke-width="2" stroke-dasharray="4 4"/>
<path d="M195.692 57.8521L195.692 164.852" stroke="#9A9C9E" stroke-width="2" stroke-dasharray="6 6"/>
<path d="M61.6934 106.852L61.6934 164.852" stroke="#9A9C9E" stroke-width="2" stroke-dasharray="4 4"/>
<path d="M41.6934 36.8521L41.6934 164.852" stroke="#9A9C9E" stroke-width="2" stroke-dasharray="4 4"/>
<path d="M265.693 36.8521L265.693 164.852" stroke="#9A9C9E" stroke-width="2" stroke-dasharray="4 4"/>
<path d="M245.808 165L245.808 37" stroke="#9A9C9E" stroke-width="2" stroke-dasharray="4 4"/>
<path d="M110.339 173.19C111.351 174.201 111.695 175.207 111.644 176.111L112.63 176.168L112.579 176.906L111.498 176.842C111.319 177.402 110.995 177.893 110.594 178.293C109.117 179.77 107.119 179.668 105.49 178.039C104.656 177.205 104.211 176.276 104.198 175.321C104.192 174.45 104.561 173.61 105.235 172.935C106.706 171.465 108.685 171.535 110.339 173.19ZM110.072 177.772C110.378 177.466 110.594 177.135 110.74 176.798L108.99 176.69L109.035 175.958L110.899 176.066C110.944 175.296 110.581 174.488 109.811 173.718C108.207 172.114 106.686 172.528 105.757 173.457C104.822 174.392 104.465 175.971 106.012 177.517C107.603 179.108 109.137 178.707 110.072 177.772ZM116.388 172.283L113.25 175.421L112.728 174.899L114.179 173.461L110.145 169.426L109.667 171.672L109.075 171.068L109.559 168.815L110.087 168.287L114.714 172.913L115.866 171.762L116.388 172.283Z" fill="black"/>
<path d="M193.295 174.23C194.307 175.242 194.651 176.247 194.6 177.151L195.586 177.208L195.535 177.946L194.453 177.883C194.275 178.443 193.951 178.933 193.55 179.334C192.073 180.81 190.075 180.708 188.446 179.079C187.612 178.246 187.167 177.316 187.154 176.362C187.147 175.49 187.517 174.65 188.191 173.975C189.661 172.505 191.64 172.575 193.295 174.23ZM193.028 178.812C193.333 178.507 193.55 178.176 193.696 177.838L191.946 177.73L191.99 176.998L193.855 177.106C193.9 176.336 193.537 175.528 192.767 174.758C191.163 173.154 189.642 173.568 188.713 174.497C187.777 175.433 187.421 177.011 188.968 178.557C190.559 180.148 192.092 179.747 193.028 178.812ZM195.608 171.306C195.608 171.306 196.766 170.365 198.02 171.618C199.101 172.7 199 173.871 197.943 174.928C196.982 175.888 195.811 175.978 194.857 175.125L195.366 174.616C196.238 175.144 196.785 175.068 197.574 174.278C198.268 173.585 198.102 172.745 197.415 172.057C196.976 171.618 196.129 171.446 195.226 172.172L194.768 171.714C195.258 171.058 195.238 170.505 194.863 170.129C194.227 169.493 193.622 169.575 193.062 170.135C192.591 170.606 192.572 171.071 192.884 171.612L192.368 172.127C191.745 171.402 191.726 170.428 192.54 169.614C193.527 168.627 194.621 168.831 195.264 169.474C196.269 170.479 195.608 171.306 195.608 171.306Z" fill="black"/>
<path d="M147.781 60H147.043V52.719H147.781V60ZM155.372 56.364C155.372 57.795 154.904 58.749 154.229 59.352L154.886 60.09L154.328 60.576L153.608 59.766C153.086 60.036 152.51 60.153 151.943 60.153C149.855 60.153 148.514 58.668 148.514 56.364C148.514 55.185 148.856 54.213 149.522 53.529C150.134 52.908 150.989 52.575 151.943 52.575C154.022 52.575 155.372 54.024 155.372 56.364ZM151.943 59.415C152.375 59.415 152.762 59.334 153.104 59.199L151.943 57.885L152.492 57.399L153.734 58.794C154.31 58.281 154.625 57.453 154.625 56.364C154.625 54.096 153.257 53.313 151.943 53.313C150.62 53.313 149.252 54.177 149.252 56.364C149.252 58.614 150.62 59.415 151.943 59.415ZM159.893 56.823L161.666 60.009H160.802L159.047 56.823H159.893ZM161.513 54.771C161.513 56.301 160.433 56.742 159.893 56.823H157.427H156.869V60.009H156.122V52.728L159.128 52.719C160.046 52.719 161.513 53.241 161.513 54.771ZM159.272 56.085C160.271 56.085 160.775 55.698 160.775 54.771C160.775 53.988 160.055 53.475 159.272 53.475H156.869V56.085H159.272Z" fill="black"/>
<path d="M138.64 32.719C140.188 32.719 141.025 33.826 141.025 34.87C141.025 35.914 140.206 36.976 138.649 36.976H136.435V40H135.688V32.719H138.64ZM138.784 36.238C139.495 36.238 140.296 35.788 140.296 34.87C140.296 33.934 139.486 33.457 138.784 33.457H136.435V36.238H138.784ZM145.077 37.912H141.864L141.117 40H140.343L143.061 32.719H143.889L146.616 40H145.824L145.077 37.912ZM143.475 33.403L142.116 37.201H144.825L143.475 33.403ZM152.082 38.002C152.082 39.469 151.191 40.144 149.499 40.144C146.817 40.144 146.754 38.488 146.754 37.822H147.438C147.438 38.2 147.528 39.442 149.4 39.442C151.038 39.442 151.47 38.659 151.371 37.822C151.299 37.192 150.57 36.652 149.274 36.652V35.977C151.074 35.977 151.182 34.933 151.182 34.546C151.182 33.673 150.345 33.286 149.598 33.286C148.401 33.286 147.87 33.952 147.762 34.699H147.024C147.105 33.601 147.906 32.575 149.49 32.575C151.173 32.575 151.902 33.43 151.902 34.717C151.902 35.968 150.795 36.301 150.795 36.301C150.795 36.301 152.082 36.481 152.082 38.002ZM156.128 40L153.608 33.565V40H152.87V32.719H154.049L156.47 38.956L158.873 32.719H160.061V40H159.314L159.323 33.565L156.803 40H156.128ZM165.292 37.912H162.079L161.332 40H160.558L163.276 32.719H164.104L166.831 40H166.039L165.292 37.912ZM163.69 33.403L162.331 37.201H165.04L163.69 33.403ZM170.612 36.409L173.114 40H172.214L170.162 37.048L168.119 40H167.219L169.721 36.409L167.156 32.719H168.056L170.162 35.761L172.277 32.719H173.168L170.612 36.409Z" fill="black"/>
<path d="M176.986 58.5592C176.596 58.1686 176.596 57.5355 176.986 57.1449L183.35 50.781C183.741 50.3905 184.374 50.3905 184.764 50.781C185.155 51.1715 185.155 51.8047 184.764 52.1952L179.108 57.8521L184.764 63.5089C185.155 63.8994 185.155 64.5326 184.764 64.9231C184.374 65.3136 183.741 65.3136 183.35 64.9231L176.986 58.5592ZM195.679 56.8521H196.679V58.8521H195.679V56.8521ZM177.693 57.8521V56.8521H195.679V57.8521V58.8521H177.693V57.8521Z" fill="#9A9C9E"/>
<path d="M131.015 57.2929C131.405 57.6834 131.405 58.3166 131.015 58.7071L124.651 65.0711C124.26 65.4616 123.627 65.4616 123.237 65.0711C122.846 64.6805 122.846 64.0474 123.237 63.6569L128.893 58L123.237 52.3431C122.846 51.9526 122.846 51.3195 123.237 50.9289C123.627 50.5384 124.26 50.5384 124.651 50.9289L131.015 57.2929ZM110.808 58V57H130.308V58V59H110.808V58Z" fill="#9A9C9E"/>
<path d="M265.192 36.8521H266.192V38.8521H265.192V36.8521ZM186.985 38.5592C186.595 38.1686 186.595 37.5355 186.985 37.1449L193.349 30.781C193.74 30.3905 194.373 30.3905 194.763 30.781C195.154 31.1715 195.154 31.8047 194.763 32.1952L189.107 37.8521L194.763 43.5089C195.154 43.8994 195.154 44.5326 194.763 44.9231C194.373 45.3136 193.74 45.3136 193.349 44.9231L186.985 38.5592ZM187.692 37.8521V36.8521H265.192V37.8521V38.8521H187.692V37.8521Z" fill="#9A9C9E"/>
<path d="M42.1924 38.8521H41.1924V36.8521H42.1924V38.8521ZM121.399 37.1449C121.79 37.5355 121.79 38.1686 121.399 38.5592L115.036 44.9231C114.645 45.3136 114.012 45.3136 113.621 44.9231C113.231 44.5326 113.231 43.8994 113.621 43.5089L119.278 37.8521L113.621 32.1952C113.231 31.8047 113.231 31.1715 113.621 30.781C114.012 30.3905 114.645 30.3905 115.036 30.781L121.399 37.1449ZM42.1924 37.8521V36.8521H120.692V37.8521V38.8521H42.1924V37.8521Z" fill="#9A9C9E"/>
<path d="M20.8076 165.055H279.832" stroke="#9A9C9E" stroke-width="2"/>
<path d="M60.8076 100H245.832" stroke="#9A9C9E" stroke-width="2"/>
<path d="M195.615 79V121H111.592V79H195.615Z" fill="white" stroke="#9A9C9E" stroke-width="2"/>
<mask id="path-25-outside-1_135_955" maskUnits="userSpaceOnUse" x="60.8076" y="91" width="186" height="19" fill="black">
<rect fill="white" x="60.8076" y="91" width="186" height="19"/>
<path d="M62.8076 91H244.808V110H62.8076V91Z"/>
</mask>
<path d="M244.808 91H242.808V110H244.808H246.808V91H244.808ZM62.8076 110H64.8076V91H62.8076H60.8076V110H62.8076Z" fill="#9A9C9E" mask="url(#path-25-outside-1_135_955)"/>
<path d="M155.808 78L155.808 122" stroke="#DCFF00" stroke-width="2"/>
<path d="M220.7 198.058C221.712 199.07 222.055 200.075 222.004 200.979L222.991 201.036L222.94 201.774L221.858 201.711C221.68 202.271 221.355 202.761 220.954 203.162C219.478 204.638 217.48 204.536 215.85 202.907C215.017 202.073 214.571 201.144 214.559 200.19C214.552 199.318 214.921 198.478 215.596 197.803C217.066 196.333 219.045 196.403 220.7 198.058ZM220.432 202.64C220.738 202.334 220.954 202.003 221.101 201.666L219.351 201.558L219.395 200.826L221.26 200.934C221.304 200.164 220.942 199.356 220.172 198.586C218.568 196.982 217.047 197.396 216.118 198.325C215.182 199.26 214.826 200.839 216.372 202.385C217.963 203.976 219.497 203.575 220.432 202.64ZM226.748 197.152L223.611 200.289L223.089 199.767L224.54 198.329L220.505 194.294L220.028 196.541L219.436 195.936L219.919 193.683L220.448 193.155L225.074 197.782L226.226 196.63L226.748 197.152ZM227.246 190.519L227.749 191.021L226.463 192.307L227.755 193.599L227.24 194.114L225.948 192.822L224.662 194.108L224.16 193.605L225.445 192.32L224.153 191.028L224.669 190.512L225.961 191.804L227.246 190.519ZM233.74 190.16L230.602 193.297L230.08 192.775L231.531 191.337L227.497 187.302L227.019 189.549L226.427 188.944L226.911 186.692L227.439 186.163L232.066 190.79L233.218 189.638L233.74 190.16ZM234.931 188.968L234.25 189.649L233.55 188.949L234.231 188.268L234.931 188.968ZM237.109 186.994C236.371 187.847 235.028 188.197 234.214 187.382L234.761 186.835C235.041 187.115 235.811 187.287 236.517 186.529C237.23 185.778 237.096 184.907 236.314 184.124C235.684 183.494 234.869 183.43 234.175 184.111C233.488 184.786 233.533 185.314 233.755 185.651L233.259 186.148L230.351 183.239L233.208 180.382L233.73 180.904L231.362 183.271L233.093 185.002C233.093 185.002 232.922 184.398 233.743 183.577C234.665 182.654 235.913 182.743 236.804 183.634C238.153 184.983 237.809 186.179 237.109 186.994ZM236.925 178.587L236.346 179.675L237.651 179.898L237.568 180.337L236.27 180.108L236.492 181.412L236.06 181.489L235.837 180.184L234.761 180.75L234.551 180.362L235.601 179.809L234.698 178.905L235.073 178.529L235.977 179.433L236.537 178.377L236.925 178.587ZM243.732 175.026C244.744 176.037 245.087 177.043 245.036 177.947L246.023 178.004L245.972 178.742L244.89 178.678C244.712 179.239 244.387 179.729 243.986 180.129C242.51 181.606 240.512 181.504 238.882 179.875C238.049 179.041 237.603 178.112 237.591 177.158C237.584 176.286 237.953 175.446 238.628 174.771C240.098 173.301 242.077 173.371 243.732 175.026ZM243.465 179.608C243.77 179.302 243.986 178.971 244.133 178.634L242.383 178.526L242.427 177.794L244.292 177.902C244.336 177.132 243.974 176.324 243.204 175.554C241.6 173.95 240.079 174.364 239.15 175.293C238.214 176.228 237.858 177.807 239.404 179.353C240.995 180.944 242.529 180.543 243.465 179.608ZM247.254 172.153L250.76 173.152L250.149 173.763L246.655 172.751L247.254 172.153ZM246.948 169.557C248.03 170.638 247.578 171.714 247.254 172.153L245.51 173.897L245.115 174.291L247.368 176.544L246.84 177.072L241.691 171.924L243.811 169.792C244.46 169.143 245.866 168.475 246.948 169.557ZM246.293 172.07C246.999 171.364 247.082 170.734 246.426 170.078C245.873 169.525 245.001 169.671 244.447 170.225L242.748 171.924L244.593 173.769L246.293 172.07Z" fill="black"/>
<circle cx="266" cy="100" r="1.5" fill="#DCFF00" stroke="#9A9C9E"/>
<circle cx="259" cy="100" r="1.5" fill="#DCFF00" stroke="#9A9C9E"/>
<circle cx="253" cy="100" r="1.5" fill="#DCFF00" stroke="#9A9C9E"/>
<circle cx="52" cy="100" r="1.5" fill="#DCFF00" stroke="#9A9C9E"/>
<circle cx="42" cy="100" r="1.5" fill="#DCFF00" stroke="#9A9C9E"/>
</svg>
