<svg width="589" height="418" viewBox="0 0 589 418" fill="none" xmlns="http://www.w3.org/2000/svg">
<rect width="589" height="418" fill="white"/>
<path d="M410.385 402V398.749H411.862C412.215 398.749 412.527 398.817 412.796 398.953C413.065 399.086 413.276 399.274 413.428 399.515C413.579 399.757 413.655 400.043 413.655 400.374C413.655 400.703 413.579 400.989 413.428 401.234C413.276 401.475 413.065 401.664 412.796 401.8C412.527 401.933 412.215 402 411.862 402H410.385ZM411.138 401.382H411.825C412.042 401.382 412.229 401.342 412.387 401.262C412.548 401.178 412.672 401.06 412.759 400.909C412.849 400.757 412.893 400.579 412.893 400.374C412.893 400.167 412.849 399.989 412.759 399.84C412.672 399.689 412.548 399.573 412.387 399.492C412.229 399.408 412.042 399.367 411.825 399.367H411.138V401.382ZM415.704 402V401.512L415.658 401.406V400.532C415.658 400.378 415.61 400.257 415.514 400.17C415.421 400.083 415.277 400.04 415.082 400.04C414.949 400.04 414.817 400.062 414.687 400.105C414.56 400.145 414.452 400.201 414.362 400.272L414.102 399.766C414.238 399.67 414.402 399.596 414.594 399.543C414.786 399.49 414.981 399.464 415.179 399.464C415.56 399.464 415.856 399.554 416.066 399.734C416.277 399.913 416.382 400.193 416.382 400.574V402H415.704ZM414.942 402.037C414.747 402.037 414.58 402.005 414.441 401.94C414.302 401.872 414.195 401.78 414.12 401.666C414.046 401.551 414.009 401.423 414.009 401.28C414.009 401.131 414.045 401.001 414.116 400.89C414.19 400.779 414.306 400.692 414.464 400.63C414.622 400.565 414.828 400.532 415.082 400.532H415.746V400.955H415.161C414.99 400.955 414.873 400.983 414.808 401.039C414.746 401.094 414.715 401.164 414.715 401.248C414.715 401.34 414.751 401.415 414.822 401.471C414.896 401.523 414.997 401.549 415.124 401.549C415.244 401.549 415.353 401.522 415.449 401.466C415.545 401.407 415.614 401.322 415.658 401.21L415.769 401.545C415.717 401.706 415.621 401.828 415.481 401.912C415.342 401.995 415.162 402.037 414.942 402.037ZM418.06 402.037C417.766 402.037 417.537 401.963 417.372 401.814C417.208 401.663 417.126 401.438 417.126 401.141V398.949H417.851V401.131C417.851 401.237 417.879 401.319 417.934 401.378C417.99 401.433 418.066 401.461 418.162 401.461C418.277 401.461 418.374 401.43 418.455 401.368L418.65 401.879C418.575 401.932 418.486 401.972 418.38 402C418.278 402.025 418.171 402.037 418.06 402.037ZM416.741 400.114V399.557H418.473V400.114H416.741ZM420.589 402V401.512L420.543 401.406V400.532C420.543 400.378 420.495 400.257 420.399 400.17C420.306 400.083 420.162 400.04 419.967 400.04C419.834 400.04 419.702 400.062 419.572 400.105C419.445 400.145 419.337 400.201 419.247 400.272L418.987 399.766C419.123 399.67 419.287 399.596 419.479 399.543C419.671 399.49 419.866 399.464 420.064 399.464C420.445 399.464 420.741 399.554 420.951 399.734C421.162 399.913 421.267 400.193 421.267 400.574V402H420.589ZM419.827 402.037C419.632 402.037 419.465 402.005 419.326 401.94C419.186 401.872 419.08 401.78 419.005 401.666C418.931 401.551 418.894 401.423 418.894 401.28C418.894 401.131 418.929 401.001 419.001 400.89C419.075 400.779 419.191 400.692 419.349 400.63C419.507 400.565 419.713 400.532 419.967 400.532H420.631V400.955H420.046C419.875 400.955 419.758 400.983 419.693 401.039C419.631 401.094 419.6 401.164 419.6 401.248C419.6 401.34 419.635 401.415 419.707 401.471C419.781 401.523 419.882 401.549 420.008 401.549C420.129 401.549 420.238 401.522 420.334 401.466C420.43 401.407 420.499 401.322 420.543 401.21L420.654 401.545C420.601 401.706 420.505 401.828 420.366 401.912C420.227 401.995 420.047 402.037 419.827 402.037ZM424.845 402.056C424.594 402.056 424.361 402.015 424.144 401.935C423.93 401.851 423.744 401.734 423.586 401.582C423.429 401.43 423.305 401.252 423.215 401.048C423.128 400.844 423.085 400.619 423.085 400.374C423.085 400.13 423.128 399.905 423.215 399.701C423.305 399.497 423.429 399.319 423.586 399.167C423.747 399.015 423.935 398.899 424.148 398.819C424.362 398.735 424.596 398.693 424.85 398.693C425.132 398.693 425.385 398.743 425.611 398.842C425.841 398.938 426.033 399.08 426.187 399.269L425.704 399.715C425.593 399.588 425.469 399.494 425.333 399.432C425.197 399.367 425.048 399.334 424.887 399.334C424.735 399.334 424.596 399.359 424.469 399.408C424.342 399.458 424.232 399.529 424.139 399.622C424.046 399.715 423.974 399.825 423.921 399.952C423.871 400.079 423.847 400.22 423.847 400.374C423.847 400.529 423.871 400.67 423.921 400.797C423.974 400.924 424.046 401.034 424.139 401.127C424.232 401.22 424.342 401.291 424.469 401.34C424.596 401.39 424.735 401.415 424.887 401.415C425.048 401.415 425.197 401.384 425.333 401.322C425.469 401.257 425.593 401.159 425.704 401.029L426.187 401.475C426.033 401.664 425.841 401.808 425.611 401.907C425.385 402.006 425.13 402.056 424.845 402.056ZM427.64 402.037C427.432 402.037 427.246 401.997 427.082 401.916C426.921 401.836 426.796 401.714 426.706 401.549C426.616 401.382 426.571 401.17 426.571 400.913V399.501H427.296V400.806C427.296 401.014 427.339 401.167 427.426 401.266C427.516 401.362 427.641 401.41 427.802 401.41C427.914 401.41 428.013 401.387 428.1 401.34C428.186 401.291 428.254 401.217 428.304 401.118C428.353 401.015 428.378 400.888 428.378 400.737V399.501H429.103V402H428.415V401.313L428.541 401.512C428.457 401.686 428.333 401.817 428.169 401.907C428.008 401.994 427.832 402.037 427.64 402.037ZM429.774 402V398.554H430.498V402H429.774ZM432.379 402.037C432.084 402.037 431.855 401.963 431.691 401.814C431.527 401.663 431.445 401.438 431.445 401.141V398.949H432.17V401.131C432.17 401.237 432.198 401.319 432.253 401.378C432.309 401.433 432.385 401.461 432.481 401.461C432.595 401.461 432.693 401.43 432.773 401.368L432.968 401.879C432.894 401.932 432.804 401.972 432.699 402C432.597 402.025 432.49 402.037 432.379 402.037ZM431.06 400.114V399.557H432.792V400.114H431.06ZM434.429 402.037C434.222 402.037 434.036 401.997 433.872 401.916C433.711 401.836 433.586 401.714 433.496 401.549C433.406 401.382 433.361 401.17 433.361 400.913V399.501H434.086V400.806C434.086 401.014 434.129 401.167 434.216 401.266C434.306 401.362 434.431 401.41 434.592 401.41C434.704 401.41 434.803 401.387 434.889 401.34C434.976 401.291 435.044 401.217 435.094 401.118C435.143 401.015 435.168 400.888 435.168 400.737V399.501H435.892V402H435.205V401.313L435.331 401.512C435.247 401.686 435.123 401.817 434.959 401.907C434.798 401.994 434.621 402.037 434.429 402.037ZM436.564 402V399.501H437.256V400.207L437.158 400.003C437.233 399.826 437.352 399.693 437.516 399.603C437.68 399.511 437.88 399.464 438.115 399.464V400.133C438.084 400.13 438.056 400.128 438.031 400.128C438.007 400.125 437.98 400.124 437.952 400.124C437.754 400.124 437.593 400.181 437.469 400.295C437.349 400.407 437.288 400.582 437.288 400.82V402H436.564ZM439.768 402.037C439.483 402.037 439.232 401.981 439.015 401.87C438.802 401.758 438.636 401.607 438.518 401.415C438.401 401.22 438.342 400.998 438.342 400.751C438.342 400.5 438.399 400.278 438.514 400.086C438.631 399.891 438.791 399.74 438.992 399.631C439.193 399.52 439.421 399.464 439.675 399.464C439.919 399.464 440.139 399.517 440.334 399.622C440.532 399.724 440.689 399.873 440.803 400.068C440.918 400.26 440.975 400.491 440.975 400.76C440.975 400.788 440.974 400.82 440.971 400.857C440.968 400.892 440.964 400.924 440.961 400.955H438.932V400.532H440.58L440.302 400.658C440.302 400.528 440.275 400.415 440.223 400.319C440.17 400.223 440.097 400.148 440.005 400.096C439.912 400.04 439.803 400.012 439.679 400.012C439.556 400.012 439.446 400.04 439.35 400.096C439.257 400.148 439.184 400.224 439.131 400.323C439.079 400.419 439.052 400.534 439.052 400.667V400.779C439.052 400.915 439.082 401.036 439.141 401.141C439.203 401.243 439.288 401.322 439.396 401.378C439.508 401.43 439.638 401.457 439.786 401.457C439.919 401.457 440.036 401.436 440.135 401.396C440.237 401.356 440.33 401.296 440.413 401.215L440.799 401.633C440.684 401.763 440.54 401.864 440.367 401.935C440.193 402.003 439.994 402.037 439.768 402.037ZM441.732 402.037C441.608 402.037 441.501 401.995 441.411 401.912C441.324 401.825 441.281 401.715 441.281 401.582C441.281 401.449 441.324 401.342 441.411 401.262C441.501 401.178 441.608 401.136 441.732 401.136C441.859 401.136 441.965 401.178 442.052 401.262C442.139 401.342 442.182 401.449 442.182 401.582C442.182 401.715 442.139 401.825 442.052 401.912C441.965 401.995 441.859 402.037 441.732 402.037ZM443.775 398.749H444.643L445.317 399.734L445.99 398.749H446.873L445.791 400.305L446.961 402H446.074L445.317 400.922L444.569 402H443.701L444.862 400.337L443.775 398.749ZM448.435 402.037C448.15 402.037 447.899 401.981 447.683 401.87C447.469 401.758 447.303 401.607 447.186 401.415C447.068 401.22 447.009 400.998 447.009 400.751C447.009 400.5 447.067 400.278 447.181 400.086C447.299 399.891 447.458 399.74 447.659 399.631C447.861 399.52 448.088 399.464 448.342 399.464C448.587 399.464 448.807 399.517 449.002 399.622C449.2 399.724 449.356 399.873 449.471 400.068C449.585 400.26 449.643 400.491 449.643 400.76C449.643 400.788 449.641 400.82 449.638 400.857C449.635 400.892 449.632 400.924 449.629 400.955H447.599V400.532H449.248L448.969 400.658C448.969 400.528 448.943 400.415 448.89 400.319C448.838 400.223 448.765 400.148 448.672 400.096C448.579 400.04 448.471 400.012 448.347 400.012C448.223 400.012 448.113 400.04 448.017 400.096C447.924 400.148 447.851 400.224 447.799 400.323C447.746 400.419 447.72 400.534 447.72 400.667V400.779C447.72 400.915 447.749 401.036 447.808 401.141C447.87 401.243 447.955 401.322 448.064 401.378C448.175 401.43 448.305 401.457 448.454 401.457C448.587 401.457 448.703 401.436 448.802 401.396C448.904 401.356 448.997 401.296 449.081 401.215L449.466 401.633C449.352 401.763 449.208 401.864 449.034 401.935C448.861 402.003 448.661 402.037 448.435 402.037ZM450.198 402V399.501H450.918V400.477H452.005V399.501H452.729V402H452.005V401.066H450.918V402H450.198ZM455.141 401.675V400.096H454.324L454.31 400.416C454.304 400.549 454.296 400.676 454.287 400.797C454.277 400.918 454.259 401.028 454.231 401.127C454.206 401.223 454.169 401.305 454.12 401.373C454.07 401.438 454.003 401.483 453.92 401.508L453.205 401.406C453.294 401.406 453.367 401.379 453.423 401.327C453.479 401.271 453.522 401.195 453.553 401.099C453.584 401 453.607 400.888 453.623 400.765C453.638 400.638 453.649 400.504 453.655 400.365L453.688 399.501H455.866V401.675H455.141ZM453.121 402.539V401.406H456.223V402.539H455.55V402H453.794V402.539H453.121ZM457.919 402.056C457.715 402.056 457.529 402.026 457.362 401.967C457.195 401.906 457.049 401.811 456.926 401.684C456.805 401.554 456.71 401.388 456.642 401.187C456.577 400.986 456.545 400.746 456.545 400.467C456.545 400.269 456.562 400.088 456.596 399.924C456.63 399.76 456.681 399.611 456.749 399.478C456.817 399.342 456.904 399.223 457.009 399.12C457.118 399.015 457.243 398.928 457.385 398.86C457.531 398.789 457.695 398.735 457.878 398.698L459.067 398.461L459.164 399.083L458.115 399.292C458.053 399.305 457.981 399.322 457.901 399.343C457.823 399.362 457.745 399.391 457.664 399.432C457.587 399.472 457.514 399.529 457.446 399.603C457.381 399.675 457.328 399.769 457.288 399.887C457.248 400.001 457.227 400.144 457.227 400.314C457.227 400.367 457.229 400.407 457.232 400.435C457.238 400.463 457.243 400.492 457.246 400.523C457.252 400.554 457.255 400.602 457.255 400.667L457.023 400.439C457.091 400.294 457.178 400.17 457.283 400.068C457.392 399.966 457.515 399.888 457.655 399.836C457.797 399.78 457.955 399.752 458.128 399.752C458.364 399.752 458.57 399.8 458.746 399.896C458.926 399.989 459.065 400.121 459.164 400.291C459.263 400.461 459.313 400.655 459.313 400.871C459.313 401.107 459.254 401.314 459.136 401.494C459.019 401.67 458.855 401.808 458.644 401.907C458.437 402.006 458.195 402.056 457.919 402.056ZM457.957 401.494C458.077 401.494 458.184 401.467 458.277 401.415C458.37 401.359 458.441 401.286 458.491 401.197C458.543 401.104 458.57 401 458.57 400.885C458.57 400.774 458.543 400.675 458.491 400.588C458.441 400.501 458.37 400.433 458.277 400.384C458.184 400.334 458.076 400.309 457.952 400.309C457.831 400.309 457.723 400.334 457.627 400.384C457.531 400.43 457.457 400.495 457.404 400.579C457.351 400.662 457.325 400.76 457.325 400.871C457.325 400.986 457.351 401.091 457.404 401.187C457.46 401.28 457.534 401.354 457.627 401.41C457.723 401.466 457.833 401.494 457.957 401.494ZM460.075 402.938C459.945 402.938 459.817 402.918 459.69 402.878C459.563 402.838 459.459 402.782 459.379 402.711L459.643 402.195C459.699 402.245 459.763 402.283 459.834 402.311C459.908 402.339 459.981 402.353 460.052 402.353C460.154 402.353 460.235 402.328 460.294 402.279C460.356 402.232 460.411 402.153 460.461 402.042L460.591 401.735L460.647 401.656L461.543 399.501H462.24L461.111 402.153C461.031 402.355 460.938 402.512 460.832 402.627C460.73 402.742 460.616 402.822 460.489 402.869C460.365 402.915 460.227 402.938 460.075 402.938ZM460.503 402.098L459.388 399.501H460.136L461 401.591L460.503 402.098ZM464.359 402L463.523 400.816L464.113 400.467L465.213 402H464.359ZM462.589 402V399.501H463.314V402H462.589ZM463.1 401.053V400.472H463.973V401.053H463.1ZM464.182 400.834L463.504 400.76L464.382 399.501H465.153L464.182 400.834ZM466.884 402V399.501H469.369V402H468.645V399.933L468.807 400.096H467.442L467.604 399.933V402H466.884ZM471.234 402.037C470.968 402.037 470.731 401.981 470.524 401.87C470.319 401.758 470.157 401.607 470.036 401.415C469.918 401.22 469.86 400.998 469.86 400.751C469.86 400.5 469.918 400.278 470.036 400.086C470.157 399.891 470.319 399.74 470.524 399.631C470.731 399.52 470.968 399.464 471.234 399.464C471.497 399.464 471.733 399.52 471.94 399.631C472.148 399.74 472.31 399.89 472.428 400.082C472.546 400.274 472.604 400.497 472.604 400.751C472.604 400.998 472.546 401.22 472.428 401.415C472.31 401.607 472.148 401.758 471.94 401.87C471.733 401.981 471.497 402.037 471.234 402.037ZM471.234 401.443C471.355 401.443 471.463 401.415 471.559 401.359C471.655 401.303 471.731 401.224 471.787 401.122C471.843 401.017 471.871 400.893 471.871 400.751C471.871 400.605 471.843 400.481 471.787 400.379C471.731 400.277 471.655 400.198 471.559 400.142C471.463 400.086 471.355 400.059 471.234 400.059C471.114 400.059 471.005 400.086 470.909 400.142C470.813 400.198 470.736 400.277 470.677 400.379C470.621 400.481 470.593 400.605 470.593 400.751C470.593 400.893 470.621 401.017 470.677 401.122C470.736 401.224 470.813 401.303 470.909 401.359C471.005 401.415 471.114 401.443 471.234 401.443ZM475.914 402V401.512L475.867 401.406V400.532C475.867 400.378 475.819 400.257 475.723 400.17C475.63 400.083 475.486 400.04 475.291 400.04C475.158 400.04 475.027 400.062 474.896 400.105C474.77 400.145 474.661 400.201 474.571 400.272L474.311 399.766C474.447 399.67 474.612 399.596 474.804 399.543C474.996 399.49 475.191 399.464 475.389 399.464C475.77 399.464 476.065 399.554 476.276 399.734C476.486 399.913 476.592 400.193 476.592 400.574V402H475.914ZM475.152 402.037C474.957 402.037 474.79 402.005 474.65 401.94C474.511 401.872 474.404 401.78 474.33 401.666C474.256 401.551 474.218 401.423 474.218 401.28C474.218 401.131 474.254 401.001 474.325 400.89C474.4 400.779 474.516 400.692 474.674 400.63C474.831 400.565 475.037 400.532 475.291 400.532H475.955V400.955H475.37C475.2 400.955 475.082 400.983 475.017 401.039C474.955 401.094 474.924 401.164 474.924 401.248C474.924 401.34 474.96 401.415 475.031 401.471C475.105 401.523 475.206 401.549 475.333 401.549C475.454 401.549 475.562 401.522 475.658 401.466C475.754 401.407 475.824 401.322 475.867 401.21L475.979 401.545C475.926 401.706 475.83 401.828 475.691 401.912C475.551 401.995 475.372 402.037 475.152 402.037ZM477.221 402V399.501H477.941V400.477H479.028V399.501H479.752V402H479.028V401.066H477.941V402H477.221ZM481.941 402V401.512L481.895 401.406V400.532C481.895 400.378 481.847 400.257 481.751 400.17C481.658 400.083 481.514 400.04 481.319 400.04C481.186 400.04 481.054 400.062 480.924 400.105C480.797 400.145 480.689 400.201 480.599 400.272L480.339 399.766C480.475 399.67 480.639 399.596 480.831 399.543C481.023 399.49 481.218 399.464 481.417 399.464C481.797 399.464 482.093 399.554 482.304 399.734C482.514 399.913 482.619 400.193 482.619 400.574V402H481.941ZM481.18 402.037C480.985 402.037 480.817 402.005 480.678 401.94C480.539 401.872 480.432 401.78 480.358 401.666C480.283 401.551 480.246 401.423 480.246 401.28C480.246 401.131 480.282 401.001 480.353 400.89C480.427 400.779 480.543 400.692 480.701 400.63C480.859 400.565 481.065 400.532 481.319 400.532H481.983V400.955H481.398C481.228 400.955 481.11 400.983 481.045 401.039C480.983 401.094 480.952 401.164 480.952 401.248C480.952 401.34 480.988 401.415 481.059 401.471C481.133 401.523 481.234 401.549 481.361 401.549C481.482 401.549 481.59 401.522 481.686 401.466C481.782 401.407 481.852 401.322 481.895 401.21L482.006 401.545C481.954 401.706 481.858 401.828 481.718 401.912C481.579 401.995 481.4 402.037 481.18 402.037ZM482.933 401.995L482.97 401.401C482.989 401.404 483.007 401.407 483.026 401.41C483.045 401.41 483.062 401.41 483.077 401.41C483.164 401.41 483.232 401.385 483.281 401.336C483.331 401.286 483.368 401.22 483.393 401.136C483.418 401.049 483.435 400.952 483.444 400.844C483.456 400.735 483.466 400.622 483.472 400.504L483.509 399.501H485.645V402H484.921V399.919L485.083 400.096H483.987L484.141 399.91L484.108 400.537C484.099 400.76 484.08 400.964 484.052 401.15C484.028 401.336 483.986 401.497 483.927 401.633C483.868 401.766 483.789 401.87 483.69 401.944C483.591 402.015 483.464 402.051 483.309 402.051C483.254 402.051 483.195 402.046 483.133 402.037C483.071 402.028 483.004 402.014 482.933 401.995ZM486.342 402V399.501H487.062V400.988L488.279 399.501H488.943V402H488.223V400.514L487.011 402H486.342ZM490.462 402.046C490.27 402.046 490.078 402.026 489.886 401.986C489.697 401.946 489.522 401.885 489.361 401.805L489.556 401.299C489.683 401.361 489.821 401.409 489.97 401.443C490.122 401.474 490.275 401.489 490.43 401.489C490.541 401.489 490.637 401.478 490.718 401.457C490.801 401.432 490.865 401.398 490.908 401.354C490.951 401.311 490.973 401.258 490.973 401.197C490.973 401.116 490.939 401.056 490.871 401.015C490.803 400.972 490.704 400.95 490.574 400.95H490.063V400.5H490.513C490.597 400.5 490.668 400.491 490.727 400.472C490.786 400.453 490.829 400.427 490.857 400.393C490.888 400.356 490.903 400.313 490.903 400.263C490.903 400.21 490.885 400.165 490.848 400.128C490.81 400.091 490.756 400.063 490.685 400.045C490.614 400.023 490.524 400.012 490.416 400.012C490.292 400.012 490.163 400.028 490.03 400.059C489.897 400.086 489.761 400.128 489.621 400.184L489.445 399.682C489.609 399.614 489.772 399.56 489.933 399.52C490.094 399.48 490.253 399.458 490.411 399.455C490.643 399.449 490.852 399.473 491.038 399.529C491.224 399.585 491.369 399.665 491.475 399.771C491.583 399.876 491.637 400.004 491.637 400.156C491.637 400.277 491.6 400.385 491.526 400.481C491.454 400.577 491.355 400.653 491.228 400.709C491.102 400.761 490.959 400.788 490.801 400.788L490.82 400.644C491.095 400.644 491.312 400.7 491.47 400.811C491.628 400.919 491.707 401.068 491.707 401.257C491.707 401.418 491.651 401.559 491.54 401.68C491.431 401.797 491.283 401.889 491.094 401.954C490.908 402.015 490.697 402.046 490.462 402.046ZM492.564 402.938C492.434 402.938 492.305 402.918 492.178 402.878C492.051 402.838 491.948 402.782 491.867 402.711L492.132 402.195C492.188 402.245 492.251 402.283 492.322 402.311C492.397 402.339 492.469 402.353 492.541 402.353C492.643 402.353 492.723 402.328 492.782 402.279C492.844 402.232 492.9 402.153 492.949 402.042L493.079 401.735L493.135 401.656L494.031 399.501H494.728L493.6 402.153C493.519 402.355 493.426 402.512 493.321 402.627C493.219 402.742 493.104 402.822 492.977 402.869C492.853 402.915 492.716 402.938 492.564 402.938ZM492.991 402.098L491.876 399.501H492.624L493.488 401.591L492.991 402.098ZM498.111 401.675V400.096H497.294L497.28 400.416C497.274 400.549 497.266 400.676 497.257 400.797C497.248 400.918 497.229 401.028 497.201 401.127C497.176 401.223 497.139 401.305 497.09 401.373C497.04 401.438 496.974 401.483 496.89 401.508L496.175 401.406C496.265 401.406 496.337 401.379 496.393 401.327C496.449 401.271 496.492 401.195 496.523 401.099C496.554 401 496.577 400.888 496.593 400.765C496.608 400.638 496.619 400.504 496.625 400.365L496.658 399.501H498.836V401.675H498.111ZM496.091 402.539V401.406H499.194V402.539H498.52V402H496.765V402.539H496.091ZM501.145 402V401.512L501.099 401.406V400.532C501.099 400.378 501.051 400.257 500.955 400.17C500.862 400.083 500.718 400.04 500.523 400.04C500.39 400.04 500.258 400.062 500.128 400.105C500.001 400.145 499.893 400.201 499.803 400.272L499.543 399.766C499.679 399.67 499.843 399.596 500.035 399.543C500.227 399.49 500.422 399.464 500.62 399.464C501.001 399.464 501.297 399.554 501.507 399.734C501.718 399.913 501.823 400.193 501.823 400.574V402H501.145ZM500.383 402.037C500.188 402.037 500.021 402.005 499.882 401.94C499.742 401.872 499.636 401.78 499.561 401.666C499.487 401.551 499.45 401.423 499.45 401.28C499.45 401.131 499.485 401.001 499.557 400.89C499.631 400.779 499.747 400.692 499.905 400.63C500.063 400.565 500.269 400.532 500.523 400.532H501.187V400.955H500.602C500.431 400.955 500.314 400.983 500.249 401.039C500.187 401.094 500.156 401.164 500.156 401.248C500.156 401.34 500.191 401.415 500.263 401.471C500.337 401.523 500.438 401.549 500.565 401.549C500.685 401.549 500.794 401.522 500.89 401.466C500.986 401.407 501.055 401.322 501.099 401.21L501.21 401.545C501.157 401.706 501.061 401.828 500.922 401.912C500.783 401.995 500.603 402.037 500.383 402.037ZM502.453 402V399.501H503.172V400.477H504.259V399.501H504.984V402H504.259V401.066H503.172V402H502.453ZM505.677 402V399.501H506.397V400.477H507.484V399.501H508.209V402H507.484V401.066H506.397V402H505.677ZM511.475 402V399.501H512.195V402H511.475ZM510.217 400.3C510.545 400.303 510.791 400.378 510.955 400.523C511.122 400.665 511.206 400.868 511.206 401.131C511.206 401.407 511.111 401.622 510.923 401.777C510.734 401.929 510.466 402.005 510.119 402.005L508.902 402V399.501H509.622V400.3H510.217ZM510.054 401.489C510.193 401.492 510.3 401.463 510.374 401.401C510.449 401.339 510.486 401.246 510.486 401.122C510.486 400.998 510.449 400.91 510.374 400.857C510.3 400.802 510.193 400.772 510.054 400.769L509.622 400.765V401.489H510.054ZM512.559 402L513.678 400.532L513.664 400.932L512.592 399.501H513.404L514.082 400.435L513.776 400.444L514.477 399.501H515.248L514.171 400.918V400.528L515.285 402H514.463L513.753 401.006L514.055 401.048L513.349 402H512.559ZM515.902 402.037C515.778 402.037 515.671 401.995 515.582 401.912C515.495 401.825 515.452 401.715 515.452 401.582C515.452 401.449 515.495 401.342 515.582 401.262C515.671 401.178 515.778 401.136 515.902 401.136C516.029 401.136 516.136 401.178 516.223 401.262C516.309 401.342 516.353 401.449 516.353 401.582C516.353 401.715 516.309 401.825 516.223 401.912C516.136 401.995 516.029 402.037 515.902 402.037ZM520.458 398.749H521.21V402H520.458V398.749ZM518.981 402H518.229V398.749H518.981V402ZM520.514 400.667H518.925V400.031H520.514V400.667ZM523.465 402V401.512L523.418 401.406V400.532C523.418 400.378 523.37 400.257 523.274 400.17C523.181 400.083 523.037 400.04 522.842 400.04C522.709 400.04 522.578 400.062 522.448 400.105C522.321 400.145 522.212 400.201 522.122 400.272L521.862 399.766C521.999 399.67 522.163 399.596 522.355 399.543C522.547 399.49 522.742 399.464 522.94 399.464C523.321 399.464 523.616 399.554 523.827 399.734C524.038 399.913 524.143 400.193 524.143 400.574V402H523.465ZM522.703 402.037C522.508 402.037 522.341 402.005 522.201 401.94C522.062 401.872 521.955 401.78 521.881 401.666C521.807 401.551 521.77 401.423 521.77 401.28C521.77 401.131 521.805 401.001 521.876 400.89C521.951 400.779 522.067 400.692 522.225 400.63C522.383 400.565 522.588 400.532 522.842 400.532H523.507V400.955H522.921C522.751 400.955 522.633 400.983 522.568 401.039C522.506 401.094 522.475 401.164 522.475 401.248C522.475 401.34 522.511 401.415 522.582 401.471C522.657 401.523 522.757 401.549 522.884 401.549C523.005 401.549 523.113 401.522 523.209 401.466C523.305 401.407 523.375 401.322 523.418 401.21L523.53 401.545C523.477 401.706 523.381 401.828 523.242 401.912C523.102 401.995 522.923 402.037 522.703 402.037ZM526.347 401.043C526.244 401.099 526.131 401.144 526.008 401.178C525.884 401.212 525.748 401.229 525.599 401.229C525.271 401.229 525.018 401.155 524.842 401.006C524.665 400.854 524.577 400.614 524.577 400.286V399.501H525.302V400.24C525.302 400.395 525.342 400.506 525.422 400.574C525.503 400.639 525.616 400.672 525.761 400.672C525.867 400.672 525.967 400.659 526.063 400.635C526.162 400.61 526.257 400.574 526.347 400.528V401.043ZM526.296 402V399.501H527.02V402H526.296ZM529.211 402V401.512L529.165 401.406V400.532C529.165 400.378 529.117 400.257 529.021 400.17C528.928 400.083 528.784 400.04 528.589 400.04C528.456 400.04 528.324 400.062 528.194 400.105C528.067 400.145 527.959 400.201 527.869 400.272L527.609 399.766C527.745 399.67 527.909 399.596 528.101 399.543C528.293 399.49 528.488 399.464 528.686 399.464C529.067 399.464 529.363 399.554 529.574 399.734C529.784 399.913 529.889 400.193 529.889 400.574V402H529.211ZM528.45 402.037C528.255 402.037 528.087 402.005 527.948 401.94C527.809 401.872 527.702 401.78 527.628 401.666C527.553 401.551 527.516 401.423 527.516 401.28C527.516 401.131 527.552 401.001 527.623 400.89C527.697 400.779 527.813 400.692 527.971 400.63C528.129 400.565 528.335 400.532 528.589 400.532H529.253V400.955H528.668C528.498 400.955 528.38 400.983 528.315 401.039C528.253 401.094 528.222 401.164 528.222 401.248C528.222 401.34 528.258 401.415 528.329 401.471C528.403 401.523 528.504 401.549 528.631 401.549C528.752 401.549 528.86 401.522 528.956 401.466C529.052 401.407 529.122 401.322 529.165 401.21L529.276 401.545C529.224 401.706 529.128 401.828 528.988 401.912C528.849 401.995 528.669 402.037 528.45 402.037ZM530.203 401.995L530.24 401.401C530.259 401.404 530.277 401.407 530.296 401.41C530.314 401.41 530.331 401.41 530.347 401.41C530.434 401.41 530.502 401.385 530.551 401.336C530.601 401.286 530.638 401.22 530.663 401.136C530.688 401.049 530.705 400.952 530.714 400.844C530.726 400.735 530.736 400.622 530.742 400.504L530.779 399.501H532.915V402H532.191V399.919L532.353 400.096H531.257L531.411 399.91L531.378 400.537C531.369 400.76 531.35 400.964 531.322 401.15C531.298 401.336 531.256 401.497 531.197 401.633C531.138 401.766 531.059 401.87 530.96 401.944C530.861 402.015 530.734 402.051 530.579 402.051C530.523 402.051 530.465 402.046 530.403 402.037C530.341 402.028 530.274 402.014 530.203 401.995ZM534.964 400.3C535.292 400.303 535.541 400.378 535.711 400.523C535.885 400.665 535.971 400.868 535.971 401.131C535.971 401.407 535.874 401.622 535.679 401.777C535.484 401.929 535.213 402.005 534.866 402.005L533.612 402V399.501H534.332V400.3H534.964ZM534.801 401.489C534.94 401.492 535.047 401.463 535.122 401.401C535.196 401.339 535.233 401.246 535.233 401.122C535.233 400.998 535.196 400.91 535.122 400.857C535.047 400.802 534.94 400.772 534.801 400.769L534.332 400.765V401.489H534.801ZM536.424 402V399.501H537.144V400.477H538.231V399.501H538.955V402H538.231V401.066H537.144V402H536.424ZM542.222 402V399.501H542.942V402H542.222ZM540.963 400.3C541.292 400.303 541.538 400.378 541.702 400.523C541.869 400.665 541.953 400.868 541.953 401.131C541.953 401.407 541.858 401.622 541.669 401.777C541.48 401.929 541.213 402.005 540.866 402.005L539.649 402V399.501H540.369V400.3H540.963ZM540.801 401.489C540.94 401.492 541.047 401.463 541.121 401.401C541.196 401.339 541.233 401.246 541.233 401.122C541.233 400.998 541.196 400.91 541.121 400.857C541.047 400.802 540.94 400.772 540.801 400.769L540.369 400.765V401.489H540.801ZM543.64 402V399.501H544.36V400.988L545.577 399.501H546.241V402H545.521V400.514L544.309 402H543.64ZM544.894 399.232C544.622 399.232 544.417 399.173 544.281 399.055C544.145 398.935 544.075 398.754 544.072 398.512H544.546C544.549 398.617 544.578 398.701 544.634 398.763C544.69 398.825 544.775 398.856 544.89 398.856C545.001 398.856 545.086 398.825 545.145 398.763C545.207 398.701 545.238 398.617 545.238 398.512H545.721C545.721 398.754 545.651 398.935 545.512 399.055C545.373 399.173 545.167 399.232 544.894 399.232ZM548.592 402.938C548.462 402.938 548.333 402.918 548.207 402.878C548.08 402.838 547.976 402.782 547.895 402.711L548.16 402.195C548.216 402.245 548.279 402.283 548.35 402.311C548.425 402.339 548.498 402.353 548.569 402.353C548.671 402.353 548.751 402.328 548.81 402.279C548.872 402.232 548.928 402.153 548.977 402.042L549.108 401.735L549.163 401.656L550.06 399.501H550.756L549.628 402.153C549.547 402.355 549.454 402.512 549.349 402.627C549.247 402.742 549.132 402.822 549.005 402.869C548.881 402.915 548.744 402.938 548.592 402.938ZM549.019 402.098L547.905 399.501H548.652L549.516 401.591L549.019 402.098ZM552.578 402.037C552.368 402.037 552.183 401.991 552.025 401.898C551.868 401.805 551.744 401.664 551.654 401.475C551.567 401.283 551.524 401.042 551.524 400.751C551.524 400.456 551.566 400.215 551.649 400.026C551.733 399.837 551.854 399.696 552.012 399.603C552.169 399.511 552.358 399.464 552.578 399.464C552.813 399.464 553.024 399.518 553.21 399.627C553.399 399.732 553.547 399.881 553.656 400.073C553.767 400.265 553.823 400.491 553.823 400.751C553.823 401.014 553.767 401.241 553.656 401.433C553.547 401.625 553.399 401.774 553.21 401.879C553.024 401.985 552.813 402.037 552.578 402.037ZM551.101 402.901V399.501H551.793V400.012L551.779 400.755L551.826 401.494V402.901H551.101ZM552.453 401.443C552.573 401.443 552.68 401.415 552.773 401.359C552.869 401.303 552.945 401.224 553.001 401.122C553.06 401.017 553.089 400.893 553.089 400.751C553.089 400.605 553.06 400.481 553.001 400.379C552.945 400.277 552.869 400.198 552.773 400.142C552.68 400.086 552.573 400.059 552.453 400.059C552.332 400.059 552.224 400.086 552.128 400.142C552.032 400.198 551.956 400.277 551.9 400.379C551.844 400.481 551.816 400.605 551.816 400.751C551.816 400.893 551.844 401.017 551.9 401.122C551.956 401.224 552.032 401.303 552.128 401.359C552.224 401.415 552.332 401.443 552.453 401.443ZM555.501 402.037C555.235 402.037 554.998 401.981 554.79 401.87C554.586 401.758 554.424 401.607 554.303 401.415C554.185 401.22 554.126 400.998 554.126 400.751C554.126 400.5 554.185 400.278 554.303 400.086C554.424 399.891 554.586 399.74 554.79 399.631C554.998 399.52 555.235 399.464 555.501 399.464C555.764 399.464 556 399.52 556.207 399.631C556.414 399.74 556.577 399.89 556.695 400.082C556.812 400.274 556.871 400.497 556.871 400.751C556.871 400.998 556.812 401.22 556.695 401.415C556.577 401.607 556.414 401.758 556.207 401.87C556 401.981 555.764 402.037 555.501 402.037ZM555.501 401.443C555.622 401.443 555.73 401.415 555.826 401.359C555.922 401.303 555.998 401.224 556.054 401.122C556.109 401.017 556.137 400.893 556.137 400.751C556.137 400.605 556.109 400.481 556.054 400.379C555.998 400.277 555.922 400.198 555.826 400.142C555.73 400.086 555.622 400.059 555.501 400.059C555.38 400.059 555.272 400.086 555.176 400.142C555.08 400.198 555.003 400.277 554.944 400.379C554.888 400.481 554.86 400.605 554.86 400.751C554.86 400.893 554.888 401.017 554.944 401.122C555.003 401.224 555.08 401.303 555.176 401.359C555.272 401.415 555.38 401.443 555.501 401.443ZM557.369 402V399.501H558.647C558.959 399.501 559.204 399.559 559.381 399.673C559.557 399.785 559.645 399.943 559.645 400.147C559.645 400.351 559.562 400.512 559.394 400.63C559.23 400.744 559.012 400.802 558.74 400.802L558.814 400.635C559.117 400.635 559.343 400.69 559.492 400.802C559.644 400.913 559.72 401.076 559.72 401.289C559.72 401.509 559.636 401.683 559.469 401.81C559.302 401.937 559.046 402 558.702 402H557.369ZM558.034 401.508H558.642C558.775 401.508 558.874 401.486 558.939 401.443C559.007 401.396 559.041 401.327 559.041 401.234C559.041 401.138 559.011 401.068 558.949 401.025C558.887 400.978 558.789 400.955 558.656 400.955H558.034V401.508ZM558.034 400.528H558.582C558.709 400.528 558.803 400.504 558.865 400.458C558.93 400.412 558.963 400.345 558.963 400.258C558.963 400.169 558.93 400.102 558.865 400.059C558.803 400.015 558.709 399.994 558.582 399.994H558.034V400.528ZM561.48 402.037C561.195 402.037 560.944 401.981 560.728 401.87C560.514 401.758 560.348 401.607 560.231 401.415C560.113 401.22 560.054 400.998 560.054 400.751C560.054 400.5 560.112 400.278 560.226 400.086C560.344 399.891 560.503 399.74 560.705 399.631C560.906 399.52 561.133 399.464 561.387 399.464C561.632 399.464 561.852 399.517 562.047 399.622C562.245 399.724 562.401 399.873 562.516 400.068C562.63 400.26 562.688 400.491 562.688 400.76C562.688 400.788 562.686 400.82 562.683 400.857C562.68 400.892 562.677 400.924 562.674 400.955H560.644V400.532H562.293L562.014 400.658C562.014 400.528 561.988 400.415 561.935 400.319C561.883 400.223 561.81 400.148 561.717 400.096C561.624 400.04 561.516 400.012 561.392 400.012C561.268 400.012 561.158 400.04 561.062 400.096C560.969 400.148 560.896 400.224 560.844 400.323C560.791 400.419 560.765 400.534 560.765 400.667V400.779C560.765 400.915 560.794 401.036 560.853 401.141C560.915 401.243 561 401.322 561.109 401.378C561.22 401.43 561.35 401.457 561.499 401.457C561.632 401.457 561.748 401.436 561.847 401.396C561.949 401.356 562.042 401.296 562.126 401.215L562.511 401.633C562.397 401.763 562.253 401.864 562.079 401.935C561.906 402.003 561.706 402.037 561.48 402.037ZM563.243 402V399.501H563.963V400.477H565.05V399.501H565.774V402H565.05V401.066H563.963V402H563.243ZM567.819 400.3C568.148 400.303 568.397 400.378 568.567 400.523C568.741 400.665 568.827 400.868 568.827 401.131C568.827 401.407 568.73 401.622 568.535 401.777C568.34 401.929 568.069 402.005 567.722 402.005L566.468 402V399.501H567.188V400.3H567.819ZM567.657 401.489C567.796 401.492 567.903 401.463 567.977 401.401C568.052 401.339 568.089 401.246 568.089 401.122C568.089 400.998 568.052 400.91 567.977 400.857C567.903 400.802 567.796 400.772 567.657 400.769L567.188 400.765V401.489H567.657Z" fill="#D8D8D8"/>
<path d="M278.391 346V341L284.391 343.609L278.391 346Z" fill="#9A9C9E" stroke="#9A9C9E" stroke-width="2"/>
<path d="M138.642 383.199L132.31 380.431L136.86 384.981L136.338 385.503L131.189 380.355L132.023 379.521L138.145 382.219L135.434 376.11L136.274 375.27L141.423 380.418L140.895 380.946L136.351 376.39L139.119 382.722L138.642 383.199ZM137.987 374.562L139.623 376.198L142.099 373.722L142.601 374.225L140.113 376.688L142.137 378.711L145.077 375.771L145.573 376.268L142.118 379.723L136.969 374.575L140.425 371.119L140.928 371.622L137.987 374.562ZM149.277 371.596L145.109 367.428L143.098 369.439L143.976 370.317C144.931 371.233 146.185 372.92 146.7 374.174L149.277 371.596ZM149.787 371.1L150.811 370.075L152.326 371.59L151.823 372.093L150.792 371.062L146.216 375.637L147.247 376.668L146.751 377.165L145.236 375.65L146.019 374.867C146.038 373.944 144.772 372.156 143.524 370.883L142.099 369.458L145.122 366.435L149.787 371.1ZM150.876 361.865L152.289 369.552L151.614 370.227L146.465 365.079L146.987 364.557L151.538 369.107L150.112 361.432L150.799 360.745L155.948 365.893L155.426 366.415L150.876 361.865ZM158.175 360.713L155.903 362.985L156.852 364.989L156.304 365.537L153.078 358.466L153.663 357.881L160.74 361.101L160.18 361.661L158.175 360.713ZM153.854 358.657L155.579 362.304L157.494 360.388L153.854 358.657ZM164.535 357.306L162.021 354.793L159.093 357.72L161.607 360.234L161.085 360.756L155.937 355.607L156.459 355.085L158.597 357.224L161.524 354.296L159.386 352.158L159.908 351.636L165.056 356.784L164.535 357.306ZM167.28 351.608L165.008 353.88L165.956 355.885L165.409 356.432L162.182 349.362L162.768 348.776L169.845 351.996L169.285 352.556L167.28 351.608ZM162.959 349.552L164.683 353.199L166.599 351.283L162.959 349.552Z" fill="black"/>
<path d="M41.8272 365.265L35.495 362.496L40.0453 367.047L39.5234 367.568L34.375 362.42L35.2087 361.586L41.3308 364.285L38.6197 358.175L39.4598 357.335L44.6082 362.484L44.08 363.012L39.5361 358.455L42.3045 364.787L41.8272 365.265ZM44.565 353.426L45.9778 361.114L45.3032 361.789L40.1547 356.64L40.6766 356.118L45.2268 360.669L43.8013 352.994L44.4886 352.306L49.637 357.455L49.1152 357.977L44.565 353.426ZM53.7864 353.305L51.2727 350.792L48.3453 353.719L50.859 356.233L50.3372 356.755L45.1887 351.606L45.7106 351.084L47.8489 353.223L50.7763 350.295L48.638 348.157L49.1598 347.635L54.3083 352.784L53.7864 353.305Z" fill="black"/>
<path d="M45.9406 377.11C46.9525 378.122 47.2961 379.127 47.2452 380.031L48.2316 380.088L48.1807 380.826L47.0988 380.763C46.9206 381.323 46.5961 381.813 46.1952 382.214C44.7187 383.69 42.7204 383.588 41.0913 381.959C40.2576 381.125 39.8121 380.196 39.7994 379.242C39.793 378.37 40.1621 377.53 40.8367 376.855C42.3068 375.385 44.286 375.455 45.9406 377.11ZM45.6733 381.692C45.9788 381.386 46.1952 381.055 46.3415 380.718L44.5914 380.61L44.636 379.878L46.5006 379.986C46.5452 379.216 46.1824 378.408 45.4124 377.638C43.8087 376.034 42.2877 376.448 41.3585 377.377C40.423 378.313 40.0667 379.891 41.6131 381.437C43.2041 383.028 44.7378 382.627 45.6733 381.692ZM51.9888 376.204L48.8514 379.341L48.3295 378.819L49.7805 377.381L45.7457 373.346L45.2684 375.593L44.6766 374.988L45.1603 372.735L45.6885 372.207L50.3151 376.834L51.4669 375.682L51.9888 376.204ZM52.3787 370.684L49.9158 373.147L49.4131 372.645L51.8759 370.182L52.3787 370.684ZM58.3776 369.815L55.2402 372.952L54.7183 372.43L56.1693 370.992L52.1346 366.957L51.6573 369.204L51.0654 368.599L51.5491 366.346L52.0773 365.818L56.7039 370.445L57.8558 369.293L58.3776 369.815ZM59.5694 368.623L58.8884 369.304L58.1884 368.604L58.8693 367.923L59.5694 368.623ZM61.7471 366.649C61.0089 367.502 59.6661 367.852 58.8515 367.037L59.3988 366.49C59.6788 366.77 60.4489 366.942 61.1553 366.184C61.868 365.433 61.7344 364.562 60.9516 363.779C60.3216 363.149 59.507 363.085 58.8133 363.766C58.126 364.441 58.1706 364.969 58.3933 365.306L57.8969 365.803L54.9886 362.894L57.846 360.037L58.3679 360.559L56.0005 362.926L57.7315 364.657C57.7315 364.657 57.5596 364.052 58.3806 363.232C59.3034 362.309 60.5507 362.398 61.4417 363.289C62.7908 364.638 62.4472 365.834 61.7471 366.649ZM61.5631 358.242L60.984 359.33L62.2886 359.553L62.2058 359.992L60.9076 359.763L61.1303 361.067L60.6976 361.144L60.4748 359.839L59.3993 360.405L59.1893 360.017L60.2394 359.464L59.3357 358.56L59.7112 358.184L60.6148 359.088L61.1749 358.032L61.5631 358.242ZM68.3698 354.681C69.3817 355.692 69.7254 356.698 69.6744 357.602L70.6609 357.659L70.6099 358.397L69.5281 358.333C69.3499 358.893 69.0253 359.384 68.6244 359.784C67.1479 361.261 65.1497 361.159 63.5205 359.53C62.6868 358.696 62.2413 357.767 62.2286 356.812C62.2222 355.941 62.5914 355.101 63.2659 354.426C64.736 352.956 66.7152 353.026 68.3698 354.681ZM68.1025 359.263C68.408 358.957 68.6244 358.626 68.7708 358.289L67.0207 358.181L67.0652 357.449L68.9299 357.557C68.9744 356.787 68.6117 355.979 67.8416 355.209C66.2379 353.605 64.7169 354.019 63.7878 354.948C62.8523 355.883 62.4959 357.462 64.0423 359.008C65.6333 360.599 67.167 360.198 68.1025 359.263ZM71.8915 351.808L75.3981 352.807L74.7871 353.418L71.2933 352.406L71.8915 351.808ZM71.5861 349.211C72.6679 350.293 72.2161 351.369 71.8915 351.808L70.1478 353.552L69.7532 353.946L72.0061 356.199L71.4779 356.727L66.3294 351.579L68.4486 349.447C69.0978 348.798 70.5042 348.13 71.5861 349.211ZM70.9306 351.725C71.637 351.019 71.7197 350.389 71.0642 349.733C70.5106 349.18 69.6387 349.326 69.085 349.88L67.3858 351.579L69.2314 353.424L70.9306 351.725Z" fill="black"/>
<path d="M241.913 369.058L235.581 366.289L240.131 370.839L239.609 371.361L234.461 366.213L235.295 365.379L241.417 368.077L238.706 361.968L239.546 361.128L244.694 366.276L244.166 366.805L239.622 362.248L242.391 368.58L241.913 369.058ZM246.917 361.101L244.645 363.373L245.593 365.378L245.046 365.925L241.819 358.855L242.405 358.269L249.481 361.49L248.921 362.05L246.917 361.101ZM242.595 359.046L244.32 362.692L246.236 360.777L242.595 359.046ZM248.045 358.331L247.803 352.871L248.509 352.165L248.687 356.148L253.893 357.078L253.263 357.708L248.719 356.893L248.815 359.101L250.342 360.629L249.827 361.144L244.678 355.996L245.194 355.48L248.045 358.331ZM256.031 351.185L256.565 350.651C257.749 352.356 257.202 353.973 256.183 354.991C254.707 356.467 252.709 356.366 251.08 354.736C250.252 353.909 249.807 352.967 249.794 352.025C249.788 351.153 250.15 350.307 250.825 349.632C252.034 348.423 253.581 348.264 255.013 349.162L254.478 349.696C253.231 348.996 252.091 349.41 251.347 350.154C250.411 351.09 250.055 352.668 251.601 354.215C253.199 355.812 254.726 355.405 255.662 354.469C256.629 353.502 256.769 352.331 256.031 351.185Z" fill="black"/>
<path d="M119.889 236L119.889 343.852" stroke="#9A9C9E" stroke-width="2" stroke-dasharray="6 6"/>
<path d="M164 257.5L164 343.852" stroke="#DCFF00" stroke-width="2" stroke-dasharray="4 4"/>
<path d="M203.885 236.852L203.885 343.852" stroke="#9A9C9E" stroke-width="2" stroke-dasharray="6 6"/>
<path d="M69.8857 285.852L69.8857 343.852" stroke="#9A9C9E" stroke-width="2" stroke-dasharray="4 4"/>
<path d="M49.8857 215.852L49.8857 343.852" stroke="#9A9C9E" stroke-width="2" stroke-dasharray="4 4"/>
<path d="M254 344L254 216" stroke="#9A9C9E" stroke-width="2" stroke-dasharray="4 4"/>
<path d="M118.532 353.19C119.544 354.201 119.887 355.207 119.836 356.111L120.823 356.168L120.772 356.906L119.69 356.842C119.512 357.402 119.187 357.893 118.786 358.293C117.31 359.77 115.312 359.668 113.682 358.039C112.849 357.205 112.403 356.276 112.391 355.321C112.384 354.45 112.753 353.61 113.428 352.935C114.898 351.465 116.877 351.535 118.532 353.19ZM118.264 357.772C118.57 357.466 118.786 357.135 118.933 356.798L117.183 356.69L117.227 355.958L119.092 356.066C119.136 355.296 118.774 354.488 118.004 353.718C116.4 352.114 114.879 352.528 113.95 353.457C113.014 354.392 112.658 355.971 114.204 357.517C115.795 359.108 117.329 358.707 118.264 357.772ZM124.58 352.283L121.443 355.421L120.921 354.899L122.372 353.461L118.337 349.426L117.86 351.672L117.268 351.068L117.751 348.815L118.28 348.287L122.906 352.913L124.058 351.762L124.58 352.283Z" fill="black"/>
<path d="M201.487 353.23C202.499 354.242 202.843 355.247 202.792 356.151L203.778 356.208L203.728 356.946L202.646 356.883C202.467 357.443 202.143 357.933 201.742 358.334C200.266 359.81 198.267 359.708 196.638 358.079C195.804 357.246 195.359 356.316 195.346 355.362C195.34 354.49 195.709 353.65 196.384 352.975C197.854 351.505 199.833 351.575 201.487 353.23ZM201.22 357.812C201.526 357.507 201.742 357.176 201.888 356.838L200.138 356.73L200.183 355.998L202.047 356.106C202.092 355.336 201.729 354.528 200.959 353.758C199.356 352.154 197.835 352.568 196.905 353.497C195.97 354.433 195.613 356.011 197.16 357.557C198.751 359.148 200.285 358.747 201.22 357.812ZM203.8 350.306C203.8 350.306 204.958 349.365 206.212 350.618C207.294 351.7 207.192 352.871 206.136 353.928C205.175 354.888 204.004 354.978 203.049 354.125L203.558 353.616C204.43 354.144 204.977 354.068 205.766 353.278C206.46 352.585 206.295 351.745 205.607 351.057C205.168 350.618 204.322 350.446 203.418 351.172L202.96 350.714C203.45 350.058 203.431 349.505 203.055 349.129C202.419 348.493 201.814 348.575 201.254 349.135C200.783 349.606 200.764 350.071 201.076 350.612L200.561 351.127C199.937 350.402 199.918 349.428 200.733 348.614C201.719 347.627 202.814 347.831 203.456 348.474C204.462 349.479 203.8 350.306 203.8 350.306Z" fill="black"/>
<path d="M155.974 239H155.236V231.719H155.974V239ZM163.564 235.364C163.564 236.795 163.096 237.749 162.421 238.352L163.078 239.09L162.52 239.576L161.8 238.766C161.278 239.036 160.702 239.153 160.135 239.153C158.047 239.153 156.706 237.668 156.706 235.364C156.706 234.185 157.048 233.213 157.714 232.529C158.326 231.908 159.181 231.575 160.135 231.575C162.214 231.575 163.564 233.024 163.564 235.364ZM160.135 238.415C160.567 238.415 160.954 238.334 161.296 238.199L160.135 236.885L160.684 236.399L161.926 237.794C162.502 237.281 162.817 236.453 162.817 235.364C162.817 233.096 161.449 232.313 160.135 232.313C158.812 232.313 157.444 233.177 157.444 235.364C157.444 237.614 158.812 238.415 160.135 238.415ZM168.086 235.823L169.859 239.009H168.995L167.24 235.823H168.086ZM169.706 233.771C169.706 235.301 168.626 235.742 168.086 235.823H165.62H165.062V239.009H164.315V231.728L167.321 231.719C168.239 231.719 169.706 232.241 169.706 233.771ZM167.465 235.085C168.464 235.085 168.968 234.698 168.968 233.771C168.968 232.988 168.248 232.475 167.465 232.475H165.062V235.085H167.465Z" fill="black"/>
<path d="M146.831 211.719C148.379 211.719 149.216 212.826 149.216 213.87C149.216 214.914 148.397 215.976 146.84 215.976H144.626V219H143.879V211.719H146.831ZM146.975 215.238C147.686 215.238 148.487 214.788 148.487 213.87C148.487 212.934 147.677 212.457 146.975 212.457H144.626V215.238H146.975ZM153.269 216.912H150.056L149.309 219H148.535L151.253 211.719H152.081L154.808 219H154.016L153.269 216.912ZM151.667 212.403L150.308 216.201H153.017L151.667 212.403ZM160.273 217.002C160.273 218.469 159.382 219.144 157.69 219.144C155.008 219.144 154.945 217.488 154.945 216.822H155.629C155.629 217.2 155.719 218.442 157.591 218.442C159.229 218.442 159.661 217.659 159.562 216.822C159.49 216.192 158.761 215.652 157.465 215.652V214.977C159.265 214.977 159.373 213.933 159.373 213.546C159.373 212.673 158.536 212.286 157.789 212.286C156.592 212.286 156.061 212.952 155.953 213.699H155.215C155.296 212.601 156.097 211.575 157.681 211.575C159.364 211.575 160.093 212.43 160.093 213.717C160.093 214.968 158.986 215.301 158.986 215.301C158.986 215.301 160.273 215.481 160.273 217.002ZM164.32 219L161.8 212.565V219H161.062V211.719H162.241L164.662 217.956L167.065 211.719H168.253V219H167.506L167.515 212.565L164.995 219H164.32ZM173.484 216.912H170.271L169.524 219H168.75L171.468 211.719H172.296L175.023 219H174.231L173.484 216.912ZM171.882 212.403L170.523 216.201H173.232L171.882 212.403ZM178.803 215.409L181.305 219H180.405L178.353 216.048L176.31 219H175.41L177.912 215.409L175.347 211.719H176.247L178.353 214.761L180.468 211.719H181.359L178.803 215.409Z" fill="black"/>
<path d="M185.179 237.559C184.788 237.169 184.788 236.535 185.179 236.145L191.543 229.781C191.933 229.39 192.566 229.39 192.957 229.781C193.347 230.172 193.347 230.805 192.957 231.195L187.3 236.852L192.957 242.509C193.347 242.899 193.347 243.533 192.957 243.923C192.566 244.314 191.933 244.314 191.543 243.923L185.179 237.559ZM203.871 235.852H204.871V237.852H203.871V235.852ZM185.886 236.852V235.852H203.871V236.852V237.852H185.886V236.852Z" fill="#9A9C9E"/>
<path d="M139.207 236.293C139.598 236.683 139.598 237.317 139.207 237.707L132.843 244.071C132.453 244.462 131.819 244.462 131.429 244.071C131.038 243.681 131.038 243.047 131.429 242.657L137.086 237L131.429 231.343C131.038 230.953 131.038 230.319 131.429 229.929C131.819 229.538 132.453 229.538 132.843 229.929L139.207 236.293ZM119 237V236H138.5V237V238H119V237Z" fill="#9A9C9E"/>
<path d="M253.385 215.852H254.385V217.852H253.385V215.852ZM195.178 217.559C194.787 217.169 194.787 216.535 195.178 216.145L201.542 209.781C201.932 209.39 202.565 209.39 202.956 209.781C203.346 210.172 203.346 210.805 202.956 211.195L197.299 216.852L202.956 222.509C203.346 222.899 203.346 223.533 202.956 223.923C202.565 224.314 201.932 224.314 201.542 223.923L195.178 217.559ZM195.885 216.852V215.852H253.385V216.852V217.852H195.885V216.852Z" fill="#9A9C9E"/>
<path d="M50.3848 217.852H49.3848V215.852H50.3848V217.852ZM129.592 216.145C129.982 216.535 129.982 217.169 129.592 217.559L123.228 223.923C122.837 224.314 122.204 224.314 121.814 223.923C121.423 223.533 121.423 222.899 121.814 222.509L127.471 216.852L121.814 211.195C121.423 210.805 121.423 210.172 121.814 209.781C122.204 209.39 122.837 209.39 123.228 209.781L129.592 216.145ZM50.3848 216.852V215.852H128.885V216.852V217.852H50.3848V216.852Z" fill="#9A9C9E"/>
<path d="M45 344.055H278.025" stroke="#9A9C9E" stroke-width="2"/>
<path d="M69 279H254.025" stroke="#9A9C9E" stroke-width="2"/>
<path d="M203.808 258V300H119.784V258H203.808Z" fill="white" stroke="#9A9C9E" stroke-width="2"/>
<mask id="path-24-outside-1_136_1036" maskUnits="userSpaceOnUse" x="69" y="270" width="186" height="19" fill="black">
<rect fill="white" x="69" y="270" width="186" height="19"/>
<path d="M71 270H253V289H71V270Z"/>
</mask>
<path d="M253 270H251V289H253H255V270H253ZM71 289H73V270H71H69V289H71Z" fill="#9A9C9E" mask="url(#path-24-outside-1_136_1036)"/>
<path d="M164 257L164 301" stroke="#DCFF00" stroke-width="2"/>
<path d="M278.198 161V156L284.198 158.609L278.198 161Z" fill="#9A9C9E" stroke="#9A9C9E" stroke-width="2"/>
<path d="M138.449 198.258L132.117 195.489L136.667 200.04L136.146 200.562L130.997 195.413L131.831 194.579L137.953 197.278L135.242 191.168L136.082 190.328L141.23 195.477L140.702 196.005L136.158 191.448L138.927 197.781L138.449 198.258ZM137.795 189.621L139.431 191.256L141.906 188.781L142.409 189.283L139.921 191.746L141.944 193.77L144.885 190.83L145.381 191.326L141.925 194.782L136.777 189.633L140.233 186.178L140.735 186.68L137.795 189.621ZM149.085 186.655L144.917 182.486L142.906 184.497L143.784 185.376C144.738 186.292 145.992 187.978 146.508 189.232L149.085 186.655ZM149.594 186.158L150.619 185.134L152.133 186.648L151.631 187.151L150.6 186.12L146.024 190.696L147.055 191.727L146.559 192.223L145.044 190.709L145.827 189.926C145.846 189.003 144.579 187.215 143.332 185.942L141.907 184.516L144.929 181.494L149.594 186.158ZM150.683 176.923L152.096 184.611L151.422 185.286L146.273 180.137L146.795 179.615L151.345 184.166L149.92 176.491L150.607 175.803L155.755 180.952L155.234 181.474L150.683 176.923ZM157.983 175.771L155.711 178.043L156.659 180.048L156.112 180.595L152.885 173.525L153.471 172.939L160.548 176.16L159.988 176.72L157.983 175.771ZM153.662 173.716L155.386 177.362L157.302 175.447L153.662 173.716ZM164.342 172.365L161.828 169.851L158.901 172.779L161.415 175.292L160.893 175.814L155.744 170.666L156.266 170.144L158.405 172.282L161.332 169.355L159.194 167.216L159.716 166.695L164.864 171.843L164.342 172.365ZM167.088 166.667L164.816 168.939L165.764 170.943L165.217 171.491L161.99 164.42L162.576 163.835L169.652 167.055L169.092 167.615L167.088 166.667ZM162.766 164.611L164.491 168.258L166.407 166.342L162.766 164.611Z" fill="black"/>
<path d="M41.6348 180.265L35.3026 177.496L39.8529 182.047L39.331 182.568L34.1826 177.42L35.0163 176.586L41.1384 179.285L38.4274 173.175L39.2674 172.335L44.4158 177.484L43.8876 178.012L39.3438 173.455L42.1121 179.787L41.6348 180.265ZM44.3726 168.426L45.7854 176.114L45.1108 176.789L39.9624 171.64L40.4842 171.118L45.0344 175.669L43.6089 167.994L44.2962 167.306L49.4447 172.455L48.9228 172.977L44.3726 168.426ZM53.5941 168.305L51.0803 165.792L48.1529 168.719L50.6666 171.233L50.1448 171.755L44.9964 166.606L45.5182 166.084L47.6565 168.223L50.5839 165.295L48.4456 163.157L48.9675 162.635L54.1159 167.784L53.5941 168.305Z" fill="black"/>
<path d="M44.6476 192.11C45.6595 193.122 46.0031 194.127 45.9522 195.031L46.9387 195.088L46.8877 195.826L45.8059 195.763C45.6277 196.323 45.3031 196.813 44.9022 197.214C43.4257 198.69 41.4275 198.588 39.7983 196.959C38.9646 196.125 38.5191 195.196 38.5064 194.242C38.5 193.37 38.8691 192.53 39.5437 191.855C41.0138 190.385 42.993 190.455 44.6476 192.11ZM44.3803 196.692C44.6858 196.386 44.9022 196.055 45.0486 195.718L43.2985 195.61L43.343 194.878L45.2077 194.986C45.2522 194.216 44.8895 193.408 44.1194 192.638C42.5157 191.034 40.9947 191.448 40.0656 192.377C39.1301 193.313 38.7737 194.891 40.3201 196.437C41.9111 198.028 43.4448 197.627 44.3803 196.692ZM50.6958 191.204L47.5584 194.341L47.0365 193.819L48.4875 192.381L44.4528 188.346L43.9755 190.593L43.3836 189.988L43.8673 187.735L44.3955 187.207L49.0221 191.834L50.174 190.682L50.6958 191.204ZM51.0857 185.684L48.6229 188.147L48.1201 187.645L50.583 185.182L51.0857 185.684ZM57.0846 184.815L53.9472 187.952L53.4254 187.43L54.8763 185.992L50.8416 181.957L50.3643 184.204L49.7725 183.599L50.2561 181.346L50.7843 180.818L55.4109 185.445L56.5628 184.293L57.0846 184.815ZM58.2764 183.623L57.5955 184.304L56.8954 183.604L57.5764 182.923L58.2764 183.623ZM60.4542 181.649C59.7159 182.502 58.3731 182.852 57.5586 182.037L58.1059 181.49C58.3859 181.77 59.1559 181.942 59.8623 181.184C60.5751 180.433 60.4414 179.562 59.6587 178.779C59.0286 178.149 58.214 178.085 57.5204 178.766C56.8331 179.441 56.8776 179.969 57.1004 180.306L56.604 180.803L53.6956 177.894L56.5531 175.037L57.0749 175.559L54.7075 177.926L56.4385 179.657C56.4385 179.657 56.2667 179.052 57.0876 178.232C58.0104 177.309 59.2577 177.398 60.1487 178.289C61.4979 179.638 61.1542 180.834 60.4542 181.649ZM60.2701 173.242L59.691 174.33L60.9956 174.553L60.9129 174.992L59.6146 174.763L59.8374 176.067L59.4046 176.144L59.1819 174.839L58.1064 175.405L57.8963 175.017L58.9464 174.464L58.0427 173.56L58.4182 173.184L59.3219 174.088L59.8819 173.032L60.2701 173.242ZM67.0769 169.681C68.0887 170.692 68.4324 171.698 68.3815 172.602L69.3679 172.659L69.317 173.397L68.2351 173.333C68.0569 173.893 67.7323 174.384 67.3314 174.784C65.855 176.261 63.8567 176.159 62.2275 174.53C61.3938 173.696 60.9484 172.767 60.9356 171.812C60.9293 170.941 61.2984 170.101 61.973 169.426C63.443 167.956 65.4222 168.026 67.0769 169.681ZM66.8096 174.263C67.115 173.957 67.3314 173.626 67.4778 173.289L65.7277 173.181L65.7722 172.449L67.6369 172.557C67.6814 171.787 67.3187 170.979 66.5486 170.209C64.9449 168.605 63.4239 169.019 62.4948 169.948C61.5593 170.883 61.2029 172.462 62.7494 174.008C64.3404 175.599 65.8741 175.198 66.8096 174.263ZM70.5986 166.808L74.1051 167.807L73.4942 168.418L70.0004 167.406L70.5986 166.808ZM70.2931 164.211C71.375 165.293 70.9231 166.369 70.5986 166.808L68.8548 168.552L68.4603 168.946L70.7131 171.199L70.1849 171.727L65.0365 166.579L67.1557 164.447C67.8048 163.798 69.2112 163.13 70.2931 164.211ZM69.6376 166.725C70.344 166.019 70.4267 165.389 69.7712 164.733C69.2176 164.18 68.3457 164.326 67.7921 164.88L66.0929 166.579L67.9384 168.424L69.6376 166.725Z" fill="black"/>
<path d="M261.721 184.058L255.389 181.289L259.939 185.839L259.417 186.361L254.269 181.213L255.102 180.379L261.224 183.077L258.513 176.968L259.353 176.128L264.502 181.276L263.974 181.805L259.43 177.248L262.198 183.58L261.721 184.058ZM266.724 176.101L264.452 178.373L265.401 180.378L264.853 180.925L261.627 173.855L262.212 173.269L269.289 176.49L268.729 177.05L266.724 176.101ZM262.403 174.046L264.128 177.692L266.043 175.777L262.403 174.046ZM267.852 173.331L267.611 167.871L268.317 167.165L268.495 171.148L273.701 172.078L273.071 172.708L268.527 171.893L268.622 174.101L270.15 175.629L269.634 176.144L264.486 170.996L265.001 170.48L267.852 173.331ZM275.838 166.185L276.373 165.651C277.557 167.356 277.009 168.973 275.991 169.991C274.515 171.467 272.516 171.366 270.887 169.736C270.06 168.909 269.614 167.967 269.602 167.025C269.595 166.153 269.958 165.307 270.633 164.632C271.842 163.423 273.388 163.264 274.82 164.162L274.286 164.696C273.038 163.996 271.899 164.41 271.154 165.154C270.219 166.09 269.863 167.668 271.409 169.215C273.006 170.812 274.534 170.405 275.469 169.469C276.437 168.502 276.577 167.331 275.838 166.185Z" fill="black"/>
<path d="M119.696 51L119.696 158.852" stroke="#9A9C9E" stroke-width="2" stroke-dasharray="6 6"/>
<path d="M163.808 72.5L163.808 158.852" stroke="#DCFF00" stroke-width="2" stroke-dasharray="4 4"/>
<path d="M203.692 51.8521L203.692 158.852" stroke="#9A9C9E" stroke-width="2" stroke-dasharray="6 6"/>
<path d="M69.6934 100.852L69.6934 158.852" stroke="#9A9C9E" stroke-width="2" stroke-dasharray="4 4"/>
<path d="M49.6934 30.8521L49.6934 158.852" stroke="#9A9C9E" stroke-width="2" stroke-dasharray="4 4"/>
<path d="M273.693 30.8521L273.693 158.852" stroke="#9A9C9E" stroke-width="2" stroke-dasharray="4 4"/>
<path d="M253.808 159L253.808 31" stroke="#9A9C9E" stroke-width="2" stroke-dasharray="4 4"/>
<path d="M118.339 167.19C119.351 168.201 119.695 169.207 119.644 170.111L120.63 170.168L120.579 170.906L119.498 170.842C119.319 171.402 118.995 171.893 118.594 172.293C117.117 173.77 115.119 173.668 113.49 172.039C112.656 171.205 112.211 170.276 112.198 169.321C112.192 168.45 112.561 167.61 113.235 166.935C114.706 165.465 116.685 165.535 118.339 167.19ZM118.072 171.772C118.378 171.466 118.594 171.135 118.74 170.798L116.99 170.69L117.035 169.958L118.899 170.066C118.944 169.296 118.581 168.488 117.811 167.718C116.207 166.114 114.686 166.528 113.757 167.457C112.822 168.392 112.465 169.971 114.012 171.517C115.603 173.108 117.137 172.707 118.072 171.772ZM124.388 166.283L121.25 169.421L120.728 168.899L122.179 167.461L118.145 163.426L117.667 165.672L117.075 165.068L117.559 162.815L118.087 162.287L122.714 166.913L123.866 165.762L124.388 166.283Z" fill="black"/>
<path d="M201.295 168.23C202.307 169.242 202.651 170.247 202.6 171.151L203.586 171.208L203.535 171.946L202.453 171.883C202.275 172.443 201.951 172.933 201.55 173.334C200.073 174.81 198.075 174.708 196.446 173.079C195.612 172.246 195.167 171.316 195.154 170.362C195.147 169.49 195.517 168.65 196.191 167.975C197.661 166.505 199.64 166.575 201.295 168.23ZM201.028 172.812C201.333 172.507 201.55 172.176 201.696 171.838L199.946 171.73L199.99 170.998L201.855 171.106C201.9 170.336 201.537 169.528 200.767 168.758C199.163 167.154 197.642 167.568 196.713 168.497C195.777 169.433 195.421 171.011 196.968 172.557C198.559 174.148 200.092 173.747 201.028 172.812ZM203.608 165.306C203.608 165.306 204.766 164.365 206.02 165.618C207.101 166.7 207 167.871 205.943 168.928C204.982 169.888 203.811 169.978 202.857 169.125L203.366 168.616C204.238 169.144 204.785 169.068 205.574 168.278C206.268 167.585 206.102 166.745 205.415 166.057C204.976 165.618 204.129 165.446 203.226 166.172L202.768 165.714C203.258 165.058 203.238 164.505 202.863 164.129C202.227 163.493 201.622 163.575 201.062 164.135C200.591 164.606 200.572 165.071 200.884 165.612L200.368 166.127C199.745 165.402 199.726 164.428 200.54 163.614C201.527 162.627 202.621 162.831 203.264 163.474C204.269 164.479 203.608 165.306 203.608 165.306Z" fill="black"/>
<path d="M155.781 54H155.043V46.719H155.781V54ZM163.372 50.364C163.372 51.795 162.904 52.749 162.229 53.352L162.886 54.09L162.328 54.576L161.608 53.766C161.086 54.036 160.51 54.153 159.943 54.153C157.855 54.153 156.514 52.668 156.514 50.364C156.514 49.185 156.856 48.213 157.522 47.529C158.134 46.908 158.989 46.575 159.943 46.575C162.022 46.575 163.372 48.024 163.372 50.364ZM159.943 53.415C160.375 53.415 160.762 53.334 161.104 53.199L159.943 51.885L160.492 51.399L161.734 52.794C162.31 52.281 162.625 51.453 162.625 50.364C162.625 48.096 161.257 47.313 159.943 47.313C158.62 47.313 157.252 48.177 157.252 50.364C157.252 52.614 158.62 53.415 159.943 53.415ZM167.893 50.823L169.666 54.009H168.802L167.047 50.823H167.893ZM169.513 48.771C169.513 50.301 168.433 50.742 167.893 50.823H165.427H164.869V54.009H164.122V46.728L167.128 46.719C168.046 46.719 169.513 47.241 169.513 48.771ZM167.272 50.085C168.271 50.085 168.775 49.698 168.775 48.771C168.775 47.988 168.055 47.475 167.272 47.475H164.869V50.085H167.272Z" fill="black"/>
<path d="M146.64 26.719C148.188 26.719 149.025 27.826 149.025 28.87C149.025 29.914 148.206 30.976 146.649 30.976H144.435V34H143.688V26.719H146.64ZM146.784 30.238C147.495 30.238 148.296 29.788 148.296 28.87C148.296 27.934 147.486 27.457 146.784 27.457H144.435V30.238H146.784ZM153.077 31.912H149.864L149.117 34H148.343L151.061 26.719H151.889L154.616 34H153.824L153.077 31.912ZM151.475 27.403L150.116 31.201H152.825L151.475 27.403ZM160.082 32.002C160.082 33.469 159.191 34.144 157.499 34.144C154.817 34.144 154.754 32.488 154.754 31.822H155.438C155.438 32.2 155.528 33.442 157.4 33.442C159.038 33.442 159.47 32.659 159.371 31.822C159.299 31.192 158.57 30.652 157.274 30.652V29.977C159.074 29.977 159.182 28.933 159.182 28.546C159.182 27.673 158.345 27.286 157.598 27.286C156.401 27.286 155.87 27.952 155.762 28.699H155.024C155.105 27.601 155.906 26.575 157.49 26.575C159.173 26.575 159.902 27.43 159.902 28.717C159.902 29.968 158.795 30.301 158.795 30.301C158.795 30.301 160.082 30.481 160.082 32.002ZM164.128 34L161.608 27.565V34H160.87V26.719H162.049L164.47 32.956L166.873 26.719H168.061V34H167.314L167.323 27.565L164.803 34H164.128ZM173.292 31.912H170.079L169.332 34H168.558L171.276 26.719H172.104L174.831 34H174.039L173.292 31.912ZM171.69 27.403L170.331 31.201H173.04L171.69 27.403ZM178.612 30.409L181.114 34H180.214L178.162 31.048L176.119 34H175.219L177.721 30.409L175.156 26.719H176.056L178.162 29.761L180.277 26.719H181.168L178.612 30.409Z" fill="black"/>
<path d="M184.986 52.5592C184.596 52.1686 184.596 51.5355 184.986 51.1449L191.35 44.781C191.741 44.3905 192.374 44.3905 192.764 44.781C193.155 45.1715 193.155 45.8047 192.764 46.1952L187.108 51.8521L192.764 57.5089C193.155 57.8994 193.155 58.5326 192.764 58.9231C192.374 59.3136 191.741 59.3136 191.35 58.9231L184.986 52.5592ZM203.679 50.8521H204.679V52.8521H203.679V50.8521ZM185.693 51.8521V50.8521H203.679V51.8521V52.8521H185.693V51.8521Z" fill="#9A9C9E"/>
<path d="M139.015 51.2929C139.405 51.6834 139.405 52.3166 139.015 52.7071L132.651 59.0711C132.26 59.4616 131.627 59.4616 131.237 59.0711C130.846 58.6805 130.846 58.0474 131.237 57.6569L136.893 52L131.237 46.3431C130.846 45.9526 130.846 45.3195 131.237 44.9289C131.627 44.5384 132.26 44.5384 132.651 44.9289L139.015 51.2929ZM118.808 52V51H138.308V52V53H118.808V52Z" fill="#9A9C9E"/>
<path d="M273.192 30.8521H274.192V32.8521H273.192V30.8521ZM194.985 32.5592C194.595 32.1686 194.595 31.5355 194.985 31.1449L201.349 24.781C201.74 24.3905 202.373 24.3905 202.763 24.781C203.154 25.1715 203.154 25.8047 202.763 26.1952L197.107 31.8521L202.763 37.5089C203.154 37.8994 203.154 38.5326 202.763 38.9231C202.373 39.3136 201.74 39.3136 201.349 38.9231L194.985 32.5592ZM195.692 31.8521V30.8521H273.192V31.8521V32.8521H195.692V31.8521Z" fill="#9A9C9E"/>
<path d="M50.1924 32.8521H49.1924V30.8521H50.1924V32.8521ZM129.399 31.1449C129.79 31.5355 129.79 32.1686 129.399 32.5592L123.036 38.9231C122.645 39.3136 122.012 39.3136 121.621 38.9231C121.231 38.5326 121.231 37.8994 121.621 37.5089L127.278 31.8521L121.621 26.1952C121.231 25.8047 121.231 25.1715 121.621 24.781C122.012 24.3905 122.645 24.3905 123.036 24.781L129.399 31.1449ZM50.1924 31.8521V30.8521H128.692V31.8521V32.8521H50.1924V31.8521Z" fill="#9A9C9E"/>
<path d="M44.8076 159.055H277.832" stroke="#9A9C9E" stroke-width="2"/>
<path d="M68.8076 94H253.832" stroke="#9A9C9E" stroke-width="2"/>
<path d="M203.615 73V115H119.592V73H203.615Z" fill="white" stroke="#9A9C9E" stroke-width="2"/>
<mask id="path-50-outside-2_136_1036" maskUnits="userSpaceOnUse" x="68.8076" y="85" width="186" height="19" fill="black">
<rect fill="white" x="68.8076" y="85" width="186" height="19"/>
<path d="M70.8076 85H252.808V104H70.8076V85Z"/>
</mask>
<path d="M252.808 85H250.808V104H252.808H254.808V85H252.808ZM70.8076 104H72.8076V85H70.8076H68.8076V104H70.8076Z" fill="#9A9C9E" mask="url(#path-50-outside-2_136_1036)"/>
<path d="M163.808 72L163.808 116" stroke="#DCFF00" stroke-width="2"/>
<path d="M228.7 192.058C229.712 193.07 230.055 194.075 230.004 194.979L230.991 195.036L230.94 195.774L229.858 195.711C229.68 196.271 229.355 196.761 228.954 197.162C227.478 198.638 225.48 198.536 223.85 196.907C223.017 196.073 222.571 195.144 222.559 194.19C222.552 193.318 222.921 192.478 223.596 191.803C225.066 190.333 227.045 190.403 228.7 192.058ZM228.432 196.64C228.738 196.334 228.954 196.003 229.101 195.666L227.351 195.558L227.395 194.826L229.26 194.934C229.304 194.164 228.942 193.356 228.172 192.586C226.568 190.982 225.047 191.396 224.118 192.325C223.182 193.26 222.826 194.839 224.372 196.385C225.963 197.976 227.497 197.575 228.432 196.64ZM234.748 191.152L231.611 194.289L231.089 193.767L232.54 192.329L228.505 188.294L228.028 190.541L227.436 189.936L227.919 187.683L228.448 187.155L233.074 191.782L234.226 190.63L234.748 191.152ZM235.246 184.519L235.749 185.021L234.463 186.307L235.755 187.599L235.24 188.114L233.948 186.822L232.662 188.108L232.16 187.605L233.445 186.32L232.153 185.028L232.669 184.512L233.961 185.804L235.246 184.519ZM241.74 184.16L238.602 187.297L238.08 186.775L239.531 185.337L235.497 181.302L235.019 183.549L234.427 182.944L234.911 180.692L235.439 180.163L240.066 184.79L241.218 183.638L241.74 184.16ZM242.931 182.968L242.25 183.649L241.55 182.949L242.231 182.268L242.931 182.968ZM245.109 180.994C244.371 181.847 243.028 182.197 242.214 181.382L242.761 180.835C243.041 181.115 243.811 181.287 244.517 180.529C245.23 179.778 245.096 178.907 244.314 178.124C243.684 177.494 242.869 177.43 242.175 178.111C241.488 178.786 241.533 179.314 241.755 179.651L241.259 180.148L238.351 177.239L241.208 174.382L241.73 174.904L239.362 177.271L241.093 179.002C241.093 179.002 240.922 178.398 241.743 177.577C242.665 176.654 243.913 176.743 244.804 177.634C246.153 178.983 245.809 180.179 245.109 180.994ZM244.925 172.587L244.346 173.675L245.651 173.898L245.568 174.337L244.27 174.108L244.492 175.412L244.06 175.489L243.837 174.184L242.761 174.75L242.551 174.362L243.601 173.809L242.698 172.905L243.073 172.529L243.977 173.433L244.537 172.377L244.925 172.587ZM251.732 169.026C252.744 170.037 253.087 171.043 253.036 171.947L254.023 172.004L253.972 172.742L252.89 172.678C252.712 173.239 252.387 173.729 251.986 174.129C250.51 175.606 248.512 175.504 246.882 173.875C246.049 173.041 245.603 172.112 245.591 171.158C245.584 170.286 245.953 169.446 246.628 168.771C248.098 167.301 250.077 167.371 251.732 169.026ZM251.465 173.608C251.77 173.302 251.986 172.971 252.133 172.634L250.383 172.526L250.427 171.794L252.292 171.902C252.336 171.132 251.974 170.324 251.204 169.554C249.6 167.95 248.079 168.364 247.15 169.293C246.214 170.228 245.858 171.807 247.404 173.353C248.995 174.944 250.529 174.543 251.465 173.608ZM255.254 166.153L258.76 167.152L258.149 167.763L254.655 166.751L255.254 166.153ZM254.948 163.557C256.03 164.638 255.578 165.714 255.254 166.153L253.51 167.897L253.115 168.291L255.368 170.544L254.84 171.072L249.691 165.924L251.811 163.792C252.46 163.143 253.866 162.475 254.948 163.557ZM254.293 166.07C254.999 165.364 255.082 164.734 254.426 164.078C253.873 163.525 253.001 163.671 252.447 164.225L250.748 165.924L252.593 167.769L254.293 166.07Z" fill="black"/>
<circle cx="274" cy="94" r="1.5" fill="#DCFF00" stroke="#9A9C9E"/>
<circle cx="267" cy="94" r="1.5" fill="#DCFF00" stroke="#9A9C9E"/>
<circle cx="261" cy="94" r="1.5" fill="#DCFF00" stroke="#9A9C9E"/>
<circle cx="60" cy="94" r="1.5" fill="#DCFF00" stroke="#9A9C9E"/>
<circle cx="50" cy="94" r="1.5" fill="#DCFF00" stroke="#9A9C9E"/>
<path d="M563.634 161V156L569.634 158.609L563.634 161Z" fill="#9A9C9E" stroke="#9A9C9E" stroke-width="2"/>
<path d="M401.186 198.199L394.853 195.431L399.404 199.981L398.882 200.503L393.733 195.355L394.567 194.521L400.689 197.219L397.978 191.11L398.818 190.27L403.967 195.418L403.438 195.946L398.895 191.39L401.663 197.722L401.186 198.199ZM400.531 189.562L402.167 191.198L404.643 188.722L405.145 189.225L402.657 191.688L404.681 193.711L407.621 190.771L408.117 191.268L404.662 194.723L399.513 189.575L402.969 186.119L403.472 186.622L400.531 189.562ZM411.821 186.596L407.653 182.428L405.642 184.439L406.52 185.317C407.475 186.233 408.729 187.92 409.244 189.174L411.821 186.596ZM412.331 186.1L413.355 185.075L414.87 186.59L414.367 187.093L413.336 186.062L408.76 190.637L409.791 191.668L409.295 192.165L407.78 190.65L408.563 189.867C408.582 188.944 407.316 187.156 406.068 185.883L404.643 184.458L407.666 181.435L412.331 186.1ZM413.42 176.865L414.832 184.552L414.158 185.227L409.009 180.079L409.531 179.557L414.082 184.107L412.656 176.432L413.343 175.745L418.492 180.893L417.97 181.415L413.42 176.865ZM420.719 175.713L418.447 177.985L419.396 179.989L418.848 180.537L415.622 173.466L416.207 172.881L423.284 176.101L422.724 176.661L420.719 175.713ZM416.398 173.657L418.123 177.304L420.038 175.388L416.398 173.657ZM427.079 172.306L424.565 169.793L421.637 172.72L424.151 175.234L423.629 175.756L418.481 170.607L419.003 170.085L421.141 172.224L424.068 169.296L421.93 167.158L422.452 166.636L427.6 171.784L427.079 172.306ZM429.824 166.608L427.552 168.88L428.5 170.885L427.953 171.432L424.726 164.362L425.312 163.776L432.389 166.996L431.829 167.556L429.824 166.608ZM425.503 164.552L427.227 168.199L429.143 166.283L425.503 164.552Z" fill="black"/>
<path d="M329.635 180.265L323.303 177.496L327.853 182.047L327.331 182.568L322.183 177.42L323.016 176.586L329.138 179.285L326.427 173.175L327.267 172.335L332.416 177.484L331.888 178.012L327.344 173.455L330.112 179.787L329.635 180.265ZM332.373 168.426L333.785 176.114L333.111 176.789L327.962 171.64L328.484 171.118L333.034 175.669L331.609 167.994L332.296 167.306L337.445 172.455L336.923 172.977L332.373 168.426ZM341.594 168.305L339.08 165.792L336.153 168.719L338.667 171.233L338.145 171.755L332.996 166.606L333.518 166.084L335.656 168.223L338.584 165.295L336.446 163.157L336.967 162.635L342.116 167.784L341.594 168.305Z" fill="black"/>
<path d="M496.348 192.292C497.36 193.303 497.704 194.309 497.653 195.213L498.639 195.27L498.588 196.008L497.506 195.944C497.328 196.504 497.004 196.995 496.603 197.395C495.126 198.872 493.128 198.77 491.499 197.141C490.665 196.307 490.22 195.378 490.207 194.423C490.201 193.552 490.57 192.712 491.244 192.037C492.714 190.567 494.694 190.637 496.348 192.292ZM496.081 196.874C496.386 196.568 496.603 196.237 496.749 195.9L494.999 195.792L495.044 195.06L496.908 195.168C496.953 194.398 496.59 193.59 495.82 192.82C494.216 191.216 492.695 191.63 491.766 192.559C490.831 193.494 490.474 195.073 492.021 196.619C493.612 198.21 495.145 197.809 496.081 196.874ZM502.396 191.385L499.259 194.523L498.737 194.001L500.188 192.563L496.153 188.528L495.676 190.774L495.084 190.17L495.568 187.917L496.096 187.389L500.723 192.015L501.875 190.864L502.396 191.385ZM502.894 184.752L503.397 185.255L502.112 186.541L503.404 187.833L502.888 188.348L501.596 187.056L500.311 188.342L499.808 187.839L501.093 186.553L499.802 185.262L500.317 184.746L501.609 186.038L502.894 184.752ZM509.388 184.394L506.251 187.531L505.729 187.009L507.18 185.571L503.145 181.536L502.668 183.783L502.076 183.178L502.56 180.925L503.088 180.397L507.714 185.024L508.866 183.872L509.388 184.394ZM510.58 183.202L509.899 183.883L509.199 183.183L509.88 182.502L510.58 183.202ZM512.758 181.228C512.019 182.081 510.677 182.431 509.862 181.616L510.409 181.069C510.689 181.349 511.459 181.521 512.166 180.763C512.878 180.012 512.745 179.141 511.962 178.358C511.332 177.728 510.517 177.664 509.824 178.345C509.136 179.02 509.181 179.548 509.404 179.885L508.907 180.381L505.999 177.473L508.856 174.616L509.378 175.138L507.011 177.505L508.742 179.236C508.742 179.236 508.57 178.631 509.391 177.81C510.314 176.888 511.561 176.977 512.452 177.868C513.801 179.217 513.458 180.413 512.758 181.228ZM512.574 172.821L511.994 173.909L513.299 174.132L513.216 174.571L511.918 174.342L512.141 175.646L511.708 175.723L511.485 174.418L510.41 174.984L510.2 174.596L511.25 174.042L510.346 173.139L510.722 172.763L511.625 173.667L512.185 172.611L512.574 172.821ZM519.38 169.259C520.392 170.271 520.736 171.277 520.685 172.181L521.671 172.238L521.62 172.976L520.539 172.912C520.36 173.472 520.036 173.962 519.635 174.363C518.158 175.84 516.16 175.738 514.531 174.109C513.697 173.275 513.252 172.346 513.239 171.391C513.233 170.52 513.602 169.679 514.276 169.005C515.746 167.535 517.726 167.605 519.38 169.259ZM519.113 173.842C519.418 173.536 519.635 173.205 519.781 172.868L518.031 172.76L518.076 172.028L519.94 172.136C519.985 171.366 519.622 170.558 518.852 169.788C517.248 168.184 515.727 168.598 514.798 169.527C513.863 170.462 513.506 172.041 515.053 173.587C516.644 175.178 518.177 174.777 519.113 173.842ZM522.902 166.387L526.409 167.386L525.798 167.997L522.304 166.985L522.902 166.387ZM522.597 163.79C523.678 164.872 523.227 165.948 522.902 166.387L521.158 168.131L520.764 168.525L523.017 170.778L522.488 171.306L517.34 166.158L519.459 164.026C520.108 163.377 521.515 162.709 522.597 163.79ZM521.941 166.304C522.647 165.598 522.73 164.968 522.075 164.312C521.521 163.759 520.649 163.905 520.095 164.459L518.396 166.158L520.242 168.003L521.941 166.304Z" fill="black"/>
<path d="M529.842 184.058L523.51 181.289L528.06 185.839L527.538 186.361L522.39 181.213L523.223 180.379L529.346 183.077L526.635 176.968L527.475 176.128L532.623 181.276L532.095 181.805L527.551 177.248L530.319 183.58L529.842 184.058ZM534.845 176.101L532.573 178.373L533.522 180.378L532.974 180.925L529.748 173.855L530.333 173.269L537.41 176.49L536.85 177.05L534.845 176.101ZM530.524 174.046L532.249 177.692L534.164 175.777L530.524 174.046ZM535.973 173.331L535.732 167.871L536.438 167.165L536.616 171.148L541.822 172.078L541.192 172.708L536.648 171.893L536.743 174.101L538.271 175.629L537.755 176.144L532.607 170.996L533.122 170.48L535.973 173.331ZM543.959 166.185L544.494 165.651C545.678 167.356 545.13 168.973 544.112 169.991C542.636 171.467 540.637 171.366 539.008 169.736C538.181 168.909 537.735 167.967 537.723 167.025C537.716 166.153 538.079 165.307 538.754 164.632C539.963 163.423 541.509 163.264 542.941 164.162L542.407 164.696C541.159 163.996 540.02 164.41 539.276 165.154C538.34 166.09 537.984 167.668 539.53 169.215C541.127 170.812 542.655 170.405 543.59 169.469C544.558 168.502 544.698 167.331 543.959 166.185Z" fill="black"/>
<path d="M471.136 51L471.136 158.852" stroke="#9A9C9E" stroke-width="2" stroke-dasharray="6 6"/>
<path d="M427.024 72.5L427.024 158.852" stroke="#DCFF00" stroke-width="2" stroke-dasharray="4 4"/>
<path d="M387.14 51.8521L387.14 158.852" stroke="#9A9C9E" stroke-width="2" stroke-dasharray="6 6"/>
<path d="M521.139 100.852L521.139 158.852" stroke="#9A9C9E" stroke-width="2" stroke-dasharray="4 4"/>
<path d="M541.139 30.8521L541.139 158.852" stroke="#9A9C9E" stroke-width="2" stroke-dasharray="4 4"/>
<path d="M337.024 159L337.024 31" stroke="#9A9C9E" stroke-width="2" stroke-dasharray="4 4"/>
<path d="M385.076 168.19C386.088 169.201 386.431 170.207 386.38 171.111L387.367 171.168L387.316 171.906L386.234 171.842C386.056 172.402 385.731 172.893 385.33 173.293C383.854 174.77 381.856 174.668 380.226 173.039C379.393 172.205 378.947 171.276 378.934 170.321C378.928 169.45 379.297 168.61 379.972 167.935C381.442 166.465 383.421 166.535 385.076 168.19ZM384.808 172.772C385.114 172.466 385.33 172.135 385.477 171.798L383.727 171.69L383.771 170.958L385.636 171.066C385.68 170.296 385.318 169.488 384.547 168.718C382.944 167.114 381.423 167.528 380.494 168.457C379.558 169.392 379.202 170.971 380.748 172.517C382.339 174.108 383.873 173.707 384.808 172.772ZM391.124 167.283L387.986 170.421L387.465 169.899L388.916 168.461L384.881 164.426L384.404 166.672L383.812 166.068L384.295 163.815L384.824 163.287L389.45 167.913L390.602 166.762L391.124 167.283Z" fill="black"/>
<path d="M470.031 168.23C471.043 169.242 471.387 170.247 471.336 171.151L472.322 171.208L472.271 171.946L471.19 171.883C471.011 172.443 470.687 172.933 470.286 173.334C468.809 174.81 466.811 174.708 465.182 173.079C464.348 172.246 463.903 171.316 463.89 170.362C463.884 169.49 464.253 168.65 464.927 167.975C466.398 166.505 468.377 166.575 470.031 168.23ZM469.764 172.812C470.07 172.507 470.286 172.176 470.432 171.838L468.682 171.73L468.727 170.998L470.591 171.106C470.636 170.336 470.273 169.528 469.503 168.758C467.899 167.154 466.378 167.568 465.449 168.497C464.514 169.433 464.157 171.011 465.704 172.557C467.295 174.148 468.829 173.747 469.764 172.812ZM472.344 165.306C472.344 165.306 473.502 164.365 474.756 165.618C475.838 166.7 475.736 167.871 474.68 168.928C473.719 169.888 472.548 169.978 471.593 169.125L472.102 168.616C472.974 169.144 473.521 169.068 474.31 168.278C475.004 167.585 474.839 166.745 474.151 166.057C473.712 165.618 472.866 165.446 471.962 166.172L471.504 165.714C471.994 165.058 471.975 164.505 471.599 164.129C470.963 163.493 470.358 163.575 469.798 164.135C469.327 164.606 469.308 165.071 469.62 165.612L469.105 166.127C468.481 165.402 468.462 164.428 469.277 163.614C470.263 162.627 471.358 162.831 472 163.474C473.006 164.479 472.344 165.306 472.344 165.306Z" fill="black"/>
<path d="M422.215 54H421.477V46.719H422.215V54ZM429.805 50.364C429.805 51.795 429.337 52.749 428.662 53.352L429.319 54.09L428.761 54.576L428.041 53.766C427.519 54.036 426.943 54.153 426.376 54.153C424.288 54.153 422.947 52.668 422.947 50.364C422.947 49.185 423.289 48.213 423.955 47.529C424.567 46.908 425.422 46.575 426.376 46.575C428.455 46.575 429.805 48.024 429.805 50.364ZM426.376 53.415C426.808 53.415 427.195 53.334 427.537 53.199L426.376 51.885L426.925 51.399L428.167 52.794C428.743 52.281 429.058 51.453 429.058 50.364C429.058 48.096 427.69 47.313 426.376 47.313C425.053 47.313 423.685 48.177 423.685 50.364C423.685 52.614 425.053 53.415 426.376 53.415ZM434.327 50.823L436.1 54.009H435.236L433.481 50.823H434.327ZM435.947 48.771C435.947 50.301 434.867 50.742 434.327 50.823H431.861H431.303V54.009H430.556V46.728L433.562 46.719C434.48 46.719 435.947 47.241 435.947 48.771ZM433.706 50.085C434.705 50.085 435.209 49.698 435.209 48.771C435.209 47.988 434.489 47.475 433.706 47.475H431.303V50.085H433.706Z" fill="black"/>
<path d="M413.073 26.719C414.621 26.719 415.458 27.826 415.458 28.87C415.458 29.914 414.639 30.976 413.082 30.976H410.868V34H410.121V26.719H413.073ZM413.217 30.238C413.928 30.238 414.729 29.788 414.729 28.87C414.729 27.934 413.919 27.457 413.217 27.457H410.868V30.238H413.217ZM419.511 31.912H416.298L415.551 34H414.777L417.495 26.719H418.323L421.05 34H420.258L419.511 31.912ZM417.909 27.403L416.55 31.201H419.259L417.909 27.403ZM426.515 32.002C426.515 33.469 425.624 34.144 423.932 34.144C421.25 34.144 421.187 32.488 421.187 31.822H421.871C421.871 32.2 421.961 33.442 423.833 33.442C425.471 33.442 425.903 32.659 425.804 31.822C425.732 31.192 425.003 30.652 423.707 30.652V29.977C425.507 29.977 425.615 28.933 425.615 28.546C425.615 27.673 424.778 27.286 424.031 27.286C422.834 27.286 422.303 27.952 422.195 28.699H421.457C421.538 27.601 422.339 26.575 423.923 26.575C425.606 26.575 426.335 27.43 426.335 28.717C426.335 29.968 425.228 30.301 425.228 30.301C425.228 30.301 426.515 30.481 426.515 32.002ZM430.562 34L428.042 27.565V34H427.304V26.719H428.483L430.904 32.956L433.307 26.719H434.495V34H433.748L433.757 27.565L431.237 34H430.562ZM439.726 31.912H436.513L435.766 34H434.992L437.71 26.719H438.538L441.265 34H440.473L439.726 31.912ZM438.124 27.403L436.765 31.201H439.474L438.124 27.403ZM445.045 30.409L447.547 34H446.647L444.595 31.048L442.552 34H441.652L444.154 30.409L441.589 26.719H442.489L444.595 29.761L446.71 26.719H447.601L445.045 30.409Z" fill="black"/>
<path d="M405.846 52.5592C406.236 52.1686 406.236 51.5355 405.846 51.1449L399.482 44.781C399.091 44.3905 398.458 44.3905 398.068 44.781C397.677 45.1715 397.677 45.8047 398.068 46.1952L403.724 51.8521L398.068 57.5089C397.677 57.8994 397.677 58.5326 398.068 58.9231C398.458 59.3136 399.091 59.3136 399.482 58.9231L405.846 52.5592ZM387.153 50.8521H386.153V52.8521H387.153V50.8521ZM405.139 51.8521V50.8521H387.153V51.8521V52.8521H405.139V51.8521Z" fill="#9A9C9E"/>
<path d="M451.817 51.2929C451.427 51.6834 451.427 52.3166 451.817 52.7071L458.181 59.0711C458.572 59.4616 459.205 59.4616 459.595 59.0711C459.986 58.6805 459.986 58.0474 459.595 57.6569L453.939 52L459.595 46.3431C459.986 45.9526 459.986 45.3195 459.595 44.9289C459.205 44.5384 458.572 44.5384 458.181 44.9289L451.817 51.2929ZM472.024 52V51H452.524V52V53H472.024V52Z" fill="#9A9C9E"/>
<path d="M337.64 30.8521H336.64V32.8521H337.64V30.8521ZM395.847 32.5592C396.237 32.1686 396.237 31.5355 395.847 31.1449L389.483 24.781C389.092 24.3905 388.459 24.3905 388.069 24.781C387.678 25.1715 387.678 25.8047 388.069 26.1952L393.725 31.8521L388.069 37.5089C387.678 37.8994 387.678 38.5326 388.069 38.9231C388.459 39.3136 389.092 39.3136 389.483 38.9231L395.847 32.5592ZM395.14 31.8521V30.8521H337.64V31.8521V32.8521H395.14V31.8521Z" fill="#9A9C9E"/>
<path d="M540.64 32.8521H541.64V30.8521H540.64V32.8521ZM461.433 31.1449C461.042 31.5355 461.042 32.1686 461.433 32.5592L467.797 38.9231C468.187 39.3136 468.82 39.3136 469.211 38.9231C469.601 38.5326 469.601 37.8994 469.211 37.5089L463.554 31.8521L469.211 26.1952C469.601 25.8047 469.601 25.1715 469.211 24.781C468.82 24.3905 468.187 24.3905 467.797 24.781L461.433 31.1449ZM540.64 31.8521V30.8521H462.14V31.8521V32.8521H540.64V31.8521Z" fill="#9A9C9E"/>
<path d="M563.024 159.055H330" stroke="#9A9C9E" stroke-width="2"/>
<path d="M522.024 94H337" stroke="#9A9C9E" stroke-width="2"/>
<path d="M387.217 73V115H471.24V73H387.217Z" fill="white" stroke="#9A9C9E" stroke-width="2"/>
<mask id="path-81-outside-3_136_1036" maskUnits="userSpaceOnUse" x="336.024" y="85" width="186" height="19" fill="black">
<rect fill="white" x="336.024" y="85" width="186" height="19"/>
<path d="M520.024 85H338.024V104H520.024V85Z"/>
</mask>
<path d="M338.024 85H340.024V104H338.024H336.024V85H338.024ZM520.024 104H518.024V85H520.024H522.024V104H520.024Z" fill="#9A9C9E" mask="url(#path-81-outside-3_136_1036)"/>
<path d="M427.024 72L427.024 116" stroke="#DCFF00" stroke-width="2"/>
<circle cx="541" cy="94" r="1.5" fill="#DCFF00" stroke="#9A9C9E"/>
<circle cx="534" cy="94" r="1.5" fill="#DCFF00" stroke="#9A9C9E"/>
<circle cx="527" cy="94" r="1.5" fill="#DCFF00" stroke="#9A9C9E"/>
<path d="M563.198 346V341L569.198 343.609L563.198 346Z" fill="#9A9C9E" stroke="#9A9C9E" stroke-width="2"/>
<path d="M423.449 383.199L417.117 380.431L421.667 384.981L421.146 385.503L415.997 380.355L416.831 379.521L422.953 382.219L420.242 376.11L421.082 375.27L426.23 380.418L425.702 380.946L421.158 376.39L423.927 382.722L423.449 383.199ZM422.795 374.562L424.431 376.198L426.906 373.722L427.409 374.225L424.921 376.688L426.944 378.711L429.885 375.771L430.381 376.268L426.925 379.723L421.777 374.575L425.233 371.119L425.735 371.622L422.795 374.562ZM434.085 371.596L429.917 367.428L427.906 369.439L428.784 370.317C429.738 371.233 430.992 372.92 431.508 374.174L434.085 371.596ZM434.594 371.1L435.619 370.075L437.133 371.59L436.631 372.093L435.6 371.062L431.024 375.637L432.055 376.668L431.559 377.165L430.044 375.65L430.827 374.867C430.846 373.944 429.579 372.156 428.332 370.883L426.907 369.458L429.929 366.435L434.594 371.1ZM435.683 361.865L437.096 369.552L436.422 370.227L431.273 365.079L431.795 364.557L436.345 369.107L434.92 361.432L435.607 360.745L440.755 365.893L440.234 366.415L435.683 361.865ZM442.983 360.713L440.711 362.985L441.659 364.989L441.112 365.537L437.885 358.466L438.471 357.881L445.548 361.101L444.988 361.661L442.983 360.713ZM438.662 358.657L440.386 362.304L442.302 360.388L438.662 358.657ZM449.342 357.306L446.828 354.793L443.901 357.72L446.415 360.234L445.893 360.756L440.744 355.607L441.266 355.085L443.405 357.224L446.332 354.296L444.194 352.158L444.716 351.636L449.864 356.784L449.342 357.306ZM452.088 351.608L449.816 353.88L450.764 355.885L450.217 356.432L446.99 349.362L447.576 348.776L454.652 351.996L454.092 352.556L452.088 351.608ZM447.766 349.552L449.491 353.199L451.407 351.283L447.766 349.552Z" fill="black"/>
<path d="M346.635 364.821L340.303 362.053L344.853 366.603L344.331 367.125L339.183 361.976L340.016 361.142L346.138 363.841L343.427 357.731L344.267 356.891L349.416 362.04L348.888 362.568L344.344 358.011L347.112 364.344L346.635 364.821ZM349.373 352.983L350.785 360.67L350.111 361.345L344.962 356.196L345.484 355.675L350.034 360.225L348.609 352.55L349.296 351.863L354.445 357.011L353.923 357.533L349.373 352.983ZM358.594 352.862L356.08 350.348L353.153 353.275L355.667 355.789L355.145 356.311L349.996 351.162L350.518 350.641L352.656 352.779L355.584 349.851L353.446 347.713L353.967 347.191L359.116 352.34L358.594 352.862Z" fill="black"/>
<path d="M526.721 369.058L520.389 366.289L524.939 370.839L524.417 371.361L519.269 366.213L520.102 365.379L526.224 368.077L523.513 361.968L524.353 361.128L529.502 366.276L528.974 366.805L524.43 362.248L527.198 368.58L526.721 369.058ZM531.724 361.101L529.452 363.373L530.401 365.378L529.853 365.925L526.627 358.855L527.212 358.269L534.289 361.49L533.729 362.05L531.724 361.101ZM527.403 359.046L529.128 362.692L531.043 360.777L527.403 359.046ZM532.852 358.331L532.611 352.871L533.317 352.165L533.495 356.148L538.701 357.078L538.071 357.708L533.527 356.893L533.622 359.101L535.15 360.629L534.634 361.144L529.486 355.996L530.001 355.48L532.852 358.331ZM540.838 351.185L541.373 350.651C542.557 352.356 542.009 353.973 540.991 354.991C539.515 356.467 537.516 356.366 535.887 354.736C535.06 353.909 534.614 352.967 534.602 352.025C534.595 351.153 534.958 350.307 535.633 349.632C536.842 348.423 538.388 348.264 539.82 349.162L539.286 349.696C538.038 348.996 536.899 349.41 536.154 350.154C535.219 351.09 534.863 352.668 536.409 354.215C538.006 355.812 539.534 355.405 540.469 354.469C541.437 353.502 541.577 352.331 540.838 351.185Z" fill="black"/>
<path d="M404.696 236L404.696 343.852" stroke="#9A9C9E" stroke-width="2" stroke-dasharray="6 6"/>
<path d="M448.808 257.5L448.808 343.852" stroke="#DCFF00" stroke-width="2" stroke-dasharray="4 4"/>
<path d="M488.692 236.852L488.692 343.852" stroke="#9A9C9E" stroke-width="2" stroke-dasharray="6 6"/>
<path d="M354.693 215.852L354.693 343.852" stroke="#9A9C9E" stroke-width="2" stroke-dasharray="4 4"/>
<path d="M538.808 344L538.808 216" stroke="#9A9C9E" stroke-width="2" stroke-dasharray="4 4"/>
<path d="M403.339 353.19C404.351 354.201 404.695 355.207 404.644 356.111L405.63 356.168L405.579 356.906L404.498 356.842C404.319 357.402 403.995 357.893 403.594 358.293C402.117 359.77 400.119 359.668 398.49 358.039C397.656 357.205 397.211 356.276 397.198 355.321C397.192 354.45 397.561 353.61 398.235 352.935C399.706 351.465 401.685 351.535 403.339 353.19ZM403.072 357.772C403.378 357.466 403.594 357.135 403.74 356.798L401.99 356.69L402.035 355.958L403.899 356.066C403.944 355.296 403.581 354.488 402.811 353.718C401.207 352.114 399.686 352.528 398.757 353.457C397.822 354.392 397.465 355.971 399.012 357.517C400.603 359.108 402.137 358.707 403.072 357.772ZM409.388 352.283L406.25 355.421L405.728 354.899L407.179 353.461L403.145 349.426L402.667 351.672L402.075 351.068L402.559 348.815L403.087 348.287L407.714 352.913L408.866 351.762L409.388 352.283Z" fill="black"/>
<path d="M486.295 353.23C487.307 354.242 487.651 355.247 487.6 356.151L488.586 356.208L488.535 356.946L487.453 356.883C487.275 357.443 486.951 357.933 486.55 358.334C485.073 359.81 483.075 359.708 481.446 358.079C480.612 357.246 480.167 356.316 480.154 355.362C480.147 354.49 480.517 353.65 481.191 352.975C482.661 351.505 484.64 351.575 486.295 353.23ZM486.028 357.812C486.333 357.507 486.55 357.176 486.696 356.838L484.946 356.73L484.99 355.998L486.855 356.106C486.9 355.336 486.537 354.528 485.767 353.758C484.163 352.154 482.642 352.568 481.713 353.497C480.777 354.433 480.421 356.011 481.968 357.557C483.559 359.148 485.092 358.747 486.028 357.812ZM488.608 350.306C488.608 350.306 489.766 349.365 491.02 350.618C492.101 351.7 492 352.871 490.943 353.928C489.982 354.888 488.811 354.978 487.857 354.125L488.366 353.616C489.238 354.144 489.785 354.068 490.574 353.278C491.268 352.585 491.102 351.745 490.415 351.057C489.976 350.618 489.129 350.446 488.226 351.172L487.768 350.714C488.258 350.058 488.238 349.505 487.863 349.129C487.227 348.493 486.622 348.575 486.062 349.135C485.591 349.606 485.572 350.071 485.884 350.612L485.368 351.127C484.745 350.402 484.726 349.428 485.54 348.614C486.527 347.627 487.621 347.831 488.264 348.474C489.269 349.479 488.608 350.306 488.608 350.306Z" fill="black"/>
<path d="M440.781 239H440.043V231.719H440.781V239ZM448.372 235.364C448.372 236.795 447.904 237.749 447.229 238.352L447.886 239.09L447.328 239.576L446.608 238.766C446.086 239.036 445.51 239.153 444.943 239.153C442.855 239.153 441.514 237.668 441.514 235.364C441.514 234.185 441.856 233.213 442.522 232.529C443.134 231.908 443.989 231.575 444.943 231.575C447.022 231.575 448.372 233.024 448.372 235.364ZM444.943 238.415C445.375 238.415 445.762 238.334 446.104 238.199L444.943 236.885L445.492 236.399L446.734 237.794C447.31 237.281 447.625 236.453 447.625 235.364C447.625 233.096 446.257 232.313 444.943 232.313C443.62 232.313 442.252 233.177 442.252 235.364C442.252 237.614 443.62 238.415 444.943 238.415ZM452.893 235.823L454.666 239.009H453.802L452.047 235.823H452.893ZM454.513 233.771C454.513 235.301 453.433 235.742 452.893 235.823H450.427H449.869V239.009H449.122V231.728L452.128 231.719C453.046 231.719 454.513 232.241 454.513 233.771ZM452.272 235.085C453.271 235.085 453.775 234.698 453.775 233.771C453.775 232.988 453.055 232.475 452.272 232.475H449.869V235.085H452.272Z" fill="black"/>
<path d="M431.64 211.719C433.188 211.719 434.025 212.826 434.025 213.87C434.025 214.914 433.206 215.976 431.649 215.976H429.435V219H428.688V211.719H431.64ZM431.784 215.238C432.495 215.238 433.296 214.788 433.296 213.87C433.296 212.934 432.486 212.457 431.784 212.457H429.435V215.238H431.784ZM438.077 216.912H434.864L434.117 219H433.343L436.061 211.719H436.889L439.616 219H438.824L438.077 216.912ZM436.475 212.403L435.116 216.201H437.825L436.475 212.403ZM445.082 217.002C445.082 218.469 444.191 219.144 442.499 219.144C439.817 219.144 439.754 217.488 439.754 216.822H440.438C440.438 217.2 440.528 218.442 442.4 218.442C444.038 218.442 444.47 217.659 444.371 216.822C444.299 216.192 443.57 215.652 442.274 215.652V214.977C444.074 214.977 444.182 213.933 444.182 213.546C444.182 212.673 443.345 212.286 442.598 212.286C441.401 212.286 440.87 212.952 440.762 213.699H440.024C440.105 212.601 440.906 211.575 442.49 211.575C444.173 211.575 444.902 212.43 444.902 213.717C444.902 214.968 443.795 215.301 443.795 215.301C443.795 215.301 445.082 215.481 445.082 217.002ZM449.128 219L446.608 212.565V219H445.87V211.719H447.049L449.47 217.956L451.873 211.719H453.061V219H452.314L452.323 212.565L449.803 219H449.128ZM458.292 216.912H455.079L454.332 219H453.558L456.276 211.719H457.104L459.831 219H459.039L458.292 216.912ZM456.69 212.403L455.331 216.201H458.04L456.69 212.403ZM463.612 215.409L466.114 219H465.214L463.162 216.048L461.119 219H460.219L462.721 215.409L460.156 211.719H461.056L463.162 214.761L465.277 211.719H466.168L463.612 215.409Z" fill="black"/>
<path d="M469.986 237.559C469.596 237.169 469.596 236.535 469.986 236.145L476.35 229.781C476.741 229.39 477.374 229.39 477.764 229.781C478.155 230.172 478.155 230.805 477.764 231.195L472.108 236.852L477.764 242.509C478.155 242.899 478.155 243.533 477.764 243.923C477.374 244.314 476.741 244.314 476.35 243.923L469.986 237.559ZM488.679 235.852H489.679V237.852H488.679V235.852ZM470.693 236.852V235.852H488.679V236.852V237.852H470.693V236.852Z" fill="#9A9C9E"/>
<path d="M424.015 236.293C424.405 236.683 424.405 237.317 424.015 237.707L417.651 244.071C417.26 244.462 416.627 244.462 416.237 244.071C415.846 243.681 415.846 243.047 416.237 242.657L421.893 237L416.237 231.343C415.846 230.953 415.846 230.319 416.237 229.929C416.627 229.538 417.26 229.538 417.651 229.929L424.015 236.293ZM403.808 237V236H423.308V237V238H403.808V237Z" fill="#9A9C9E"/>
<path d="M538.192 215.852H539.192V217.852H538.192V215.852ZM479.985 217.559C479.595 217.169 479.595 216.535 479.985 216.145L486.349 209.781C486.74 209.39 487.373 209.39 487.763 209.781C488.154 210.172 488.154 210.805 487.763 211.195L482.107 216.852L487.763 222.509C488.154 222.899 488.154 223.533 487.763 223.923C487.373 224.314 486.74 224.314 486.349 223.923L479.985 217.559ZM480.692 216.852V215.852H538.192V216.852V217.852H480.692V216.852Z" fill="#9A9C9E"/>
<path d="M355.192 217.852H354.192V215.852H355.192V217.852ZM414.399 216.145C414.79 216.535 414.79 217.169 414.399 217.559L408.036 223.923C407.645 224.314 407.012 224.314 406.621 223.923C406.231 223.533 406.231 222.899 406.621 222.509L412.278 216.852L406.621 211.195C406.231 210.805 406.231 210.172 406.621 209.781C407.012 209.39 407.645 209.39 408.036 209.781L414.399 216.145ZM355.192 216.852V215.852H413.692V216.852V217.852H355.192V216.852Z" fill="#9A9C9E"/>
<path d="M329.808 344.055H562.832" stroke="#9A9C9E" stroke-width="2"/>
<path d="M353.808 279H538.832" stroke="#9A9C9E" stroke-width="2"/>
<path d="M488.615 258V300H404.592V258H488.615Z" fill="white" stroke="#9A9C9E" stroke-width="2"/>
<mask id="path-107-outside-4_136_1036" maskUnits="userSpaceOnUse" x="353.808" y="270" width="186" height="19" fill="black">
<rect fill="white" x="353.808" y="270" width="186" height="19"/>
<path d="M355.808 270H537.808V289H355.808V270Z"/>
</mask>
<path d="M537.808 270H535.808V289H537.808H539.808V270H537.808ZM355.808 289H357.808V270H355.808H353.808V289H355.808Z" fill="#9A9C9E" mask="url(#path-107-outside-4_136_1036)"/>
<path d="M448.808 257L448.808 301" stroke="#DCFF00" stroke-width="2"/>
<circle cx="60" cy="279" r="1.5" fill="#DCFF00" stroke="#9A9C9E"/>
<circle cx="50" cy="279" r="1.5" fill="#DCFF00" stroke="#9A9C9E"/>
</svg>
