<svg width="589" height="413" viewBox="0 0 589 413" fill="none" xmlns="http://www.w3.org/2000/svg">
<rect width="589" height="413" fill="white"/>
<path d="M410.385 402V398.749H411.862C412.215 398.749 412.527 398.817 412.796 398.953C413.065 399.086 413.276 399.274 413.428 399.515C413.579 399.757 413.655 400.043 413.655 400.374C413.655 400.703 413.579 400.989 413.428 401.234C413.276 401.475 413.065 401.664 412.796 401.8C412.527 401.933 412.215 402 411.862 402H410.385ZM411.138 401.382H411.825C412.042 401.382 412.229 401.342 412.387 401.262C412.548 401.178 412.672 401.06 412.759 400.909C412.849 400.757 412.893 400.579 412.893 400.374C412.893 400.167 412.849 399.989 412.759 399.84C412.672 399.689 412.548 399.573 412.387 399.492C412.229 399.408 412.042 399.367 411.825 399.367H411.138V401.382ZM415.704 402V401.512L415.658 401.406V400.532C415.658 400.378 415.61 400.257 415.514 400.17C415.421 400.083 415.277 400.04 415.082 400.04C414.949 400.04 414.817 400.062 414.687 400.105C414.56 400.145 414.452 400.201 414.362 400.272L414.102 399.766C414.238 399.67 414.402 399.596 414.594 399.543C414.786 399.49 414.981 399.464 415.179 399.464C415.56 399.464 415.856 399.554 416.066 399.734C416.277 399.913 416.382 400.193 416.382 400.574V402H415.704ZM414.942 402.037C414.747 402.037 414.58 402.005 414.441 401.94C414.302 401.872 414.195 401.78 414.12 401.666C414.046 401.551 414.009 401.423 414.009 401.28C414.009 401.131 414.045 401.001 414.116 400.89C414.19 400.779 414.306 400.692 414.464 400.63C414.622 400.565 414.828 400.532 415.082 400.532H415.746V400.955H415.161C414.99 400.955 414.873 400.983 414.808 401.039C414.746 401.094 414.715 401.164 414.715 401.248C414.715 401.34 414.751 401.415 414.822 401.471C414.896 401.523 414.997 401.549 415.124 401.549C415.244 401.549 415.353 401.522 415.449 401.466C415.545 401.407 415.614 401.322 415.658 401.21L415.769 401.545C415.717 401.706 415.621 401.828 415.481 401.912C415.342 401.995 415.162 402.037 414.942 402.037ZM418.06 402.037C417.766 402.037 417.537 401.963 417.372 401.814C417.208 401.663 417.126 401.438 417.126 401.141V398.949H417.851V401.131C417.851 401.237 417.879 401.319 417.934 401.378C417.99 401.433 418.066 401.461 418.162 401.461C418.277 401.461 418.374 401.43 418.455 401.368L418.65 401.879C418.575 401.932 418.486 401.972 418.38 402C418.278 402.025 418.171 402.037 418.06 402.037ZM416.741 400.114V399.557H418.473V400.114H416.741ZM420.589 402V401.512L420.543 401.406V400.532C420.543 400.378 420.495 400.257 420.399 400.17C420.306 400.083 420.162 400.04 419.967 400.04C419.834 400.04 419.702 400.062 419.572 400.105C419.445 400.145 419.337 400.201 419.247 400.272L418.987 399.766C419.123 399.67 419.287 399.596 419.479 399.543C419.671 399.49 419.866 399.464 420.064 399.464C420.445 399.464 420.741 399.554 420.951 399.734C421.162 399.913 421.267 400.193 421.267 400.574V402H420.589ZM419.827 402.037C419.632 402.037 419.465 402.005 419.326 401.94C419.186 401.872 419.08 401.78 419.005 401.666C418.931 401.551 418.894 401.423 418.894 401.28C418.894 401.131 418.929 401.001 419.001 400.89C419.075 400.779 419.191 400.692 419.349 400.63C419.507 400.565 419.713 400.532 419.967 400.532H420.631V400.955H420.046C419.875 400.955 419.758 400.983 419.693 401.039C419.631 401.094 419.6 401.164 419.6 401.248C419.6 401.34 419.635 401.415 419.707 401.471C419.781 401.523 419.882 401.549 420.008 401.549C420.129 401.549 420.238 401.522 420.334 401.466C420.43 401.407 420.499 401.322 420.543 401.21L420.654 401.545C420.601 401.706 420.505 401.828 420.366 401.912C420.227 401.995 420.047 402.037 419.827 402.037ZM424.845 402.056C424.594 402.056 424.361 402.015 424.144 401.935C423.93 401.851 423.744 401.734 423.586 401.582C423.429 401.43 423.305 401.252 423.215 401.048C423.128 400.844 423.085 400.619 423.085 400.374C423.085 400.13 423.128 399.905 423.215 399.701C423.305 399.497 423.429 399.319 423.586 399.167C423.747 399.015 423.935 398.899 424.148 398.819C424.362 398.735 424.596 398.693 424.85 398.693C425.132 398.693 425.385 398.743 425.611 398.842C425.841 398.938 426.033 399.08 426.187 399.269L425.704 399.715C425.593 399.588 425.469 399.494 425.333 399.432C425.197 399.367 425.048 399.334 424.887 399.334C424.735 399.334 424.596 399.359 424.469 399.408C424.342 399.458 424.232 399.529 424.139 399.622C424.046 399.715 423.974 399.825 423.921 399.952C423.871 400.079 423.847 400.22 423.847 400.374C423.847 400.529 423.871 400.67 423.921 400.797C423.974 400.924 424.046 401.034 424.139 401.127C424.232 401.22 424.342 401.291 424.469 401.34C424.596 401.39 424.735 401.415 424.887 401.415C425.048 401.415 425.197 401.384 425.333 401.322C425.469 401.257 425.593 401.159 425.704 401.029L426.187 401.475C426.033 401.664 425.841 401.808 425.611 401.907C425.385 402.006 425.13 402.056 424.845 402.056ZM427.64 402.037C427.432 402.037 427.246 401.997 427.082 401.916C426.921 401.836 426.796 401.714 426.706 401.549C426.616 401.382 426.571 401.17 426.571 400.913V399.501H427.296V400.806C427.296 401.014 427.339 401.167 427.426 401.266C427.516 401.362 427.641 401.41 427.802 401.41C427.914 401.41 428.013 401.387 428.1 401.34C428.186 401.291 428.254 401.217 428.304 401.118C428.353 401.015 428.378 400.888 428.378 400.737V399.501H429.103V402H428.415V401.313L428.541 401.512C428.457 401.686 428.333 401.817 428.169 401.907C428.008 401.994 427.832 402.037 427.64 402.037ZM429.774 402V398.554H430.498V402H429.774ZM432.379 402.037C432.084 402.037 431.855 401.963 431.691 401.814C431.527 401.663 431.445 401.438 431.445 401.141V398.949H432.17V401.131C432.17 401.237 432.198 401.319 432.253 401.378C432.309 401.433 432.385 401.461 432.481 401.461C432.595 401.461 432.693 401.43 432.773 401.368L432.968 401.879C432.894 401.932 432.804 401.972 432.699 402C432.597 402.025 432.49 402.037 432.379 402.037ZM431.06 400.114V399.557H432.792V400.114H431.06ZM434.429 402.037C434.222 402.037 434.036 401.997 433.872 401.916C433.711 401.836 433.586 401.714 433.496 401.549C433.406 401.382 433.361 401.17 433.361 400.913V399.501H434.086V400.806C434.086 401.014 434.129 401.167 434.216 401.266C434.306 401.362 434.431 401.41 434.592 401.41C434.704 401.41 434.803 401.387 434.889 401.34C434.976 401.291 435.044 401.217 435.094 401.118C435.143 401.015 435.168 400.888 435.168 400.737V399.501H435.892V402H435.205V401.313L435.331 401.512C435.247 401.686 435.123 401.817 434.959 401.907C434.798 401.994 434.621 402.037 434.429 402.037ZM436.564 402V399.501H437.256V400.207L437.158 400.003C437.233 399.826 437.352 399.693 437.516 399.603C437.68 399.511 437.88 399.464 438.115 399.464V400.133C438.084 400.13 438.056 400.128 438.031 400.128C438.007 400.125 437.98 400.124 437.952 400.124C437.754 400.124 437.593 400.181 437.469 400.295C437.349 400.407 437.288 400.582 437.288 400.82V402H436.564ZM439.768 402.037C439.483 402.037 439.232 401.981 439.015 401.87C438.802 401.758 438.636 401.607 438.518 401.415C438.401 401.22 438.342 400.998 438.342 400.751C438.342 400.5 438.399 400.278 438.514 400.086C438.631 399.891 438.791 399.74 438.992 399.631C439.193 399.52 439.421 399.464 439.675 399.464C439.919 399.464 440.139 399.517 440.334 399.622C440.532 399.724 440.689 399.873 440.803 400.068C440.918 400.26 440.975 400.491 440.975 400.76C440.975 400.788 440.974 400.82 440.971 400.857C440.968 400.892 440.964 400.924 440.961 400.955H438.932V400.532H440.58L440.302 400.658C440.302 400.528 440.275 400.415 440.223 400.319C440.17 400.223 440.097 400.148 440.005 400.096C439.912 400.04 439.803 400.012 439.679 400.012C439.556 400.012 439.446 400.04 439.35 400.096C439.257 400.148 439.184 400.224 439.131 400.323C439.079 400.419 439.052 400.534 439.052 400.667V400.779C439.052 400.915 439.082 401.036 439.141 401.141C439.203 401.243 439.288 401.322 439.396 401.378C439.508 401.43 439.638 401.457 439.786 401.457C439.919 401.457 440.036 401.436 440.135 401.396C440.237 401.356 440.33 401.296 440.413 401.215L440.799 401.633C440.684 401.763 440.54 401.864 440.367 401.935C440.193 402.003 439.994 402.037 439.768 402.037ZM441.732 402.037C441.608 402.037 441.501 401.995 441.411 401.912C441.324 401.825 441.281 401.715 441.281 401.582C441.281 401.449 441.324 401.342 441.411 401.262C441.501 401.178 441.608 401.136 441.732 401.136C441.859 401.136 441.965 401.178 442.052 401.262C442.139 401.342 442.182 401.449 442.182 401.582C442.182 401.715 442.139 401.825 442.052 401.912C441.965 401.995 441.859 402.037 441.732 402.037ZM443.775 398.749H444.643L445.317 399.734L445.99 398.749H446.873L445.791 400.305L446.961 402H446.074L445.317 400.922L444.569 402H443.701L444.862 400.337L443.775 398.749ZM448.435 402.037C448.15 402.037 447.899 401.981 447.683 401.87C447.469 401.758 447.303 401.607 447.186 401.415C447.068 401.22 447.009 400.998 447.009 400.751C447.009 400.5 447.067 400.278 447.181 400.086C447.299 399.891 447.458 399.74 447.659 399.631C447.861 399.52 448.088 399.464 448.342 399.464C448.587 399.464 448.807 399.517 449.002 399.622C449.2 399.724 449.356 399.873 449.471 400.068C449.585 400.26 449.643 400.491 449.643 400.76C449.643 400.788 449.641 400.82 449.638 400.857C449.635 400.892 449.632 400.924 449.629 400.955H447.599V400.532H449.248L448.969 400.658C448.969 400.528 448.943 400.415 448.89 400.319C448.838 400.223 448.765 400.148 448.672 400.096C448.579 400.04 448.471 400.012 448.347 400.012C448.223 400.012 448.113 400.04 448.017 400.096C447.924 400.148 447.851 400.224 447.799 400.323C447.746 400.419 447.72 400.534 447.72 400.667V400.779C447.72 400.915 447.749 401.036 447.808 401.141C447.87 401.243 447.955 401.322 448.064 401.378C448.175 401.43 448.305 401.457 448.454 401.457C448.587 401.457 448.703 401.436 448.802 401.396C448.904 401.356 448.997 401.296 449.081 401.215L449.466 401.633C449.352 401.763 449.208 401.864 449.034 401.935C448.861 402.003 448.661 402.037 448.435 402.037ZM450.198 402V399.501H450.918V400.477H452.005V399.501H452.729V402H452.005V401.066H450.918V402H450.198ZM455.141 401.675V400.096H454.324L454.31 400.416C454.304 400.549 454.296 400.676 454.287 400.797C454.277 400.918 454.259 401.028 454.231 401.127C454.206 401.223 454.169 401.305 454.12 401.373C454.07 401.438 454.003 401.483 453.92 401.508L453.205 401.406C453.294 401.406 453.367 401.379 453.423 401.327C453.479 401.271 453.522 401.195 453.553 401.099C453.584 401 453.607 400.888 453.623 400.765C453.638 400.638 453.649 400.504 453.655 400.365L453.688 399.501H455.866V401.675H455.141ZM453.121 402.539V401.406H456.223V402.539H455.55V402H453.794V402.539H453.121ZM457.919 402.056C457.715 402.056 457.529 402.026 457.362 401.967C457.195 401.906 457.049 401.811 456.926 401.684C456.805 401.554 456.71 401.388 456.642 401.187C456.577 400.986 456.545 400.746 456.545 400.467C456.545 400.269 456.562 400.088 456.596 399.924C456.63 399.76 456.681 399.611 456.749 399.478C456.817 399.342 456.904 399.223 457.009 399.12C457.118 399.015 457.243 398.928 457.385 398.86C457.531 398.789 457.695 398.735 457.878 398.698L459.067 398.461L459.164 399.083L458.115 399.292C458.053 399.305 457.981 399.322 457.901 399.343C457.823 399.362 457.745 399.391 457.664 399.432C457.587 399.472 457.514 399.529 457.446 399.603C457.381 399.675 457.328 399.769 457.288 399.887C457.248 400.001 457.227 400.144 457.227 400.314C457.227 400.367 457.229 400.407 457.232 400.435C457.238 400.463 457.243 400.492 457.246 400.523C457.252 400.554 457.255 400.602 457.255 400.667L457.023 400.439C457.091 400.294 457.178 400.17 457.283 400.068C457.392 399.966 457.515 399.888 457.655 399.836C457.797 399.78 457.955 399.752 458.128 399.752C458.364 399.752 458.57 399.8 458.746 399.896C458.926 399.989 459.065 400.121 459.164 400.291C459.263 400.461 459.313 400.655 459.313 400.871C459.313 401.107 459.254 401.314 459.136 401.494C459.019 401.67 458.855 401.808 458.644 401.907C458.437 402.006 458.195 402.056 457.919 402.056ZM457.957 401.494C458.077 401.494 458.184 401.467 458.277 401.415C458.37 401.359 458.441 401.286 458.491 401.197C458.543 401.104 458.57 401 458.57 400.885C458.57 400.774 458.543 400.675 458.491 400.588C458.441 400.501 458.37 400.433 458.277 400.384C458.184 400.334 458.076 400.309 457.952 400.309C457.831 400.309 457.723 400.334 457.627 400.384C457.531 400.43 457.457 400.495 457.404 400.579C457.351 400.662 457.325 400.76 457.325 400.871C457.325 400.986 457.351 401.091 457.404 401.187C457.46 401.28 457.534 401.354 457.627 401.41C457.723 401.466 457.833 401.494 457.957 401.494ZM460.075 402.938C459.945 402.938 459.817 402.918 459.69 402.878C459.563 402.838 459.459 402.782 459.379 402.711L459.643 402.195C459.699 402.245 459.763 402.283 459.834 402.311C459.908 402.339 459.981 402.353 460.052 402.353C460.154 402.353 460.235 402.328 460.294 402.279C460.356 402.232 460.411 402.153 460.461 402.042L460.591 401.735L460.647 401.656L461.543 399.501H462.24L461.111 402.153C461.031 402.355 460.938 402.512 460.832 402.627C460.73 402.742 460.616 402.822 460.489 402.869C460.365 402.915 460.227 402.938 460.075 402.938ZM460.503 402.098L459.388 399.501H460.136L461 401.591L460.503 402.098ZM464.359 402L463.523 400.816L464.113 400.467L465.213 402H464.359ZM462.589 402V399.501H463.314V402H462.589ZM463.1 401.053V400.472H463.973V401.053H463.1ZM464.182 400.834L463.504 400.76L464.382 399.501H465.153L464.182 400.834ZM466.884 402V399.501H469.369V402H468.645V399.933L468.807 400.096H467.442L467.604 399.933V402H466.884ZM471.234 402.037C470.968 402.037 470.731 401.981 470.524 401.87C470.319 401.758 470.157 401.607 470.036 401.415C469.918 401.22 469.86 400.998 469.86 400.751C469.86 400.5 469.918 400.278 470.036 400.086C470.157 399.891 470.319 399.74 470.524 399.631C470.731 399.52 470.968 399.464 471.234 399.464C471.497 399.464 471.733 399.52 471.94 399.631C472.148 399.74 472.31 399.89 472.428 400.082C472.546 400.274 472.604 400.497 472.604 400.751C472.604 400.998 472.546 401.22 472.428 401.415C472.31 401.607 472.148 401.758 471.94 401.87C471.733 401.981 471.497 402.037 471.234 402.037ZM471.234 401.443C471.355 401.443 471.463 401.415 471.559 401.359C471.655 401.303 471.731 401.224 471.787 401.122C471.843 401.017 471.871 400.893 471.871 400.751C471.871 400.605 471.843 400.481 471.787 400.379C471.731 400.277 471.655 400.198 471.559 400.142C471.463 400.086 471.355 400.059 471.234 400.059C471.114 400.059 471.005 400.086 470.909 400.142C470.813 400.198 470.736 400.277 470.677 400.379C470.621 400.481 470.593 400.605 470.593 400.751C470.593 400.893 470.621 401.017 470.677 401.122C470.736 401.224 470.813 401.303 470.909 401.359C471.005 401.415 471.114 401.443 471.234 401.443ZM475.914 402V401.512L475.867 401.406V400.532C475.867 400.378 475.819 400.257 475.723 400.17C475.63 400.083 475.486 400.04 475.291 400.04C475.158 400.04 475.027 400.062 474.896 400.105C474.77 400.145 474.661 400.201 474.571 400.272L474.311 399.766C474.447 399.67 474.612 399.596 474.804 399.543C474.996 399.49 475.191 399.464 475.389 399.464C475.77 399.464 476.065 399.554 476.276 399.734C476.486 399.913 476.592 400.193 476.592 400.574V402H475.914ZM475.152 402.037C474.957 402.037 474.79 402.005 474.65 401.94C474.511 401.872 474.404 401.78 474.33 401.666C474.256 401.551 474.218 401.423 474.218 401.28C474.218 401.131 474.254 401.001 474.325 400.89C474.4 400.779 474.516 400.692 474.674 400.63C474.831 400.565 475.037 400.532 475.291 400.532H475.955V400.955H475.37C475.2 400.955 475.082 400.983 475.017 401.039C474.955 401.094 474.924 401.164 474.924 401.248C474.924 401.34 474.96 401.415 475.031 401.471C475.105 401.523 475.206 401.549 475.333 401.549C475.454 401.549 475.562 401.522 475.658 401.466C475.754 401.407 475.824 401.322 475.867 401.21L475.979 401.545C475.926 401.706 475.83 401.828 475.691 401.912C475.551 401.995 475.372 402.037 475.152 402.037ZM477.221 402V399.501H477.941V400.477H479.028V399.501H479.752V402H479.028V401.066H477.941V402H477.221ZM481.941 402V401.512L481.895 401.406V400.532C481.895 400.378 481.847 400.257 481.751 400.17C481.658 400.083 481.514 400.04 481.319 400.04C481.186 400.04 481.054 400.062 480.924 400.105C480.797 400.145 480.689 400.201 480.599 400.272L480.339 399.766C480.475 399.67 480.639 399.596 480.831 399.543C481.023 399.49 481.218 399.464 481.417 399.464C481.797 399.464 482.093 399.554 482.304 399.734C482.514 399.913 482.619 400.193 482.619 400.574V402H481.941ZM481.18 402.037C480.985 402.037 480.817 402.005 480.678 401.94C480.539 401.872 480.432 401.78 480.358 401.666C480.283 401.551 480.246 401.423 480.246 401.28C480.246 401.131 480.282 401.001 480.353 400.89C480.427 400.779 480.543 400.692 480.701 400.63C480.859 400.565 481.065 400.532 481.319 400.532H481.983V400.955H481.398C481.228 400.955 481.11 400.983 481.045 401.039C480.983 401.094 480.952 401.164 480.952 401.248C480.952 401.34 480.988 401.415 481.059 401.471C481.133 401.523 481.234 401.549 481.361 401.549C481.482 401.549 481.59 401.522 481.686 401.466C481.782 401.407 481.852 401.322 481.895 401.21L482.006 401.545C481.954 401.706 481.858 401.828 481.718 401.912C481.579 401.995 481.4 402.037 481.18 402.037ZM482.933 401.995L482.97 401.401C482.989 401.404 483.007 401.407 483.026 401.41C483.045 401.41 483.062 401.41 483.077 401.41C483.164 401.41 483.232 401.385 483.281 401.336C483.331 401.286 483.368 401.22 483.393 401.136C483.418 401.049 483.435 400.952 483.444 400.844C483.456 400.735 483.466 400.622 483.472 400.504L483.509 399.501H485.645V402H484.921V399.919L485.083 400.096H483.987L484.141 399.91L484.108 400.537C484.099 400.76 484.08 400.964 484.052 401.15C484.028 401.336 483.986 401.497 483.927 401.633C483.868 401.766 483.789 401.87 483.69 401.944C483.591 402.015 483.464 402.051 483.309 402.051C483.254 402.051 483.195 402.046 483.133 402.037C483.071 402.028 483.004 402.014 482.933 401.995ZM486.342 402V399.501H487.062V400.988L488.279 399.501H488.943V402H488.223V400.514L487.011 402H486.342ZM490.462 402.046C490.27 402.046 490.078 402.026 489.886 401.986C489.697 401.946 489.522 401.885 489.361 401.805L489.556 401.299C489.683 401.361 489.821 401.409 489.97 401.443C490.122 401.474 490.275 401.489 490.43 401.489C490.541 401.489 490.637 401.478 490.718 401.457C490.801 401.432 490.865 401.398 490.908 401.354C490.951 401.311 490.973 401.258 490.973 401.197C490.973 401.116 490.939 401.056 490.871 401.015C490.803 400.972 490.704 400.95 490.574 400.95H490.063V400.5H490.513C490.597 400.5 490.668 400.491 490.727 400.472C490.786 400.453 490.829 400.427 490.857 400.393C490.888 400.356 490.903 400.313 490.903 400.263C490.903 400.21 490.885 400.165 490.848 400.128C490.81 400.091 490.756 400.063 490.685 400.045C490.614 400.023 490.524 400.012 490.416 400.012C490.292 400.012 490.163 400.028 490.03 400.059C489.897 400.086 489.761 400.128 489.621 400.184L489.445 399.682C489.609 399.614 489.772 399.56 489.933 399.52C490.094 399.48 490.253 399.458 490.411 399.455C490.643 399.449 490.852 399.473 491.038 399.529C491.224 399.585 491.369 399.665 491.475 399.771C491.583 399.876 491.637 400.004 491.637 400.156C491.637 400.277 491.6 400.385 491.526 400.481C491.454 400.577 491.355 400.653 491.228 400.709C491.102 400.761 490.959 400.788 490.801 400.788L490.82 400.644C491.095 400.644 491.312 400.7 491.47 400.811C491.628 400.919 491.707 401.068 491.707 401.257C491.707 401.418 491.651 401.559 491.54 401.68C491.431 401.797 491.283 401.889 491.094 401.954C490.908 402.015 490.697 402.046 490.462 402.046ZM492.564 402.938C492.434 402.938 492.305 402.918 492.178 402.878C492.051 402.838 491.948 402.782 491.867 402.711L492.132 402.195C492.188 402.245 492.251 402.283 492.322 402.311C492.397 402.339 492.469 402.353 492.541 402.353C492.643 402.353 492.723 402.328 492.782 402.279C492.844 402.232 492.9 402.153 492.949 402.042L493.079 401.735L493.135 401.656L494.031 399.501H494.728L493.6 402.153C493.519 402.355 493.426 402.512 493.321 402.627C493.219 402.742 493.104 402.822 492.977 402.869C492.853 402.915 492.716 402.938 492.564 402.938ZM492.991 402.098L491.876 399.501H492.624L493.488 401.591L492.991 402.098ZM498.111 401.675V400.096H497.294L497.28 400.416C497.274 400.549 497.266 400.676 497.257 400.797C497.248 400.918 497.229 401.028 497.201 401.127C497.176 401.223 497.139 401.305 497.09 401.373C497.04 401.438 496.974 401.483 496.89 401.508L496.175 401.406C496.265 401.406 496.337 401.379 496.393 401.327C496.449 401.271 496.492 401.195 496.523 401.099C496.554 401 496.577 400.888 496.593 400.765C496.608 400.638 496.619 400.504 496.625 400.365L496.658 399.501H498.836V401.675H498.111ZM496.091 402.539V401.406H499.194V402.539H498.52V402H496.765V402.539H496.091ZM501.145 402V401.512L501.099 401.406V400.532C501.099 400.378 501.051 400.257 500.955 400.17C500.862 400.083 500.718 400.04 500.523 400.04C500.39 400.04 500.258 400.062 500.128 400.105C500.001 400.145 499.893 400.201 499.803 400.272L499.543 399.766C499.679 399.67 499.843 399.596 500.035 399.543C500.227 399.49 500.422 399.464 500.62 399.464C501.001 399.464 501.297 399.554 501.507 399.734C501.718 399.913 501.823 400.193 501.823 400.574V402H501.145ZM500.383 402.037C500.188 402.037 500.021 402.005 499.882 401.94C499.742 401.872 499.636 401.78 499.561 401.666C499.487 401.551 499.45 401.423 499.45 401.28C499.45 401.131 499.485 401.001 499.557 400.89C499.631 400.779 499.747 400.692 499.905 400.63C500.063 400.565 500.269 400.532 500.523 400.532H501.187V400.955H500.602C500.431 400.955 500.314 400.983 500.249 401.039C500.187 401.094 500.156 401.164 500.156 401.248C500.156 401.34 500.191 401.415 500.263 401.471C500.337 401.523 500.438 401.549 500.565 401.549C500.685 401.549 500.794 401.522 500.89 401.466C500.986 401.407 501.055 401.322 501.099 401.21L501.21 401.545C501.157 401.706 501.061 401.828 500.922 401.912C500.783 401.995 500.603 402.037 500.383 402.037ZM502.453 402V399.501H503.172V400.477H504.259V399.501H504.984V402H504.259V401.066H503.172V402H502.453ZM505.677 402V399.501H506.397V400.477H507.484V399.501H508.209V402H507.484V401.066H506.397V402H505.677ZM511.475 402V399.501H512.195V402H511.475ZM510.217 400.3C510.545 400.303 510.791 400.378 510.955 400.523C511.122 400.665 511.206 400.868 511.206 401.131C511.206 401.407 511.111 401.622 510.923 401.777C510.734 401.929 510.466 402.005 510.119 402.005L508.902 402V399.501H509.622V400.3H510.217ZM510.054 401.489C510.193 401.492 510.3 401.463 510.374 401.401C510.449 401.339 510.486 401.246 510.486 401.122C510.486 400.998 510.449 400.91 510.374 400.857C510.3 400.802 510.193 400.772 510.054 400.769L509.622 400.765V401.489H510.054ZM512.559 402L513.678 400.532L513.664 400.932L512.592 399.501H513.404L514.082 400.435L513.776 400.444L514.477 399.501H515.248L514.171 400.918V400.528L515.285 402H514.463L513.753 401.006L514.055 401.048L513.349 402H512.559ZM515.902 402.037C515.778 402.037 515.671 401.995 515.582 401.912C515.495 401.825 515.452 401.715 515.452 401.582C515.452 401.449 515.495 401.342 515.582 401.262C515.671 401.178 515.778 401.136 515.902 401.136C516.029 401.136 516.136 401.178 516.223 401.262C516.309 401.342 516.353 401.449 516.353 401.582C516.353 401.715 516.309 401.825 516.223 401.912C516.136 401.995 516.029 402.037 515.902 402.037ZM520.458 398.749H521.21V402H520.458V398.749ZM518.981 402H518.229V398.749H518.981V402ZM520.514 400.667H518.925V400.031H520.514V400.667ZM523.465 402V401.512L523.418 401.406V400.532C523.418 400.378 523.37 400.257 523.274 400.17C523.181 400.083 523.037 400.04 522.842 400.04C522.709 400.04 522.578 400.062 522.448 400.105C522.321 400.145 522.212 400.201 522.122 400.272L521.862 399.766C521.999 399.67 522.163 399.596 522.355 399.543C522.547 399.49 522.742 399.464 522.94 399.464C523.321 399.464 523.616 399.554 523.827 399.734C524.038 399.913 524.143 400.193 524.143 400.574V402H523.465ZM522.703 402.037C522.508 402.037 522.341 402.005 522.201 401.94C522.062 401.872 521.955 401.78 521.881 401.666C521.807 401.551 521.77 401.423 521.77 401.28C521.77 401.131 521.805 401.001 521.876 400.89C521.951 400.779 522.067 400.692 522.225 400.63C522.383 400.565 522.588 400.532 522.842 400.532H523.507V400.955H522.921C522.751 400.955 522.633 400.983 522.568 401.039C522.506 401.094 522.475 401.164 522.475 401.248C522.475 401.34 522.511 401.415 522.582 401.471C522.657 401.523 522.757 401.549 522.884 401.549C523.005 401.549 523.113 401.522 523.209 401.466C523.305 401.407 523.375 401.322 523.418 401.21L523.53 401.545C523.477 401.706 523.381 401.828 523.242 401.912C523.102 401.995 522.923 402.037 522.703 402.037ZM526.347 401.043C526.244 401.099 526.131 401.144 526.008 401.178C525.884 401.212 525.748 401.229 525.599 401.229C525.271 401.229 525.018 401.155 524.842 401.006C524.665 400.854 524.577 400.614 524.577 400.286V399.501H525.302V400.24C525.302 400.395 525.342 400.506 525.422 400.574C525.503 400.639 525.616 400.672 525.761 400.672C525.867 400.672 525.967 400.659 526.063 400.635C526.162 400.61 526.257 400.574 526.347 400.528V401.043ZM526.296 402V399.501H527.02V402H526.296ZM529.211 402V401.512L529.165 401.406V400.532C529.165 400.378 529.117 400.257 529.021 400.17C528.928 400.083 528.784 400.04 528.589 400.04C528.456 400.04 528.324 400.062 528.194 400.105C528.067 400.145 527.959 400.201 527.869 400.272L527.609 399.766C527.745 399.67 527.909 399.596 528.101 399.543C528.293 399.49 528.488 399.464 528.686 399.464C529.067 399.464 529.363 399.554 529.574 399.734C529.784 399.913 529.889 400.193 529.889 400.574V402H529.211ZM528.45 402.037C528.255 402.037 528.087 402.005 527.948 401.94C527.809 401.872 527.702 401.78 527.628 401.666C527.553 401.551 527.516 401.423 527.516 401.28C527.516 401.131 527.552 401.001 527.623 400.89C527.697 400.779 527.813 400.692 527.971 400.63C528.129 400.565 528.335 400.532 528.589 400.532H529.253V400.955H528.668C528.498 400.955 528.38 400.983 528.315 401.039C528.253 401.094 528.222 401.164 528.222 401.248C528.222 401.34 528.258 401.415 528.329 401.471C528.403 401.523 528.504 401.549 528.631 401.549C528.752 401.549 528.86 401.522 528.956 401.466C529.052 401.407 529.122 401.322 529.165 401.21L529.276 401.545C529.224 401.706 529.128 401.828 528.988 401.912C528.849 401.995 528.669 402.037 528.45 402.037ZM530.203 401.995L530.24 401.401C530.259 401.404 530.277 401.407 530.296 401.41C530.314 401.41 530.331 401.41 530.347 401.41C530.434 401.41 530.502 401.385 530.551 401.336C530.601 401.286 530.638 401.22 530.663 401.136C530.688 401.049 530.705 400.952 530.714 400.844C530.726 400.735 530.736 400.622 530.742 400.504L530.779 399.501H532.915V402H532.191V399.919L532.353 400.096H531.257L531.411 399.91L531.378 400.537C531.369 400.76 531.35 400.964 531.322 401.15C531.298 401.336 531.256 401.497 531.197 401.633C531.138 401.766 531.059 401.87 530.96 401.944C530.861 402.015 530.734 402.051 530.579 402.051C530.523 402.051 530.465 402.046 530.403 402.037C530.341 402.028 530.274 402.014 530.203 401.995ZM534.964 400.3C535.292 400.303 535.541 400.378 535.711 400.523C535.885 400.665 535.971 400.868 535.971 401.131C535.971 401.407 535.874 401.622 535.679 401.777C535.484 401.929 535.213 402.005 534.866 402.005L533.612 402V399.501H534.332V400.3H534.964ZM534.801 401.489C534.94 401.492 535.047 401.463 535.122 401.401C535.196 401.339 535.233 401.246 535.233 401.122C535.233 400.998 535.196 400.91 535.122 400.857C535.047 400.802 534.94 400.772 534.801 400.769L534.332 400.765V401.489H534.801ZM536.424 402V399.501H537.144V400.477H538.231V399.501H538.955V402H538.231V401.066H537.144V402H536.424ZM542.222 402V399.501H542.942V402H542.222ZM540.963 400.3C541.292 400.303 541.538 400.378 541.702 400.523C541.869 400.665 541.953 400.868 541.953 401.131C541.953 401.407 541.858 401.622 541.669 401.777C541.48 401.929 541.213 402.005 540.866 402.005L539.649 402V399.501H540.369V400.3H540.963ZM540.801 401.489C540.94 401.492 541.047 401.463 541.121 401.401C541.196 401.339 541.233 401.246 541.233 401.122C541.233 400.998 541.196 400.91 541.121 400.857C541.047 400.802 540.94 400.772 540.801 400.769L540.369 400.765V401.489H540.801ZM543.64 402V399.501H544.36V400.988L545.577 399.501H546.241V402H545.521V400.514L544.309 402H543.64ZM544.894 399.232C544.622 399.232 544.417 399.173 544.281 399.055C544.145 398.935 544.075 398.754 544.072 398.512H544.546C544.549 398.617 544.578 398.701 544.634 398.763C544.69 398.825 544.775 398.856 544.89 398.856C545.001 398.856 545.086 398.825 545.145 398.763C545.207 398.701 545.238 398.617 545.238 398.512H545.721C545.721 398.754 545.651 398.935 545.512 399.055C545.373 399.173 545.167 399.232 544.894 399.232ZM548.592 402.938C548.462 402.938 548.333 402.918 548.207 402.878C548.08 402.838 547.976 402.782 547.895 402.711L548.16 402.195C548.216 402.245 548.279 402.283 548.35 402.311C548.425 402.339 548.498 402.353 548.569 402.353C548.671 402.353 548.751 402.328 548.81 402.279C548.872 402.232 548.928 402.153 548.977 402.042L549.108 401.735L549.163 401.656L550.06 399.501H550.756L549.628 402.153C549.547 402.355 549.454 402.512 549.349 402.627C549.247 402.742 549.132 402.822 549.005 402.869C548.881 402.915 548.744 402.938 548.592 402.938ZM549.019 402.098L547.905 399.501H548.652L549.516 401.591L549.019 402.098ZM552.578 402.037C552.368 402.037 552.183 401.991 552.025 401.898C551.868 401.805 551.744 401.664 551.654 401.475C551.567 401.283 551.524 401.042 551.524 400.751C551.524 400.456 551.566 400.215 551.649 400.026C551.733 399.837 551.854 399.696 552.012 399.603C552.169 399.511 552.358 399.464 552.578 399.464C552.813 399.464 553.024 399.518 553.21 399.627C553.399 399.732 553.547 399.881 553.656 400.073C553.767 400.265 553.823 400.491 553.823 400.751C553.823 401.014 553.767 401.241 553.656 401.433C553.547 401.625 553.399 401.774 553.21 401.879C553.024 401.985 552.813 402.037 552.578 402.037ZM551.101 402.901V399.501H551.793V400.012L551.779 400.755L551.826 401.494V402.901H551.101ZM552.453 401.443C552.573 401.443 552.68 401.415 552.773 401.359C552.869 401.303 552.945 401.224 553.001 401.122C553.06 401.017 553.089 400.893 553.089 400.751C553.089 400.605 553.06 400.481 553.001 400.379C552.945 400.277 552.869 400.198 552.773 400.142C552.68 400.086 552.573 400.059 552.453 400.059C552.332 400.059 552.224 400.086 552.128 400.142C552.032 400.198 551.956 400.277 551.9 400.379C551.844 400.481 551.816 400.605 551.816 400.751C551.816 400.893 551.844 401.017 551.9 401.122C551.956 401.224 552.032 401.303 552.128 401.359C552.224 401.415 552.332 401.443 552.453 401.443ZM555.501 402.037C555.235 402.037 554.998 401.981 554.79 401.87C554.586 401.758 554.424 401.607 554.303 401.415C554.185 401.22 554.126 400.998 554.126 400.751C554.126 400.5 554.185 400.278 554.303 400.086C554.424 399.891 554.586 399.74 554.79 399.631C554.998 399.52 555.235 399.464 555.501 399.464C555.764 399.464 556 399.52 556.207 399.631C556.414 399.74 556.577 399.89 556.695 400.082C556.812 400.274 556.871 400.497 556.871 400.751C556.871 400.998 556.812 401.22 556.695 401.415C556.577 401.607 556.414 401.758 556.207 401.87C556 401.981 555.764 402.037 555.501 402.037ZM555.501 401.443C555.622 401.443 555.73 401.415 555.826 401.359C555.922 401.303 555.998 401.224 556.054 401.122C556.109 401.017 556.137 400.893 556.137 400.751C556.137 400.605 556.109 400.481 556.054 400.379C555.998 400.277 555.922 400.198 555.826 400.142C555.73 400.086 555.622 400.059 555.501 400.059C555.38 400.059 555.272 400.086 555.176 400.142C555.08 400.198 555.003 400.277 554.944 400.379C554.888 400.481 554.86 400.605 554.86 400.751C554.86 400.893 554.888 401.017 554.944 401.122C555.003 401.224 555.08 401.303 555.176 401.359C555.272 401.415 555.38 401.443 555.501 401.443ZM557.369 402V399.501H558.647C558.959 399.501 559.204 399.559 559.381 399.673C559.557 399.785 559.645 399.943 559.645 400.147C559.645 400.351 559.562 400.512 559.394 400.63C559.23 400.744 559.012 400.802 558.74 400.802L558.814 400.635C559.117 400.635 559.343 400.69 559.492 400.802C559.644 400.913 559.72 401.076 559.72 401.289C559.72 401.509 559.636 401.683 559.469 401.81C559.302 401.937 559.046 402 558.702 402H557.369ZM558.034 401.508H558.642C558.775 401.508 558.874 401.486 558.939 401.443C559.007 401.396 559.041 401.327 559.041 401.234C559.041 401.138 559.011 401.068 558.949 401.025C558.887 400.978 558.789 400.955 558.656 400.955H558.034V401.508ZM558.034 400.528H558.582C558.709 400.528 558.803 400.504 558.865 400.458C558.93 400.412 558.963 400.345 558.963 400.258C558.963 400.169 558.93 400.102 558.865 400.059C558.803 400.015 558.709 399.994 558.582 399.994H558.034V400.528ZM561.48 402.037C561.195 402.037 560.944 401.981 560.728 401.87C560.514 401.758 560.348 401.607 560.231 401.415C560.113 401.22 560.054 400.998 560.054 400.751C560.054 400.5 560.112 400.278 560.226 400.086C560.344 399.891 560.503 399.74 560.705 399.631C560.906 399.52 561.133 399.464 561.387 399.464C561.632 399.464 561.852 399.517 562.047 399.622C562.245 399.724 562.401 399.873 562.516 400.068C562.63 400.26 562.688 400.491 562.688 400.76C562.688 400.788 562.686 400.82 562.683 400.857C562.68 400.892 562.677 400.924 562.674 400.955H560.644V400.532H562.293L562.014 400.658C562.014 400.528 561.988 400.415 561.935 400.319C561.883 400.223 561.81 400.148 561.717 400.096C561.624 400.04 561.516 400.012 561.392 400.012C561.268 400.012 561.158 400.04 561.062 400.096C560.969 400.148 560.896 400.224 560.844 400.323C560.791 400.419 560.765 400.534 560.765 400.667V400.779C560.765 400.915 560.794 401.036 560.853 401.141C560.915 401.243 561 401.322 561.109 401.378C561.22 401.43 561.35 401.457 561.499 401.457C561.632 401.457 561.748 401.436 561.847 401.396C561.949 401.356 562.042 401.296 562.126 401.215L562.511 401.633C562.397 401.763 562.253 401.864 562.079 401.935C561.906 402.003 561.706 402.037 561.48 402.037ZM563.243 402V399.501H563.963V400.477H565.05V399.501H565.774V402H565.05V401.066H563.963V402H563.243ZM567.819 400.3C568.148 400.303 568.397 400.378 568.567 400.523C568.741 400.665 568.827 400.868 568.827 401.131C568.827 401.407 568.73 401.622 568.535 401.777C568.34 401.929 568.069 402.005 567.722 402.005L566.468 402V399.501H567.188V400.3H567.819ZM567.657 401.489C567.796 401.492 567.903 401.463 567.977 401.401C568.052 401.339 568.089 401.246 568.089 401.122C568.089 400.998 568.052 400.91 567.977 400.857C567.903 400.802 567.796 400.772 567.657 400.769L567.188 400.765V401.489H567.657Z" fill="#D8D8D8"/>
<rect x="196.385" y="45.385" width="196.23" height="47.23" rx="9.295" fill="#DCFF00" stroke="black" stroke-width="0.77"/>
<path d="M218.948 74V65.955L219.263 66.2823H215.939V65.187H223.204V66.2823H219.88L220.182 65.955V74H218.948ZM224.373 74V67.3273H225.581V72.187L229.673 67.3273H230.769V74H229.56V69.1403L225.481 74H224.373ZM233.115 74V67.3273H239.296V74H238.088V68.0827L238.377 68.3849H234.034L234.323 68.0827V74H233.115ZM248.232 74V67.3273H249.441V74H248.232ZM244.644 69.5935C245.492 69.6019 246.134 69.7949 246.57 70.1726C247.015 70.5503 247.237 71.0833 247.237 71.7716C247.237 72.4934 246.994 73.0516 246.507 73.446C246.029 73.8321 245.341 74.021 244.442 74.0126L241.635 74V67.3273H242.844V69.5809L244.644 69.5935ZM244.354 73.0935C244.891 73.1019 245.303 72.9928 245.588 72.7662C245.874 72.5396 246.016 72.2038 246.016 71.759C246.016 71.3225 245.874 71.0036 245.588 70.8021C245.311 70.6007 244.9 70.4958 244.354 70.4874L242.844 70.4622V73.0809L244.354 73.0935ZM259.729 73.4334V68.3849H256.833L256.771 69.669C256.754 70.0887 256.724 70.4958 256.682 70.8903C256.649 71.2764 256.59 71.6331 256.506 71.9604C256.431 72.2878 256.317 72.5563 256.166 72.7662C256.015 72.976 255.814 73.1061 255.562 73.1565L254.366 72.9424C254.626 72.9508 254.836 72.8669 254.995 72.6906C255.155 72.506 255.277 72.2542 255.36 71.9352C255.453 71.6163 255.52 71.2554 255.562 70.8525C255.604 70.4412 255.637 70.0174 255.663 69.5809L255.763 67.3273H260.938V73.4334H259.729ZM254.101 75.5486V72.9424H261.958V75.5486H260.825V74H255.247V75.5486H254.101ZM267.624 74V72.5899L267.561 72.3255V69.9208C267.561 69.4088 267.41 69.0144 267.108 68.7374C266.814 68.452 266.369 68.3093 265.773 68.3093C265.379 68.3093 264.993 68.3765 264.615 68.5108C264.237 68.6367 263.918 68.8087 263.658 69.0269L263.154 68.1205C263.499 67.8435 263.91 67.6337 264.388 67.491C264.875 67.3399 265.383 67.2643 265.912 67.2643C266.827 67.2643 267.532 67.4868 268.027 67.9316C268.522 68.3765 268.77 69.0563 268.77 69.9712V74H267.624ZM265.433 74.0755C264.938 74.0755 264.502 73.9916 264.124 73.8237C263.755 73.6559 263.469 73.4251 263.268 73.1313C263.066 72.8291 262.966 72.4892 262.966 72.1115C262.966 71.7506 263.05 71.4232 263.217 71.1295C263.394 70.8357 263.675 70.6007 264.061 70.4244C264.455 70.2482 264.984 70.16 265.647 70.16H267.762V71.0288H265.698C265.093 71.0288 264.686 71.1295 264.476 71.3309C264.267 71.5324 264.162 71.7758 264.162 72.0611C264.162 72.3885 264.292 72.6529 264.552 72.8543C264.812 73.0474 265.173 73.1439 265.635 73.1439C266.088 73.1439 266.482 73.0432 266.818 72.8417C267.162 72.6403 267.41 72.3465 267.561 71.9604L267.8 72.7914C267.641 73.1858 267.36 73.5006 266.957 73.7356C266.554 73.9622 266.046 74.0755 265.433 74.0755ZM270.946 74V67.3273H272.155V70.16H275.957V67.3273H277.165V74H275.957V71.205H272.155V74H270.946ZM279.516 74V67.3273H280.724V70.16H284.526V67.3273H285.735V74H284.526V71.205H280.724V74H279.516ZM294.682 74V67.3273H295.891V74H294.682ZM291.094 69.5935C291.942 69.6019 292.584 69.7949 293.02 70.1726C293.465 70.5503 293.688 71.0833 293.688 71.7716C293.688 72.4934 293.444 73.0516 292.957 73.446C292.479 73.8321 291.791 74.021 290.893 74.0126L288.085 74V67.3273H289.294V69.5809L291.094 69.5935ZM290.805 73.0935C291.342 73.1019 291.753 72.9928 292.038 72.7662C292.324 72.5396 292.466 72.2038 292.466 71.759C292.466 71.3225 292.324 71.0036 292.038 70.8021C291.761 70.6007 291.35 70.4958 290.805 70.4874L289.294 70.4622V73.0809L290.805 73.0935ZM297.183 74L300.054 70.2734L300.041 70.8903L297.309 67.3273H298.656L300.746 70.0719H300.23L302.32 67.3273H303.642L300.872 70.9154L300.885 70.2734L303.78 74H302.408L300.205 71.0791L300.696 71.1547L298.53 74H297.183ZM308.433 74V67.3273H311.53C312.311 67.3273 312.924 67.4784 313.368 67.7805C313.822 68.0743 314.048 68.494 314.048 69.0395C314.048 69.5851 313.834 70.009 313.406 70.3111C312.987 70.6049 312.428 70.7518 311.732 70.7518L311.921 70.4244C312.718 70.4244 313.31 70.5713 313.696 70.8651C314.082 71.1589 314.275 71.5911 314.275 72.1619C314.275 72.741 314.057 73.1942 313.62 73.5216C313.192 73.8405 312.533 74 311.644 74H308.433ZM309.617 73.0683H311.556C312.059 73.0683 312.437 72.9928 312.689 72.8417C312.94 72.6822 313.066 72.4304 313.066 72.0863C313.066 71.7338 312.949 71.4778 312.714 71.3183C312.487 71.1505 312.126 71.0665 311.631 71.0665H309.617V73.0683ZM309.617 70.1978H311.43C311.891 70.1978 312.24 70.1139 312.475 69.946C312.718 69.7698 312.84 69.5264 312.84 69.2158C312.84 68.8969 312.718 68.6576 312.475 68.4982C312.24 68.3387 311.891 68.259 311.43 68.259H309.617V70.1978ZM323.64 74V72.5899L323.577 72.3255V69.9208C323.577 69.4088 323.426 69.0144 323.123 68.7374C322.83 68.452 322.385 68.3093 321.789 68.3093C321.394 68.3093 321.008 68.3765 320.631 68.5108C320.253 68.6367 319.934 68.8087 319.674 69.0269L319.17 68.1205C319.514 67.8435 319.926 67.6337 320.404 67.491C320.891 67.3399 321.399 67.2643 321.927 67.2643C322.842 67.2643 323.547 67.4868 324.042 67.9316C324.538 68.3765 324.785 69.0563 324.785 69.9712V74H323.64ZM321.449 74.0755C320.954 74.0755 320.517 73.9916 320.14 73.8237C319.77 73.6559 319.485 73.4251 319.283 73.1313C319.082 72.8291 318.981 72.4892 318.981 72.1115C318.981 71.7506 319.065 71.4232 319.233 71.1295C319.409 70.8357 319.69 70.6007 320.077 70.4244C320.471 70.2482 321 70.16 321.663 70.16H323.778V71.0288H321.713C321.109 71.0288 320.702 71.1295 320.492 71.3309C320.282 71.5324 320.177 71.7758 320.177 72.0611C320.177 72.3885 320.307 72.6529 320.568 72.8543C320.828 73.0474 321.189 73.1439 321.65 73.1439C322.104 73.1439 322.498 73.0432 322.834 72.8417C323.178 72.6403 323.426 72.3465 323.577 71.9604L323.816 72.7914C323.656 73.1858 323.375 73.5006 322.972 73.7356C322.569 73.9622 322.062 74.0755 321.449 74.0755ZM326.962 74V67.3273H328.17V70.16H331.972V67.3273H333.181V74H331.972V71.205H328.17V74H326.962ZM339.623 74V72.5899L339.56 72.3255V69.9208C339.56 69.4088 339.409 69.0144 339.107 68.7374C338.813 68.452 338.368 68.3093 337.772 68.3093C337.378 68.3093 336.992 68.3765 336.614 68.5108C336.236 68.6367 335.917 68.8087 335.657 69.0269L335.154 68.1205C335.498 67.8435 335.909 67.6337 336.387 67.491C336.874 67.3399 337.382 67.2643 337.911 67.2643C338.826 67.2643 339.531 67.4868 340.026 67.9316C340.521 68.3765 340.769 69.0563 340.769 69.9712V74H339.623ZM337.432 74.0755C336.937 74.0755 336.501 73.9916 336.123 73.8237C335.754 73.6559 335.468 73.4251 335.267 73.1313C335.065 72.8291 334.965 72.4892 334.965 72.1115C334.965 71.7506 335.049 71.4232 335.216 71.1295C335.393 70.8357 335.674 70.6007 336.06 70.4244C336.454 70.2482 336.983 70.16 337.646 70.16H339.761V71.0288H337.697C337.092 71.0288 336.685 71.1295 336.475 71.3309C336.266 71.5324 336.161 71.7758 336.161 72.0611C336.161 72.3885 336.291 72.6529 336.551 72.8543C336.811 73.0474 337.172 73.1439 337.634 73.1439C338.087 73.1439 338.481 73.0432 338.817 72.8417C339.161 72.6403 339.409 72.3465 339.56 71.9604L339.799 72.7914C339.64 73.1858 339.359 73.5006 338.956 73.7356C338.553 73.9622 338.045 74.0755 337.432 74.0755ZM341.837 73.9874L341.913 72.9676C341.971 72.976 342.026 72.9844 342.076 72.9928C342.127 73.0012 342.173 73.0054 342.215 73.0054C342.483 73.0054 342.693 72.9131 342.844 72.7284C343.004 72.5438 343.121 72.3003 343.197 71.9982C343.272 71.6876 343.327 71.3393 343.361 70.9532C343.394 70.5671 343.419 70.181 343.436 69.7949L343.549 67.3273H348.673V74H347.465V68.0323L347.754 68.3849H344.33L344.607 68.0197L344.519 69.8705C344.494 70.458 344.447 71.0078 344.38 71.5198C344.313 72.0318 344.208 72.4808 344.066 72.8669C343.931 73.253 343.742 73.5552 343.499 73.7734C343.264 73.9916 342.958 74.1007 342.58 74.1007C342.471 74.1007 342.353 74.0881 342.227 74.063C342.11 74.0462 341.98 74.021 341.837 73.9874ZM351.011 74V67.3273H352.219V72.187L356.311 67.3273H357.406V74H356.198V69.1403L352.118 74H351.011ZM361.593 74.0881C361.089 74.0881 360.594 74.0252 360.107 73.8993C359.629 73.765 359.201 73.5761 358.823 73.3327L359.188 72.4137C359.507 72.6151 359.872 72.7746 360.284 72.8921C360.695 73.0012 361.11 73.0557 361.53 73.0557C361.916 73.0557 362.248 73.0096 362.525 72.9173C362.81 72.8249 363.028 72.699 363.179 72.5396C363.33 72.3717 363.406 72.1786 363.406 71.9604C363.406 71.6499 363.267 71.4107 362.99 71.2428C362.714 71.0749 362.327 70.991 361.832 70.991H360.624V70.1223H361.757C362.05 70.1223 362.306 70.0887 362.525 70.0216C362.743 69.9544 362.911 69.8537 363.028 69.7194C363.154 69.5767 363.217 69.413 363.217 69.2284C363.217 69.0269 363.146 68.8549 363.003 68.7122C362.86 68.5695 362.659 68.4604 362.399 68.3849C362.147 68.3093 361.849 68.2715 361.505 68.2715C361.169 68.2799 360.825 68.3261 360.472 68.41C360.128 68.494 359.776 68.6241 359.415 68.8003L359.088 67.8561C359.49 67.663 359.885 67.5161 360.271 67.4154C360.666 67.3063 361.056 67.2476 361.442 67.2392C362.021 67.2224 362.537 67.2895 362.99 67.4406C363.444 67.5833 363.8 67.7931 364.061 68.0701C364.329 68.3471 364.464 68.6744 364.464 69.0521C364.464 69.3711 364.363 69.6564 364.161 69.9082C363.96 70.1517 363.691 70.3447 363.356 70.4874C363.02 70.6301 362.634 70.7014 362.197 70.7014L362.248 70.4118C362.995 70.4118 363.582 70.5587 364.01 70.8525C364.438 71.1463 364.652 71.5449 364.652 72.0485C364.652 72.4514 364.518 72.8081 364.249 73.1187C363.981 73.4209 363.616 73.6601 363.154 73.8363C362.701 74.0042 362.181 74.0881 361.593 74.0881ZM369.461 74.0755C368.748 74.0755 368.118 73.9287 367.573 73.6349C367.035 73.3411 366.616 72.9382 366.314 72.4262C366.02 71.9143 365.873 71.3267 365.873 70.6636C365.873 70.0006 366.016 69.413 366.301 68.901C366.595 68.3891 366.993 67.9904 367.497 67.705C368.009 67.4112 368.584 67.2643 369.222 67.2643C369.868 67.2643 370.439 67.407 370.934 67.6924C371.429 67.9778 371.815 68.3807 372.092 68.901C372.378 69.413 372.52 70.0132 372.52 70.7014C372.52 70.7518 372.516 70.8105 372.508 70.8777C372.508 70.9448 372.504 71.0078 372.495 71.0665H366.817V70.1978H371.866L371.375 70.5C371.383 70.0719 371.295 69.69 371.11 69.3543C370.926 69.0186 370.67 68.7584 370.342 68.5737C370.023 68.3807 369.65 68.2841 369.222 68.2841C368.802 68.2841 368.429 68.3807 368.101 68.5737C367.774 68.7584 367.518 69.0228 367.333 69.3669C367.149 69.7026 367.056 70.0887 367.056 70.5252V70.7266C367.056 71.1714 367.157 71.5701 367.359 71.9226C367.568 72.2668 367.858 72.5354 368.227 72.7284C368.597 72.9215 369.02 73.018 369.499 73.018C369.893 73.018 370.25 72.9508 370.569 72.8165C370.896 72.6822 371.182 72.4808 371.425 72.2122L372.092 72.9928C371.79 73.3453 371.412 73.6139 370.959 73.7986C370.514 73.9832 370.015 74.0755 369.461 74.0755Z" fill="black"/>
<rect x="85.385" y="137.385" width="129.23" height="47.23" rx="9.295" fill="#DCFF00" stroke="black" stroke-width="0.77"/>
<path d="M99.4393 157.011H100.812V160.926C101.945 160.876 102.813 160.523 103.443 159.894C104.047 159.264 104.45 158.295 104.626 157.011H106.112C105.86 158.685 105.294 159.932 104.425 160.763C104.299 160.876 104.161 160.989 104.035 161.09L106.842 166H105.231L102.864 161.707C102.26 161.921 101.58 162.047 100.812 162.085V166H99.4393V157.011ZM110.843 159.315C111.825 159.315 112.618 159.642 113.209 160.297C113.789 160.939 114.091 161.757 114.091 162.752C114.091 163.734 113.801 164.552 113.222 165.182C112.618 165.836 111.825 166.176 110.843 166.176C109.861 166.176 109.067 165.836 108.463 165.182C107.884 164.552 107.594 163.734 107.594 162.752C107.594 161.757 107.884 160.939 108.476 160.297C109.067 159.642 109.861 159.315 110.843 159.315ZM110.843 160.41C110.226 160.41 109.747 160.649 109.407 161.14C109.105 161.556 108.967 162.097 108.967 162.752C108.967 163.406 109.105 163.935 109.407 164.351C109.747 164.829 110.226 165.081 110.843 165.081C111.459 165.081 111.938 164.829 112.29 164.351C112.593 163.923 112.744 163.394 112.744 162.752C112.744 162.097 112.593 161.556 112.29 161.14C111.938 160.649 111.459 160.41 110.843 160.41ZM117.071 159.491H121.452V166H120.117V160.586H118.229L117.637 164.074C117.511 164.804 117.234 165.32 116.806 165.635C116.466 165.874 116.038 166 115.522 166H114.855V164.905H115.308C115.56 164.905 115.761 164.829 115.925 164.703C116.114 164.527 116.252 164.25 116.328 163.86L117.071 159.491ZM122.957 159.491H124.291V164.061L127.35 159.491H128.761V166H127.426V161.417L124.367 166H122.957V159.491ZM130.284 159.491H131.619V161.581C131.619 162.009 131.694 162.336 131.858 162.538C132.009 162.714 132.299 162.815 132.702 162.815C133.079 162.815 133.457 162.689 133.847 162.45C133.986 162.349 134.124 162.248 134.263 162.135V159.491H135.597V166H134.263V163.205C134.212 163.23 134.162 163.268 134.124 163.306C133.558 163.709 132.979 163.91 132.387 163.91C131.732 163.91 131.216 163.734 130.838 163.394C130.461 163.041 130.284 162.525 130.284 161.845V159.491ZM139.878 159.315C140.935 159.315 141.753 159.667 142.307 160.397C142.811 161.052 143.075 161.959 143.088 163.117H138.153C138.203 163.746 138.367 164.237 138.669 164.577C138.971 164.905 139.387 165.081 139.915 165.081C140.381 165.081 140.759 164.968 141.048 164.754C141.275 164.577 141.464 164.288 141.64 163.91H142.975C142.824 164.514 142.534 165.031 142.081 165.433C141.514 165.924 140.797 166.176 139.928 166.176C138.971 166.176 138.203 165.874 137.649 165.282C137.045 164.653 136.743 163.809 136.743 162.739C136.743 161.77 137.02 160.964 137.599 160.309C138.153 159.642 138.921 159.315 139.878 159.315ZM139.915 160.41C139.412 160.41 139.021 160.549 138.719 160.851C138.442 161.14 138.253 161.556 138.178 162.11H141.691C141.565 160.977 140.973 160.41 139.915 160.41ZM147.122 159.315C147.953 159.315 148.621 159.504 149.124 159.881C149.628 160.284 149.955 160.888 150.081 161.694H148.759C148.671 161.254 148.495 160.926 148.218 160.725C147.941 160.511 147.576 160.41 147.122 160.41C146.569 160.41 146.14 160.611 145.826 161.027C145.498 161.43 145.347 162.009 145.347 162.739C145.347 163.469 145.498 164.049 145.813 164.464C146.103 164.867 146.531 165.081 147.11 165.081C148.105 165.081 148.658 164.577 148.784 163.595H150.106C149.955 164.464 149.615 165.119 149.112 165.547C148.608 165.962 147.928 166.176 147.097 166.176C146.103 166.176 145.335 165.849 144.781 165.194C144.239 164.565 143.975 163.759 143.975 162.752C143.975 161.77 144.239 160.964 144.768 160.334C145.335 159.655 146.115 159.315 147.122 159.315ZM150.744 159.491H156.409V160.586H154.244V166H152.909V160.586H150.744V159.491ZM157.432 159.491H160.906C161.523 159.491 162.002 159.604 162.329 159.843C162.707 160.108 162.896 160.536 162.896 161.115C162.896 161.845 162.518 162.324 161.775 162.576C162.682 162.865 163.135 163.381 163.135 164.111C163.135 164.728 162.933 165.194 162.53 165.522C162.128 165.836 161.523 166 160.718 166H157.432V159.491ZM158.766 160.523V162.147H160.554C160.906 162.147 161.171 162.085 161.372 161.971C161.586 161.833 161.7 161.619 161.7 161.342C161.7 160.788 161.322 160.523 160.579 160.523H158.766ZM158.766 163.167V164.955H160.592C161.108 164.955 161.473 164.867 161.674 164.703C161.851 164.565 161.939 164.338 161.939 164.023C161.939 163.444 161.473 163.167 160.554 163.167H158.766ZM167.148 159.315C168.205 159.315 169.024 159.667 169.578 160.397C170.081 161.052 170.346 161.959 170.358 163.117H165.423C165.473 163.746 165.637 164.237 165.939 164.577C166.241 164.905 166.657 165.081 167.185 165.081C167.651 165.081 168.029 164.968 168.319 164.754C168.545 164.577 168.734 164.288 168.91 163.91H170.245C170.094 164.514 169.804 165.031 169.351 165.433C168.784 165.924 168.067 166.176 167.198 166.176C166.241 166.176 165.473 165.874 164.919 165.282C164.315 164.653 164.013 163.809 164.013 162.739C164.013 161.77 164.29 160.964 164.869 160.309C165.423 159.642 166.191 159.315 167.148 159.315ZM167.185 160.41C166.682 160.41 166.292 160.549 165.989 160.851C165.712 161.14 165.524 161.556 165.448 162.11H168.961C168.835 160.977 168.243 160.41 167.185 160.41ZM171.497 159.491H172.831V162.047H175.853V159.491H177.188V166H175.853V163.142H172.831V166H171.497V159.491ZM178.714 159.491H180.049V162.047H183.07V159.491H184.405V166H183.07V163.142H180.049V166H178.714V159.491ZM192.251 159.491H193.586V166H192.251V159.491ZM185.931 159.491H187.266V161.77H188.777C189.507 161.77 190.073 161.946 190.476 162.324C190.879 162.701 191.08 163.205 191.08 163.847C191.08 164.514 190.879 165.043 190.489 165.421C190.086 165.799 189.519 166 188.777 166H185.931V159.491ZM187.266 162.84V164.905H188.474C188.877 164.905 189.192 164.817 189.406 164.64C189.607 164.464 189.721 164.2 189.721 163.847C189.721 163.507 189.607 163.255 189.393 163.092C189.179 162.915 188.877 162.84 188.474 162.84H187.266ZM197.848 159.315C198.906 159.315 199.724 159.667 200.278 160.397C200.782 161.052 201.046 161.959 201.059 163.117H196.123C196.174 163.746 196.337 164.237 196.639 164.577C196.942 164.905 197.357 165.081 197.886 165.081C198.352 165.081 198.729 164.968 199.019 164.754C199.246 164.577 199.434 164.288 199.611 163.91H200.945C200.794 164.514 200.505 165.031 200.051 165.433C199.485 165.924 198.767 166.176 197.898 166.176C196.942 166.176 196.174 165.874 195.62 165.282C195.015 164.653 194.713 163.809 194.713 162.739C194.713 161.77 194.99 160.964 195.569 160.309C196.123 159.642 196.891 159.315 197.848 159.315ZM197.886 160.41C197.382 160.41 196.992 160.549 196.69 160.851C196.413 161.14 196.224 161.556 196.148 162.11H199.661C199.535 160.977 198.943 160.41 197.886 160.41Z" fill="black"/>
<rect x="374.385" y="137.385" width="129.23" height="47.23" rx="9.295" fill="#DCFF00" stroke="black" stroke-width="0.77"/>
<path d="M388.82 157.011H390.193V160.926C391.326 160.876 392.195 160.523 392.824 159.894C393.428 159.264 393.831 158.295 394.008 157.011H395.493C395.241 158.685 394.675 159.932 393.806 160.763C393.68 160.876 393.542 160.989 393.416 161.09L396.223 166H394.612L392.245 161.707C391.641 161.921 390.961 162.047 390.193 162.085V166H388.82V157.011ZM400.161 159.315C401.118 159.315 401.823 159.554 402.276 160.032C402.666 160.448 402.868 161.052 402.868 161.845V166H401.634V165.081C401.382 165.408 401.055 165.673 400.677 165.874C400.249 166.076 399.745 166.176 399.179 166.176C398.499 166.176 397.97 166 397.592 165.66C397.177 165.32 396.975 164.879 396.975 164.338C396.975 163.608 397.265 163.041 397.844 162.651C398.373 162.273 399.128 162.085 400.085 162.059L401.546 162.022V161.757C401.546 160.851 401.055 160.397 400.073 160.397C399.657 160.397 399.317 160.473 399.065 160.624C398.763 160.8 398.574 161.065 398.499 161.43L397.177 161.317C397.315 160.611 397.668 160.083 398.222 159.755C398.7 159.453 399.355 159.315 400.161 159.315ZM401.546 162.991L400.173 163.029C398.952 163.054 398.348 163.482 398.348 164.288C398.348 164.54 398.448 164.741 398.663 164.905C398.864 165.068 399.141 165.156 399.481 165.156C400.047 165.156 400.526 164.98 400.929 164.64C401.332 164.3 401.546 163.872 401.546 163.369V162.991ZM403.892 159.491H409.557V160.586H407.392V166H406.057V160.586H403.892V159.491ZM413.337 159.315C414.394 159.315 415.213 159.667 415.767 160.397C416.27 161.052 416.535 161.959 416.547 163.117H411.612C411.662 163.746 411.826 164.237 412.128 164.577C412.43 164.905 412.846 165.081 413.375 165.081C413.84 165.081 414.218 164.968 414.508 164.754C414.734 164.577 414.923 164.288 415.099 163.91H416.434C416.283 164.514 415.993 165.031 415.54 165.433C414.973 165.924 414.256 166.176 413.387 166.176C412.43 166.176 411.662 165.874 411.108 165.282C410.504 164.653 410.202 163.809 410.202 162.739C410.202 161.77 410.479 160.964 411.058 160.309C411.612 159.642 412.38 159.315 413.337 159.315ZM413.375 160.41C412.871 160.41 412.481 160.549 412.178 160.851C411.902 161.14 411.713 161.556 411.637 162.11H415.15C415.024 160.977 414.432 160.41 413.375 160.41ZM417.686 159.491H422.395V160.586H419.021V166H417.686V159.491ZM426.4 159.315C427.382 159.315 428.175 159.642 428.766 160.297C429.346 160.939 429.648 161.757 429.648 162.752C429.648 163.734 429.358 164.552 428.779 165.182C428.175 165.836 427.382 166.176 426.4 166.176C425.418 166.176 424.624 165.836 424.02 165.182C423.441 164.552 423.151 163.734 423.151 162.752C423.151 161.757 423.441 160.939 424.033 160.297C424.624 159.642 425.418 159.315 426.4 159.315ZM426.4 160.41C425.783 160.41 425.304 160.649 424.964 161.14C424.662 161.556 424.524 162.097 424.524 162.752C424.524 163.406 424.662 163.935 424.964 164.351C425.304 164.829 425.783 165.081 426.4 165.081C427.016 165.081 427.495 164.829 427.847 164.351C428.15 163.923 428.301 163.394 428.301 162.752C428.301 162.097 428.15 161.556 427.847 161.14C427.495 160.649 427.016 160.41 426.4 160.41ZM434.176 159.315C435.133 159.315 435.876 159.655 436.43 160.334C436.933 160.964 437.185 161.77 437.185 162.777C437.185 163.734 436.933 164.527 436.442 165.156C435.914 165.836 435.171 166.176 434.239 166.176C433.433 166.176 432.779 165.799 432.25 165.043V168.493H430.915V159.491H432.162V160.272C432.615 159.629 433.295 159.315 434.176 159.315ZM433.975 160.397C433.396 160.397 432.942 160.624 432.628 161.09C432.351 161.493 432.212 162.034 432.212 162.701V162.815C432.212 163.507 432.376 164.074 432.728 164.502C433.03 164.892 433.433 165.094 433.937 165.094C434.592 165.094 435.07 164.879 435.385 164.451C435.662 164.049 435.813 163.495 435.813 162.777C435.813 162.059 435.674 161.505 435.423 161.102C435.108 160.624 434.629 160.397 433.975 160.397ZM438.44 159.491H439.774V164.061L442.834 159.491H444.244V166H442.909V161.417L439.85 166H438.44V159.491ZM448.701 159.315C449.658 159.315 450.363 159.554 450.816 160.032C451.206 160.448 451.408 161.052 451.408 161.845V166H450.174V165.081C449.922 165.408 449.595 165.673 449.217 165.874C448.789 166.076 448.286 166.176 447.719 166.176C447.039 166.176 446.51 166 446.133 165.66C445.717 165.32 445.516 164.879 445.516 164.338C445.516 163.608 445.805 163.041 446.385 162.651C446.913 162.273 447.669 162.085 448.626 162.059L450.086 162.022V161.757C450.086 160.851 449.595 160.397 448.613 160.397C448.197 160.397 447.858 160.473 447.606 160.624C447.304 160.8 447.115 161.065 447.039 161.43L445.717 161.317C445.856 160.611 446.208 160.083 446.762 159.755C447.241 159.453 447.895 159.315 448.701 159.315ZM450.086 162.991L448.714 163.029C447.492 163.054 446.888 163.482 446.888 164.288C446.888 164.54 446.989 164.741 447.203 164.905C447.404 165.068 447.681 165.156 448.021 165.156C448.588 165.156 449.066 164.98 449.469 164.64C449.872 164.3 450.086 163.872 450.086 163.369V162.991ZM454.648 159.491H459.029V166H457.695V160.586H455.806L455.214 164.074C455.088 164.804 454.811 165.32 454.383 165.635C454.043 165.874 453.615 166 453.099 166H452.432V164.905H452.885C453.137 164.905 453.338 164.829 453.502 164.703C453.691 164.527 453.829 164.25 453.905 163.86L454.648 159.491ZM460.534 159.491H461.868V161.77H463.769C464.5 161.77 465.066 161.946 465.469 162.324C465.872 162.701 466.073 163.205 466.073 163.847C466.073 164.514 465.872 165.043 465.469 165.421C465.066 165.799 464.5 166 463.769 166H460.534V159.491ZM461.868 162.84V164.905H463.467C463.87 164.905 464.172 164.817 464.386 164.653C464.6 164.464 464.714 164.2 464.714 163.847C464.714 163.507 464.6 163.255 464.386 163.092C464.172 162.915 463.87 162.84 463.467 162.84H461.868ZM467.333 159.491H468.667V162.047H471.689V159.491H473.024V166H471.689V163.142H468.667V166H467.333V159.491ZM480.87 159.491H482.205V166H480.87V159.491ZM474.55 159.491H475.885V161.77H477.395C478.126 161.77 478.692 161.946 479.095 162.324C479.498 162.701 479.699 163.205 479.699 163.847C479.699 164.514 479.498 165.043 479.108 165.421C478.705 165.799 478.138 166 477.395 166H474.55V159.491ZM475.885 162.84V164.905H477.093C477.496 164.905 477.811 164.817 478.025 164.64C478.226 164.464 478.34 164.2 478.34 163.847C478.34 163.507 478.226 163.255 478.012 163.092C477.798 162.915 477.496 162.84 477.093 162.84H475.885ZM486.467 159.315C487.525 159.315 488.343 159.667 488.897 160.397C489.4 161.052 489.665 161.959 489.677 163.117H484.742C484.792 163.746 484.956 164.237 485.258 164.577C485.56 164.905 485.976 165.081 486.505 165.081C486.971 165.081 487.348 164.968 487.638 164.754C487.864 164.577 488.053 164.288 488.23 163.91H489.564C489.413 164.514 489.123 165.031 488.67 165.433C488.104 165.924 487.386 166.176 486.517 166.176C485.56 166.176 484.792 165.874 484.239 165.282C483.634 164.653 483.332 163.809 483.332 162.739C483.332 161.77 483.609 160.964 484.188 160.309C484.742 159.642 485.51 159.315 486.467 159.315ZM486.505 160.41C486.001 160.41 485.611 160.549 485.309 160.851C485.032 161.14 484.843 161.556 484.767 162.11H488.28C488.154 160.977 487.562 160.41 486.505 160.41Z" fill="black"/>
<rect x="20.385" y="229.385" width="119.23" height="47.23" rx="9.295" fill="#DCFF00" stroke="black" stroke-width="0.77"/>
<path d="M38.2241 249.011H39.5964V252.8H44.305V249.011H45.6774V258H44.305V253.971H39.5964V258H38.2241V249.011ZM50.0766 251.315C51.1341 251.315 51.9525 251.667 52.5064 252.397C53.01 253.052 53.2744 253.959 53.287 255.117H48.3517C48.4021 255.746 48.5658 256.237 48.8679 256.577C49.1701 256.905 49.5856 257.081 50.1143 257.081C50.5802 257.081 50.9579 256.968 51.2474 256.754C51.4741 256.577 51.6629 256.288 51.8392 255.91H53.1737C53.0226 256.514 52.7331 257.031 52.2798 257.433C51.7133 257.924 50.9956 258.176 50.1269 258.176C49.1701 258.176 48.4021 257.874 47.8481 257.282C47.2438 256.653 46.9417 255.809 46.9417 254.739C46.9417 253.77 47.2186 252.964 47.7978 252.309C48.3517 251.642 49.1197 251.315 50.0766 251.315ZM50.1143 252.41C49.6107 252.41 49.2205 252.549 48.9183 252.851C48.6413 253.14 48.4525 253.556 48.3769 254.11H51.8895C51.7636 252.977 51.1719 252.41 50.1143 252.41ZM54.4258 251.491H60.1417V258H58.8071V252.586H55.7604V258H54.4258V251.491ZM64.916 251.315C65.8729 251.315 66.6157 251.655 67.1697 252.334C67.6733 252.964 67.9251 253.77 67.9251 254.777C67.9251 255.734 67.6733 256.527 67.1822 257.156C66.6535 257.836 65.9107 258.176 64.979 258.176C64.1732 258.176 63.5186 257.799 62.9898 257.043V260.493H61.6552V251.491H62.9016V252.272C63.3549 251.629 64.0347 251.315 64.916 251.315ZM64.7146 252.397C64.1355 252.397 63.6822 252.624 63.3675 253.09C63.0905 253.493 62.952 254.034 62.952 254.701V254.815C62.952 255.507 63.1157 256.074 63.4682 256.502C63.7704 256.892 64.1732 257.094 64.6768 257.094C65.3315 257.094 65.8099 256.879 66.1247 256.451C66.4017 256.049 66.5527 255.495 66.5527 254.777C66.5527 254.059 66.4143 253.505 66.1625 253.102C65.8477 252.624 65.3693 252.397 64.7146 252.397ZM71.9369 251.315C72.9945 251.315 73.8129 251.667 74.3668 252.397C74.8704 253.052 75.1348 253.959 75.1474 255.117H70.2121C70.2625 255.746 70.4261 256.237 70.7283 256.577C71.0305 256.905 71.4459 257.081 71.9747 257.081C72.4405 257.081 72.8182 256.968 73.1078 256.754C73.3344 256.577 73.5233 256.288 73.6995 255.91H75.0341C74.883 256.514 74.5934 257.031 74.1402 257.433C73.5736 257.924 72.856 258.176 71.9873 258.176C71.0305 258.176 70.2625 257.874 69.7085 257.282C69.1042 256.653 68.802 255.809 68.802 254.739C68.802 253.77 69.079 252.964 69.6582 252.309C70.2121 251.642 70.9801 251.315 71.9369 251.315ZM71.9747 252.41C71.4711 252.41 71.0808 252.549 70.7787 252.851C70.5017 253.14 70.3128 253.556 70.2373 254.11H73.7499C73.624 252.977 73.0323 252.41 71.9747 252.41ZM79.547 251.315C80.5038 251.315 81.2467 251.655 81.8006 252.334C82.3042 252.964 82.556 253.77 82.556 254.777C82.556 255.734 82.3042 256.527 81.8132 257.156C81.2844 257.836 80.5416 258.176 79.61 258.176C78.8042 258.176 78.1495 257.799 77.6207 257.043V260.493H76.2862V251.491H77.5326V252.272C77.9858 251.629 78.6657 251.315 79.547 251.315ZM79.3456 252.397C78.7664 252.397 78.3132 252.624 77.9984 253.09C77.7215 253.493 77.583 254.034 77.583 254.701V254.815C77.583 255.507 77.7466 256.074 78.0992 256.502C78.4013 256.892 78.8042 257.094 79.3078 257.094C79.9625 257.094 80.4409 256.879 80.7556 256.451C81.0326 256.049 81.1837 255.495 81.1837 254.777C81.1837 254.059 81.0452 253.505 80.7934 253.102C80.4787 252.624 80.0002 252.397 79.3456 252.397ZM90.1309 251.491H91.4654V258H90.1309V251.491ZM83.8107 251.491H85.1452V253.77H86.656C87.3863 253.77 87.9528 253.946 88.3557 254.324C88.7586 254.701 88.96 255.205 88.96 255.847C88.96 256.514 88.7586 257.043 88.3683 257.421C87.9654 257.799 87.3988 258 86.656 258H83.8107V251.491ZM85.1452 254.84V256.905H86.3539C86.7568 256.905 87.0715 256.817 87.2855 256.64C87.487 256.464 87.6003 256.2 87.6003 255.847C87.6003 255.507 87.487 255.255 87.2729 255.092C87.0589 254.915 86.7568 254.84 86.3539 254.84H85.1452ZM92.9704 251.491H96.4452C97.0622 251.491 97.5406 251.604 97.8679 251.843C98.2456 252.108 98.4345 252.536 98.4345 253.115C98.4345 253.845 98.0568 254.324 97.314 254.576C98.2204 254.865 98.6737 255.381 98.6737 256.111C98.6737 256.728 98.4722 257.194 98.0694 257.522C97.6665 257.836 97.0622 258 96.2564 258H92.9704V251.491ZM94.3049 252.523V254.147H96.0927C96.4452 254.147 96.7096 254.085 96.9111 253.971C97.1251 253.833 97.2384 253.619 97.2384 253.342C97.2384 252.788 96.8607 252.523 96.1179 252.523H94.3049ZM94.3049 255.167V256.955H96.1305C96.6467 256.955 97.0118 256.867 97.2132 256.703C97.3895 256.565 97.4776 256.338 97.4776 256.023C97.4776 255.444 97.0118 255.167 96.0927 255.167H94.3049ZM99.9293 251.491H101.264V254.047H104.285V251.491H105.62V258H104.285V255.142H101.264V258H99.9293V251.491ZM113.467 251.491H114.801V258H113.467V251.491ZM107.146 251.491H108.481V253.77H109.992C110.722 253.77 111.289 253.946 111.691 254.324C112.094 254.701 112.296 255.205 112.296 255.847C112.296 256.514 112.094 257.043 111.704 257.421C111.301 257.799 110.735 258 109.992 258H107.146V251.491ZM108.481 254.84V256.905H109.69C110.093 256.905 110.407 256.817 110.621 256.64C110.823 256.464 110.936 256.2 110.936 255.847C110.936 255.507 110.823 255.255 110.609 255.092C110.395 254.915 110.093 254.84 109.69 254.84H108.481ZM119.063 251.315C120.121 251.315 120.939 251.667 121.493 252.397C121.997 253.052 122.261 253.959 122.274 255.117H117.339C117.389 255.746 117.553 256.237 117.855 256.577C118.157 256.905 118.572 257.081 119.101 257.081C119.567 257.081 119.945 256.968 120.234 256.754C120.461 256.577 120.65 256.288 120.826 255.91H122.161C122.009 256.514 121.72 257.031 121.267 257.433C120.7 257.924 119.982 258.176 119.114 258.176C118.157 258.176 117.389 257.874 116.835 257.282C116.231 256.653 115.928 255.809 115.928 254.739C115.928 253.77 116.205 252.964 116.785 252.309C117.339 251.642 118.107 251.315 119.063 251.315ZM119.101 252.41C118.598 252.41 118.207 252.549 117.905 252.851C117.628 253.14 117.439 253.556 117.364 254.11H120.876C120.75 252.977 120.159 252.41 119.101 252.41Z" fill="black"/>
<rect x="163.385" y="229.385" width="119.23" height="47.23" rx="9.295" fill="#DCFF00" stroke="black" stroke-width="0.77"/>
<path d="M193.421 249.011V256.829H194.542V259.763H193.17V258H187.315V259.763H185.943V256.829H186.937L188.209 249.011H193.421ZM189.405 250.182L188.31 256.829H192.062V250.182H189.405ZM195.545 251.491H196.879V256.061L199.939 251.491H201.349V258H200.014V253.417L196.955 258H195.545V251.491ZM205.768 251.315C206.599 251.315 207.266 251.504 207.77 251.881C208.274 252.284 208.601 252.888 208.727 253.694H207.405C207.317 253.254 207.14 252.926 206.864 252.725C206.587 252.511 206.221 252.41 205.768 252.41C205.214 252.41 204.786 252.611 204.471 253.027C204.144 253.43 203.993 254.009 203.993 254.739C203.993 255.469 204.144 256.049 204.459 256.464C204.748 256.867 205.176 257.081 205.756 257.081C206.75 257.081 207.304 256.577 207.43 255.595H208.752C208.601 256.464 208.261 257.119 207.757 257.547C207.254 257.962 206.574 258.176 205.743 258.176C204.748 258.176 203.98 257.849 203.426 257.194C202.885 256.565 202.621 255.759 202.621 254.752C202.621 253.77 202.885 252.964 203.414 252.334C203.98 251.655 204.761 251.315 205.768 251.315ZM209.893 251.491H211.227V254.16C212.046 254.11 212.663 253.896 213.078 253.505C213.506 253.077 213.783 252.41 213.934 251.491H215.307C215.105 252.8 214.664 253.745 213.997 254.336L213.771 254.513L215.747 258H214.173L212.575 255.067C212.172 255.167 211.718 255.23 211.227 255.255V258H209.893V251.491ZM220.027 251.315C220.983 251.315 221.726 251.655 222.28 252.334C222.784 252.964 223.036 253.77 223.036 254.777C223.036 255.734 222.784 256.527 222.293 257.156C221.764 257.836 221.021 258.176 220.089 258.176C219.284 258.176 218.629 257.799 218.1 257.043V260.493H216.766V251.491H218.012V252.272C218.465 251.629 219.145 251.315 220.027 251.315ZM219.825 252.397C219.246 252.397 218.793 252.624 218.478 253.09C218.201 253.493 218.063 254.034 218.063 254.701V254.815C218.063 255.507 218.226 256.074 218.579 256.502C218.881 256.892 219.284 257.094 219.787 257.094C220.442 257.094 220.92 256.879 221.235 256.451C221.512 256.049 221.663 255.495 221.663 254.777C221.663 254.059 221.525 253.505 221.273 253.102C220.958 252.624 220.48 252.397 219.825 252.397ZM227.047 251.315C228.105 251.315 228.923 251.667 229.477 252.397C229.981 253.052 230.245 253.959 230.258 255.117H225.323C225.373 255.746 225.537 256.237 225.839 256.577C226.141 256.905 226.556 257.081 227.085 257.081C227.551 257.081 227.929 256.968 228.218 256.754C228.445 256.577 228.634 256.288 228.81 255.91H230.145C229.993 256.514 229.704 257.031 229.251 257.433C228.684 257.924 227.967 258.176 227.098 258.176C226.141 258.176 225.373 257.874 224.819 257.282C224.215 256.653 223.913 255.809 223.913 254.739C223.913 253.77 224.19 252.964 224.769 252.309C225.323 251.642 226.091 251.315 227.047 251.315ZM227.085 252.41C226.582 252.41 226.191 252.549 225.889 252.851C225.612 253.14 225.423 253.556 225.348 254.11H228.86C228.734 252.977 228.143 252.41 227.085 252.41ZM230.893 251.491H236.559V252.586H234.393V258H233.059V252.586H230.893V251.491ZM237.581 251.491H238.916V254.047H241.937V251.491H243.272V258H241.937V255.142H238.916V258H237.581V251.491ZM251.118 251.491H252.453V258H251.118V251.491ZM244.798 251.491H246.133V253.77H247.643C248.374 253.77 248.94 253.946 249.343 254.324C249.746 254.701 249.947 255.205 249.947 255.847C249.947 256.514 249.746 257.043 249.356 257.421C248.953 257.799 248.386 258 247.643 258H244.798V251.491ZM246.133 254.84V256.905H247.341C247.744 256.905 248.059 256.817 248.273 256.64C248.474 256.464 248.588 256.2 248.588 255.847C248.588 255.507 248.474 255.255 248.26 255.092C248.046 254.915 247.744 254.84 247.341 254.84H246.133ZM256.715 251.315C257.773 251.315 258.591 251.667 259.145 252.397C259.649 253.052 259.913 253.959 259.926 255.117H254.99C255.041 255.746 255.204 256.237 255.506 256.577C255.809 256.905 256.224 257.081 256.753 257.081C257.219 257.081 257.596 256.968 257.886 256.754C258.113 256.577 258.301 256.288 258.478 255.91H259.812C259.661 256.514 259.372 257.031 258.918 257.433C258.352 257.924 257.634 258.176 256.765 258.176C255.809 258.176 255.041 257.874 254.487 257.282C253.882 256.653 253.58 255.809 253.58 254.739C253.58 253.77 253.857 252.964 254.436 252.309C254.99 251.642 255.758 251.315 256.715 251.315ZM256.753 252.41C256.249 252.41 255.859 252.549 255.557 252.851C255.28 253.14 255.091 253.556 255.015 254.11H258.528C258.402 252.977 257.81 252.41 256.753 252.41Z" fill="black"/>
<rect x="306.385" y="229.385" width="119.23" height="47.23" rx="9.295" fill="#DCFF00" stroke="black" stroke-width="0.77"/>
<path d="M328.902 249.011H336.242V258H334.87V250.182H330.275V258H328.902V249.011ZM340.871 251.315C341.853 251.315 342.646 251.642 343.238 252.297C343.817 252.939 344.119 253.757 344.119 254.752C344.119 255.734 343.83 256.552 343.251 257.182C342.646 257.836 341.853 258.176 340.871 258.176C339.889 258.176 339.096 257.836 338.492 257.182C337.912 256.552 337.623 255.734 337.623 254.752C337.623 253.757 337.912 252.939 338.504 252.297C339.096 251.642 339.889 251.315 340.871 251.315ZM340.871 252.41C340.254 252.41 339.776 252.649 339.436 253.14C339.134 253.556 338.995 254.097 338.995 254.752C338.995 255.406 339.134 255.935 339.436 256.351C339.776 256.829 340.254 257.081 340.871 257.081C341.488 257.081 341.966 256.829 342.319 256.351C342.621 255.923 342.772 255.394 342.772 254.752C342.772 254.097 342.621 253.556 342.319 253.14C341.966 252.649 341.488 252.41 340.871 252.41ZM348.648 251.315C349.604 251.315 350.347 251.655 350.901 252.334C351.405 252.964 351.657 253.77 351.657 254.777C351.657 255.734 351.405 256.527 350.914 257.156C350.385 257.836 349.642 258.176 348.711 258.176C347.905 258.176 347.25 257.799 346.721 257.043V260.493H345.387V251.491H346.633V252.272C347.086 251.629 347.766 251.315 348.648 251.315ZM348.446 252.397C347.867 252.397 347.414 252.624 347.099 253.09C346.822 253.493 346.684 254.034 346.684 254.701V254.815C346.684 255.507 346.847 256.074 347.2 256.502C347.502 256.892 347.905 257.094 348.408 257.094C349.063 257.094 349.542 256.879 349.856 256.451C350.133 256.049 350.284 255.495 350.284 254.777C350.284 254.059 350.146 253.505 349.894 253.102C349.579 252.624 349.101 252.397 348.446 252.397ZM358.287 251.491V258H356.953V255.432H355.681L354.271 258H352.66L354.258 255.255C354.107 255.205 353.969 255.155 353.856 255.092C353.302 254.777 353.025 254.236 353.025 253.48C353.025 252.851 353.239 252.36 353.667 252.007C354.095 251.655 354.724 251.491 355.543 251.491H358.287ZM355.694 252.586C354.825 252.586 354.397 252.863 354.397 253.442C354.397 253.757 354.485 253.984 354.674 254.135C354.875 254.273 355.215 254.349 355.669 254.349H356.953V252.586H355.694ZM365.273 251.491V256.905H366.117V259.763H364.782V258H360.627V259.763H359.293V256.905H360.073L361.055 251.491H365.273ZM362.226 252.586L361.446 256.905H363.939V252.586H362.226ZM367.124 251.491H368.459V254.16C369.277 254.11 369.894 253.896 370.31 253.505C370.738 253.077 371.015 252.41 371.166 251.491H372.538C372.337 252.8 371.896 253.745 371.229 254.336L371.002 254.513L372.979 258H371.405L369.806 255.067C369.403 255.167 368.95 255.23 368.459 255.255V258H367.124V251.491ZM376.994 251.315C377.976 251.315 378.769 251.642 379.36 252.297C379.94 252.939 380.242 253.757 380.242 254.752C380.242 255.734 379.952 256.552 379.373 257.182C378.769 257.836 377.976 258.176 376.994 258.176C376.012 258.176 375.218 257.836 374.614 257.182C374.035 256.552 373.745 255.734 373.745 254.752C373.745 253.757 374.035 252.939 374.627 252.297C375.218 251.642 376.012 251.315 376.994 251.315ZM376.994 252.41C376.377 252.41 375.898 252.649 375.558 253.14C375.256 253.556 375.118 254.097 375.118 254.752C375.118 255.406 375.256 255.935 375.558 256.351C375.898 256.829 376.377 257.081 376.994 257.081C377.61 257.081 378.089 256.829 378.441 256.351C378.744 255.923 378.895 255.394 378.895 254.752C378.895 254.097 378.744 253.556 378.441 253.14C378.089 252.649 377.61 252.41 376.994 252.41ZM381.509 251.491H384.984C385.601 251.491 386.079 251.604 386.407 251.843C386.785 252.108 386.973 252.536 386.973 253.115C386.973 253.845 386.596 254.324 385.853 254.576C386.759 254.865 387.213 255.381 387.213 256.111C387.213 256.728 387.011 257.194 386.608 257.522C386.205 257.836 385.601 258 384.795 258H381.509V251.491ZM382.844 252.523V254.147H384.632C384.984 254.147 385.249 254.085 385.45 253.971C385.664 253.833 385.777 253.619 385.777 253.342C385.777 252.788 385.4 252.523 384.657 252.523H382.844ZM382.844 255.167V256.955H384.669C385.186 256.955 385.551 256.867 385.752 256.703C385.928 256.565 386.017 256.338 386.017 256.023C386.017 255.444 385.551 255.167 384.632 255.167H382.844ZM394.788 251.491H396.123V258H394.788V251.491ZM388.468 251.491H389.803V253.77H391.314C392.044 253.77 392.61 253.946 393.013 254.324C393.416 254.701 393.618 255.205 393.618 255.847C393.618 256.514 393.416 257.043 393.026 257.421C392.623 257.799 392.056 258 391.314 258H388.468V251.491ZM389.803 254.84V256.905H391.011C391.414 256.905 391.729 256.817 391.943 256.64C392.145 256.464 392.258 256.2 392.258 255.847C392.258 255.507 392.145 255.255 391.93 255.092C391.716 254.915 391.414 254.84 391.011 254.84H389.803ZM400.385 251.315C401.443 251.315 402.261 251.667 402.815 252.397C403.319 253.052 403.583 253.959 403.596 255.117H398.66C398.711 255.746 398.874 256.237 399.177 256.577C399.479 256.905 399.894 257.081 400.423 257.081C400.889 257.081 401.266 256.968 401.556 256.754C401.783 256.577 401.971 256.288 402.148 255.91H403.482C403.331 256.514 403.042 257.031 402.588 257.433C402.022 257.924 401.304 258.176 400.436 258.176C399.479 258.176 398.711 257.874 398.157 257.282C397.552 256.653 397.25 255.809 397.25 254.739C397.25 253.77 397.527 252.964 398.106 252.309C398.66 251.642 399.428 251.315 400.385 251.315ZM400.423 252.41C399.919 252.41 399.529 252.549 399.227 252.851C398.95 253.14 398.761 253.556 398.686 254.11H402.198C402.072 252.977 401.48 252.41 400.423 252.41Z" fill="black"/>
<rect x="449.385" y="229.385" width="119.23" height="47.23" rx="9.295" fill="#DCFF00" stroke="black" stroke-width="0.77"/>
<path d="M467.003 249.011H468.375V252.8H473.084V249.011H474.456V258H473.084V253.971H468.375V258H467.003V249.011ZM479.094 251.315C480.076 251.315 480.87 251.642 481.461 252.297C482.041 252.939 482.343 253.757 482.343 254.752C482.343 255.734 482.053 256.552 481.474 257.182C480.87 257.836 480.076 258.176 479.094 258.176C478.112 258.176 477.319 257.836 476.715 257.182C476.136 256.552 475.846 255.734 475.846 254.752C475.846 253.757 476.136 252.939 476.728 252.297C477.319 251.642 478.112 251.315 479.094 251.315ZM479.094 252.41C478.478 252.41 477.999 252.649 477.659 253.14C477.357 253.556 477.219 254.097 477.219 254.752C477.219 255.406 477.357 255.935 477.659 256.351C477.999 256.829 478.478 257.081 479.094 257.081C479.711 257.081 480.19 256.829 480.542 256.351C480.844 255.923 480.996 255.394 480.996 254.752C480.996 254.097 480.844 253.556 480.542 253.14C480.19 252.649 479.711 252.41 479.094 252.41ZM483.61 251.491H485.411L487.551 256.577H487.576L489.729 251.491H491.517V258H490.182V253.43H490.144L488.206 258H486.934L484.995 253.43H484.945V258H483.61V251.491ZM493.04 251.491H494.375V256.061L497.434 251.491H498.844V258H497.51V253.417L494.451 258H493.04V251.491ZM500.368 251.491H501.703V254.047H504.724V251.491H506.059V258H504.724V255.142H501.703V258H500.368V251.491ZM510.519 251.315C511.476 251.315 512.181 251.554 512.634 252.032C513.024 252.448 513.226 253.052 513.226 253.845V258H511.992V257.081C511.74 257.408 511.413 257.673 511.035 257.874C510.607 258.076 510.103 258.176 509.537 258.176C508.857 258.176 508.328 258 507.95 257.66C507.535 257.32 507.334 256.879 507.334 256.338C507.334 255.608 507.623 255.041 508.202 254.651C508.731 254.273 509.486 254.085 510.443 254.059L511.904 254.022V253.757C511.904 252.851 511.413 252.397 510.431 252.397C510.015 252.397 509.675 252.473 509.423 252.624C509.121 252.8 508.932 253.065 508.857 253.43L507.535 253.317C507.673 252.611 508.026 252.083 508.58 251.755C509.058 251.453 509.713 251.315 510.519 251.315ZM511.904 254.991L510.531 255.029C509.31 255.054 508.706 255.482 508.706 256.288C508.706 256.54 508.807 256.741 509.021 256.905C509.222 257.068 509.499 257.156 509.839 257.156C510.406 257.156 510.884 256.98 511.287 256.64C511.69 256.3 511.904 255.872 511.904 255.369V254.991ZM516.466 251.491H520.847V258H519.512V252.586H517.624L517.032 256.074C516.906 256.804 516.629 257.32 516.201 257.635C515.861 257.874 515.433 258 514.917 258H514.25V256.905H514.703C514.955 256.905 515.156 256.829 515.32 256.703C515.509 256.527 515.647 256.25 515.723 255.86L516.466 251.491ZM522.352 251.491H523.686V253.77H525.587C526.317 253.77 526.884 253.946 527.287 254.324C527.69 254.701 527.891 255.205 527.891 255.847C527.891 256.514 527.69 257.043 527.287 257.421C526.884 257.799 526.317 258 525.587 258H522.352V251.491ZM523.686 254.84V256.905H525.285C525.688 256.905 525.99 256.817 526.204 256.653C526.418 256.464 526.531 256.2 526.531 255.847C526.531 255.507 526.418 255.255 526.204 255.092C525.99 254.915 525.688 254.84 525.285 254.84H523.686ZM529.151 251.491H530.485V254.047H533.507V251.491H534.841V258H533.507V255.142H530.485V258H529.151V251.491ZM542.688 251.491H544.022V258H542.688V251.491ZM536.368 251.491H537.702V253.77H539.213C539.943 253.77 540.51 253.946 540.913 254.324C541.316 254.701 541.517 255.205 541.517 255.847C541.517 256.514 541.316 257.043 540.925 257.421C540.522 257.799 539.956 258 539.213 258H536.368V251.491ZM537.702 254.84V256.905H538.911C539.314 256.905 539.629 256.817 539.843 256.64C540.044 256.464 540.157 256.2 540.157 255.847C540.157 255.507 540.044 255.255 539.83 255.092C539.616 254.915 539.314 254.84 538.911 254.84H537.702ZM548.285 251.315C549.342 251.315 550.161 251.667 550.715 252.397C551.218 253.052 551.483 253.959 551.495 255.117H546.56C546.61 255.746 546.774 256.237 547.076 256.577C547.378 256.905 547.794 257.081 548.322 257.081C548.788 257.081 549.166 256.968 549.456 256.754C549.682 256.577 549.871 256.288 550.047 255.91H551.382C551.231 256.514 550.941 257.031 550.488 257.433C549.921 257.924 549.204 258.176 548.335 258.176C547.378 258.176 546.61 257.874 546.056 257.282C545.452 256.653 545.15 255.809 545.15 254.739C545.15 253.77 545.427 252.964 546.006 252.309C546.56 251.642 547.328 251.315 548.285 251.315ZM548.322 252.41C547.819 252.41 547.429 252.549 547.126 252.851C546.849 253.14 546.661 253.556 546.585 254.11H550.098C549.972 252.977 549.38 252.41 548.322 252.41Z" fill="black"/>
<rect x="379.385" y="321.385" width="119.23" height="47.23" rx="9.295" fill="#DCFF00" stroke="black" stroke-width="0.77"/>
<path d="M415.608 341.011V342.144H410.559V344.662H413.442C414.424 344.662 415.192 344.914 415.721 345.417C416.2 345.883 416.451 346.525 416.451 347.331C416.451 349.106 415.381 350 413.241 350H409.187V341.011H415.608ZM410.559 345.782V348.867H413.04C414.399 348.867 415.092 348.351 415.092 347.331C415.092 346.802 414.915 346.424 414.563 346.173C414.21 345.908 413.694 345.782 413.014 345.782H410.559ZM417.729 343.491H419.064V348.061L422.123 343.491H423.533V350H422.198V345.417L419.139 350H417.729V343.491ZM425.057 343.491H426.391V346.047H429.413V343.491H430.748V350H429.413V347.142H426.391V350H425.057V343.491ZM435.207 343.315C436.164 343.315 436.869 343.554 437.323 344.032C437.713 344.448 437.914 345.052 437.914 345.845V350H436.68V349.081C436.429 349.408 436.101 349.673 435.724 349.874C435.296 350.076 434.792 350.176 434.225 350.176C433.546 350.176 433.017 350 432.639 349.66C432.224 349.32 432.022 348.879 432.022 348.338C432.022 347.608 432.312 347.041 432.891 346.651C433.42 346.273 434.175 346.085 435.132 346.059L436.592 346.022V345.757C436.592 344.851 436.101 344.397 435.119 344.397C434.704 344.397 434.364 344.473 434.112 344.624C433.81 344.8 433.621 345.065 433.546 345.43L432.224 345.317C432.362 344.611 432.715 344.083 433.269 343.755C433.747 343.453 434.402 343.315 435.207 343.315ZM436.592 346.991L435.22 347.029C433.999 347.054 433.394 347.482 433.394 348.288C433.394 348.54 433.495 348.741 433.709 348.905C433.911 349.068 434.188 349.156 434.528 349.156C435.094 349.156 435.573 348.98 435.975 348.64C436.378 348.3 436.592 347.872 436.592 347.369V346.991ZM442.703 343.315C443.66 343.315 444.402 343.655 444.956 344.334C445.46 344.964 445.712 345.77 445.712 346.777C445.712 347.734 445.46 348.527 444.969 349.156C444.44 349.836 443.697 350.176 442.766 350.176C441.96 350.176 441.305 349.799 440.776 349.043V352.493H439.442V343.491H440.688V344.272C441.142 343.629 441.821 343.315 442.703 343.315ZM442.501 344.397C441.922 344.397 441.469 344.624 441.154 345.09C440.877 345.493 440.739 346.034 440.739 346.701V346.815C440.739 347.507 440.902 348.074 441.255 348.502C441.557 348.892 441.96 349.094 442.463 349.094C443.118 349.094 443.597 348.879 443.911 348.451C444.188 348.049 444.339 347.495 444.339 346.777C444.339 346.059 444.201 345.505 443.949 345.102C443.634 344.624 443.156 344.397 442.501 344.397ZM446.966 343.491H448.301V346.047H451.323V343.491H452.657V350H451.323V347.142H448.301V350H446.966V343.491ZM460.504 343.491H461.838V350H460.504V343.491ZM454.183 343.491H455.518V345.77H457.029C457.759 345.77 458.326 345.946 458.728 346.324C459.131 346.701 459.333 347.205 459.333 347.847C459.333 348.514 459.131 349.043 458.741 349.421C458.338 349.799 457.772 350 457.029 350H454.183V343.491ZM455.518 346.84V348.905H456.727C457.13 348.905 457.444 348.817 457.658 348.64C457.86 348.464 457.973 348.2 457.973 347.847C457.973 347.507 457.86 347.255 457.646 347.092C457.432 346.915 457.13 346.84 456.727 346.84H455.518ZM466.1 343.315C467.158 343.315 467.976 343.667 468.53 344.397C469.034 345.052 469.298 345.959 469.311 347.117H464.376C464.426 347.746 464.59 348.237 464.892 348.577C465.194 348.905 465.609 349.081 466.138 349.081C466.604 349.081 466.982 348.968 467.271 348.754C467.498 348.577 467.687 348.288 467.863 347.91H469.198C469.046 348.514 468.757 349.031 468.304 349.433C467.737 349.924 467.019 350.176 466.151 350.176C465.194 350.176 464.426 349.874 463.872 349.282C463.268 348.653 462.966 347.809 462.966 346.739C462.966 345.77 463.242 344.964 463.822 344.309C464.376 343.642 465.144 343.315 466.1 343.315ZM466.138 344.41C465.635 344.41 465.244 344.549 464.942 344.851C464.665 345.14 464.476 345.556 464.401 346.11H467.913C467.787 344.977 467.196 344.41 466.138 344.41Z" fill="black"/>
<path d="M150 185V207H80V229" stroke="black" stroke-width="0.77" stroke-linecap="square" stroke-linejoin="round"/>
<path d="M294.5 115V115.385C294.713 115.385 294.885 115.213 294.885 115H294.5ZM150 115V114.615C149.787 114.615 149.615 114.787 149.615 115H150ZM149.615 137V137.385H150.385V137H149.615ZM294.5 93H294.115V115H294.5H294.885V93H294.5ZM294.5 115V114.615H150V115V115.385H294.5V115ZM150 115H149.615V137H150H150.385V115H150Z" fill="black"/>
<path d="M294.5 93V115H439V137" stroke="black" stroke-width="0.77" stroke-linecap="square" stroke-linejoin="round"/>
<path d="M439 185V207H366V229" stroke="black" stroke-width="0.77" stroke-linecap="square" stroke-linejoin="round"/>
<path d="M439 185V207H509V229" stroke="black" stroke-width="0.77" stroke-linecap="square" stroke-linejoin="round"/>
<path d="M514 345V345.385C514.213 345.385 514.385 345.213 514.385 345H514ZM499 344.615H498.615V345.385H499V344.615ZM514 277H513.615V299H514H514.385V277H514ZM514 299H513.615V345H514H514.385V299H514ZM514 345V344.615H499V345V345.385H514V345Z" fill="black"/>
<path d="M150 207H149.615C149.615 207.213 149.787 207.385 150 207.385V207ZM223 207H223.385C223.385 206.787 223.213 206.615 223 206.615V207ZM222.615 229V229.385H223.385V229H222.615ZM150 185H149.615V207H150H150.385V185H150ZM150 207V207.385H223V207V206.615H150V207ZM223 207H222.615V229H223H223.385V207H223Z" fill="black"/>
</svg>
