<svg width="485" height="244" viewBox="0 0 485 244" fill="none" xmlns="http://www.w3.org/2000/svg">
<rect width="485" height="244" fill="white"/>
<path d="M306.385 228V224.749H307.862C308.215 224.749 308.527 224.817 308.796 224.953C309.065 225.086 309.276 225.274 309.428 225.515C309.579 225.757 309.655 226.043 309.655 226.374C309.655 226.703 309.579 226.989 309.428 227.234C309.276 227.475 309.065 227.664 308.796 227.8C308.527 227.933 308.215 228 307.862 228H306.385ZM307.138 227.382H307.825C308.042 227.382 308.229 227.342 308.387 227.262C308.548 227.178 308.672 227.06 308.759 226.909C308.849 226.757 308.893 226.579 308.893 226.374C308.893 226.167 308.849 225.989 308.759 225.84C308.672 225.689 308.548 225.573 308.387 225.492C308.229 225.408 308.042 225.367 307.825 225.367H307.138V227.382ZM311.704 228V227.512L311.658 227.406V226.532C311.658 226.378 311.61 226.257 311.514 226.17C311.421 226.083 311.277 226.04 311.082 226.04C310.949 226.04 310.817 226.062 310.687 226.105C310.56 226.145 310.452 226.201 310.362 226.272L310.102 225.766C310.238 225.67 310.402 225.596 310.594 225.543C310.786 225.49 310.981 225.464 311.179 225.464C311.56 225.464 311.856 225.554 312.066 225.734C312.277 225.913 312.382 226.193 312.382 226.574V228H311.704ZM310.942 228.037C310.747 228.037 310.58 228.005 310.441 227.94C310.302 227.872 310.195 227.78 310.12 227.666C310.046 227.551 310.009 227.423 310.009 227.28C310.009 227.131 310.045 227.001 310.116 226.89C310.19 226.779 310.306 226.692 310.464 226.63C310.622 226.565 310.828 226.532 311.082 226.532H311.746V226.955H311.161C310.99 226.955 310.873 226.983 310.808 227.039C310.746 227.094 310.715 227.164 310.715 227.248C310.715 227.34 310.751 227.415 310.822 227.471C310.896 227.523 310.997 227.549 311.124 227.549C311.244 227.549 311.353 227.522 311.449 227.466C311.545 227.407 311.614 227.322 311.658 227.21L311.769 227.545C311.717 227.706 311.621 227.828 311.481 227.912C311.342 227.995 311.162 228.037 310.942 228.037ZM314.06 228.037C313.766 228.037 313.537 227.963 313.372 227.814C313.208 227.663 313.126 227.438 313.126 227.141V224.949H313.851V227.131C313.851 227.237 313.879 227.319 313.934 227.378C313.99 227.433 314.066 227.461 314.162 227.461C314.277 227.461 314.374 227.43 314.455 227.368L314.65 227.879C314.575 227.932 314.486 227.972 314.38 228C314.278 228.025 314.171 228.037 314.06 228.037ZM312.741 226.114V225.557H314.473V226.114H312.741ZM316.589 228V227.512L316.543 227.406V226.532C316.543 226.378 316.495 226.257 316.399 226.17C316.306 226.083 316.162 226.04 315.967 226.04C315.834 226.04 315.702 226.062 315.572 226.105C315.445 226.145 315.337 226.201 315.247 226.272L314.987 225.766C315.123 225.67 315.287 225.596 315.479 225.543C315.671 225.49 315.866 225.464 316.064 225.464C316.445 225.464 316.741 225.554 316.951 225.734C317.162 225.913 317.267 226.193 317.267 226.574V228H316.589ZM315.827 228.037C315.632 228.037 315.465 228.005 315.326 227.94C315.186 227.872 315.08 227.78 315.005 227.666C314.931 227.551 314.894 227.423 314.894 227.28C314.894 227.131 314.929 227.001 315.001 226.89C315.075 226.779 315.191 226.692 315.349 226.63C315.507 226.565 315.713 226.532 315.967 226.532H316.631V226.955H316.046C315.875 226.955 315.758 226.983 315.693 227.039C315.631 227.094 315.6 227.164 315.6 227.248C315.6 227.34 315.635 227.415 315.707 227.471C315.781 227.523 315.882 227.549 316.008 227.549C316.129 227.549 316.238 227.522 316.334 227.466C316.43 227.407 316.499 227.322 316.543 227.21L316.654 227.545C316.601 227.706 316.505 227.828 316.366 227.912C316.227 227.995 316.047 228.037 315.827 228.037ZM320.845 228.056C320.594 228.056 320.361 228.015 320.144 227.935C319.93 227.851 319.744 227.734 319.586 227.582C319.429 227.43 319.305 227.252 319.215 227.048C319.128 226.844 319.085 226.619 319.085 226.374C319.085 226.13 319.128 225.905 319.215 225.701C319.305 225.497 319.429 225.319 319.586 225.167C319.747 225.015 319.935 224.899 320.148 224.819C320.362 224.735 320.596 224.693 320.85 224.693C321.132 224.693 321.385 224.743 321.611 224.842C321.841 224.938 322.033 225.08 322.187 225.269L321.704 225.715C321.593 225.588 321.469 225.494 321.333 225.432C321.197 225.367 321.048 225.334 320.887 225.334C320.735 225.334 320.596 225.359 320.469 225.408C320.342 225.458 320.232 225.529 320.139 225.622C320.046 225.715 319.974 225.825 319.921 225.952C319.871 226.079 319.847 226.22 319.847 226.374C319.847 226.529 319.871 226.67 319.921 226.797C319.974 226.924 320.046 227.034 320.139 227.127C320.232 227.22 320.342 227.291 320.469 227.34C320.596 227.39 320.735 227.415 320.887 227.415C321.048 227.415 321.197 227.384 321.333 227.322C321.469 227.257 321.593 227.159 321.704 227.029L322.187 227.475C322.033 227.664 321.841 227.808 321.611 227.907C321.385 228.006 321.13 228.056 320.845 228.056ZM323.64 228.037C323.432 228.037 323.246 227.997 323.082 227.916C322.921 227.836 322.796 227.714 322.706 227.549C322.616 227.382 322.571 227.17 322.571 226.913V225.501H323.296V226.806C323.296 227.014 323.339 227.167 323.426 227.266C323.516 227.362 323.641 227.41 323.802 227.41C323.914 227.41 324.013 227.387 324.1 227.34C324.186 227.291 324.254 227.217 324.304 227.118C324.353 227.015 324.378 226.888 324.378 226.737V225.501H325.103V228H324.415V227.313L324.541 227.512C324.457 227.686 324.333 227.817 324.169 227.907C324.008 227.994 323.832 228.037 323.64 228.037ZM325.774 228V224.554H326.498V228H325.774ZM328.379 228.037C328.084 228.037 327.855 227.963 327.691 227.814C327.527 227.663 327.445 227.438 327.445 227.141V224.949H328.17V227.131C328.17 227.237 328.198 227.319 328.253 227.378C328.309 227.433 328.385 227.461 328.481 227.461C328.595 227.461 328.693 227.43 328.773 227.368L328.968 227.879C328.894 227.932 328.804 227.972 328.699 228C328.597 228.025 328.49 228.037 328.379 228.037ZM327.06 226.114V225.557H328.792V226.114H327.06ZM330.429 228.037C330.222 228.037 330.036 227.997 329.872 227.916C329.711 227.836 329.586 227.714 329.496 227.549C329.406 227.382 329.361 227.17 329.361 226.913V225.501H330.086V226.806C330.086 227.014 330.129 227.167 330.216 227.266C330.306 227.362 330.431 227.41 330.592 227.41C330.704 227.41 330.803 227.387 330.889 227.34C330.976 227.291 331.044 227.217 331.094 227.118C331.143 227.015 331.168 226.888 331.168 226.737V225.501H331.892V228H331.205V227.313L331.331 227.512C331.247 227.686 331.123 227.817 330.959 227.907C330.798 227.994 330.621 228.037 330.429 228.037ZM332.564 228V225.501H333.256V226.207L333.158 226.003C333.233 225.826 333.352 225.693 333.516 225.603C333.68 225.511 333.88 225.464 334.115 225.464V226.133C334.084 226.13 334.056 226.128 334.031 226.128C334.007 226.125 333.98 226.124 333.952 226.124C333.754 226.124 333.593 226.181 333.469 226.295C333.349 226.407 333.288 226.582 333.288 226.82V228H332.564ZM335.768 228.037C335.483 228.037 335.232 227.981 335.015 227.87C334.802 227.758 334.636 227.607 334.518 227.415C334.401 227.22 334.342 226.998 334.342 226.751C334.342 226.5 334.399 226.278 334.514 226.086C334.631 225.891 334.791 225.74 334.992 225.631C335.193 225.52 335.421 225.464 335.675 225.464C335.919 225.464 336.139 225.517 336.334 225.622C336.532 225.724 336.689 225.873 336.803 226.068C336.918 226.26 336.975 226.491 336.975 226.76C336.975 226.788 336.974 226.82 336.971 226.857C336.968 226.892 336.964 226.924 336.961 226.955H334.932V226.532H336.58L336.302 226.658C336.302 226.528 336.275 226.415 336.223 226.319C336.17 226.223 336.097 226.148 336.005 226.096C335.912 226.04 335.803 226.012 335.679 226.012C335.556 226.012 335.446 226.04 335.35 226.096C335.257 226.148 335.184 226.224 335.131 226.323C335.079 226.419 335.052 226.534 335.052 226.667V226.779C335.052 226.915 335.082 227.036 335.141 227.141C335.203 227.243 335.288 227.322 335.396 227.378C335.508 227.43 335.638 227.457 335.786 227.457C335.919 227.457 336.036 227.436 336.135 227.396C336.237 227.356 336.33 227.296 336.413 227.215L336.799 227.633C336.684 227.763 336.54 227.864 336.367 227.935C336.193 228.003 335.994 228.037 335.768 228.037ZM337.732 228.037C337.608 228.037 337.501 227.995 337.411 227.912C337.324 227.825 337.281 227.715 337.281 227.582C337.281 227.449 337.324 227.342 337.411 227.262C337.501 227.178 337.608 227.136 337.732 227.136C337.859 227.136 337.965 227.178 338.052 227.262C338.139 227.342 338.182 227.449 338.182 227.582C338.182 227.715 338.139 227.825 338.052 227.912C337.965 227.995 337.859 228.037 337.732 228.037ZM339.775 224.749H340.643L341.317 225.734L341.99 224.749H342.873L341.791 226.305L342.961 228H342.074L341.317 226.922L340.569 228H339.701L340.862 226.337L339.775 224.749ZM344.435 228.037C344.15 228.037 343.899 227.981 343.683 227.87C343.469 227.758 343.303 227.607 343.186 227.415C343.068 227.22 343.009 226.998 343.009 226.751C343.009 226.5 343.067 226.278 343.181 226.086C343.299 225.891 343.458 225.74 343.659 225.631C343.861 225.52 344.088 225.464 344.342 225.464C344.587 225.464 344.807 225.517 345.002 225.622C345.2 225.724 345.356 225.873 345.471 226.068C345.585 226.26 345.643 226.491 345.643 226.76C345.643 226.788 345.641 226.82 345.638 226.857C345.635 226.892 345.632 226.924 345.629 226.955H343.599V226.532H345.248L344.969 226.658C344.969 226.528 344.943 226.415 344.89 226.319C344.838 226.223 344.765 226.148 344.672 226.096C344.579 226.04 344.471 226.012 344.347 226.012C344.223 226.012 344.113 226.04 344.017 226.096C343.924 226.148 343.851 226.224 343.799 226.323C343.746 226.419 343.72 226.534 343.72 226.667V226.779C343.72 226.915 343.749 227.036 343.808 227.141C343.87 227.243 343.955 227.322 344.064 227.378C344.175 227.43 344.305 227.457 344.454 227.457C344.587 227.457 344.703 227.436 344.802 227.396C344.904 227.356 344.997 227.296 345.081 227.215L345.466 227.633C345.352 227.763 345.208 227.864 345.034 227.935C344.861 228.003 344.661 228.037 344.435 228.037ZM346.198 228V225.501H346.918V226.477H348.005V225.501H348.729V228H348.005V227.066H346.918V228H346.198ZM351.141 227.675V226.096H350.324L350.31 226.416C350.304 226.549 350.296 226.676 350.287 226.797C350.277 226.918 350.259 227.028 350.231 227.127C350.206 227.223 350.169 227.305 350.12 227.373C350.07 227.438 350.003 227.483 349.92 227.508L349.205 227.406C349.294 227.406 349.367 227.379 349.423 227.327C349.479 227.271 349.522 227.195 349.553 227.099C349.584 227 349.607 226.888 349.623 226.765C349.638 226.638 349.649 226.504 349.655 226.365L349.688 225.501H351.866V227.675H351.141ZM349.121 228.539V227.406H352.223V228.539H351.55V228H349.794V228.539H349.121ZM353.919 228.056C353.715 228.056 353.529 228.026 353.362 227.967C353.195 227.906 353.049 227.811 352.926 227.684C352.805 227.554 352.71 227.388 352.642 227.187C352.577 226.986 352.545 226.746 352.545 226.467C352.545 226.269 352.562 226.088 352.596 225.924C352.63 225.76 352.681 225.611 352.749 225.478C352.817 225.342 352.904 225.223 353.009 225.12C353.118 225.015 353.243 224.928 353.385 224.86C353.531 224.789 353.695 224.735 353.878 224.698L355.067 224.461L355.164 225.083L354.115 225.292C354.053 225.305 353.981 225.322 353.901 225.343C353.823 225.362 353.745 225.391 353.664 225.432C353.587 225.472 353.514 225.529 353.446 225.603C353.381 225.675 353.328 225.769 353.288 225.887C353.248 226.001 353.227 226.144 353.227 226.314C353.227 226.367 353.229 226.407 353.232 226.435C353.238 226.463 353.243 226.492 353.246 226.523C353.252 226.554 353.255 226.602 353.255 226.667L353.023 226.439C353.091 226.294 353.178 226.17 353.283 226.068C353.392 225.966 353.515 225.888 353.655 225.836C353.797 225.78 353.955 225.752 354.128 225.752C354.364 225.752 354.57 225.8 354.746 225.896C354.926 225.989 355.065 226.121 355.164 226.291C355.263 226.461 355.313 226.655 355.313 226.871C355.313 227.107 355.254 227.314 355.136 227.494C355.019 227.67 354.855 227.808 354.644 227.907C354.437 228.006 354.195 228.056 353.919 228.056ZM353.957 227.494C354.077 227.494 354.184 227.467 354.277 227.415C354.37 227.359 354.441 227.286 354.491 227.197C354.543 227.104 354.57 227 354.57 226.885C354.57 226.774 354.543 226.675 354.491 226.588C354.441 226.501 354.37 226.433 354.277 226.384C354.184 226.334 354.076 226.309 353.952 226.309C353.831 226.309 353.723 226.334 353.627 226.384C353.531 226.43 353.457 226.495 353.404 226.579C353.351 226.662 353.325 226.76 353.325 226.871C353.325 226.986 353.351 227.091 353.404 227.187C353.46 227.28 353.534 227.354 353.627 227.41C353.723 227.466 353.833 227.494 353.957 227.494ZM356.075 228.938C355.945 228.938 355.817 228.918 355.69 228.878C355.563 228.838 355.459 228.782 355.379 228.711L355.643 228.195C355.699 228.245 355.763 228.283 355.834 228.311C355.908 228.339 355.981 228.353 356.052 228.353C356.154 228.353 356.235 228.328 356.294 228.279C356.356 228.232 356.411 228.153 356.461 228.042L356.591 227.735L356.647 227.656L357.543 225.501H358.24L357.111 228.153C357.031 228.355 356.938 228.512 356.832 228.627C356.73 228.742 356.616 228.822 356.489 228.869C356.365 228.915 356.227 228.938 356.075 228.938ZM356.503 228.098L355.388 225.501H356.136L357 227.591L356.503 228.098ZM360.359 228L359.523 226.816L360.113 226.467L361.213 228H360.359ZM358.589 228V225.501H359.314V228H358.589ZM359.1 227.053V226.472H359.973V227.053H359.1ZM360.182 226.834L359.504 226.76L360.382 225.501H361.153L360.182 226.834ZM362.884 228V225.501H365.369V228H364.645V225.933L364.807 226.096H363.442L363.604 225.933V228H362.884ZM367.234 228.037C366.968 228.037 366.731 227.981 366.524 227.87C366.319 227.758 366.157 227.607 366.036 227.415C365.918 227.22 365.86 226.998 365.86 226.751C365.86 226.5 365.918 226.278 366.036 226.086C366.157 225.891 366.319 225.74 366.524 225.631C366.731 225.52 366.968 225.464 367.234 225.464C367.497 225.464 367.733 225.52 367.94 225.631C368.148 225.74 368.31 225.89 368.428 226.082C368.546 226.274 368.604 226.497 368.604 226.751C368.604 226.998 368.546 227.22 368.428 227.415C368.31 227.607 368.148 227.758 367.94 227.87C367.733 227.981 367.497 228.037 367.234 228.037ZM367.234 227.443C367.355 227.443 367.463 227.415 367.559 227.359C367.655 227.303 367.731 227.224 367.787 227.122C367.843 227.017 367.871 226.893 367.871 226.751C367.871 226.605 367.843 226.481 367.787 226.379C367.731 226.277 367.655 226.198 367.559 226.142C367.463 226.086 367.355 226.059 367.234 226.059C367.114 226.059 367.005 226.086 366.909 226.142C366.813 226.198 366.736 226.277 366.677 226.379C366.621 226.481 366.593 226.605 366.593 226.751C366.593 226.893 366.621 227.017 366.677 227.122C366.736 227.224 366.813 227.303 366.909 227.359C367.005 227.415 367.114 227.443 367.234 227.443ZM371.914 228V227.512L371.867 227.406V226.532C371.867 226.378 371.819 226.257 371.723 226.17C371.63 226.083 371.486 226.04 371.291 226.04C371.158 226.04 371.027 226.062 370.896 226.105C370.77 226.145 370.661 226.201 370.571 226.272L370.311 225.766C370.447 225.67 370.612 225.596 370.804 225.543C370.996 225.49 371.191 225.464 371.389 225.464C371.77 225.464 372.065 225.554 372.276 225.734C372.486 225.913 372.592 226.193 372.592 226.574V228H371.914ZM371.152 228.037C370.957 228.037 370.79 228.005 370.65 227.94C370.511 227.872 370.404 227.78 370.33 227.666C370.256 227.551 370.218 227.423 370.218 227.28C370.218 227.131 370.254 227.001 370.325 226.89C370.4 226.779 370.516 226.692 370.674 226.63C370.831 226.565 371.037 226.532 371.291 226.532H371.955V226.955H371.37C371.2 226.955 371.082 226.983 371.017 227.039C370.955 227.094 370.924 227.164 370.924 227.248C370.924 227.34 370.96 227.415 371.031 227.471C371.105 227.523 371.206 227.549 371.333 227.549C371.454 227.549 371.562 227.522 371.658 227.466C371.754 227.407 371.824 227.322 371.867 227.21L371.979 227.545C371.926 227.706 371.83 227.828 371.691 227.912C371.551 227.995 371.372 228.037 371.152 228.037ZM373.221 228V225.501H373.941V226.477H375.028V225.501H375.752V228H375.028V227.066H373.941V228H373.221ZM377.941 228V227.512L377.895 227.406V226.532C377.895 226.378 377.847 226.257 377.751 226.17C377.658 226.083 377.514 226.04 377.319 226.04C377.186 226.04 377.054 226.062 376.924 226.105C376.797 226.145 376.689 226.201 376.599 226.272L376.339 225.766C376.475 225.67 376.639 225.596 376.831 225.543C377.023 225.49 377.218 225.464 377.417 225.464C377.797 225.464 378.093 225.554 378.304 225.734C378.514 225.913 378.619 226.193 378.619 226.574V228H377.941ZM377.18 228.037C376.985 228.037 376.817 228.005 376.678 227.94C376.539 227.872 376.432 227.78 376.358 227.666C376.283 227.551 376.246 227.423 376.246 227.28C376.246 227.131 376.282 227.001 376.353 226.89C376.427 226.779 376.543 226.692 376.701 226.63C376.859 226.565 377.065 226.532 377.319 226.532H377.983V226.955H377.398C377.228 226.955 377.11 226.983 377.045 227.039C376.983 227.094 376.952 227.164 376.952 227.248C376.952 227.34 376.988 227.415 377.059 227.471C377.133 227.523 377.234 227.549 377.361 227.549C377.482 227.549 377.59 227.522 377.686 227.466C377.782 227.407 377.852 227.322 377.895 227.21L378.006 227.545C377.954 227.706 377.858 227.828 377.718 227.912C377.579 227.995 377.4 228.037 377.18 228.037ZM378.933 227.995L378.97 227.401C378.989 227.404 379.007 227.407 379.026 227.41C379.045 227.41 379.062 227.41 379.077 227.41C379.164 227.41 379.232 227.385 379.281 227.336C379.331 227.286 379.368 227.22 379.393 227.136C379.418 227.049 379.435 226.952 379.444 226.844C379.456 226.735 379.466 226.622 379.472 226.504L379.509 225.501H381.645V228H380.921V225.919L381.083 226.096H379.987L380.141 225.91L380.108 226.537C380.099 226.76 380.08 226.964 380.052 227.15C380.028 227.336 379.986 227.497 379.927 227.633C379.868 227.766 379.789 227.87 379.69 227.944C379.591 228.015 379.464 228.051 379.309 228.051C379.254 228.051 379.195 228.046 379.133 228.037C379.071 228.028 379.004 228.014 378.933 227.995ZM382.342 228V225.501H383.062V226.988L384.279 225.501H384.943V228H384.223V226.514L383.011 228H382.342ZM386.462 228.046C386.27 228.046 386.078 228.026 385.886 227.986C385.697 227.946 385.522 227.885 385.361 227.805L385.556 227.299C385.683 227.361 385.821 227.409 385.97 227.443C386.122 227.474 386.275 227.489 386.43 227.489C386.541 227.489 386.637 227.478 386.718 227.457C386.801 227.432 386.865 227.398 386.908 227.354C386.951 227.311 386.973 227.258 386.973 227.197C386.973 227.116 386.939 227.056 386.871 227.015C386.803 226.972 386.704 226.95 386.574 226.95H386.063V226.5H386.513C386.597 226.5 386.668 226.491 386.727 226.472C386.786 226.453 386.829 226.427 386.857 226.393C386.888 226.356 386.903 226.313 386.903 226.263C386.903 226.21 386.885 226.165 386.848 226.128C386.81 226.091 386.756 226.063 386.685 226.045C386.614 226.023 386.524 226.012 386.416 226.012C386.292 226.012 386.163 226.028 386.03 226.059C385.897 226.086 385.761 226.128 385.621 226.184L385.445 225.682C385.609 225.614 385.772 225.56 385.933 225.52C386.094 225.48 386.253 225.458 386.411 225.455C386.643 225.449 386.852 225.473 387.038 225.529C387.224 225.585 387.369 225.665 387.475 225.771C387.583 225.876 387.637 226.004 387.637 226.156C387.637 226.277 387.6 226.385 387.526 226.481C387.454 226.577 387.355 226.653 387.228 226.709C387.102 226.761 386.959 226.788 386.801 226.788L386.82 226.644C387.095 226.644 387.312 226.7 387.47 226.811C387.628 226.919 387.707 227.068 387.707 227.257C387.707 227.418 387.651 227.559 387.54 227.68C387.431 227.797 387.283 227.889 387.094 227.954C386.908 228.015 386.697 228.046 386.462 228.046ZM388.564 228.938C388.434 228.938 388.305 228.918 388.178 228.878C388.051 228.838 387.948 228.782 387.867 228.711L388.132 228.195C388.188 228.245 388.251 228.283 388.322 228.311C388.397 228.339 388.469 228.353 388.541 228.353C388.643 228.353 388.723 228.328 388.782 228.279C388.844 228.232 388.9 228.153 388.949 228.042L389.079 227.735L389.135 227.656L390.031 225.501H390.728L389.6 228.153C389.519 228.355 389.426 228.512 389.321 228.627C389.219 228.742 389.104 228.822 388.977 228.869C388.853 228.915 388.716 228.938 388.564 228.938ZM388.991 228.098L387.876 225.501H388.624L389.488 227.591L388.991 228.098ZM394.111 227.675V226.096H393.294L393.28 226.416C393.274 226.549 393.266 226.676 393.257 226.797C393.248 226.918 393.229 227.028 393.201 227.127C393.176 227.223 393.139 227.305 393.09 227.373C393.04 227.438 392.974 227.483 392.89 227.508L392.175 227.406C392.265 227.406 392.337 227.379 392.393 227.327C392.449 227.271 392.492 227.195 392.523 227.099C392.554 227 392.577 226.888 392.593 226.765C392.608 226.638 392.619 226.504 392.625 226.365L392.658 225.501H394.836V227.675H394.111ZM392.091 228.539V227.406H395.194V228.539H394.52V228H392.765V228.539H392.091ZM397.145 228V227.512L397.099 227.406V226.532C397.099 226.378 397.051 226.257 396.955 226.17C396.862 226.083 396.718 226.04 396.523 226.04C396.39 226.04 396.258 226.062 396.128 226.105C396.001 226.145 395.893 226.201 395.803 226.272L395.543 225.766C395.679 225.67 395.843 225.596 396.035 225.543C396.227 225.49 396.422 225.464 396.62 225.464C397.001 225.464 397.297 225.554 397.507 225.734C397.718 225.913 397.823 226.193 397.823 226.574V228H397.145ZM396.383 228.037C396.188 228.037 396.021 228.005 395.882 227.94C395.742 227.872 395.636 227.78 395.561 227.666C395.487 227.551 395.45 227.423 395.45 227.28C395.45 227.131 395.485 227.001 395.557 226.89C395.631 226.779 395.747 226.692 395.905 226.63C396.063 226.565 396.269 226.532 396.523 226.532H397.187V226.955H396.602C396.431 226.955 396.314 226.983 396.249 227.039C396.187 227.094 396.156 227.164 396.156 227.248C396.156 227.34 396.191 227.415 396.263 227.471C396.337 227.523 396.438 227.549 396.565 227.549C396.685 227.549 396.794 227.522 396.89 227.466C396.986 227.407 397.055 227.322 397.099 227.21L397.21 227.545C397.157 227.706 397.061 227.828 396.922 227.912C396.783 227.995 396.603 228.037 396.383 228.037ZM398.453 228V225.501H399.172V226.477H400.259V225.501H400.984V228H400.259V227.066H399.172V228H398.453ZM401.677 228V225.501H402.397V226.477H403.484V225.501H404.209V228H403.484V227.066H402.397V228H401.677ZM407.475 228V225.501H408.195V228H407.475ZM406.217 226.3C406.545 226.303 406.791 226.378 406.955 226.523C407.122 226.665 407.206 226.868 407.206 227.131C407.206 227.407 407.111 227.622 406.923 227.777C406.734 227.929 406.466 228.005 406.119 228.005L404.902 228V225.501H405.622V226.3H406.217ZM406.054 227.489C406.193 227.492 406.3 227.463 406.374 227.401C406.449 227.339 406.486 227.246 406.486 227.122C406.486 226.998 406.449 226.91 406.374 226.857C406.3 226.802 406.193 226.772 406.054 226.769L405.622 226.765V227.489H406.054ZM408.559 228L409.678 226.532L409.664 226.932L408.592 225.501H409.404L410.082 226.435L409.776 226.444L410.477 225.501H411.248L410.171 226.918V226.528L411.285 228H410.463L409.753 227.006L410.055 227.048L409.349 228H408.559ZM411.902 228.037C411.778 228.037 411.671 227.995 411.582 227.912C411.495 227.825 411.452 227.715 411.452 227.582C411.452 227.449 411.495 227.342 411.582 227.262C411.671 227.178 411.778 227.136 411.902 227.136C412.029 227.136 412.136 227.178 412.223 227.262C412.309 227.342 412.353 227.449 412.353 227.582C412.353 227.715 412.309 227.825 412.223 227.912C412.136 227.995 412.029 228.037 411.902 228.037ZM416.458 224.749H417.21V228H416.458V224.749ZM414.981 228H414.229V224.749H414.981V228ZM416.514 226.667H414.925V226.031H416.514V226.667ZM419.465 228V227.512L419.418 227.406V226.532C419.418 226.378 419.37 226.257 419.274 226.17C419.181 226.083 419.037 226.04 418.842 226.04C418.709 226.04 418.578 226.062 418.448 226.105C418.321 226.145 418.212 226.201 418.122 226.272L417.862 225.766C417.999 225.67 418.163 225.596 418.355 225.543C418.547 225.49 418.742 225.464 418.94 225.464C419.321 225.464 419.616 225.554 419.827 225.734C420.038 225.913 420.143 226.193 420.143 226.574V228H419.465ZM418.703 228.037C418.508 228.037 418.341 228.005 418.201 227.94C418.062 227.872 417.955 227.78 417.881 227.666C417.807 227.551 417.77 227.423 417.77 227.28C417.77 227.131 417.805 227.001 417.876 226.89C417.951 226.779 418.067 226.692 418.225 226.63C418.383 226.565 418.588 226.532 418.842 226.532H419.507V226.955H418.921C418.751 226.955 418.633 226.983 418.568 227.039C418.506 227.094 418.475 227.164 418.475 227.248C418.475 227.34 418.511 227.415 418.582 227.471C418.657 227.523 418.757 227.549 418.884 227.549C419.005 227.549 419.113 227.522 419.209 227.466C419.305 227.407 419.375 227.322 419.418 227.21L419.53 227.545C419.477 227.706 419.381 227.828 419.242 227.912C419.102 227.995 418.923 228.037 418.703 228.037ZM422.347 227.043C422.244 227.099 422.131 227.144 422.008 227.178C421.884 227.212 421.748 227.229 421.599 227.229C421.271 227.229 421.018 227.155 420.842 227.006C420.665 226.854 420.577 226.614 420.577 226.286V225.501H421.302V226.24C421.302 226.395 421.342 226.506 421.422 226.574C421.503 226.639 421.616 226.672 421.761 226.672C421.867 226.672 421.967 226.659 422.063 226.635C422.162 226.61 422.257 226.574 422.347 226.528V227.043ZM422.296 228V225.501H423.02V228H422.296ZM425.211 228V227.512L425.165 227.406V226.532C425.165 226.378 425.117 226.257 425.021 226.17C424.928 226.083 424.784 226.04 424.589 226.04C424.456 226.04 424.324 226.062 424.194 226.105C424.067 226.145 423.959 226.201 423.869 226.272L423.609 225.766C423.745 225.67 423.909 225.596 424.101 225.543C424.293 225.49 424.488 225.464 424.686 225.464C425.067 225.464 425.363 225.554 425.574 225.734C425.784 225.913 425.889 226.193 425.889 226.574V228H425.211ZM424.45 228.037C424.255 228.037 424.087 228.005 423.948 227.94C423.809 227.872 423.702 227.78 423.628 227.666C423.553 227.551 423.516 227.423 423.516 227.28C423.516 227.131 423.552 227.001 423.623 226.89C423.697 226.779 423.813 226.692 423.971 226.63C424.129 226.565 424.335 226.532 424.589 226.532H425.253V226.955H424.668C424.498 226.955 424.38 226.983 424.315 227.039C424.253 227.094 424.222 227.164 424.222 227.248C424.222 227.34 424.258 227.415 424.329 227.471C424.403 227.523 424.504 227.549 424.631 227.549C424.752 227.549 424.86 227.522 424.956 227.466C425.052 227.407 425.122 227.322 425.165 227.21L425.276 227.545C425.224 227.706 425.128 227.828 424.988 227.912C424.849 227.995 424.669 228.037 424.45 228.037ZM426.203 227.995L426.24 227.401C426.259 227.404 426.277 227.407 426.296 227.41C426.314 227.41 426.331 227.41 426.347 227.41C426.434 227.41 426.502 227.385 426.551 227.336C426.601 227.286 426.638 227.22 426.663 227.136C426.688 227.049 426.705 226.952 426.714 226.844C426.726 226.735 426.736 226.622 426.742 226.504L426.779 225.501H428.915V228H428.191V225.919L428.353 226.096H427.257L427.411 225.91L427.378 226.537C427.369 226.76 427.35 226.964 427.322 227.15C427.298 227.336 427.256 227.497 427.197 227.633C427.138 227.766 427.059 227.87 426.96 227.944C426.861 228.015 426.734 228.051 426.579 228.051C426.523 228.051 426.465 228.046 426.403 228.037C426.341 228.028 426.274 228.014 426.203 227.995ZM430.964 226.3C431.292 226.303 431.541 226.378 431.711 226.523C431.885 226.665 431.971 226.868 431.971 227.131C431.971 227.407 431.874 227.622 431.679 227.777C431.484 227.929 431.213 228.005 430.866 228.005L429.612 228V225.501H430.332V226.3H430.964ZM430.801 227.489C430.94 227.492 431.047 227.463 431.122 227.401C431.196 227.339 431.233 227.246 431.233 227.122C431.233 226.998 431.196 226.91 431.122 226.857C431.047 226.802 430.94 226.772 430.801 226.769L430.332 226.765V227.489H430.801ZM432.424 228V225.501H433.144V226.477H434.231V225.501H434.955V228H434.231V227.066H433.144V228H432.424ZM438.222 228V225.501H438.942V228H438.222ZM436.963 226.3C437.292 226.303 437.538 226.378 437.702 226.523C437.869 226.665 437.953 226.868 437.953 227.131C437.953 227.407 437.858 227.622 437.669 227.777C437.48 227.929 437.213 228.005 436.866 228.005L435.649 228V225.501H436.369V226.3H436.963ZM436.801 227.489C436.94 227.492 437.047 227.463 437.121 227.401C437.196 227.339 437.233 227.246 437.233 227.122C437.233 226.998 437.196 226.91 437.121 226.857C437.047 226.802 436.94 226.772 436.801 226.769L436.369 226.765V227.489H436.801ZM439.64 228V225.501H440.36V226.988L441.577 225.501H442.241V228H441.521V226.514L440.309 228H439.64ZM440.894 225.232C440.622 225.232 440.417 225.173 440.281 225.055C440.145 224.935 440.075 224.754 440.072 224.512H440.546C440.549 224.617 440.578 224.701 440.634 224.763C440.69 224.825 440.775 224.856 440.89 224.856C441.001 224.856 441.086 224.825 441.145 224.763C441.207 224.701 441.238 224.617 441.238 224.512H441.721C441.721 224.754 441.651 224.935 441.512 225.055C441.373 225.173 441.167 225.232 440.894 225.232ZM444.592 228.938C444.462 228.938 444.333 228.918 444.207 228.878C444.08 228.838 443.976 228.782 443.895 228.711L444.16 228.195C444.216 228.245 444.279 228.283 444.35 228.311C444.425 228.339 444.498 228.353 444.569 228.353C444.671 228.353 444.751 228.328 444.81 228.279C444.872 228.232 444.928 228.153 444.977 228.042L445.108 227.735L445.163 227.656L446.06 225.501H446.756L445.628 228.153C445.547 228.355 445.454 228.512 445.349 228.627C445.247 228.742 445.132 228.822 445.005 228.869C444.881 228.915 444.744 228.938 444.592 228.938ZM445.019 228.098L443.905 225.501H444.652L445.516 227.591L445.019 228.098ZM448.578 228.037C448.368 228.037 448.183 227.991 448.025 227.898C447.868 227.805 447.744 227.664 447.654 227.475C447.567 227.283 447.524 227.042 447.524 226.751C447.524 226.456 447.566 226.215 447.649 226.026C447.733 225.837 447.854 225.696 448.012 225.603C448.169 225.511 448.358 225.464 448.578 225.464C448.813 225.464 449.024 225.518 449.21 225.627C449.399 225.732 449.547 225.881 449.656 226.073C449.767 226.265 449.823 226.491 449.823 226.751C449.823 227.014 449.767 227.241 449.656 227.433C449.547 227.625 449.399 227.774 449.21 227.879C449.024 227.985 448.813 228.037 448.578 228.037ZM447.101 228.901V225.501H447.793V226.012L447.779 226.755L447.826 227.494V228.901H447.101ZM448.453 227.443C448.573 227.443 448.68 227.415 448.773 227.359C448.869 227.303 448.945 227.224 449.001 227.122C449.06 227.017 449.089 226.893 449.089 226.751C449.089 226.605 449.06 226.481 449.001 226.379C448.945 226.277 448.869 226.198 448.773 226.142C448.68 226.086 448.573 226.059 448.453 226.059C448.332 226.059 448.224 226.086 448.128 226.142C448.032 226.198 447.956 226.277 447.9 226.379C447.844 226.481 447.816 226.605 447.816 226.751C447.816 226.893 447.844 227.017 447.9 227.122C447.956 227.224 448.032 227.303 448.128 227.359C448.224 227.415 448.332 227.443 448.453 227.443ZM451.501 228.037C451.235 228.037 450.998 227.981 450.79 227.87C450.586 227.758 450.424 227.607 450.303 227.415C450.185 227.22 450.126 226.998 450.126 226.751C450.126 226.5 450.185 226.278 450.303 226.086C450.424 225.891 450.586 225.74 450.79 225.631C450.998 225.52 451.235 225.464 451.501 225.464C451.764 225.464 452 225.52 452.207 225.631C452.414 225.74 452.577 225.89 452.695 226.082C452.812 226.274 452.871 226.497 452.871 226.751C452.871 226.998 452.812 227.22 452.695 227.415C452.577 227.607 452.414 227.758 452.207 227.87C452 227.981 451.764 228.037 451.501 228.037ZM451.501 227.443C451.622 227.443 451.73 227.415 451.826 227.359C451.922 227.303 451.998 227.224 452.054 227.122C452.109 227.017 452.137 226.893 452.137 226.751C452.137 226.605 452.109 226.481 452.054 226.379C451.998 226.277 451.922 226.198 451.826 226.142C451.73 226.086 451.622 226.059 451.501 226.059C451.38 226.059 451.272 226.086 451.176 226.142C451.08 226.198 451.003 226.277 450.944 226.379C450.888 226.481 450.86 226.605 450.86 226.751C450.86 226.893 450.888 227.017 450.944 227.122C451.003 227.224 451.08 227.303 451.176 227.359C451.272 227.415 451.38 227.443 451.501 227.443ZM453.369 228V225.501H454.647C454.959 225.501 455.204 225.559 455.381 225.673C455.557 225.785 455.645 225.943 455.645 226.147C455.645 226.351 455.562 226.512 455.394 226.63C455.23 226.744 455.012 226.802 454.74 226.802L454.814 226.635C455.117 226.635 455.343 226.69 455.492 226.802C455.644 226.913 455.72 227.076 455.72 227.289C455.72 227.509 455.636 227.683 455.469 227.81C455.302 227.937 455.046 228 454.702 228H453.369ZM454.034 227.508H454.642C454.775 227.508 454.874 227.486 454.939 227.443C455.007 227.396 455.041 227.327 455.041 227.234C455.041 227.138 455.011 227.068 454.949 227.025C454.887 226.978 454.789 226.955 454.656 226.955H454.034V227.508ZM454.034 226.528H454.582C454.709 226.528 454.803 226.504 454.865 226.458C454.93 226.412 454.963 226.345 454.963 226.258C454.963 226.169 454.93 226.102 454.865 226.059C454.803 226.015 454.709 225.994 454.582 225.994H454.034V226.528ZM457.48 228.037C457.195 228.037 456.944 227.981 456.728 227.87C456.514 227.758 456.348 227.607 456.231 227.415C456.113 227.22 456.054 226.998 456.054 226.751C456.054 226.5 456.112 226.278 456.226 226.086C456.344 225.891 456.503 225.74 456.705 225.631C456.906 225.52 457.133 225.464 457.387 225.464C457.632 225.464 457.852 225.517 458.047 225.622C458.245 225.724 458.401 225.873 458.516 226.068C458.63 226.26 458.688 226.491 458.688 226.76C458.688 226.788 458.686 226.82 458.683 226.857C458.68 226.892 458.677 226.924 458.674 226.955H456.644V226.532H458.293L458.014 226.658C458.014 226.528 457.988 226.415 457.935 226.319C457.883 226.223 457.81 226.148 457.717 226.096C457.624 226.04 457.516 226.012 457.392 226.012C457.268 226.012 457.158 226.04 457.062 226.096C456.969 226.148 456.896 226.224 456.844 226.323C456.791 226.419 456.765 226.534 456.765 226.667V226.779C456.765 226.915 456.794 227.036 456.853 227.141C456.915 227.243 457 227.322 457.109 227.378C457.22 227.43 457.35 227.457 457.499 227.457C457.632 227.457 457.748 227.436 457.847 227.396C457.949 227.356 458.042 227.296 458.126 227.215L458.511 227.633C458.397 227.763 458.253 227.864 458.079 227.935C457.906 228.003 457.706 228.037 457.48 228.037ZM459.243 228V225.501H459.963V226.477H461.05V225.501H461.774V228H461.05V227.066H459.963V228H459.243ZM463.819 226.3C464.148 226.303 464.397 226.378 464.567 226.523C464.741 226.665 464.827 226.868 464.827 227.131C464.827 227.407 464.73 227.622 464.535 227.777C464.34 227.929 464.069 228.005 463.722 228.005L462.468 228V225.501H463.188V226.3H463.819ZM463.657 227.489C463.796 227.492 463.903 227.463 463.977 227.401C464.052 227.339 464.089 227.246 464.089 227.122C464.089 226.998 464.052 226.91 463.977 226.857C463.903 226.802 463.796 226.772 463.657 226.769L463.188 226.765V227.489H463.657Z" fill="#D8D8D8"/>
<path d="M283.73 114.579C283.498 114.728 283.43 115.038 283.579 115.27L286.01 119.057C286.159 119.29 286.468 119.357 286.701 119.208C286.933 119.059 287 118.75 286.851 118.517L284.691 115.151L288.057 112.99C288.29 112.841 288.357 112.532 288.208 112.299C288.059 112.067 287.75 112 287.517 112.149L283.73 114.579ZM332 155L332.495 154.929C330.909 143.919 326.954 135.561 319.277 129.077C311.622 122.61 300.314 118.048 284.107 114.511L284 115L283.893 115.489C300.045 119.013 311.163 123.531 318.632 129.84C326.079 136.131 329.945 144.243 331.505 155.071L332 155Z" fill="#9A9C9E"/>
<path d="M167.824 69.7582C167.735 70.0196 167.451 70.1594 167.19 70.0704L162.93 68.6199C162.669 68.5309 162.529 68.2468 162.618 67.9854C162.707 67.724 162.991 67.5842 163.253 67.6732L167.039 68.9626L168.328 65.1761C168.417 64.9147 168.701 64.7749 168.963 64.8639C169.224 64.953 169.364 65.237 169.275 65.4984L167.824 69.7582ZM117 32.6001L116.951 32.1026C128.019 31.0001 137.082 32.8335 145.219 38.7293C153.334 44.6084 160.477 54.4914 167.8 69.3764L167.351 69.5971L166.903 69.8178C159.605 54.9843 152.55 45.2755 144.633 39.5391C136.738 33.8193 127.936 32.0134 117.05 33.0976L117 32.6001Z" fill="#9A9C9E"/>
<path d="M222.604 165.049C222.772 164.83 223.086 164.788 223.305 164.957L226.875 167.696C227.094 167.864 227.136 168.178 226.968 168.397C226.799 168.616 226.486 168.657 226.266 168.489L223.093 166.054L220.658 169.228C220.49 169.447 220.176 169.488 219.957 169.32C219.738 169.152 219.697 168.838 219.865 168.619L222.604 165.049ZM314.061 191.365L314.341 191.779C295.279 204.659 273.663 208.05 256.131 203.232C238.583 198.409 225.132 185.355 222.505 165.419L223 165.353L223.496 165.288C226.064 184.78 239.189 197.538 256.396 202.268C273.618 207.001 294.935 203.684 313.781 190.951L314.061 191.365Z" fill="#9A9C9E"/>
<rect x="226" y="85.667" width="48" height="35" fill="#DCFF00"/>
<rect x="179" y="120.333" width="48" height="35" fill="#DCFF00"/>
<path d="M145.031 97.667L144.149 95.329H139.977L139.095 97.667H136.714L140.873 86.341H143.505L147.411 97.667H145.031ZM140.761 93.243H143.365L142.063 89.799L140.761 93.243Z" fill="black"/>
<path d="M192.031 63L191.149 60.662H186.977L186.095 63H183.714L187.873 51.674H190.505L194.411 63H192.031ZM187.761 58.576H190.365L189.063 55.132L187.761 58.576Z" fill="black"/>
<path d="M137.457 121.007H142.175C144.261 121.007 145.717 122.673 145.717 124.325C145.717 125.725 144.765 126.691 144.387 126.691C145.451 126.691 146.543 127.839 146.543 129.295C146.543 130.835 145.339 132.333 143.253 132.333H137.457V121.007ZM139.963 123.205V125.571H142.385C143.029 125.571 143.547 125.025 143.547 124.395C143.547 123.765 143.001 123.205 142.399 123.205H139.963ZM143.099 130.135C143.743 130.135 144.261 129.617 144.261 128.973C144.261 128.315 143.729 127.769 143.071 127.769H139.963V130.135H143.099Z" fill="black"/>
<path d="M231.457 51.674H236.175C238.261 51.674 239.717 53.34 239.717 54.992C239.717 56.392 238.765 57.358 238.387 57.358C239.451 57.358 240.543 58.506 240.543 59.962C240.543 61.502 239.339 63 237.253 63H231.457V51.674ZM233.963 53.872V56.238H236.385C237.029 56.238 237.547 55.692 237.547 55.062C237.547 54.432 237.001 53.872 236.399 53.872H233.963ZM237.099 60.802C237.743 60.802 238.261 60.284 238.261 59.64C238.261 58.982 237.729 58.436 237.071 58.436H233.963V60.802H237.099Z" fill="black"/>
<path d="M191.502 97.667H184.6V96.519L187.778 96.533V87.657L184.782 89.603L184.796 88.287L187.806 86.341H188.968V96.519H191.502V97.667Z" fill="black"/>
<path d="M238.502 132.333H231.6V131.185L234.778 131.199V122.323L231.782 124.269L231.796 122.953L234.806 121.007H235.968V131.185H238.502V132.333Z" fill="black"/>
<path d="M225.734 104.17C238.081 113.427 248.275 123.091 254.778 131.223C258.032 135.292 260.343 138.955 261.546 141.974C262.761 145.025 262.784 147.26 261.752 148.636C260.72 150.012 258.569 150.616 255.3 150.305C252.065 149.998 247.9 148.806 243.082 146.823C233.454 142.861 221.319 135.785 208.972 126.528C196.625 117.271 186.431 107.607 179.928 99.475C176.674 95.4062 174.363 91.7434 173.161 88.7239C171.946 85.673 171.923 83.4389 172.954 82.0624C173.986 80.686 176.137 80.0822 179.407 80.3931C182.642 80.7008 186.806 81.8919 191.624 83.8745C201.252 87.8369 213.387 94.9134 225.734 104.17Z" stroke="#2300FA"/>
<path d="M16.111 29V23.225H21.303V29H20.522V23.698L20.72 23.907H16.694L16.892 23.698V29H16.111ZM25.8991 29.055C25.3418 29.055 24.8394 28.9303 24.3921 28.681C23.9521 28.4243 23.6038 28.076 23.3471 27.636C23.0904 27.1887 22.9621 26.679 22.9621 26.107C22.9621 25.5277 23.0904 25.018 23.3471 24.578C23.6038 24.138 23.9521 23.7933 24.3921 23.544C24.8321 23.2947 25.3344 23.17 25.8991 23.17C26.4711 23.17 26.9771 23.2947 27.4171 23.544C27.8644 23.7933 28.2128 24.138 28.4621 24.578C28.7188 25.018 28.8471 25.5277 28.8471 26.107C28.8471 26.679 28.7188 27.1887 28.4621 27.636C28.2128 28.076 27.8644 28.4243 27.4171 28.681C26.9698 28.9303 26.4638 29.055 25.8991 29.055ZM25.8991 28.362C26.3171 28.362 26.6874 28.2703 27.0101 28.087C27.3328 27.8963 27.5858 27.6323 27.7691 27.295C27.9598 26.9503 28.0551 26.5543 28.0551 26.107C28.0551 25.6523 27.9598 25.2563 27.7691 24.919C27.5858 24.5817 27.3328 24.3213 27.0101 24.138C26.6874 23.9473 26.3208 23.852 25.9101 23.852C25.4994 23.852 25.1328 23.9473 24.8101 24.138C24.4874 24.3213 24.2308 24.5817 24.0401 24.919C23.8494 25.2563 23.7541 25.6523 23.7541 26.107C23.7541 26.5543 23.8494 26.9503 24.0401 27.295C24.2308 27.6323 24.4874 27.8963 24.8101 28.087C25.1328 28.2703 25.4958 28.362 25.8991 28.362ZM33.3952 29V23.225H34.1762V28.318H37.7072V23.225H38.4882V29H33.3952ZM38.6862 30.397V28.934L38.8842 29H37.7072V28.318H39.4232V30.397H38.6862ZM43.3897 29.055C42.7884 29.055 42.2604 28.9303 41.8057 28.681C41.351 28.4243 40.9954 28.076 40.7387 27.636C40.482 27.1887 40.3537 26.679 40.3537 26.107C40.3537 25.535 40.4747 25.029 40.7167 24.589C40.966 24.149 41.3034 23.8043 41.7287 23.555C42.1614 23.2983 42.6454 23.17 43.1807 23.17C43.7234 23.17 44.2037 23.2947 44.6217 23.544C45.047 23.786 45.3807 24.1307 45.6227 24.578C45.8647 25.018 45.9857 25.5277 45.9857 26.107C45.9857 26.1437 45.982 26.184 45.9747 26.228C45.9747 26.2647 45.9747 26.305 45.9747 26.349H40.9477V25.766H45.5567L45.2487 25.997C45.2487 25.579 45.157 25.2087 44.9737 24.886C44.7977 24.556 44.5557 24.2993 44.2477 24.116C43.9397 23.9327 43.584 23.841 43.1807 23.841C42.7847 23.841 42.429 23.9327 42.1137 24.116C41.7984 24.2993 41.5527 24.556 41.3767 24.886C41.2007 25.216 41.1127 25.5937 41.1127 26.019V26.14C41.1127 26.58 41.208 26.9687 41.3987 27.306C41.5967 27.636 41.868 27.8963 42.2127 28.087C42.5647 28.2703 42.9644 28.362 43.4117 28.362C43.7637 28.362 44.09 28.2997 44.3907 28.175C44.6987 28.0503 44.9627 27.8597 45.1827 27.603L45.6227 28.109C45.366 28.417 45.0434 28.6517 44.6547 28.813C44.2734 28.9743 43.8517 29.055 43.3897 29.055ZM47.7145 29V23.225H48.4955V25.777H52.1365V23.225H52.9175V29H52.1365V26.448H48.4955V29H47.7145ZM56.2374 29V23.698L56.4354 23.907H54.0484V23.225H59.2074V23.907H56.8204L57.0184 23.698V29H56.2374ZM63.3176 29.055C62.8189 29.055 62.3679 28.9413 61.9646 28.714C61.5613 28.4793 61.2386 28.1457 60.9966 27.713C60.7619 27.273 60.6446 26.7377 60.6446 26.107C60.6446 25.4763 60.7619 24.9447 60.9966 24.512C61.2313 24.072 61.5503 23.7383 61.9536 23.511C62.3569 23.2837 62.8116 23.17 63.3176 23.17C63.8676 23.17 64.3589 23.2947 64.7916 23.544C65.2316 23.786 65.5763 24.1307 65.8256 24.578C66.0749 25.018 66.1996 25.5277 66.1996 26.107C66.1996 26.6937 66.0749 27.207 65.8256 27.647C65.5763 28.087 65.2316 28.4317 64.7916 28.681C64.3589 28.9303 63.8676 29.055 63.3176 29.055ZM60.3366 31.134V23.225H61.0846V24.963L61.0076 26.118L61.1176 27.284V31.134H60.3366ZM63.2626 28.362C63.6733 28.362 64.0399 28.2703 64.3626 28.087C64.6853 27.8963 64.9419 27.6323 65.1326 27.295C65.3233 26.9503 65.4186 26.5543 65.4186 26.107C65.4186 25.6597 65.3233 25.2673 65.1326 24.93C64.9419 24.5927 64.6853 24.3287 64.3626 24.138C64.0399 23.9473 63.6733 23.852 63.2626 23.852C62.8519 23.852 62.4816 23.9473 62.1516 24.138C61.8289 24.3287 61.5723 24.5927 61.3816 24.93C61.1983 25.2673 61.1066 25.6597 61.1066 26.107C61.1066 26.5543 61.1983 26.9503 61.3816 27.295C61.5723 27.6323 61.8289 27.8963 62.1516 28.087C62.4816 28.2703 62.8519 28.362 63.2626 28.362ZM71.4314 29V27.724L71.3984 27.515V25.381C71.3984 24.8897 71.259 24.512 70.9804 24.248C70.709 23.984 70.302 23.852 69.7594 23.852C69.3854 23.852 69.0297 23.9143 68.6924 24.039C68.355 24.1637 68.069 24.3287 67.8344 24.534L67.4824 23.951C67.7757 23.7017 68.1277 23.511 68.5384 23.379C68.949 23.2397 69.3817 23.17 69.8364 23.17C70.5844 23.17 71.16 23.357 71.5634 23.731C71.974 24.0977 72.1794 24.6587 72.1794 25.414V29H71.4314ZM69.4404 29.055C69.0077 29.055 68.63 28.9853 68.3074 28.846C67.992 28.6993 67.75 28.5013 67.5814 28.252C67.4127 27.9953 67.3284 27.702 67.3284 27.372C67.3284 27.0713 67.398 26.8 67.5374 26.558C67.684 26.3087 67.9187 26.1107 68.2414 25.964C68.5714 25.81 69.0114 25.733 69.5614 25.733H71.5524V26.316H69.5834C69.026 26.316 68.6374 26.415 68.4174 26.613C68.2047 26.811 68.0984 27.0567 68.0984 27.35C68.0984 27.68 68.2267 27.944 68.4834 28.142C68.74 28.34 69.0994 28.439 69.5614 28.439C70.0014 28.439 70.379 28.34 70.6944 28.142C71.017 27.9367 71.2517 27.6433 71.3984 27.262L71.5744 27.801C71.4277 28.1823 71.171 28.4867 70.8044 28.714C70.445 28.9413 69.9904 29.055 69.4404 29.055ZM73.7635 29.066C73.6755 29.066 73.5838 29.0587 73.4885 29.044C73.4005 29.0293 73.3051 29.011 73.2025 28.989L73.2575 28.318C73.3088 28.3253 73.3565 28.3363 73.4005 28.351C73.4518 28.3583 73.4958 28.362 73.5325 28.362C73.7671 28.362 73.9541 28.274 74.0935 28.098C74.2401 27.922 74.3501 27.6873 74.4235 27.394C74.4968 27.1007 74.5481 26.7707 74.5775 26.404C74.6068 26.03 74.6325 25.656 74.6545 25.282L74.7535 23.225H78.9885V29H78.2075V23.676L78.4055 23.907H75.2595L75.4465 23.665L75.3585 25.337C75.3365 25.8357 75.2961 26.3123 75.2375 26.767C75.1861 27.2217 75.1018 27.6213 74.9845 27.966C74.8745 28.3107 74.7205 28.582 74.5225 28.78C74.3245 28.9707 74.0715 29.066 73.7635 29.066ZM83.5407 29.011L81.2087 29V23.225H81.9897V25.238L83.6947 25.26C84.4207 25.2673 84.9707 25.4287 85.3447 25.744C85.726 26.0593 85.9167 26.514 85.9167 27.108C85.9167 27.724 85.7113 28.197 85.3007 28.527C84.8973 28.857 84.3107 29.0183 83.5407 29.011ZM83.4967 28.417C84.032 28.4243 84.4353 28.318 84.7067 28.098C84.9853 27.8707 85.1247 27.5407 85.1247 27.108C85.1247 26.6753 84.989 26.36 84.7177 26.162C84.4463 25.9567 84.0393 25.8503 83.4967 25.843L81.9897 25.821V28.395L83.4967 28.417ZM87.4069 29V23.225H88.1879V25.777H91.8289V23.225H92.6099V29H91.8289V26.448H88.1879V29H87.4069ZM97.2058 29.055C96.6484 29.055 96.1461 28.9303 95.6988 28.681C95.2588 28.4243 94.9104 28.076 94.6538 27.636C94.3971 27.1887 94.2688 26.679 94.2688 26.107C94.2688 25.5277 94.3971 25.018 94.6538 24.578C94.9104 24.138 95.2588 23.7933 95.6988 23.544C96.1388 23.2947 96.6411 23.17 97.2058 23.17C97.7778 23.17 98.2838 23.2947 98.7238 23.544C99.1711 23.7933 99.5194 24.138 99.7688 24.578C100.025 25.018 100.154 25.5277 100.154 26.107C100.154 26.679 100.025 27.1887 99.7688 27.636C99.5194 28.076 99.1711 28.4243 98.7238 28.681C98.2764 28.9303 97.7704 29.055 97.2058 29.055ZM97.2058 28.362C97.6238 28.362 97.9941 28.2703 98.3168 28.087C98.6394 27.8963 98.8924 27.6323 99.0758 27.295C99.2664 26.9503 99.3618 26.5543 99.3618 26.107C99.3618 25.6523 99.2664 25.2563 99.0758 24.919C98.8924 24.5817 98.6394 24.3213 98.3168 24.138C97.9941 23.9473 97.6274 23.852 97.2168 23.852C96.8061 23.852 96.4394 23.9473 96.1168 24.138C95.7941 24.3213 95.5374 24.5817 95.3468 24.919C95.1561 25.2563 95.0608 25.6523 95.0608 26.107C95.0608 26.5543 95.1561 26.9503 95.3468 27.295C95.5374 27.6323 95.7941 27.8963 96.1168 28.087C96.4394 28.2703 96.8024 28.362 97.2058 28.362ZM101.823 29V23.225H102.604V27.812L106.465 23.225H107.158V29H106.377V24.402L102.527 29H101.823ZM104.441 22.389C103.957 22.389 103.565 22.268 103.264 22.026C102.971 21.7767 102.817 21.421 102.802 20.959H103.363C103.37 21.2523 103.473 21.4833 103.671 21.652C103.869 21.8207 104.126 21.905 104.441 21.905C104.756 21.905 105.013 21.8207 105.211 21.652C105.416 21.4833 105.523 21.2523 105.53 20.959H106.091C106.084 21.421 105.93 21.7767 105.629 22.026C105.328 22.268 104.932 22.389 104.441 22.389ZM16.122 39.461L15.341 39.318C15.5683 39.3253 15.7553 39.2447 15.902 39.076C16.0487 38.9 16.1623 38.6617 16.243 38.361C16.3237 38.0603 16.3823 37.7193 16.419 37.338C16.4557 36.9493 16.485 36.5533 16.507 36.15L16.584 34.225H20.852V39.626H20.071V34.907H17.288L17.222 36.194C17.2073 36.5827 17.1817 36.964 17.145 37.338C17.1157 37.712 17.0607 38.0567 16.98 38.372C16.9067 38.68 16.8003 38.933 16.661 39.131C16.5217 39.3217 16.342 39.4317 16.122 39.461ZM15.099 41.397V39.318H21.754V41.397H21.017V40H15.836V41.397H15.099ZM23.276 40V34.225H24.057V38.812L27.918 34.225H28.611V40H27.83V35.402L23.98 40H23.276ZM34.4353 40V38.724L34.4023 38.515V36.381C34.4023 35.8897 34.2629 35.512 33.9843 35.248C33.7129 34.984 33.3059 34.852 32.7633 34.852C32.3893 34.852 32.0336 34.9143 31.6963 35.039C31.3589 35.1637 31.0729 35.3287 30.8383 35.534L30.4863 34.951C30.7796 34.7017 31.1316 34.511 31.5423 34.379C31.9529 34.2397 32.3856 34.17 32.8403 34.17C33.5883 34.17 34.1639 34.357 34.5673 34.731C34.9779 35.0977 35.1833 35.6587 35.1833 36.414V40H34.4353ZM32.4443 40.055C32.0116 40.055 31.6339 39.9853 31.3113 39.846C30.9959 39.6993 30.7539 39.5013 30.5853 39.252C30.4166 38.9953 30.3323 38.702 30.3323 38.372C30.3323 38.0713 30.4019 37.8 30.5413 37.558C30.6879 37.3087 30.9226 37.1107 31.2453 36.964C31.5753 36.81 32.0153 36.733 32.5653 36.733H34.5563V37.316H32.5873C32.0299 37.316 31.6413 37.415 31.4213 37.613C31.2086 37.811 31.1023 38.0567 31.1023 38.35C31.1023 38.68 31.2306 38.944 31.4873 39.142C31.7439 39.34 32.1033 39.439 32.5653 39.439C33.0053 39.439 33.3829 39.34 33.6983 39.142C34.0209 38.9367 34.2556 38.6433 34.4023 38.262L34.5783 38.801C34.4316 39.1823 34.1749 39.4867 33.8083 39.714C33.4489 39.9413 32.9943 40.055 32.4443 40.055ZM37.2624 40V34.225H41.3544V34.907H37.8454L38.0434 34.709V40H37.2624ZM44.5905 40.055C44.0332 40.055 43.5308 39.9303 43.0835 39.681C42.6435 39.4243 42.2952 39.076 42.0385 38.636C41.7818 38.1887 41.6535 37.679 41.6535 37.107C41.6535 36.5277 41.7818 36.018 42.0385 35.578C42.2952 35.138 42.6435 34.7933 43.0835 34.544C43.5235 34.2947 44.0258 34.17 44.5905 34.17C45.1625 34.17 45.6685 34.2947 46.1085 34.544C46.5558 34.7933 46.9042 35.138 47.1535 35.578C47.4102 36.018 47.5385 36.5277 47.5385 37.107C47.5385 37.679 47.4102 38.1887 47.1535 38.636C46.9042 39.076 46.5558 39.4243 46.1085 39.681C45.6612 39.9303 45.1552 40.055 44.5905 40.055ZM44.5905 39.362C45.0085 39.362 45.3788 39.2703 45.7015 39.087C46.0242 38.8963 46.2772 38.6323 46.4605 38.295C46.6512 37.9503 46.7465 37.5543 46.7465 37.107C46.7465 36.6523 46.6512 36.2563 46.4605 35.919C46.2772 35.5817 46.0242 35.3213 45.7015 35.138C45.3788 34.9473 45.0122 34.852 44.6015 34.852C44.1908 34.852 43.8242 34.9473 43.5015 35.138C43.1788 35.3213 42.9222 35.5817 42.7315 35.919C42.5408 36.2563 42.4455 36.6523 42.4455 37.107C42.4455 37.5543 42.5408 37.9503 42.7315 38.295C42.9222 38.6323 43.1788 38.8963 43.5015 39.087C43.8242 39.2703 44.1872 39.362 44.5905 39.362ZM49.2077 40V34.225H49.9887V36.777H53.6297V34.225H54.4107V40H53.6297V37.448H49.9887V40H49.2077ZM60.2165 40V38.724L60.1835 38.515V36.381C60.1835 35.8897 60.0442 35.512 59.7655 35.248C59.4942 34.984 59.0872 34.852 58.5445 34.852C58.1705 34.852 57.8149 34.9143 57.4775 35.039C57.1402 35.1637 56.8542 35.3287 56.6195 35.534L56.2675 34.951C56.5609 34.7017 56.9129 34.511 57.3235 34.379C57.7342 34.2397 58.1669 34.17 58.6215 34.17C59.3695 34.17 59.9452 34.357 60.3485 34.731C60.7592 35.0977 60.9645 35.6587 60.9645 36.414V40H60.2165ZM58.2255 40.055C57.7929 40.055 57.4152 39.9853 57.0925 39.846C56.7772 39.6993 56.5352 39.5013 56.3665 39.252C56.1979 38.9953 56.1135 38.702 56.1135 38.372C56.1135 38.0713 56.1832 37.8 56.3225 37.558C56.4692 37.3087 56.7039 37.1107 57.0265 36.964C57.3565 36.81 57.7965 36.733 58.3465 36.733H60.3375V37.316H58.3685C57.8112 37.316 57.4225 37.415 57.2025 37.613C56.9899 37.811 56.8835 38.0567 56.8835 38.35C56.8835 38.68 57.0119 38.944 57.2685 39.142C57.5252 39.34 57.8845 39.439 58.3465 39.439C58.7865 39.439 59.1642 39.34 59.4795 39.142C59.8022 38.9367 60.0369 38.6433 60.1835 38.262L60.3595 38.801C60.2129 39.1823 59.9562 39.4867 59.5895 39.714C59.2302 39.9413 58.7755 40.055 58.2255 40.055ZM62.5486 40.066C62.4606 40.066 62.369 40.0587 62.2736 40.044C62.1856 40.0293 62.0903 40.011 61.9876 39.989L62.0426 39.318C62.094 39.3253 62.1416 39.3363 62.1856 39.351C62.237 39.3583 62.281 39.362 62.3176 39.362C62.5523 39.362 62.7393 39.274 62.8786 39.098C63.0253 38.922 63.1353 38.6873 63.2086 38.394C63.282 38.1007 63.3333 37.7707 63.3626 37.404C63.392 37.03 63.4176 36.656 63.4396 36.282L63.5386 34.225H67.7736V40H66.9926V34.676L67.1906 34.907H64.0446L64.2316 34.665L64.1436 36.337C64.1216 36.8357 64.0813 37.3123 64.0226 37.767C63.9713 38.2217 63.887 38.6213 63.7696 38.966C63.6596 39.3107 63.5056 39.582 63.3076 39.78C63.1096 39.9707 62.8566 40.066 62.5486 40.066ZM69.9938 40V34.225H70.7748V38.812L74.6358 34.225H75.3288V40H74.5478V35.402L70.6978 40H69.9938ZM81.249 40V32.63L81.601 33.004H79.434V32.3H82.041V40H81.249Z" fill="black"/>
<path d="M309.531 172.055C308.959 172.055 308.446 171.93 307.991 171.681C307.544 171.424 307.192 171.076 306.935 170.636C306.678 170.189 306.55 169.679 306.55 169.107C306.55 168.528 306.678 168.018 306.935 167.578C307.192 167.138 307.544 166.793 307.991 166.544C308.446 166.295 308.959 166.17 309.531 166.17C310.022 166.17 310.466 166.265 310.862 166.456C311.258 166.647 311.57 166.933 311.797 167.314L311.214 167.71C311.016 167.417 310.77 167.2 310.477 167.061C310.184 166.922 309.865 166.852 309.52 166.852C309.109 166.852 308.739 166.947 308.409 167.138C308.079 167.321 307.819 167.582 307.628 167.919C307.437 168.256 307.342 168.652 307.342 169.107C307.342 169.562 307.437 169.958 307.628 170.295C307.819 170.632 308.079 170.896 308.409 171.087C308.739 171.27 309.109 171.362 309.52 171.362C309.865 171.362 310.184 171.292 310.477 171.153C310.77 171.014 311.016 170.801 311.214 170.515L311.797 170.911C311.57 171.285 311.258 171.571 310.862 171.769C310.466 171.96 310.022 172.055 309.531 172.055ZM313.309 172V166.225H314.09V170.812L317.951 166.225H318.644V172H317.863V167.402L314.013 172H313.309ZM320.882 172V166.225H321.674L324.292 170.658H323.962L326.624 166.225H327.35V172H326.635V167.116L326.778 167.182L324.292 171.296H323.94L321.432 167.138L321.597 167.105V172H320.882ZM329.573 172V166.225H330.365L332.983 170.658H332.653L335.315 166.225H336.041V172H335.326V167.116L335.469 167.182L332.983 171.296H332.631L330.123 167.138L330.288 167.105V172H329.573ZM340.738 172.055C340.137 172.055 339.609 171.93 339.154 171.681C338.7 171.424 338.344 171.076 338.087 170.636C337.831 170.189 337.702 169.679 337.702 169.107C337.702 168.535 337.823 168.029 338.065 167.589C338.315 167.149 338.652 166.804 339.077 166.555C339.51 166.298 339.994 166.17 340.529 166.17C341.072 166.17 341.552 166.295 341.97 166.544C342.396 166.786 342.729 167.131 342.971 167.578C343.213 168.018 343.334 168.528 343.334 169.107C343.334 169.144 343.331 169.184 343.323 169.228C343.323 169.265 343.323 169.305 343.323 169.349H338.296V168.766H342.905L342.597 168.997C342.597 168.579 342.506 168.209 342.322 167.886C342.146 167.556 341.904 167.299 341.596 167.116C341.288 166.933 340.933 166.841 340.529 166.841C340.133 166.841 339.778 166.933 339.462 167.116C339.147 167.299 338.901 167.556 338.725 167.886C338.549 168.216 338.461 168.594 338.461 169.019V169.14C338.461 169.58 338.557 169.969 338.747 170.306C338.945 170.636 339.217 170.896 339.561 171.087C339.913 171.27 340.313 171.362 340.76 171.362C341.112 171.362 341.439 171.3 341.739 171.175C342.047 171.05 342.311 170.86 342.531 170.603L342.971 171.109C342.715 171.417 342.392 171.652 342.003 171.813C341.622 171.974 341.2 172.055 340.738 172.055ZM345.905 172V166.698L346.103 166.907H343.716V166.225H348.875V166.907H346.488L346.686 166.698V172H345.905ZM352.986 172.055C352.487 172.055 352.036 171.941 351.633 171.714C351.229 171.479 350.907 171.146 350.665 170.713C350.43 170.273 350.313 169.738 350.313 169.107C350.313 168.476 350.43 167.945 350.665 167.512C350.899 167.072 351.218 166.738 351.622 166.511C352.025 166.284 352.48 166.17 352.986 166.17C353.536 166.17 354.027 166.295 354.46 166.544C354.9 166.786 355.244 167.131 355.494 167.578C355.743 168.018 355.868 168.528 355.868 169.107C355.868 169.694 355.743 170.207 355.494 170.647C355.244 171.087 354.9 171.432 354.46 171.681C354.027 171.93 353.536 172.055 352.986 172.055ZM350.005 174.134V166.225H350.753V167.963L350.676 169.118L350.786 170.284V174.134H350.005ZM352.931 171.362C353.341 171.362 353.708 171.27 354.031 171.087C354.353 170.896 354.61 170.632 354.801 170.295C354.991 169.95 355.087 169.554 355.087 169.107C355.087 168.66 354.991 168.267 354.801 167.93C354.61 167.593 354.353 167.329 354.031 167.138C353.708 166.947 353.341 166.852 352.931 166.852C352.52 166.852 352.15 166.947 351.82 167.138C351.497 167.329 351.24 167.593 351.05 167.93C350.866 168.267 350.775 168.66 350.775 169.107C350.775 169.554 350.866 169.95 351.05 170.295C351.24 170.632 351.497 170.896 351.82 171.087C352.15 171.27 352.52 171.362 352.931 171.362ZM357.546 172V166.225H358.327V170.812L362.188 166.225H362.881V172H362.1V167.402L358.25 172H357.546ZM368.848 172V169.921L368.991 170.086H367.033C366.292 170.086 365.713 169.925 365.295 169.602C364.877 169.279 364.668 168.81 364.668 168.194C364.668 167.534 364.891 167.043 365.339 166.72C365.786 166.39 366.384 166.225 367.132 166.225H369.563V172H368.848ZM364.624 172L366.208 169.778H367.022L365.471 172H364.624ZM368.848 169.69V166.676L368.991 166.907H367.154C366.618 166.907 366.2 167.01 365.9 167.215C365.606 167.42 365.46 167.754 365.46 168.216C365.46 169.074 366.006 169.503 367.099 169.503H368.991L368.848 169.69ZM377.045 172.055C376.487 172.055 375.985 171.93 375.538 171.681C375.098 171.424 374.749 171.076 374.493 170.636C374.236 170.189 374.108 169.679 374.108 169.107C374.108 168.528 374.236 168.018 374.493 167.578C374.749 167.138 375.098 166.793 375.538 166.544C375.978 166.295 376.48 166.17 377.045 166.17C377.617 166.17 378.123 166.295 378.563 166.544C379.01 166.793 379.358 167.138 379.608 167.578C379.864 168.018 379.993 168.528 379.993 169.107C379.993 169.679 379.864 170.189 379.608 170.636C379.358 171.076 379.01 171.424 378.563 171.681C378.115 171.93 377.609 172.055 377.045 172.055ZM377.045 171.362C377.463 171.362 377.833 171.27 378.156 171.087C378.478 170.896 378.731 170.632 378.915 170.295C379.105 169.95 379.201 169.554 379.201 169.107C379.201 168.652 379.105 168.256 378.915 167.919C378.731 167.582 378.478 167.321 378.156 167.138C377.833 166.947 377.466 166.852 377.056 166.852C376.645 166.852 376.278 166.947 375.956 167.138C375.633 167.321 375.376 167.582 375.186 167.919C374.995 168.256 374.9 168.652 374.9 169.107C374.9 169.554 374.995 169.95 375.186 170.295C375.376 170.632 375.633 170.896 375.956 171.087C376.278 171.27 376.641 171.362 377.045 171.362ZM382.547 172V166.698L382.745 166.907H380.358V166.225H385.517V166.907H383.13L383.328 166.698V172H382.547ZM386.646 172V166.225H387.427V168.777H391.068V166.225H391.849V172H391.068V169.448H387.427V172H386.646ZM396.445 172.055C395.888 172.055 395.385 171.93 394.938 171.681C394.498 171.424 394.15 171.076 393.893 170.636C393.636 170.189 393.508 169.679 393.508 169.107C393.508 168.528 393.636 168.018 393.893 167.578C394.15 167.138 394.498 166.793 394.938 166.544C395.378 166.295 395.88 166.17 396.445 166.17C397.017 166.17 397.523 166.295 397.963 166.544C398.41 166.793 398.759 167.138 399.008 167.578C399.265 168.018 399.393 168.528 399.393 169.107C399.393 169.679 399.265 170.189 399.008 170.636C398.759 171.076 398.41 171.424 397.963 171.681C397.516 171.93 397.01 172.055 396.445 172.055ZM396.445 171.362C396.863 171.362 397.233 171.27 397.556 171.087C397.879 170.896 398.132 170.632 398.315 170.295C398.506 169.95 398.601 169.554 398.601 169.107C398.601 168.652 398.506 168.256 398.315 167.919C398.132 167.582 397.879 167.321 397.556 167.138C397.233 166.947 396.867 166.852 396.456 166.852C396.045 166.852 395.679 166.947 395.356 167.138C395.033 167.321 394.777 167.582 394.586 167.919C394.395 168.256 394.3 168.652 394.3 169.107C394.3 169.554 394.395 169.95 394.586 170.295C394.777 170.632 395.033 170.896 395.356 171.087C395.679 171.27 396.042 171.362 396.445 171.362ZM403.482 172.055C402.91 172.055 402.397 171.93 401.942 171.681C401.495 171.424 401.143 171.076 400.886 170.636C400.63 170.189 400.501 169.679 400.501 169.107C400.501 168.528 400.63 168.018 400.886 167.578C401.143 167.138 401.495 166.793 401.942 166.544C402.397 166.295 402.91 166.17 403.482 166.17C403.974 166.17 404.417 166.265 404.813 166.456C405.209 166.647 405.521 166.933 405.748 167.314L405.165 167.71C404.967 167.417 404.722 167.2 404.428 167.061C404.135 166.922 403.816 166.852 403.471 166.852C403.061 166.852 402.69 166.947 402.36 167.138C402.03 167.321 401.77 167.582 401.579 167.919C401.389 168.256 401.293 168.652 401.293 169.107C401.293 169.562 401.389 169.958 401.579 170.295C401.77 170.632 402.03 170.896 402.36 171.087C402.69 171.27 403.061 171.362 403.471 171.362C403.816 171.362 404.135 171.292 404.428 171.153C404.722 171.014 404.967 170.801 405.165 170.515L405.748 170.911C405.521 171.285 405.209 171.571 404.813 171.769C404.417 171.96 403.974 172.055 403.482 172.055ZM407.26 172V166.225H408.041V170.812L411.902 166.225H412.595V172H411.814V167.402L407.964 172H407.26ZM415.934 172V166.698L416.132 166.907H413.745V166.225H418.904V166.907H416.517L416.715 166.698V172H415.934ZM422.239 172.055C421.638 172.055 421.11 171.93 420.655 171.681C420.201 171.424 419.845 171.076 419.588 170.636C419.332 170.189 419.203 169.679 419.203 169.107C419.203 168.535 419.324 168.029 419.566 167.589C419.816 167.149 420.153 166.804 420.578 166.555C421.011 166.298 421.495 166.17 422.03 166.17C422.573 166.17 423.053 166.295 423.471 166.544C423.897 166.786 424.23 167.131 424.472 167.578C424.714 168.018 424.835 168.528 424.835 169.107C424.835 169.144 424.832 169.184 424.824 169.228C424.824 169.265 424.824 169.305 424.824 169.349H419.797V168.766H424.406L424.098 168.997C424.098 168.579 424.007 168.209 423.823 167.886C423.647 167.556 423.405 167.299 423.097 167.116C422.789 166.933 422.434 166.841 422.03 166.841C421.634 166.841 421.279 166.933 420.963 167.116C420.648 167.299 420.402 167.556 420.226 167.886C420.05 168.216 419.962 168.594 419.962 169.019V169.14C419.962 169.58 420.058 169.969 420.248 170.306C420.446 170.636 420.718 170.896 421.062 171.087C421.414 171.27 421.814 171.362 422.261 171.362C422.613 171.362 422.94 171.3 423.24 171.175C423.548 171.05 423.812 170.86 424.032 170.603L424.472 171.109C424.216 171.417 423.893 171.652 423.504 171.813C423.123 171.974 422.701 172.055 422.239 172.055ZM425.951 172.066C425.863 172.066 425.771 172.059 425.676 172.044C425.588 172.029 425.493 172.011 425.39 171.989L425.445 171.318C425.496 171.325 425.544 171.336 425.588 171.351C425.639 171.358 425.683 171.362 425.72 171.362C425.955 171.362 426.142 171.274 426.281 171.098C426.428 170.922 426.538 170.687 426.611 170.394C426.684 170.101 426.736 169.771 426.765 169.404C426.794 169.03 426.82 168.656 426.842 168.282L426.941 166.225H431.176V172H430.395V166.676L430.593 166.907H427.447L427.634 166.665L427.546 168.337C427.524 168.836 427.484 169.312 427.425 169.767C427.374 170.222 427.289 170.621 427.172 170.966C427.062 171.311 426.908 171.582 426.71 171.78C426.512 171.971 426.259 172.066 425.951 172.066ZM435.728 172.011L433.396 172V166.225H434.177V168.238L435.882 168.26C436.608 168.267 437.158 168.429 437.532 168.744C437.913 169.059 438.104 169.514 438.104 170.108C438.104 170.724 437.899 171.197 437.488 171.527C437.085 171.857 436.498 172.018 435.728 172.011ZM435.684 171.417C436.219 171.424 436.623 171.318 436.894 171.098C437.173 170.871 437.312 170.541 437.312 170.108C437.312 169.675 437.176 169.36 436.905 169.162C436.634 168.957 436.227 168.85 435.684 168.843L434.177 168.821V171.395L435.684 171.417ZM439.594 172V166.225H440.375V168.777H444.016V166.225H444.797V172H444.016V169.448H440.375V172H439.594ZM449.393 172.055C448.836 172.055 448.334 171.93 447.886 171.681C447.446 171.424 447.098 171.076 446.841 170.636C446.585 170.189 446.456 169.679 446.456 169.107C446.456 168.528 446.585 168.018 446.841 167.578C447.098 167.138 447.446 166.793 447.886 166.544C448.326 166.295 448.829 166.17 449.393 166.17C449.965 166.17 450.471 166.295 450.911 166.544C451.359 166.793 451.707 167.138 451.956 167.578C452.213 168.018 452.341 168.528 452.341 169.107C452.341 169.679 452.213 170.189 451.956 170.636C451.707 171.076 451.359 171.424 450.911 171.681C450.464 171.93 449.958 172.055 449.393 172.055ZM449.393 171.362C449.811 171.362 450.182 171.27 450.504 171.087C450.827 170.896 451.08 170.632 451.263 170.295C451.454 169.95 451.549 169.554 451.549 169.107C451.549 168.652 451.454 168.256 451.263 167.919C451.08 167.582 450.827 167.321 450.504 167.138C450.182 166.947 449.815 166.852 449.404 166.852C448.994 166.852 448.627 166.947 448.304 167.138C447.982 167.321 447.725 167.582 447.534 167.919C447.344 168.256 447.248 168.652 447.248 169.107C447.248 169.554 447.344 169.95 447.534 170.295C447.725 170.632 447.982 170.896 448.304 171.087C448.627 171.27 448.99 171.362 449.393 171.362ZM307.111 183V177.225H307.892V182.318H311.423V177.225H312.204V183H307.111ZM312.402 184.397V182.934L312.6 183H311.423V182.318H313.139V184.397H312.402ZM317.106 183.055C316.504 183.055 315.976 182.93 315.522 182.681C315.067 182.424 314.711 182.076 314.455 181.636C314.198 181.189 314.07 180.679 314.07 180.107C314.07 179.535 314.191 179.029 314.433 178.589C314.682 178.149 315.019 177.804 315.445 177.555C315.877 177.298 316.361 177.17 316.897 177.17C317.439 177.17 317.92 177.295 318.338 177.544C318.763 177.786 319.097 178.131 319.339 178.578C319.581 179.018 319.702 179.528 319.702 180.107C319.702 180.144 319.698 180.184 319.691 180.228C319.691 180.265 319.691 180.305 319.691 180.349H314.664V179.766H319.273L318.965 179.997C318.965 179.579 318.873 179.209 318.69 178.886C318.514 178.556 318.272 178.299 317.964 178.116C317.656 177.933 317.3 177.841 316.897 177.841C316.501 177.841 316.145 177.933 315.83 178.116C315.514 178.299 315.269 178.556 315.093 178.886C314.917 179.216 314.829 179.594 314.829 180.019V180.14C314.829 180.58 314.924 180.969 315.115 181.306C315.313 181.636 315.584 181.896 315.929 182.087C316.281 182.27 316.68 182.362 317.128 182.362C317.48 182.362 317.806 182.3 318.107 182.175C318.415 182.05 318.679 181.86 318.899 181.603L319.339 182.109C319.082 182.417 318.759 182.652 318.371 182.813C317.989 182.974 317.568 183.055 317.106 183.055ZM321.43 183V177.225H322.211V179.777H325.852V177.225H326.633V183H325.852V180.448H322.211V183H321.43ZM329.953 183V177.698L330.151 177.907H327.764V177.225H332.923V177.907H330.536L330.734 177.698V183H329.953ZM337.033 183.055C336.535 183.055 336.084 182.941 335.68 182.714C335.277 182.479 334.954 182.146 334.712 181.713C334.478 181.273 334.36 180.738 334.36 180.107C334.36 179.476 334.478 178.945 334.712 178.512C334.947 178.072 335.266 177.738 335.669 177.511C336.073 177.284 336.527 177.17 337.033 177.17C337.583 177.17 338.075 177.295 338.507 177.544C338.947 177.786 339.292 178.131 339.541 178.578C339.791 179.018 339.915 179.528 339.915 180.107C339.915 180.694 339.791 181.207 339.541 181.647C339.292 182.087 338.947 182.432 338.507 182.681C338.075 182.93 337.583 183.055 337.033 183.055ZM334.052 185.134V177.225H334.8V178.963L334.723 180.118L334.833 181.284V185.134H334.052ZM336.978 182.362C337.389 182.362 337.756 182.27 338.078 182.087C338.401 181.896 338.658 181.632 338.848 181.295C339.039 180.95 339.134 180.554 339.134 180.107C339.134 179.66 339.039 179.267 338.848 178.93C338.658 178.593 338.401 178.329 338.078 178.138C337.756 177.947 337.389 177.852 336.978 177.852C336.568 177.852 336.197 177.947 335.867 178.138C335.545 178.329 335.288 178.593 335.097 178.93C334.914 179.267 334.822 179.66 334.822 180.107C334.822 180.554 334.914 180.95 335.097 181.295C335.288 181.632 335.545 181.896 335.867 182.087C336.197 182.27 336.568 182.362 336.978 182.362ZM345.147 183V181.724L345.114 181.515V179.381C345.114 178.89 344.975 178.512 344.696 178.248C344.425 177.984 344.018 177.852 343.475 177.852C343.101 177.852 342.746 177.914 342.408 178.039C342.071 178.164 341.785 178.329 341.55 178.534L341.198 177.951C341.492 177.702 341.844 177.511 342.254 177.379C342.665 177.24 343.098 177.17 343.552 177.17C344.3 177.17 344.876 177.357 345.279 177.731C345.69 178.098 345.895 178.659 345.895 179.414V183H345.147ZM343.156 183.055C342.724 183.055 342.346 182.985 342.023 182.846C341.708 182.699 341.466 182.501 341.297 182.252C341.129 181.995 341.044 181.702 341.044 181.372C341.044 181.071 341.114 180.8 341.253 180.558C341.4 180.309 341.635 180.111 341.957 179.964C342.287 179.81 342.727 179.733 343.277 179.733H345.268V180.316H343.299C342.742 180.316 342.353 180.415 342.133 180.613C341.921 180.811 341.814 181.057 341.814 181.35C341.814 181.68 341.943 181.944 342.199 182.142C342.456 182.34 342.815 182.439 343.277 182.439C343.717 182.439 344.095 182.34 344.41 182.142C344.733 181.937 344.968 181.643 345.114 181.262L345.29 181.801C345.144 182.182 344.887 182.487 344.52 182.714C344.161 182.941 343.706 183.055 343.156 183.055ZM347.479 183.066C347.391 183.066 347.3 183.059 347.204 183.044C347.116 183.029 347.021 183.011 346.918 182.989L346.973 182.318C347.025 182.325 347.072 182.336 347.116 182.351C347.168 182.358 347.212 182.362 347.248 182.362C347.483 182.362 347.67 182.274 347.809 182.098C347.956 181.922 348.066 181.687 348.139 181.394C348.213 181.101 348.264 180.771 348.293 180.404C348.323 180.03 348.348 179.656 348.37 179.282L348.469 177.225H352.704V183H351.923V177.676L352.121 177.907H348.975L349.162 177.665L349.074 179.337C349.052 179.836 349.012 180.312 348.953 180.767C348.902 181.222 348.818 181.621 348.7 181.966C348.59 182.311 348.436 182.582 348.238 182.78C348.04 182.971 347.787 183.066 347.479 183.066ZM357.256 183.011L354.924 183V177.225H355.705V179.238L357.41 179.26C358.136 179.267 358.686 179.429 359.06 179.744C359.442 180.059 359.632 180.514 359.632 181.108C359.632 181.724 359.427 182.197 359.016 182.527C358.613 182.857 358.026 183.018 357.256 183.011ZM357.212 182.417C357.748 182.424 358.151 182.318 358.422 182.098C358.701 181.871 358.84 181.541 358.84 181.108C358.84 180.675 358.705 180.36 358.433 180.162C358.162 179.957 357.755 179.85 357.212 179.843L355.705 179.821V182.395L357.212 182.417ZM361.123 183V177.225H361.904V179.777H365.545V177.225H366.326V183H365.545V180.448H361.904V183H361.123ZM370.922 183.055C370.364 183.055 369.862 182.93 369.415 182.681C368.975 182.424 368.626 182.076 368.37 181.636C368.113 181.189 367.985 180.679 367.985 180.107C367.985 179.528 368.113 179.018 368.37 178.578C368.626 178.138 368.975 177.793 369.415 177.544C369.855 177.295 370.357 177.17 370.922 177.17C371.494 177.17 372 177.295 372.44 177.544C372.887 177.793 373.235 178.138 373.485 178.578C373.741 179.018 373.87 179.528 373.87 180.107C373.87 180.679 373.741 181.189 373.485 181.636C373.235 182.076 372.887 182.424 372.44 182.681C371.992 182.93 371.486 183.055 370.922 183.055ZM370.922 182.362C371.34 182.362 371.71 182.27 372.033 182.087C372.355 181.896 372.608 181.632 372.792 181.295C372.982 180.95 373.078 180.554 373.078 180.107C373.078 179.652 372.982 179.256 372.792 178.919C372.608 178.582 372.355 178.321 372.033 178.138C371.71 177.947 371.343 177.852 370.933 177.852C370.522 177.852 370.155 177.947 369.833 178.138C369.51 178.321 369.253 178.582 369.063 178.919C368.872 179.256 368.777 179.652 368.777 180.107C368.777 180.554 368.872 180.95 369.063 181.295C369.253 181.632 369.51 181.896 369.833 182.087C370.155 182.27 370.518 182.362 370.922 182.362ZM375.539 183V177.225H376.32V181.812L380.181 177.225H380.874V183H380.093V178.402L376.243 183H375.539ZM378.157 176.389C377.673 176.389 377.28 176.268 376.98 176.026C376.686 175.777 376.532 175.421 376.518 174.959H377.079C377.086 175.252 377.189 175.483 377.387 175.652C377.585 175.821 377.841 175.905 378.157 175.905C378.472 175.905 378.729 175.821 378.927 175.652C379.132 175.483 379.238 175.252 379.246 174.959H379.807C379.799 175.421 379.645 175.777 379.345 176.026C379.044 176.268 378.648 176.389 378.157 176.389ZM386.002 182.461L385.221 182.318C385.448 182.325 385.635 182.245 385.782 182.076C385.929 181.9 386.042 181.662 386.123 181.361C386.204 181.06 386.262 180.719 386.299 180.338C386.336 179.949 386.365 179.553 386.387 179.15L386.464 177.225H390.732V182.626H389.951V177.907H387.168L387.102 179.194C387.087 179.583 387.062 179.964 387.025 180.338C386.996 180.712 386.941 181.057 386.86 181.372C386.787 181.68 386.68 181.933 386.541 182.131C386.402 182.322 386.222 182.432 386.002 182.461ZM384.979 184.397V182.318H391.634V184.397H390.897V183H385.716V184.397H384.979ZM393.156 183V177.225H393.937V181.812L397.798 177.225H398.491V183H397.71V178.402L393.86 183H393.156ZM404.315 183V181.724L404.282 181.515V179.381C404.282 178.89 404.143 178.512 403.864 178.248C403.593 177.984 403.186 177.852 402.643 177.852C402.269 177.852 401.913 177.914 401.576 178.039C401.239 178.164 400.953 178.329 400.718 178.534L400.366 177.951C400.659 177.702 401.011 177.511 401.422 177.379C401.833 177.24 402.265 177.17 402.72 177.17C403.468 177.17 404.044 177.357 404.447 177.731C404.858 178.098 405.063 178.659 405.063 179.414V183H404.315ZM402.324 183.055C401.891 183.055 401.514 182.985 401.191 182.846C400.876 182.699 400.634 182.501 400.465 182.252C400.296 181.995 400.212 181.702 400.212 181.372C400.212 181.071 400.282 180.8 400.421 180.558C400.568 180.309 400.802 180.111 401.125 179.964C401.455 179.81 401.895 179.733 402.445 179.733H404.436V180.316H402.467C401.91 180.316 401.521 180.415 401.301 180.613C401.088 180.811 400.982 181.057 400.982 181.35C400.982 181.68 401.11 181.944 401.367 182.142C401.624 182.34 401.983 182.439 402.445 182.439C402.885 182.439 403.263 182.34 403.578 182.142C403.901 181.937 404.135 181.643 404.282 181.262L404.458 181.801C404.311 182.182 404.055 182.487 403.688 182.714C403.329 182.941 402.874 183.055 402.324 183.055ZM407.142 183V177.225H411.234V177.907H407.725L407.923 177.709V183H407.142ZM414.47 183.055C413.913 183.055 413.411 182.93 412.963 182.681C412.523 182.424 412.175 182.076 411.918 181.636C411.662 181.189 411.533 180.679 411.533 180.107C411.533 179.528 411.662 179.018 411.918 178.578C412.175 178.138 412.523 177.793 412.963 177.544C413.403 177.295 413.906 177.17 414.47 177.17C415.042 177.17 415.548 177.295 415.988 177.544C416.436 177.793 416.784 178.138 417.033 178.578C417.29 179.018 417.418 179.528 417.418 180.107C417.418 180.679 417.29 181.189 417.033 181.636C416.784 182.076 416.436 182.424 415.988 182.681C415.541 182.93 415.035 183.055 414.47 183.055ZM414.47 182.362C414.888 182.362 415.259 182.27 415.581 182.087C415.904 181.896 416.157 181.632 416.34 181.295C416.531 180.95 416.626 180.554 416.626 180.107C416.626 179.652 416.531 179.256 416.34 178.919C416.157 178.582 415.904 178.321 415.581 178.138C415.259 177.947 414.892 177.852 414.481 177.852C414.071 177.852 413.704 177.947 413.381 178.138C413.059 178.321 412.802 178.582 412.611 178.919C412.421 179.256 412.325 179.652 412.325 180.107C412.325 180.554 412.421 180.95 412.611 181.295C412.802 181.632 413.059 181.896 413.381 182.087C413.704 182.27 414.067 182.362 414.47 182.362ZM419.088 183V177.225H419.869V179.777H423.51V177.225H424.291V183H423.51V180.448H419.869V183H419.088ZM430.096 183V181.724L430.063 181.515V179.381C430.063 178.89 429.924 178.512 429.645 178.248C429.374 177.984 428.967 177.852 428.424 177.852C428.05 177.852 427.695 177.914 427.357 178.039C427.02 178.164 426.734 178.329 426.499 178.534L426.147 177.951C426.441 177.702 426.793 177.511 427.203 177.379C427.614 177.24 428.047 177.17 428.501 177.17C429.249 177.17 429.825 177.357 430.228 177.731C430.639 178.098 430.844 178.659 430.844 179.414V183H430.096ZM428.105 183.055C427.673 183.055 427.295 182.985 426.972 182.846C426.657 182.699 426.415 182.501 426.246 182.252C426.078 181.995 425.993 181.702 425.993 181.372C425.993 181.071 426.063 180.8 426.202 180.558C426.349 180.309 426.584 180.111 426.906 179.964C427.236 179.81 427.676 179.733 428.226 179.733H430.217V180.316H428.248C427.691 180.316 427.302 180.415 427.082 180.613C426.87 180.811 426.763 181.057 426.763 181.35C426.763 181.68 426.892 181.944 427.148 182.142C427.405 182.34 427.764 182.439 428.226 182.439C428.666 182.439 429.044 182.34 429.359 182.142C429.682 181.937 429.917 181.643 430.063 181.262L430.239 181.801C430.093 182.182 429.836 182.487 429.469 182.714C429.11 182.941 428.655 183.055 428.105 183.055ZM432.429 183.066C432.341 183.066 432.249 183.059 432.154 183.044C432.066 183.029 431.97 183.011 431.868 182.989L431.923 182.318C431.974 182.325 432.022 182.336 432.066 182.351C432.117 182.358 432.161 182.362 432.198 182.362C432.432 182.362 432.619 182.274 432.759 182.098C432.905 181.922 433.015 181.687 433.089 181.394C433.162 181.101 433.213 180.771 433.243 180.404C433.272 180.03 433.298 179.656 433.32 179.282L433.419 177.225H437.654V183H436.873V177.676L437.071 177.907H433.925L434.112 177.665L434.024 179.337C434.002 179.836 433.961 180.312 433.903 180.767C433.851 181.222 433.767 181.621 433.65 181.966C433.54 182.311 433.386 182.582 433.188 182.78C432.99 182.971 432.737 183.066 432.429 183.066ZM439.874 183V177.225H440.655V181.812L444.516 177.225H445.209V183H444.428V178.402L440.578 183H439.874Z" fill="black"/>
</svg>
