<svg width="232" height="279" viewBox="0 0 232 279" fill="none" xmlns="http://www.w3.org/2000/svg">
<rect width="232" height="279" fill="white"/>
<path d="M117 94C128.446 105.717 135 122.326 135 140C135 157.674 127.446 173.283 116 185C104.554 173.283 98 157.674 98 140C98 122.326 105.554 105.717 117 94Z" fill="#DCFF00"/>
<path d="M69.3855 268V264.749H70.8624C71.2154 264.749 71.5266 264.817 71.796 264.953C72.0653 265.086 72.2759 265.274 72.4276 265.515C72.5793 265.757 72.6552 266.043 72.6552 266.374C72.6552 266.703 72.5793 266.989 72.4276 267.234C72.2759 267.475 72.0653 267.664 71.796 267.8C71.5266 267.933 71.2154 268 70.8624 268H69.3855ZM70.1379 267.382H70.8253C71.042 267.382 71.2293 267.342 71.3872 267.262C71.5483 267.178 71.6721 267.06 71.7588 266.909C71.8486 266.757 71.8935 266.579 71.8935 266.374C71.8935 266.167 71.8486 265.989 71.7588 265.84C71.6721 265.689 71.5483 265.573 71.3872 265.492C71.2293 265.408 71.042 265.367 70.8253 265.367H70.1379V267.382ZM74.7042 268V267.512L74.6577 267.406V266.532C74.6577 266.378 74.6097 266.257 74.5138 266.17C74.4209 266.083 74.2769 266.04 74.0818 266.04C73.9487 266.04 73.8171 266.062 73.687 266.105C73.5601 266.145 73.4517 266.201 73.3619 266.272L73.1018 265.766C73.2381 265.67 73.4022 265.596 73.5942 265.543C73.7861 265.49 73.9812 265.464 74.1794 265.464C74.5602 265.464 74.8559 265.554 75.0664 265.734C75.277 265.913 75.3823 266.193 75.3823 266.574V268H74.7042ZM73.9425 268.037C73.7474 268.037 73.5802 268.005 73.4409 267.94C73.3016 267.872 73.1947 267.78 73.1204 267.666C73.0461 267.551 73.009 267.423 73.009 267.28C73.009 267.131 73.0446 267.001 73.1158 266.89C73.1901 266.779 73.3062 266.692 73.4641 266.63C73.622 266.565 73.8279 266.532 74.0818 266.532H74.746V266.955H74.1608C73.9905 266.955 73.8728 266.983 73.8078 267.039C73.7459 267.094 73.7149 267.164 73.7149 267.248C73.7149 267.34 73.7505 267.415 73.8217 267.471C73.896 267.523 73.9967 267.549 74.1236 267.549C74.2444 267.549 74.3527 267.522 74.4487 267.466C74.5447 267.407 74.6144 267.322 74.6577 267.21L74.7692 267.545C74.7166 267.706 74.6206 267.828 74.4812 267.912C74.3419 267.995 74.1623 268.037 73.9425 268.037ZM77.0598 268.037C76.7656 268.037 76.5365 267.963 76.3724 267.814C76.2083 267.663 76.1262 267.438 76.1262 267.141V264.949H76.8508V267.131C76.8508 267.237 76.8786 267.319 76.9344 267.378C76.9901 267.433 77.066 267.461 77.162 267.461C77.2765 267.461 77.3741 267.43 77.4546 267.368L77.6496 267.879C77.5753 267.932 77.4855 267.972 77.3802 268C77.2781 268.025 77.1712 268.037 77.0598 268.037ZM75.7408 266.114V265.557H77.4731V266.114H75.7408ZM79.589 268V267.512L79.5426 267.406V266.532C79.5426 266.378 79.4946 266.257 79.3986 266.17C79.3057 266.083 79.1617 266.04 78.9667 266.04C78.8335 266.04 78.7019 266.062 78.5719 266.105C78.4449 266.145 78.3366 266.201 78.2468 266.272L77.9867 265.766C78.1229 265.67 78.287 265.596 78.479 265.543C78.671 265.49 78.866 265.464 79.0642 265.464C79.445 265.464 79.7407 265.554 79.9513 265.734C80.1618 265.913 80.2671 266.193 80.2671 266.574V268H79.589ZM78.8273 268.037C78.6323 268.037 78.4651 268.005 78.3257 267.94C78.1864 267.872 78.0796 267.78 78.0053 267.666C77.9309 267.551 77.8938 267.423 77.8938 267.28C77.8938 267.131 77.9294 267.001 78.0006 266.89C78.0749 266.779 78.191 266.692 78.3489 266.63C78.5069 266.565 78.7128 266.532 78.9667 266.532H79.6308V266.955H79.0456C78.8753 266.955 78.7577 266.983 78.6926 267.039C78.6307 267.094 78.5997 267.164 78.5997 267.248C78.5997 267.34 78.6353 267.415 78.7066 267.471C78.7809 267.523 78.8815 267.549 79.0085 267.549C79.1292 267.549 79.2376 267.522 79.3336 267.466C79.4295 267.407 79.4992 267.322 79.5426 267.21L79.654 267.545C79.6014 267.706 79.5054 267.828 79.3661 267.912C79.2267 267.995 79.0472 268.037 78.8273 268.037ZM83.8451 268.056C83.5943 268.056 83.3606 268.015 83.1438 267.935C82.9302 267.851 82.7444 267.734 82.5865 267.582C82.4286 267.43 82.3047 267.252 82.2149 267.048C82.1282 266.844 82.0849 266.619 82.0849 266.374C82.0849 266.13 82.1282 265.905 82.2149 265.701C82.3047 265.497 82.4286 265.319 82.5865 265.167C82.7475 265.015 82.9348 264.899 83.1485 264.819C83.3621 264.735 83.5959 264.693 83.8498 264.693C84.1315 264.693 84.3854 264.743 84.6115 264.842C84.8406 264.938 85.0326 265.08 85.1874 265.269L84.7044 265.715C84.5929 265.588 84.469 265.494 84.3328 265.432C84.1966 265.367 84.0479 265.334 83.8869 265.334C83.7352 265.334 83.5959 265.359 83.4689 265.408C83.342 265.458 83.2321 265.529 83.1392 265.622C83.0463 265.715 82.9735 265.825 82.9209 265.952C82.8713 266.079 82.8466 266.22 82.8466 266.374C82.8466 266.529 82.8713 266.67 82.9209 266.797C82.9735 266.924 83.0463 267.034 83.1392 267.127C83.2321 267.22 83.342 267.291 83.4689 267.34C83.5959 267.39 83.7352 267.415 83.8869 267.415C84.0479 267.415 84.1966 267.384 84.3328 267.322C84.469 267.257 84.5929 267.159 84.7044 267.029L85.1874 267.475C85.0326 267.664 84.8406 267.808 84.6115 267.907C84.3854 268.006 84.13 268.056 83.8451 268.056ZM86.6397 268.037C86.4323 268.037 86.2465 267.997 86.0824 267.916C85.9214 267.836 85.796 267.714 85.7062 267.549C85.6164 267.382 85.5715 267.17 85.5715 266.913V265.501H86.296V266.806C86.296 267.014 86.3394 267.167 86.4261 267.266C86.5159 267.362 86.6413 267.41 86.8023 267.41C86.9137 267.41 87.0128 267.387 87.0995 267.34C87.1862 267.291 87.2543 267.217 87.3039 267.118C87.3534 267.015 87.3782 266.888 87.3782 266.737V265.501H88.1027V268H87.4153V267.313L87.5407 267.512C87.4571 267.686 87.3333 267.817 87.1692 267.907C87.0082 267.994 86.8317 268.037 86.6397 268.037ZM88.7739 268V264.554H89.4985V268H88.7739ZM91.3786 268.037C91.0845 268.037 90.8554 267.963 90.6913 267.814C90.5272 267.663 90.4451 267.438 90.4451 267.141V264.949H91.1696V267.131C91.1696 267.237 91.1975 267.319 91.2532 267.378C91.309 267.433 91.3848 267.461 91.4808 267.461C91.5954 267.461 91.6929 267.43 91.7734 267.368L91.9685 267.879C91.8942 267.932 91.8044 267.972 91.6991 268C91.5969 268.025 91.4901 268.037 91.3786 268.037ZM90.0596 266.114V265.557H91.792V266.114H90.0596ZM93.4295 268.037C93.222 268.037 93.0363 267.997 92.8722 267.916C92.7111 267.836 92.5857 267.714 92.496 267.549C92.4062 267.382 92.3613 267.17 92.3613 266.913V265.501H93.0858V266.806C93.0858 267.014 93.1291 267.167 93.2158 267.266C93.3056 267.362 93.431 267.41 93.592 267.41C93.7035 267.41 93.8026 267.387 93.8893 267.34C93.976 267.291 94.0441 267.217 94.0936 267.118C94.1432 267.015 94.168 266.888 94.168 266.737V265.501H94.8925V268H94.2051V267.313L94.3305 267.512C94.2469 267.686 94.1231 267.817 93.959 267.907C93.7979 267.994 93.6215 268.037 93.4295 268.037ZM95.5637 268V265.501H96.2557V266.207L96.1582 266.003C96.2325 265.826 96.3517 265.693 96.5158 265.603C96.6799 265.511 96.8796 265.464 97.115 265.464V266.133C97.084 266.13 97.0561 266.128 97.0314 266.128C97.0066 266.125 96.9803 266.124 96.9524 266.124C96.7542 266.124 96.5932 266.181 96.4694 266.295C96.3486 266.407 96.2883 266.582 96.2883 266.82V268H95.5637ZM98.7677 268.037C98.4828 268.037 98.232 267.981 98.0153 267.87C97.8017 267.758 97.636 267.607 97.5183 267.415C97.4007 267.22 97.3419 266.998 97.3419 266.751C97.3419 266.5 97.3991 266.278 97.5137 266.086C97.6314 265.891 97.7908 265.74 97.9921 265.631C98.1933 265.52 98.4209 265.464 98.6748 265.464C98.9194 265.464 99.1393 265.517 99.3343 265.622C99.5325 265.724 99.6888 265.873 99.8034 266.068C99.918 266.26 99.9753 266.491 99.9753 266.76C99.9753 266.788 99.9737 266.82 99.9706 266.857C99.9675 266.892 99.9644 266.924 99.9613 266.955H97.9317V266.532H99.5805L99.3018 266.658C99.3018 266.528 99.2755 266.415 99.2229 266.319C99.1702 266.223 99.0975 266.148 99.0046 266.096C98.9117 266.04 98.8033 266.012 98.6795 266.012C98.5556 266.012 98.4457 266.04 98.3497 266.096C98.2568 266.148 98.184 266.224 98.1314 266.323C98.0788 266.419 98.0525 266.534 98.0525 266.667V266.779C98.0525 266.915 98.0819 267.036 98.1407 267.141C98.2026 267.243 98.2878 267.322 98.3961 267.378C98.5076 267.43 98.6377 267.457 98.7863 267.457C98.9194 267.457 99.0355 267.436 99.1346 267.396C99.2368 267.356 99.3297 267.296 99.4133 267.215L99.7988 267.633C99.6842 267.763 99.5402 267.864 99.3668 267.935C99.1934 268.003 98.9937 268.037 98.7677 268.037ZM100.732 268.037C100.608 268.037 100.501 267.995 100.411 267.912C100.324 267.825 100.281 267.715 100.281 267.582C100.281 267.449 100.324 267.342 100.411 267.262C100.501 267.178 100.608 267.136 100.732 267.136C100.859 267.136 100.965 267.178 101.052 267.262C101.139 267.342 101.182 267.449 101.182 267.582C101.182 267.715 101.139 267.825 101.052 267.912C100.965 267.995 100.859 268.037 100.732 268.037ZM102.775 264.749H103.643L104.317 265.734L104.99 264.749H105.873L104.791 266.305L105.961 268H105.074L104.317 266.922L103.569 268H102.701L103.862 266.337L102.775 264.749ZM107.435 268.037C107.15 268.037 106.899 267.981 106.683 267.87C106.469 267.758 106.303 267.607 106.186 267.415C106.068 267.22 106.009 266.998 106.009 266.751C106.009 266.5 106.067 266.278 106.181 266.086C106.299 265.891 106.458 265.74 106.659 265.631C106.861 265.52 107.088 265.464 107.342 265.464C107.587 265.464 107.807 265.517 108.002 265.622C108.2 265.724 108.356 265.873 108.471 266.068C108.585 266.26 108.643 266.491 108.643 266.76C108.643 266.788 108.641 266.82 108.638 266.857C108.635 266.892 108.632 266.924 108.629 266.955H106.599V266.532H108.248L107.969 266.658C107.969 266.528 107.943 266.415 107.89 266.319C107.838 266.223 107.765 266.148 107.672 266.096C107.579 266.04 107.471 266.012 107.347 266.012C107.223 266.012 107.113 266.04 107.017 266.096C106.924 266.148 106.851 266.224 106.799 266.323C106.746 266.419 106.72 266.534 106.72 266.667V266.779C106.72 266.915 106.749 267.036 106.808 267.141C106.87 267.243 106.955 267.322 107.064 267.378C107.175 267.43 107.305 267.457 107.454 267.457C107.587 267.457 107.703 267.436 107.802 267.396C107.904 267.356 107.997 267.296 108.081 267.215L108.466 267.633C108.352 267.763 108.208 267.864 108.034 267.935C107.861 268.003 107.661 268.037 107.435 268.037ZM109.198 268V265.501H109.918V266.477H111.005V265.501H111.729V268H111.005V267.066H109.918V268H109.198ZM114.141 267.675V266.096H113.324L113.31 266.416C113.304 266.549 113.296 266.676 113.287 266.797C113.277 266.918 113.259 267.028 113.231 267.127C113.206 267.223 113.169 267.305 113.12 267.373C113.07 267.438 113.003 267.483 112.92 267.508L112.205 267.406C112.294 267.406 112.367 267.379 112.423 267.327C112.479 267.271 112.522 267.195 112.553 267.099C112.584 267 112.607 266.888 112.623 266.765C112.638 266.638 112.649 266.504 112.655 266.365L112.688 265.501H114.866V267.675H114.141ZM112.121 268.539V267.406H115.223V268.539H114.55V268H112.794V268.539H112.121ZM116.919 268.056C116.715 268.056 116.529 268.026 116.362 267.967C116.195 267.906 116.049 267.811 115.926 267.684C115.805 267.554 115.71 267.388 115.642 267.187C115.577 266.986 115.545 266.746 115.545 266.467C115.545 266.269 115.562 266.088 115.596 265.924C115.63 265.76 115.681 265.611 115.749 265.478C115.817 265.342 115.904 265.223 116.009 265.12C116.118 265.015 116.243 264.928 116.385 264.86C116.531 264.789 116.695 264.735 116.878 264.698L118.067 264.461L118.164 265.083L117.115 265.292C117.053 265.305 116.981 265.322 116.901 265.343C116.823 265.362 116.745 265.391 116.664 265.432C116.587 265.472 116.514 265.529 116.446 265.603C116.381 265.675 116.328 265.769 116.288 265.887C116.248 266.001 116.227 266.144 116.227 266.314C116.227 266.367 116.229 266.407 116.232 266.435C116.238 266.463 116.243 266.492 116.246 266.523C116.252 266.554 116.255 266.602 116.255 266.667L116.023 266.439C116.091 266.294 116.178 266.17 116.283 266.068C116.392 265.966 116.515 265.888 116.655 265.836C116.797 265.78 116.955 265.752 117.128 265.752C117.364 265.752 117.57 265.8 117.746 265.896C117.926 265.989 118.065 266.121 118.164 266.291C118.263 266.461 118.313 266.655 118.313 266.871C118.313 267.107 118.254 267.314 118.136 267.494C118.019 267.67 117.855 267.808 117.644 267.907C117.437 268.006 117.195 268.056 116.919 268.056ZM116.957 267.494C117.077 267.494 117.184 267.467 117.277 267.415C117.37 267.359 117.441 267.286 117.491 267.197C117.543 267.104 117.57 267 117.57 266.885C117.57 266.774 117.543 266.675 117.491 266.588C117.441 266.501 117.37 266.433 117.277 266.384C117.184 266.334 117.076 266.309 116.952 266.309C116.831 266.309 116.723 266.334 116.627 266.384C116.531 266.43 116.457 266.495 116.404 266.579C116.351 266.662 116.325 266.76 116.325 266.871C116.325 266.986 116.351 267.091 116.404 267.187C116.46 267.28 116.534 267.354 116.627 267.41C116.723 267.466 116.833 267.494 116.957 267.494ZM119.075 268.938C118.945 268.938 118.817 268.918 118.69 268.878C118.563 268.838 118.459 268.782 118.379 268.711L118.643 268.195C118.699 268.245 118.763 268.283 118.834 268.311C118.908 268.339 118.981 268.353 119.052 268.353C119.154 268.353 119.235 268.328 119.294 268.279C119.356 268.232 119.411 268.153 119.461 268.042L119.591 267.735L119.647 267.656L120.543 265.501H121.24L120.111 268.153C120.031 268.355 119.938 268.512 119.832 268.627C119.73 268.742 119.616 268.822 119.489 268.869C119.365 268.915 119.227 268.938 119.075 268.938ZM119.503 268.098L118.388 265.501H119.136L120 267.591L119.503 268.098ZM123.359 268L122.523 266.816L123.113 266.467L124.213 268H123.359ZM121.589 268V265.501H122.314V268H121.589ZM122.1 267.053V266.472H122.973V267.053H122.1ZM123.182 266.834L122.504 266.76L123.382 265.501H124.153L123.182 266.834ZM125.884 268V265.501H128.369V268H127.645V265.933L127.807 266.096H126.442L126.604 265.933V268H125.884ZM130.234 268.037C129.968 268.037 129.731 267.981 129.524 267.87C129.319 267.758 129.157 267.607 129.036 267.415C128.918 267.22 128.86 266.998 128.86 266.751C128.86 266.5 128.918 266.278 129.036 266.086C129.157 265.891 129.319 265.74 129.524 265.631C129.731 265.52 129.968 265.464 130.234 265.464C130.497 265.464 130.733 265.52 130.94 265.631C131.148 265.74 131.31 265.89 131.428 266.082C131.546 266.274 131.604 266.497 131.604 266.751C131.604 266.998 131.546 267.22 131.428 267.415C131.31 267.607 131.148 267.758 130.94 267.87C130.733 267.981 130.497 268.037 130.234 268.037ZM130.234 267.443C130.355 267.443 130.463 267.415 130.559 267.359C130.655 267.303 130.731 267.224 130.787 267.122C130.843 267.017 130.871 266.893 130.871 266.751C130.871 266.605 130.843 266.481 130.787 266.379C130.731 266.277 130.655 266.198 130.559 266.142C130.463 266.086 130.355 266.059 130.234 266.059C130.114 266.059 130.005 266.086 129.909 266.142C129.813 266.198 129.736 266.277 129.677 266.379C129.621 266.481 129.593 266.605 129.593 266.751C129.593 266.893 129.621 267.017 129.677 267.122C129.736 267.224 129.813 267.303 129.909 267.359C130.005 267.415 130.114 267.443 130.234 267.443ZM134.914 268V267.512L134.867 267.406V266.532C134.867 266.378 134.819 266.257 134.723 266.17C134.63 266.083 134.486 266.04 134.291 266.04C134.158 266.04 134.027 266.062 133.896 266.105C133.77 266.145 133.661 266.201 133.571 266.272L133.311 265.766C133.447 265.67 133.612 265.596 133.804 265.543C133.996 265.49 134.191 265.464 134.389 265.464C134.77 265.464 135.065 265.554 135.276 265.734C135.486 265.913 135.592 266.193 135.592 266.574V268H134.914ZM134.152 268.037C133.957 268.037 133.79 268.005 133.65 267.94C133.511 267.872 133.404 267.78 133.33 267.666C133.256 267.551 133.218 267.423 133.218 267.28C133.218 267.131 133.254 267.001 133.325 266.89C133.4 266.779 133.516 266.692 133.674 266.63C133.831 266.565 134.037 266.532 134.291 266.532H134.955V266.955H134.37C134.2 266.955 134.082 266.983 134.017 267.039C133.955 267.094 133.924 267.164 133.924 267.248C133.924 267.34 133.96 267.415 134.031 267.471C134.105 267.523 134.206 267.549 134.333 267.549C134.454 267.549 134.562 267.522 134.658 267.466C134.754 267.407 134.824 267.322 134.867 267.21L134.979 267.545C134.926 267.706 134.83 267.828 134.691 267.912C134.551 267.995 134.372 268.037 134.152 268.037ZM136.221 268V265.501H136.941V266.477H138.028V265.501H138.752V268H138.028V267.066H136.941V268H136.221ZM140.941 268V267.512L140.895 267.406V266.532C140.895 266.378 140.847 266.257 140.751 266.17C140.658 266.083 140.514 266.04 140.319 266.04C140.186 266.04 140.054 266.062 139.924 266.105C139.797 266.145 139.689 266.201 139.599 266.272L139.339 265.766C139.475 265.67 139.639 265.596 139.831 265.543C140.023 265.49 140.218 265.464 140.417 265.464C140.797 265.464 141.093 265.554 141.304 265.734C141.514 265.913 141.619 266.193 141.619 266.574V268H140.941ZM140.18 268.037C139.985 268.037 139.817 268.005 139.678 267.94C139.539 267.872 139.432 267.78 139.358 267.666C139.283 267.551 139.246 267.423 139.246 267.28C139.246 267.131 139.282 267.001 139.353 266.89C139.427 266.779 139.543 266.692 139.701 266.63C139.859 266.565 140.065 266.532 140.319 266.532H140.983V266.955H140.398C140.228 266.955 140.11 266.983 140.045 267.039C139.983 267.094 139.952 267.164 139.952 267.248C139.952 267.34 139.988 267.415 140.059 267.471C140.133 267.523 140.234 267.549 140.361 267.549C140.482 267.549 140.59 267.522 140.686 267.466C140.782 267.407 140.852 267.322 140.895 267.21L141.006 267.545C140.954 267.706 140.858 267.828 140.718 267.912C140.579 267.995 140.4 268.037 140.18 268.037ZM141.933 267.995L141.97 267.401C141.989 267.404 142.007 267.407 142.026 267.41C142.045 267.41 142.062 267.41 142.077 267.41C142.164 267.41 142.232 267.385 142.281 267.336C142.331 267.286 142.368 267.22 142.393 267.136C142.418 267.049 142.435 266.952 142.444 266.844C142.456 266.735 142.466 266.622 142.472 266.504L142.509 265.501H144.645V268H143.921V265.919L144.083 266.096H142.987L143.141 265.91L143.108 266.537C143.099 266.76 143.08 266.964 143.052 267.15C143.028 267.336 142.986 267.497 142.927 267.633C142.868 267.766 142.789 267.87 142.69 267.944C142.591 268.015 142.464 268.051 142.309 268.051C142.254 268.051 142.195 268.046 142.133 268.037C142.071 268.028 142.004 268.014 141.933 267.995ZM145.342 268V265.501H146.062V266.988L147.279 265.501H147.943V268H147.223V266.514L146.011 268H145.342ZM149.462 268.046C149.27 268.046 149.078 268.026 148.886 267.986C148.697 267.946 148.522 267.885 148.361 267.805L148.556 267.299C148.683 267.361 148.821 267.409 148.97 267.443C149.122 267.474 149.275 267.489 149.43 267.489C149.541 267.489 149.637 267.478 149.718 267.457C149.801 267.432 149.865 267.398 149.908 267.354C149.951 267.311 149.973 267.258 149.973 267.197C149.973 267.116 149.939 267.056 149.871 267.015C149.803 266.972 149.704 266.95 149.574 266.95H149.063V266.5H149.513C149.597 266.5 149.668 266.491 149.727 266.472C149.786 266.453 149.829 266.427 149.857 266.393C149.888 266.356 149.903 266.313 149.903 266.263C149.903 266.21 149.885 266.165 149.848 266.128C149.81 266.091 149.756 266.063 149.685 266.045C149.614 266.023 149.524 266.012 149.416 266.012C149.292 266.012 149.163 266.028 149.03 266.059C148.897 266.086 148.761 266.128 148.621 266.184L148.445 265.682C148.609 265.614 148.772 265.56 148.933 265.52C149.094 265.48 149.253 265.458 149.411 265.455C149.643 265.449 149.852 265.473 150.038 265.529C150.224 265.585 150.369 265.665 150.475 265.771C150.583 265.876 150.637 266.004 150.637 266.156C150.637 266.277 150.6 266.385 150.526 266.481C150.454 266.577 150.355 266.653 150.228 266.709C150.102 266.761 149.959 266.788 149.801 266.788L149.82 266.644C150.095 266.644 150.312 266.7 150.47 266.811C150.628 266.919 150.707 267.068 150.707 267.257C150.707 267.418 150.651 267.559 150.54 267.68C150.431 267.797 150.283 267.889 150.094 267.954C149.908 268.015 149.697 268.046 149.462 268.046ZM151.564 268.938C151.434 268.938 151.305 268.918 151.178 268.878C151.051 268.838 150.948 268.782 150.867 268.711L151.132 268.195C151.188 268.245 151.251 268.283 151.322 268.311C151.397 268.339 151.469 268.353 151.541 268.353C151.643 268.353 151.723 268.328 151.782 268.279C151.844 268.232 151.9 268.153 151.949 268.042L152.079 267.735L152.135 267.656L153.031 265.501H153.728L152.6 268.153C152.519 268.355 152.426 268.512 152.321 268.627C152.219 268.742 152.104 268.822 151.977 268.869C151.853 268.915 151.716 268.938 151.564 268.938ZM151.991 268.098L150.876 265.501H151.624L152.488 267.591L151.991 268.098ZM157.111 267.675V266.096H156.294L156.28 266.416C156.274 266.549 156.266 266.676 156.257 266.797C156.248 266.918 156.229 267.028 156.201 267.127C156.176 267.223 156.139 267.305 156.09 267.373C156.04 267.438 155.974 267.483 155.89 267.508L155.175 267.406C155.265 267.406 155.337 267.379 155.393 267.327C155.449 267.271 155.492 267.195 155.523 267.099C155.554 267 155.577 266.888 155.593 266.765C155.608 266.638 155.619 266.504 155.625 266.365L155.658 265.501H157.836V267.675H157.111ZM155.091 268.539V267.406H158.194V268.539H157.52V268H155.765V268.539H155.091ZM160.145 268V267.512L160.099 267.406V266.532C160.099 266.378 160.051 266.257 159.955 266.17C159.862 266.083 159.718 266.04 159.523 266.04C159.39 266.04 159.258 266.062 159.128 266.105C159.001 266.145 158.893 266.201 158.803 266.272L158.543 265.766C158.679 265.67 158.843 265.596 159.035 265.543C159.227 265.49 159.422 265.464 159.62 265.464C160.001 265.464 160.297 265.554 160.507 265.734C160.718 265.913 160.823 266.193 160.823 266.574V268H160.145ZM159.383 268.037C159.188 268.037 159.021 268.005 158.882 267.94C158.742 267.872 158.636 267.78 158.561 267.666C158.487 267.551 158.45 267.423 158.45 267.28C158.45 267.131 158.485 267.001 158.557 266.89C158.631 266.779 158.747 266.692 158.905 266.63C159.063 266.565 159.269 266.532 159.523 266.532H160.187V266.955H159.602C159.431 266.955 159.314 266.983 159.249 267.039C159.187 267.094 159.156 267.164 159.156 267.248C159.156 267.34 159.191 267.415 159.263 267.471C159.337 267.523 159.438 267.549 159.565 267.549C159.685 267.549 159.794 267.522 159.89 267.466C159.986 267.407 160.055 267.322 160.099 267.21L160.21 267.545C160.157 267.706 160.061 267.828 159.922 267.912C159.783 267.995 159.603 268.037 159.383 268.037ZM161.453 268V265.501H162.172V266.477H163.259V265.501H163.984V268H163.259V267.066H162.172V268H161.453ZM164.677 268V265.501H165.397V266.477H166.484V265.501H167.209V268H166.484V267.066H165.397V268H164.677ZM170.475 268V265.501H171.195V268H170.475ZM169.217 266.3C169.545 266.303 169.791 266.378 169.955 266.523C170.122 266.665 170.206 266.868 170.206 267.131C170.206 267.407 170.111 267.622 169.923 267.777C169.734 267.929 169.466 268.005 169.119 268.005L167.902 268V265.501H168.622V266.3H169.217ZM169.054 267.489C169.193 267.492 169.3 267.463 169.374 267.401C169.449 267.339 169.486 267.246 169.486 267.122C169.486 266.998 169.449 266.91 169.374 266.857C169.3 266.802 169.193 266.772 169.054 266.769L168.622 266.765V267.489H169.054ZM171.559 268L172.678 266.532L172.664 266.932L171.592 265.501H172.404L173.082 266.435L172.776 266.444L173.477 265.501H174.248L173.171 266.918V266.528L174.285 268H173.463L172.753 267.006L173.055 267.048L172.349 268H171.559ZM174.902 268.037C174.778 268.037 174.671 267.995 174.582 267.912C174.495 267.825 174.452 267.715 174.452 267.582C174.452 267.449 174.495 267.342 174.582 267.262C174.671 267.178 174.778 267.136 174.902 267.136C175.029 267.136 175.136 267.178 175.223 267.262C175.309 267.342 175.353 267.449 175.353 267.582C175.353 267.715 175.309 267.825 175.223 267.912C175.136 267.995 175.029 268.037 174.902 268.037ZM179.458 264.749H180.21V268H179.458V264.749ZM177.981 268H177.229V264.749H177.981V268ZM179.514 266.667H177.925V266.031H179.514V266.667ZM182.465 268V267.512L182.418 267.406V266.532C182.418 266.378 182.37 266.257 182.274 266.17C182.181 266.083 182.037 266.04 181.842 266.04C181.709 266.04 181.578 266.062 181.448 266.105C181.321 266.145 181.212 266.201 181.122 266.272L180.862 265.766C180.999 265.67 181.163 265.596 181.355 265.543C181.547 265.49 181.742 265.464 181.94 265.464C182.321 265.464 182.616 265.554 182.827 265.734C183.038 265.913 183.143 266.193 183.143 266.574V268H182.465ZM181.703 268.037C181.508 268.037 181.341 268.005 181.201 267.94C181.062 267.872 180.955 267.78 180.881 267.666C180.807 267.551 180.77 267.423 180.77 267.28C180.77 267.131 180.805 267.001 180.876 266.89C180.951 266.779 181.067 266.692 181.225 266.63C181.383 266.565 181.588 266.532 181.842 266.532H182.507V266.955H181.921C181.751 266.955 181.633 266.983 181.568 267.039C181.506 267.094 181.475 267.164 181.475 267.248C181.475 267.34 181.511 267.415 181.582 267.471C181.657 267.523 181.757 267.549 181.884 267.549C182.005 267.549 182.113 267.522 182.209 267.466C182.305 267.407 182.375 267.322 182.418 267.21L182.53 267.545C182.477 267.706 182.381 267.828 182.242 267.912C182.102 267.995 181.923 268.037 181.703 268.037ZM185.347 267.043C185.244 267.099 185.131 267.144 185.008 267.178C184.884 267.212 184.748 267.229 184.599 267.229C184.271 267.229 184.018 267.155 183.842 267.006C183.665 266.854 183.577 266.614 183.577 266.286V265.501H184.302V266.24C184.302 266.395 184.342 266.506 184.422 266.574C184.503 266.639 184.616 266.672 184.761 266.672C184.867 266.672 184.967 266.659 185.063 266.635C185.162 266.61 185.257 266.574 185.347 266.528V267.043ZM185.296 268V265.501H186.02V268H185.296ZM188.211 268V267.512L188.165 267.406V266.532C188.165 266.378 188.117 266.257 188.021 266.17C187.928 266.083 187.784 266.04 187.589 266.04C187.456 266.04 187.324 266.062 187.194 266.105C187.067 266.145 186.959 266.201 186.869 266.272L186.609 265.766C186.745 265.67 186.909 265.596 187.101 265.543C187.293 265.49 187.488 265.464 187.686 265.464C188.067 265.464 188.363 265.554 188.574 265.734C188.784 265.913 188.889 266.193 188.889 266.574V268H188.211ZM187.45 268.037C187.255 268.037 187.087 268.005 186.948 267.94C186.809 267.872 186.702 267.78 186.628 267.666C186.553 267.551 186.516 267.423 186.516 267.28C186.516 267.131 186.552 267.001 186.623 266.89C186.697 266.779 186.813 266.692 186.971 266.63C187.129 266.565 187.335 266.532 187.589 266.532H188.253V266.955H187.668C187.498 266.955 187.38 266.983 187.315 267.039C187.253 267.094 187.222 267.164 187.222 267.248C187.222 267.34 187.258 267.415 187.329 267.471C187.403 267.523 187.504 267.549 187.631 267.549C187.752 267.549 187.86 267.522 187.956 267.466C188.052 267.407 188.122 267.322 188.165 267.21L188.276 267.545C188.224 267.706 188.128 267.828 187.988 267.912C187.849 267.995 187.669 268.037 187.45 268.037ZM189.203 267.995L189.24 267.401C189.259 267.404 189.277 267.407 189.296 267.41C189.314 267.41 189.331 267.41 189.347 267.41C189.434 267.41 189.502 267.385 189.551 267.336C189.601 267.286 189.638 267.22 189.663 267.136C189.688 267.049 189.705 266.952 189.714 266.844C189.726 266.735 189.736 266.622 189.742 266.504L189.779 265.501H191.915V268H191.191V265.919L191.353 266.096H190.257L190.411 265.91L190.378 266.537C190.369 266.76 190.35 266.964 190.322 267.15C190.298 267.336 190.256 267.497 190.197 267.633C190.138 267.766 190.059 267.87 189.96 267.944C189.861 268.015 189.734 268.051 189.579 268.051C189.523 268.051 189.465 268.046 189.403 268.037C189.341 268.028 189.274 268.014 189.203 267.995ZM193.964 266.3C194.292 266.303 194.541 266.378 194.711 266.523C194.885 266.665 194.971 266.868 194.971 267.131C194.971 267.407 194.874 267.622 194.679 267.777C194.484 267.929 194.213 268.005 193.866 268.005L192.612 268V265.501H193.332V266.3H193.964ZM193.801 267.489C193.94 267.492 194.047 267.463 194.122 267.401C194.196 267.339 194.233 267.246 194.233 267.122C194.233 266.998 194.196 266.91 194.122 266.857C194.047 266.802 193.94 266.772 193.801 266.769L193.332 266.765V267.489H193.801ZM195.424 268V265.501H196.144V266.477H197.231V265.501H197.955V268H197.231V267.066H196.144V268H195.424ZM201.222 268V265.501H201.942V268H201.222ZM199.963 266.3C200.292 266.303 200.538 266.378 200.702 266.523C200.869 266.665 200.953 266.868 200.953 267.131C200.953 267.407 200.858 267.622 200.669 267.777C200.48 267.929 200.213 268.005 199.866 268.005L198.649 268V265.501H199.369V266.3H199.963ZM199.801 267.489C199.94 267.492 200.047 267.463 200.121 267.401C200.196 267.339 200.233 267.246 200.233 267.122C200.233 266.998 200.196 266.91 200.121 266.857C200.047 266.802 199.94 266.772 199.801 266.769L199.369 266.765V267.489H199.801ZM202.64 268V265.501H203.36V266.988L204.577 265.501H205.241V268H204.521V266.514L203.309 268H202.64ZM203.894 265.232C203.622 265.232 203.417 265.173 203.281 265.055C203.145 264.935 203.075 264.754 203.072 264.512H203.546C203.549 264.617 203.578 264.701 203.634 264.763C203.69 264.825 203.775 264.856 203.89 264.856C204.001 264.856 204.086 264.825 204.145 264.763C204.207 264.701 204.238 264.617 204.238 264.512H204.721C204.721 264.754 204.651 264.935 204.512 265.055C204.373 265.173 204.167 265.232 203.894 265.232ZM207.592 268.938C207.462 268.938 207.333 268.918 207.207 268.878C207.08 268.838 206.976 268.782 206.895 268.711L207.16 268.195C207.216 268.245 207.279 268.283 207.35 268.311C207.425 268.339 207.498 268.353 207.569 268.353C207.671 268.353 207.751 268.328 207.81 268.279C207.872 268.232 207.928 268.153 207.977 268.042L208.108 267.735L208.163 267.656L209.06 265.501H209.756L208.628 268.153C208.547 268.355 208.454 268.512 208.349 268.627C208.247 268.742 208.132 268.822 208.005 268.869C207.881 268.915 207.744 268.938 207.592 268.938ZM208.019 268.098L206.905 265.501H207.652L208.516 267.591L208.019 268.098ZM211.578 268.037C211.368 268.037 211.183 267.991 211.025 267.898C210.868 267.805 210.744 267.664 210.654 267.475C210.567 267.283 210.524 267.042 210.524 266.751C210.524 266.456 210.566 266.215 210.649 266.026C210.733 265.837 210.854 265.696 211.012 265.603C211.169 265.511 211.358 265.464 211.578 265.464C211.813 265.464 212.024 265.518 212.21 265.627C212.399 265.732 212.547 265.881 212.656 266.073C212.767 266.265 212.823 266.491 212.823 266.751C212.823 267.014 212.767 267.241 212.656 267.433C212.547 267.625 212.399 267.774 212.21 267.879C212.024 267.985 211.813 268.037 211.578 268.037ZM210.101 268.901V265.501H210.793V266.012L210.779 266.755L210.826 267.494V268.901H210.101ZM211.453 267.443C211.573 267.443 211.68 267.415 211.773 267.359C211.869 267.303 211.945 267.224 212.001 267.122C212.06 267.017 212.089 266.893 212.089 266.751C212.089 266.605 212.06 266.481 212.001 266.379C211.945 266.277 211.869 266.198 211.773 266.142C211.68 266.086 211.573 266.059 211.453 266.059C211.332 266.059 211.224 266.086 211.128 266.142C211.032 266.198 210.956 266.277 210.9 266.379C210.844 266.481 210.816 266.605 210.816 266.751C210.816 266.893 210.844 267.017 210.9 267.122C210.956 267.224 211.032 267.303 211.128 267.359C211.224 267.415 211.332 267.443 211.453 267.443ZM214.501 268.037C214.235 268.037 213.998 267.981 213.79 267.87C213.586 267.758 213.424 267.607 213.303 267.415C213.185 267.22 213.126 266.998 213.126 266.751C213.126 266.5 213.185 266.278 213.303 266.086C213.424 265.891 213.586 265.74 213.79 265.631C213.998 265.52 214.235 265.464 214.501 265.464C214.764 265.464 215 265.52 215.207 265.631C215.414 265.74 215.577 265.89 215.695 266.082C215.812 266.274 215.871 266.497 215.871 266.751C215.871 266.998 215.812 267.22 215.695 267.415C215.577 267.607 215.414 267.758 215.207 267.87C215 267.981 214.764 268.037 214.501 268.037ZM214.501 267.443C214.622 267.443 214.73 267.415 214.826 267.359C214.922 267.303 214.998 267.224 215.054 267.122C215.109 267.017 215.137 266.893 215.137 266.751C215.137 266.605 215.109 266.481 215.054 266.379C214.998 266.277 214.922 266.198 214.826 266.142C214.73 266.086 214.622 266.059 214.501 266.059C214.38 266.059 214.272 266.086 214.176 266.142C214.08 266.198 214.003 266.277 213.944 266.379C213.888 266.481 213.86 266.605 213.86 266.751C213.86 266.893 213.888 267.017 213.944 267.122C214.003 267.224 214.08 267.303 214.176 267.359C214.272 267.415 214.38 267.443 214.501 267.443ZM216.369 268V265.501H217.647C217.959 265.501 218.204 265.559 218.381 265.673C218.557 265.785 218.645 265.943 218.645 266.147C218.645 266.351 218.562 266.512 218.394 266.63C218.23 266.744 218.012 266.802 217.74 266.802L217.814 266.635C218.117 266.635 218.343 266.69 218.492 266.802C218.644 266.913 218.72 267.076 218.72 267.289C218.72 267.509 218.636 267.683 218.469 267.81C218.302 267.937 218.046 268 217.702 268H216.369ZM217.034 267.508H217.642C217.775 267.508 217.874 267.486 217.939 267.443C218.007 267.396 218.041 267.327 218.041 267.234C218.041 267.138 218.011 267.068 217.949 267.025C217.887 266.978 217.789 266.955 217.656 266.955H217.034V267.508ZM217.034 266.528H217.582C217.709 266.528 217.803 266.504 217.865 266.458C217.93 266.412 217.963 266.345 217.963 266.258C217.963 266.169 217.93 266.102 217.865 266.059C217.803 266.015 217.709 265.994 217.582 265.994H217.034V266.528ZM220.48 268.037C220.195 268.037 219.944 267.981 219.728 267.87C219.514 267.758 219.348 267.607 219.231 267.415C219.113 267.22 219.054 266.998 219.054 266.751C219.054 266.5 219.112 266.278 219.226 266.086C219.344 265.891 219.503 265.74 219.705 265.631C219.906 265.52 220.133 265.464 220.387 265.464C220.632 265.464 220.852 265.517 221.047 265.622C221.245 265.724 221.401 265.873 221.516 266.068C221.63 266.26 221.688 266.491 221.688 266.76C221.688 266.788 221.686 266.82 221.683 266.857C221.68 266.892 221.677 266.924 221.674 266.955H219.644V266.532H221.293L221.014 266.658C221.014 266.528 220.988 266.415 220.935 266.319C220.883 266.223 220.81 266.148 220.717 266.096C220.624 266.04 220.516 266.012 220.392 266.012C220.268 266.012 220.158 266.04 220.062 266.096C219.969 266.148 219.896 266.224 219.844 266.323C219.791 266.419 219.765 266.534 219.765 266.667V266.779C219.765 266.915 219.794 267.036 219.853 267.141C219.915 267.243 220 267.322 220.109 267.378C220.22 267.43 220.35 267.457 220.499 267.457C220.632 267.457 220.748 267.436 220.847 267.396C220.949 267.356 221.042 267.296 221.126 267.215L221.511 267.633C221.397 267.763 221.253 267.864 221.079 267.935C220.906 268.003 220.706 268.037 220.48 268.037ZM222.243 268V265.501H222.963V266.477H224.05V265.501H224.774V268H224.05V267.066H222.963V268H222.243ZM226.819 266.3C227.148 266.303 227.397 266.378 227.567 266.523C227.741 266.665 227.827 266.868 227.827 267.131C227.827 267.407 227.73 267.622 227.535 267.777C227.34 267.929 227.069 268.005 226.722 268.005L225.468 268V265.501H226.188V266.3H226.819ZM226.657 267.489C226.796 267.492 226.903 267.463 226.977 267.401C227.052 267.339 227.089 267.246 227.089 267.122C227.089 266.998 227.052 266.91 226.977 266.857C226.903 266.802 226.796 266.772 226.657 266.769L226.188 266.765V267.489H226.657Z" fill="#D8D8D8"/>
<rect x="5" y="74" width="130" height="130" rx="65" stroke="black" stroke-width="0.77"/>
<path d="M16.1188 127.609H21.836V129.207H17.9323V136.787H16.1188V127.609ZM25.2663 127.609H27.4855L29.9629 136.787H28.1494L27.5839 134.519H25.1556L24.6023 136.787H22.7888L25.2663 127.609ZM27.2334 133.025L26.3728 129.269L25.5183 133.025H27.2334ZM30.9404 127.597H33.8973C35.9464 127.597 36.971 128.367 36.971 129.908C36.971 131.113 36.3747 131.769 35.1821 131.875C35.9034 131.949 36.4362 132.189 36.7805 132.594C37.1247 132.996 37.2968 133.56 37.2968 134.285C37.2968 135.162 37.0284 135.799 36.4915 136.197C35.9587 136.59 35.094 136.787 33.8973 136.787H30.9404V127.597ZM33.8973 131.174C34.3563 131.174 34.6821 131.094 34.8747 130.935C35.0715 130.771 35.1698 130.5 35.1698 130.123C35.1698 129.742 35.0694 129.467 34.8686 129.299C34.6719 129.127 34.3481 129.041 33.8973 129.041H32.6924V131.174H33.8973ZM33.8973 135.336C34.4711 135.336 34.8747 135.24 35.1083 135.047C35.3419 134.851 35.4588 134.51 35.4588 134.027C35.4588 133.527 35.3379 133.168 35.0961 132.951C34.8543 132.73 34.4547 132.619 33.8973 132.619H32.6924V135.336H33.8973ZM40.4382 127.609H42.6574L45.1349 136.787H43.3214L42.7558 134.519H40.3275L39.7743 136.787H37.9608L40.4382 127.609ZM42.4054 133.025L41.5447 129.269L40.6902 133.025H42.4054ZM49.1307 127.037C48.5242 127.037 48.0447 126.9 47.6922 126.625C47.3397 126.351 47.1328 125.947 47.0713 125.414H47.9381C48.102 125.91 48.5037 126.158 49.143 126.158C49.7618 126.158 50.1532 125.91 50.3172 125.414H51.1963C51.1348 125.947 50.9278 126.351 50.5754 126.625C50.2229 126.9 49.7414 127.037 49.1307 127.037ZM46.0754 127.609H47.6738V134.279L50.2311 127.609H52.1798V136.787H50.5815V130.117L48.0119 136.787H46.0754V127.609ZM57.5958 136.965C56.3704 136.965 55.4298 136.557 54.7741 135.742C54.1224 134.922 53.7966 133.744 53.7966 132.207C53.7966 130.662 54.1224 129.482 54.7741 128.666C55.4298 127.851 56.3704 127.443 57.5958 127.443C57.9523 127.443 58.2904 127.48 58.6101 127.554C58.9298 127.627 59.2289 127.738 59.5076 127.885V129.902C59.3232 129.73 59.1572 129.597 59.0097 129.502C58.8662 129.404 58.7289 129.326 58.5978 129.269C58.4421 129.199 58.2884 129.15 58.1367 129.121C57.9892 129.088 57.8396 129.072 57.688 129.072C57.0322 129.072 56.5343 129.334 56.1941 129.859C55.854 130.396 55.6839 131.178 55.6839 132.207C55.6839 133.24 55.854 134.019 56.1941 134.543C56.5343 135.072 57.0322 135.336 57.688 135.336C58.0035 135.336 58.3089 135.269 58.6039 135.133C58.7474 135.068 58.8888 134.988 59.0281 134.894C59.1716 134.795 59.3314 134.666 59.5076 134.506V136.523C59.2207 136.67 58.9195 136.781 58.6039 136.855C58.2884 136.928 57.9523 136.965 57.5958 136.965ZM61.1736 127.609H62.9871V131.236L65.8272 127.609H67.8805L64.985 131.224L67.985 136.787H65.9686L63.7924 132.656L62.9871 133.676V136.787H61.1736V127.609ZM70.7821 127.609H73.0013L75.4787 136.787H73.6652L73.0997 134.519H70.6714L70.1181 136.787H68.3046L70.7821 127.609ZM72.7492 133.025L71.8886 129.269L71.0341 133.025H72.7492ZM77.8947 132.828C77.6816 132.721 77.448 132.566 77.1939 132.361C76.9439 132.152 76.7267 131.871 76.5422 131.519C76.3619 131.162 76.2717 130.709 76.2717 130.16C76.2717 129.275 76.5504 128.629 77.1078 128.224C77.6693 127.814 78.4951 127.609 79.5852 127.609H82.5114V136.787H80.6979V133.16H79.702L77.8639 136.787H75.8906L77.8947 132.828ZM80.6979 131.635V129.133H79.536C79.0811 129.133 78.7348 129.23 78.4971 129.422C78.2635 129.615 78.1467 129.935 78.1467 130.381C78.1467 130.828 78.2635 131.15 78.4971 131.346C78.7348 131.539 79.0811 131.635 79.536 131.635H80.6979ZM15.8422 142.609H21.7376V151.787H19.9241V144.207H17.6557V151.787H15.8422V142.609ZM23.3175 142.609H24.9159V149.279L27.4732 142.609H29.4219V151.787H27.8236V145.117L25.254 151.787H23.3175V142.609ZM35.9198 151.787H30.9834V142.609H32.7969V150.189H35.0653V142.609H36.8788V150.189H37.721V153.766H35.9198V151.787ZM43.5058 151.787H38.5694V142.609H40.3829V150.189H42.6513V142.609H44.4648V150.189H45.307V153.766H43.5058V151.787ZM48.0242 142.609H50.2434L52.7208 151.787H50.9073L50.3418 149.519H47.9135L47.3602 151.787H45.5467L48.0242 142.609ZM49.9913 148.025L49.1307 144.269L48.2762 148.025H49.9913Z" fill="black"/>
<rect x="98" y="75" width="130" height="130" rx="65" stroke="black" stroke-width="0.77"/>
<path d="M173.606 143.665L179.429 141.592L173.606 139.505V137.674L181.348 140.721V142.449L173.606 145.489V143.665ZM183.377 144.383H185.794V137.578L184.153 139.358L183.128 138.289L185.809 135.352H187.896V144.383H190.313V146.287H183.377V144.383Z" fill="black"/>
<path d="M115.933 145.212C114.854 145.212 113.973 144.893 113.289 144.253C112.61 143.618 112.271 142.788 112.271 141.763C112.271 141.382 112.315 141.035 112.403 140.723C112.491 140.41 112.62 140.112 112.791 139.829C113.138 139.253 113.648 138.748 114.322 138.313C114.19 138.103 114.08 137.91 113.992 137.734C113.904 137.559 113.833 137.397 113.78 137.251C113.663 136.929 113.604 136.609 113.604 136.292C113.604 135.53 113.87 134.934 114.402 134.504C114.939 134.08 115.708 133.867 116.709 133.867C116.895 133.867 117.073 133.875 117.244 133.889C117.415 133.904 117.586 133.923 117.757 133.948C118.108 134.001 118.445 134.08 118.768 134.182V136.057C118.143 135.701 117.505 135.522 116.856 135.522C116.465 135.522 116.172 135.591 115.977 135.728C115.777 135.869 115.677 136.064 115.677 136.313C115.677 136.411 115.694 136.519 115.728 136.636C115.762 136.748 115.821 136.887 115.904 137.053C116.05 137.356 116.29 137.759 116.622 138.262L118.914 141.777C119.017 141.602 119.095 141.389 119.148 141.14C119.202 140.872 119.229 140.613 119.229 140.364C119.229 140.295 119.227 140.222 119.222 140.144C119.222 140.066 119.219 139.995 119.214 139.932C119.209 139.805 119.195 139.675 119.17 139.543H120.892V139.917C120.892 140.64 120.809 141.257 120.643 141.77C120.477 142.307 120.215 142.783 119.859 143.198L121.045 145H118.724L118.372 144.473C118.182 144.6 117.994 144.707 117.808 144.795C117.623 144.878 117.422 144.954 117.208 145.022C117.002 145.085 116.8 145.132 116.6 145.161C116.399 145.195 116.177 145.212 115.933 145.212ZM116.248 143.484C116.365 143.484 116.502 143.467 116.658 143.433C116.727 143.418 116.79 143.403 116.849 143.389C116.912 143.369 116.988 143.34 117.076 143.301L117.134 143.271C117.232 143.223 117.298 143.188 117.332 143.169C117.371 143.149 117.42 143.12 117.479 143.081L115.223 139.646C114.9 139.856 114.659 140.105 114.498 140.393C114.332 140.676 114.249 141.006 114.249 141.382C114.249 141.704 114.302 141.99 114.41 142.239C114.517 142.483 114.654 142.693 114.82 142.869C115.206 143.279 115.682 143.484 116.248 143.484Z" fill="black"/>
</svg>
