<svg width="589" height="279" viewBox="0 0 589 279" fill="none" xmlns="http://www.w3.org/2000/svg">
<rect width="589" height="279" fill="white"/>
<path d="M133 94C144.446 105.717 151 122.326 151 140C151 157.674 143.446 173.283 132 185C120.554 173.283 114 157.674 114 140C114 122.326 121.554 105.717 133 94Z" fill="#DCFF00"/>
<path d="M410.385 268V264.749H411.862C412.215 264.749 412.527 264.817 412.796 264.953C413.065 265.086 413.276 265.274 413.428 265.515C413.579 265.757 413.655 266.043 413.655 266.374C413.655 266.703 413.579 266.989 413.428 267.234C413.276 267.475 413.065 267.664 412.796 267.8C412.527 267.933 412.215 268 411.862 268H410.385ZM411.138 267.382H411.825C412.042 267.382 412.229 267.342 412.387 267.262C412.548 267.178 412.672 267.06 412.759 266.909C412.849 266.757 412.893 266.579 412.893 266.374C412.893 266.167 412.849 265.989 412.759 265.84C412.672 265.689 412.548 265.573 412.387 265.492C412.229 265.408 412.042 265.367 411.825 265.367H411.138V267.382ZM415.704 268V267.512L415.658 267.406V266.532C415.658 266.378 415.61 266.257 415.514 266.17C415.421 266.083 415.277 266.04 415.082 266.04C414.949 266.04 414.817 266.062 414.687 266.105C414.56 266.145 414.452 266.201 414.362 266.272L414.102 265.766C414.238 265.67 414.402 265.596 414.594 265.543C414.786 265.49 414.981 265.464 415.179 265.464C415.56 265.464 415.856 265.554 416.066 265.734C416.277 265.913 416.382 266.193 416.382 266.574V268H415.704ZM414.942 268.037C414.747 268.037 414.58 268.005 414.441 267.94C414.302 267.872 414.195 267.78 414.12 267.666C414.046 267.551 414.009 267.423 414.009 267.28C414.009 267.131 414.045 267.001 414.116 266.89C414.19 266.779 414.306 266.692 414.464 266.63C414.622 266.565 414.828 266.532 415.082 266.532H415.746V266.955H415.161C414.99 266.955 414.873 266.983 414.808 267.039C414.746 267.094 414.715 267.164 414.715 267.248C414.715 267.34 414.751 267.415 414.822 267.471C414.896 267.523 414.997 267.549 415.124 267.549C415.244 267.549 415.353 267.522 415.449 267.466C415.545 267.407 415.614 267.322 415.658 267.21L415.769 267.545C415.717 267.706 415.621 267.828 415.481 267.912C415.342 267.995 415.162 268.037 414.942 268.037ZM418.06 268.037C417.766 268.037 417.537 267.963 417.372 267.814C417.208 267.663 417.126 267.438 417.126 267.141V264.949H417.851V267.131C417.851 267.237 417.879 267.319 417.934 267.378C417.99 267.433 418.066 267.461 418.162 267.461C418.277 267.461 418.374 267.43 418.455 267.368L418.65 267.879C418.575 267.932 418.486 267.972 418.38 268C418.278 268.025 418.171 268.037 418.06 268.037ZM416.741 266.114V265.557H418.473V266.114H416.741ZM420.589 268V267.512L420.543 267.406V266.532C420.543 266.378 420.495 266.257 420.399 266.17C420.306 266.083 420.162 266.04 419.967 266.04C419.834 266.04 419.702 266.062 419.572 266.105C419.445 266.145 419.337 266.201 419.247 266.272L418.987 265.766C419.123 265.67 419.287 265.596 419.479 265.543C419.671 265.49 419.866 265.464 420.064 265.464C420.445 265.464 420.741 265.554 420.951 265.734C421.162 265.913 421.267 266.193 421.267 266.574V268H420.589ZM419.827 268.037C419.632 268.037 419.465 268.005 419.326 267.94C419.186 267.872 419.08 267.78 419.005 267.666C418.931 267.551 418.894 267.423 418.894 267.28C418.894 267.131 418.929 267.001 419.001 266.89C419.075 266.779 419.191 266.692 419.349 266.63C419.507 266.565 419.713 266.532 419.967 266.532H420.631V266.955H420.046C419.875 266.955 419.758 266.983 419.693 267.039C419.631 267.094 419.6 267.164 419.6 267.248C419.6 267.34 419.635 267.415 419.707 267.471C419.781 267.523 419.882 267.549 420.008 267.549C420.129 267.549 420.238 267.522 420.334 267.466C420.43 267.407 420.499 267.322 420.543 267.21L420.654 267.545C420.601 267.706 420.505 267.828 420.366 267.912C420.227 267.995 420.047 268.037 419.827 268.037ZM424.845 268.056C424.594 268.056 424.361 268.015 424.144 267.935C423.93 267.851 423.744 267.734 423.586 267.582C423.429 267.43 423.305 267.252 423.215 267.048C423.128 266.844 423.085 266.619 423.085 266.374C423.085 266.13 423.128 265.905 423.215 265.701C423.305 265.497 423.429 265.319 423.586 265.167C423.747 265.015 423.935 264.899 424.148 264.819C424.362 264.735 424.596 264.693 424.85 264.693C425.132 264.693 425.385 264.743 425.611 264.842C425.841 264.938 426.033 265.08 426.187 265.269L425.704 265.715C425.593 265.588 425.469 265.494 425.333 265.432C425.197 265.367 425.048 265.334 424.887 265.334C424.735 265.334 424.596 265.359 424.469 265.408C424.342 265.458 424.232 265.529 424.139 265.622C424.046 265.715 423.974 265.825 423.921 265.952C423.871 266.079 423.847 266.22 423.847 266.374C423.847 266.529 423.871 266.67 423.921 266.797C423.974 266.924 424.046 267.034 424.139 267.127C424.232 267.22 424.342 267.291 424.469 267.34C424.596 267.39 424.735 267.415 424.887 267.415C425.048 267.415 425.197 267.384 425.333 267.322C425.469 267.257 425.593 267.159 425.704 267.029L426.187 267.475C426.033 267.664 425.841 267.808 425.611 267.907C425.385 268.006 425.13 268.056 424.845 268.056ZM427.64 268.037C427.432 268.037 427.246 267.997 427.082 267.916C426.921 267.836 426.796 267.714 426.706 267.549C426.616 267.382 426.571 267.17 426.571 266.913V265.501H427.296V266.806C427.296 267.014 427.339 267.167 427.426 267.266C427.516 267.362 427.641 267.41 427.802 267.41C427.914 267.41 428.013 267.387 428.1 267.34C428.186 267.291 428.254 267.217 428.304 267.118C428.353 267.015 428.378 266.888 428.378 266.737V265.501H429.103V268H428.415V267.313L428.541 267.512C428.457 267.686 428.333 267.817 428.169 267.907C428.008 267.994 427.832 268.037 427.64 268.037ZM429.774 268V264.554H430.498V268H429.774ZM432.379 268.037C432.084 268.037 431.855 267.963 431.691 267.814C431.527 267.663 431.445 267.438 431.445 267.141V264.949H432.17V267.131C432.17 267.237 432.198 267.319 432.253 267.378C432.309 267.433 432.385 267.461 432.481 267.461C432.595 267.461 432.693 267.43 432.773 267.368L432.968 267.879C432.894 267.932 432.804 267.972 432.699 268C432.597 268.025 432.49 268.037 432.379 268.037ZM431.06 266.114V265.557H432.792V266.114H431.06ZM434.429 268.037C434.222 268.037 434.036 267.997 433.872 267.916C433.711 267.836 433.586 267.714 433.496 267.549C433.406 267.382 433.361 267.17 433.361 266.913V265.501H434.086V266.806C434.086 267.014 434.129 267.167 434.216 267.266C434.306 267.362 434.431 267.41 434.592 267.41C434.704 267.41 434.803 267.387 434.889 267.34C434.976 267.291 435.044 267.217 435.094 267.118C435.143 267.015 435.168 266.888 435.168 266.737V265.501H435.892V268H435.205V267.313L435.331 267.512C435.247 267.686 435.123 267.817 434.959 267.907C434.798 267.994 434.621 268.037 434.429 268.037ZM436.564 268V265.501H437.256V266.207L437.158 266.003C437.233 265.826 437.352 265.693 437.516 265.603C437.68 265.511 437.88 265.464 438.115 265.464V266.133C438.084 266.13 438.056 266.128 438.031 266.128C438.007 266.125 437.98 266.124 437.952 266.124C437.754 266.124 437.593 266.181 437.469 266.295C437.349 266.407 437.288 266.582 437.288 266.82V268H436.564ZM439.768 268.037C439.483 268.037 439.232 267.981 439.015 267.87C438.802 267.758 438.636 267.607 438.518 267.415C438.401 267.22 438.342 266.998 438.342 266.751C438.342 266.5 438.399 266.278 438.514 266.086C438.631 265.891 438.791 265.74 438.992 265.631C439.193 265.52 439.421 265.464 439.675 265.464C439.919 265.464 440.139 265.517 440.334 265.622C440.532 265.724 440.689 265.873 440.803 266.068C440.918 266.26 440.975 266.491 440.975 266.76C440.975 266.788 440.974 266.82 440.971 266.857C440.968 266.892 440.964 266.924 440.961 266.955H438.932V266.532H440.58L440.302 266.658C440.302 266.528 440.275 266.415 440.223 266.319C440.17 266.223 440.097 266.148 440.005 266.096C439.912 266.04 439.803 266.012 439.679 266.012C439.556 266.012 439.446 266.04 439.35 266.096C439.257 266.148 439.184 266.224 439.131 266.323C439.079 266.419 439.052 266.534 439.052 266.667V266.779C439.052 266.915 439.082 267.036 439.141 267.141C439.203 267.243 439.288 267.322 439.396 267.378C439.508 267.43 439.638 267.457 439.786 267.457C439.919 267.457 440.036 267.436 440.135 267.396C440.237 267.356 440.33 267.296 440.413 267.215L440.799 267.633C440.684 267.763 440.54 267.864 440.367 267.935C440.193 268.003 439.994 268.037 439.768 268.037ZM441.732 268.037C441.608 268.037 441.501 267.995 441.411 267.912C441.324 267.825 441.281 267.715 441.281 267.582C441.281 267.449 441.324 267.342 441.411 267.262C441.501 267.178 441.608 267.136 441.732 267.136C441.859 267.136 441.965 267.178 442.052 267.262C442.139 267.342 442.182 267.449 442.182 267.582C442.182 267.715 442.139 267.825 442.052 267.912C441.965 267.995 441.859 268.037 441.732 268.037ZM443.775 264.749H444.643L445.317 265.734L445.99 264.749H446.873L445.791 266.305L446.961 268H446.074L445.317 266.922L444.569 268H443.701L444.862 266.337L443.775 264.749ZM448.435 268.037C448.15 268.037 447.899 267.981 447.683 267.87C447.469 267.758 447.303 267.607 447.186 267.415C447.068 267.22 447.009 266.998 447.009 266.751C447.009 266.5 447.067 266.278 447.181 266.086C447.299 265.891 447.458 265.74 447.659 265.631C447.861 265.52 448.088 265.464 448.342 265.464C448.587 265.464 448.807 265.517 449.002 265.622C449.2 265.724 449.356 265.873 449.471 266.068C449.585 266.26 449.643 266.491 449.643 266.76C449.643 266.788 449.641 266.82 449.638 266.857C449.635 266.892 449.632 266.924 449.629 266.955H447.599V266.532H449.248L448.969 266.658C448.969 266.528 448.943 266.415 448.89 266.319C448.838 266.223 448.765 266.148 448.672 266.096C448.579 266.04 448.471 266.012 448.347 266.012C448.223 266.012 448.113 266.04 448.017 266.096C447.924 266.148 447.851 266.224 447.799 266.323C447.746 266.419 447.72 266.534 447.72 266.667V266.779C447.72 266.915 447.749 267.036 447.808 267.141C447.87 267.243 447.955 267.322 448.064 267.378C448.175 267.43 448.305 267.457 448.454 267.457C448.587 267.457 448.703 267.436 448.802 267.396C448.904 267.356 448.997 267.296 449.081 267.215L449.466 267.633C449.352 267.763 449.208 267.864 449.034 267.935C448.861 268.003 448.661 268.037 448.435 268.037ZM450.198 268V265.501H450.918V266.477H452.005V265.501H452.729V268H452.005V267.066H450.918V268H450.198ZM455.141 267.675V266.096H454.324L454.31 266.416C454.304 266.549 454.296 266.676 454.287 266.797C454.277 266.918 454.259 267.028 454.231 267.127C454.206 267.223 454.169 267.305 454.12 267.373C454.07 267.438 454.003 267.483 453.92 267.508L453.205 267.406C453.294 267.406 453.367 267.379 453.423 267.327C453.479 267.271 453.522 267.195 453.553 267.099C453.584 267 453.607 266.888 453.623 266.765C453.638 266.638 453.649 266.504 453.655 266.365L453.688 265.501H455.866V267.675H455.141ZM453.121 268.539V267.406H456.223V268.539H455.55V268H453.794V268.539H453.121ZM457.919 268.056C457.715 268.056 457.529 268.026 457.362 267.967C457.195 267.906 457.049 267.811 456.926 267.684C456.805 267.554 456.71 267.388 456.642 267.187C456.577 266.986 456.545 266.746 456.545 266.467C456.545 266.269 456.562 266.088 456.596 265.924C456.63 265.76 456.681 265.611 456.749 265.478C456.817 265.342 456.904 265.223 457.009 265.12C457.118 265.015 457.243 264.928 457.385 264.86C457.531 264.789 457.695 264.735 457.878 264.698L459.067 264.461L459.164 265.083L458.115 265.292C458.053 265.305 457.981 265.322 457.901 265.343C457.823 265.362 457.745 265.391 457.664 265.432C457.587 265.472 457.514 265.529 457.446 265.603C457.381 265.675 457.328 265.769 457.288 265.887C457.248 266.001 457.227 266.144 457.227 266.314C457.227 266.367 457.229 266.407 457.232 266.435C457.238 266.463 457.243 266.492 457.246 266.523C457.252 266.554 457.255 266.602 457.255 266.667L457.023 266.439C457.091 266.294 457.178 266.17 457.283 266.068C457.392 265.966 457.515 265.888 457.655 265.836C457.797 265.78 457.955 265.752 458.128 265.752C458.364 265.752 458.57 265.8 458.746 265.896C458.926 265.989 459.065 266.121 459.164 266.291C459.263 266.461 459.313 266.655 459.313 266.871C459.313 267.107 459.254 267.314 459.136 267.494C459.019 267.67 458.855 267.808 458.644 267.907C458.437 268.006 458.195 268.056 457.919 268.056ZM457.957 267.494C458.077 267.494 458.184 267.467 458.277 267.415C458.37 267.359 458.441 267.286 458.491 267.197C458.543 267.104 458.57 267 458.57 266.885C458.57 266.774 458.543 266.675 458.491 266.588C458.441 266.501 458.37 266.433 458.277 266.384C458.184 266.334 458.076 266.309 457.952 266.309C457.831 266.309 457.723 266.334 457.627 266.384C457.531 266.43 457.457 266.495 457.404 266.579C457.351 266.662 457.325 266.76 457.325 266.871C457.325 266.986 457.351 267.091 457.404 267.187C457.46 267.28 457.534 267.354 457.627 267.41C457.723 267.466 457.833 267.494 457.957 267.494ZM460.075 268.938C459.945 268.938 459.817 268.918 459.69 268.878C459.563 268.838 459.459 268.782 459.379 268.711L459.643 268.195C459.699 268.245 459.763 268.283 459.834 268.311C459.908 268.339 459.981 268.353 460.052 268.353C460.154 268.353 460.235 268.328 460.294 268.279C460.356 268.232 460.411 268.153 460.461 268.042L460.591 267.735L460.647 267.656L461.543 265.501H462.24L461.111 268.153C461.031 268.355 460.938 268.512 460.832 268.627C460.73 268.742 460.616 268.822 460.489 268.869C460.365 268.915 460.227 268.938 460.075 268.938ZM460.503 268.098L459.388 265.501H460.136L461 267.591L460.503 268.098ZM464.359 268L463.523 266.816L464.113 266.467L465.213 268H464.359ZM462.589 268V265.501H463.314V268H462.589ZM463.1 267.053V266.472H463.973V267.053H463.1ZM464.182 266.834L463.504 266.76L464.382 265.501H465.153L464.182 266.834ZM466.884 268V265.501H469.369V268H468.645V265.933L468.807 266.096H467.442L467.604 265.933V268H466.884ZM471.234 268.037C470.968 268.037 470.731 267.981 470.524 267.87C470.319 267.758 470.157 267.607 470.036 267.415C469.918 267.22 469.86 266.998 469.86 266.751C469.86 266.5 469.918 266.278 470.036 266.086C470.157 265.891 470.319 265.74 470.524 265.631C470.731 265.52 470.968 265.464 471.234 265.464C471.497 265.464 471.733 265.52 471.94 265.631C472.148 265.74 472.31 265.89 472.428 266.082C472.546 266.274 472.604 266.497 472.604 266.751C472.604 266.998 472.546 267.22 472.428 267.415C472.31 267.607 472.148 267.758 471.94 267.87C471.733 267.981 471.497 268.037 471.234 268.037ZM471.234 267.443C471.355 267.443 471.463 267.415 471.559 267.359C471.655 267.303 471.731 267.224 471.787 267.122C471.843 267.017 471.871 266.893 471.871 266.751C471.871 266.605 471.843 266.481 471.787 266.379C471.731 266.277 471.655 266.198 471.559 266.142C471.463 266.086 471.355 266.059 471.234 266.059C471.114 266.059 471.005 266.086 470.909 266.142C470.813 266.198 470.736 266.277 470.677 266.379C470.621 266.481 470.593 266.605 470.593 266.751C470.593 266.893 470.621 267.017 470.677 267.122C470.736 267.224 470.813 267.303 470.909 267.359C471.005 267.415 471.114 267.443 471.234 267.443ZM475.914 268V267.512L475.867 267.406V266.532C475.867 266.378 475.819 266.257 475.723 266.17C475.63 266.083 475.486 266.04 475.291 266.04C475.158 266.04 475.027 266.062 474.896 266.105C474.77 266.145 474.661 266.201 474.571 266.272L474.311 265.766C474.447 265.67 474.612 265.596 474.804 265.543C474.996 265.49 475.191 265.464 475.389 265.464C475.77 265.464 476.065 265.554 476.276 265.734C476.486 265.913 476.592 266.193 476.592 266.574V268H475.914ZM475.152 268.037C474.957 268.037 474.79 268.005 474.65 267.94C474.511 267.872 474.404 267.78 474.33 267.666C474.256 267.551 474.218 267.423 474.218 267.28C474.218 267.131 474.254 267.001 474.325 266.89C474.4 266.779 474.516 266.692 474.674 266.63C474.831 266.565 475.037 266.532 475.291 266.532H475.955V266.955H475.37C475.2 266.955 475.082 266.983 475.017 267.039C474.955 267.094 474.924 267.164 474.924 267.248C474.924 267.34 474.96 267.415 475.031 267.471C475.105 267.523 475.206 267.549 475.333 267.549C475.454 267.549 475.562 267.522 475.658 267.466C475.754 267.407 475.824 267.322 475.867 267.21L475.979 267.545C475.926 267.706 475.83 267.828 475.691 267.912C475.551 267.995 475.372 268.037 475.152 268.037ZM477.221 268V265.501H477.941V266.477H479.028V265.501H479.752V268H479.028V267.066H477.941V268H477.221ZM481.941 268V267.512L481.895 267.406V266.532C481.895 266.378 481.847 266.257 481.751 266.17C481.658 266.083 481.514 266.04 481.319 266.04C481.186 266.04 481.054 266.062 480.924 266.105C480.797 266.145 480.689 266.201 480.599 266.272L480.339 265.766C480.475 265.67 480.639 265.596 480.831 265.543C481.023 265.49 481.218 265.464 481.417 265.464C481.797 265.464 482.093 265.554 482.304 265.734C482.514 265.913 482.619 266.193 482.619 266.574V268H481.941ZM481.18 268.037C480.985 268.037 480.817 268.005 480.678 267.94C480.539 267.872 480.432 267.78 480.358 267.666C480.283 267.551 480.246 267.423 480.246 267.28C480.246 267.131 480.282 267.001 480.353 266.89C480.427 266.779 480.543 266.692 480.701 266.63C480.859 266.565 481.065 266.532 481.319 266.532H481.983V266.955H481.398C481.228 266.955 481.11 266.983 481.045 267.039C480.983 267.094 480.952 267.164 480.952 267.248C480.952 267.34 480.988 267.415 481.059 267.471C481.133 267.523 481.234 267.549 481.361 267.549C481.482 267.549 481.59 267.522 481.686 267.466C481.782 267.407 481.852 267.322 481.895 267.21L482.006 267.545C481.954 267.706 481.858 267.828 481.718 267.912C481.579 267.995 481.4 268.037 481.18 268.037ZM482.933 267.995L482.97 267.401C482.989 267.404 483.007 267.407 483.026 267.41C483.045 267.41 483.062 267.41 483.077 267.41C483.164 267.41 483.232 267.385 483.281 267.336C483.331 267.286 483.368 267.22 483.393 267.136C483.418 267.049 483.435 266.952 483.444 266.844C483.456 266.735 483.466 266.622 483.472 266.504L483.509 265.501H485.645V268H484.921V265.919L485.083 266.096H483.987L484.141 265.91L484.108 266.537C484.099 266.76 484.08 266.964 484.052 267.15C484.028 267.336 483.986 267.497 483.927 267.633C483.868 267.766 483.789 267.87 483.69 267.944C483.591 268.015 483.464 268.051 483.309 268.051C483.254 268.051 483.195 268.046 483.133 268.037C483.071 268.028 483.004 268.014 482.933 267.995ZM486.342 268V265.501H487.062V266.988L488.279 265.501H488.943V268H488.223V266.514L487.011 268H486.342ZM490.462 268.046C490.27 268.046 490.078 268.026 489.886 267.986C489.697 267.946 489.522 267.885 489.361 267.805L489.556 267.299C489.683 267.361 489.821 267.409 489.97 267.443C490.122 267.474 490.275 267.489 490.43 267.489C490.541 267.489 490.637 267.478 490.718 267.457C490.801 267.432 490.865 267.398 490.908 267.354C490.951 267.311 490.973 267.258 490.973 267.197C490.973 267.116 490.939 267.056 490.871 267.015C490.803 266.972 490.704 266.95 490.574 266.95H490.063V266.5H490.513C490.597 266.5 490.668 266.491 490.727 266.472C490.786 266.453 490.829 266.427 490.857 266.393C490.888 266.356 490.903 266.313 490.903 266.263C490.903 266.21 490.885 266.165 490.848 266.128C490.81 266.091 490.756 266.063 490.685 266.045C490.614 266.023 490.524 266.012 490.416 266.012C490.292 266.012 490.163 266.028 490.03 266.059C489.897 266.086 489.761 266.128 489.621 266.184L489.445 265.682C489.609 265.614 489.772 265.56 489.933 265.52C490.094 265.48 490.253 265.458 490.411 265.455C490.643 265.449 490.852 265.473 491.038 265.529C491.224 265.585 491.369 265.665 491.475 265.771C491.583 265.876 491.637 266.004 491.637 266.156C491.637 266.277 491.6 266.385 491.526 266.481C491.454 266.577 491.355 266.653 491.228 266.709C491.102 266.761 490.959 266.788 490.801 266.788L490.82 266.644C491.095 266.644 491.312 266.7 491.47 266.811C491.628 266.919 491.707 267.068 491.707 267.257C491.707 267.418 491.651 267.559 491.54 267.68C491.431 267.797 491.283 267.889 491.094 267.954C490.908 268.015 490.697 268.046 490.462 268.046ZM492.564 268.938C492.434 268.938 492.305 268.918 492.178 268.878C492.051 268.838 491.948 268.782 491.867 268.711L492.132 268.195C492.188 268.245 492.251 268.283 492.322 268.311C492.397 268.339 492.469 268.353 492.541 268.353C492.643 268.353 492.723 268.328 492.782 268.279C492.844 268.232 492.9 268.153 492.949 268.042L493.079 267.735L493.135 267.656L494.031 265.501H494.728L493.6 268.153C493.519 268.355 493.426 268.512 493.321 268.627C493.219 268.742 493.104 268.822 492.977 268.869C492.853 268.915 492.716 268.938 492.564 268.938ZM492.991 268.098L491.876 265.501H492.624L493.488 267.591L492.991 268.098ZM498.111 267.675V266.096H497.294L497.28 266.416C497.274 266.549 497.266 266.676 497.257 266.797C497.248 266.918 497.229 267.028 497.201 267.127C497.176 267.223 497.139 267.305 497.09 267.373C497.04 267.438 496.974 267.483 496.89 267.508L496.175 267.406C496.265 267.406 496.337 267.379 496.393 267.327C496.449 267.271 496.492 267.195 496.523 267.099C496.554 267 496.577 266.888 496.593 266.765C496.608 266.638 496.619 266.504 496.625 266.365L496.658 265.501H498.836V267.675H498.111ZM496.091 268.539V267.406H499.194V268.539H498.52V268H496.765V268.539H496.091ZM501.145 268V267.512L501.099 267.406V266.532C501.099 266.378 501.051 266.257 500.955 266.17C500.862 266.083 500.718 266.04 500.523 266.04C500.39 266.04 500.258 266.062 500.128 266.105C500.001 266.145 499.893 266.201 499.803 266.272L499.543 265.766C499.679 265.67 499.843 265.596 500.035 265.543C500.227 265.49 500.422 265.464 500.62 265.464C501.001 265.464 501.297 265.554 501.507 265.734C501.718 265.913 501.823 266.193 501.823 266.574V268H501.145ZM500.383 268.037C500.188 268.037 500.021 268.005 499.882 267.94C499.742 267.872 499.636 267.78 499.561 267.666C499.487 267.551 499.45 267.423 499.45 267.28C499.45 267.131 499.485 267.001 499.557 266.89C499.631 266.779 499.747 266.692 499.905 266.63C500.063 266.565 500.269 266.532 500.523 266.532H501.187V266.955H500.602C500.431 266.955 500.314 266.983 500.249 267.039C500.187 267.094 500.156 267.164 500.156 267.248C500.156 267.34 500.191 267.415 500.263 267.471C500.337 267.523 500.438 267.549 500.565 267.549C500.685 267.549 500.794 267.522 500.89 267.466C500.986 267.407 501.055 267.322 501.099 267.21L501.21 267.545C501.157 267.706 501.061 267.828 500.922 267.912C500.783 267.995 500.603 268.037 500.383 268.037ZM502.453 268V265.501H503.172V266.477H504.259V265.501H504.984V268H504.259V267.066H503.172V268H502.453ZM505.677 268V265.501H506.397V266.477H507.484V265.501H508.209V268H507.484V267.066H506.397V268H505.677ZM511.475 268V265.501H512.195V268H511.475ZM510.217 266.3C510.545 266.303 510.791 266.378 510.955 266.523C511.122 266.665 511.206 266.868 511.206 267.131C511.206 267.407 511.111 267.622 510.923 267.777C510.734 267.929 510.466 268.005 510.119 268.005L508.902 268V265.501H509.622V266.3H510.217ZM510.054 267.489C510.193 267.492 510.3 267.463 510.374 267.401C510.449 267.339 510.486 267.246 510.486 267.122C510.486 266.998 510.449 266.91 510.374 266.857C510.3 266.802 510.193 266.772 510.054 266.769L509.622 266.765V267.489H510.054ZM512.559 268L513.678 266.532L513.664 266.932L512.592 265.501H513.404L514.082 266.435L513.776 266.444L514.477 265.501H515.248L514.171 266.918V266.528L515.285 268H514.463L513.753 267.006L514.055 267.048L513.349 268H512.559ZM515.902 268.037C515.778 268.037 515.671 267.995 515.582 267.912C515.495 267.825 515.452 267.715 515.452 267.582C515.452 267.449 515.495 267.342 515.582 267.262C515.671 267.178 515.778 267.136 515.902 267.136C516.029 267.136 516.136 267.178 516.223 267.262C516.309 267.342 516.353 267.449 516.353 267.582C516.353 267.715 516.309 267.825 516.223 267.912C516.136 267.995 516.029 268.037 515.902 268.037ZM520.458 264.749H521.21V268H520.458V264.749ZM518.981 268H518.229V264.749H518.981V268ZM520.514 266.667H518.925V266.031H520.514V266.667ZM523.465 268V267.512L523.418 267.406V266.532C523.418 266.378 523.37 266.257 523.274 266.17C523.181 266.083 523.037 266.04 522.842 266.04C522.709 266.04 522.578 266.062 522.448 266.105C522.321 266.145 522.212 266.201 522.122 266.272L521.862 265.766C521.999 265.67 522.163 265.596 522.355 265.543C522.547 265.49 522.742 265.464 522.94 265.464C523.321 265.464 523.616 265.554 523.827 265.734C524.038 265.913 524.143 266.193 524.143 266.574V268H523.465ZM522.703 268.037C522.508 268.037 522.341 268.005 522.201 267.94C522.062 267.872 521.955 267.78 521.881 267.666C521.807 267.551 521.77 267.423 521.77 267.28C521.77 267.131 521.805 267.001 521.876 266.89C521.951 266.779 522.067 266.692 522.225 266.63C522.383 266.565 522.588 266.532 522.842 266.532H523.507V266.955H522.921C522.751 266.955 522.633 266.983 522.568 267.039C522.506 267.094 522.475 267.164 522.475 267.248C522.475 267.34 522.511 267.415 522.582 267.471C522.657 267.523 522.757 267.549 522.884 267.549C523.005 267.549 523.113 267.522 523.209 267.466C523.305 267.407 523.375 267.322 523.418 267.21L523.53 267.545C523.477 267.706 523.381 267.828 523.242 267.912C523.102 267.995 522.923 268.037 522.703 268.037ZM526.347 267.043C526.244 267.099 526.131 267.144 526.008 267.178C525.884 267.212 525.748 267.229 525.599 267.229C525.271 267.229 525.018 267.155 524.842 267.006C524.665 266.854 524.577 266.614 524.577 266.286V265.501H525.302V266.24C525.302 266.395 525.342 266.506 525.422 266.574C525.503 266.639 525.616 266.672 525.761 266.672C525.867 266.672 525.967 266.659 526.063 266.635C526.162 266.61 526.257 266.574 526.347 266.528V267.043ZM526.296 268V265.501H527.02V268H526.296ZM529.211 268V267.512L529.165 267.406V266.532C529.165 266.378 529.117 266.257 529.021 266.17C528.928 266.083 528.784 266.04 528.589 266.04C528.456 266.04 528.324 266.062 528.194 266.105C528.067 266.145 527.959 266.201 527.869 266.272L527.609 265.766C527.745 265.67 527.909 265.596 528.101 265.543C528.293 265.49 528.488 265.464 528.686 265.464C529.067 265.464 529.363 265.554 529.574 265.734C529.784 265.913 529.889 266.193 529.889 266.574V268H529.211ZM528.45 268.037C528.255 268.037 528.087 268.005 527.948 267.94C527.809 267.872 527.702 267.78 527.628 267.666C527.553 267.551 527.516 267.423 527.516 267.28C527.516 267.131 527.552 267.001 527.623 266.89C527.697 266.779 527.813 266.692 527.971 266.63C528.129 266.565 528.335 266.532 528.589 266.532H529.253V266.955H528.668C528.498 266.955 528.38 266.983 528.315 267.039C528.253 267.094 528.222 267.164 528.222 267.248C528.222 267.34 528.258 267.415 528.329 267.471C528.403 267.523 528.504 267.549 528.631 267.549C528.752 267.549 528.86 267.522 528.956 267.466C529.052 267.407 529.122 267.322 529.165 267.21L529.276 267.545C529.224 267.706 529.128 267.828 528.988 267.912C528.849 267.995 528.669 268.037 528.45 268.037ZM530.203 267.995L530.24 267.401C530.259 267.404 530.277 267.407 530.296 267.41C530.314 267.41 530.331 267.41 530.347 267.41C530.434 267.41 530.502 267.385 530.551 267.336C530.601 267.286 530.638 267.22 530.663 267.136C530.688 267.049 530.705 266.952 530.714 266.844C530.726 266.735 530.736 266.622 530.742 266.504L530.779 265.501H532.915V268H532.191V265.919L532.353 266.096H531.257L531.411 265.91L531.378 266.537C531.369 266.76 531.35 266.964 531.322 267.15C531.298 267.336 531.256 267.497 531.197 267.633C531.138 267.766 531.059 267.87 530.96 267.944C530.861 268.015 530.734 268.051 530.579 268.051C530.523 268.051 530.465 268.046 530.403 268.037C530.341 268.028 530.274 268.014 530.203 267.995ZM534.964 266.3C535.292 266.303 535.541 266.378 535.711 266.523C535.885 266.665 535.971 266.868 535.971 267.131C535.971 267.407 535.874 267.622 535.679 267.777C535.484 267.929 535.213 268.005 534.866 268.005L533.612 268V265.501H534.332V266.3H534.964ZM534.801 267.489C534.94 267.492 535.047 267.463 535.122 267.401C535.196 267.339 535.233 267.246 535.233 267.122C535.233 266.998 535.196 266.91 535.122 266.857C535.047 266.802 534.94 266.772 534.801 266.769L534.332 266.765V267.489H534.801ZM536.424 268V265.501H537.144V266.477H538.231V265.501H538.955V268H538.231V267.066H537.144V268H536.424ZM542.222 268V265.501H542.942V268H542.222ZM540.963 266.3C541.292 266.303 541.538 266.378 541.702 266.523C541.869 266.665 541.953 266.868 541.953 267.131C541.953 267.407 541.858 267.622 541.669 267.777C541.48 267.929 541.213 268.005 540.866 268.005L539.649 268V265.501H540.369V266.3H540.963ZM540.801 267.489C540.94 267.492 541.047 267.463 541.121 267.401C541.196 267.339 541.233 267.246 541.233 267.122C541.233 266.998 541.196 266.91 541.121 266.857C541.047 266.802 540.94 266.772 540.801 266.769L540.369 266.765V267.489H540.801ZM543.64 268V265.501H544.36V266.988L545.577 265.501H546.241V268H545.521V266.514L544.309 268H543.64ZM544.894 265.232C544.622 265.232 544.417 265.173 544.281 265.055C544.145 264.935 544.075 264.754 544.072 264.512H544.546C544.549 264.617 544.578 264.701 544.634 264.763C544.69 264.825 544.775 264.856 544.89 264.856C545.001 264.856 545.086 264.825 545.145 264.763C545.207 264.701 545.238 264.617 545.238 264.512H545.721C545.721 264.754 545.651 264.935 545.512 265.055C545.373 265.173 545.167 265.232 544.894 265.232ZM548.592 268.938C548.462 268.938 548.333 268.918 548.207 268.878C548.08 268.838 547.976 268.782 547.895 268.711L548.16 268.195C548.216 268.245 548.279 268.283 548.35 268.311C548.425 268.339 548.498 268.353 548.569 268.353C548.671 268.353 548.751 268.328 548.81 268.279C548.872 268.232 548.928 268.153 548.977 268.042L549.108 267.735L549.163 267.656L550.06 265.501H550.756L549.628 268.153C549.547 268.355 549.454 268.512 549.349 268.627C549.247 268.742 549.132 268.822 549.005 268.869C548.881 268.915 548.744 268.938 548.592 268.938ZM549.019 268.098L547.905 265.501H548.652L549.516 267.591L549.019 268.098ZM552.578 268.037C552.368 268.037 552.183 267.991 552.025 267.898C551.868 267.805 551.744 267.664 551.654 267.475C551.567 267.283 551.524 267.042 551.524 266.751C551.524 266.456 551.566 266.215 551.649 266.026C551.733 265.837 551.854 265.696 552.012 265.603C552.169 265.511 552.358 265.464 552.578 265.464C552.813 265.464 553.024 265.518 553.21 265.627C553.399 265.732 553.547 265.881 553.656 266.073C553.767 266.265 553.823 266.491 553.823 266.751C553.823 267.014 553.767 267.241 553.656 267.433C553.547 267.625 553.399 267.774 553.21 267.879C553.024 267.985 552.813 268.037 552.578 268.037ZM551.101 268.901V265.501H551.793V266.012L551.779 266.755L551.826 267.494V268.901H551.101ZM552.453 267.443C552.573 267.443 552.68 267.415 552.773 267.359C552.869 267.303 552.945 267.224 553.001 267.122C553.06 267.017 553.089 266.893 553.089 266.751C553.089 266.605 553.06 266.481 553.001 266.379C552.945 266.277 552.869 266.198 552.773 266.142C552.68 266.086 552.573 266.059 552.453 266.059C552.332 266.059 552.224 266.086 552.128 266.142C552.032 266.198 551.956 266.277 551.9 266.379C551.844 266.481 551.816 266.605 551.816 266.751C551.816 266.893 551.844 267.017 551.9 267.122C551.956 267.224 552.032 267.303 552.128 267.359C552.224 267.415 552.332 267.443 552.453 267.443ZM555.501 268.037C555.235 268.037 554.998 267.981 554.79 267.87C554.586 267.758 554.424 267.607 554.303 267.415C554.185 267.22 554.126 266.998 554.126 266.751C554.126 266.5 554.185 266.278 554.303 266.086C554.424 265.891 554.586 265.74 554.79 265.631C554.998 265.52 555.235 265.464 555.501 265.464C555.764 265.464 556 265.52 556.207 265.631C556.414 265.74 556.577 265.89 556.695 266.082C556.812 266.274 556.871 266.497 556.871 266.751C556.871 266.998 556.812 267.22 556.695 267.415C556.577 267.607 556.414 267.758 556.207 267.87C556 267.981 555.764 268.037 555.501 268.037ZM555.501 267.443C555.622 267.443 555.73 267.415 555.826 267.359C555.922 267.303 555.998 267.224 556.054 267.122C556.109 267.017 556.137 266.893 556.137 266.751C556.137 266.605 556.109 266.481 556.054 266.379C555.998 266.277 555.922 266.198 555.826 266.142C555.73 266.086 555.622 266.059 555.501 266.059C555.38 266.059 555.272 266.086 555.176 266.142C555.08 266.198 555.003 266.277 554.944 266.379C554.888 266.481 554.86 266.605 554.86 266.751C554.86 266.893 554.888 267.017 554.944 267.122C555.003 267.224 555.08 267.303 555.176 267.359C555.272 267.415 555.38 267.443 555.501 267.443ZM557.369 268V265.501H558.647C558.959 265.501 559.204 265.559 559.381 265.673C559.557 265.785 559.645 265.943 559.645 266.147C559.645 266.351 559.562 266.512 559.394 266.63C559.23 266.744 559.012 266.802 558.74 266.802L558.814 266.635C559.117 266.635 559.343 266.69 559.492 266.802C559.644 266.913 559.72 267.076 559.72 267.289C559.72 267.509 559.636 267.683 559.469 267.81C559.302 267.937 559.046 268 558.702 268H557.369ZM558.034 267.508H558.642C558.775 267.508 558.874 267.486 558.939 267.443C559.007 267.396 559.041 267.327 559.041 267.234C559.041 267.138 559.011 267.068 558.949 267.025C558.887 266.978 558.789 266.955 558.656 266.955H558.034V267.508ZM558.034 266.528H558.582C558.709 266.528 558.803 266.504 558.865 266.458C558.93 266.412 558.963 266.345 558.963 266.258C558.963 266.169 558.93 266.102 558.865 266.059C558.803 266.015 558.709 265.994 558.582 265.994H558.034V266.528ZM561.48 268.037C561.195 268.037 560.944 267.981 560.728 267.87C560.514 267.758 560.348 267.607 560.231 267.415C560.113 267.22 560.054 266.998 560.054 266.751C560.054 266.5 560.112 266.278 560.226 266.086C560.344 265.891 560.503 265.74 560.705 265.631C560.906 265.52 561.133 265.464 561.387 265.464C561.632 265.464 561.852 265.517 562.047 265.622C562.245 265.724 562.401 265.873 562.516 266.068C562.63 266.26 562.688 266.491 562.688 266.76C562.688 266.788 562.686 266.82 562.683 266.857C562.68 266.892 562.677 266.924 562.674 266.955H560.644V266.532H562.293L562.014 266.658C562.014 266.528 561.988 266.415 561.935 266.319C561.883 266.223 561.81 266.148 561.717 266.096C561.624 266.04 561.516 266.012 561.392 266.012C561.268 266.012 561.158 266.04 561.062 266.096C560.969 266.148 560.896 266.224 560.844 266.323C560.791 266.419 560.765 266.534 560.765 266.667V266.779C560.765 266.915 560.794 267.036 560.853 267.141C560.915 267.243 561 267.322 561.109 267.378C561.22 267.43 561.35 267.457 561.499 267.457C561.632 267.457 561.748 267.436 561.847 267.396C561.949 267.356 562.042 267.296 562.126 267.215L562.511 267.633C562.397 267.763 562.253 267.864 562.079 267.935C561.906 268.003 561.706 268.037 561.48 268.037ZM563.243 268V265.501H563.963V266.477H565.05V265.501H565.774V268H565.05V267.066H563.963V268H563.243ZM567.819 266.3C568.148 266.303 568.397 266.378 568.567 266.523C568.741 266.665 568.827 266.868 568.827 267.131C568.827 267.407 568.73 267.622 568.535 267.777C568.34 267.929 568.069 268.005 567.722 268.005L566.468 268V265.501H567.188V266.3H567.819ZM567.657 267.489C567.796 267.492 567.903 267.463 567.977 267.401C568.052 267.339 568.089 267.246 568.089 267.122C568.089 266.998 568.052 266.91 567.977 266.857C567.903 266.802 567.796 266.772 567.657 266.769L567.188 266.765V267.489H567.657Z" fill="#D8D8D8"/>
<rect x="21" y="74" width="130" height="130" rx="65" stroke="black" stroke-width="0.77"/>
<path d="M30.1988 142.689H30.6906C30.8504 142.689 31 142.68 31.1393 142.664C31.2787 142.644 31.4119 142.576 31.5389 142.461C31.6659 142.342 31.7828 142.139 31.8893 141.853L32.2274 140.961L29.2336 135.109H31.1086L33.0512 138.92L34.5942 135.109H36.4692L33.5307 142.424C33.2766 143.055 32.9815 143.525 32.6454 143.832C32.3135 144.135 31.9077 144.287 31.4282 144.287H30.1988V142.689ZM41.2519 144.465C40.0265 144.465 39.0859 144.057 38.4302 143.242C37.7786 142.422 37.4528 141.244 37.4528 139.707C37.4528 138.162 37.7786 136.982 38.4302 136.166C39.0859 135.351 40.0265 134.943 41.2519 134.943C41.6084 134.943 41.9466 134.98 42.2662 135.054C42.5859 135.127 42.8851 135.238 43.1638 135.385V137.402C42.9793 137.23 42.8133 137.097 42.6658 137.002C42.5224 136.904 42.3851 136.826 42.2539 136.769C42.0982 136.699 41.9445 136.65 41.7929 136.621C41.6453 136.588 41.4957 136.572 41.3441 136.572C40.6884 136.572 40.1904 136.834 39.8503 137.359C39.5101 137.896 39.34 138.678 39.34 139.707C39.34 140.74 39.5101 141.519 39.8503 142.043C40.1904 142.572 40.6884 142.836 41.3441 142.836C41.6597 142.836 41.965 142.769 42.2601 142.633C42.4035 142.568 42.5449 142.488 42.6842 142.394C42.8277 142.295 42.9875 142.166 43.1638 142.006V144.023C42.8769 144.17 42.5756 144.281 42.2601 144.355C41.9445 144.428 41.6084 144.465 41.2519 144.465ZM44.3318 142.658H44.3932C44.8072 142.658 45.1084 142.555 45.2969 142.351C45.4854 142.142 45.5879 141.818 45.6043 141.379C45.6207 140.924 45.635 140.51 45.6473 140.137C45.6596 139.765 45.6678 139.39 45.6719 139.012C45.6801 138.635 45.6842 138.211 45.6842 137.74V135.109H51.0325V144.287H49.219V136.707H47.4977V137.789C47.4977 138.777 47.4875 139.65 47.467 140.408C47.4506 141.162 47.3912 141.805 47.2887 142.338C47.1862 142.867 47.0039 143.285 46.7416 143.592C46.3522 144.055 45.7375 144.287 44.8973 144.287H44.3318V142.658ZM55.5509 144.465C54.4853 144.465 53.68 144.064 53.1349 143.26C52.594 142.453 52.3235 141.267 52.3235 139.701C52.3235 138.135 52.594 136.951 53.1349 136.148C53.68 135.344 54.4853 134.943 55.5509 134.943C56.6123 134.943 57.4136 135.344 57.9545 136.148C58.4996 136.947 58.7722 138.131 58.7722 139.701C58.7722 141.271 58.4996 142.457 57.9545 143.26C57.4136 144.064 56.6123 144.465 55.5509 144.465ZM55.5447 142.836C56.0119 142.836 56.3521 142.588 56.5652 142.092C56.7783 141.613 56.8849 140.816 56.8849 139.701C56.8849 138.59 56.7783 137.795 56.5652 137.316C56.3521 136.82 56.0119 136.572 55.5447 136.572C55.0857 136.572 54.7476 136.82 54.5304 137.316C54.3173 137.795 54.2107 138.59 54.2107 139.701C54.2107 140.816 54.3173 141.613 54.5304 142.092C54.7435 142.588 55.0816 142.836 55.5447 142.836ZM60.1123 135.097H63.0692C65.1184 135.097 66.143 135.867 66.143 137.408C66.143 138.613 65.5467 139.269 64.354 139.375C65.0754 139.449 65.6081 139.689 65.9524 140.094C66.2966 140.496 66.4688 141.06 66.4688 141.785C66.4688 142.662 66.2003 143.299 65.6635 143.697C65.1307 144.09 64.2659 144.287 63.0692 144.287H60.1123V135.097ZM63.0692 138.674C63.5282 138.674 63.8541 138.594 64.0467 138.435C64.2434 138.271 64.3418 138 64.3418 137.623C64.3418 137.242 64.2413 136.967 64.0405 136.799C63.8438 136.627 63.52 136.541 63.0692 136.541H61.8643V138.674H63.0692ZM63.0692 142.836C63.643 142.836 64.0467 142.74 64.2803 142.547C64.5139 142.351 64.6307 142.01 64.6307 141.527C64.6307 141.027 64.5098 140.668 64.268 140.451C64.0262 140.23 63.6266 140.119 63.0692 140.119H61.8643V142.836H63.0692ZM67.6614 135.109H69.2597V141.779L71.8171 135.109H73.7658V144.287H72.1675V137.617L69.5978 144.287H67.6614V135.109ZM75.4871 135.109H81.2042V136.707H77.3006V138.687H80.8354V140.285H77.3006V142.689H81.2042V144.287H75.4871V135.109ZM90.8435 142.689H92.8721V136.978L91.4951 138.471L90.6344 137.574L92.8844 135.109H94.6364V142.689H96.6651V144.287H90.8435V142.689Z" fill="black"/>
<rect x="346" y="74" width="130" height="130" rx="65" fill="#DCFF00"/>
<rect x="346" y="74" width="130" height="130" rx="65" stroke="black" stroke-width="0.77"/>
<path d="M359.199 142.689H359.691C359.85 142.689 360 142.68 360.139 142.664C360.279 142.644 360.412 142.576 360.539 142.461C360.666 142.342 360.783 142.139 360.889 141.853L361.227 140.961L358.234 135.109H360.109L362.051 138.92L363.594 135.109H365.469L362.531 142.424C362.277 143.055 361.982 143.525 361.645 143.832C361.313 144.135 360.908 144.287 360.428 144.287H359.199V142.689ZM370.252 144.465C369.026 144.465 368.086 144.057 367.43 143.242C366.779 142.422 366.453 141.244 366.453 139.707C366.453 138.162 366.779 136.982 367.43 136.166C368.086 135.351 369.026 134.943 370.252 134.943C370.608 134.943 370.947 134.98 371.266 135.054C371.586 135.127 371.885 135.238 372.164 135.385V137.402C371.979 137.23 371.813 137.097 371.666 137.002C371.522 136.904 371.385 136.826 371.254 136.769C371.098 136.699 370.945 136.65 370.793 136.621C370.645 136.588 370.496 136.572 370.344 136.572C369.688 136.572 369.19 136.834 368.85 137.359C368.51 137.896 368.34 138.678 368.34 139.707C368.34 140.74 368.51 141.519 368.85 142.043C369.19 142.572 369.688 142.836 370.344 142.836C370.66 142.836 370.965 142.769 371.26 142.633C371.404 142.568 371.545 142.488 371.684 142.394C371.828 142.295 371.988 142.166 372.164 142.006V144.023C371.877 144.17 371.576 144.281 371.26 144.355C370.945 144.428 370.608 144.465 370.252 144.465ZM373.332 142.658H373.393C373.807 142.658 374.108 142.555 374.297 142.351C374.485 142.142 374.588 141.818 374.604 141.379C374.621 140.924 374.635 140.51 374.647 140.137C374.66 139.765 374.668 139.39 374.672 139.012C374.68 138.635 374.684 138.211 374.684 137.74V135.109H380.033V144.287H378.219V136.707H376.498V137.789C376.498 138.777 376.487 139.65 376.467 140.408C376.451 141.162 376.391 141.805 376.289 142.338C376.186 142.867 376.004 143.285 375.742 143.592C375.352 144.055 374.737 144.287 373.897 144.287H373.332V142.658ZM384.551 144.465C383.485 144.465 382.68 144.064 382.135 143.26C381.594 142.453 381.323 141.267 381.323 139.701C381.323 138.135 381.594 136.951 382.135 136.148C382.68 135.344 383.485 134.943 384.551 134.943C385.612 134.943 386.414 135.344 386.955 136.148C387.5 136.947 387.772 138.131 387.772 139.701C387.772 141.271 387.5 142.457 386.955 143.26C386.414 144.064 385.612 144.465 384.551 144.465ZM384.545 142.836C385.012 142.836 385.352 142.588 385.565 142.092C385.778 141.613 385.885 140.816 385.885 139.701C385.885 138.59 385.778 137.795 385.565 137.316C385.352 136.82 385.012 136.572 384.545 136.572C384.086 136.572 383.748 136.82 383.53 137.316C383.317 137.795 383.211 138.59 383.211 139.701C383.211 140.816 383.317 141.613 383.53 142.092C383.744 142.588 384.082 142.836 384.545 142.836ZM389.112 135.097H392.069C394.118 135.097 395.143 135.867 395.143 137.408C395.143 138.613 394.547 139.269 393.354 139.375C394.075 139.449 394.608 139.689 394.952 140.094C395.297 140.496 395.469 141.06 395.469 141.785C395.469 142.662 395.2 143.299 394.663 143.697C394.131 144.09 393.266 144.287 392.069 144.287H389.112V135.097ZM392.069 138.674C392.528 138.674 392.854 138.594 393.047 138.435C393.243 138.271 393.342 138 393.342 137.623C393.342 137.242 393.241 136.967 393.041 136.799C392.844 136.627 392.52 136.541 392.069 136.541H390.864V138.674H392.069ZM392.069 142.836C392.643 142.836 393.047 142.74 393.28 142.547C393.514 142.351 393.631 142.01 393.631 141.527C393.631 141.027 393.51 140.668 393.268 140.451C393.026 140.23 392.627 140.119 392.069 140.119H390.864V142.836H392.069ZM396.661 135.109H398.26V141.779L400.817 135.109H402.766V144.287H401.167V137.617L398.598 144.287H396.661V135.109ZM404.487 135.109H410.204V136.707H406.301V138.687H409.835V140.285H406.301V142.689H410.204V144.287H404.487V135.109ZM419.843 142.689H421.872V136.978L420.495 138.471L419.634 137.574L421.884 135.109H423.636V142.689H425.665V144.287H419.843V142.689Z" fill="black"/>
<rect x="114" y="75" width="130" height="130" rx="65" stroke="black" stroke-width="0.77"/>
<path d="M168.199 143.689H168.691C168.85 143.689 169 143.68 169.139 143.664C169.279 143.644 169.412 143.576 169.539 143.461C169.666 143.342 169.783 143.139 169.889 142.853L170.227 141.961L167.234 136.109H169.109L171.051 139.92L172.594 136.109H174.469L171.531 143.424C171.277 144.055 170.982 144.525 170.645 144.832C170.313 145.135 169.908 145.287 169.428 145.287H168.199V143.689ZM179.252 145.465C178.026 145.465 177.086 145.057 176.43 144.242C175.779 143.422 175.453 142.244 175.453 140.707C175.453 139.162 175.779 137.982 176.43 137.166C177.086 136.351 178.026 135.943 179.252 135.943C179.608 135.943 179.947 135.98 180.266 136.054C180.586 136.127 180.885 136.238 181.164 136.385V138.402C180.979 138.23 180.813 138.097 180.666 138.002C180.522 137.904 180.385 137.826 180.254 137.769C180.098 137.699 179.945 137.65 179.793 137.621C179.645 137.588 179.496 137.572 179.344 137.572C178.688 137.572 178.19 137.834 177.85 138.359C177.51 138.896 177.34 139.678 177.34 140.707C177.34 141.74 177.51 142.519 177.85 143.043C178.19 143.572 178.688 143.836 179.344 143.836C179.66 143.836 179.965 143.769 180.26 143.633C180.404 143.568 180.545 143.488 180.684 143.394C180.828 143.295 180.988 143.166 181.164 143.006V145.023C180.877 145.17 180.576 145.281 180.26 145.355C179.945 145.428 179.608 145.465 179.252 145.465ZM182.332 143.658H182.393C182.807 143.658 183.108 143.555 183.297 143.351C183.485 143.142 183.588 142.818 183.604 142.379C183.621 141.924 183.635 141.51 183.647 141.137C183.66 140.765 183.668 140.39 183.672 140.012C183.68 139.635 183.684 139.211 183.684 138.74V136.109H189.033V145.287H187.219V137.707H185.498V138.789C185.498 139.777 185.487 140.65 185.467 141.408C185.451 142.162 185.391 142.805 185.289 143.338C185.186 143.867 185.004 144.285 184.742 144.592C184.352 145.055 183.737 145.287 182.897 145.287H182.332V143.658ZM193.551 145.465C192.485 145.465 191.68 145.064 191.135 144.26C190.594 143.453 190.323 142.267 190.323 140.701C190.323 139.135 190.594 137.951 191.135 137.148C191.68 136.344 192.485 135.943 193.551 135.943C194.612 135.943 195.414 136.344 195.955 137.148C196.5 137.947 196.772 139.131 196.772 140.701C196.772 142.271 196.5 143.457 195.955 144.26C195.414 145.064 194.612 145.465 193.551 145.465ZM193.545 143.836C194.012 143.836 194.352 143.588 194.565 143.092C194.778 142.613 194.885 141.816 194.885 140.701C194.885 139.59 194.778 138.795 194.565 138.316C194.352 137.82 194.012 137.572 193.545 137.572C193.086 137.572 192.748 137.82 192.53 138.316C192.317 138.795 192.211 139.59 192.211 140.701C192.211 141.816 192.317 142.613 192.53 143.092C192.744 143.588 193.082 143.836 193.545 143.836ZM198.112 136.097H201.069C203.118 136.097 204.143 136.867 204.143 138.408C204.143 139.613 203.547 140.269 202.354 140.375C203.075 140.449 203.608 140.689 203.952 141.094C204.297 141.496 204.469 142.06 204.469 142.785C204.469 143.662 204.2 144.299 203.663 144.697C203.131 145.09 202.266 145.287 201.069 145.287H198.112V136.097ZM201.069 139.674C201.528 139.674 201.854 139.594 202.047 139.435C202.243 139.271 202.342 139 202.342 138.623C202.342 138.242 202.241 137.967 202.041 137.799C201.844 137.627 201.52 137.541 201.069 137.541H199.864V139.674H201.069ZM201.069 143.836C201.643 143.836 202.047 143.74 202.28 143.547C202.514 143.351 202.631 143.01 202.631 142.527C202.631 142.027 202.51 141.668 202.268 141.451C202.026 141.23 201.627 141.119 201.069 141.119H199.864V143.836H201.069ZM205.661 136.109H207.26V142.779L209.817 136.109H211.766V145.287H210.167V138.617L207.598 145.287H205.661V136.109ZM213.487 136.109H219.204V137.707H215.301V139.687H218.835V141.285H215.301V143.689H219.204V145.287H213.487V136.109ZM228.395 143.959C228.395 143.82 228.446 143.693 228.548 143.578L229.378 142.693C229.833 142.201 230.194 141.814 230.46 141.531C230.727 141.248 230.936 141.023 231.087 140.855C231.239 140.687 231.378 140.533 231.505 140.394C231.657 140.217 231.788 140.058 231.899 139.914C232.009 139.767 232.1 139.617 232.169 139.465C232.304 139.191 232.372 138.914 232.372 138.635C232.372 138.242 232.247 137.933 231.997 137.707C231.747 137.482 231.397 137.369 230.946 137.369C230.606 137.369 230.243 137.433 229.858 137.56C229.657 137.625 229.45 137.705 229.237 137.799C229.028 137.89 228.813 137.998 228.591 138.125V136.435C228.837 136.344 229.071 136.269 229.292 136.207C229.514 136.146 229.71 136.099 229.882 136.066C230.305 135.984 230.714 135.943 231.112 135.943C231.559 135.943 231.975 135.998 232.36 136.109C232.749 136.215 233.089 136.385 233.38 136.619C233.643 136.832 233.845 137.092 233.989 137.4C234.136 137.707 234.21 138.074 234.21 138.5C234.21 138.836 234.149 139.166 234.026 139.49C233.874 139.855 233.667 140.205 233.405 140.541C233.261 140.721 233.052 140.955 232.778 141.242C232.503 141.529 232.116 141.922 231.616 142.422C231.317 142.726 231.081 142.949 230.909 143.092C230.737 143.232 230.598 143.338 230.491 143.412C230.384 143.486 230.278 143.578 230.171 143.689H234.222V145.287H228.395V143.959Z" fill="black"/>
<rect x="439" y="75" width="130" height="130" rx="65" fill="#DCFF00"/>
<rect x="439" y="75" width="130" height="130" rx="65" stroke="black" stroke-width="0.77"/>
<path d="M489.199 143.689H489.691C489.85 143.689 490 143.68 490.139 143.664C490.279 143.644 490.412 143.576 490.539 143.461C490.666 143.342 490.783 143.139 490.889 142.853L491.227 141.961L488.234 136.109H490.109L492.051 139.92L493.594 136.109H495.469L492.531 143.424C492.277 144.055 491.982 144.525 491.645 144.832C491.313 145.135 490.908 145.287 490.428 145.287H489.199V143.689ZM500.252 145.465C499.026 145.465 498.086 145.057 497.43 144.242C496.779 143.422 496.453 142.244 496.453 140.707C496.453 139.162 496.779 137.982 497.43 137.166C498.086 136.351 499.026 135.943 500.252 135.943C500.608 135.943 500.947 135.98 501.266 136.054C501.586 136.127 501.885 136.238 502.164 136.385V138.402C501.979 138.23 501.813 138.097 501.666 138.002C501.522 137.904 501.385 137.826 501.254 137.769C501.098 137.699 500.945 137.65 500.793 137.621C500.645 137.588 500.496 137.572 500.344 137.572C499.688 137.572 499.19 137.834 498.85 138.359C498.51 138.896 498.34 139.678 498.34 140.707C498.34 141.74 498.51 142.519 498.85 143.043C499.19 143.572 499.688 143.836 500.344 143.836C500.66 143.836 500.965 143.769 501.26 143.633C501.404 143.568 501.545 143.488 501.684 143.394C501.828 143.295 501.988 143.166 502.164 143.006V145.023C501.877 145.17 501.576 145.281 501.26 145.355C500.945 145.428 500.608 145.465 500.252 145.465ZM503.332 143.658H503.393C503.807 143.658 504.108 143.555 504.297 143.351C504.485 143.142 504.588 142.818 504.604 142.379C504.621 141.924 504.635 141.51 504.647 141.137C504.66 140.765 504.668 140.39 504.672 140.012C504.68 139.635 504.684 139.211 504.684 138.74V136.109H510.033V145.287H508.219V137.707H506.498V138.789C506.498 139.777 506.487 140.65 506.467 141.408C506.451 142.162 506.391 142.805 506.289 143.338C506.186 143.867 506.004 144.285 505.742 144.592C505.352 145.055 504.737 145.287 503.897 145.287H503.332V143.658ZM514.551 145.465C513.485 145.465 512.68 145.064 512.135 144.26C511.594 143.453 511.323 142.267 511.323 140.701C511.323 139.135 511.594 137.951 512.135 137.148C512.68 136.344 513.485 135.943 514.551 135.943C515.612 135.943 516.414 136.344 516.955 137.148C517.5 137.947 517.772 139.131 517.772 140.701C517.772 142.271 517.5 143.457 516.955 144.26C516.414 145.064 515.612 145.465 514.551 145.465ZM514.545 143.836C515.012 143.836 515.352 143.588 515.565 143.092C515.778 142.613 515.885 141.816 515.885 140.701C515.885 139.59 515.778 138.795 515.565 138.316C515.352 137.82 515.012 137.572 514.545 137.572C514.086 137.572 513.748 137.82 513.53 138.316C513.317 138.795 513.211 139.59 513.211 140.701C513.211 141.816 513.317 142.613 513.53 143.092C513.744 143.588 514.082 143.836 514.545 143.836ZM519.112 136.097H522.069C524.118 136.097 525.143 136.867 525.143 138.408C525.143 139.613 524.547 140.269 523.354 140.375C524.075 140.449 524.608 140.689 524.952 141.094C525.297 141.496 525.469 142.06 525.469 142.785C525.469 143.662 525.2 144.299 524.663 144.697C524.131 145.09 523.266 145.287 522.069 145.287H519.112V136.097ZM522.069 139.674C522.528 139.674 522.854 139.594 523.047 139.435C523.243 139.271 523.342 139 523.342 138.623C523.342 138.242 523.241 137.967 523.041 137.799C522.844 137.627 522.52 137.541 522.069 137.541H520.864V139.674H522.069ZM522.069 143.836C522.643 143.836 523.047 143.74 523.28 143.547C523.514 143.351 523.631 143.01 523.631 142.527C523.631 142.027 523.51 141.668 523.268 141.451C523.026 141.23 522.627 141.119 522.069 141.119H520.864V143.836H522.069ZM526.661 136.109H528.26V142.779L530.817 136.109H532.766V145.287H531.167V138.617L528.598 145.287H526.661V136.109ZM534.487 136.109H540.204V137.707H536.301V139.687H539.835V141.285H536.301V143.689H540.204V145.287H534.487V136.109ZM549.395 143.959C549.395 143.82 549.446 143.693 549.548 143.578L550.378 142.693C550.833 142.201 551.194 141.814 551.46 141.531C551.727 141.248 551.936 141.023 552.087 140.855C552.239 140.687 552.378 140.533 552.505 140.394C552.657 140.217 552.788 140.058 552.899 139.914C553.009 139.767 553.1 139.617 553.169 139.465C553.304 139.191 553.372 138.914 553.372 138.635C553.372 138.242 553.247 137.933 552.997 137.707C552.747 137.482 552.397 137.369 551.946 137.369C551.606 137.369 551.243 137.433 550.858 137.56C550.657 137.625 550.45 137.705 550.237 137.799C550.028 137.89 549.813 137.998 549.591 138.125V136.435C549.837 136.344 550.071 136.269 550.292 136.207C550.514 136.146 550.71 136.099 550.882 136.066C551.305 135.984 551.714 135.943 552.112 135.943C552.559 135.943 552.975 135.998 553.36 136.109C553.749 136.215 554.089 136.385 554.38 136.619C554.643 136.832 554.845 137.092 554.989 137.4C555.136 137.707 555.21 138.074 555.21 138.5C555.21 138.836 555.149 139.166 555.026 139.49C554.874 139.855 554.667 140.205 554.405 140.541C554.261 140.721 554.052 140.955 553.778 141.242C553.503 141.529 553.116 141.922 552.616 142.422C552.317 142.726 552.081 142.949 551.909 143.092C551.737 143.232 551.598 143.338 551.491 143.412C551.384 143.486 551.278 143.578 551.171 143.689H555.222V145.287H549.395V143.959Z" fill="black"/>
<rect x="346" y="74" width="130" height="130" rx="65" stroke="black" stroke-width="0.77"/>
<path d="M359.199 142.689H359.691C359.85 142.689 360 142.68 360.139 142.664C360.279 142.644 360.412 142.576 360.539 142.461C360.666 142.342 360.783 142.139 360.889 141.853L361.227 140.961L358.234 135.109H360.109L362.051 138.92L363.594 135.109H365.469L362.531 142.424C362.277 143.055 361.982 143.525 361.645 143.832C361.313 144.135 360.908 144.287 360.428 144.287H359.199V142.689ZM370.252 144.465C369.026 144.465 368.086 144.057 367.43 143.242C366.779 142.422 366.453 141.244 366.453 139.707C366.453 138.162 366.779 136.982 367.43 136.166C368.086 135.351 369.026 134.943 370.252 134.943C370.608 134.943 370.947 134.98 371.266 135.054C371.586 135.127 371.885 135.238 372.164 135.385V137.402C371.979 137.23 371.813 137.097 371.666 137.002C371.522 136.904 371.385 136.826 371.254 136.769C371.098 136.699 370.945 136.65 370.793 136.621C370.645 136.588 370.496 136.572 370.344 136.572C369.688 136.572 369.19 136.834 368.85 137.359C368.51 137.896 368.34 138.678 368.34 139.707C368.34 140.74 368.51 141.519 368.85 142.043C369.19 142.572 369.688 142.836 370.344 142.836C370.66 142.836 370.965 142.769 371.26 142.633C371.404 142.568 371.545 142.488 371.684 142.394C371.828 142.295 371.988 142.166 372.164 142.006V144.023C371.877 144.17 371.576 144.281 371.26 144.355C370.945 144.428 370.608 144.465 370.252 144.465ZM373.332 142.658H373.393C373.807 142.658 374.108 142.555 374.297 142.351C374.485 142.142 374.588 141.818 374.604 141.379C374.621 140.924 374.635 140.51 374.647 140.137C374.66 139.765 374.668 139.39 374.672 139.012C374.68 138.635 374.684 138.211 374.684 137.74V135.109H380.033V144.287H378.219V136.707H376.498V137.789C376.498 138.777 376.487 139.65 376.467 140.408C376.451 141.162 376.391 141.805 376.289 142.338C376.186 142.867 376.004 143.285 375.742 143.592C375.352 144.055 374.737 144.287 373.897 144.287H373.332V142.658ZM384.551 144.465C383.485 144.465 382.68 144.064 382.135 143.26C381.594 142.453 381.323 141.267 381.323 139.701C381.323 138.135 381.594 136.951 382.135 136.148C382.68 135.344 383.485 134.943 384.551 134.943C385.612 134.943 386.414 135.344 386.955 136.148C387.5 136.947 387.772 138.131 387.772 139.701C387.772 141.271 387.5 142.457 386.955 143.26C386.414 144.064 385.612 144.465 384.551 144.465ZM384.545 142.836C385.012 142.836 385.352 142.588 385.565 142.092C385.778 141.613 385.885 140.816 385.885 139.701C385.885 138.59 385.778 137.795 385.565 137.316C385.352 136.82 385.012 136.572 384.545 136.572C384.086 136.572 383.748 136.82 383.53 137.316C383.317 137.795 383.211 138.59 383.211 139.701C383.211 140.816 383.317 141.613 383.53 142.092C383.744 142.588 384.082 142.836 384.545 142.836ZM389.112 135.097H392.069C394.118 135.097 395.143 135.867 395.143 137.408C395.143 138.613 394.547 139.269 393.354 139.375C394.075 139.449 394.608 139.689 394.952 140.094C395.297 140.496 395.469 141.06 395.469 141.785C395.469 142.662 395.2 143.299 394.663 143.697C394.131 144.09 393.266 144.287 392.069 144.287H389.112V135.097ZM392.069 138.674C392.528 138.674 392.854 138.594 393.047 138.435C393.243 138.271 393.342 138 393.342 137.623C393.342 137.242 393.241 136.967 393.041 136.799C392.844 136.627 392.52 136.541 392.069 136.541H390.864V138.674H392.069ZM392.069 142.836C392.643 142.836 393.047 142.74 393.28 142.547C393.514 142.351 393.631 142.01 393.631 141.527C393.631 141.027 393.51 140.668 393.268 140.451C393.026 140.23 392.627 140.119 392.069 140.119H390.864V142.836H392.069ZM396.661 135.109H398.26V141.779L400.817 135.109H402.766V144.287H401.167V137.617L398.598 144.287H396.661V135.109ZM404.487 135.109H410.204V136.707H406.301V138.687H409.835V140.285H406.301V142.689H410.204V144.287H404.487V135.109ZM419.843 142.689H421.872V136.978L420.495 138.471L419.634 137.574L421.884 135.109H423.636V142.689H425.665V144.287H419.843V142.689Z" fill="black"/>
<path d="M456.432 133H457.983V147H456.432V133Z" fill="black"/>
<path d="M131.933 147.212C130.854 147.212 129.973 146.893 129.289 146.253C128.61 145.618 128.271 144.788 128.271 143.763C128.271 143.382 128.315 143.035 128.403 142.723C128.491 142.41 128.62 142.112 128.791 141.829C129.138 141.253 129.648 140.748 130.322 140.313C130.19 140.103 130.08 139.91 129.992 139.734C129.904 139.559 129.833 139.397 129.78 139.251C129.663 138.929 129.604 138.609 129.604 138.292C129.604 137.53 129.87 136.934 130.402 136.504C130.939 136.08 131.708 135.867 132.709 135.867C132.895 135.867 133.073 135.875 133.244 135.889C133.415 135.904 133.586 135.923 133.757 135.948C134.108 136.001 134.445 136.08 134.768 136.182V138.057C134.143 137.701 133.505 137.522 132.856 137.522C132.465 137.522 132.172 137.591 131.977 137.728C131.777 137.869 131.677 138.064 131.677 138.313C131.677 138.411 131.694 138.519 131.728 138.636C131.762 138.748 131.821 138.887 131.904 139.053C132.05 139.356 132.29 139.759 132.622 140.262L134.914 143.777C135.017 143.602 135.095 143.389 135.148 143.14C135.202 142.872 135.229 142.613 135.229 142.364C135.229 142.295 135.227 142.222 135.222 142.144C135.222 142.066 135.219 141.995 135.214 141.932C135.209 141.805 135.195 141.675 135.17 141.543H136.892V141.917C136.892 142.64 136.809 143.257 136.643 143.77C136.477 144.307 136.215 144.783 135.859 145.198L137.045 147H134.724L134.372 146.473C134.182 146.6 133.994 146.707 133.808 146.795C133.623 146.878 133.422 146.954 133.208 147.022C133.002 147.085 132.8 147.132 132.6 147.161C132.399 147.195 132.177 147.212 131.933 147.212ZM132.248 145.484C132.365 145.484 132.502 145.467 132.658 145.433C132.727 145.418 132.79 145.403 132.849 145.389C132.912 145.369 132.988 145.34 133.076 145.301L133.134 145.271C133.232 145.223 133.298 145.188 133.332 145.169C133.371 145.149 133.42 145.12 133.479 145.081L131.223 141.646C130.9 141.856 130.659 142.105 130.498 142.393C130.332 142.676 130.249 143.006 130.249 143.382C130.249 143.704 130.302 143.99 130.41 144.239C130.517 144.483 130.654 144.693 130.82 144.869C131.206 145.279 131.682 145.484 132.248 145.484Z" fill="black"/>
</svg>
