<svg width="264" height="279" viewBox="0 0 264 279" fill="none" xmlns="http://www.w3.org/2000/svg">
<rect width="264" height="279" fill="white"/>
<path d="M133 94C144.446 105.717 151 122.326 151 140C151 157.674 143.446 173.283 132 185C120.554 173.283 114 157.674 114 140C114 122.326 121.554 105.717 133 94Z" fill="#DCFF00"/>
<path d="M85.3855 268V264.749H86.8624C87.2154 264.749 87.5266 264.817 87.796 264.953C88.0653 265.086 88.2759 265.274 88.4276 265.515C88.5793 265.757 88.6552 266.043 88.6552 266.374C88.6552 266.703 88.5793 266.989 88.4276 267.234C88.2759 267.475 88.0653 267.664 87.796 267.8C87.5266 267.933 87.2154 268 86.8624 268H85.3855ZM86.1379 267.382H86.8253C87.042 267.382 87.2293 267.342 87.3872 267.262C87.5483 267.178 87.6721 267.06 87.7588 266.909C87.8486 266.757 87.8935 266.579 87.8935 266.374C87.8935 266.167 87.8486 265.989 87.7588 265.84C87.6721 265.689 87.5483 265.573 87.3872 265.492C87.2293 265.408 87.042 265.367 86.8253 265.367H86.1379V267.382ZM90.7042 268V267.512L90.6577 267.406V266.532C90.6577 266.378 90.6097 266.257 90.5138 266.17C90.4209 266.083 90.2769 266.04 90.0818 266.04C89.9487 266.04 89.8171 266.062 89.687 266.105C89.5601 266.145 89.4517 266.201 89.3619 266.272L89.1018 265.766C89.2381 265.67 89.4022 265.596 89.5942 265.543C89.7861 265.49 89.9812 265.464 90.1794 265.464C90.5602 265.464 90.8559 265.554 91.0664 265.734C91.277 265.913 91.3823 266.193 91.3823 266.574V268H90.7042ZM89.9425 268.037C89.7474 268.037 89.5802 268.005 89.4409 267.94C89.3016 267.872 89.1947 267.78 89.1204 267.666C89.0461 267.551 89.009 267.423 89.009 267.28C89.009 267.131 89.0446 267.001 89.1158 266.89C89.1901 266.779 89.3062 266.692 89.4641 266.63C89.622 266.565 89.8279 266.532 90.0818 266.532H90.746V266.955H90.1608C89.9905 266.955 89.8728 266.983 89.8078 267.039C89.7459 267.094 89.7149 267.164 89.7149 267.248C89.7149 267.34 89.7505 267.415 89.8217 267.471C89.896 267.523 89.9967 267.549 90.1236 267.549C90.2444 267.549 90.3527 267.522 90.4487 267.466C90.5447 267.407 90.6144 267.322 90.6577 267.21L90.7692 267.545C90.7166 267.706 90.6206 267.828 90.4812 267.912C90.3419 267.995 90.1623 268.037 89.9425 268.037ZM93.0598 268.037C92.7656 268.037 92.5365 267.963 92.3724 267.814C92.2083 267.663 92.1262 267.438 92.1262 267.141V264.949H92.8508V267.131C92.8508 267.237 92.8786 267.319 92.9344 267.378C92.9901 267.433 93.066 267.461 93.162 267.461C93.2765 267.461 93.3741 267.43 93.4546 267.368L93.6496 267.879C93.5753 267.932 93.4855 267.972 93.3802 268C93.2781 268.025 93.1712 268.037 93.0598 268.037ZM91.7408 266.114V265.557H93.4731V266.114H91.7408ZM95.589 268V267.512L95.5426 267.406V266.532C95.5426 266.378 95.4946 266.257 95.3986 266.17C95.3057 266.083 95.1617 266.04 94.9667 266.04C94.8335 266.04 94.7019 266.062 94.5719 266.105C94.4449 266.145 94.3366 266.201 94.2468 266.272L93.9867 265.766C94.1229 265.67 94.287 265.596 94.479 265.543C94.671 265.49 94.866 265.464 95.0642 265.464C95.445 265.464 95.7407 265.554 95.9513 265.734C96.1618 265.913 96.2671 266.193 96.2671 266.574V268H95.589ZM94.8273 268.037C94.6323 268.037 94.4651 268.005 94.3257 267.94C94.1864 267.872 94.0796 267.78 94.0053 267.666C93.9309 267.551 93.8938 267.423 93.8938 267.28C93.8938 267.131 93.9294 267.001 94.0006 266.89C94.0749 266.779 94.191 266.692 94.3489 266.63C94.5069 266.565 94.7128 266.532 94.9667 266.532H95.6308V266.955H95.0456C94.8753 266.955 94.7577 266.983 94.6926 267.039C94.6307 267.094 94.5997 267.164 94.5997 267.248C94.5997 267.34 94.6353 267.415 94.7066 267.471C94.7809 267.523 94.8815 267.549 95.0085 267.549C95.1292 267.549 95.2376 267.522 95.3336 267.466C95.4295 267.407 95.4992 267.322 95.5426 267.21L95.654 267.545C95.6014 267.706 95.5054 267.828 95.3661 267.912C95.2267 267.995 95.0472 268.037 94.8273 268.037ZM99.8451 268.056C99.5943 268.056 99.3606 268.015 99.1438 267.935C98.9302 267.851 98.7444 267.734 98.5865 267.582C98.4286 267.43 98.3047 267.252 98.2149 267.048C98.1282 266.844 98.0849 266.619 98.0849 266.374C98.0849 266.13 98.1282 265.905 98.2149 265.701C98.3047 265.497 98.4286 265.319 98.5865 265.167C98.7475 265.015 98.9348 264.899 99.1485 264.819C99.3621 264.735 99.5959 264.693 99.8498 264.693C100.132 264.693 100.385 264.743 100.611 264.842C100.841 264.938 101.033 265.08 101.187 265.269L100.704 265.715C100.593 265.588 100.469 265.494 100.333 265.432C100.197 265.367 100.048 265.334 99.8869 265.334C99.7352 265.334 99.5959 265.359 99.4689 265.408C99.342 265.458 99.2321 265.529 99.1392 265.622C99.0463 265.715 98.9735 265.825 98.9209 265.952C98.8713 266.079 98.8466 266.22 98.8466 266.374C98.8466 266.529 98.8713 266.67 98.9209 266.797C98.9735 266.924 99.0463 267.034 99.1392 267.127C99.2321 267.22 99.342 267.291 99.4689 267.34C99.5959 267.39 99.7352 267.415 99.8869 267.415C100.048 267.415 100.197 267.384 100.333 267.322C100.469 267.257 100.593 267.159 100.704 267.029L101.187 267.475C101.033 267.664 100.841 267.808 100.611 267.907C100.385 268.006 100.13 268.056 99.8451 268.056ZM102.64 268.037C102.432 268.037 102.246 267.997 102.082 267.916C101.921 267.836 101.796 267.714 101.706 267.549C101.616 267.382 101.571 267.17 101.571 266.913V265.501H102.296V266.806C102.296 267.014 102.339 267.167 102.426 267.266C102.516 267.362 102.641 267.41 102.802 267.41C102.914 267.41 103.013 267.387 103.1 267.34C103.186 267.291 103.254 267.217 103.304 267.118C103.353 267.015 103.378 266.888 103.378 266.737V265.501H104.103V268H103.415V267.313L103.541 267.512C103.457 267.686 103.333 267.817 103.169 267.907C103.008 267.994 102.832 268.037 102.64 268.037ZM104.774 268V264.554H105.498V268H104.774ZM107.379 268.037C107.084 268.037 106.855 267.963 106.691 267.814C106.527 267.663 106.445 267.438 106.445 267.141V264.949H107.17V267.131C107.17 267.237 107.198 267.319 107.253 267.378C107.309 267.433 107.385 267.461 107.481 267.461C107.595 267.461 107.693 267.43 107.773 267.368L107.968 267.879C107.894 267.932 107.804 267.972 107.699 268C107.597 268.025 107.49 268.037 107.379 268.037ZM106.06 266.114V265.557H107.792V266.114H106.06ZM109.429 268.037C109.222 268.037 109.036 267.997 108.872 267.916C108.711 267.836 108.586 267.714 108.496 267.549C108.406 267.382 108.361 267.17 108.361 266.913V265.501H109.086V266.806C109.086 267.014 109.129 267.167 109.216 267.266C109.306 267.362 109.431 267.41 109.592 267.41C109.704 267.41 109.803 267.387 109.889 267.34C109.976 267.291 110.044 267.217 110.094 267.118C110.143 267.015 110.168 266.888 110.168 266.737V265.501H110.892V268H110.205V267.313L110.331 267.512C110.247 267.686 110.123 267.817 109.959 267.907C109.798 267.994 109.621 268.037 109.429 268.037ZM111.564 268V265.501H112.256V266.207L112.158 266.003C112.233 265.826 112.352 265.693 112.516 265.603C112.68 265.511 112.88 265.464 113.115 265.464V266.133C113.084 266.13 113.056 266.128 113.031 266.128C113.007 266.125 112.98 266.124 112.952 266.124C112.754 266.124 112.593 266.181 112.469 266.295C112.349 266.407 112.288 266.582 112.288 266.82V268H111.564ZM114.768 268.037C114.483 268.037 114.232 267.981 114.015 267.87C113.802 267.758 113.636 267.607 113.518 267.415C113.401 267.22 113.342 266.998 113.342 266.751C113.342 266.5 113.399 266.278 113.514 266.086C113.631 265.891 113.791 265.74 113.992 265.631C114.193 265.52 114.421 265.464 114.675 265.464C114.919 265.464 115.139 265.517 115.334 265.622C115.532 265.724 115.689 265.873 115.803 266.068C115.918 266.26 115.975 266.491 115.975 266.76C115.975 266.788 115.974 266.82 115.971 266.857C115.968 266.892 115.964 266.924 115.961 266.955H113.932V266.532H115.58L115.302 266.658C115.302 266.528 115.275 266.415 115.223 266.319C115.17 266.223 115.097 266.148 115.005 266.096C114.912 266.04 114.803 266.012 114.679 266.012C114.556 266.012 114.446 266.04 114.35 266.096C114.257 266.148 114.184 266.224 114.131 266.323C114.079 266.419 114.052 266.534 114.052 266.667V266.779C114.052 266.915 114.082 267.036 114.141 267.141C114.203 267.243 114.288 267.322 114.396 267.378C114.508 267.43 114.638 267.457 114.786 267.457C114.919 267.457 115.036 267.436 115.135 267.396C115.237 267.356 115.33 267.296 115.413 267.215L115.799 267.633C115.684 267.763 115.54 267.864 115.367 267.935C115.193 268.003 114.994 268.037 114.768 268.037ZM116.732 268.037C116.608 268.037 116.501 267.995 116.411 267.912C116.324 267.825 116.281 267.715 116.281 267.582C116.281 267.449 116.324 267.342 116.411 267.262C116.501 267.178 116.608 267.136 116.732 267.136C116.859 267.136 116.965 267.178 117.052 267.262C117.139 267.342 117.182 267.449 117.182 267.582C117.182 267.715 117.139 267.825 117.052 267.912C116.965 267.995 116.859 268.037 116.732 268.037ZM118.775 264.749H119.643L120.317 265.734L120.99 264.749H121.873L120.791 266.305L121.961 268H121.074L120.317 266.922L119.569 268H118.701L119.862 266.337L118.775 264.749ZM123.435 268.037C123.15 268.037 122.899 267.981 122.683 267.87C122.469 267.758 122.303 267.607 122.186 267.415C122.068 267.22 122.009 266.998 122.009 266.751C122.009 266.5 122.067 266.278 122.181 266.086C122.299 265.891 122.458 265.74 122.659 265.631C122.861 265.52 123.088 265.464 123.342 265.464C123.587 265.464 123.807 265.517 124.002 265.622C124.2 265.724 124.356 265.873 124.471 266.068C124.585 266.26 124.643 266.491 124.643 266.76C124.643 266.788 124.641 266.82 124.638 266.857C124.635 266.892 124.632 266.924 124.629 266.955H122.599V266.532H124.248L123.969 266.658C123.969 266.528 123.943 266.415 123.89 266.319C123.838 266.223 123.765 266.148 123.672 266.096C123.579 266.04 123.471 266.012 123.347 266.012C123.223 266.012 123.113 266.04 123.017 266.096C122.924 266.148 122.851 266.224 122.799 266.323C122.746 266.419 122.72 266.534 122.72 266.667V266.779C122.72 266.915 122.749 267.036 122.808 267.141C122.87 267.243 122.955 267.322 123.064 267.378C123.175 267.43 123.305 267.457 123.454 267.457C123.587 267.457 123.703 267.436 123.802 267.396C123.904 267.356 123.997 267.296 124.081 267.215L124.466 267.633C124.352 267.763 124.208 267.864 124.034 267.935C123.861 268.003 123.661 268.037 123.435 268.037ZM125.198 268V265.501H125.918V266.477H127.005V265.501H127.729V268H127.005V267.066H125.918V268H125.198ZM130.141 267.675V266.096H129.324L129.31 266.416C129.304 266.549 129.296 266.676 129.287 266.797C129.277 266.918 129.259 267.028 129.231 267.127C129.206 267.223 129.169 267.305 129.12 267.373C129.07 267.438 129.003 267.483 128.92 267.508L128.205 267.406C128.294 267.406 128.367 267.379 128.423 267.327C128.479 267.271 128.522 267.195 128.553 267.099C128.584 267 128.607 266.888 128.623 266.765C128.638 266.638 128.649 266.504 128.655 266.365L128.688 265.501H130.866V267.675H130.141ZM128.121 268.539V267.406H131.223V268.539H130.55V268H128.794V268.539H128.121ZM132.919 268.056C132.715 268.056 132.529 268.026 132.362 267.967C132.195 267.906 132.049 267.811 131.926 267.684C131.805 267.554 131.71 267.388 131.642 267.187C131.577 266.986 131.545 266.746 131.545 266.467C131.545 266.269 131.562 266.088 131.596 265.924C131.63 265.76 131.681 265.611 131.749 265.478C131.817 265.342 131.904 265.223 132.009 265.12C132.118 265.015 132.243 264.928 132.385 264.86C132.531 264.789 132.695 264.735 132.878 264.698L134.067 264.461L134.164 265.083L133.115 265.292C133.053 265.305 132.981 265.322 132.901 265.343C132.823 265.362 132.745 265.391 132.664 265.432C132.587 265.472 132.514 265.529 132.446 265.603C132.381 265.675 132.328 265.769 132.288 265.887C132.248 266.001 132.227 266.144 132.227 266.314C132.227 266.367 132.229 266.407 132.232 266.435C132.238 266.463 132.243 266.492 132.246 266.523C132.252 266.554 132.255 266.602 132.255 266.667L132.023 266.439C132.091 266.294 132.178 266.17 132.283 266.068C132.392 265.966 132.515 265.888 132.655 265.836C132.797 265.78 132.955 265.752 133.128 265.752C133.364 265.752 133.57 265.8 133.746 265.896C133.926 265.989 134.065 266.121 134.164 266.291C134.263 266.461 134.313 266.655 134.313 266.871C134.313 267.107 134.254 267.314 134.136 267.494C134.019 267.67 133.855 267.808 133.644 267.907C133.437 268.006 133.195 268.056 132.919 268.056ZM132.957 267.494C133.077 267.494 133.184 267.467 133.277 267.415C133.37 267.359 133.441 267.286 133.491 267.197C133.543 267.104 133.57 267 133.57 266.885C133.57 266.774 133.543 266.675 133.491 266.588C133.441 266.501 133.37 266.433 133.277 266.384C133.184 266.334 133.076 266.309 132.952 266.309C132.831 266.309 132.723 266.334 132.627 266.384C132.531 266.43 132.457 266.495 132.404 266.579C132.351 266.662 132.325 266.76 132.325 266.871C132.325 266.986 132.351 267.091 132.404 267.187C132.46 267.28 132.534 267.354 132.627 267.41C132.723 267.466 132.833 267.494 132.957 267.494ZM135.075 268.938C134.945 268.938 134.817 268.918 134.69 268.878C134.563 268.838 134.459 268.782 134.379 268.711L134.643 268.195C134.699 268.245 134.763 268.283 134.834 268.311C134.908 268.339 134.981 268.353 135.052 268.353C135.154 268.353 135.235 268.328 135.294 268.279C135.356 268.232 135.411 268.153 135.461 268.042L135.591 267.735L135.647 267.656L136.543 265.501H137.24L136.111 268.153C136.031 268.355 135.938 268.512 135.832 268.627C135.73 268.742 135.616 268.822 135.489 268.869C135.365 268.915 135.227 268.938 135.075 268.938ZM135.503 268.098L134.388 265.501H135.136L136 267.591L135.503 268.098ZM139.359 268L138.523 266.816L139.113 266.467L140.213 268H139.359ZM137.589 268V265.501H138.314V268H137.589ZM138.1 267.053V266.472H138.973V267.053H138.1ZM139.182 266.834L138.504 266.76L139.382 265.501H140.153L139.182 266.834ZM141.884 268V265.501H144.369V268H143.645V265.933L143.807 266.096H142.442L142.604 265.933V268H141.884ZM146.234 268.037C145.968 268.037 145.731 267.981 145.524 267.87C145.319 267.758 145.157 267.607 145.036 267.415C144.918 267.22 144.86 266.998 144.86 266.751C144.86 266.5 144.918 266.278 145.036 266.086C145.157 265.891 145.319 265.74 145.524 265.631C145.731 265.52 145.968 265.464 146.234 265.464C146.497 265.464 146.733 265.52 146.94 265.631C147.148 265.74 147.31 265.89 147.428 266.082C147.546 266.274 147.604 266.497 147.604 266.751C147.604 266.998 147.546 267.22 147.428 267.415C147.31 267.607 147.148 267.758 146.94 267.87C146.733 267.981 146.497 268.037 146.234 268.037ZM146.234 267.443C146.355 267.443 146.463 267.415 146.559 267.359C146.655 267.303 146.731 267.224 146.787 267.122C146.843 267.017 146.871 266.893 146.871 266.751C146.871 266.605 146.843 266.481 146.787 266.379C146.731 266.277 146.655 266.198 146.559 266.142C146.463 266.086 146.355 266.059 146.234 266.059C146.114 266.059 146.005 266.086 145.909 266.142C145.813 266.198 145.736 266.277 145.677 266.379C145.621 266.481 145.593 266.605 145.593 266.751C145.593 266.893 145.621 267.017 145.677 267.122C145.736 267.224 145.813 267.303 145.909 267.359C146.005 267.415 146.114 267.443 146.234 267.443ZM150.914 268V267.512L150.867 267.406V266.532C150.867 266.378 150.819 266.257 150.723 266.17C150.63 266.083 150.486 266.04 150.291 266.04C150.158 266.04 150.027 266.062 149.896 266.105C149.77 266.145 149.661 266.201 149.571 266.272L149.311 265.766C149.447 265.67 149.612 265.596 149.804 265.543C149.996 265.49 150.191 265.464 150.389 265.464C150.77 265.464 151.065 265.554 151.276 265.734C151.486 265.913 151.592 266.193 151.592 266.574V268H150.914ZM150.152 268.037C149.957 268.037 149.79 268.005 149.65 267.94C149.511 267.872 149.404 267.78 149.33 267.666C149.256 267.551 149.218 267.423 149.218 267.28C149.218 267.131 149.254 267.001 149.325 266.89C149.4 266.779 149.516 266.692 149.674 266.63C149.831 266.565 150.037 266.532 150.291 266.532H150.955V266.955H150.37C150.2 266.955 150.082 266.983 150.017 267.039C149.955 267.094 149.924 267.164 149.924 267.248C149.924 267.34 149.96 267.415 150.031 267.471C150.105 267.523 150.206 267.549 150.333 267.549C150.454 267.549 150.562 267.522 150.658 267.466C150.754 267.407 150.824 267.322 150.867 267.21L150.979 267.545C150.926 267.706 150.83 267.828 150.691 267.912C150.551 267.995 150.372 268.037 150.152 268.037ZM152.221 268V265.501H152.941V266.477H154.028V265.501H154.752V268H154.028V267.066H152.941V268H152.221ZM156.941 268V267.512L156.895 267.406V266.532C156.895 266.378 156.847 266.257 156.751 266.17C156.658 266.083 156.514 266.04 156.319 266.04C156.186 266.04 156.054 266.062 155.924 266.105C155.797 266.145 155.689 266.201 155.599 266.272L155.339 265.766C155.475 265.67 155.639 265.596 155.831 265.543C156.023 265.49 156.218 265.464 156.417 265.464C156.797 265.464 157.093 265.554 157.304 265.734C157.514 265.913 157.619 266.193 157.619 266.574V268H156.941ZM156.18 268.037C155.985 268.037 155.817 268.005 155.678 267.94C155.539 267.872 155.432 267.78 155.358 267.666C155.283 267.551 155.246 267.423 155.246 267.28C155.246 267.131 155.282 267.001 155.353 266.89C155.427 266.779 155.543 266.692 155.701 266.63C155.859 266.565 156.065 266.532 156.319 266.532H156.983V266.955H156.398C156.228 266.955 156.11 266.983 156.045 267.039C155.983 267.094 155.952 267.164 155.952 267.248C155.952 267.34 155.988 267.415 156.059 267.471C156.133 267.523 156.234 267.549 156.361 267.549C156.482 267.549 156.59 267.522 156.686 267.466C156.782 267.407 156.852 267.322 156.895 267.21L157.006 267.545C156.954 267.706 156.858 267.828 156.718 267.912C156.579 267.995 156.4 268.037 156.18 268.037ZM157.933 267.995L157.97 267.401C157.989 267.404 158.007 267.407 158.026 267.41C158.045 267.41 158.062 267.41 158.077 267.41C158.164 267.41 158.232 267.385 158.281 267.336C158.331 267.286 158.368 267.22 158.393 267.136C158.418 267.049 158.435 266.952 158.444 266.844C158.456 266.735 158.466 266.622 158.472 266.504L158.509 265.501H160.645V268H159.921V265.919L160.083 266.096H158.987L159.141 265.91L159.108 266.537C159.099 266.76 159.08 266.964 159.052 267.15C159.028 267.336 158.986 267.497 158.927 267.633C158.868 267.766 158.789 267.87 158.69 267.944C158.591 268.015 158.464 268.051 158.309 268.051C158.254 268.051 158.195 268.046 158.133 268.037C158.071 268.028 158.004 268.014 157.933 267.995ZM161.342 268V265.501H162.062V266.988L163.279 265.501H163.943V268H163.223V266.514L162.011 268H161.342ZM165.462 268.046C165.27 268.046 165.078 268.026 164.886 267.986C164.697 267.946 164.522 267.885 164.361 267.805L164.556 267.299C164.683 267.361 164.821 267.409 164.97 267.443C165.122 267.474 165.275 267.489 165.43 267.489C165.541 267.489 165.637 267.478 165.718 267.457C165.801 267.432 165.865 267.398 165.908 267.354C165.951 267.311 165.973 267.258 165.973 267.197C165.973 267.116 165.939 267.056 165.871 267.015C165.803 266.972 165.704 266.95 165.574 266.95H165.063V266.5H165.513C165.597 266.5 165.668 266.491 165.727 266.472C165.786 266.453 165.829 266.427 165.857 266.393C165.888 266.356 165.903 266.313 165.903 266.263C165.903 266.21 165.885 266.165 165.848 266.128C165.81 266.091 165.756 266.063 165.685 266.045C165.614 266.023 165.524 266.012 165.416 266.012C165.292 266.012 165.163 266.028 165.03 266.059C164.897 266.086 164.761 266.128 164.621 266.184L164.445 265.682C164.609 265.614 164.772 265.56 164.933 265.52C165.094 265.48 165.253 265.458 165.411 265.455C165.643 265.449 165.852 265.473 166.038 265.529C166.224 265.585 166.369 265.665 166.475 265.771C166.583 265.876 166.637 266.004 166.637 266.156C166.637 266.277 166.6 266.385 166.526 266.481C166.454 266.577 166.355 266.653 166.228 266.709C166.102 266.761 165.959 266.788 165.801 266.788L165.82 266.644C166.095 266.644 166.312 266.7 166.47 266.811C166.628 266.919 166.707 267.068 166.707 267.257C166.707 267.418 166.651 267.559 166.54 267.68C166.431 267.797 166.283 267.889 166.094 267.954C165.908 268.015 165.697 268.046 165.462 268.046ZM167.564 268.938C167.434 268.938 167.305 268.918 167.178 268.878C167.051 268.838 166.948 268.782 166.867 268.711L167.132 268.195C167.188 268.245 167.251 268.283 167.322 268.311C167.397 268.339 167.469 268.353 167.541 268.353C167.643 268.353 167.723 268.328 167.782 268.279C167.844 268.232 167.9 268.153 167.949 268.042L168.079 267.735L168.135 267.656L169.031 265.501H169.728L168.6 268.153C168.519 268.355 168.426 268.512 168.321 268.627C168.219 268.742 168.104 268.822 167.977 268.869C167.853 268.915 167.716 268.938 167.564 268.938ZM167.991 268.098L166.876 265.501H167.624L168.488 267.591L167.991 268.098ZM173.111 267.675V266.096H172.294L172.28 266.416C172.274 266.549 172.266 266.676 172.257 266.797C172.248 266.918 172.229 267.028 172.201 267.127C172.176 267.223 172.139 267.305 172.09 267.373C172.04 267.438 171.974 267.483 171.89 267.508L171.175 267.406C171.265 267.406 171.337 267.379 171.393 267.327C171.449 267.271 171.492 267.195 171.523 267.099C171.554 267 171.577 266.888 171.593 266.765C171.608 266.638 171.619 266.504 171.625 266.365L171.658 265.501H173.836V267.675H173.111ZM171.091 268.539V267.406H174.194V268.539H173.52V268H171.765V268.539H171.091ZM176.145 268V267.512L176.099 267.406V266.532C176.099 266.378 176.051 266.257 175.955 266.17C175.862 266.083 175.718 266.04 175.523 266.04C175.39 266.04 175.258 266.062 175.128 266.105C175.001 266.145 174.893 266.201 174.803 266.272L174.543 265.766C174.679 265.67 174.843 265.596 175.035 265.543C175.227 265.49 175.422 265.464 175.62 265.464C176.001 265.464 176.297 265.554 176.507 265.734C176.718 265.913 176.823 266.193 176.823 266.574V268H176.145ZM175.383 268.037C175.188 268.037 175.021 268.005 174.882 267.94C174.742 267.872 174.636 267.78 174.561 267.666C174.487 267.551 174.45 267.423 174.45 267.28C174.45 267.131 174.485 267.001 174.557 266.89C174.631 266.779 174.747 266.692 174.905 266.63C175.063 266.565 175.269 266.532 175.523 266.532H176.187V266.955H175.602C175.431 266.955 175.314 266.983 175.249 267.039C175.187 267.094 175.156 267.164 175.156 267.248C175.156 267.34 175.191 267.415 175.263 267.471C175.337 267.523 175.438 267.549 175.565 267.549C175.685 267.549 175.794 267.522 175.89 267.466C175.986 267.407 176.055 267.322 176.099 267.21L176.21 267.545C176.157 267.706 176.061 267.828 175.922 267.912C175.783 267.995 175.603 268.037 175.383 268.037ZM177.453 268V265.501H178.172V266.477H179.259V265.501H179.984V268H179.259V267.066H178.172V268H177.453ZM180.677 268V265.501H181.397V266.477H182.484V265.501H183.209V268H182.484V267.066H181.397V268H180.677ZM186.475 268V265.501H187.195V268H186.475ZM185.217 266.3C185.545 266.303 185.791 266.378 185.955 266.523C186.122 266.665 186.206 266.868 186.206 267.131C186.206 267.407 186.111 267.622 185.923 267.777C185.734 267.929 185.466 268.005 185.119 268.005L183.902 268V265.501H184.622V266.3H185.217ZM185.054 267.489C185.193 267.492 185.3 267.463 185.374 267.401C185.449 267.339 185.486 267.246 185.486 267.122C185.486 266.998 185.449 266.91 185.374 266.857C185.3 266.802 185.193 266.772 185.054 266.769L184.622 266.765V267.489H185.054ZM187.559 268L188.678 266.532L188.664 266.932L187.592 265.501H188.404L189.082 266.435L188.776 266.444L189.477 265.501H190.248L189.171 266.918V266.528L190.285 268H189.463L188.753 267.006L189.055 267.048L188.349 268H187.559ZM190.902 268.037C190.778 268.037 190.671 267.995 190.582 267.912C190.495 267.825 190.452 267.715 190.452 267.582C190.452 267.449 190.495 267.342 190.582 267.262C190.671 267.178 190.778 267.136 190.902 267.136C191.029 267.136 191.136 267.178 191.223 267.262C191.309 267.342 191.353 267.449 191.353 267.582C191.353 267.715 191.309 267.825 191.223 267.912C191.136 267.995 191.029 268.037 190.902 268.037ZM195.458 264.749H196.21V268H195.458V264.749ZM193.981 268H193.229V264.749H193.981V268ZM195.514 266.667H193.925V266.031H195.514V266.667ZM198.465 268V267.512L198.418 267.406V266.532C198.418 266.378 198.37 266.257 198.274 266.17C198.181 266.083 198.037 266.04 197.842 266.04C197.709 266.04 197.578 266.062 197.448 266.105C197.321 266.145 197.212 266.201 197.122 266.272L196.862 265.766C196.999 265.67 197.163 265.596 197.355 265.543C197.547 265.49 197.742 265.464 197.94 265.464C198.321 265.464 198.616 265.554 198.827 265.734C199.038 265.913 199.143 266.193 199.143 266.574V268H198.465ZM197.703 268.037C197.508 268.037 197.341 268.005 197.201 267.94C197.062 267.872 196.955 267.78 196.881 267.666C196.807 267.551 196.77 267.423 196.77 267.28C196.77 267.131 196.805 267.001 196.876 266.89C196.951 266.779 197.067 266.692 197.225 266.63C197.383 266.565 197.588 266.532 197.842 266.532H198.507V266.955H197.921C197.751 266.955 197.633 266.983 197.568 267.039C197.506 267.094 197.475 267.164 197.475 267.248C197.475 267.34 197.511 267.415 197.582 267.471C197.657 267.523 197.757 267.549 197.884 267.549C198.005 267.549 198.113 267.522 198.209 267.466C198.305 267.407 198.375 267.322 198.418 267.21L198.53 267.545C198.477 267.706 198.381 267.828 198.242 267.912C198.102 267.995 197.923 268.037 197.703 268.037ZM201.347 267.043C201.244 267.099 201.131 267.144 201.008 267.178C200.884 267.212 200.748 267.229 200.599 267.229C200.271 267.229 200.018 267.155 199.842 267.006C199.665 266.854 199.577 266.614 199.577 266.286V265.501H200.302V266.24C200.302 266.395 200.342 266.506 200.422 266.574C200.503 266.639 200.616 266.672 200.761 266.672C200.867 266.672 200.967 266.659 201.063 266.635C201.162 266.61 201.257 266.574 201.347 266.528V267.043ZM201.296 268V265.501H202.02V268H201.296ZM204.211 268V267.512L204.165 267.406V266.532C204.165 266.378 204.117 266.257 204.021 266.17C203.928 266.083 203.784 266.04 203.589 266.04C203.456 266.04 203.324 266.062 203.194 266.105C203.067 266.145 202.959 266.201 202.869 266.272L202.609 265.766C202.745 265.67 202.909 265.596 203.101 265.543C203.293 265.49 203.488 265.464 203.686 265.464C204.067 265.464 204.363 265.554 204.574 265.734C204.784 265.913 204.889 266.193 204.889 266.574V268H204.211ZM203.45 268.037C203.255 268.037 203.087 268.005 202.948 267.94C202.809 267.872 202.702 267.78 202.628 267.666C202.553 267.551 202.516 267.423 202.516 267.28C202.516 267.131 202.552 267.001 202.623 266.89C202.697 266.779 202.813 266.692 202.971 266.63C203.129 266.565 203.335 266.532 203.589 266.532H204.253V266.955H203.668C203.498 266.955 203.38 266.983 203.315 267.039C203.253 267.094 203.222 267.164 203.222 267.248C203.222 267.34 203.258 267.415 203.329 267.471C203.403 267.523 203.504 267.549 203.631 267.549C203.752 267.549 203.86 267.522 203.956 267.466C204.052 267.407 204.122 267.322 204.165 267.21L204.276 267.545C204.224 267.706 204.128 267.828 203.988 267.912C203.849 267.995 203.669 268.037 203.45 268.037ZM205.203 267.995L205.24 267.401C205.259 267.404 205.277 267.407 205.296 267.41C205.314 267.41 205.331 267.41 205.347 267.41C205.434 267.41 205.502 267.385 205.551 267.336C205.601 267.286 205.638 267.22 205.663 267.136C205.688 267.049 205.705 266.952 205.714 266.844C205.726 266.735 205.736 266.622 205.742 266.504L205.779 265.501H207.915V268H207.191V265.919L207.353 266.096H206.257L206.411 265.91L206.378 266.537C206.369 266.76 206.35 266.964 206.322 267.15C206.298 267.336 206.256 267.497 206.197 267.633C206.138 267.766 206.059 267.87 205.96 267.944C205.861 268.015 205.734 268.051 205.579 268.051C205.523 268.051 205.465 268.046 205.403 268.037C205.341 268.028 205.274 268.014 205.203 267.995ZM209.964 266.3C210.292 266.303 210.541 266.378 210.711 266.523C210.885 266.665 210.971 266.868 210.971 267.131C210.971 267.407 210.874 267.622 210.679 267.777C210.484 267.929 210.213 268.005 209.866 268.005L208.612 268V265.501H209.332V266.3H209.964ZM209.801 267.489C209.94 267.492 210.047 267.463 210.122 267.401C210.196 267.339 210.233 267.246 210.233 267.122C210.233 266.998 210.196 266.91 210.122 266.857C210.047 266.802 209.94 266.772 209.801 266.769L209.332 266.765V267.489H209.801ZM211.424 268V265.501H212.144V266.477H213.231V265.501H213.955V268H213.231V267.066H212.144V268H211.424ZM217.222 268V265.501H217.942V268H217.222ZM215.963 266.3C216.292 266.303 216.538 266.378 216.702 266.523C216.869 266.665 216.953 266.868 216.953 267.131C216.953 267.407 216.858 267.622 216.669 267.777C216.48 267.929 216.213 268.005 215.866 268.005L214.649 268V265.501H215.369V266.3H215.963ZM215.801 267.489C215.94 267.492 216.047 267.463 216.121 267.401C216.196 267.339 216.233 267.246 216.233 267.122C216.233 266.998 216.196 266.91 216.121 266.857C216.047 266.802 215.94 266.772 215.801 266.769L215.369 266.765V267.489H215.801ZM218.64 268V265.501H219.36V266.988L220.577 265.501H221.241V268H220.521V266.514L219.309 268H218.64ZM219.894 265.232C219.622 265.232 219.417 265.173 219.281 265.055C219.145 264.935 219.075 264.754 219.072 264.512H219.546C219.549 264.617 219.578 264.701 219.634 264.763C219.69 264.825 219.775 264.856 219.89 264.856C220.001 264.856 220.086 264.825 220.145 264.763C220.207 264.701 220.238 264.617 220.238 264.512H220.721C220.721 264.754 220.651 264.935 220.512 265.055C220.373 265.173 220.167 265.232 219.894 265.232ZM223.592 268.938C223.462 268.938 223.333 268.918 223.207 268.878C223.08 268.838 222.976 268.782 222.895 268.711L223.16 268.195C223.216 268.245 223.279 268.283 223.35 268.311C223.425 268.339 223.498 268.353 223.569 268.353C223.671 268.353 223.751 268.328 223.81 268.279C223.872 268.232 223.928 268.153 223.977 268.042L224.108 267.735L224.163 267.656L225.06 265.501H225.756L224.628 268.153C224.547 268.355 224.454 268.512 224.349 268.627C224.247 268.742 224.132 268.822 224.005 268.869C223.881 268.915 223.744 268.938 223.592 268.938ZM224.019 268.098L222.905 265.501H223.652L224.516 267.591L224.019 268.098ZM227.578 268.037C227.368 268.037 227.183 267.991 227.025 267.898C226.868 267.805 226.744 267.664 226.654 267.475C226.567 267.283 226.524 267.042 226.524 266.751C226.524 266.456 226.566 266.215 226.649 266.026C226.733 265.837 226.854 265.696 227.012 265.603C227.169 265.511 227.358 265.464 227.578 265.464C227.813 265.464 228.024 265.518 228.21 265.627C228.399 265.732 228.547 265.881 228.656 266.073C228.767 266.265 228.823 266.491 228.823 266.751C228.823 267.014 228.767 267.241 228.656 267.433C228.547 267.625 228.399 267.774 228.21 267.879C228.024 267.985 227.813 268.037 227.578 268.037ZM226.101 268.901V265.501H226.793V266.012L226.779 266.755L226.826 267.494V268.901H226.101ZM227.453 267.443C227.573 267.443 227.68 267.415 227.773 267.359C227.869 267.303 227.945 267.224 228.001 267.122C228.06 267.017 228.089 266.893 228.089 266.751C228.089 266.605 228.06 266.481 228.001 266.379C227.945 266.277 227.869 266.198 227.773 266.142C227.68 266.086 227.573 266.059 227.453 266.059C227.332 266.059 227.224 266.086 227.128 266.142C227.032 266.198 226.956 266.277 226.9 266.379C226.844 266.481 226.816 266.605 226.816 266.751C226.816 266.893 226.844 267.017 226.9 267.122C226.956 267.224 227.032 267.303 227.128 267.359C227.224 267.415 227.332 267.443 227.453 267.443ZM230.501 268.037C230.235 268.037 229.998 267.981 229.79 267.87C229.586 267.758 229.424 267.607 229.303 267.415C229.185 267.22 229.126 266.998 229.126 266.751C229.126 266.5 229.185 266.278 229.303 266.086C229.424 265.891 229.586 265.74 229.79 265.631C229.998 265.52 230.235 265.464 230.501 265.464C230.764 265.464 231 265.52 231.207 265.631C231.414 265.74 231.577 265.89 231.695 266.082C231.812 266.274 231.871 266.497 231.871 266.751C231.871 266.998 231.812 267.22 231.695 267.415C231.577 267.607 231.414 267.758 231.207 267.87C231 267.981 230.764 268.037 230.501 268.037ZM230.501 267.443C230.622 267.443 230.73 267.415 230.826 267.359C230.922 267.303 230.998 267.224 231.054 267.122C231.109 267.017 231.137 266.893 231.137 266.751C231.137 266.605 231.109 266.481 231.054 266.379C230.998 266.277 230.922 266.198 230.826 266.142C230.73 266.086 230.622 266.059 230.501 266.059C230.38 266.059 230.272 266.086 230.176 266.142C230.08 266.198 230.003 266.277 229.944 266.379C229.888 266.481 229.86 266.605 229.86 266.751C229.86 266.893 229.888 267.017 229.944 267.122C230.003 267.224 230.08 267.303 230.176 267.359C230.272 267.415 230.38 267.443 230.501 267.443ZM232.369 268V265.501H233.647C233.959 265.501 234.204 265.559 234.381 265.673C234.557 265.785 234.645 265.943 234.645 266.147C234.645 266.351 234.562 266.512 234.394 266.63C234.23 266.744 234.012 266.802 233.74 266.802L233.814 266.635C234.117 266.635 234.343 266.69 234.492 266.802C234.644 266.913 234.72 267.076 234.72 267.289C234.72 267.509 234.636 267.683 234.469 267.81C234.302 267.937 234.046 268 233.702 268H232.369ZM233.034 267.508H233.642C233.775 267.508 233.874 267.486 233.939 267.443C234.007 267.396 234.041 267.327 234.041 267.234C234.041 267.138 234.011 267.068 233.949 267.025C233.887 266.978 233.789 266.955 233.656 266.955H233.034V267.508ZM233.034 266.528H233.582C233.709 266.528 233.803 266.504 233.865 266.458C233.93 266.412 233.963 266.345 233.963 266.258C233.963 266.169 233.93 266.102 233.865 266.059C233.803 266.015 233.709 265.994 233.582 265.994H233.034V266.528ZM236.48 268.037C236.195 268.037 235.944 267.981 235.728 267.87C235.514 267.758 235.348 267.607 235.231 267.415C235.113 267.22 235.054 266.998 235.054 266.751C235.054 266.5 235.112 266.278 235.226 266.086C235.344 265.891 235.503 265.74 235.705 265.631C235.906 265.52 236.133 265.464 236.387 265.464C236.632 265.464 236.852 265.517 237.047 265.622C237.245 265.724 237.401 265.873 237.516 266.068C237.63 266.26 237.688 266.491 237.688 266.76C237.688 266.788 237.686 266.82 237.683 266.857C237.68 266.892 237.677 266.924 237.674 266.955H235.644V266.532H237.293L237.014 266.658C237.014 266.528 236.988 266.415 236.935 266.319C236.883 266.223 236.81 266.148 236.717 266.096C236.624 266.04 236.516 266.012 236.392 266.012C236.268 266.012 236.158 266.04 236.062 266.096C235.969 266.148 235.896 266.224 235.844 266.323C235.791 266.419 235.765 266.534 235.765 266.667V266.779C235.765 266.915 235.794 267.036 235.853 267.141C235.915 267.243 236 267.322 236.109 267.378C236.22 267.43 236.35 267.457 236.499 267.457C236.632 267.457 236.748 267.436 236.847 267.396C236.949 267.356 237.042 267.296 237.126 267.215L237.511 267.633C237.397 267.763 237.253 267.864 237.079 267.935C236.906 268.003 236.706 268.037 236.48 268.037ZM238.243 268V265.501H238.963V266.477H240.05V265.501H240.774V268H240.05V267.066H238.963V268H238.243ZM242.819 266.3C243.148 266.303 243.397 266.378 243.567 266.523C243.741 266.665 243.827 266.868 243.827 267.131C243.827 267.407 243.73 267.622 243.535 267.777C243.34 267.929 243.069 268.005 242.722 268.005L241.468 268V265.501H242.188V266.3H242.819ZM242.657 267.489C242.796 267.492 242.903 267.463 242.977 267.401C243.052 267.339 243.089 267.246 243.089 267.122C243.089 266.998 243.052 266.91 242.977 266.857C242.903 266.802 242.796 266.772 242.657 266.769L242.188 266.765V267.489H242.657Z" fill="#D8D8D8"/>
<rect x="21" y="74" width="130" height="130" rx="65" stroke="black" stroke-width="0.77"/>
<path d="M32.1188 127.609H37.836V129.207H33.9323V136.787H32.1188V127.609ZM41.2663 127.609H43.4855L45.9629 136.787H44.1494L43.5839 134.519H41.1556L40.6023 136.787H38.7888L41.2663 127.609ZM43.2334 133.025L42.3728 129.269L41.5183 133.025H43.2334ZM46.9404 127.597H49.8973C51.9464 127.597 52.971 128.367 52.971 129.908C52.971 131.113 52.3747 131.769 51.1821 131.875C51.9034 131.949 52.4362 132.189 52.7805 132.594C53.1247 132.996 53.2968 133.56 53.2968 134.285C53.2968 135.162 53.0284 135.799 52.4915 136.197C51.9587 136.59 51.094 136.787 49.8973 136.787H46.9404V127.597ZM49.8973 131.174C50.3563 131.174 50.6821 131.094 50.8747 130.935C51.0715 130.771 51.1698 130.5 51.1698 130.123C51.1698 129.742 51.0694 129.467 50.8686 129.299C50.6719 129.127 50.3481 129.041 49.8973 129.041H48.6924V131.174H49.8973ZM49.8973 135.336C50.4711 135.336 50.8747 135.24 51.1083 135.047C51.3419 134.851 51.4588 134.51 51.4588 134.027C51.4588 133.527 51.3379 133.168 51.0961 132.951C50.8543 132.73 50.4547 132.619 49.8973 132.619H48.6924V135.336H49.8973ZM56.4382 127.609H58.6574L61.1349 136.787H59.3214L58.7558 134.519H56.3275L55.7743 136.787H53.9608L56.4382 127.609ZM58.4054 133.025L57.5447 129.269L56.6902 133.025H58.4054ZM65.1307 127.037C64.5242 127.037 64.0447 126.9 63.6922 126.625C63.3397 126.351 63.1328 125.947 63.0713 125.414H63.9381C64.102 125.91 64.5037 126.158 65.143 126.158C65.7618 126.158 66.1532 125.91 66.3172 125.414H67.1963C67.1348 125.947 66.9278 126.351 66.5754 126.625C66.2229 126.9 65.7414 127.037 65.1307 127.037ZM62.0754 127.609H63.6738V134.279L66.2311 127.609H68.1798V136.787H66.5815V130.117L64.0119 136.787H62.0754V127.609ZM73.5958 136.965C72.3704 136.965 71.4298 136.557 70.7741 135.742C70.1224 134.922 69.7966 133.744 69.7966 132.207C69.7966 130.662 70.1224 129.482 70.7741 128.666C71.4298 127.851 72.3704 127.443 73.5958 127.443C73.9523 127.443 74.2904 127.48 74.6101 127.554C74.9298 127.627 75.2289 127.738 75.5076 127.885V129.902C75.3232 129.73 75.1572 129.597 75.0097 129.502C74.8662 129.404 74.7289 129.326 74.5978 129.269C74.4421 129.199 74.2884 129.15 74.1367 129.121C73.9892 129.088 73.8396 129.072 73.688 129.072C73.0322 129.072 72.5343 129.334 72.1941 129.859C71.854 130.396 71.6839 131.178 71.6839 132.207C71.6839 133.24 71.854 134.019 72.1941 134.543C72.5343 135.072 73.0322 135.336 73.688 135.336C74.0035 135.336 74.3089 135.269 74.6039 135.133C74.7474 135.068 74.8888 134.988 75.0281 134.894C75.1716 134.795 75.3314 134.666 75.5076 134.506V136.523C75.2207 136.67 74.9195 136.781 74.6039 136.855C74.2884 136.928 73.9523 136.965 73.5958 136.965ZM77.1736 127.609H78.9871V131.236L81.8272 127.609H83.8805L80.985 131.224L83.985 136.787H81.9686L79.7924 132.656L78.9871 133.676V136.787H77.1736V127.609ZM86.7821 127.609H89.0013L91.4787 136.787H89.6652L89.0997 134.519H86.6714L86.1181 136.787H84.3046L86.7821 127.609ZM88.7492 133.025L87.8886 129.269L87.0341 133.025H88.7492ZM93.8947 132.828C93.6816 132.721 93.448 132.566 93.1939 132.361C92.9439 132.152 92.7267 131.871 92.5422 131.519C92.3619 131.162 92.2717 130.709 92.2717 130.16C92.2717 129.275 92.5504 128.629 93.1078 128.224C93.6693 127.814 94.4951 127.609 95.5852 127.609H98.5114V136.787H96.6979V133.16H95.702L93.8639 136.787H91.8906L93.8947 132.828ZM96.6979 131.635V129.133H95.536C95.0811 129.133 94.7348 129.23 94.4971 129.422C94.2635 129.615 94.1467 129.935 94.1467 130.381C94.1467 130.828 94.2635 131.15 94.4971 131.346C94.7348 131.539 95.0811 131.635 95.536 131.635H96.6979ZM31.8422 142.609H37.7376V151.787H35.9241V144.207H33.6557V151.787H31.8422V142.609ZM39.3175 142.609H40.9159V149.279L43.4732 142.609H45.4219V151.787H43.8236V145.117L41.254 151.787H39.3175V142.609ZM51.9198 151.787H46.9834V142.609H48.7969V150.189H51.0653V142.609H52.8788V150.189H53.721V153.766H51.9198V151.787ZM59.5058 151.787H54.5694V142.609H56.3829V150.189H58.6513V142.609H60.4648V150.189H61.307V153.766H59.5058V151.787ZM64.0242 142.609H66.2434L68.7208 151.787H66.9073L66.3418 149.519H63.9135L63.3602 151.787H61.5467L64.0242 142.609ZM65.9913 148.025L65.1307 144.269L64.2762 148.025H65.9913Z" fill="black"/>
<rect x="114" y="75" width="130" height="130" rx="65" stroke="black" stroke-width="0.77"/>
<path d="M189.606 143.665L195.429 141.592L189.606 139.505V137.674L197.348 140.721V142.449L189.606 145.489V143.665ZM199.377 144.383H201.794V137.578L200.153 139.358L199.128 138.289L201.809 135.352H203.896V144.383H206.313V146.287H199.377V144.383Z" fill="black"/>
<path d="M131.933 145.212C130.854 145.212 129.973 144.893 129.289 144.253C128.61 143.618 128.271 142.788 128.271 141.763C128.271 141.382 128.315 141.035 128.403 140.723C128.491 140.41 128.62 140.112 128.791 139.829C129.138 139.253 129.648 138.748 130.322 138.313C130.19 138.103 130.08 137.91 129.992 137.734C129.904 137.559 129.833 137.397 129.78 137.251C129.663 136.929 129.604 136.609 129.604 136.292C129.604 135.53 129.87 134.934 130.402 134.504C130.939 134.08 131.708 133.867 132.709 133.867C132.895 133.867 133.073 133.875 133.244 133.889C133.415 133.904 133.586 133.923 133.757 133.948C134.108 134.001 134.445 134.08 134.768 134.182V136.057C134.143 135.701 133.505 135.522 132.856 135.522C132.465 135.522 132.172 135.591 131.977 135.728C131.777 135.869 131.677 136.064 131.677 136.313C131.677 136.411 131.694 136.519 131.728 136.636C131.762 136.748 131.821 136.887 131.904 137.053C132.05 137.356 132.29 137.759 132.622 138.262L134.914 141.777C135.017 141.602 135.095 141.389 135.148 141.14C135.202 140.872 135.229 140.613 135.229 140.364C135.229 140.295 135.227 140.222 135.222 140.144C135.222 140.066 135.219 139.995 135.214 139.932C135.209 139.805 135.195 139.675 135.17 139.543H136.892V139.917C136.892 140.64 136.809 141.257 136.643 141.77C136.477 142.307 136.215 142.783 135.859 143.198L137.045 145H134.724L134.372 144.473C134.182 144.6 133.994 144.707 133.808 144.795C133.623 144.878 133.422 144.954 133.208 145.022C133.002 145.085 132.8 145.132 132.6 145.161C132.399 145.195 132.177 145.212 131.933 145.212ZM132.248 143.484C132.365 143.484 132.502 143.467 132.658 143.433C132.727 143.418 132.79 143.403 132.849 143.389C132.912 143.369 132.988 143.34 133.076 143.301L133.134 143.271C133.232 143.223 133.298 143.188 133.332 143.169C133.371 143.149 133.42 143.12 133.479 143.081L131.223 139.646C130.9 139.856 130.659 140.105 130.498 140.393C130.332 140.676 130.249 141.006 130.249 141.382C130.249 141.704 130.302 141.99 130.41 142.239C130.517 142.483 130.654 142.693 130.82 142.869C131.206 143.279 131.682 143.484 132.248 143.484Z" fill="black"/>
</svg>
