<svg width="589" height="276" viewBox="0 0 589 276" fill="none" xmlns="http://www.w3.org/2000/svg">
<rect width="589" height="276" fill="white"/>
<path d="M41 48V214H249" stroke="#9A9C9E"/>
<path d="M174 111.839L196.5 97.46L211.5 111.839L174 111.839Z" fill="#DDFF06" stroke="#DDFF06"/>
<path d="M249.297 61.7917L40.8217 199.69" stroke="#9A9C9E" stroke-dasharray="4 4"/>
<path d="M20.0547 127.117L20.0547 124.346L20.2715 124.346L20.2715 124.498C20.2715 124.6 20.3164 124.748 20.4062 124.943C20.4961 125.139 20.625 125.316 20.793 125.477C20.9609 125.637 21.2344 125.834 21.6133 126.068L24.6309 127.984L26.623 127.984C27.1113 127.984 27.416 127.93 27.5371 127.82C27.7012 127.672 27.7832 127.438 27.7832 127.117L27.7832 126.859L28 126.859L28 130.234L27.7832 130.234L27.7832 129.953C27.7832 129.617 27.6816 129.379 27.4785 129.238C27.3535 129.152 27.0684 129.109 26.623 129.109L24.7422 129.109L21.4141 131.289C21.0234 131.547 20.7793 131.723 20.6816 131.816C20.584 131.906 20.4668 132.096 20.3301 132.385C20.291 132.463 20.2715 132.576 20.2715 132.725L20.0547 132.725L20.0547 129.326L20.2715 129.326L20.2715 129.502C20.2715 129.686 20.3145 129.855 20.4004 130.012C20.4863 130.164 20.6152 130.24 20.7871 130.24C20.9277 130.24 21.1816 130.121 21.5488 129.883L24.1094 128.225L21.6602 126.666C21.293 126.432 21.0195 126.314 20.8398 126.314C20.7305 126.314 20.6328 126.344 20.5469 126.402C20.4609 126.457 20.3945 126.537 20.3477 126.643C20.2969 126.748 20.2715 126.906 20.2715 127.117L20.0547 127.117Z" fill="black"/>
<path d="M147.562 225.545L149.268 228.088C149.74 228.791 150.09 229.236 150.316 229.424C150.547 229.607 150.838 229.709 151.189 229.729V229.945H147.779V229.729C148.006 229.725 148.174 229.701 148.283 229.658C148.365 229.623 148.432 229.57 148.482 229.5C148.537 229.426 148.564 229.352 148.564 229.277C148.564 229.188 148.547 229.098 148.512 229.008C148.484 228.941 148.377 228.77 148.189 228.492L146.842 226.453L145.178 228.586C145.002 228.812 144.896 228.965 144.861 229.043C144.826 229.117 144.809 229.195 144.809 229.277C144.809 229.402 144.861 229.506 144.967 229.588C145.072 229.67 145.273 229.717 145.57 229.729V229.945H142.752V229.729C142.951 229.709 143.123 229.668 143.268 229.605C143.51 229.504 143.74 229.367 143.959 229.195C144.178 229.023 144.428 228.76 144.709 228.404L146.584 226.037L145.02 223.746C144.594 223.125 144.232 222.719 143.936 222.527C143.639 222.332 143.297 222.229 142.91 222.217V222H146.584V222.217C146.271 222.229 146.057 222.279 145.939 222.369C145.826 222.459 145.77 222.559 145.77 222.668C145.77 222.812 145.863 223.023 146.051 223.301L147.27 225.123L148.682 223.336C148.846 223.125 148.945 222.98 148.98 222.902C149.02 222.824 149.039 222.744 149.039 222.662C149.039 222.58 149.016 222.508 148.969 222.445C148.91 222.363 148.836 222.307 148.746 222.275C148.656 222.24 148.471 222.221 148.189 222.217V222H151.008V222.217C150.785 222.229 150.604 222.264 150.463 222.322C150.252 222.412 150.059 222.533 149.883 222.686C149.707 222.838 149.459 223.119 149.139 223.529L147.562 225.545Z" fill="black"/>
<path d="M249.166 215.304V210.947L254.394 213.22L249.166 215.304Z" fill="#9A9C9E" stroke="#9A9C9E" stroke-width="2"/>
<path d="M43.3398 47.6836L38.9834 47.6836L41.2563 43.3272L43.3398 47.6836Z" fill="#9A9C9E" stroke="#9A9C9E" stroke-width="2"/>
<path d="M113.969 26.0547V26.2715C113.707 26.3066 113.506 26.3828 113.365 26.5C113.17 26.6641 112.861 27.1113 112.439 27.8418L110.717 30.7188V32.6406C110.717 33.0508 110.738 33.3066 110.781 33.4082C110.824 33.5059 110.908 33.5938 111.033 33.6719C111.162 33.7461 111.332 33.7832 111.543 33.7832H111.988V34H107.529V33.7832H107.945C108.18 33.7832 108.365 33.7422 108.502 33.6602C108.604 33.6055 108.684 33.5117 108.742 33.3789C108.785 33.2852 108.807 33.0391 108.807 32.6406V31.0469L106.938 27.6426C106.566 26.9707 106.305 26.5762 106.152 26.459C106 26.3379 105.797 26.2754 105.543 26.2715V26.0547H109.352V26.2715H109.182C108.951 26.2715 108.789 26.3047 108.695 26.3711C108.605 26.4375 108.561 26.5078 108.561 26.582C108.561 26.7227 108.717 27.0762 109.029 27.6426L110.465 30.2734L111.895 27.877C112.25 27.291 112.428 26.9023 112.428 26.7109C112.428 26.6055 112.377 26.5176 112.275 26.4473C112.143 26.3496 111.898 26.291 111.543 26.2715V26.0547H113.969ZM116.898 28.7031H123.309V29.4648H116.898V28.7031ZM116.898 30.6191H123.309V31.3809H116.898V30.6191ZM132.344 34.1641L130.844 30.1445L129.373 34.1641H129.068L127.609 30.1914C127.391 29.5859 127.205 29.1914 127.053 29.0078C126.955 28.8828 126.807 28.793 126.607 28.7383V28.5215H129.373V28.7383C129.186 28.7383 129.057 28.7656 128.986 28.8203C128.916 28.875 128.881 28.9375 128.881 29.0078C128.881 29.0742 128.943 29.2734 129.068 29.6055L129.871 31.7441L130.645 29.6055L130.586 29.4648C130.469 29.1719 130.365 28.9863 130.275 28.9082C130.189 28.8262 130.055 28.7695 129.871 28.7383V28.5215H132.678V28.7383C132.459 28.75 132.32 28.7812 132.262 28.832C132.203 28.8789 132.174 28.9473 132.174 29.0371C132.174 29.123 132.23 29.3125 132.344 29.6055L133.117 31.7441L133.82 29.7754C133.922 29.4941 133.973 29.3027 133.973 29.2012C133.973 29.0488 133.936 28.9375 133.861 28.8672C133.787 28.7969 133.643 28.7539 133.428 28.7383V28.5215H135.051V28.7383C134.871 28.7617 134.729 28.8262 134.623 28.9316C134.518 29.0332 134.381 29.3262 134.213 29.8105L132.678 34.1641H132.344ZM138.607 32.1953C138.607 32.4883 138.578 32.7656 138.52 33.0273C138.465 33.2852 138.373 33.5137 138.244 33.7129C138.119 33.9082 137.953 34.0625 137.746 34.1758C137.539 34.2891 137.285 34.3457 136.984 34.3457C136.684 34.3457 136.428 34.2891 136.217 34.1758C136.01 34.0625 135.842 33.9082 135.713 33.7129C135.584 33.5137 135.49 33.2852 135.432 33.0273C135.377 32.7656 135.35 32.4883 135.35 32.1953C135.35 31.9023 135.377 31.625 135.432 31.3633C135.49 31.1016 135.584 30.873 135.713 30.6777C135.842 30.4824 136.01 30.3281 136.217 30.2148C136.428 30.0977 136.684 30.0391 136.984 30.0391C137.285 30.0391 137.539 30.0977 137.746 30.2148C137.953 30.3281 138.119 30.4824 138.244 30.6777C138.373 30.873 138.465 31.1016 138.52 31.3633C138.578 31.625 138.607 31.9023 138.607 32.1953ZM136.984 34.0352C137.16 34.0352 137.279 33.8828 137.342 33.5781C137.408 33.2734 137.441 32.8125 137.441 32.1953C137.441 31.5781 137.408 31.1172 137.342 30.8125C137.279 30.5039 137.16 30.3496 136.984 30.3496C136.809 30.3496 136.688 30.5039 136.621 30.8125C136.559 31.1172 136.527 31.5781 136.527 32.1953C136.527 32.8125 136.559 33.2734 136.621 33.5781C136.688 33.8828 136.809 34.0352 136.984 34.0352ZM142.012 29.6406H144.83V26.8281H145.598V29.6406H148.416V30.4141H145.598V33.2031H144.83V30.4141H142.012V29.6406ZM157.457 34.1641L155.957 30.1445L154.486 34.1641H154.182L152.723 30.1914C152.504 29.5859 152.318 29.1914 152.166 29.0078C152.068 28.8828 151.92 28.793 151.721 28.7383V28.5215H154.486V28.7383C154.299 28.7383 154.17 28.7656 154.1 28.8203C154.029 28.875 153.994 28.9375 153.994 29.0078C153.994 29.0742 154.057 29.2734 154.182 29.6055L154.984 31.7441L155.758 29.6055L155.699 29.4648C155.582 29.1719 155.479 28.9863 155.389 28.9082C155.303 28.8262 155.168 28.7695 154.984 28.7383V28.5215H157.791V28.7383C157.572 28.75 157.434 28.7812 157.375 28.832C157.316 28.8789 157.287 28.9473 157.287 29.0371C157.287 29.123 157.344 29.3125 157.457 29.6055L158.23 31.7441L158.934 29.7754C159.035 29.4941 159.086 29.3027 159.086 29.2012C159.086 29.0488 159.049 28.9375 158.975 28.8672C158.9 28.7969 158.756 28.7539 158.541 28.7383V28.5215H160.164V28.7383C159.984 28.7617 159.842 28.8262 159.736 28.9316C159.631 29.0332 159.494 29.3262 159.326 29.8105L157.791 34.1641H157.457ZM162.719 30.0566V33.4141C162.719 33.6719 162.732 33.8379 162.76 33.9121C162.779 33.959 162.82 34 162.883 34.0352C162.949 34.0703 163.066 34.0879 163.234 34.0879H163.41V34.2754H160.797V34.0879H160.99C161.193 34.0879 161.334 34.0684 161.412 34.0293C161.463 34.002 161.498 33.9668 161.518 33.9238C161.553 33.8418 161.57 33.6719 161.57 33.4141V31.3105C161.57 31.1309 161.562 31.0195 161.547 30.9766C161.531 30.9336 161.502 30.8984 161.459 30.8711C161.416 30.8438 161.361 30.8301 161.295 30.8301C161.186 30.8301 161.031 30.8691 160.832 30.9473L160.727 30.7656L162.514 30.0566H162.719ZM169.779 28.1875C169.768 27.9609 169.744 27.7891 169.709 27.6719C169.678 27.5547 169.598 27.373 169.469 27.127C169.344 26.8809 169.281 26.6895 169.281 26.5527C169.281 26.373 169.344 26.2148 169.469 26.0781C169.598 25.9414 169.738 25.873 169.891 25.873C170.059 25.873 170.203 25.9375 170.324 26.0664C170.449 26.1914 170.512 26.3555 170.512 26.5586C170.512 26.7188 170.451 26.9121 170.33 27.1387C170.209 27.3652 170.131 27.5391 170.096 27.6602C170.064 27.7773 170.039 27.9531 170.02 28.1875C170.238 28.0977 170.395 28.0195 170.488 27.9531C170.582 27.8867 170.721 27.7559 170.904 27.5605C171.15 27.2988 171.387 27.168 171.613 27.168C171.785 27.168 171.93 27.2246 172.047 27.3379C172.164 27.4512 172.223 27.5859 172.223 27.7422C172.223 27.9102 172.15 28.0586 172.006 28.1875C171.861 28.3164 171.674 28.3809 171.443 28.3809C171.365 28.3809 171.227 28.375 171.027 28.3633C170.934 28.3594 170.832 28.3574 170.723 28.3574C170.578 28.3574 170.359 28.3652 170.066 28.3809C170.234 28.5723 170.365 28.7051 170.459 28.7793C170.553 28.8496 170.715 28.9434 170.945 29.0605C171.176 29.1777 171.342 29.3027 171.443 29.4355C171.518 29.5332 171.555 29.6582 171.555 29.8105C171.555 29.9785 171.498 30.1211 171.385 30.2383C171.271 30.3516 171.135 30.4082 170.975 30.4082C170.807 30.4082 170.654 30.3398 170.518 30.2031C170.385 30.0625 170.293 29.8145 170.242 29.459C170.211 29.2285 170.176 29.0605 170.137 28.9551C170.102 28.8496 170.023 28.6953 169.902 28.4922C169.773 28.6992 169.688 28.8594 169.645 28.9727C169.602 29.0859 169.564 29.248 169.533 29.459C169.482 29.8145 169.393 30.0586 169.264 30.1914C169.135 30.3242 168.984 30.3906 168.812 30.3906C168.652 30.3906 168.514 30.3359 168.396 30.2266C168.283 30.1172 168.227 29.9863 168.227 29.834C168.227 29.6777 168.27 29.5391 168.355 29.418C168.445 29.293 168.607 29.166 168.842 29.0371C169.08 28.9043 169.244 28.8047 169.334 28.7383C169.424 28.6719 169.555 28.5527 169.727 28.3809L169.1 28.3574C168.99 28.3574 168.887 28.3594 168.789 28.3633C168.559 28.3789 168.4 28.3867 168.314 28.3867C168.092 28.3867 167.91 28.3242 167.77 28.1992C167.629 28.0742 167.559 27.9258 167.559 27.7539C167.559 27.5938 167.615 27.457 167.729 27.3438C167.846 27.2266 167.992 27.168 168.168 27.168C168.414 27.168 168.65 27.2852 168.877 27.5195C169.104 27.7539 169.25 27.8965 169.316 27.9473C169.41 28.0137 169.564 28.0938 169.779 28.1875ZM180.959 29.3418L183.15 32.5938C183.514 33.1328 183.771 33.4609 183.924 33.5781C184.08 33.6914 184.264 33.7598 184.475 33.7832V34H180.602V33.7832C180.91 33.7598 181.109 33.7129 181.199 33.6426C181.289 33.5723 181.334 33.4863 181.334 33.3848C181.334 33.3145 181.32 33.252 181.293 33.1973C181.238 33.0801 181.102 32.8613 180.883 32.541L179.723 30.8242L178.51 32.3066C178.146 32.7559 177.965 33.0605 177.965 33.2207C177.965 33.334 178.012 33.4395 178.105 33.5371C178.199 33.6348 178.338 33.7051 178.521 33.748C178.604 33.7715 178.771 33.7832 179.025 33.7832V34H175.973V33.7832C176.32 33.7324 176.594 33.6387 176.793 33.502C177.055 33.3223 177.42 32.9473 177.889 32.377L179.465 30.4551L177.443 27.4844C177.111 26.9961 176.922 26.7246 176.875 26.6699C176.77 26.541 176.666 26.4492 176.564 26.3945C176.463 26.3398 176.322 26.2988 176.143 26.2715V26.0547H180.086V26.2715H179.887C179.66 26.2715 179.502 26.3086 179.412 26.3828C179.322 26.4531 179.277 26.543 179.277 26.6523C179.277 26.7383 179.291 26.8125 179.318 26.875L179.723 27.4844L180.707 28.9844L181.545 27.959C181.975 27.4316 182.189 27.0625 182.189 26.8516C182.189 26.7461 182.158 26.6484 182.096 26.5586C182.037 26.4688 181.951 26.3984 181.838 26.3477C181.725 26.2969 181.549 26.2715 181.311 26.2715V26.0547H184.234V26.2715C184.004 26.2754 183.818 26.3047 183.678 26.3594C183.537 26.4102 183.387 26.5078 183.227 26.6523C183.125 26.7461 182.871 27.0371 182.465 27.5254L180.959 29.3418Z" fill="black"/>
<path d="M214.755 95.6631L215.261 100.462C215.949 99.7829 216.398 99.2474 216.607 98.8555C216.817 98.459 216.922 98.1286 216.922 97.8643C216.922 97.764 216.899 97.6637 216.854 97.5635C216.808 97.4632 216.717 97.3242 216.58 97.1465C216.443 96.9688 216.366 96.8571 216.348 96.8115C216.316 96.7249 216.3 96.6201 216.3 96.4971C216.3 96.2646 216.38 96.0687 216.539 95.9092C216.699 95.7451 216.899 95.6631 217.141 95.6631C217.382 95.6631 217.574 95.7451 217.715 95.9092C217.915 96.1462 218.016 96.4196 218.016 96.7295C218.016 97.2354 217.774 97.8984 217.291 98.7188C216.808 99.5391 215.705 100.697 213.982 102.191H213.709L213.285 97.9941L210.332 102.191H210.038C210.106 100.924 210.141 99.7396 210.141 98.6367C210.141 97.9167 210.102 97.3971 210.024 97.0781C209.979 96.8913 209.897 96.75 209.778 96.6543C209.664 96.5586 209.539 96.5107 209.402 96.5107C209.329 96.5107 209.236 96.5199 209.122 96.5381V96.2852L211.474 95.6631C211.601 96.0186 211.688 96.3535 211.733 96.668C211.811 97.151 211.85 97.7139 211.85 98.3564C211.85 98.5843 211.84 98.9307 211.822 99.3955L214.468 95.6631H214.755ZM221.639 97.3857L220.278 101.426C220.215 101.617 220.183 101.74 220.183 101.795C220.183 101.845 220.199 101.895 220.23 101.945C220.267 101.995 220.308 102.027 220.354 102.041C220.422 102.068 220.54 102.082 220.709 102.082L220.955 102.096L220.88 102.308H217.961L218.036 102.096C218.419 102.087 218.665 102.046 218.774 101.973C218.884 101.9 218.991 101.704 219.096 101.385L219.889 99.0195C220.025 98.6139 220.094 98.3747 220.094 98.3018C220.094 98.2106 220.066 98.14 220.012 98.0898C219.957 98.0352 219.873 98.0078 219.759 98.0078C219.677 98.0078 219.517 98.0192 219.28 98.042L219.226 97.8301L221.639 97.3857Z" fill="black"/>
<path d="M25.7549 195.663L26.2607 200.462C26.9489 199.783 27.3978 199.247 27.6074 198.855C27.8171 198.459 27.9219 198.129 27.9219 197.864C27.9219 197.764 27.8991 197.664 27.8535 197.563C27.8079 197.463 27.7168 197.324 27.5801 197.146C27.4434 196.969 27.3659 196.857 27.3477 196.812C27.3158 196.725 27.2998 196.62 27.2998 196.497C27.2998 196.265 27.3796 196.069 27.5391 195.909C27.6986 195.745 27.8991 195.663 28.1406 195.663C28.3822 195.663 28.5736 195.745 28.7148 195.909C28.9154 196.146 29.0156 196.42 29.0156 196.729C29.0156 197.235 28.7741 197.898 28.291 198.719C27.8079 199.539 26.7051 200.697 24.9824 202.191H24.709L24.2852 197.994L21.332 202.191H21.0381C21.1064 200.924 21.1406 199.74 21.1406 198.637C21.1406 197.917 21.1019 197.397 21.0244 197.078C20.9788 196.891 20.8968 196.75 20.7783 196.654C20.6644 196.559 20.5391 196.511 20.4023 196.511C20.3294 196.511 20.236 196.52 20.1221 196.538V196.285L22.4736 195.663C22.6012 196.019 22.6878 196.354 22.7334 196.668C22.8109 197.151 22.8496 197.714 22.8496 198.356C22.8496 198.584 22.8405 198.931 22.8223 199.396L25.4678 195.663H25.7549ZM31.6133 197.379C31.8229 197.379 32.0075 197.42 32.167 197.502C32.3265 197.584 32.4564 197.691 32.5566 197.823C32.6615 197.955 32.7389 198.106 32.7891 198.274C32.8438 198.438 32.8711 198.607 32.8711 198.78C32.8711 199.063 32.8415 199.354 32.7822 199.655C32.723 199.951 32.641 200.239 32.5361 200.517C32.4359 200.795 32.3151 201.054 32.1738 201.296C32.0371 201.533 31.889 201.733 31.7295 201.897C31.4014 202.235 30.9707 202.403 30.4375 202.403C30.2734 202.403 30.1185 202.367 29.9727 202.294C29.8268 202.226 29.6992 202.128 29.5898 202C29.4805 201.877 29.3939 201.733 29.3301 201.569C29.2663 201.401 29.2344 201.221 29.2344 201.029C29.2344 200.482 29.3324 199.938 29.5283 199.396C29.6878 198.949 29.8906 198.557 30.1367 198.22C30.2598 198.056 30.3851 197.919 30.5127 197.81C30.6449 197.7 30.7747 197.614 30.9023 197.55C31.0299 197.486 31.153 197.443 31.2715 197.42C31.3945 197.393 31.5085 197.379 31.6133 197.379ZM31.6406 197.618C31.5677 197.618 31.5039 197.632 31.4492 197.659C31.3991 197.687 31.3444 197.741 31.2852 197.823C31.2259 197.905 31.1507 198.081 31.0596 198.35C30.973 198.596 30.8841 198.869 30.793 199.17C30.7018 199.471 30.6038 199.799 30.499 200.154C30.4215 200.432 30.36 200.658 30.3145 200.831C30.2689 201.004 30.237 201.13 30.2188 201.207C30.1732 201.421 30.1504 201.615 30.1504 201.788C30.1504 201.907 30.1823 201.998 30.2461 202.062C30.3099 202.13 30.3874 202.164 30.4785 202.164C30.5742 202.164 30.654 202.137 30.7178 202.082C30.8408 201.982 30.9456 201.802 31.0322 201.542C31.1279 201.241 31.2373 200.888 31.3604 200.482C31.4834 200.077 31.6178 199.612 31.7637 199.088C31.8958 198.623 31.9619 198.261 31.9619 198.001C31.9619 197.882 31.93 197.789 31.8662 197.721C31.8024 197.652 31.7272 197.618 31.6406 197.618Z" fill="black"/>
<path d="M491.727 112.839L514.227 98.46L529.226 112.839L491.727 112.839Z" fill="#DDFF06" stroke="#DDFF06"/>
<mask id="path-12-inside-1_290_11" fill="white">
<path d="M356.727 57H557.727V215H356.727V57Z"/>
</mask>
<path d="M557.727 57H558.727V56H557.727V57ZM356.727 57V58H557.727V57V56H356.727V57ZM557.727 57H556.727V215H557.727H558.727V57H557.727Z" fill="#ADAFB0" mask="url(#path-12-inside-1_290_11)"/>
<mask id="path-14-inside-2_290_11" fill="white">
<path d="M356.727 174H557.727V215H356.727V174Z"/>
</mask>
<path d="M356.727 174V175H557.727V174V173H356.727V174Z" fill="#ADAFB0" mask="url(#path-14-inside-2_290_11)"/>
<mask id="path-16-inside-3_290_11" fill="white">
<path d="M357 194H558V214.5H357V194Z"/>
</mask>
<path d="M357 194V195H558V194V193H357V194Z" fill="#ADAFB0" mask="url(#path-16-inside-3_290_11)"/>
<mask id="path-18-inside-4_290_11" fill="white">
<path d="M357 155H558V175.5H357V155Z"/>
</mask>
<path d="M357 155V156H558V155V154H357V155Z" fill="#ADAFB0" mask="url(#path-18-inside-4_290_11)"/>
<mask id="path-20-inside-5_290_11" fill="white">
<path d="M357 116H558V136.5H357V116Z"/>
</mask>
<path d="M357 116V117H558V116V115H357V116Z" fill="#ADAFB0" mask="url(#path-20-inside-5_290_11)"/>
<mask id="path-22-inside-6_290_11" fill="white">
<path d="M357 76H558V96.5H357V76Z"/>
</mask>
<path d="M357 76V77H558V76V75H357V76Z" fill="#ADAFB0" mask="url(#path-22-inside-6_290_11)"/>
<mask id="path-24-inside-7_290_11" fill="white">
<path d="M356.727 136H557.727V215H356.727V136Z"/>
</mask>
<path d="M356.727 136V137H557.727V136V135H356.727V136Z" fill="#ADAFB0" mask="url(#path-24-inside-7_290_11)"/>
<mask id="path-26-inside-8_290_11" fill="white">
<path d="M356.727 96H557.727V215H356.727V96Z"/>
</mask>
<path d="M356.727 96V97H557.727V96V95H356.727V96Z" fill="#ADAFB0" mask="url(#path-26-inside-8_290_11)"/>
<mask id="path-28-inside-9_290_11" fill="white">
<path d="M357 57H558V215H357V57Z"/>
</mask>
<path d="M558 57H557V215H558H559V57H558Z" fill="#ADAFB0" mask="url(#path-28-inside-9_290_11)"/>
<mask id="path-30-inside-10_290_11" fill="white">
<path d="M356.727 57H557.727V215H356.727V57Z"/>
</mask>
<path d="M557.727 57H558.727V56H557.727V57ZM356.727 57V58H557.727V57V56H356.727V57ZM557.727 57H556.727V215H557.727H558.727V57H557.727Z" fill="#ADAFB0" mask="url(#path-30-inside-10_290_11)"/>
<mask id="path-32-inside-11_290_11" fill="white">
<path d="M356.727 174H557.727V215H356.727V174Z"/>
</mask>
<path d="M356.727 174V175H557.727V174V173H356.727V174Z" fill="#ADAFB0" mask="url(#path-32-inside-11_290_11)"/>
<mask id="path-34-inside-12_290_11" fill="white">
<path d="M357 194H558V214.5H357V194Z"/>
</mask>
<path d="M357 194V195H558V194V193H357V194Z" fill="#ADAFB0" mask="url(#path-34-inside-12_290_11)"/>
<mask id="path-36-inside-13_290_11" fill="white">
<path d="M357 155H558V175.5H357V155Z"/>
</mask>
<path d="M357 155V156H558V155V154H357V155Z" fill="#ADAFB0" mask="url(#path-36-inside-13_290_11)"/>
<mask id="path-38-inside-14_290_11" fill="white">
<path d="M357 116H558V136.5H357V116Z"/>
</mask>
<path d="M357 116V117H558V116V115H357V116Z" fill="#ADAFB0" mask="url(#path-38-inside-14_290_11)"/>
<mask id="path-40-inside-15_290_11" fill="white">
<path d="M357 76H558V96.5H357V76Z"/>
</mask>
<path d="M357 76V77H558V76V75H357V76Z" fill="#ADAFB0" mask="url(#path-40-inside-15_290_11)"/>
<mask id="path-42-inside-16_290_11" fill="white">
<path d="M356.727 136H557.727V215H356.727V136Z"/>
</mask>
<path d="M356.727 136V137H557.727V136V135H356.727V136Z" fill="#ADAFB0" mask="url(#path-42-inside-16_290_11)"/>
<mask id="path-44-inside-17_290_11" fill="white">
<path d="M356.727 96H557.727V215H356.727V96Z"/>
</mask>
<path d="M356.727 96V97H557.727V96V95H356.727V96Z" fill="#ADAFB0" mask="url(#path-44-inside-17_290_11)"/>
<mask id="path-46-inside-18_290_11" fill="white">
<path d="M357 57H397.2V215H357V57Z"/>
</mask>
<path d="M397.2 57H396.2V215H397.2H398.2V57H397.2Z" fill="#ADAFB0" mask="url(#path-46-inside-18_290_11)"/>
<mask id="path-48-inside-19_290_11" fill="white">
<path d="M397 57H437.2V215H397V57Z"/>
</mask>
<path d="M437.2 57H436.2V215H437.2H438.2V57H437.2Z" fill="#ADAFB0" mask="url(#path-48-inside-19_290_11)"/>
<mask id="path-50-inside-20_290_11" fill="white">
<path d="M437 57H477.2V215H437V57Z"/>
</mask>
<path d="M477.2 57H476.2V215H477.2H478.2V57H477.2Z" fill="#ADAFB0" mask="url(#path-50-inside-20_290_11)"/>
<mask id="path-52-inside-21_290_11" fill="white">
<path d="M477 57H517.2V215H477V57Z"/>
</mask>
<path d="M517.2 57H516.2V215H517.2H518.2V57H517.2Z" fill="#ADAFB0" mask="url(#path-52-inside-21_290_11)"/>
<path d="M356.727 49V215H564.727" stroke="#9A9C9E"/>
<path d="M557.727 69.4992L356.727 201.499" stroke="#9A9C9E" stroke-dasharray="4 4"/>
<path d="M321.957 159.035C321.957 158.417 322.113 157.943 322.425 157.613C322.731 157.283 323.187 157.118 323.793 157.118L326.727 157.118L326.727 157.73L325.989 157.73C326.235 157.874 326.427 158.087 326.565 158.369C326.703 158.645 326.772 158.975 326.772 159.359C326.772 159.887 326.646 160.307 326.394 160.619C326.142 160.931 325.809 161.087 325.395 161.087C324.993 161.087 324.669 160.943 324.423 160.655C324.177 160.361 324.054 159.896 324.054 159.26L324.054 157.757L323.766 157.757C323.358 157.757 323.049 157.871 322.839 158.099C322.623 158.327 322.515 158.66 322.515 159.098C322.515 159.398 322.566 159.686 322.668 159.962C322.764 160.238 322.899 160.475 323.073 160.673L322.596 160.961C322.392 160.721 322.236 160.433 322.128 160.097C322.014 159.761 321.957 159.407 321.957 159.035ZM326.268 159.26C326.268 158.9 326.187 158.591 326.025 158.333C325.857 158.075 325.617 157.883 325.305 157.757L324.531 157.757L324.531 159.242C324.531 160.052 324.813 160.457 325.377 160.457C325.653 160.457 325.872 160.352 326.034 160.142C326.19 159.932 326.268 159.638 326.268 159.26ZM321.993 151.492L326.727 153.598L326.727 154.255L321.993 156.352L321.993 155.686L326.025 153.913L321.993 152.122L321.993 151.492ZM321.993 146.341L326.151 146.341C326.955 146.341 327.549 146.539 327.933 146.935C328.323 147.325 328.518 147.916 328.518 148.708C328.518 149.146 328.452 149.563 328.32 149.959C328.194 150.349 328.017 150.667 327.789 150.913L327.303 150.589C327.507 150.361 327.666 150.085 327.78 149.761C327.894 149.431 327.951 149.086 327.951 148.726C327.951 148.126 327.81 147.685 327.528 147.403C327.252 147.121 326.82 146.98 326.232 146.98L325.629 146.98C325.929 147.178 326.157 147.439 326.313 147.763C326.469 148.081 326.547 148.435 326.547 148.825C326.547 149.269 326.451 149.674 326.259 150.04C326.061 150.4 325.788 150.685 325.44 150.895C325.086 151.099 324.687 151.201 324.243 151.201C323.799 151.201 323.403 151.099 323.055 150.895C322.707 150.685 322.437 150.4 322.245 150.04C322.053 149.68 321.957 149.275 321.957 148.825C321.957 148.423 322.038 148.06 322.2 147.736C322.362 147.412 322.596 147.151 322.902 146.953L321.993 146.953L321.993 146.341ZM325.98 148.762C325.98 148.42 325.908 148.111 325.764 147.835C325.614 147.559 325.407 147.346 325.143 147.196C324.879 147.04 324.579 146.962 324.243 146.962C323.907 146.962 323.61 147.04 323.352 147.196C323.088 147.346 322.884 147.559 322.74 147.835C322.59 148.105 322.515 148.414 322.515 148.762C322.515 149.104 322.587 149.413 322.731 149.689C322.875 149.959 323.079 150.172 323.343 150.328C323.607 150.478 323.907 150.553 324.243 150.553C324.579 150.553 324.879 150.478 325.143 150.328C325.407 150.172 325.614 149.959 325.764 149.689C325.908 149.413 325.98 149.104 325.98 148.762ZM326.727 145.445L326.727 140.945L327.159 140.945L327.159 145.445L326.727 145.445ZM322.92 139.442C322.602 139.292 322.362 139.07 322.2 138.776C322.038 138.476 321.957 138.107 321.957 137.669L322.578 137.669L322.569 137.822C322.569 138.32 322.722 138.71 323.028 138.992C323.334 139.274 323.763 139.415 324.315 139.415L326.727 139.415L326.727 140.054L321.993 140.054L321.993 139.442L322.92 139.442ZM324.558 132.434L324.558 136.394C325.05 136.358 325.449 136.169 325.755 135.827C326.055 135.485 326.205 135.053 326.205 134.531C326.205 134.237 326.154 133.967 326.052 133.721C325.944 133.475 325.788 133.262 325.584 133.082L325.998 132.722C326.25 132.932 326.442 133.196 326.574 133.514C326.706 133.826 326.772 134.171 326.772 134.549C326.772 135.035 326.67 135.467 326.466 135.845C326.256 136.217 325.968 136.508 325.602 136.718C325.236 136.928 324.822 137.033 324.36 137.033C323.898 137.033 323.484 136.934 323.118 136.736C322.752 136.532 322.467 136.256 322.263 135.908C322.059 135.554 321.957 135.158 321.957 134.72C321.957 134.282 322.059 133.889 322.263 133.541C322.467 133.193 322.752 132.92 323.118 132.722C323.478 132.524 323.892 132.425 324.36 132.425L324.558 132.434ZM322.506 134.72C322.506 135.176 322.653 135.56 322.947 135.872C323.235 136.178 323.613 136.352 324.081 136.394L324.081 133.037C323.613 133.079 323.235 133.256 322.947 133.568C322.653 133.874 322.506 134.258 322.506 134.72ZM326.772 129.162C326.772 129.63 326.67 130.05 326.466 130.422C326.262 130.788 325.977 131.076 325.611 131.286C325.239 131.496 324.822 131.601 324.36 131.601C323.898 131.601 323.484 131.496 323.118 131.286C322.752 131.076 322.467 130.788 322.263 130.422C322.059 130.05 321.957 129.63 321.957 129.162C321.957 128.754 322.038 128.391 322.2 128.073C322.356 127.749 322.587 127.494 322.893 127.308L323.217 127.785C322.983 127.941 322.809 128.139 322.695 128.379C322.575 128.619 322.515 128.88 322.515 129.162C322.515 129.504 322.593 129.813 322.749 130.089C322.899 130.359 323.115 130.572 323.397 130.728C323.679 130.878 324 130.953 324.36 130.953C324.726 130.953 325.05 130.878 325.332 130.728C325.608 130.572 325.824 130.359 325.98 130.089C326.13 129.813 326.205 129.504 326.205 129.162C326.205 128.88 326.148 128.619 326.034 128.379C325.92 128.139 325.746 127.941 325.512 127.785L325.836 127.308C326.142 127.494 326.376 127.749 326.538 128.073C326.694 128.397 326.772 128.76 326.772 129.162ZM324.558 122.01L324.558 125.97C325.05 125.934 325.449 125.745 325.755 125.403C326.055 125.061 326.205 124.629 326.205 124.107C326.205 123.813 326.154 123.543 326.052 123.297C325.944 123.051 325.788 122.838 325.584 122.658L325.998 122.298C326.25 122.508 326.442 122.772 326.574 123.09C326.706 123.402 326.772 123.747 326.772 124.125C326.772 124.611 326.67 125.043 326.466 125.421C326.256 125.793 325.968 126.084 325.602 126.294C325.236 126.504 324.822 126.609 324.36 126.609C323.898 126.609 323.484 126.51 323.118 126.312C322.752 126.108 322.467 125.832 322.263 125.484C322.059 125.13 321.957 124.734 321.957 124.296C321.957 123.858 322.059 123.465 322.263 123.117C322.467 122.769 322.752 122.496 323.118 122.298C323.478 122.1 323.892 122.001 324.36 122.001L324.558 122.01ZM322.506 124.296C322.506 124.752 322.653 125.136 322.947 125.448C323.235 125.754 323.613 125.928 324.081 125.97L324.081 122.613C323.613 122.655 323.235 122.832 322.947 123.144C322.653 123.45 322.506 123.834 322.506 124.296ZM321.993 120.7L321.993 120.061L326.727 120.061L326.727 120.7L321.993 120.7ZM320.958 120.376C320.958 120.508 320.913 120.619 320.823 120.709C320.733 120.799 320.625 120.844 320.499 120.844C320.379 120.844 320.274 120.799 320.184 120.709C320.094 120.619 320.049 120.508 320.049 120.376C320.049 120.244 320.094 120.133 320.184 120.043C320.268 119.953 320.37 119.908 320.49 119.908C320.622 119.908 320.733 119.953 320.823 120.043C320.913 120.133 320.958 120.244 320.958 120.376ZM321.957 115.844C321.957 115.4 322.059 114.998 322.263 114.638C322.461 114.278 322.743 113.996 323.109 113.792C323.475 113.588 323.892 113.486 324.36 113.486C324.834 113.486 325.254 113.588 325.62 113.792C325.986 113.996 326.271 114.278 326.475 114.638C326.673 114.992 326.772 115.394 326.772 115.844C326.772 116.228 326.694 116.576 326.538 116.888C326.376 117.194 326.142 117.446 325.836 117.644L328.473 117.644L328.473 118.283L321.993 118.283L321.993 117.671L322.929 117.671C322.617 117.479 322.377 117.227 322.209 116.915C322.041 116.597 321.957 116.24 321.957 115.844ZM326.205 115.889C326.205 115.559 326.13 115.259 325.98 114.989C325.824 114.719 325.605 114.509 325.323 114.359C325.041 114.203 324.72 114.125 324.36 114.125C324 114.125 323.682 114.203 323.406 114.359C323.124 114.509 322.905 114.719 322.749 114.989C322.593 115.259 322.515 115.559 322.515 115.889C322.515 116.225 322.593 116.528 322.749 116.798C322.905 117.062 323.124 117.272 323.406 117.428C323.682 117.578 324 117.653 324.36 117.653C324.72 117.653 325.041 117.578 325.323 117.428C325.605 117.272 325.824 117.062 325.98 116.798C326.13 116.528 326.205 116.225 326.205 115.889ZM326.439 109.691C326.547 109.811 326.631 109.961 326.691 110.141C326.745 110.315 326.772 110.498 326.772 110.69C326.772 111.134 326.652 111.476 326.412 111.716C326.172 111.956 325.833 112.076 325.395 112.076L322.533 112.076L322.533 112.922L321.993 112.922L321.993 112.076L320.958 112.076L320.958 111.437L321.993 111.437L321.993 109.997L322.533 109.997L322.533 111.437L325.359 111.437C325.641 111.437 325.857 111.368 326.007 111.23C326.151 111.086 326.223 110.882 326.223 110.618C326.223 110.486 326.202 110.36 326.16 110.24C326.118 110.114 326.058 110.006 325.98 109.916L326.439 109.691Z" fill="black"/>
<path d="M449.848 224.493C449.998 224.175 450.22 223.935 450.514 223.773C450.814 223.611 451.183 223.53 451.621 223.53V224.151L451.468 224.142C450.97 224.142 450.58 224.295 450.298 224.601C450.016 224.907 449.875 225.336 449.875 225.888V228.3H449.236V223.566H449.848V224.493ZM454.425 223.53C455.043 223.53 455.517 223.686 455.847 223.998C456.177 224.304 456.342 224.76 456.342 225.366V228.3H455.73V227.562C455.586 227.808 455.373 228 455.091 228.138C454.815 228.276 454.485 228.345 454.101 228.345C453.573 228.345 453.153 228.219 452.841 227.967C452.529 227.715 452.373 227.382 452.373 226.968C452.373 226.566 452.517 226.242 452.805 225.996C453.099 225.75 453.564 225.627 454.2 225.627H455.703V225.339C455.703 224.931 455.589 224.622 455.361 224.412C455.133 224.196 454.8 224.088 454.362 224.088C454.062 224.088 453.774 224.139 453.498 224.241C453.222 224.337 452.985 224.472 452.787 224.646L452.499 224.169C452.739 223.965 453.027 223.809 453.363 223.701C453.699 223.587 454.053 223.53 454.425 223.53ZM454.2 227.841C454.56 227.841 454.869 227.76 455.127 227.598C455.385 227.43 455.577 227.19 455.703 226.878V226.104H454.218C453.408 226.104 453.003 226.386 453.003 226.95C453.003 227.226 453.108 227.445 453.318 227.607C453.528 227.763 453.822 227.841 454.2 227.841ZM460.571 228.012C460.451 228.12 460.301 228.204 460.121 228.264C459.947 228.318 459.764 228.345 459.572 228.345C459.128 228.345 458.786 228.225 458.546 227.985C458.306 227.745 458.186 227.406 458.186 226.968V224.106H457.34V223.566H458.186V222.531H458.825V223.566H460.265V224.106H458.825V226.932C458.825 227.214 458.894 227.43 459.032 227.58C459.176 227.724 459.38 227.796 459.644 227.796C459.776 227.796 459.902 227.775 460.022 227.733C460.148 227.691 460.256 227.631 460.346 227.553L460.571 228.012ZM465.689 226.131H461.729C461.765 226.623 461.954 227.022 462.296 227.328C462.638 227.628 463.07 227.778 463.592 227.778C463.886 227.778 464.156 227.727 464.402 227.625C464.648 227.517 464.861 227.361 465.041 227.157L465.401 227.571C465.191 227.823 464.927 228.015 464.609 228.147C464.297 228.279 463.952 228.345 463.574 228.345C463.088 228.345 462.656 228.243 462.278 228.039C461.906 227.829 461.615 227.541 461.405 227.175C461.195 226.809 461.09 226.395 461.09 225.933C461.09 225.471 461.189 225.057 461.387 224.691C461.591 224.325 461.867 224.04 462.215 223.836C462.569 223.632 462.965 223.53 463.403 223.53C463.841 223.53 464.234 223.632 464.582 223.836C464.93 224.04 465.203 224.325 465.401 224.691C465.599 225.051 465.698 225.465 465.698 225.933L465.689 226.131ZM463.403 224.079C462.947 224.079 462.563 224.226 462.251 224.52C461.945 224.808 461.771 225.186 461.729 225.654H465.086C465.044 225.186 464.867 224.808 464.555 224.52C464.249 224.226 463.865 224.079 463.403 224.079Z" fill="black"/>
<path d="M564.727 217.356V213L569.954 215.273L564.727 217.356Z" fill="#9A9C9E" stroke="#9A9C9E" stroke-width="2"/>
<path d="M359.083 49.3564L354.727 49.3564L356.999 45.0001L359.083 49.3564Z" fill="#9A9C9E" stroke="#9A9C9E" stroke-width="2"/>
<path d="M375.027 28.54C375.86 28.54 376.5 28.74 376.947 29.14C377.393 29.5333 377.617 30.13 377.617 30.93V34H376.157V33.33C375.863 33.83 375.317 34.08 374.517 34.08C374.103 34.08 373.743 34.01 373.437 33.87C373.137 33.73 372.907 33.5367 372.747 33.29C372.587 33.0433 372.507 32.7633 372.507 32.45C372.507 31.95 372.693 31.5567 373.067 31.27C373.447 30.9833 374.03 30.84 374.817 30.84H376.057C376.057 30.5 375.953 30.24 375.747 30.06C375.54 29.8733 375.23 29.78 374.817 29.78C374.53 29.78 374.247 29.8267 373.967 29.92C373.693 30.0067 373.46 30.1267 373.267 30.28L372.707 29.19C373 28.9833 373.35 28.8233 373.757 28.71C374.17 28.5967 374.593 28.54 375.027 28.54ZM374.907 33.03C375.173 33.03 375.41 32.97 375.617 32.85C375.823 32.7233 375.97 32.54 376.057 32.3V31.75H374.987C374.347 31.75 374.027 31.96 374.027 32.38C374.027 32.58 374.103 32.74 374.257 32.86C374.417 32.9733 374.633 33.03 374.907 33.03ZM384.271 28.62L382.001 34H380.391L378.131 28.62H379.741L381.231 32.28L382.771 28.62H384.271ZM390.311 28.62V33.1C390.311 34.0867 390.054 34.82 389.541 35.3C389.028 35.78 388.278 36.02 387.291 36.02C386.771 36.02 386.278 35.9567 385.811 35.83C385.344 35.7033 384.958 35.52 384.651 35.28L385.271 34.16C385.498 34.3467 385.784 34.4933 386.131 34.6C386.478 34.7133 386.824 34.77 387.171 34.77C387.711 34.77 388.108 34.6467 388.361 34.4C388.621 34.16 388.751 33.7933 388.751 33.3V33.07C388.344 33.5167 387.778 33.74 387.051 33.74C386.558 33.74 386.104 33.6333 385.691 33.42C385.284 33.2 384.961 32.8933 384.721 32.5C384.481 32.1067 384.361 31.6533 384.361 31.14C384.361 30.6267 384.481 30.1733 384.721 29.78C384.961 29.3867 385.284 29.0833 385.691 28.87C386.104 28.65 386.558 28.54 387.051 28.54C387.831 28.54 388.424 28.7967 388.831 29.31V28.62H390.311ZM387.361 32.46C387.774 32.46 388.111 32.34 388.371 32.1C388.638 31.8533 388.771 31.5333 388.771 31.14C388.771 30.7467 388.638 30.43 388.371 30.19C388.111 29.9433 387.774 29.82 387.361 29.82C386.948 29.82 386.608 29.9433 386.341 30.19C386.074 30.43 385.941 30.7467 385.941 31.14C385.941 31.5333 386.074 31.8533 386.341 32.1C386.608 32.34 386.948 32.46 387.361 32.46ZM391.043 34H396.043V34.9H391.043V34ZM398.253 29.33C398.44 29.07 398.69 28.8733 399.003 28.74C399.323 28.6067 399.69 28.54 400.103 28.54V29.98C399.93 29.9667 399.813 29.96 399.753 29.96C399.306 29.96 398.956 30.0867 398.703 30.34C398.45 30.5867 398.323 30.96 398.323 31.46V34H396.763V28.62H398.253V29.33ZM406.252 31.33C406.252 31.35 406.242 31.49 406.222 31.75H402.152C402.225 32.0833 402.398 32.3467 402.672 32.54C402.945 32.7333 403.285 32.83 403.692 32.83C403.972 32.83 404.218 32.79 404.432 32.71C404.652 32.6233 404.855 32.49 405.042 32.31L405.872 33.21C405.365 33.79 404.625 34.08 403.652 34.08C403.045 34.08 402.508 33.9633 402.042 33.73C401.575 33.49 401.215 33.16 400.962 32.74C400.708 32.32 400.582 31.8433 400.582 31.31C400.582 30.7833 400.705 30.31 400.952 29.89C401.205 29.4633 401.548 29.1333 401.982 28.9C402.422 28.66 402.912 28.54 403.452 28.54C403.978 28.54 404.455 28.6533 404.882 28.88C405.308 29.1067 405.642 29.4333 405.882 29.86C406.128 30.28 406.252 30.77 406.252 31.33ZM403.462 29.72C403.108 29.72 402.812 29.82 402.572 30.02C402.332 30.22 402.185 30.4933 402.132 30.84H404.782C404.728 30.5 404.582 30.23 404.342 30.03C404.102 29.8233 403.808 29.72 403.462 29.72ZM409.89 34.08C409.317 34.08 408.8 33.9633 408.34 33.73C407.887 33.49 407.53 33.16 407.27 32.74C407.017 32.32 406.89 31.8433 406.89 31.31C406.89 30.7767 407.017 30.3 407.27 29.88C407.53 29.46 407.887 29.1333 408.34 28.9C408.8 28.66 409.317 28.54 409.89 28.54C410.457 28.54 410.95 28.66 411.37 28.9C411.797 29.1333 412.107 29.47 412.3 29.91L411.09 30.56C410.81 30.0667 410.407 29.82 409.88 29.82C409.474 29.82 409.137 29.9533 408.87 30.22C408.604 30.4867 408.47 30.85 408.47 31.31C408.47 31.77 408.604 32.1333 408.87 32.4C409.137 32.6667 409.474 32.8 409.88 32.8C410.414 32.8 410.817 32.5533 411.09 32.06L412.3 32.72C412.107 33.1467 411.797 33.48 411.37 33.72C410.95 33.96 410.457 34.08 409.89 34.08ZM418.4 31.33C418.4 31.35 418.39 31.49 418.37 31.75H414.3C414.373 32.0833 414.547 32.3467 414.82 32.54C415.093 32.7333 415.433 32.83 415.84 32.83C416.12 32.83 416.367 32.79 416.58 32.71C416.8 32.6233 417.003 32.49 417.19 32.31L418.02 33.21C417.513 33.79 416.773 34.08 415.8 34.08C415.193 34.08 414.657 33.9633 414.19 33.73C413.723 33.49 413.363 33.16 413.11 32.74C412.857 32.32 412.73 31.8433 412.73 31.31C412.73 30.7833 412.853 30.31 413.1 29.89C413.353 29.4633 413.697 29.1333 414.13 28.9C414.57 28.66 415.06 28.54 415.6 28.54C416.127 28.54 416.603 28.6533 417.03 28.88C417.457 29.1067 417.79 29.4333 418.03 29.86C418.277 30.28 418.4 30.77 418.4 31.33ZM415.61 29.72C415.257 29.72 414.96 29.82 414.72 30.02C414.48 30.22 414.333 30.4933 414.28 30.84H416.93C416.877 30.5 416.73 30.23 416.49 30.03C416.25 29.8233 415.957 29.72 415.61 29.72ZM419.439 28.62H420.999V34H419.439V28.62ZM420.219 27.87C419.932 27.87 419.699 27.7867 419.519 27.62C419.339 27.4533 419.249 27.2467 419.249 27C419.249 26.7533 419.339 26.5467 419.519 26.38C419.699 26.2133 419.932 26.13 420.219 26.13C420.505 26.13 420.739 26.21 420.919 26.37C421.099 26.53 421.189 26.73 421.189 26.97C421.189 27.23 421.099 27.4467 420.919 27.62C420.739 27.7867 420.505 27.87 420.219 27.87ZM425.627 28.54C426.127 28.54 426.58 28.6567 426.987 28.89C427.4 29.1167 427.723 29.44 427.957 29.86C428.19 30.2733 428.307 30.7567 428.307 31.31C428.307 31.8633 428.19 32.35 427.957 32.77C427.723 33.1833 427.4 33.5067 426.987 33.74C426.58 33.9667 426.127 34.08 425.627 34.08C424.94 34.08 424.4 33.8633 424.007 33.43V35.94H422.447V28.62H423.937V29.24C424.323 28.7733 424.887 28.54 425.627 28.54ZM425.357 32.8C425.757 32.8 426.083 32.6667 426.337 32.4C426.597 32.1267 426.727 31.7633 426.727 31.31C426.727 30.8567 426.597 30.4967 426.337 30.23C426.083 29.9567 425.757 29.82 425.357 29.82C424.957 29.82 424.627 29.9567 424.367 30.23C424.113 30.4967 423.987 30.8567 423.987 31.31C423.987 31.7633 424.113 32.1267 424.367 32.4C424.627 32.6667 424.957 32.8 425.357 32.8ZM432.821 33.74C432.668 33.8533 432.478 33.94 432.251 34C432.031 34.0533 431.798 34.08 431.551 34.08C430.911 34.08 430.414 33.9167 430.061 33.59C429.714 33.2633 429.541 32.7833 429.541 32.15V29.94H428.711V28.74H429.541V27.43H431.101V28.74H432.441V29.94H431.101V32.13C431.101 32.3567 431.158 32.5333 431.271 32.66C431.391 32.78 431.558 32.84 431.771 32.84C432.018 32.84 432.228 32.7733 432.401 32.64L432.821 33.74ZM436.429 28.65H441.189V29.87H436.429V28.65ZM436.429 31.13H441.189V32.35H436.429V31.13ZM448.287 29.85C448.9 29.95 449.37 30.18 449.697 30.54C450.024 30.8933 450.187 31.3333 450.187 31.86C450.187 32.2667 450.08 32.6433 449.867 32.99C449.654 33.33 449.327 33.6033 448.887 33.81C448.454 34.0167 447.92 34.12 447.287 34.12C446.794 34.12 446.307 34.0567 445.827 33.93C445.354 33.7967 444.95 33.61 444.617 33.37L445.247 32.13C445.514 32.33 445.82 32.4867 446.167 32.6C446.52 32.7067 446.88 32.76 447.247 32.76C447.654 32.76 447.974 32.6833 448.207 32.53C448.44 32.37 448.557 32.1467 448.557 31.86C448.557 31.2867 448.12 31 447.247 31H446.507V29.93L447.947 28.3H444.967V27H449.867V28.05L448.287 29.85ZM454.156 29.85C454.769 29.95 455.239 30.18 455.566 30.54C455.893 30.8933 456.056 31.3333 456.056 31.86C456.056 32.2667 455.949 32.6433 455.736 32.99C455.523 33.33 455.196 33.6033 454.756 33.81C454.323 34.0167 453.789 34.12 453.156 34.12C452.663 34.12 452.176 34.0567 451.696 33.93C451.223 33.7967 450.819 33.61 450.486 33.37L451.116 32.13C451.383 32.33 451.689 32.4867 452.036 32.6C452.389 32.7067 452.749 32.76 453.116 32.76C453.523 32.76 453.843 32.6833 454.076 32.53C454.309 32.37 454.426 32.1467 454.426 31.86C454.426 31.2867 453.989 31 453.116 31H452.376V29.93L453.816 28.3H450.836V27H455.736V28.05L454.156 29.85ZM457.724 34.08C457.451 34.08 457.221 33.9867 457.034 33.8C456.847 33.6133 456.754 33.38 456.754 33.1C456.754 32.8133 456.847 32.5833 457.034 32.41C457.221 32.23 457.451 32.14 457.724 32.14C457.997 32.14 458.227 32.23 458.414 32.41C458.601 32.5833 458.694 32.8133 458.694 33.1C458.694 33.38 458.601 33.6133 458.414 33.8C458.227 33.9867 457.997 34.08 457.724 34.08ZM462.789 29.85C463.402 29.95 463.872 30.18 464.199 30.54C464.526 30.8933 464.689 31.3333 464.689 31.86C464.689 32.2667 464.582 32.6433 464.369 32.99C464.156 33.33 463.829 33.6033 463.389 33.81C462.956 34.0167 462.422 34.12 461.789 34.12C461.296 34.12 460.809 34.0567 460.329 33.93C459.856 33.7967 459.452 33.61 459.119 33.37L459.749 32.13C460.016 32.33 460.322 32.4867 460.669 32.6C461.022 32.7067 461.382 32.76 461.749 32.76C462.156 32.76 462.476 32.6833 462.709 32.53C462.942 32.37 463.059 32.1467 463.059 31.86C463.059 31.2867 462.622 31 461.749 31H461.009V29.93L462.449 28.3H459.469V27H464.369V28.05L462.789 29.85ZM468.658 29.85C469.271 29.95 469.741 30.18 470.068 30.54C470.395 30.8933 470.558 31.3333 470.558 31.86C470.558 32.2667 470.451 32.6433 470.238 32.99C470.025 33.33 469.698 33.6033 469.258 33.81C468.825 34.0167 468.291 34.12 467.658 34.12C467.165 34.12 466.678 34.0567 466.198 33.93C465.725 33.7967 465.321 33.61 464.988 33.37L465.618 32.13C465.885 32.33 466.191 32.4867 466.538 32.6C466.891 32.7067 467.251 32.76 467.618 32.76C468.025 32.76 468.345 32.6833 468.578 32.53C468.811 32.37 468.928 32.1467 468.928 31.86C468.928 31.2867 468.491 31 467.618 31H466.878V29.93L468.318 28.3H465.338V27H470.238V28.05L468.658 29.85ZM479.128 31.11H477.388V32.81H476.098V31.11H474.368V29.89H476.098V28.19H477.388V29.89H479.128V31.11ZM486.326 29.61C486.773 29.61 487.18 29.7 487.546 29.88C487.913 30.06 488.203 30.3167 488.416 30.65C488.63 30.9767 488.736 31.3567 488.736 31.79C488.736 32.2567 488.62 32.6667 488.386 33.02C488.153 33.3733 487.833 33.6467 487.426 33.84C487.026 34.0267 486.58 34.12 486.086 34.12C485.106 34.12 484.34 33.82 483.786 33.22C483.233 32.62 482.956 31.7633 482.956 30.65C482.956 29.8567 483.106 29.1767 483.406 28.61C483.706 28.0433 484.123 27.6133 484.656 27.32C485.196 27.0267 485.82 26.88 486.526 26.88C486.9 26.88 487.256 26.9233 487.596 27.01C487.943 27.09 488.236 27.2067 488.476 27.36L487.876 28.55C487.53 28.3167 487.093 28.2 486.566 28.2C485.973 28.2 485.503 28.3733 485.156 28.72C484.81 29.0667 484.623 29.57 484.596 30.23C485.01 29.8167 485.586 29.61 486.326 29.61ZM485.996 32.91C486.343 32.91 486.623 32.8167 486.836 32.63C487.056 32.4433 487.166 32.19 487.166 31.87C487.166 31.55 487.056 31.2967 486.836 31.11C486.623 30.9167 486.336 30.82 485.976 30.82C485.623 30.82 485.333 30.92 485.106 31.12C484.88 31.3133 484.766 31.5633 484.766 31.87C484.766 32.1767 484.876 32.4267 485.096 32.62C485.316 32.8133 485.616 32.91 485.996 32.91ZM492.694 29.61C493.14 29.61 493.547 29.7 493.914 29.88C494.28 30.06 494.57 30.3167 494.784 30.65C494.997 30.9767 495.104 31.3567 495.104 31.79C495.104 32.2567 494.987 32.6667 494.754 33.02C494.52 33.3733 494.2 33.6467 493.794 33.84C493.394 34.0267 492.947 34.12 492.454 34.12C491.474 34.12 490.707 33.82 490.154 33.22C489.6 32.62 489.324 31.7633 489.324 30.65C489.324 29.8567 489.474 29.1767 489.774 28.61C490.074 28.0433 490.49 27.6133 491.024 27.32C491.564 27.0267 492.187 26.88 492.894 26.88C493.267 26.88 493.624 26.9233 493.964 27.01C494.31 27.09 494.604 27.2067 494.844 27.36L494.244 28.55C493.897 28.3167 493.46 28.2 492.934 28.2C492.34 28.2 491.87 28.3733 491.524 28.72C491.177 29.0667 490.99 29.57 490.964 30.23C491.377 29.8167 491.954 29.61 492.694 29.61ZM492.364 32.91C492.71 32.91 492.99 32.8167 493.204 32.63C493.424 32.4433 493.534 32.19 493.534 31.87C493.534 31.55 493.424 31.2967 493.204 31.11C492.99 30.9167 492.704 30.82 492.344 30.82C491.99 30.82 491.7 30.92 491.474 31.12C491.247 31.3133 491.134 31.5633 491.134 31.87C491.134 32.1767 491.244 32.4267 491.464 32.62C491.684 32.8133 491.984 32.91 492.364 32.91ZM496.708 34.08C496.435 34.08 496.205 33.9867 496.018 33.8C495.832 33.6133 495.738 33.38 495.738 33.1C495.738 32.8133 495.832 32.5833 496.018 32.41C496.205 32.23 496.435 32.14 496.708 32.14C496.982 32.14 497.212 32.23 497.398 32.41C497.585 32.5833 497.678 32.8133 497.678 33.1C497.678 33.38 497.585 33.6133 497.398 33.8C497.212 33.9867 496.982 34.08 496.708 34.08ZM501.649 29.61C502.095 29.61 502.502 29.7 502.869 29.88C503.235 30.06 503.525 30.3167 503.739 30.65C503.952 30.9767 504.059 31.3567 504.059 31.79C504.059 32.2567 503.942 32.6667 503.709 33.02C503.475 33.3733 503.155 33.6467 502.749 33.84C502.349 34.0267 501.902 34.12 501.409 34.12C500.429 34.12 499.662 33.82 499.109 33.22C498.555 32.62 498.279 31.7633 498.279 30.65C498.279 29.8567 498.429 29.1767 498.729 28.61C499.029 28.0433 499.445 27.6133 499.979 27.32C500.519 27.0267 501.142 26.88 501.849 26.88C502.222 26.88 502.579 26.9233 502.919 27.01C503.265 27.09 503.559 27.2067 503.799 27.36L503.199 28.55C502.852 28.3167 502.415 28.2 501.889 28.2C501.295 28.2 500.825 28.3733 500.479 28.72C500.132 29.0667 499.945 29.57 499.919 30.23C500.332 29.8167 500.909 29.61 501.649 29.61ZM501.319 32.91C501.665 32.91 501.945 32.8167 502.159 32.63C502.379 32.4433 502.489 32.19 502.489 31.87C502.489 31.55 502.379 31.2967 502.159 31.11C501.945 30.9167 501.659 30.82 501.299 30.82C500.945 30.82 500.655 30.92 500.429 31.12C500.202 31.3133 500.089 31.5633 500.089 31.87C500.089 32.1767 500.199 32.4267 500.419 32.62C500.639 32.8133 500.939 32.91 501.319 32.91ZM510.087 27V28.05L507.487 34H505.727L508.237 28.32H505.917V29.46H504.477V27H510.087ZM516.37 28.56L517.46 29.15L516.97 29.97L515.87 29.32L515.89 30.53H514.95L514.96 29.31L513.86 29.97L513.38 29.15L514.47 28.56L513.38 27.96L513.86 27.14L514.96 27.8L514.95 26.58H515.89L515.87 27.8L516.97 27.14L517.46 27.96L516.37 28.56ZM522.628 29.33C522.815 29.07 523.065 28.8733 523.378 28.74C523.698 28.6067 524.065 28.54 524.478 28.54V29.98C524.305 29.9667 524.188 29.96 524.128 29.96C523.681 29.96 523.331 30.0867 523.078 30.34C522.825 30.5867 522.698 30.96 522.698 31.46V34H521.138V28.62H522.628V29.33ZM527.546 28.54C528.38 28.54 529.02 28.74 529.466 29.14C529.913 29.5333 530.136 30.13 530.136 30.93V34H528.676V33.33C528.383 33.83 527.836 34.08 527.036 34.08C526.623 34.08 526.263 34.01 525.956 33.87C525.656 33.73 525.426 33.5367 525.266 33.29C525.106 33.0433 525.026 32.7633 525.026 32.45C525.026 31.95 525.213 31.5567 525.586 31.27C525.966 30.9833 526.55 30.84 527.336 30.84H528.576C528.576 30.5 528.473 30.24 528.266 30.06C528.06 29.8733 527.75 29.78 527.336 29.78C527.05 29.78 526.766 29.8267 526.486 29.92C526.213 30.0067 525.98 30.1267 525.786 30.28L525.226 29.19C525.52 28.9833 525.87 28.8233 526.276 28.71C526.69 28.5967 527.113 28.54 527.546 28.54ZM527.426 33.03C527.693 33.03 527.93 32.97 528.136 32.85C528.343 32.7233 528.49 32.54 528.576 32.3V31.75H527.506C526.866 31.75 526.546 31.96 526.546 32.38C526.546 32.58 526.623 32.74 526.776 32.86C526.936 32.9733 527.153 33.03 527.426 33.03ZM535.018 33.74C534.865 33.8533 534.675 33.94 534.448 34C534.228 34.0533 533.995 34.08 533.748 34.08C533.108 34.08 532.611 33.9167 532.258 33.59C531.911 33.2633 531.738 32.7833 531.738 32.15V29.94H530.908V28.74H531.738V27.43H533.298V28.74H534.638V29.94H533.298V32.13C533.298 32.3567 533.355 32.5333 533.468 32.66C533.588 32.78 533.755 32.84 533.968 32.84C534.215 32.84 534.425 32.7733 534.598 32.64L535.018 33.74ZM540.998 31.33C540.998 31.35 540.988 31.49 540.968 31.75H536.898C536.971 32.0833 537.144 32.3467 537.418 32.54C537.691 32.7333 538.031 32.83 538.438 32.83C538.718 32.83 538.964 32.79 539.178 32.71C539.398 32.6233 539.601 32.49 539.788 32.31L540.618 33.21C540.111 33.79 539.371 34.08 538.398 34.08C537.791 34.08 537.254 33.9633 536.788 33.73C536.321 33.49 535.961 33.16 535.708 32.74C535.454 32.32 535.328 31.8433 535.328 31.31C535.328 30.7833 535.451 30.31 535.698 29.89C535.951 29.4633 536.294 29.1333 536.728 28.9C537.168 28.66 537.658 28.54 538.198 28.54C538.724 28.54 539.201 28.6533 539.628 28.88C540.054 29.1067 540.388 29.4333 540.628 29.86C540.874 30.28 540.998 30.77 540.998 31.33ZM538.208 29.72C537.854 29.72 537.558 29.82 537.318 30.02C537.078 30.22 536.931 30.4933 536.878 30.84H539.528C539.474 30.5 539.328 30.23 539.088 30.03C538.848 29.8233 538.554 29.72 538.208 29.72Z" fill="black"/>
<path d="M533.078 106.229C533.492 106.229 533.858 106.307 534.176 106.463C534.5 106.619 534.752 106.841 534.932 107.129C535.112 107.411 535.202 107.741 535.202 108.119C535.202 108.503 535.109 108.842 534.923 109.136C534.737 109.43 534.479 109.658 534.149 109.82C533.825 109.976 533.459 110.054 533.051 110.054C532.217 110.054 531.578 109.781 531.134 109.235C530.69 108.683 530.468 107.906 530.468 106.904C530.468 106.202 530.588 105.608 530.828 105.122C531.068 104.636 531.404 104.27 531.836 104.024C532.268 103.772 532.772 103.646 533.348 103.646C533.972 103.646 534.47 103.76 534.842 103.988L534.581 104.51C534.281 104.312 533.873 104.213 533.357 104.213C532.661 104.213 532.115 104.435 531.719 104.879C531.323 105.317 531.125 105.956 531.125 106.796C531.125 106.946 531.134 107.117 531.152 107.309C531.308 106.967 531.557 106.703 531.899 106.517C532.241 106.325 532.634 106.229 533.078 106.229ZM533.024 109.505C533.48 109.505 533.849 109.382 534.131 109.136C534.419 108.884 534.563 108.551 534.563 108.137C534.563 107.723 534.419 107.393 534.131 107.147C533.849 106.901 533.465 106.778 532.979 106.778C532.661 106.778 532.379 106.838 532.133 106.958C531.893 107.078 531.704 107.243 531.566 107.453C531.428 107.663 531.359 107.897 531.359 108.155C531.359 108.395 531.422 108.617 531.548 108.821C531.68 109.025 531.872 109.19 532.124 109.316C532.376 109.442 532.676 109.505 533.024 109.505ZM538.562 106.229C538.976 106.229 539.342 106.307 539.66 106.463C539.984 106.619 540.236 106.841 540.416 107.129C540.596 107.411 540.686 107.741 540.686 108.119C540.686 108.503 540.593 108.842 540.407 109.136C540.221 109.43 539.963 109.658 539.633 109.82C539.309 109.976 538.943 110.054 538.535 110.054C537.701 110.054 537.062 109.781 536.618 109.235C536.174 108.683 535.952 107.906 535.952 106.904C535.952 106.202 536.072 105.608 536.312 105.122C536.552 104.636 536.888 104.27 537.32 104.024C537.752 103.772 538.256 103.646 538.832 103.646C539.456 103.646 539.954 103.76 540.326 103.988L540.065 104.51C539.765 104.312 539.357 104.213 538.841 104.213C538.145 104.213 537.599 104.435 537.203 104.879C536.807 105.317 536.609 105.956 536.609 106.796C536.609 106.946 536.618 107.117 536.636 107.309C536.792 106.967 537.041 106.703 537.383 106.517C537.725 106.325 538.118 106.229 538.562 106.229ZM538.508 109.505C538.964 109.505 539.333 109.382 539.615 109.136C539.903 108.884 540.047 108.551 540.047 108.137C540.047 107.723 539.903 107.393 539.615 107.147C539.333 106.901 538.949 106.778 538.463 106.778C538.145 106.778 537.863 106.838 537.617 106.958C537.377 107.078 537.188 107.243 537.05 107.453C536.912 107.663 536.843 107.897 536.843 108.155C536.843 108.395 536.906 108.617 537.032 108.821C537.164 109.025 537.356 109.19 537.608 109.316C537.86 109.442 538.16 109.505 538.508 109.505ZM542.011 110.045C541.879 110.045 541.765 109.997 541.669 109.901C541.579 109.805 541.534 109.688 541.534 109.55C541.534 109.412 541.579 109.298 541.669 109.208C541.765 109.112 541.879 109.064 542.011 109.064C542.143 109.064 542.257 109.112 542.353 109.208C542.449 109.298 542.497 109.412 542.497 109.55C542.497 109.688 542.449 109.805 542.353 109.901C542.257 109.997 542.143 110.045 542.011 110.045ZM545.945 106.229C546.359 106.229 546.725 106.307 547.043 106.463C547.367 106.619 547.619 106.841 547.799 107.129C547.979 107.411 548.069 107.741 548.069 108.119C548.069 108.503 547.976 108.842 547.79 109.136C547.604 109.43 547.346 109.658 547.016 109.82C546.692 109.976 546.326 110.054 545.918 110.054C545.084 110.054 544.445 109.781 544.001 109.235C543.557 108.683 543.335 107.906 543.335 106.904C543.335 106.202 543.455 105.608 543.695 105.122C543.935 104.636 544.271 104.27 544.703 104.024C545.135 103.772 545.639 103.646 546.215 103.646C546.839 103.646 547.337 103.76 547.709 103.988L547.448 104.51C547.148 104.312 546.74 104.213 546.224 104.213C545.528 104.213 544.982 104.435 544.586 104.879C544.19 105.317 543.992 105.956 543.992 106.796C543.992 106.946 544.001 107.117 544.019 107.309C544.175 106.967 544.424 106.703 544.766 106.517C545.108 106.325 545.501 106.229 545.945 106.229ZM545.891 109.505C546.347 109.505 546.716 109.382 546.998 109.136C547.286 108.884 547.43 108.551 547.43 108.137C547.43 107.723 547.286 107.393 546.998 107.147C546.716 106.901 546.332 106.778 545.846 106.778C545.528 106.778 545.246 106.838 545 106.958C544.76 107.078 544.571 107.243 544.433 107.453C544.295 107.663 544.226 107.897 544.226 108.155C544.226 108.395 544.289 108.617 544.415 108.821C544.547 109.025 544.739 109.19 544.991 109.316C545.243 109.442 545.543 109.505 545.891 109.505ZM553.195 103.7V104.159L550.558 110H549.856L552.448 104.276H549.208V105.455H548.569V103.7H553.195Z" fill="black"/>
<path d="M326.109 205.4C326.769 205.436 327.27 205.616 327.612 205.94C327.96 206.258 328.134 206.675 328.134 207.191C328.134 207.551 328.047 207.872 327.873 208.154C327.699 208.43 327.441 208.649 327.099 208.811C326.757 208.973 326.34 209.054 325.848 209.054C325.392 209.054 324.96 208.982 324.552 208.838C324.15 208.688 323.826 208.49 323.58 208.244L323.895 207.731C324.105 207.947 324.384 208.124 324.732 208.262C325.08 208.394 325.452 208.46 325.848 208.46C326.364 208.46 326.763 208.349 327.045 208.127C327.327 207.899 327.468 207.587 327.468 207.191C327.468 206.801 327.327 206.495 327.045 206.273C326.763 206.051 326.337 205.94 325.767 205.94H325.317V205.463L327.063 203.276H323.841V202.7H327.891V203.159L326.109 205.4ZM331.145 205.4C331.805 205.436 332.306 205.616 332.648 205.94C332.996 206.258 333.17 206.675 333.17 207.191C333.17 207.551 333.083 207.872 332.909 208.154C332.735 208.43 332.477 208.649 332.135 208.811C331.793 208.973 331.376 209.054 330.884 209.054C330.428 209.054 329.996 208.982 329.588 208.838C329.186 208.688 328.862 208.49 328.616 208.244L328.931 207.731C329.141 207.947 329.42 208.124 329.768 208.262C330.116 208.394 330.488 208.46 330.884 208.46C331.4 208.46 331.799 208.349 332.081 208.127C332.363 207.899 332.504 207.587 332.504 207.191C332.504 206.801 332.363 206.495 332.081 206.273C331.799 206.051 331.373 205.94 330.803 205.94H330.353V205.463L332.099 203.276H328.877V202.7H332.927V203.159L331.145 205.4ZM334.569 209.045C334.437 209.045 334.323 208.997 334.227 208.901C334.137 208.805 334.092 208.688 334.092 208.55C334.092 208.412 334.137 208.298 334.227 208.208C334.323 208.112 334.437 208.064 334.569 208.064C334.701 208.064 334.815 208.112 334.911 208.208C335.007 208.298 335.055 208.412 335.055 208.55C335.055 208.688 335.007 208.805 334.911 208.901C334.815 208.997 334.701 209.045 334.569 209.045ZM338.22 205.4C338.88 205.436 339.381 205.616 339.723 205.94C340.071 206.258 340.245 206.675 340.245 207.191C340.245 207.551 340.158 207.872 339.984 208.154C339.81 208.43 339.552 208.649 339.21 208.811C338.868 208.973 338.451 209.054 337.959 209.054C337.503 209.054 337.071 208.982 336.663 208.838C336.261 208.688 335.937 208.49 335.691 208.244L336.006 207.731C336.216 207.947 336.495 208.124 336.843 208.262C337.191 208.394 337.563 208.46 337.959 208.46C338.475 208.46 338.874 208.349 339.156 208.127C339.438 207.899 339.579 207.587 339.579 207.191C339.579 206.801 339.438 206.495 339.156 206.273C338.874 206.051 338.448 205.94 337.878 205.94H337.428V205.463L339.174 203.276H335.952V202.7H340.002V203.159L338.22 205.4ZM343.256 205.4C343.916 205.436 344.417 205.616 344.759 205.94C345.107 206.258 345.281 206.675 345.281 207.191C345.281 207.551 345.194 207.872 345.02 208.154C344.846 208.43 344.588 208.649 344.246 208.811C343.904 208.973 343.487 209.054 342.995 209.054C342.539 209.054 342.107 208.982 341.699 208.838C341.297 208.688 340.973 208.49 340.727 208.244L341.042 207.731C341.252 207.947 341.531 208.124 341.879 208.262C342.227 208.394 342.599 208.46 342.995 208.46C343.511 208.46 343.91 208.349 344.192 208.127C344.474 207.899 344.615 207.587 344.615 207.191C344.615 206.801 344.474 206.495 344.192 206.273C343.91 206.051 343.484 205.94 342.914 205.94H342.464V205.463L344.21 203.276H340.988V202.7H345.038V203.159L343.256 205.4Z" fill="black"/>
<circle cx="536.726" cy="76" r="3" fill="#808080"/>
<circle cx="497" cy="76" r="3" fill="#808080"/>
<circle cx="457" cy="136" r="3" fill="#808080"/>
<circle cx="417" cy="136" r="3" fill="#808080"/>
<circle cx="417" cy="175" r="3" fill="#808080"/>
<circle cx="377" cy="195" r="3" fill="#808080"/>
<circle cx="497" cy="155" r="3" fill="#808080"/>
<path d="M411.385 258V254.749H412.862C413.215 254.749 413.527 254.817 413.796 254.953C414.065 255.086 414.276 255.274 414.428 255.515C414.579 255.757 414.655 256.043 414.655 256.374C414.655 256.703 414.579 256.989 414.428 257.234C414.276 257.475 414.065 257.664 413.796 257.8C413.527 257.933 413.215 258 412.862 258H411.385ZM412.138 257.382H412.825C413.042 257.382 413.229 257.342 413.387 257.262C413.548 257.178 413.672 257.06 413.759 256.909C413.849 256.757 413.893 256.579 413.893 256.374C413.893 256.167 413.849 255.989 413.759 255.84C413.672 255.689 413.548 255.573 413.387 255.492C413.229 255.408 413.042 255.367 412.825 255.367H412.138V257.382ZM416.704 258V257.512L416.658 257.406V256.532C416.658 256.378 416.61 256.257 416.514 256.17C416.421 256.083 416.277 256.04 416.082 256.04C415.949 256.04 415.817 256.062 415.687 256.105C415.56 256.145 415.452 256.201 415.362 256.272L415.102 255.766C415.238 255.67 415.402 255.596 415.594 255.543C415.786 255.49 415.981 255.464 416.179 255.464C416.56 255.464 416.856 255.554 417.066 255.734C417.277 255.913 417.382 256.193 417.382 256.574V258H416.704ZM415.942 258.037C415.747 258.037 415.58 258.005 415.441 257.94C415.302 257.872 415.195 257.78 415.12 257.666C415.046 257.551 415.009 257.423 415.009 257.28C415.009 257.131 415.045 257.001 415.116 256.89C415.19 256.779 415.306 256.692 415.464 256.63C415.622 256.565 415.828 256.532 416.082 256.532H416.746V256.955H416.161C415.99 256.955 415.873 256.983 415.808 257.039C415.746 257.094 415.715 257.164 415.715 257.248C415.715 257.34 415.751 257.415 415.822 257.471C415.896 257.523 415.997 257.549 416.124 257.549C416.244 257.549 416.353 257.522 416.449 257.466C416.545 257.407 416.614 257.322 416.658 257.21L416.769 257.545C416.717 257.706 416.621 257.828 416.481 257.912C416.342 257.995 416.162 258.037 415.942 258.037ZM419.06 258.037C418.766 258.037 418.537 257.963 418.372 257.814C418.208 257.663 418.126 257.438 418.126 257.141V254.949H418.851V257.131C418.851 257.237 418.879 257.319 418.934 257.378C418.99 257.433 419.066 257.461 419.162 257.461C419.277 257.461 419.374 257.43 419.455 257.368L419.65 257.879C419.575 257.932 419.486 257.972 419.38 258C419.278 258.025 419.171 258.037 419.06 258.037ZM417.741 256.114V255.557H419.473V256.114H417.741ZM421.589 258V257.512L421.543 257.406V256.532C421.543 256.378 421.495 256.257 421.399 256.17C421.306 256.083 421.162 256.04 420.967 256.04C420.834 256.04 420.702 256.062 420.572 256.105C420.445 256.145 420.337 256.201 420.247 256.272L419.987 255.766C420.123 255.67 420.287 255.596 420.479 255.543C420.671 255.49 420.866 255.464 421.064 255.464C421.445 255.464 421.741 255.554 421.951 255.734C422.162 255.913 422.267 256.193 422.267 256.574V258H421.589ZM420.827 258.037C420.632 258.037 420.465 258.005 420.326 257.94C420.186 257.872 420.08 257.78 420.005 257.666C419.931 257.551 419.894 257.423 419.894 257.28C419.894 257.131 419.929 257.001 420.001 256.89C420.075 256.779 420.191 256.692 420.349 256.63C420.507 256.565 420.713 256.532 420.967 256.532H421.631V256.955H421.046C420.875 256.955 420.758 256.983 420.693 257.039C420.631 257.094 420.6 257.164 420.6 257.248C420.6 257.34 420.635 257.415 420.707 257.471C420.781 257.523 420.882 257.549 421.008 257.549C421.129 257.549 421.238 257.522 421.334 257.466C421.43 257.407 421.499 257.322 421.543 257.21L421.654 257.545C421.601 257.706 421.505 257.828 421.366 257.912C421.227 257.995 421.047 258.037 420.827 258.037ZM425.845 258.056C425.594 258.056 425.361 258.015 425.144 257.935C424.93 257.851 424.744 257.734 424.586 257.582C424.429 257.43 424.305 257.252 424.215 257.048C424.128 256.844 424.085 256.619 424.085 256.374C424.085 256.13 424.128 255.905 424.215 255.701C424.305 255.497 424.429 255.319 424.586 255.167C424.747 255.015 424.935 254.899 425.148 254.819C425.362 254.735 425.596 254.693 425.85 254.693C426.132 254.693 426.385 254.743 426.611 254.842C426.841 254.938 427.033 255.08 427.187 255.269L426.704 255.715C426.593 255.588 426.469 255.494 426.333 255.432C426.197 255.367 426.048 255.334 425.887 255.334C425.735 255.334 425.596 255.359 425.469 255.408C425.342 255.458 425.232 255.529 425.139 255.622C425.046 255.715 424.974 255.825 424.921 255.952C424.871 256.079 424.847 256.22 424.847 256.374C424.847 256.529 424.871 256.67 424.921 256.797C424.974 256.924 425.046 257.034 425.139 257.127C425.232 257.22 425.342 257.291 425.469 257.34C425.596 257.39 425.735 257.415 425.887 257.415C426.048 257.415 426.197 257.384 426.333 257.322C426.469 257.257 426.593 257.159 426.704 257.029L427.187 257.475C427.033 257.664 426.841 257.808 426.611 257.907C426.385 258.006 426.13 258.056 425.845 258.056ZM428.64 258.037C428.432 258.037 428.246 257.997 428.082 257.916C427.921 257.836 427.796 257.714 427.706 257.549C427.616 257.382 427.571 257.17 427.571 256.913V255.501H428.296V256.806C428.296 257.014 428.339 257.167 428.426 257.266C428.516 257.362 428.641 257.41 428.802 257.41C428.914 257.41 429.013 257.387 429.1 257.34C429.186 257.291 429.254 257.217 429.304 257.118C429.353 257.015 429.378 256.888 429.378 256.737V255.501H430.103V258H429.415V257.313L429.541 257.512C429.457 257.686 429.333 257.817 429.169 257.907C429.008 257.994 428.832 258.037 428.64 258.037ZM430.774 258V254.554H431.498V258H430.774ZM433.379 258.037C433.084 258.037 432.855 257.963 432.691 257.814C432.527 257.663 432.445 257.438 432.445 257.141V254.949H433.17V257.131C433.17 257.237 433.198 257.319 433.253 257.378C433.309 257.433 433.385 257.461 433.481 257.461C433.595 257.461 433.693 257.43 433.773 257.368L433.968 257.879C433.894 257.932 433.804 257.972 433.699 258C433.597 258.025 433.49 258.037 433.379 258.037ZM432.06 256.114V255.557H433.792V256.114H432.06ZM435.429 258.037C435.222 258.037 435.036 257.997 434.872 257.916C434.711 257.836 434.586 257.714 434.496 257.549C434.406 257.382 434.361 257.17 434.361 256.913V255.501H435.086V256.806C435.086 257.014 435.129 257.167 435.216 257.266C435.306 257.362 435.431 257.41 435.592 257.41C435.704 257.41 435.803 257.387 435.889 257.34C435.976 257.291 436.044 257.217 436.094 257.118C436.143 257.015 436.168 256.888 436.168 256.737V255.501H436.892V258H436.205V257.313L436.331 257.512C436.247 257.686 436.123 257.817 435.959 257.907C435.798 257.994 435.621 258.037 435.429 258.037ZM437.564 258V255.501H438.256V256.207L438.158 256.003C438.233 255.826 438.352 255.693 438.516 255.603C438.68 255.511 438.88 255.464 439.115 255.464V256.133C439.084 256.13 439.056 256.128 439.031 256.128C439.007 256.125 438.98 256.124 438.952 256.124C438.754 256.124 438.593 256.181 438.469 256.295C438.349 256.407 438.288 256.582 438.288 256.82V258H437.564ZM440.768 258.037C440.483 258.037 440.232 257.981 440.015 257.87C439.802 257.758 439.636 257.607 439.518 257.415C439.401 257.22 439.342 256.998 439.342 256.751C439.342 256.5 439.399 256.278 439.514 256.086C439.631 255.891 439.791 255.74 439.992 255.631C440.193 255.52 440.421 255.464 440.675 255.464C440.919 255.464 441.139 255.517 441.334 255.622C441.532 255.724 441.689 255.873 441.803 256.068C441.918 256.26 441.975 256.491 441.975 256.76C441.975 256.788 441.974 256.82 441.971 256.857C441.968 256.892 441.964 256.924 441.961 256.955H439.932V256.532H441.58L441.302 256.658C441.302 256.528 441.275 256.415 441.223 256.319C441.17 256.223 441.097 256.148 441.005 256.096C440.912 256.04 440.803 256.012 440.679 256.012C440.556 256.012 440.446 256.04 440.35 256.096C440.257 256.148 440.184 256.224 440.131 256.323C440.079 256.419 440.052 256.534 440.052 256.667V256.779C440.052 256.915 440.082 257.036 440.141 257.141C440.203 257.243 440.288 257.322 440.396 257.378C440.508 257.43 440.638 257.457 440.786 257.457C440.919 257.457 441.036 257.436 441.135 257.396C441.237 257.356 441.33 257.296 441.413 257.215L441.799 257.633C441.684 257.763 441.54 257.864 441.367 257.935C441.193 258.003 440.994 258.037 440.768 258.037ZM442.732 258.037C442.608 258.037 442.501 257.995 442.411 257.912C442.324 257.825 442.281 257.715 442.281 257.582C442.281 257.449 442.324 257.342 442.411 257.262C442.501 257.178 442.608 257.136 442.732 257.136C442.859 257.136 442.965 257.178 443.052 257.262C443.139 257.342 443.182 257.449 443.182 257.582C443.182 257.715 443.139 257.825 443.052 257.912C442.965 257.995 442.859 258.037 442.732 258.037ZM444.775 254.749H445.643L446.317 255.734L446.99 254.749H447.873L446.791 256.305L447.961 258H447.074L446.317 256.922L445.569 258H444.701L445.862 256.337L444.775 254.749ZM449.435 258.037C449.15 258.037 448.899 257.981 448.683 257.87C448.469 257.758 448.303 257.607 448.186 257.415C448.068 257.22 448.009 256.998 448.009 256.751C448.009 256.5 448.067 256.278 448.181 256.086C448.299 255.891 448.458 255.74 448.659 255.631C448.861 255.52 449.088 255.464 449.342 255.464C449.587 255.464 449.807 255.517 450.002 255.622C450.2 255.724 450.356 255.873 450.471 256.068C450.585 256.26 450.643 256.491 450.643 256.76C450.643 256.788 450.641 256.82 450.638 256.857C450.635 256.892 450.632 256.924 450.629 256.955H448.599V256.532H450.248L449.969 256.658C449.969 256.528 449.943 256.415 449.89 256.319C449.838 256.223 449.765 256.148 449.672 256.096C449.579 256.04 449.471 256.012 449.347 256.012C449.223 256.012 449.113 256.04 449.017 256.096C448.924 256.148 448.851 256.224 448.799 256.323C448.746 256.419 448.72 256.534 448.72 256.667V256.779C448.72 256.915 448.749 257.036 448.808 257.141C448.87 257.243 448.955 257.322 449.064 257.378C449.175 257.43 449.305 257.457 449.454 257.457C449.587 257.457 449.703 257.436 449.802 257.396C449.904 257.356 449.997 257.296 450.081 257.215L450.466 257.633C450.352 257.763 450.208 257.864 450.034 257.935C449.861 258.003 449.661 258.037 449.435 258.037ZM451.198 258V255.501H451.918V256.477H453.005V255.501H453.729V258H453.005V257.066H451.918V258H451.198ZM456.141 257.675V256.096H455.324L455.31 256.416C455.304 256.549 455.296 256.676 455.287 256.797C455.277 256.918 455.259 257.028 455.231 257.127C455.206 257.223 455.169 257.305 455.12 257.373C455.07 257.438 455.003 257.483 454.92 257.508L454.205 257.406C454.294 257.406 454.367 257.379 454.423 257.327C454.479 257.271 454.522 257.195 454.553 257.099C454.584 257 454.607 256.888 454.623 256.765C454.638 256.638 454.649 256.504 454.655 256.365L454.688 255.501H456.866V257.675H456.141ZM454.121 258.539V257.406H457.223V258.539H456.55V258H454.794V258.539H454.121ZM458.919 258.056C458.715 258.056 458.529 258.026 458.362 257.967C458.195 257.906 458.049 257.811 457.926 257.684C457.805 257.554 457.71 257.388 457.642 257.187C457.577 256.986 457.545 256.746 457.545 256.467C457.545 256.269 457.562 256.088 457.596 255.924C457.63 255.76 457.681 255.611 457.749 255.478C457.817 255.342 457.904 255.223 458.009 255.12C458.118 255.015 458.243 254.928 458.385 254.86C458.531 254.789 458.695 254.735 458.878 254.698L460.067 254.461L460.164 255.083L459.115 255.292C459.053 255.305 458.981 255.322 458.901 255.343C458.823 255.362 458.745 255.391 458.664 255.432C458.587 255.472 458.514 255.529 458.446 255.603C458.381 255.675 458.328 255.769 458.288 255.887C458.248 256.001 458.227 256.144 458.227 256.314C458.227 256.367 458.229 256.407 458.232 256.435C458.238 256.463 458.243 256.492 458.246 256.523C458.252 256.554 458.255 256.602 458.255 256.667L458.023 256.439C458.091 256.294 458.178 256.17 458.283 256.068C458.392 255.966 458.515 255.888 458.655 255.836C458.797 255.78 458.955 255.752 459.128 255.752C459.364 255.752 459.57 255.8 459.746 255.896C459.926 255.989 460.065 256.121 460.164 256.291C460.263 256.461 460.313 256.655 460.313 256.871C460.313 257.107 460.254 257.314 460.136 257.494C460.019 257.67 459.855 257.808 459.644 257.907C459.437 258.006 459.195 258.056 458.919 258.056ZM458.957 257.494C459.077 257.494 459.184 257.467 459.277 257.415C459.37 257.359 459.441 257.286 459.491 257.197C459.543 257.104 459.57 257 459.57 256.885C459.57 256.774 459.543 256.675 459.491 256.588C459.441 256.501 459.37 256.433 459.277 256.384C459.184 256.334 459.076 256.309 458.952 256.309C458.831 256.309 458.723 256.334 458.627 256.384C458.531 256.43 458.457 256.495 458.404 256.579C458.351 256.662 458.325 256.76 458.325 256.871C458.325 256.986 458.351 257.091 458.404 257.187C458.46 257.28 458.534 257.354 458.627 257.41C458.723 257.466 458.833 257.494 458.957 257.494ZM461.075 258.938C460.945 258.938 460.817 258.918 460.69 258.878C460.563 258.838 460.459 258.782 460.379 258.711L460.643 258.195C460.699 258.245 460.763 258.283 460.834 258.311C460.908 258.339 460.981 258.353 461.052 258.353C461.154 258.353 461.235 258.328 461.294 258.279C461.356 258.232 461.411 258.153 461.461 258.042L461.591 257.735L461.647 257.656L462.543 255.501H463.24L462.111 258.153C462.031 258.355 461.938 258.512 461.832 258.627C461.73 258.742 461.616 258.822 461.489 258.869C461.365 258.915 461.227 258.938 461.075 258.938ZM461.503 258.098L460.388 255.501H461.136L462 257.591L461.503 258.098ZM465.359 258L464.523 256.816L465.113 256.467L466.213 258H465.359ZM463.589 258V255.501H464.314V258H463.589ZM464.1 257.053V256.472H464.973V257.053H464.1ZM465.182 256.834L464.504 256.76L465.382 255.501H466.153L465.182 256.834ZM467.884 258V255.501H470.369V258H469.645V255.933L469.807 256.096H468.442L468.604 255.933V258H467.884ZM472.234 258.037C471.968 258.037 471.731 257.981 471.524 257.87C471.319 257.758 471.157 257.607 471.036 257.415C470.918 257.22 470.86 256.998 470.86 256.751C470.86 256.5 470.918 256.278 471.036 256.086C471.157 255.891 471.319 255.74 471.524 255.631C471.731 255.52 471.968 255.464 472.234 255.464C472.497 255.464 472.733 255.52 472.94 255.631C473.148 255.74 473.31 255.89 473.428 256.082C473.546 256.274 473.604 256.497 473.604 256.751C473.604 256.998 473.546 257.22 473.428 257.415C473.31 257.607 473.148 257.758 472.94 257.87C472.733 257.981 472.497 258.037 472.234 258.037ZM472.234 257.443C472.355 257.443 472.463 257.415 472.559 257.359C472.655 257.303 472.731 257.224 472.787 257.122C472.843 257.017 472.871 256.893 472.871 256.751C472.871 256.605 472.843 256.481 472.787 256.379C472.731 256.277 472.655 256.198 472.559 256.142C472.463 256.086 472.355 256.059 472.234 256.059C472.114 256.059 472.005 256.086 471.909 256.142C471.813 256.198 471.736 256.277 471.677 256.379C471.621 256.481 471.593 256.605 471.593 256.751C471.593 256.893 471.621 257.017 471.677 257.122C471.736 257.224 471.813 257.303 471.909 257.359C472.005 257.415 472.114 257.443 472.234 257.443ZM476.914 258V257.512L476.867 257.406V256.532C476.867 256.378 476.819 256.257 476.723 256.17C476.63 256.083 476.486 256.04 476.291 256.04C476.158 256.04 476.027 256.062 475.896 256.105C475.77 256.145 475.661 256.201 475.571 256.272L475.311 255.766C475.447 255.67 475.612 255.596 475.804 255.543C475.996 255.49 476.191 255.464 476.389 255.464C476.77 255.464 477.065 255.554 477.276 255.734C477.486 255.913 477.592 256.193 477.592 256.574V258H476.914ZM476.152 258.037C475.957 258.037 475.79 258.005 475.65 257.94C475.511 257.872 475.404 257.78 475.33 257.666C475.256 257.551 475.218 257.423 475.218 257.28C475.218 257.131 475.254 257.001 475.325 256.89C475.4 256.779 475.516 256.692 475.674 256.63C475.831 256.565 476.037 256.532 476.291 256.532H476.955V256.955H476.37C476.2 256.955 476.082 256.983 476.017 257.039C475.955 257.094 475.924 257.164 475.924 257.248C475.924 257.34 475.96 257.415 476.031 257.471C476.105 257.523 476.206 257.549 476.333 257.549C476.454 257.549 476.562 257.522 476.658 257.466C476.754 257.407 476.824 257.322 476.867 257.21L476.979 257.545C476.926 257.706 476.83 257.828 476.691 257.912C476.551 257.995 476.372 258.037 476.152 258.037ZM478.221 258V255.501H478.941V256.477H480.028V255.501H480.752V258H480.028V257.066H478.941V258H478.221ZM482.941 258V257.512L482.895 257.406V256.532C482.895 256.378 482.847 256.257 482.751 256.17C482.658 256.083 482.514 256.04 482.319 256.04C482.186 256.04 482.054 256.062 481.924 256.105C481.797 256.145 481.689 256.201 481.599 256.272L481.339 255.766C481.475 255.67 481.639 255.596 481.831 255.543C482.023 255.49 482.218 255.464 482.417 255.464C482.797 255.464 483.093 255.554 483.304 255.734C483.514 255.913 483.619 256.193 483.619 256.574V258H482.941ZM482.18 258.037C481.985 258.037 481.817 258.005 481.678 257.94C481.539 257.872 481.432 257.78 481.358 257.666C481.283 257.551 481.246 257.423 481.246 257.28C481.246 257.131 481.282 257.001 481.353 256.89C481.427 256.779 481.543 256.692 481.701 256.63C481.859 256.565 482.065 256.532 482.319 256.532H482.983V256.955H482.398C482.228 256.955 482.11 256.983 482.045 257.039C481.983 257.094 481.952 257.164 481.952 257.248C481.952 257.34 481.988 257.415 482.059 257.471C482.133 257.523 482.234 257.549 482.361 257.549C482.482 257.549 482.59 257.522 482.686 257.466C482.782 257.407 482.852 257.322 482.895 257.21L483.006 257.545C482.954 257.706 482.858 257.828 482.718 257.912C482.579 257.995 482.4 258.037 482.18 258.037ZM483.933 257.995L483.97 257.401C483.989 257.404 484.007 257.407 484.026 257.41C484.045 257.41 484.062 257.41 484.077 257.41C484.164 257.41 484.232 257.385 484.281 257.336C484.331 257.286 484.368 257.22 484.393 257.136C484.418 257.049 484.435 256.952 484.444 256.844C484.456 256.735 484.466 256.622 484.472 256.504L484.509 255.501H486.645V258H485.921V255.919L486.083 256.096H484.987L485.141 255.91L485.108 256.537C485.099 256.76 485.08 256.964 485.052 257.15C485.028 257.336 484.986 257.497 484.927 257.633C484.868 257.766 484.789 257.87 484.69 257.944C484.591 258.015 484.464 258.051 484.309 258.051C484.254 258.051 484.195 258.046 484.133 258.037C484.071 258.028 484.004 258.014 483.933 257.995ZM487.342 258V255.501H488.062V256.988L489.279 255.501H489.943V258H489.223V256.514L488.011 258H487.342ZM491.462 258.046C491.27 258.046 491.078 258.026 490.886 257.986C490.697 257.946 490.522 257.885 490.361 257.805L490.556 257.299C490.683 257.361 490.821 257.409 490.97 257.443C491.122 257.474 491.275 257.489 491.43 257.489C491.541 257.489 491.637 257.478 491.718 257.457C491.801 257.432 491.865 257.398 491.908 257.354C491.951 257.311 491.973 257.258 491.973 257.197C491.973 257.116 491.939 257.056 491.871 257.015C491.803 256.972 491.704 256.95 491.574 256.95H491.063V256.5H491.513C491.597 256.5 491.668 256.491 491.727 256.472C491.786 256.453 491.829 256.427 491.857 256.393C491.888 256.356 491.903 256.313 491.903 256.263C491.903 256.21 491.885 256.165 491.848 256.128C491.81 256.091 491.756 256.063 491.685 256.045C491.614 256.023 491.524 256.012 491.416 256.012C491.292 256.012 491.163 256.028 491.03 256.059C490.897 256.086 490.761 256.128 490.621 256.184L490.445 255.682C490.609 255.614 490.772 255.56 490.933 255.52C491.094 255.48 491.253 255.458 491.411 255.455C491.643 255.449 491.852 255.473 492.038 255.529C492.224 255.585 492.369 255.665 492.475 255.771C492.583 255.876 492.637 256.004 492.637 256.156C492.637 256.277 492.6 256.385 492.526 256.481C492.454 256.577 492.355 256.653 492.228 256.709C492.102 256.761 491.959 256.788 491.801 256.788L491.82 256.644C492.095 256.644 492.312 256.7 492.47 256.811C492.628 256.919 492.707 257.068 492.707 257.257C492.707 257.418 492.651 257.559 492.54 257.68C492.431 257.797 492.283 257.889 492.094 257.954C491.908 258.015 491.697 258.046 491.462 258.046ZM493.564 258.938C493.434 258.938 493.305 258.918 493.178 258.878C493.051 258.838 492.948 258.782 492.867 258.711L493.132 258.195C493.188 258.245 493.251 258.283 493.322 258.311C493.397 258.339 493.469 258.353 493.541 258.353C493.643 258.353 493.723 258.328 493.782 258.279C493.844 258.232 493.9 258.153 493.949 258.042L494.079 257.735L494.135 257.656L495.031 255.501H495.728L494.6 258.153C494.519 258.355 494.426 258.512 494.321 258.627C494.219 258.742 494.104 258.822 493.977 258.869C493.853 258.915 493.716 258.938 493.564 258.938ZM493.991 258.098L492.876 255.501H493.624L494.488 257.591L493.991 258.098ZM499.111 257.675V256.096H498.294L498.28 256.416C498.274 256.549 498.266 256.676 498.257 256.797C498.248 256.918 498.229 257.028 498.201 257.127C498.176 257.223 498.139 257.305 498.09 257.373C498.04 257.438 497.974 257.483 497.89 257.508L497.175 257.406C497.265 257.406 497.337 257.379 497.393 257.327C497.449 257.271 497.492 257.195 497.523 257.099C497.554 257 497.577 256.888 497.593 256.765C497.608 256.638 497.619 256.504 497.625 256.365L497.658 255.501H499.836V257.675H499.111ZM497.091 258.539V257.406H500.194V258.539H499.52V258H497.765V258.539H497.091ZM502.145 258V257.512L502.099 257.406V256.532C502.099 256.378 502.051 256.257 501.955 256.17C501.862 256.083 501.718 256.04 501.523 256.04C501.39 256.04 501.258 256.062 501.128 256.105C501.001 256.145 500.893 256.201 500.803 256.272L500.543 255.766C500.679 255.67 500.843 255.596 501.035 255.543C501.227 255.49 501.422 255.464 501.62 255.464C502.001 255.464 502.297 255.554 502.507 255.734C502.718 255.913 502.823 256.193 502.823 256.574V258H502.145ZM501.383 258.037C501.188 258.037 501.021 258.005 500.882 257.94C500.742 257.872 500.636 257.78 500.561 257.666C500.487 257.551 500.45 257.423 500.45 257.28C500.45 257.131 500.485 257.001 500.557 256.89C500.631 256.779 500.747 256.692 500.905 256.63C501.063 256.565 501.269 256.532 501.523 256.532H502.187V256.955H501.602C501.431 256.955 501.314 256.983 501.249 257.039C501.187 257.094 501.156 257.164 501.156 257.248C501.156 257.34 501.191 257.415 501.263 257.471C501.337 257.523 501.438 257.549 501.565 257.549C501.685 257.549 501.794 257.522 501.89 257.466C501.986 257.407 502.055 257.322 502.099 257.21L502.21 257.545C502.157 257.706 502.061 257.828 501.922 257.912C501.783 257.995 501.603 258.037 501.383 258.037ZM503.453 258V255.501H504.172V256.477H505.259V255.501H505.984V258H505.259V257.066H504.172V258H503.453ZM506.677 258V255.501H507.397V256.477H508.484V255.501H509.209V258H508.484V257.066H507.397V258H506.677ZM512.475 258V255.501H513.195V258H512.475ZM511.217 256.3C511.545 256.303 511.791 256.378 511.955 256.523C512.122 256.665 512.206 256.868 512.206 257.131C512.206 257.407 512.111 257.622 511.923 257.777C511.734 257.929 511.466 258.005 511.119 258.005L509.902 258V255.501H510.622V256.3H511.217ZM511.054 257.489C511.193 257.492 511.3 257.463 511.374 257.401C511.449 257.339 511.486 257.246 511.486 257.122C511.486 256.998 511.449 256.91 511.374 256.857C511.3 256.802 511.193 256.772 511.054 256.769L510.622 256.765V257.489H511.054ZM513.559 258L514.678 256.532L514.664 256.932L513.592 255.501H514.404L515.082 256.435L514.776 256.444L515.477 255.501H516.248L515.171 256.918V256.528L516.285 258H515.463L514.753 257.006L515.055 257.048L514.349 258H513.559ZM516.902 258.037C516.778 258.037 516.671 257.995 516.582 257.912C516.495 257.825 516.452 257.715 516.452 257.582C516.452 257.449 516.495 257.342 516.582 257.262C516.671 257.178 516.778 257.136 516.902 257.136C517.029 257.136 517.136 257.178 517.223 257.262C517.309 257.342 517.353 257.449 517.353 257.582C517.353 257.715 517.309 257.825 517.223 257.912C517.136 257.995 517.029 258.037 516.902 258.037ZM521.458 254.749H522.21V258H521.458V254.749ZM519.981 258H519.229V254.749H519.981V258ZM521.514 256.667H519.925V256.031H521.514V256.667ZM524.465 258V257.512L524.418 257.406V256.532C524.418 256.378 524.37 256.257 524.274 256.17C524.181 256.083 524.037 256.04 523.842 256.04C523.709 256.04 523.578 256.062 523.448 256.105C523.321 256.145 523.212 256.201 523.122 256.272L522.862 255.766C522.999 255.67 523.163 255.596 523.355 255.543C523.547 255.49 523.742 255.464 523.94 255.464C524.321 255.464 524.616 255.554 524.827 255.734C525.038 255.913 525.143 256.193 525.143 256.574V258H524.465ZM523.703 258.037C523.508 258.037 523.341 258.005 523.201 257.94C523.062 257.872 522.955 257.78 522.881 257.666C522.807 257.551 522.77 257.423 522.77 257.28C522.77 257.131 522.805 257.001 522.876 256.89C522.951 256.779 523.067 256.692 523.225 256.63C523.383 256.565 523.588 256.532 523.842 256.532H524.507V256.955H523.921C523.751 256.955 523.633 256.983 523.568 257.039C523.506 257.094 523.475 257.164 523.475 257.248C523.475 257.34 523.511 257.415 523.582 257.471C523.657 257.523 523.757 257.549 523.884 257.549C524.005 257.549 524.113 257.522 524.209 257.466C524.305 257.407 524.375 257.322 524.418 257.21L524.53 257.545C524.477 257.706 524.381 257.828 524.242 257.912C524.102 257.995 523.923 258.037 523.703 258.037ZM527.347 257.043C527.244 257.099 527.131 257.144 527.008 257.178C526.884 257.212 526.748 257.229 526.599 257.229C526.271 257.229 526.018 257.155 525.842 257.006C525.665 256.854 525.577 256.614 525.577 256.286V255.501H526.302V256.24C526.302 256.395 526.342 256.506 526.422 256.574C526.503 256.639 526.616 256.672 526.761 256.672C526.867 256.672 526.967 256.659 527.063 256.635C527.162 256.61 527.257 256.574 527.347 256.528V257.043ZM527.296 258V255.501H528.02V258H527.296ZM530.211 258V257.512L530.165 257.406V256.532C530.165 256.378 530.117 256.257 530.021 256.17C529.928 256.083 529.784 256.04 529.589 256.04C529.456 256.04 529.324 256.062 529.194 256.105C529.067 256.145 528.959 256.201 528.869 256.272L528.609 255.766C528.745 255.67 528.909 255.596 529.101 255.543C529.293 255.49 529.488 255.464 529.686 255.464C530.067 255.464 530.363 255.554 530.574 255.734C530.784 255.913 530.889 256.193 530.889 256.574V258H530.211ZM529.45 258.037C529.255 258.037 529.087 258.005 528.948 257.94C528.809 257.872 528.702 257.78 528.628 257.666C528.553 257.551 528.516 257.423 528.516 257.28C528.516 257.131 528.552 257.001 528.623 256.89C528.697 256.779 528.813 256.692 528.971 256.63C529.129 256.565 529.335 256.532 529.589 256.532H530.253V256.955H529.668C529.498 256.955 529.38 256.983 529.315 257.039C529.253 257.094 529.222 257.164 529.222 257.248C529.222 257.34 529.258 257.415 529.329 257.471C529.403 257.523 529.504 257.549 529.631 257.549C529.752 257.549 529.86 257.522 529.956 257.466C530.052 257.407 530.122 257.322 530.165 257.21L530.276 257.545C530.224 257.706 530.128 257.828 529.988 257.912C529.849 257.995 529.669 258.037 529.45 258.037ZM531.203 257.995L531.24 257.401C531.259 257.404 531.277 257.407 531.296 257.41C531.314 257.41 531.331 257.41 531.347 257.41C531.434 257.41 531.502 257.385 531.551 257.336C531.601 257.286 531.638 257.22 531.663 257.136C531.688 257.049 531.705 256.952 531.714 256.844C531.726 256.735 531.736 256.622 531.742 256.504L531.779 255.501H533.915V258H533.191V255.919L533.353 256.096H532.257L532.411 255.91L532.378 256.537C532.369 256.76 532.35 256.964 532.322 257.15C532.298 257.336 532.256 257.497 532.197 257.633C532.138 257.766 532.059 257.87 531.96 257.944C531.861 258.015 531.734 258.051 531.579 258.051C531.523 258.051 531.465 258.046 531.403 258.037C531.341 258.028 531.274 258.014 531.203 257.995ZM535.964 256.3C536.292 256.303 536.541 256.378 536.711 256.523C536.885 256.665 536.971 256.868 536.971 257.131C536.971 257.407 536.874 257.622 536.679 257.777C536.484 257.929 536.213 258.005 535.866 258.005L534.612 258V255.501H535.332V256.3H535.964ZM535.801 257.489C535.94 257.492 536.047 257.463 536.122 257.401C536.196 257.339 536.233 257.246 536.233 257.122C536.233 256.998 536.196 256.91 536.122 256.857C536.047 256.802 535.94 256.772 535.801 256.769L535.332 256.765V257.489H535.801ZM537.424 258V255.501H538.144V256.477H539.231V255.501H539.955V258H539.231V257.066H538.144V258H537.424ZM543.222 258V255.501H543.942V258H543.222ZM541.963 256.3C542.292 256.303 542.538 256.378 542.702 256.523C542.869 256.665 542.953 256.868 542.953 257.131C542.953 257.407 542.858 257.622 542.669 257.777C542.48 257.929 542.213 258.005 541.866 258.005L540.649 258V255.501H541.369V256.3H541.963ZM541.801 257.489C541.94 257.492 542.047 257.463 542.121 257.401C542.196 257.339 542.233 257.246 542.233 257.122C542.233 256.998 542.196 256.91 542.121 256.857C542.047 256.802 541.94 256.772 541.801 256.769L541.369 256.765V257.489H541.801ZM544.64 258V255.501H545.36V256.988L546.577 255.501H547.241V258H546.521V256.514L545.309 258H544.64ZM545.894 255.232C545.622 255.232 545.417 255.173 545.281 255.055C545.145 254.935 545.075 254.754 545.072 254.512H545.546C545.549 254.617 545.578 254.701 545.634 254.763C545.69 254.825 545.775 254.856 545.89 254.856C546.001 254.856 546.086 254.825 546.145 254.763C546.207 254.701 546.238 254.617 546.238 254.512H546.721C546.721 254.754 546.651 254.935 546.512 255.055C546.373 255.173 546.167 255.232 545.894 255.232ZM549.592 258.938C549.462 258.938 549.333 258.918 549.207 258.878C549.08 258.838 548.976 258.782 548.895 258.711L549.16 258.195C549.216 258.245 549.279 258.283 549.35 258.311C549.425 258.339 549.498 258.353 549.569 258.353C549.671 258.353 549.751 258.328 549.81 258.279C549.872 258.232 549.928 258.153 549.977 258.042L550.108 257.735L550.163 257.656L551.06 255.501H551.756L550.628 258.153C550.547 258.355 550.454 258.512 550.349 258.627C550.247 258.742 550.132 258.822 550.005 258.869C549.881 258.915 549.744 258.938 549.592 258.938ZM550.019 258.098L548.905 255.501H549.652L550.516 257.591L550.019 258.098ZM553.578 258.037C553.368 258.037 553.183 257.991 553.025 257.898C552.868 257.805 552.744 257.664 552.654 257.475C552.567 257.283 552.524 257.042 552.524 256.751C552.524 256.456 552.566 256.215 552.649 256.026C552.733 255.837 552.854 255.696 553.012 255.603C553.169 255.511 553.358 255.464 553.578 255.464C553.813 255.464 554.024 255.518 554.21 255.627C554.399 255.732 554.547 255.881 554.656 256.073C554.767 256.265 554.823 256.491 554.823 256.751C554.823 257.014 554.767 257.241 554.656 257.433C554.547 257.625 554.399 257.774 554.21 257.879C554.024 257.985 553.813 258.037 553.578 258.037ZM552.101 258.901V255.501H552.793V256.012L552.779 256.755L552.826 257.494V258.901H552.101ZM553.453 257.443C553.573 257.443 553.68 257.415 553.773 257.359C553.869 257.303 553.945 257.224 554.001 257.122C554.06 257.017 554.089 256.893 554.089 256.751C554.089 256.605 554.06 256.481 554.001 256.379C553.945 256.277 553.869 256.198 553.773 256.142C553.68 256.086 553.573 256.059 553.453 256.059C553.332 256.059 553.224 256.086 553.128 256.142C553.032 256.198 552.956 256.277 552.9 256.379C552.844 256.481 552.816 256.605 552.816 256.751C552.816 256.893 552.844 257.017 552.9 257.122C552.956 257.224 553.032 257.303 553.128 257.359C553.224 257.415 553.332 257.443 553.453 257.443ZM556.501 258.037C556.235 258.037 555.998 257.981 555.79 257.87C555.586 257.758 555.424 257.607 555.303 257.415C555.185 257.22 555.126 256.998 555.126 256.751C555.126 256.5 555.185 256.278 555.303 256.086C555.424 255.891 555.586 255.74 555.79 255.631C555.998 255.52 556.235 255.464 556.501 255.464C556.764 255.464 557 255.52 557.207 255.631C557.414 255.74 557.577 255.89 557.695 256.082C557.812 256.274 557.871 256.497 557.871 256.751C557.871 256.998 557.812 257.22 557.695 257.415C557.577 257.607 557.414 257.758 557.207 257.87C557 257.981 556.764 258.037 556.501 258.037ZM556.501 257.443C556.622 257.443 556.73 257.415 556.826 257.359C556.922 257.303 556.998 257.224 557.054 257.122C557.109 257.017 557.137 256.893 557.137 256.751C557.137 256.605 557.109 256.481 557.054 256.379C556.998 256.277 556.922 256.198 556.826 256.142C556.73 256.086 556.622 256.059 556.501 256.059C556.38 256.059 556.272 256.086 556.176 256.142C556.08 256.198 556.003 256.277 555.944 256.379C555.888 256.481 555.86 256.605 555.86 256.751C555.86 256.893 555.888 257.017 555.944 257.122C556.003 257.224 556.08 257.303 556.176 257.359C556.272 257.415 556.38 257.443 556.501 257.443ZM558.369 258V255.501H559.647C559.959 255.501 560.204 255.559 560.381 255.673C560.557 255.785 560.645 255.943 560.645 256.147C560.645 256.351 560.562 256.512 560.394 256.63C560.23 256.744 560.012 256.802 559.74 256.802L559.814 256.635C560.117 256.635 560.343 256.69 560.492 256.802C560.644 256.913 560.72 257.076 560.72 257.289C560.72 257.509 560.636 257.683 560.469 257.81C560.302 257.937 560.046 258 559.702 258H558.369ZM559.034 257.508H559.642C559.775 257.508 559.874 257.486 559.939 257.443C560.007 257.396 560.041 257.327 560.041 257.234C560.041 257.138 560.011 257.068 559.949 257.025C559.887 256.978 559.789 256.955 559.656 256.955H559.034V257.508ZM559.034 256.528H559.582C559.709 256.528 559.803 256.504 559.865 256.458C559.93 256.412 559.963 256.345 559.963 256.258C559.963 256.169 559.93 256.102 559.865 256.059C559.803 256.015 559.709 255.994 559.582 255.994H559.034V256.528ZM562.48 258.037C562.195 258.037 561.944 257.981 561.728 257.87C561.514 257.758 561.348 257.607 561.231 257.415C561.113 257.22 561.054 256.998 561.054 256.751C561.054 256.5 561.112 256.278 561.226 256.086C561.344 255.891 561.503 255.74 561.705 255.631C561.906 255.52 562.133 255.464 562.387 255.464C562.632 255.464 562.852 255.517 563.047 255.622C563.245 255.724 563.401 255.873 563.516 256.068C563.63 256.26 563.688 256.491 563.688 256.76C563.688 256.788 563.686 256.82 563.683 256.857C563.68 256.892 563.677 256.924 563.674 256.955H561.644V256.532H563.293L563.014 256.658C563.014 256.528 562.988 256.415 562.935 256.319C562.883 256.223 562.81 256.148 562.717 256.096C562.624 256.04 562.516 256.012 562.392 256.012C562.268 256.012 562.158 256.04 562.062 256.096C561.969 256.148 561.896 256.224 561.844 256.323C561.791 256.419 561.765 256.534 561.765 256.667V256.779C561.765 256.915 561.794 257.036 561.853 257.141C561.915 257.243 562 257.322 562.109 257.378C562.22 257.43 562.35 257.457 562.499 257.457C562.632 257.457 562.748 257.436 562.847 257.396C562.949 257.356 563.042 257.296 563.126 257.215L563.511 257.633C563.397 257.763 563.253 257.864 563.079 257.935C562.906 258.003 562.706 258.037 562.48 258.037ZM564.243 258V255.501H564.963V256.477H566.05V255.501H566.774V258H566.05V257.066H564.963V258H564.243ZM568.819 256.3C569.148 256.303 569.397 256.378 569.567 256.523C569.741 256.665 569.827 256.868 569.827 257.131C569.827 257.407 569.73 257.622 569.535 257.777C569.34 257.929 569.069 258.005 568.722 258.005L567.468 258V255.501H568.188V256.3H568.819ZM568.657 257.489C568.796 257.492 568.903 257.463 568.977 257.401C569.052 257.339 569.089 257.246 569.089 257.122C569.089 256.998 569.052 256.91 568.977 256.857C568.903 256.802 568.796 256.772 568.657 256.769L568.188 256.765V257.489H568.657Z" fill="#D8D8D8"/>
</svg>
