<svg width="292" height="255" viewBox="0 0 292 255" fill="none" xmlns="http://www.w3.org/2000/svg">
<rect width="292" height="255" fill="white"/>
<mask id="path-1-inside-1_193_4600" fill="white">
<path d="M58.7266 56H259.727V214H58.7266V56Z"/>
</mask>
<path d="M259.727 56H260.727V55H259.727V56ZM58.7266 56V57H259.727V56V55H58.7266V56ZM259.727 56H258.727V214H259.727H260.727V56H259.727Z" fill="#ADAFB0" mask="url(#path-1-inside-1_193_4600)"/>
<mask id="path-3-inside-2_193_4600" fill="white">
<path d="M58.7266 173H259.727V214H58.7266V173Z"/>
</mask>
<path d="M58.7266 173V174H259.727V173V172H58.7266V173Z" fill="#ADAFB0" mask="url(#path-3-inside-2_193_4600)"/>
<mask id="path-5-inside-3_193_4600" fill="white">
<path d="M59 193H260V213.5H59V193Z"/>
</mask>
<path d="M59 193V194H260V193V192H59V193Z" fill="#ADAFB0" mask="url(#path-5-inside-3_193_4600)"/>
<mask id="path-7-inside-4_193_4600" fill="white">
<path d="M59 154H260V174.5H59V154Z"/>
</mask>
<path d="M59 154V155H260V154V153H59V154Z" fill="#ADAFB0" mask="url(#path-7-inside-4_193_4600)"/>
<mask id="path-9-inside-5_193_4600" fill="white">
<path d="M59 115H260V135.5H59V115Z"/>
</mask>
<path d="M59 115V116H260V115V114H59V115Z" fill="#ADAFB0" mask="url(#path-9-inside-5_193_4600)"/>
<mask id="path-11-inside-6_193_4600" fill="white">
<path d="M59 75H260V95.5H59V75Z"/>
</mask>
<path d="M59 75V76H260V75V74H59V75Z" fill="#ADAFB0" mask="url(#path-11-inside-6_193_4600)"/>
<mask id="path-13-inside-7_193_4600" fill="white">
<path d="M58.7266 135H259.727V214H58.7266V135Z"/>
</mask>
<path d="M58.7266 135V136H259.727V135V134H58.7266V135Z" fill="#ADAFB0" mask="url(#path-13-inside-7_193_4600)"/>
<mask id="path-15-inside-8_193_4600" fill="white">
<path d="M58.7266 95H259.727V214H58.7266V95Z"/>
</mask>
<path d="M58.7266 95V96H259.727V95V94H58.7266V95Z" fill="#ADAFB0" mask="url(#path-15-inside-8_193_4600)"/>
<mask id="path-17-inside-9_193_4600" fill="white">
<path d="M59 56H260V214H59V56Z"/>
</mask>
<path d="M260 56H259V214H260H261V56H260Z" fill="#ADAFB0" mask="url(#path-17-inside-9_193_4600)"/>
<mask id="path-19-inside-10_193_4600" fill="white">
<path d="M58.7266 56H259.727V214H58.7266V56Z"/>
</mask>
<path d="M259.727 56H260.727V55H259.727V56ZM58.7266 56V57H259.727V56V55H58.7266V56ZM259.727 56H258.727V214H259.727H260.727V56H259.727Z" fill="#ADAFB0" mask="url(#path-19-inside-10_193_4600)"/>
<mask id="path-21-inside-11_193_4600" fill="white">
<path d="M58.7266 173H259.727V214H58.7266V173Z"/>
</mask>
<path d="M58.7266 173V174H259.727V173V172H58.7266V173Z" fill="#ADAFB0" mask="url(#path-21-inside-11_193_4600)"/>
<mask id="path-23-inside-12_193_4600" fill="white">
<path d="M59 193H260V213.5H59V193Z"/>
</mask>
<path d="M59 193V194H260V193V192H59V193Z" fill="#ADAFB0" mask="url(#path-23-inside-12_193_4600)"/>
<mask id="path-25-inside-13_193_4600" fill="white">
<path d="M59 154H260V174.5H59V154Z"/>
</mask>
<path d="M59 154V155H260V154V153H59V154Z" fill="#ADAFB0" mask="url(#path-25-inside-13_193_4600)"/>
<mask id="path-27-inside-14_193_4600" fill="white">
<path d="M59 115H260V135.5H59V115Z"/>
</mask>
<path d="M59 115V116H260V115V114H59V115Z" fill="#ADAFB0" mask="url(#path-27-inside-14_193_4600)"/>
<mask id="path-29-inside-15_193_4600" fill="white">
<path d="M59 75H260V95.5H59V75Z"/>
</mask>
<path d="M59 75V76H260V75V74H59V75Z" fill="#ADAFB0" mask="url(#path-29-inside-15_193_4600)"/>
<mask id="path-31-inside-16_193_4600" fill="white">
<path d="M58.7266 135H259.727V214H58.7266V135Z"/>
</mask>
<path d="M58.7266 135V136H259.727V135V134H58.7266V135Z" fill="#ADAFB0" mask="url(#path-31-inside-16_193_4600)"/>
<mask id="path-33-inside-17_193_4600" fill="white">
<path d="M58.7266 95H259.727V214H58.7266V95Z"/>
</mask>
<path d="M58.7266 95V96H259.727V95V94H58.7266V95Z" fill="#ADAFB0" mask="url(#path-33-inside-17_193_4600)"/>
<mask id="path-35-inside-18_193_4600" fill="white">
<path d="M59 56H99.2V214H59V56Z"/>
</mask>
<path d="M99.2 56H98.2V214H99.2H100.2V56H99.2Z" fill="#ADAFB0" mask="url(#path-35-inside-18_193_4600)"/>
<mask id="path-37-inside-19_193_4600" fill="white">
<path d="M99 56H139.2V214H99V56Z"/>
</mask>
<path d="M139.2 56H138.2V214H139.2H140.2V56H139.2Z" fill="#ADAFB0" mask="url(#path-37-inside-19_193_4600)"/>
<mask id="path-39-inside-20_193_4600" fill="white">
<path d="M139 56H179.2V214H139V56Z"/>
</mask>
<path d="M179.2 56H178.2V214H179.2H180.2V56H179.2Z" fill="#ADAFB0" mask="url(#path-39-inside-20_193_4600)"/>
<mask id="path-41-inside-21_193_4600" fill="white">
<path d="M179 56H219.2V214H179V56Z"/>
</mask>
<path d="M219.2 56H218.2V214H219.2H220.2V56H219.2Z" fill="#ADAFB0" mask="url(#path-41-inside-21_193_4600)"/>
<path d="M58.7266 48V214H266.727" stroke="#9A9C9E"/>
<path d="M259.726 68.4992L58.7258 200.499" stroke="#9A9C9E" stroke-dasharray="4 4"/>
<path d="M23.9566 158.035C23.9566 157.417 24.1126 156.943 24.4246 156.613C24.7306 156.283 25.1866 156.118 25.7926 156.118L28.7266 156.118L28.7266 156.73L27.9886 156.73C28.2346 156.874 28.4266 157.087 28.5646 157.369C28.7026 157.645 28.7716 157.975 28.7716 158.359C28.7716 158.887 28.6456 159.307 28.3936 159.619C28.1416 159.931 27.8086 160.087 27.3946 160.087C26.9926 160.087 26.6686 159.943 26.4226 159.655C26.1766 159.361 26.0536 158.896 26.0536 158.26L26.0536 156.757L25.7656 156.757C25.3576 156.757 25.0486 156.871 24.8386 157.099C24.6226 157.327 24.5146 157.66 24.5146 158.098C24.5146 158.398 24.5656 158.686 24.6676 158.962C24.7636 159.238 24.8986 159.475 25.0726 159.673L24.5956 159.961C24.3916 159.721 24.2356 159.433 24.1276 159.097C24.0136 158.761 23.9566 158.407 23.9566 158.035ZM28.2676 158.26C28.2676 157.9 28.1866 157.591 28.0246 157.333C27.8566 157.075 27.6166 156.883 27.3046 156.757L26.5306 156.757L26.5306 158.242C26.5306 159.052 26.8126 159.457 27.3766 159.457C27.6526 159.457 27.8716 159.352 28.0336 159.142C28.1896 158.932 28.2676 158.638 28.2676 158.26ZM23.9926 150.492L28.7266 152.598L28.7266 153.255L23.9926 155.352L23.9926 154.686L28.0246 152.913L23.9926 151.122L23.9926 150.492ZM23.9926 145.341L28.1506 145.341C28.9546 145.341 29.5486 145.539 29.9326 145.935C30.3226 146.325 30.5176 146.916 30.5176 147.708C30.5176 148.146 30.4516 148.563 30.3196 148.959C30.1936 149.349 30.0166 149.667 29.7886 149.913L29.3026 149.589C29.5066 149.361 29.6656 149.085 29.7796 148.761C29.8936 148.431 29.9506 148.086 29.9506 147.726C29.9506 147.126 29.8096 146.685 29.5276 146.403C29.2516 146.121 28.8196 145.98 28.2316 145.98L27.6286 145.98C27.9286 146.178 28.1566 146.439 28.3126 146.763C28.4686 147.081 28.5466 147.435 28.5466 147.825C28.5466 148.269 28.4506 148.674 28.2586 149.04C28.0606 149.4 27.7876 149.685 27.4396 149.895C27.0856 150.099 26.6866 150.201 26.2426 150.201C25.7986 150.201 25.4026 150.099 25.0546 149.895C24.7066 149.685 24.4366 149.4 24.2446 149.04C24.0526 148.68 23.9566 148.275 23.9566 147.825C23.9566 147.423 24.0376 147.06 24.1996 146.736C24.3616 146.412 24.5956 146.151 24.9016 145.953L23.9926 145.953L23.9926 145.341ZM27.9796 147.762C27.9796 147.42 27.9076 147.111 27.7636 146.835C27.6136 146.559 27.4066 146.346 27.1426 146.196C26.8786 146.04 26.5786 145.962 26.2426 145.962C25.9066 145.962 25.6096 146.04 25.3516 146.196C25.0876 146.346 24.8836 146.559 24.7396 146.835C24.5896 147.105 24.5146 147.414 24.5146 147.762C24.5146 148.104 24.5866 148.413 24.7306 148.689C24.8746 148.959 25.0786 149.172 25.3426 149.328C25.6066 149.478 25.9066 149.553 26.2426 149.553C26.5786 149.553 26.8786 149.478 27.1426 149.328C27.4066 149.172 27.6136 148.959 27.7636 148.689C27.9076 148.413 27.9796 148.104 27.9796 147.762ZM28.7266 144.445L28.7266 139.945L29.1586 139.945L29.1586 144.445L28.7266 144.445ZM24.9196 138.442C24.6016 138.292 24.3616 138.07 24.1996 137.776C24.0376 137.476 23.9566 137.107 23.9566 136.669L24.5776 136.669L24.5686 136.822C24.5686 137.32 24.7216 137.71 25.0276 137.992C25.3336 138.274 25.7626 138.415 26.3146 138.415L28.7266 138.415L28.7266 139.054L23.9926 139.054L23.9926 138.442L24.9196 138.442ZM26.5576 131.434L26.5576 135.394C27.0496 135.358 27.4486 135.169 27.7546 134.827C28.0546 134.485 28.2046 134.053 28.2046 133.531C28.2046 133.237 28.1536 132.967 28.0516 132.721C27.9436 132.475 27.7876 132.262 27.5836 132.082L27.9976 131.722C28.2496 131.932 28.4416 132.196 28.5736 132.514C28.7056 132.826 28.7716 133.171 28.7716 133.549C28.7716 134.035 28.6696 134.467 28.4656 134.845C28.2556 135.217 27.9676 135.508 27.6016 135.718C27.2356 135.928 26.8216 136.033 26.3596 136.033C25.8976 136.033 25.4836 135.934 25.1176 135.736C24.7516 135.532 24.4666 135.256 24.2626 134.908C24.0586 134.554 23.9566 134.158 23.9566 133.72C23.9566 133.282 24.0586 132.889 24.2626 132.541C24.4666 132.193 24.7516 131.92 25.1176 131.722C25.4776 131.524 25.8916 131.425 26.3596 131.425L26.5576 131.434ZM24.5056 133.72C24.5056 134.176 24.6526 134.56 24.9466 134.872C25.2346 135.178 25.6126 135.352 26.0806 135.394L26.0806 132.037C25.6126 132.079 25.2346 132.256 24.9466 132.568C24.6526 132.874 24.5056 133.258 24.5056 133.72ZM28.7716 128.162C28.7716 128.63 28.6696 129.05 28.4656 129.422C28.2616 129.788 27.9766 130.076 27.6106 130.286C27.2386 130.496 26.8216 130.601 26.3596 130.601C25.8976 130.601 25.4836 130.496 25.1176 130.286C24.7516 130.076 24.4666 129.788 24.2626 129.422C24.0586 129.05 23.9566 128.63 23.9566 128.162C23.9566 127.754 24.0376 127.391 24.1996 127.073C24.3556 126.749 24.5866 126.494 24.8926 126.308L25.2166 126.785C24.9826 126.941 24.8086 127.139 24.6946 127.379C24.5746 127.619 24.5146 127.88 24.5146 128.162C24.5146 128.504 24.5926 128.813 24.7486 129.089C24.8986 129.359 25.1146 129.572 25.3966 129.728C25.6786 129.878 25.9996 129.953 26.3596 129.953C26.7256 129.953 27.0496 129.878 27.3316 129.728C27.6076 129.572 27.8236 129.359 27.9796 129.089C28.1296 128.813 28.2046 128.504 28.2046 128.162C28.2046 127.88 28.1476 127.619 28.0336 127.379C27.9196 127.139 27.7456 126.941 27.5116 126.785L27.8356 126.308C28.1416 126.494 28.3756 126.749 28.5376 127.073C28.6936 127.397 28.7716 127.76 28.7716 128.162ZM26.5576 121.01L26.5576 124.97C27.0496 124.934 27.4486 124.745 27.7546 124.403C28.0546 124.061 28.2046 123.629 28.2046 123.107C28.2046 122.813 28.1536 122.543 28.0516 122.297C27.9436 122.051 27.7876 121.838 27.5836 121.658L27.9976 121.298C28.2496 121.508 28.4416 121.772 28.5736 122.09C28.7056 122.402 28.7716 122.747 28.7716 123.125C28.7716 123.611 28.6696 124.043 28.4656 124.421C28.2556 124.793 27.9676 125.084 27.6016 125.294C27.2356 125.504 26.8216 125.609 26.3596 125.609C25.8976 125.609 25.4836 125.51 25.1176 125.312C24.7516 125.108 24.4666 124.832 24.2626 124.484C24.0586 124.13 23.9566 123.734 23.9566 123.296C23.9566 122.858 24.0586 122.465 24.2626 122.117C24.4666 121.769 24.7516 121.496 25.1176 121.298C25.4776 121.1 25.8916 121.001 26.3596 121.001L26.5576 121.01ZM24.5056 123.296C24.5056 123.752 24.6526 124.136 24.9466 124.448C25.2346 124.754 25.6126 124.928 26.0806 124.97L26.0806 121.613C25.6126 121.655 25.2346 121.832 24.9466 122.144C24.6526 122.45 24.5056 122.834 24.5056 123.296ZM23.9926 119.7L23.9926 119.061L28.7266 119.061L28.7266 119.7L23.9926 119.7ZM22.9576 119.376C22.9576 119.508 22.9126 119.619 22.8226 119.709C22.7326 119.799 22.6246 119.844 22.4986 119.844C22.3786 119.844 22.2736 119.799 22.1836 119.709C22.0936 119.619 22.0486 119.508 22.0486 119.376C22.0486 119.244 22.0936 119.133 22.1836 119.043C22.2676 118.953 22.3696 118.908 22.4896 118.908C22.6216 118.908 22.7326 118.953 22.8226 119.043C22.9126 119.133 22.9576 119.244 22.9576 119.376ZM23.9566 114.844C23.9566 114.4 24.0586 113.998 24.2626 113.638C24.4606 113.278 24.7426 112.996 25.1086 112.792C25.4746 112.588 25.8916 112.486 26.3596 112.486C26.8336 112.486 27.2536 112.588 27.6196 112.792C27.9856 112.996 28.2706 113.278 28.4746 113.638C28.6726 113.992 28.7716 114.394 28.7716 114.844C28.7716 115.228 28.6936 115.576 28.5376 115.888C28.3756 116.194 28.1416 116.446 27.8356 116.644L30.4726 116.644L30.4726 117.283L23.9926 117.283L23.9926 116.671L24.9286 116.671C24.6166 116.479 24.3766 116.227 24.2086 115.915C24.0406 115.597 23.9566 115.24 23.9566 114.844ZM28.2046 114.889C28.2046 114.559 28.1296 114.259 27.9796 113.989C27.8236 113.719 27.6046 113.509 27.3226 113.359C27.0406 113.203 26.7196 113.125 26.3596 113.125C25.9996 113.125 25.6816 113.203 25.4056 113.359C25.1236 113.509 24.9046 113.719 24.7486 113.989C24.5926 114.259 24.5146 114.559 24.5146 114.889C24.5146 115.225 24.5926 115.528 24.7486 115.798C24.9046 116.062 25.1236 116.272 25.4056 116.428C25.6816 116.578 25.9996 116.653 26.3596 116.653C26.7196 116.653 27.0406 116.578 27.3226 116.428C27.6046 116.272 27.8236 116.062 27.9796 115.798C28.1296 115.528 28.2046 115.225 28.2046 114.889ZM28.4386 108.691C28.5466 108.811 28.6306 108.961 28.6906 109.141C28.7446 109.315 28.7716 109.498 28.7716 109.69C28.7716 110.134 28.6516 110.476 28.4116 110.716C28.1716 110.956 27.8326 111.076 27.3946 111.076L24.5326 111.076L24.5326 111.922L23.9926 111.922L23.9926 111.076L22.9576 111.076L22.9576 110.437L23.9926 110.437L23.9926 108.997L24.5326 108.997L24.5326 110.437L27.3586 110.437C27.6406 110.437 27.8566 110.368 28.0066 110.23C28.1506 110.086 28.2226 109.882 28.2226 109.618C28.2226 109.486 28.2016 109.36 28.1596 109.24C28.1176 109.114 28.0576 109.006 27.9796 108.916L28.4386 108.691Z" fill="black"/>
<path d="M151.848 223.493C151.998 223.175 152.22 222.935 152.514 222.773C152.814 222.611 153.183 222.53 153.621 222.53V223.151L153.468 223.142C152.97 223.142 152.58 223.295 152.298 223.601C152.016 223.907 151.875 224.336 151.875 224.888V227.3H151.236V222.566H151.848V223.493ZM156.425 222.53C157.043 222.53 157.517 222.686 157.847 222.998C158.177 223.304 158.342 223.76 158.342 224.366V227.3H157.73V226.562C157.586 226.808 157.373 227 157.091 227.138C156.815 227.276 156.485 227.345 156.101 227.345C155.573 227.345 155.153 227.219 154.841 226.967C154.529 226.715 154.373 226.382 154.373 225.968C154.373 225.566 154.517 225.242 154.805 224.996C155.099 224.75 155.564 224.627 156.2 224.627H157.703V224.339C157.703 223.931 157.589 223.622 157.361 223.412C157.133 223.196 156.8 223.088 156.362 223.088C156.062 223.088 155.774 223.139 155.498 223.241C155.222 223.337 154.985 223.472 154.787 223.646L154.499 223.169C154.739 222.965 155.027 222.809 155.363 222.701C155.699 222.587 156.053 222.53 156.425 222.53ZM156.2 226.841C156.56 226.841 156.869 226.76 157.127 226.598C157.385 226.43 157.577 226.19 157.703 225.878V225.104H156.218C155.408 225.104 155.003 225.386 155.003 225.95C155.003 226.226 155.108 226.445 155.318 226.607C155.528 226.763 155.822 226.841 156.2 226.841ZM162.571 227.012C162.451 227.12 162.301 227.204 162.121 227.264C161.947 227.318 161.764 227.345 161.572 227.345C161.128 227.345 160.786 227.225 160.546 226.985C160.306 226.745 160.186 226.406 160.186 225.968V223.106H159.34V222.566H160.186V221.531H160.825V222.566H162.265V223.106H160.825V225.932C160.825 226.214 160.894 226.43 161.032 226.58C161.176 226.724 161.38 226.796 161.644 226.796C161.776 226.796 161.902 226.775 162.022 226.733C162.148 226.691 162.256 226.631 162.346 226.553L162.571 227.012ZM167.689 225.131H163.729C163.765 225.623 163.954 226.022 164.296 226.328C164.638 226.628 165.07 226.778 165.592 226.778C165.886 226.778 166.156 226.727 166.402 226.625C166.648 226.517 166.861 226.361 167.041 226.157L167.401 226.571C167.191 226.823 166.927 227.015 166.609 227.147C166.297 227.279 165.952 227.345 165.574 227.345C165.088 227.345 164.656 227.243 164.278 227.039C163.906 226.829 163.615 226.541 163.405 226.175C163.195 225.809 163.09 225.395 163.09 224.933C163.09 224.471 163.189 224.057 163.387 223.691C163.591 223.325 163.867 223.04 164.215 222.836C164.569 222.632 164.965 222.53 165.403 222.53C165.841 222.53 166.234 222.632 166.582 222.836C166.93 223.04 167.203 223.325 167.401 223.691C167.599 224.051 167.698 224.465 167.698 224.933L167.689 225.131ZM165.403 223.079C164.947 223.079 164.563 223.226 164.251 223.52C163.945 223.808 163.771 224.186 163.729 224.654H167.086C167.044 224.186 166.867 223.808 166.555 223.52C166.249 223.226 165.865 223.079 165.403 223.079Z" fill="black"/>
<path d="M266.726 216.356V212L271.953 214.273L266.726 216.356Z" fill="#9A9C9E" stroke="#9A9C9E" stroke-width="2"/>
<path d="M61.0829 48.3564L56.7266 48.3564L58.9994 44.0001L61.0829 48.3564Z" fill="#9A9C9E" stroke="#9A9C9E" stroke-width="2"/>
<path d="M77.3002 27.54C78.1335 27.54 78.7735 27.74 79.2202 28.14C79.6668 28.5333 79.8902 29.13 79.8902 29.93V33H78.4302V32.33C78.1368 32.83 77.5902 33.08 76.7902 33.08C76.3768 33.08 76.0168 33.01 75.7102 32.87C75.4102 32.73 75.1802 32.5367 75.0202 32.29C74.8602 32.0433 74.7802 31.7633 74.7802 31.45C74.7802 30.95 74.9668 30.5567 75.3402 30.27C75.7202 29.9833 76.3035 29.84 77.0902 29.84H78.3302C78.3302 29.5 78.2268 29.24 78.0202 29.06C77.8135 28.8733 77.5035 28.78 77.0902 28.78C76.8035 28.78 76.5202 28.8267 76.2402 28.92C75.9668 29.0067 75.7335 29.1267 75.5402 29.28L74.9802 28.19C75.2735 27.9833 75.6235 27.8233 76.0302 27.71C76.4435 27.5967 76.8668 27.54 77.3002 27.54ZM77.1802 32.03C77.4468 32.03 77.6835 31.97 77.8902 31.85C78.0968 31.7233 78.2435 31.54 78.3302 31.3V30.75H77.2602C76.6202 30.75 76.3002 30.96 76.3002 31.38C76.3002 31.58 76.3768 31.74 76.5302 31.86C76.6902 31.9733 76.9068 32.03 77.1802 32.03ZM86.5444 27.62L84.2744 33H82.6644L80.4044 27.62H82.0144L83.5044 31.28L85.0444 27.62H86.5444ZM92.5845 27.62V32.1C92.5845 33.0867 92.3278 33.82 91.8145 34.3C91.3011 34.78 90.5511 35.02 89.5645 35.02C89.0445 35.02 88.5511 34.9567 88.0845 34.83C87.6178 34.7033 87.2311 34.52 86.9245 34.28L87.5445 33.16C87.7711 33.3467 88.0578 33.4933 88.4045 33.6C88.7511 33.7133 89.0978 33.77 89.4445 33.77C89.9845 33.77 90.3811 33.6467 90.6345 33.4C90.8945 33.16 91.0245 32.7933 91.0245 32.3V32.07C90.6178 32.5167 90.0511 32.74 89.3245 32.74C88.8311 32.74 88.3778 32.6333 87.9645 32.42C87.5578 32.2 87.2345 31.8933 86.9945 31.5C86.7545 31.1067 86.6345 30.6533 86.6345 30.14C86.6345 29.6267 86.7545 29.1733 86.9945 28.78C87.2345 28.3867 87.5578 28.0833 87.9645 27.87C88.3778 27.65 88.8311 27.54 89.3245 27.54C90.1045 27.54 90.6978 27.7967 91.1045 28.31V27.62H92.5845ZM89.6345 31.46C90.0478 31.46 90.3845 31.34 90.6445 31.1C90.9111 30.8533 91.0445 30.5333 91.0445 30.14C91.0445 29.7467 90.9111 29.43 90.6445 29.19C90.3845 28.9433 90.0478 28.82 89.6345 28.82C89.2211 28.82 88.8811 28.9433 88.6145 29.19C88.3478 29.43 88.2145 29.7467 88.2145 30.14C88.2145 30.5333 88.3478 30.8533 88.6145 31.1C88.8811 31.34 89.2211 31.46 89.6345 31.46ZM93.3164 33H98.3164V33.9H93.3164V33ZM100.526 28.33C100.713 28.07 100.963 27.8733 101.276 27.74C101.596 27.6067 101.963 27.54 102.376 27.54V28.98C102.203 28.9667 102.086 28.96 102.026 28.96C101.58 28.96 101.23 29.0867 100.976 29.34C100.723 29.5867 100.596 29.96 100.596 30.46V33H99.0364V27.62H100.526V28.33ZM108.525 30.33C108.525 30.35 108.515 30.49 108.495 30.75H104.425C104.498 31.0833 104.672 31.3467 104.945 31.54C105.218 31.7333 105.558 31.83 105.965 31.83C106.245 31.83 106.492 31.79 106.705 31.71C106.925 31.6233 107.128 31.49 107.315 31.31L108.145 32.21C107.638 32.79 106.898 33.08 105.925 33.08C105.318 33.08 104.782 32.9633 104.315 32.73C103.848 32.49 103.488 32.16 103.235 31.74C102.982 31.32 102.855 30.8433 102.855 30.31C102.855 29.7833 102.978 29.31 103.225 28.89C103.478 28.4633 103.822 28.1333 104.255 27.9C104.695 27.66 105.185 27.54 105.725 27.54C106.252 27.54 106.728 27.6533 107.155 27.88C107.582 28.1067 107.915 28.4333 108.155 28.86C108.402 29.28 108.525 29.77 108.525 30.33ZM105.735 28.72C105.382 28.72 105.085 28.82 104.845 29.02C104.605 29.22 104.458 29.4933 104.405 29.84H107.055C107.002 29.5 106.855 29.23 106.615 29.03C106.375 28.8233 106.082 28.72 105.735 28.72ZM112.164 33.08C111.59 33.08 111.074 32.9633 110.614 32.73C110.16 32.49 109.804 32.16 109.544 31.74C109.29 31.32 109.164 30.8433 109.164 30.31C109.164 29.7767 109.29 29.3 109.544 28.88C109.804 28.46 110.16 28.1333 110.614 27.9C111.074 27.66 111.59 27.54 112.164 27.54C112.73 27.54 113.224 27.66 113.644 27.9C114.07 28.1333 114.38 28.47 114.574 28.91L113.364 29.56C113.084 29.0667 112.68 28.82 112.154 28.82C111.747 28.82 111.41 28.9533 111.144 29.22C110.877 29.4867 110.744 29.85 110.744 30.31C110.744 30.77 110.877 31.1333 111.144 31.4C111.41 31.6667 111.747 31.8 112.154 31.8C112.687 31.8 113.09 31.5533 113.364 31.06L114.574 31.72C114.38 32.1467 114.07 32.48 113.644 32.72C113.224 32.96 112.73 33.08 112.164 33.08ZM120.674 30.33C120.674 30.35 120.664 30.49 120.644 30.75H116.574C116.647 31.0833 116.82 31.3467 117.094 31.54C117.367 31.7333 117.707 31.83 118.114 31.83C118.394 31.83 118.64 31.79 118.854 31.71C119.074 31.6233 119.277 31.49 119.464 31.31L120.294 32.21C119.787 32.79 119.047 33.08 118.074 33.08C117.467 33.08 116.93 32.9633 116.464 32.73C115.997 32.49 115.637 32.16 115.384 31.74C115.13 31.32 115.004 30.8433 115.004 30.31C115.004 29.7833 115.127 29.31 115.374 28.89C115.627 28.4633 115.97 28.1333 116.404 27.9C116.844 27.66 117.334 27.54 117.874 27.54C118.4 27.54 118.877 27.6533 119.304 27.88C119.73 28.1067 120.064 28.4333 120.304 28.86C120.55 29.28 120.674 29.77 120.674 30.33ZM117.884 28.72C117.53 28.72 117.234 28.82 116.994 29.02C116.754 29.22 116.607 29.4933 116.554 29.84H119.204C119.15 29.5 119.004 29.23 118.764 29.03C118.524 28.8233 118.23 28.72 117.884 28.72ZM121.712 27.62H123.272V33H121.712V27.62ZM122.492 26.87C122.206 26.87 121.972 26.7867 121.792 26.62C121.612 26.4533 121.522 26.2467 121.522 26C121.522 25.7533 121.612 25.5467 121.792 25.38C121.972 25.2133 122.206 25.13 122.492 25.13C122.779 25.13 123.012 25.21 123.192 25.37C123.372 25.53 123.462 25.73 123.462 25.97C123.462 26.23 123.372 26.4467 123.192 26.62C123.012 26.7867 122.779 26.87 122.492 26.87ZM127.9 27.54C128.4 27.54 128.853 27.6567 129.26 27.89C129.673 28.1167 129.997 28.44 130.23 28.86C130.463 29.2733 130.58 29.7567 130.58 30.31C130.58 30.8633 130.463 31.35 130.23 31.77C129.997 32.1833 129.673 32.5067 129.26 32.74C128.853 32.9667 128.4 33.08 127.9 33.08C127.213 33.08 126.673 32.8633 126.28 32.43V34.94H124.72V27.62H126.21V28.24C126.597 27.7733 127.16 27.54 127.9 27.54ZM127.63 31.8C128.03 31.8 128.357 31.6667 128.61 31.4C128.87 31.1267 129 30.7633 129 30.31C129 29.8567 128.87 29.4967 128.61 29.23C128.357 28.9567 128.03 28.82 127.63 28.82C127.23 28.82 126.9 28.9567 126.64 29.23C126.387 29.4967 126.26 29.8567 126.26 30.31C126.26 30.7633 126.387 31.1267 126.64 31.4C126.9 31.6667 127.23 31.8 127.63 31.8ZM135.094 32.74C134.941 32.8533 134.751 32.94 134.524 33C134.304 33.0533 134.071 33.08 133.824 33.08C133.184 33.08 132.688 32.9167 132.334 32.59C131.988 32.2633 131.814 31.7833 131.814 31.15V28.94H130.984V27.74H131.814V26.43H133.374V27.74H134.714V28.94H133.374V31.13C133.374 31.3567 133.431 31.5333 133.544 31.66C133.664 31.78 133.831 31.84 134.044 31.84C134.291 31.84 134.501 31.7733 134.674 31.64L135.094 32.74ZM138.702 27.65H143.462V28.87H138.702V27.65ZM138.702 30.13H143.462V31.35H138.702V30.13ZM150.56 28.85C151.174 28.95 151.644 29.18 151.97 29.54C152.297 29.8933 152.46 30.3333 152.46 30.86C152.46 31.2667 152.354 31.6433 152.14 31.99C151.927 32.33 151.6 32.6033 151.16 32.81C150.727 33.0167 150.194 33.12 149.56 33.12C149.067 33.12 148.58 33.0567 148.1 32.93C147.627 32.7967 147.224 32.61 146.89 32.37L147.52 31.13C147.787 31.33 148.094 31.4867 148.44 31.6C148.794 31.7067 149.154 31.76 149.52 31.76C149.927 31.76 150.247 31.6833 150.48 31.53C150.714 31.37 150.83 31.1467 150.83 30.86C150.83 30.2867 150.394 30 149.52 30H148.78V28.93L150.22 27.3H147.24V26H152.14V27.05L150.56 28.85ZM156.43 28.85C157.043 28.95 157.513 29.18 157.84 29.54C158.166 29.8933 158.33 30.3333 158.33 30.86C158.33 31.2667 158.223 31.6433 158.01 31.99C157.796 32.33 157.47 32.6033 157.03 32.81C156.596 33.0167 156.063 33.12 155.43 33.12C154.936 33.12 154.45 33.0567 153.97 32.93C153.496 32.7967 153.093 32.61 152.76 32.37L153.39 31.13C153.656 31.33 153.963 31.4867 154.31 31.6C154.663 31.7067 155.023 31.76 155.39 31.76C155.796 31.76 156.116 31.6833 156.35 31.53C156.583 31.37 156.7 31.1467 156.7 30.86C156.7 30.2867 156.263 30 155.39 30H154.65V28.93L156.09 27.3H153.11V26H158.01V27.05L156.43 28.85ZM159.998 33.08C159.724 33.08 159.494 32.9867 159.308 32.8C159.121 32.6133 159.028 32.38 159.028 32.1C159.028 31.8133 159.121 31.5833 159.308 31.41C159.494 31.23 159.724 31.14 159.998 31.14C160.271 31.14 160.501 31.23 160.688 31.41C160.874 31.5833 160.968 31.8133 160.968 32.1C160.968 32.38 160.874 32.6133 160.688 32.8C160.501 32.9867 160.271 33.08 159.998 33.08ZM165.062 28.85C165.676 28.95 166.146 29.18 166.472 29.54C166.799 29.8933 166.962 30.3333 166.962 30.86C166.962 31.2667 166.856 31.6433 166.642 31.99C166.429 32.33 166.102 32.6033 165.662 32.81C165.229 33.0167 164.696 33.12 164.062 33.12C163.569 33.12 163.082 33.0567 162.602 32.93C162.129 32.7967 161.726 32.61 161.392 32.37L162.022 31.13C162.289 31.33 162.596 31.4867 162.942 31.6C163.296 31.7067 163.656 31.76 164.022 31.76C164.429 31.76 164.749 31.6833 164.982 31.53C165.216 31.37 165.332 31.1467 165.332 30.86C165.332 30.2867 164.896 30 164.022 30H163.282V28.93L164.722 27.3H161.742V26H166.642V27.05L165.062 28.85ZM170.931 28.85C171.545 28.95 172.015 29.18 172.341 29.54C172.668 29.8933 172.831 30.3333 172.831 30.86C172.831 31.2667 172.725 31.6433 172.511 31.99C172.298 32.33 171.971 32.6033 171.531 32.81C171.098 33.0167 170.565 33.12 169.931 33.12C169.438 33.12 168.951 33.0567 168.471 32.93C167.998 32.7967 167.595 32.61 167.261 32.37L167.891 31.13C168.158 31.33 168.465 31.4867 168.811 31.6C169.165 31.7067 169.525 31.76 169.891 31.76C170.298 31.76 170.618 31.6833 170.851 31.53C171.085 31.37 171.201 31.1467 171.201 30.86C171.201 30.2867 170.765 30 169.891 30H169.151V28.93L170.591 27.3H167.611V26H172.511V27.05L170.931 28.85ZM181.401 30.11H179.661V31.81H178.371V30.11H176.641V28.89H178.371V27.19H179.661V28.89H181.401V30.11ZM188.6 28.61C189.047 28.61 189.453 28.7 189.82 28.88C190.187 29.06 190.477 29.3167 190.69 29.65C190.903 29.9767 191.01 30.3567 191.01 30.79C191.01 31.2567 190.893 31.6667 190.66 32.02C190.427 32.3733 190.107 32.6467 189.7 32.84C189.3 33.0267 188.853 33.12 188.36 33.12C187.38 33.12 186.613 32.82 186.06 32.22C185.507 31.62 185.23 30.7633 185.23 29.65C185.23 28.8567 185.38 28.1767 185.68 27.61C185.98 27.0433 186.397 26.6133 186.93 26.32C187.47 26.0267 188.093 25.88 188.8 25.88C189.173 25.88 189.53 25.9233 189.87 26.01C190.217 26.09 190.51 26.2067 190.75 26.36L190.15 27.55C189.803 27.3167 189.367 27.2 188.84 27.2C188.247 27.2 187.777 27.3733 187.43 27.72C187.083 28.0667 186.897 28.57 186.87 29.23C187.283 28.8167 187.86 28.61 188.6 28.61ZM188.27 31.91C188.617 31.91 188.897 31.8167 189.11 31.63C189.33 31.4433 189.44 31.19 189.44 30.87C189.44 30.55 189.33 30.2967 189.11 30.11C188.897 29.9167 188.61 29.82 188.25 29.82C187.897 29.82 187.607 29.92 187.38 30.12C187.153 30.3133 187.04 30.5633 187.04 30.87C187.04 31.1767 187.15 31.4267 187.37 31.62C187.59 31.8133 187.89 31.91 188.27 31.91ZM194.967 28.61C195.414 28.61 195.82 28.7 196.187 28.88C196.554 29.06 196.844 29.3167 197.057 29.65C197.27 29.9767 197.377 30.3567 197.377 30.79C197.377 31.2567 197.26 31.6667 197.027 32.02C196.794 32.3733 196.474 32.6467 196.067 32.84C195.667 33.0267 195.22 33.12 194.727 33.12C193.747 33.12 192.98 32.82 192.427 32.22C191.874 31.62 191.597 30.7633 191.597 29.65C191.597 28.8567 191.747 28.1767 192.047 27.61C192.347 27.0433 192.764 26.6133 193.297 26.32C193.837 26.0267 194.46 25.88 195.167 25.88C195.54 25.88 195.897 25.9233 196.237 26.01C196.584 26.09 196.877 26.2067 197.117 26.36L196.517 27.55C196.17 27.3167 195.734 27.2 195.207 27.2C194.614 27.2 194.144 27.3733 193.797 27.72C193.45 28.0667 193.264 28.57 193.237 29.23C193.65 28.8167 194.227 28.61 194.967 28.61ZM194.637 31.91C194.984 31.91 195.264 31.8167 195.477 31.63C195.697 31.4433 195.807 31.19 195.807 30.87C195.807 30.55 195.697 30.2967 195.477 30.11C195.264 29.9167 194.977 29.82 194.617 29.82C194.264 29.82 193.974 29.92 193.747 30.12C193.52 30.3133 193.407 30.5633 193.407 30.87C193.407 31.1767 193.517 31.4267 193.737 31.62C193.957 31.8133 194.257 31.91 194.637 31.91ZM198.982 33.08C198.709 33.08 198.479 32.9867 198.292 32.8C198.105 32.6133 198.012 32.38 198.012 32.1C198.012 31.8133 198.105 31.5833 198.292 31.41C198.479 31.23 198.709 31.14 198.982 31.14C199.255 31.14 199.485 31.23 199.672 31.41C199.859 31.5833 199.952 31.8133 199.952 32.1C199.952 32.38 199.859 32.6133 199.672 32.8C199.485 32.9867 199.255 33.08 198.982 33.08ZM203.922 28.61C204.369 28.61 204.775 28.7 205.142 28.88C205.509 29.06 205.799 29.3167 206.012 29.65C206.225 29.9767 206.332 30.3567 206.332 30.79C206.332 31.2567 206.215 31.6667 205.982 32.02C205.749 32.3733 205.429 32.6467 205.022 32.84C204.622 33.0267 204.175 33.12 203.682 33.12C202.702 33.12 201.935 32.82 201.382 32.22C200.829 31.62 200.552 30.7633 200.552 29.65C200.552 28.8567 200.702 28.1767 201.002 27.61C201.302 27.0433 201.719 26.6133 202.252 26.32C202.792 26.0267 203.415 25.88 204.122 25.88C204.495 25.88 204.852 25.9233 205.192 26.01C205.539 26.09 205.832 26.2067 206.072 26.36L205.472 27.55C205.125 27.3167 204.689 27.2 204.162 27.2C203.569 27.2 203.099 27.3733 202.752 27.72C202.405 28.0667 202.219 28.57 202.192 29.23C202.605 28.8167 203.182 28.61 203.922 28.61ZM203.592 31.91C203.939 31.91 204.219 31.8167 204.432 31.63C204.652 31.4433 204.762 31.19 204.762 30.87C204.762 30.55 204.652 30.2967 204.432 30.11C204.219 29.9167 203.932 29.82 203.572 29.82C203.219 29.82 202.929 29.92 202.702 30.12C202.475 30.3133 202.362 30.5633 202.362 30.87C202.362 31.1767 202.472 31.4267 202.692 31.62C202.912 31.8133 203.212 31.91 203.592 31.91ZM212.36 26V27.05L209.76 33H208L210.51 27.32H208.19V28.46H206.75V26H212.36ZM218.643 27.56L219.733 28.15L219.243 28.97L218.143 28.32L218.163 29.53H217.223L217.233 28.31L216.133 28.97L215.653 28.15L216.743 27.56L215.653 26.96L216.133 26.14L217.233 26.8L217.223 25.58H218.163L218.143 26.8L219.243 26.14L219.733 26.96L218.643 27.56ZM224.901 28.33C225.088 28.07 225.338 27.8733 225.651 27.74C225.971 27.6067 226.338 27.54 226.751 27.54V28.98C226.578 28.9667 226.461 28.96 226.401 28.96C225.955 28.96 225.605 29.0867 225.351 29.34C225.098 29.5867 224.971 29.96 224.971 30.46V33H223.411V27.62H224.901V28.33ZM229.82 27.54C230.653 27.54 231.293 27.74 231.74 28.14C232.186 28.5333 232.41 29.13 232.41 29.93V33H230.95V32.33C230.656 32.83 230.11 33.08 229.31 33.08C228.896 33.08 228.536 33.01 228.23 32.87C227.93 32.73 227.7 32.5367 227.54 32.29C227.38 32.0433 227.3 31.7633 227.3 31.45C227.3 30.95 227.486 30.5567 227.86 30.27C228.24 29.9833 228.823 29.84 229.61 29.84H230.85C230.85 29.5 230.746 29.24 230.54 29.06C230.333 28.8733 230.023 28.78 229.61 28.78C229.323 28.78 229.04 28.8267 228.76 28.92C228.486 29.0067 228.253 29.1267 228.06 29.28L227.5 28.19C227.793 27.9833 228.143 27.8233 228.55 27.71C228.963 27.5967 229.386 27.54 229.82 27.54ZM229.7 32.03C229.966 32.03 230.203 31.97 230.41 31.85C230.616 31.7233 230.763 31.54 230.85 31.3V30.75H229.78C229.14 30.75 228.82 30.96 228.82 31.38C228.82 31.58 228.896 31.74 229.05 31.86C229.21 31.9733 229.426 32.03 229.7 32.03ZM237.292 32.74C237.138 32.8533 236.948 32.94 236.722 33C236.502 33.0533 236.268 33.08 236.022 33.08C235.382 33.08 234.885 32.9167 234.532 32.59C234.185 32.2633 234.012 31.7833 234.012 31.15V28.94H233.182V27.74H234.012V26.43H235.572V27.74H236.912V28.94H235.572V31.13C235.572 31.3567 235.628 31.5333 235.742 31.66C235.862 31.78 236.028 31.84 236.242 31.84C236.488 31.84 236.698 31.7733 236.872 31.64L237.292 32.74ZM243.271 30.33C243.271 30.35 243.261 30.49 243.241 30.75H239.171C239.245 31.0833 239.418 31.3467 239.691 31.54C239.965 31.7333 240.305 31.83 240.711 31.83C240.991 31.83 241.238 31.79 241.451 31.71C241.671 31.6233 241.875 31.49 242.061 31.31L242.891 32.21C242.385 32.79 241.645 33.08 240.671 33.08C240.065 33.08 239.528 32.9633 239.061 32.73C238.595 32.49 238.235 32.16 237.981 31.74C237.728 31.32 237.601 30.8433 237.601 30.31C237.601 29.7833 237.725 29.31 237.971 28.89C238.225 28.4633 238.568 28.1333 239.001 27.9C239.441 27.66 239.931 27.54 240.471 27.54C240.998 27.54 241.475 27.6533 241.901 27.88C242.328 28.1067 242.661 28.4333 242.901 28.86C243.148 29.28 243.271 29.77 243.271 30.33ZM240.481 28.72C240.128 28.72 239.831 28.82 239.591 29.02C239.351 29.22 239.205 29.4933 239.151 29.84H241.801C241.748 29.5 241.601 29.23 241.361 29.03C241.121 28.8233 240.828 28.72 240.481 28.72Z" fill="black"/>
<path d="M201 110H196L198.609 105L201 110Z" fill="#2300FA" stroke="#2300FA" stroke-width="2"/>
<path d="M199 109L199 214" stroke="#2300FA" stroke-dasharray="4 4"/>
<path d="M200 109L59 109" stroke="#2300FA" stroke-dasharray="4 4"/>
<circle cx="238.726" cy="75" r="3" fill="#808080"/>
<circle cx="199" cy="75" r="3" fill="#808080"/>
<circle cx="159" cy="135" r="3" fill="#808080"/>
<circle cx="119" cy="135" r="3" fill="#808080"/>
<circle cx="119" cy="174" r="3" fill="#808080"/>
<circle cx="79" cy="194" r="3" fill="#808080"/>
<circle cx="199" cy="154" r="3" fill="#808080"/>
<rect width="21" height="7" transform="translate(32 105)" fill="#2300FA"/>
<path d="M36.1337 110.208V111H32.9597V110.37L34.5797 108.84C34.7517 108.676 34.8677 108.536 34.9277 108.42C34.9877 108.3 35.0177 108.182 35.0177 108.066C35.0177 107.898 34.9597 107.77 34.8437 107.682C34.7317 107.59 34.5657 107.544 34.3457 107.544C34.1617 107.544 33.9957 107.58 33.8477 107.652C33.6997 107.72 33.5757 107.824 33.4757 107.964L32.7677 107.508C32.9317 107.264 33.1577 107.074 33.4457 106.938C33.7337 106.798 34.0637 106.728 34.4357 106.728C34.7477 106.728 35.0197 106.78 35.2517 106.884C35.4877 106.984 35.6697 107.128 35.7977 107.316C35.9297 107.5 35.9957 107.718 35.9957 107.97C35.9957 108.198 35.9477 108.412 35.8517 108.612C35.7557 108.812 35.5697 109.04 35.2937 109.296L34.3277 110.208H36.1337ZM38.5451 108.366C38.8131 108.366 39.0571 108.42 39.2771 108.528C39.4971 108.636 39.6711 108.79 39.7991 108.99C39.9271 109.186 39.9911 109.414 39.9911 109.674C39.9911 109.954 39.9211 110.2 39.7811 110.412C39.6411 110.624 39.4491 110.788 39.2051 110.904C38.9651 111.016 38.6971 111.072 38.4011 111.072C37.8131 111.072 37.3531 110.892 37.0211 110.532C36.6891 110.172 36.5231 109.658 36.5231 108.99C36.5231 108.514 36.6131 108.106 36.7931 107.766C36.9731 107.426 37.2231 107.168 37.5431 106.992C37.8671 106.816 38.2411 106.728 38.6651 106.728C38.8891 106.728 39.1031 106.754 39.3071 106.806C39.5151 106.854 39.6911 106.924 39.8351 107.016L39.4751 107.73C39.2671 107.59 39.0051 107.52 38.6891 107.52C38.3331 107.52 38.0511 107.624 37.8431 107.832C37.6351 108.04 37.5231 108.342 37.5071 108.738C37.7551 108.49 38.1011 108.366 38.5451 108.366ZM38.3471 110.346C38.5551 110.346 38.7231 110.29 38.8511 110.178C38.9831 110.066 39.0491 109.914 39.0491 109.722C39.0491 109.53 38.9831 109.378 38.8511 109.266C38.7231 109.15 38.5511 109.092 38.3351 109.092C38.1231 109.092 37.9491 109.152 37.8131 109.272C37.6771 109.388 37.6091 109.538 37.6091 109.722C37.6091 109.906 37.6751 110.056 37.8071 110.172C37.9391 110.288 38.1191 110.346 38.3471 110.346ZM42.3654 108.366C42.6334 108.366 42.8774 108.42 43.0974 108.528C43.3174 108.636 43.4914 108.79 43.6194 108.99C43.7474 109.186 43.8114 109.414 43.8114 109.674C43.8114 109.954 43.7414 110.2 43.6014 110.412C43.4614 110.624 43.2694 110.788 43.0254 110.904C42.7854 111.016 42.5174 111.072 42.2214 111.072C41.6334 111.072 41.1734 110.892 40.8414 110.532C40.5094 110.172 40.3434 109.658 40.3434 108.99C40.3434 108.514 40.4334 108.106 40.6134 107.766C40.7934 107.426 41.0434 107.168 41.3634 106.992C41.6874 106.816 42.0614 106.728 42.4854 106.728C42.7094 106.728 42.9234 106.754 43.1274 106.806C43.3354 106.854 43.5114 106.924 43.6554 107.016L43.2954 107.73C43.0874 107.59 42.8254 107.52 42.5094 107.52C42.1534 107.52 41.8714 107.624 41.6634 107.832C41.4554 108.04 41.3434 108.342 41.3274 108.738C41.5754 108.49 41.9214 108.366 42.3654 108.366ZM42.1674 110.346C42.3754 110.346 42.5434 110.29 42.6714 110.178C42.8034 110.066 42.8694 109.914 42.8694 109.722C42.8694 109.53 42.8034 109.378 42.6714 109.266C42.5434 109.15 42.3714 109.092 42.1554 109.092C41.9434 109.092 41.7694 109.152 41.6334 109.272C41.4974 109.388 41.4294 109.538 41.4294 109.722C41.4294 109.906 41.4954 110.056 41.6274 110.172C41.7594 110.288 41.9394 110.346 42.1674 110.346ZM44.7743 111.048C44.6103 111.048 44.4723 110.992 44.3603 110.88C44.2483 110.768 44.1923 110.628 44.1923 110.46C44.1923 110.288 44.2483 110.15 44.3603 110.046C44.4723 109.938 44.6103 109.884 44.7743 109.884C44.9383 109.884 45.0763 109.938 45.1883 110.046C45.3003 110.15 45.3563 110.288 45.3563 110.46C45.3563 110.628 45.3003 110.768 45.1883 110.88C45.0763 110.992 44.9383 111.048 44.7743 111.048ZM47.7384 108.366C48.0064 108.366 48.2504 108.42 48.4704 108.528C48.6904 108.636 48.8644 108.79 48.9924 108.99C49.1204 109.186 49.1844 109.414 49.1844 109.674C49.1844 109.954 49.1144 110.2 48.9744 110.412C48.8344 110.624 48.6424 110.788 48.3984 110.904C48.1584 111.016 47.8904 111.072 47.5944 111.072C47.0064 111.072 46.5464 110.892 46.2144 110.532C45.8824 110.172 45.7164 109.658 45.7164 108.99C45.7164 108.514 45.8064 108.106 45.9864 107.766C46.1664 107.426 46.4164 107.168 46.7364 106.992C47.0604 106.816 47.4344 106.728 47.8584 106.728C48.0824 106.728 48.2964 106.754 48.5004 106.806C48.7084 106.854 48.8844 106.924 49.0284 107.016L48.6684 107.73C48.4604 107.59 48.1984 107.52 47.8824 107.52C47.5264 107.52 47.2444 107.624 47.0364 107.832C46.8284 108.04 46.7164 108.342 46.7004 108.738C46.9484 108.49 47.2944 108.366 47.7384 108.366ZM47.5404 110.346C47.7484 110.346 47.9164 110.29 48.0444 110.178C48.1764 110.066 48.2424 109.914 48.2424 109.722C48.2424 109.53 48.1764 109.378 48.0444 109.266C47.9164 109.15 47.7444 109.092 47.5284 109.092C47.3164 109.092 47.1424 109.152 47.0064 109.272C46.8704 109.388 46.8024 109.538 46.8024 109.722C46.8024 109.906 46.8684 110.056 47.0004 110.172C47.1324 110.288 47.3124 110.346 47.5404 110.346ZM52.8013 106.8V107.43L51.2413 111H50.1853L51.6913 107.592H50.2993V108.276H49.4353V106.8H52.8013Z" fill="white"/>
<rect width="9" height="7" transform="translate(194 219)" fill="#2300FA"/>
<path d="M196.507 222.51C196.875 222.57 197.157 222.708 197.353 222.924C197.549 223.136 197.647 223.4 197.647 223.716C197.647 223.96 197.583 224.186 197.455 224.394C197.327 224.598 197.131 224.762 196.867 224.886C196.607 225.01 196.287 225.072 195.907 225.072C195.611 225.072 195.319 225.034 195.031 224.958C194.747 224.878 194.505 224.766 194.305 224.622L194.683 223.878C194.843 223.998 195.027 224.092 195.235 224.16C195.447 224.224 195.663 224.256 195.883 224.256C196.127 224.256 196.319 224.21 196.459 224.118C196.599 224.022 196.669 223.888 196.669 223.716C196.669 223.372 196.407 223.2 195.883 223.2H195.439V222.558L196.303 221.58H194.515V220.8H197.455V221.43L196.507 222.51ZM198.647 225.048C198.483 225.048 198.345 224.992 198.233 224.88C198.121 224.768 198.065 224.628 198.065 224.46C198.065 224.288 198.121 224.15 198.233 224.046C198.345 223.938 198.483 223.884 198.647 223.884C198.811 223.884 198.949 223.938 199.061 224.046C199.173 224.15 199.229 224.288 199.229 224.46C199.229 224.628 199.173 224.768 199.061 224.88C198.949 224.992 198.811 225.048 198.647 225.048ZM201.106 222.378C201.698 222.378 202.134 222.496 202.414 222.732C202.698 222.968 202.84 223.284 202.84 223.68C202.84 223.936 202.776 224.17 202.648 224.382C202.52 224.59 202.324 224.758 202.06 224.886C201.8 225.01 201.478 225.072 201.094 225.072C200.798 225.072 200.506 225.034 200.218 224.958C199.934 224.878 199.692 224.766 199.492 224.622L199.876 223.878C200.036 223.998 200.22 224.092 200.428 224.16C200.636 224.224 200.85 224.256 201.07 224.256C201.314 224.256 201.506 224.208 201.646 224.112C201.786 224.016 201.856 223.882 201.856 223.71C201.856 223.53 201.782 223.394 201.634 223.302C201.49 223.21 201.238 223.164 200.878 223.164H199.804L200.02 220.8H202.582V221.58H200.83L200.764 222.378H201.106Z" fill="white"/>
<path d="M113.385 243V239.749H114.862C115.215 239.749 115.527 239.817 115.796 239.953C116.065 240.086 116.276 240.274 116.428 240.515C116.579 240.757 116.655 241.043 116.655 241.374C116.655 241.703 116.579 241.989 116.428 242.234C116.276 242.475 116.065 242.664 115.796 242.8C115.527 242.933 115.215 243 114.862 243H113.385ZM114.138 242.382H114.825C115.042 242.382 115.229 242.342 115.387 242.262C115.548 242.178 115.672 242.06 115.759 241.909C115.849 241.757 115.893 241.579 115.893 241.374C115.893 241.167 115.849 240.989 115.759 240.84C115.672 240.689 115.548 240.573 115.387 240.492C115.229 240.408 115.042 240.367 114.825 240.367H114.138V242.382ZM118.704 243V242.512L118.658 242.406V241.532C118.658 241.378 118.61 241.257 118.514 241.17C118.421 241.083 118.277 241.04 118.082 241.04C117.949 241.04 117.817 241.062 117.687 241.105C117.56 241.145 117.452 241.201 117.362 241.272L117.102 240.766C117.238 240.67 117.402 240.596 117.594 240.543C117.786 240.49 117.981 240.464 118.179 240.464C118.56 240.464 118.856 240.554 119.066 240.734C119.277 240.913 119.382 241.193 119.382 241.574V243H118.704ZM117.942 243.037C117.747 243.037 117.58 243.005 117.441 242.94C117.302 242.872 117.195 242.78 117.12 242.666C117.046 242.551 117.009 242.423 117.009 242.28C117.009 242.131 117.045 242.001 117.116 241.89C117.19 241.779 117.306 241.692 117.464 241.63C117.622 241.565 117.828 241.532 118.082 241.532H118.746V241.955H118.161C117.99 241.955 117.873 241.983 117.808 242.039C117.746 242.094 117.715 242.164 117.715 242.248C117.715 242.34 117.751 242.415 117.822 242.471C117.896 242.523 117.997 242.549 118.124 242.549C118.244 242.549 118.353 242.522 118.449 242.466C118.545 242.407 118.614 242.322 118.658 242.21L118.769 242.545C118.717 242.706 118.621 242.828 118.481 242.912C118.342 242.995 118.162 243.037 117.942 243.037ZM121.06 243.037C120.766 243.037 120.537 242.963 120.372 242.814C120.208 242.663 120.126 242.438 120.126 242.141V239.949H120.851V242.131C120.851 242.237 120.879 242.319 120.934 242.378C120.99 242.433 121.066 242.461 121.162 242.461C121.277 242.461 121.374 242.43 121.455 242.368L121.65 242.879C121.575 242.932 121.486 242.972 121.38 243C121.278 243.025 121.171 243.037 121.06 243.037ZM119.741 241.114V240.557H121.473V241.114H119.741ZM123.589 243V242.512L123.543 242.406V241.532C123.543 241.378 123.495 241.257 123.399 241.17C123.306 241.083 123.162 241.04 122.967 241.04C122.834 241.04 122.702 241.062 122.572 241.105C122.445 241.145 122.337 241.201 122.247 241.272L121.987 240.766C122.123 240.67 122.287 240.596 122.479 240.543C122.671 240.49 122.866 240.464 123.064 240.464C123.445 240.464 123.741 240.554 123.951 240.734C124.162 240.913 124.267 241.193 124.267 241.574V243H123.589ZM122.827 243.037C122.632 243.037 122.465 243.005 122.326 242.94C122.186 242.872 122.08 242.78 122.005 242.666C121.931 242.551 121.894 242.423 121.894 242.28C121.894 242.131 121.929 242.001 122.001 241.89C122.075 241.779 122.191 241.692 122.349 241.63C122.507 241.565 122.713 241.532 122.967 241.532H123.631V241.955H123.046C122.875 241.955 122.758 241.983 122.693 242.039C122.631 242.094 122.6 242.164 122.6 242.248C122.6 242.34 122.635 242.415 122.707 242.471C122.781 242.523 122.882 242.549 123.008 242.549C123.129 242.549 123.238 242.522 123.334 242.466C123.43 242.407 123.499 242.322 123.543 242.21L123.654 242.545C123.601 242.706 123.505 242.828 123.366 242.912C123.227 242.995 123.047 243.037 122.827 243.037ZM127.845 243.056C127.594 243.056 127.361 243.015 127.144 242.935C126.93 242.851 126.744 242.734 126.586 242.582C126.429 242.43 126.305 242.252 126.215 242.048C126.128 241.844 126.085 241.619 126.085 241.374C126.085 241.13 126.128 240.905 126.215 240.701C126.305 240.497 126.429 240.319 126.586 240.167C126.747 240.015 126.935 239.899 127.148 239.819C127.362 239.735 127.596 239.693 127.85 239.693C128.132 239.693 128.385 239.743 128.611 239.842C128.841 239.938 129.033 240.08 129.187 240.269L128.704 240.715C128.593 240.588 128.469 240.494 128.333 240.432C128.197 240.367 128.048 240.334 127.887 240.334C127.735 240.334 127.596 240.359 127.469 240.408C127.342 240.458 127.232 240.529 127.139 240.622C127.046 240.715 126.974 240.825 126.921 240.952C126.871 241.079 126.847 241.22 126.847 241.374C126.847 241.529 126.871 241.67 126.921 241.797C126.974 241.924 127.046 242.034 127.139 242.127C127.232 242.22 127.342 242.291 127.469 242.34C127.596 242.39 127.735 242.415 127.887 242.415C128.048 242.415 128.197 242.384 128.333 242.322C128.469 242.257 128.593 242.159 128.704 242.029L129.187 242.475C129.033 242.664 128.841 242.808 128.611 242.907C128.385 243.006 128.13 243.056 127.845 243.056ZM130.64 243.037C130.432 243.037 130.246 242.997 130.082 242.916C129.921 242.836 129.796 242.714 129.706 242.549C129.616 242.382 129.571 242.17 129.571 241.913V240.501H130.296V241.806C130.296 242.014 130.339 242.167 130.426 242.266C130.516 242.362 130.641 242.41 130.802 242.41C130.914 242.41 131.013 242.387 131.1 242.34C131.186 242.291 131.254 242.217 131.304 242.118C131.353 242.015 131.378 241.888 131.378 241.737V240.501H132.103V243H131.415V242.313L131.541 242.512C131.457 242.686 131.333 242.817 131.169 242.907C131.008 242.994 130.832 243.037 130.64 243.037ZM132.774 243V239.554H133.498V243H132.774ZM135.379 243.037C135.084 243.037 134.855 242.963 134.691 242.814C134.527 242.663 134.445 242.438 134.445 242.141V239.949H135.17V242.131C135.17 242.237 135.198 242.319 135.253 242.378C135.309 242.433 135.385 242.461 135.481 242.461C135.595 242.461 135.693 242.43 135.773 242.368L135.968 242.879C135.894 242.932 135.804 242.972 135.699 243C135.597 243.025 135.49 243.037 135.379 243.037ZM134.06 241.114V240.557H135.792V241.114H134.06ZM137.429 243.037C137.222 243.037 137.036 242.997 136.872 242.916C136.711 242.836 136.586 242.714 136.496 242.549C136.406 242.382 136.361 242.17 136.361 241.913V240.501H137.086V241.806C137.086 242.014 137.129 242.167 137.216 242.266C137.306 242.362 137.431 242.41 137.592 242.41C137.704 242.41 137.803 242.387 137.889 242.34C137.976 242.291 138.044 242.217 138.094 242.118C138.143 242.015 138.168 241.888 138.168 241.737V240.501H138.892V243H138.205V242.313L138.331 242.512C138.247 242.686 138.123 242.817 137.959 242.907C137.798 242.994 137.621 243.037 137.429 243.037ZM139.564 243V240.501H140.256V241.207L140.158 241.003C140.233 240.826 140.352 240.693 140.516 240.603C140.68 240.511 140.88 240.464 141.115 240.464V241.133C141.084 241.13 141.056 241.128 141.031 241.128C141.007 241.125 140.98 241.124 140.952 241.124C140.754 241.124 140.593 241.181 140.469 241.295C140.349 241.407 140.288 241.582 140.288 241.82V243H139.564ZM142.768 243.037C142.483 243.037 142.232 242.981 142.015 242.87C141.802 242.758 141.636 242.607 141.518 242.415C141.401 242.22 141.342 241.998 141.342 241.751C141.342 241.5 141.399 241.278 141.514 241.086C141.631 240.891 141.791 240.74 141.992 240.631C142.193 240.52 142.421 240.464 142.675 240.464C142.919 240.464 143.139 240.517 143.334 240.622C143.532 240.724 143.689 240.873 143.803 241.068C143.918 241.26 143.975 241.491 143.975 241.76C143.975 241.788 143.974 241.82 143.971 241.857C143.968 241.892 143.964 241.924 143.961 241.955H141.932V241.532H143.58L143.302 241.658C143.302 241.528 143.275 241.415 143.223 241.319C143.17 241.223 143.097 241.148 143.005 241.096C142.912 241.04 142.803 241.012 142.679 241.012C142.556 241.012 142.446 241.04 142.35 241.096C142.257 241.148 142.184 241.224 142.131 241.323C142.079 241.419 142.052 241.534 142.052 241.667V241.779C142.052 241.915 142.082 242.036 142.141 242.141C142.203 242.243 142.288 242.322 142.396 242.378C142.508 242.43 142.638 242.457 142.786 242.457C142.919 242.457 143.036 242.436 143.135 242.396C143.237 242.356 143.33 242.296 143.413 242.215L143.799 242.633C143.684 242.763 143.54 242.864 143.367 242.935C143.193 243.003 142.994 243.037 142.768 243.037ZM144.732 243.037C144.608 243.037 144.501 242.995 144.411 242.912C144.324 242.825 144.281 242.715 144.281 242.582C144.281 242.449 144.324 242.342 144.411 242.262C144.501 242.178 144.608 242.136 144.732 242.136C144.859 242.136 144.965 242.178 145.052 242.262C145.139 242.342 145.182 242.449 145.182 242.582C145.182 242.715 145.139 242.825 145.052 242.912C144.965 242.995 144.859 243.037 144.732 243.037ZM146.775 239.749H147.643L148.317 240.734L148.99 239.749H149.873L148.791 241.305L149.961 243H149.074L148.317 241.922L147.569 243H146.701L147.862 241.337L146.775 239.749ZM151.435 243.037C151.15 243.037 150.899 242.981 150.683 242.87C150.469 242.758 150.303 242.607 150.186 242.415C150.068 242.22 150.009 241.998 150.009 241.751C150.009 241.5 150.067 241.278 150.181 241.086C150.299 240.891 150.458 240.74 150.659 240.631C150.861 240.52 151.088 240.464 151.342 240.464C151.587 240.464 151.807 240.517 152.002 240.622C152.2 240.724 152.356 240.873 152.471 241.068C152.585 241.26 152.643 241.491 152.643 241.76C152.643 241.788 152.641 241.82 152.638 241.857C152.635 241.892 152.632 241.924 152.629 241.955H150.599V241.532H152.248L151.969 241.658C151.969 241.528 151.943 241.415 151.89 241.319C151.838 241.223 151.765 241.148 151.672 241.096C151.579 241.04 151.471 241.012 151.347 241.012C151.223 241.012 151.113 241.04 151.017 241.096C150.924 241.148 150.851 241.224 150.799 241.323C150.746 241.419 150.72 241.534 150.72 241.667V241.779C150.72 241.915 150.749 242.036 150.808 242.141C150.87 242.243 150.955 242.322 151.064 242.378C151.175 242.43 151.305 242.457 151.454 242.457C151.587 242.457 151.703 242.436 151.802 242.396C151.904 242.356 151.997 242.296 152.081 242.215L152.466 242.633C152.352 242.763 152.208 242.864 152.034 242.935C151.861 243.003 151.661 243.037 151.435 243.037ZM153.198 243V240.501H153.918V241.477H155.005V240.501H155.729V243H155.005V242.066H153.918V243H153.198ZM158.141 242.675V241.096H157.324L157.31 241.416C157.304 241.549 157.296 241.676 157.287 241.797C157.277 241.918 157.259 242.028 157.231 242.127C157.206 242.223 157.169 242.305 157.12 242.373C157.07 242.438 157.003 242.483 156.92 242.508L156.205 242.406C156.294 242.406 156.367 242.379 156.423 242.327C156.479 242.271 156.522 242.195 156.553 242.099C156.584 242 156.607 241.888 156.623 241.765C156.638 241.638 156.649 241.504 156.655 241.365L156.688 240.501H158.866V242.675H158.141ZM156.121 243.539V242.406H159.223V243.539H158.55V243H156.794V243.539H156.121ZM160.919 243.056C160.715 243.056 160.529 243.026 160.362 242.967C160.195 242.906 160.049 242.811 159.926 242.684C159.805 242.554 159.71 242.388 159.642 242.187C159.577 241.986 159.545 241.746 159.545 241.467C159.545 241.269 159.562 241.088 159.596 240.924C159.63 240.76 159.681 240.611 159.749 240.478C159.817 240.342 159.904 240.223 160.009 240.12C160.118 240.015 160.243 239.928 160.385 239.86C160.531 239.789 160.695 239.735 160.878 239.698L162.067 239.461L162.164 240.083L161.115 240.292C161.053 240.305 160.981 240.322 160.901 240.343C160.823 240.362 160.745 240.391 160.664 240.432C160.587 240.472 160.514 240.529 160.446 240.603C160.381 240.675 160.328 240.769 160.288 240.887C160.248 241.001 160.227 241.144 160.227 241.314C160.227 241.367 160.229 241.407 160.232 241.435C160.238 241.463 160.243 241.492 160.246 241.523C160.252 241.554 160.255 241.602 160.255 241.667L160.023 241.439C160.091 241.294 160.178 241.17 160.283 241.068C160.392 240.966 160.515 240.888 160.655 240.836C160.797 240.78 160.955 240.752 161.128 240.752C161.364 240.752 161.57 240.8 161.746 240.896C161.926 240.989 162.065 241.121 162.164 241.291C162.263 241.461 162.313 241.655 162.313 241.871C162.313 242.107 162.254 242.314 162.136 242.494C162.019 242.67 161.855 242.808 161.644 242.907C161.437 243.006 161.195 243.056 160.919 243.056ZM160.957 242.494C161.077 242.494 161.184 242.467 161.277 242.415C161.37 242.359 161.441 242.286 161.491 242.197C161.543 242.104 161.57 242 161.57 241.885C161.57 241.774 161.543 241.675 161.491 241.588C161.441 241.501 161.37 241.433 161.277 241.384C161.184 241.334 161.076 241.309 160.952 241.309C160.831 241.309 160.723 241.334 160.627 241.384C160.531 241.43 160.457 241.495 160.404 241.579C160.351 241.662 160.325 241.76 160.325 241.871C160.325 241.986 160.351 242.091 160.404 242.187C160.46 242.28 160.534 242.354 160.627 242.41C160.723 242.466 160.833 242.494 160.957 242.494ZM163.075 243.938C162.945 243.938 162.817 243.918 162.69 243.878C162.563 243.838 162.459 243.782 162.379 243.711L162.643 243.195C162.699 243.245 162.763 243.283 162.834 243.311C162.908 243.339 162.981 243.353 163.052 243.353C163.154 243.353 163.235 243.328 163.294 243.279C163.356 243.232 163.411 243.153 163.461 243.042L163.591 242.735L163.647 242.656L164.543 240.501H165.24L164.111 243.153C164.031 243.355 163.938 243.512 163.832 243.627C163.73 243.742 163.616 243.822 163.489 243.869C163.365 243.915 163.227 243.938 163.075 243.938ZM163.503 243.098L162.388 240.501H163.136L164 242.591L163.503 243.098ZM167.359 243L166.523 241.816L167.113 241.467L168.213 243H167.359ZM165.589 243V240.501H166.314V243H165.589ZM166.1 242.053V241.472H166.973V242.053H166.1ZM167.182 241.834L166.504 241.76L167.382 240.501H168.153L167.182 241.834ZM169.884 243V240.501H172.369V243H171.645V240.933L171.807 241.096H170.442L170.604 240.933V243H169.884ZM174.234 243.037C173.968 243.037 173.731 242.981 173.524 242.87C173.319 242.758 173.157 242.607 173.036 242.415C172.918 242.22 172.86 241.998 172.86 241.751C172.86 241.5 172.918 241.278 173.036 241.086C173.157 240.891 173.319 240.74 173.524 240.631C173.731 240.52 173.968 240.464 174.234 240.464C174.497 240.464 174.733 240.52 174.94 240.631C175.148 240.74 175.31 240.89 175.428 241.082C175.546 241.274 175.604 241.497 175.604 241.751C175.604 241.998 175.546 242.22 175.428 242.415C175.31 242.607 175.148 242.758 174.94 242.87C174.733 242.981 174.497 243.037 174.234 243.037ZM174.234 242.443C174.355 242.443 174.463 242.415 174.559 242.359C174.655 242.303 174.731 242.224 174.787 242.122C174.843 242.017 174.871 241.893 174.871 241.751C174.871 241.605 174.843 241.481 174.787 241.379C174.731 241.277 174.655 241.198 174.559 241.142C174.463 241.086 174.355 241.059 174.234 241.059C174.114 241.059 174.005 241.086 173.909 241.142C173.813 241.198 173.736 241.277 173.677 241.379C173.621 241.481 173.593 241.605 173.593 241.751C173.593 241.893 173.621 242.017 173.677 242.122C173.736 242.224 173.813 242.303 173.909 242.359C174.005 242.415 174.114 242.443 174.234 242.443ZM178.914 243V242.512L178.867 242.406V241.532C178.867 241.378 178.819 241.257 178.723 241.17C178.63 241.083 178.486 241.04 178.291 241.04C178.158 241.04 178.027 241.062 177.896 241.105C177.77 241.145 177.661 241.201 177.571 241.272L177.311 240.766C177.447 240.67 177.612 240.596 177.804 240.543C177.996 240.49 178.191 240.464 178.389 240.464C178.77 240.464 179.065 240.554 179.276 240.734C179.486 240.913 179.592 241.193 179.592 241.574V243H178.914ZM178.152 243.037C177.957 243.037 177.79 243.005 177.65 242.94C177.511 242.872 177.404 242.78 177.33 242.666C177.256 242.551 177.218 242.423 177.218 242.28C177.218 242.131 177.254 242.001 177.325 241.89C177.4 241.779 177.516 241.692 177.674 241.63C177.831 241.565 178.037 241.532 178.291 241.532H178.955V241.955H178.37C178.2 241.955 178.082 241.983 178.017 242.039C177.955 242.094 177.924 242.164 177.924 242.248C177.924 242.34 177.96 242.415 178.031 242.471C178.105 242.523 178.206 242.549 178.333 242.549C178.454 242.549 178.562 242.522 178.658 242.466C178.754 242.407 178.824 242.322 178.867 242.21L178.979 242.545C178.926 242.706 178.83 242.828 178.691 242.912C178.551 242.995 178.372 243.037 178.152 243.037ZM180.221 243V240.501H180.941V241.477H182.028V240.501H182.752V243H182.028V242.066H180.941V243H180.221ZM184.941 243V242.512L184.895 242.406V241.532C184.895 241.378 184.847 241.257 184.751 241.17C184.658 241.083 184.514 241.04 184.319 241.04C184.186 241.04 184.054 241.062 183.924 241.105C183.797 241.145 183.689 241.201 183.599 241.272L183.339 240.766C183.475 240.67 183.639 240.596 183.831 240.543C184.023 240.49 184.218 240.464 184.417 240.464C184.797 240.464 185.093 240.554 185.304 240.734C185.514 240.913 185.619 241.193 185.619 241.574V243H184.941ZM184.18 243.037C183.985 243.037 183.817 243.005 183.678 242.94C183.539 242.872 183.432 242.78 183.358 242.666C183.283 242.551 183.246 242.423 183.246 242.28C183.246 242.131 183.282 242.001 183.353 241.89C183.427 241.779 183.543 241.692 183.701 241.63C183.859 241.565 184.065 241.532 184.319 241.532H184.983V241.955H184.398C184.228 241.955 184.11 241.983 184.045 242.039C183.983 242.094 183.952 242.164 183.952 242.248C183.952 242.34 183.988 242.415 184.059 242.471C184.133 242.523 184.234 242.549 184.361 242.549C184.482 242.549 184.59 242.522 184.686 242.466C184.782 242.407 184.852 242.322 184.895 242.21L185.006 242.545C184.954 242.706 184.858 242.828 184.718 242.912C184.579 242.995 184.4 243.037 184.18 243.037ZM185.933 242.995L185.97 242.401C185.989 242.404 186.007 242.407 186.026 242.41C186.045 242.41 186.062 242.41 186.077 242.41C186.164 242.41 186.232 242.385 186.281 242.336C186.331 242.286 186.368 242.22 186.393 242.136C186.418 242.049 186.435 241.952 186.444 241.844C186.456 241.735 186.466 241.622 186.472 241.504L186.509 240.501H188.645V243H187.921V240.919L188.083 241.096H186.987L187.141 240.91L187.108 241.537C187.099 241.76 187.08 241.964 187.052 242.15C187.028 242.336 186.986 242.497 186.927 242.633C186.868 242.766 186.789 242.87 186.69 242.944C186.591 243.015 186.464 243.051 186.309 243.051C186.254 243.051 186.195 243.046 186.133 243.037C186.071 243.028 186.004 243.014 185.933 242.995ZM189.342 243V240.501H190.062V241.988L191.279 240.501H191.943V243H191.223V241.514L190.011 243H189.342ZM193.462 243.046C193.27 243.046 193.078 243.026 192.886 242.986C192.697 242.946 192.522 242.885 192.361 242.805L192.556 242.299C192.683 242.361 192.821 242.409 192.97 242.443C193.122 242.474 193.275 242.489 193.43 242.489C193.541 242.489 193.637 242.478 193.718 242.457C193.801 242.432 193.865 242.398 193.908 242.354C193.951 242.311 193.973 242.258 193.973 242.197C193.973 242.116 193.939 242.056 193.871 242.015C193.803 241.972 193.704 241.95 193.574 241.95H193.063V241.5H193.513C193.597 241.5 193.668 241.491 193.727 241.472C193.786 241.453 193.829 241.427 193.857 241.393C193.888 241.356 193.903 241.313 193.903 241.263C193.903 241.21 193.885 241.165 193.848 241.128C193.81 241.091 193.756 241.063 193.685 241.045C193.614 241.023 193.524 241.012 193.416 241.012C193.292 241.012 193.163 241.028 193.03 241.059C192.897 241.086 192.761 241.128 192.621 241.184L192.445 240.682C192.609 240.614 192.772 240.56 192.933 240.52C193.094 240.48 193.253 240.458 193.411 240.455C193.643 240.449 193.852 240.473 194.038 240.529C194.224 240.585 194.369 240.665 194.475 240.771C194.583 240.876 194.637 241.004 194.637 241.156C194.637 241.277 194.6 241.385 194.526 241.481C194.454 241.577 194.355 241.653 194.228 241.709C194.102 241.761 193.959 241.788 193.801 241.788L193.82 241.644C194.095 241.644 194.312 241.7 194.47 241.811C194.628 241.919 194.707 242.068 194.707 242.257C194.707 242.418 194.651 242.559 194.54 242.68C194.431 242.797 194.283 242.889 194.094 242.954C193.908 243.015 193.697 243.046 193.462 243.046ZM195.564 243.938C195.434 243.938 195.305 243.918 195.178 243.878C195.051 243.838 194.948 243.782 194.867 243.711L195.132 243.195C195.188 243.245 195.251 243.283 195.322 243.311C195.397 243.339 195.469 243.353 195.541 243.353C195.643 243.353 195.723 243.328 195.782 243.279C195.844 243.232 195.9 243.153 195.949 243.042L196.079 242.735L196.135 242.656L197.031 240.501H197.728L196.6 243.153C196.519 243.355 196.426 243.512 196.321 243.627C196.219 243.742 196.104 243.822 195.977 243.869C195.853 243.915 195.716 243.938 195.564 243.938ZM195.991 243.098L194.876 240.501H195.624L196.488 242.591L195.991 243.098ZM201.111 242.675V241.096H200.294L200.28 241.416C200.274 241.549 200.266 241.676 200.257 241.797C200.248 241.918 200.229 242.028 200.201 242.127C200.176 242.223 200.139 242.305 200.09 242.373C200.04 242.438 199.974 242.483 199.89 242.508L199.175 242.406C199.265 242.406 199.337 242.379 199.393 242.327C199.449 242.271 199.492 242.195 199.523 242.099C199.554 242 199.577 241.888 199.593 241.765C199.608 241.638 199.619 241.504 199.625 241.365L199.658 240.501H201.836V242.675H201.111ZM199.091 243.539V242.406H202.194V243.539H201.52V243H199.765V243.539H199.091ZM204.145 243V242.512L204.099 242.406V241.532C204.099 241.378 204.051 241.257 203.955 241.17C203.862 241.083 203.718 241.04 203.523 241.04C203.39 241.04 203.258 241.062 203.128 241.105C203.001 241.145 202.893 241.201 202.803 241.272L202.543 240.766C202.679 240.67 202.843 240.596 203.035 240.543C203.227 240.49 203.422 240.464 203.62 240.464C204.001 240.464 204.297 240.554 204.507 240.734C204.718 240.913 204.823 241.193 204.823 241.574V243H204.145ZM203.383 243.037C203.188 243.037 203.021 243.005 202.882 242.94C202.742 242.872 202.636 242.78 202.561 242.666C202.487 242.551 202.45 242.423 202.45 242.28C202.45 242.131 202.485 242.001 202.557 241.89C202.631 241.779 202.747 241.692 202.905 241.63C203.063 241.565 203.269 241.532 203.523 241.532H204.187V241.955H203.602C203.431 241.955 203.314 241.983 203.249 242.039C203.187 242.094 203.156 242.164 203.156 242.248C203.156 242.34 203.191 242.415 203.263 242.471C203.337 242.523 203.438 242.549 203.565 242.549C203.685 242.549 203.794 242.522 203.89 242.466C203.986 242.407 204.055 242.322 204.099 242.21L204.21 242.545C204.157 242.706 204.061 242.828 203.922 242.912C203.783 242.995 203.603 243.037 203.383 243.037ZM205.453 243V240.501H206.172V241.477H207.259V240.501H207.984V243H207.259V242.066H206.172V243H205.453ZM208.677 243V240.501H209.397V241.477H210.484V240.501H211.209V243H210.484V242.066H209.397V243H208.677ZM214.475 243V240.501H215.195V243H214.475ZM213.217 241.3C213.545 241.303 213.791 241.378 213.955 241.523C214.122 241.665 214.206 241.868 214.206 242.131C214.206 242.407 214.111 242.622 213.923 242.777C213.734 242.929 213.466 243.005 213.119 243.005L211.902 243V240.501H212.622V241.3H213.217ZM213.054 242.489C213.193 242.492 213.3 242.463 213.374 242.401C213.449 242.339 213.486 242.246 213.486 242.122C213.486 241.998 213.449 241.91 213.374 241.857C213.3 241.802 213.193 241.772 213.054 241.769L212.622 241.765V242.489H213.054ZM215.559 243L216.678 241.532L216.664 241.932L215.592 240.501H216.404L217.082 241.435L216.776 241.444L217.477 240.501H218.248L217.171 241.918V241.528L218.285 243H217.463L216.753 242.006L217.055 242.048L216.349 243H215.559ZM218.902 243.037C218.778 243.037 218.671 242.995 218.582 242.912C218.495 242.825 218.452 242.715 218.452 242.582C218.452 242.449 218.495 242.342 218.582 242.262C218.671 242.178 218.778 242.136 218.902 242.136C219.029 242.136 219.136 242.178 219.223 242.262C219.309 242.342 219.353 242.449 219.353 242.582C219.353 242.715 219.309 242.825 219.223 242.912C219.136 242.995 219.029 243.037 218.902 243.037ZM223.458 239.749H224.21V243H223.458V239.749ZM221.981 243H221.229V239.749H221.981V243ZM223.514 241.667H221.925V241.031H223.514V241.667ZM226.465 243V242.512L226.418 242.406V241.532C226.418 241.378 226.37 241.257 226.274 241.17C226.181 241.083 226.037 241.04 225.842 241.04C225.709 241.04 225.578 241.062 225.448 241.105C225.321 241.145 225.212 241.201 225.122 241.272L224.862 240.766C224.999 240.67 225.163 240.596 225.355 240.543C225.547 240.49 225.742 240.464 225.94 240.464C226.321 240.464 226.616 240.554 226.827 240.734C227.038 240.913 227.143 241.193 227.143 241.574V243H226.465ZM225.703 243.037C225.508 243.037 225.341 243.005 225.201 242.94C225.062 242.872 224.955 242.78 224.881 242.666C224.807 242.551 224.77 242.423 224.77 242.28C224.77 242.131 224.805 242.001 224.876 241.89C224.951 241.779 225.067 241.692 225.225 241.63C225.383 241.565 225.588 241.532 225.842 241.532H226.507V241.955H225.921C225.751 241.955 225.633 241.983 225.568 242.039C225.506 242.094 225.475 242.164 225.475 242.248C225.475 242.34 225.511 242.415 225.582 242.471C225.657 242.523 225.757 242.549 225.884 242.549C226.005 242.549 226.113 242.522 226.209 242.466C226.305 242.407 226.375 242.322 226.418 242.21L226.53 242.545C226.477 242.706 226.381 242.828 226.242 242.912C226.102 242.995 225.923 243.037 225.703 243.037ZM229.347 242.043C229.244 242.099 229.131 242.144 229.008 242.178C228.884 242.212 228.748 242.229 228.599 242.229C228.271 242.229 228.018 242.155 227.842 242.006C227.665 241.854 227.577 241.614 227.577 241.286V240.501H228.302V241.24C228.302 241.395 228.342 241.506 228.422 241.574C228.503 241.639 228.616 241.672 228.761 241.672C228.867 241.672 228.967 241.659 229.063 241.635C229.162 241.61 229.257 241.574 229.347 241.528V242.043ZM229.296 243V240.501H230.02V243H229.296ZM232.211 243V242.512L232.165 242.406V241.532C232.165 241.378 232.117 241.257 232.021 241.17C231.928 241.083 231.784 241.04 231.589 241.04C231.456 241.04 231.324 241.062 231.194 241.105C231.067 241.145 230.959 241.201 230.869 241.272L230.609 240.766C230.745 240.67 230.909 240.596 231.101 240.543C231.293 240.49 231.488 240.464 231.686 240.464C232.067 240.464 232.363 240.554 232.574 240.734C232.784 240.913 232.889 241.193 232.889 241.574V243H232.211ZM231.45 243.037C231.255 243.037 231.087 243.005 230.948 242.94C230.809 242.872 230.702 242.78 230.628 242.666C230.553 242.551 230.516 242.423 230.516 242.28C230.516 242.131 230.552 242.001 230.623 241.89C230.697 241.779 230.813 241.692 230.971 241.63C231.129 241.565 231.335 241.532 231.589 241.532H232.253V241.955H231.668C231.498 241.955 231.38 241.983 231.315 242.039C231.253 242.094 231.222 242.164 231.222 242.248C231.222 242.34 231.258 242.415 231.329 242.471C231.403 242.523 231.504 242.549 231.631 242.549C231.752 242.549 231.86 242.522 231.956 242.466C232.052 242.407 232.122 242.322 232.165 242.21L232.276 242.545C232.224 242.706 232.128 242.828 231.988 242.912C231.849 242.995 231.669 243.037 231.45 243.037ZM233.203 242.995L233.24 242.401C233.259 242.404 233.277 242.407 233.296 242.41C233.314 242.41 233.331 242.41 233.347 242.41C233.434 242.41 233.502 242.385 233.551 242.336C233.601 242.286 233.638 242.22 233.663 242.136C233.688 242.049 233.705 241.952 233.714 241.844C233.726 241.735 233.736 241.622 233.742 241.504L233.779 240.501H235.915V243H235.191V240.919L235.353 241.096H234.257L234.411 240.91L234.378 241.537C234.369 241.76 234.35 241.964 234.322 242.15C234.298 242.336 234.256 242.497 234.197 242.633C234.138 242.766 234.059 242.87 233.96 242.944C233.861 243.015 233.734 243.051 233.579 243.051C233.523 243.051 233.465 243.046 233.403 243.037C233.341 243.028 233.274 243.014 233.203 242.995ZM237.964 241.3C238.292 241.303 238.541 241.378 238.711 241.523C238.885 241.665 238.971 241.868 238.971 242.131C238.971 242.407 238.874 242.622 238.679 242.777C238.484 242.929 238.213 243.005 237.866 243.005L236.612 243V240.501H237.332V241.3H237.964ZM237.801 242.489C237.94 242.492 238.047 242.463 238.122 242.401C238.196 242.339 238.233 242.246 238.233 242.122C238.233 241.998 238.196 241.91 238.122 241.857C238.047 241.802 237.94 241.772 237.801 241.769L237.332 241.765V242.489H237.801ZM239.424 243V240.501H240.144V241.477H241.231V240.501H241.955V243H241.231V242.066H240.144V243H239.424ZM245.222 243V240.501H245.942V243H245.222ZM243.963 241.3C244.292 241.303 244.538 241.378 244.702 241.523C244.869 241.665 244.953 241.868 244.953 242.131C244.953 242.407 244.858 242.622 244.669 242.777C244.48 242.929 244.213 243.005 243.866 243.005L242.649 243V240.501H243.369V241.3H243.963ZM243.801 242.489C243.94 242.492 244.047 242.463 244.121 242.401C244.196 242.339 244.233 242.246 244.233 242.122C244.233 241.998 244.196 241.91 244.121 241.857C244.047 241.802 243.94 241.772 243.801 241.769L243.369 241.765V242.489H243.801ZM246.64 243V240.501H247.36V241.988L248.577 240.501H249.241V243H248.521V241.514L247.309 243H246.64ZM247.894 240.232C247.622 240.232 247.417 240.173 247.281 240.055C247.145 239.935 247.075 239.754 247.072 239.512H247.546C247.549 239.617 247.578 239.701 247.634 239.763C247.69 239.825 247.775 239.856 247.89 239.856C248.001 239.856 248.086 239.825 248.145 239.763C248.207 239.701 248.238 239.617 248.238 239.512H248.721C248.721 239.754 248.651 239.935 248.512 240.055C248.373 240.173 248.167 240.232 247.894 240.232ZM251.592 243.938C251.462 243.938 251.333 243.918 251.207 243.878C251.08 243.838 250.976 243.782 250.895 243.711L251.16 243.195C251.216 243.245 251.279 243.283 251.35 243.311C251.425 243.339 251.498 243.353 251.569 243.353C251.671 243.353 251.751 243.328 251.81 243.279C251.872 243.232 251.928 243.153 251.977 243.042L252.108 242.735L252.163 242.656L253.06 240.501H253.756L252.628 243.153C252.547 243.355 252.454 243.512 252.349 243.627C252.247 243.742 252.132 243.822 252.005 243.869C251.881 243.915 251.744 243.938 251.592 243.938ZM252.019 243.098L250.905 240.501H251.652L252.516 242.591L252.019 243.098ZM255.578 243.037C255.368 243.037 255.183 242.991 255.025 242.898C254.868 242.805 254.744 242.664 254.654 242.475C254.567 242.283 254.524 242.042 254.524 241.751C254.524 241.456 254.566 241.215 254.649 241.026C254.733 240.837 254.854 240.696 255.012 240.603C255.169 240.511 255.358 240.464 255.578 240.464C255.813 240.464 256.024 240.518 256.21 240.627C256.399 240.732 256.547 240.881 256.656 241.073C256.767 241.265 256.823 241.491 256.823 241.751C256.823 242.014 256.767 242.241 256.656 242.433C256.547 242.625 256.399 242.774 256.21 242.879C256.024 242.985 255.813 243.037 255.578 243.037ZM254.101 243.901V240.501H254.793V241.012L254.779 241.755L254.826 242.494V243.901H254.101ZM255.453 242.443C255.573 242.443 255.68 242.415 255.773 242.359C255.869 242.303 255.945 242.224 256.001 242.122C256.06 242.017 256.089 241.893 256.089 241.751C256.089 241.605 256.06 241.481 256.001 241.379C255.945 241.277 255.869 241.198 255.773 241.142C255.68 241.086 255.573 241.059 255.453 241.059C255.332 241.059 255.224 241.086 255.128 241.142C255.032 241.198 254.956 241.277 254.9 241.379C254.844 241.481 254.816 241.605 254.816 241.751C254.816 241.893 254.844 242.017 254.9 242.122C254.956 242.224 255.032 242.303 255.128 242.359C255.224 242.415 255.332 242.443 255.453 242.443ZM258.501 243.037C258.235 243.037 257.998 242.981 257.79 242.87C257.586 242.758 257.424 242.607 257.303 242.415C257.185 242.22 257.126 241.998 257.126 241.751C257.126 241.5 257.185 241.278 257.303 241.086C257.424 240.891 257.586 240.74 257.79 240.631C257.998 240.52 258.235 240.464 258.501 240.464C258.764 240.464 259 240.52 259.207 240.631C259.414 240.74 259.577 240.89 259.695 241.082C259.812 241.274 259.871 241.497 259.871 241.751C259.871 241.998 259.812 242.22 259.695 242.415C259.577 242.607 259.414 242.758 259.207 242.87C259 242.981 258.764 243.037 258.501 243.037ZM258.501 242.443C258.622 242.443 258.73 242.415 258.826 242.359C258.922 242.303 258.998 242.224 259.054 242.122C259.109 242.017 259.137 241.893 259.137 241.751C259.137 241.605 259.109 241.481 259.054 241.379C258.998 241.277 258.922 241.198 258.826 241.142C258.73 241.086 258.622 241.059 258.501 241.059C258.38 241.059 258.272 241.086 258.176 241.142C258.08 241.198 258.003 241.277 257.944 241.379C257.888 241.481 257.86 241.605 257.86 241.751C257.86 241.893 257.888 242.017 257.944 242.122C258.003 242.224 258.08 242.303 258.176 242.359C258.272 242.415 258.38 242.443 258.501 242.443ZM260.369 243V240.501H261.647C261.959 240.501 262.204 240.559 262.381 240.673C262.557 240.785 262.645 240.943 262.645 241.147C262.645 241.351 262.562 241.512 262.394 241.63C262.23 241.744 262.012 241.802 261.74 241.802L261.814 241.635C262.117 241.635 262.343 241.69 262.492 241.802C262.644 241.913 262.72 242.076 262.72 242.289C262.72 242.509 262.636 242.683 262.469 242.81C262.302 242.937 262.046 243 261.702 243H260.369ZM261.034 242.508H261.642C261.775 242.508 261.874 242.486 261.939 242.443C262.007 242.396 262.041 242.327 262.041 242.234C262.041 242.138 262.011 242.068 261.949 242.025C261.887 241.978 261.789 241.955 261.656 241.955H261.034V242.508ZM261.034 241.528H261.582C261.709 241.528 261.803 241.504 261.865 241.458C261.93 241.412 261.963 241.345 261.963 241.258C261.963 241.169 261.93 241.102 261.865 241.059C261.803 241.015 261.709 240.994 261.582 240.994H261.034V241.528ZM264.48 243.037C264.195 243.037 263.944 242.981 263.728 242.87C263.514 242.758 263.348 242.607 263.231 242.415C263.113 242.22 263.054 241.998 263.054 241.751C263.054 241.5 263.112 241.278 263.226 241.086C263.344 240.891 263.503 240.74 263.705 240.631C263.906 240.52 264.133 240.464 264.387 240.464C264.632 240.464 264.852 240.517 265.047 240.622C265.245 240.724 265.401 240.873 265.516 241.068C265.63 241.26 265.688 241.491 265.688 241.76C265.688 241.788 265.686 241.82 265.683 241.857C265.68 241.892 265.677 241.924 265.674 241.955H263.644V241.532H265.293L265.014 241.658C265.014 241.528 264.988 241.415 264.935 241.319C264.883 241.223 264.81 241.148 264.717 241.096C264.624 241.04 264.516 241.012 264.392 241.012C264.268 241.012 264.158 241.04 264.062 241.096C263.969 241.148 263.896 241.224 263.844 241.323C263.791 241.419 263.765 241.534 263.765 241.667V241.779C263.765 241.915 263.794 242.036 263.853 242.141C263.915 242.243 264 242.322 264.109 242.378C264.22 242.43 264.35 242.457 264.499 242.457C264.632 242.457 264.748 242.436 264.847 242.396C264.949 242.356 265.042 242.296 265.126 242.215L265.511 242.633C265.397 242.763 265.253 242.864 265.079 242.935C264.906 243.003 264.706 243.037 264.48 243.037ZM266.243 243V240.501H266.963V241.477H268.05V240.501H268.774V243H268.05V242.066H266.963V243H266.243ZM270.819 241.3C271.148 241.303 271.397 241.378 271.567 241.523C271.741 241.665 271.827 241.868 271.827 242.131C271.827 242.407 271.73 242.622 271.535 242.777C271.34 242.929 271.069 243.005 270.722 243.005L269.468 243V240.501H270.188V241.3H270.819ZM270.657 242.489C270.796 242.492 270.903 242.463 270.977 242.401C271.052 242.339 271.089 242.246 271.089 242.122C271.089 241.998 271.052 241.91 270.977 241.857C270.903 241.802 270.796 241.772 270.657 241.769L270.188 241.765V242.489H270.657Z" fill="#D8D8D8"/>
</svg>
