<svg width="318" height="167" viewBox="0 0 318 167" fill="none" xmlns="http://www.w3.org/2000/svg">
<rect width="318" height="167" fill="white"/>
<path d="M139.385 156V152.749H140.862C141.215 152.749 141.527 152.817 141.796 152.953C142.065 153.086 142.276 153.274 142.428 153.515C142.579 153.757 142.655 154.043 142.655 154.374C142.655 154.703 142.579 154.989 142.428 155.234C142.276 155.475 142.065 155.664 141.796 155.8C141.527 155.933 141.215 156 140.862 156H139.385ZM140.138 155.382H140.825C141.042 155.382 141.229 155.342 141.387 155.262C141.548 155.178 141.672 155.06 141.759 154.909C141.849 154.757 141.893 154.579 141.893 154.374C141.893 154.167 141.849 153.989 141.759 153.84C141.672 153.689 141.548 153.573 141.387 153.492C141.229 153.408 141.042 153.367 140.825 153.367H140.138V155.382ZM144.704 156V155.512L144.658 155.406V154.532C144.658 154.378 144.61 154.257 144.514 154.17C144.421 154.083 144.277 154.04 144.082 154.04C143.949 154.04 143.817 154.062 143.687 154.105C143.56 154.145 143.452 154.201 143.362 154.272L143.102 153.766C143.238 153.67 143.402 153.596 143.594 153.543C143.786 153.49 143.981 153.464 144.179 153.464C144.56 153.464 144.856 153.554 145.066 153.734C145.277 153.913 145.382 154.193 145.382 154.574V156H144.704ZM143.942 156.037C143.747 156.037 143.58 156.005 143.441 155.94C143.302 155.872 143.195 155.78 143.12 155.666C143.046 155.551 143.009 155.423 143.009 155.28C143.009 155.131 143.045 155.001 143.116 154.89C143.19 154.779 143.306 154.692 143.464 154.63C143.622 154.565 143.828 154.532 144.082 154.532H144.746V154.955H144.161C143.99 154.955 143.873 154.983 143.808 155.039C143.746 155.094 143.715 155.164 143.715 155.248C143.715 155.34 143.751 155.415 143.822 155.471C143.896 155.523 143.997 155.549 144.124 155.549C144.244 155.549 144.353 155.522 144.449 155.466C144.545 155.407 144.614 155.322 144.658 155.21L144.769 155.545C144.717 155.706 144.621 155.828 144.481 155.912C144.342 155.995 144.162 156.037 143.942 156.037ZM147.06 156.037C146.766 156.037 146.537 155.963 146.372 155.814C146.208 155.663 146.126 155.438 146.126 155.141V152.949H146.851V155.131C146.851 155.237 146.879 155.319 146.934 155.378C146.99 155.433 147.066 155.461 147.162 155.461C147.277 155.461 147.374 155.43 147.455 155.368L147.65 155.879C147.575 155.932 147.486 155.972 147.38 156C147.278 156.025 147.171 156.037 147.06 156.037ZM145.741 154.114V153.557H147.473V154.114H145.741ZM149.589 156V155.512L149.543 155.406V154.532C149.543 154.378 149.495 154.257 149.399 154.17C149.306 154.083 149.162 154.04 148.967 154.04C148.834 154.04 148.702 154.062 148.572 154.105C148.445 154.145 148.337 154.201 148.247 154.272L147.987 153.766C148.123 153.67 148.287 153.596 148.479 153.543C148.671 153.49 148.866 153.464 149.064 153.464C149.445 153.464 149.741 153.554 149.951 153.734C150.162 153.913 150.267 154.193 150.267 154.574V156H149.589ZM148.827 156.037C148.632 156.037 148.465 156.005 148.326 155.94C148.186 155.872 148.08 155.78 148.005 155.666C147.931 155.551 147.894 155.423 147.894 155.28C147.894 155.131 147.929 155.001 148.001 154.89C148.075 154.779 148.191 154.692 148.349 154.63C148.507 154.565 148.713 154.532 148.967 154.532H149.631V154.955H149.046C148.875 154.955 148.758 154.983 148.693 155.039C148.631 155.094 148.6 155.164 148.6 155.248C148.6 155.34 148.635 155.415 148.707 155.471C148.781 155.523 148.882 155.549 149.008 155.549C149.129 155.549 149.238 155.522 149.334 155.466C149.43 155.407 149.499 155.322 149.543 155.21L149.654 155.545C149.601 155.706 149.505 155.828 149.366 155.912C149.227 155.995 149.047 156.037 148.827 156.037ZM153.845 156.056C153.594 156.056 153.361 156.015 153.144 155.935C152.93 155.851 152.744 155.734 152.586 155.582C152.429 155.43 152.305 155.252 152.215 155.048C152.128 154.844 152.085 154.619 152.085 154.374C152.085 154.13 152.128 153.905 152.215 153.701C152.305 153.497 152.429 153.319 152.586 153.167C152.747 153.015 152.935 152.899 153.148 152.819C153.362 152.735 153.596 152.693 153.85 152.693C154.132 152.693 154.385 152.743 154.611 152.842C154.841 152.938 155.033 153.08 155.187 153.269L154.704 153.715C154.593 153.588 154.469 153.494 154.333 153.432C154.197 153.367 154.048 153.334 153.887 153.334C153.735 153.334 153.596 153.359 153.469 153.408C153.342 153.458 153.232 153.529 153.139 153.622C153.046 153.715 152.974 153.825 152.921 153.952C152.871 154.079 152.847 154.22 152.847 154.374C152.847 154.529 152.871 154.67 152.921 154.797C152.974 154.924 153.046 155.034 153.139 155.127C153.232 155.22 153.342 155.291 153.469 155.34C153.596 155.39 153.735 155.415 153.887 155.415C154.048 155.415 154.197 155.384 154.333 155.322C154.469 155.257 154.593 155.159 154.704 155.029L155.187 155.475C155.033 155.664 154.841 155.808 154.611 155.907C154.385 156.006 154.13 156.056 153.845 156.056ZM156.64 156.037C156.432 156.037 156.246 155.997 156.082 155.916C155.921 155.836 155.796 155.714 155.706 155.549C155.616 155.382 155.571 155.17 155.571 154.913V153.501H156.296V154.806C156.296 155.014 156.339 155.167 156.426 155.266C156.516 155.362 156.641 155.41 156.802 155.41C156.914 155.41 157.013 155.387 157.1 155.34C157.186 155.291 157.254 155.217 157.304 155.118C157.353 155.015 157.378 154.888 157.378 154.737V153.501H158.103V156H157.415V155.313L157.541 155.512C157.457 155.686 157.333 155.817 157.169 155.907C157.008 155.994 156.832 156.037 156.64 156.037ZM158.774 156V152.554H159.498V156H158.774ZM161.379 156.037C161.084 156.037 160.855 155.963 160.691 155.814C160.527 155.663 160.445 155.438 160.445 155.141V152.949H161.17V155.131C161.17 155.237 161.198 155.319 161.253 155.378C161.309 155.433 161.385 155.461 161.481 155.461C161.595 155.461 161.693 155.43 161.773 155.368L161.968 155.879C161.894 155.932 161.804 155.972 161.699 156C161.597 156.025 161.49 156.037 161.379 156.037ZM160.06 154.114V153.557H161.792V154.114H160.06ZM163.429 156.037C163.222 156.037 163.036 155.997 162.872 155.916C162.711 155.836 162.586 155.714 162.496 155.549C162.406 155.382 162.361 155.17 162.361 154.913V153.501H163.086V154.806C163.086 155.014 163.129 155.167 163.216 155.266C163.306 155.362 163.431 155.41 163.592 155.41C163.704 155.41 163.803 155.387 163.889 155.34C163.976 155.291 164.044 155.217 164.094 155.118C164.143 155.015 164.168 154.888 164.168 154.737V153.501H164.892V156H164.205V155.313L164.331 155.512C164.247 155.686 164.123 155.817 163.959 155.907C163.798 155.994 163.621 156.037 163.429 156.037ZM165.564 156V153.501H166.256V154.207L166.158 154.003C166.233 153.826 166.352 153.693 166.516 153.603C166.68 153.511 166.88 153.464 167.115 153.464V154.133C167.084 154.13 167.056 154.128 167.031 154.128C167.007 154.125 166.98 154.124 166.952 154.124C166.754 154.124 166.593 154.181 166.469 154.295C166.349 154.407 166.288 154.582 166.288 154.82V156H165.564ZM168.768 156.037C168.483 156.037 168.232 155.981 168.015 155.87C167.802 155.758 167.636 155.607 167.518 155.415C167.401 155.22 167.342 154.998 167.342 154.751C167.342 154.5 167.399 154.278 167.514 154.086C167.631 153.891 167.791 153.74 167.992 153.631C168.193 153.52 168.421 153.464 168.675 153.464C168.919 153.464 169.139 153.517 169.334 153.622C169.532 153.724 169.689 153.873 169.803 154.068C169.918 154.26 169.975 154.491 169.975 154.76C169.975 154.788 169.974 154.82 169.971 154.857C169.968 154.892 169.964 154.924 169.961 154.955H167.932V154.532H169.58L169.302 154.658C169.302 154.528 169.275 154.415 169.223 154.319C169.17 154.223 169.097 154.148 169.005 154.096C168.912 154.04 168.803 154.012 168.679 154.012C168.556 154.012 168.446 154.04 168.35 154.096C168.257 154.148 168.184 154.224 168.131 154.323C168.079 154.419 168.052 154.534 168.052 154.667V154.779C168.052 154.915 168.082 155.036 168.141 155.141C168.203 155.243 168.288 155.322 168.396 155.378C168.508 155.43 168.638 155.457 168.786 155.457C168.919 155.457 169.036 155.436 169.135 155.396C169.237 155.356 169.33 155.296 169.413 155.215L169.799 155.633C169.684 155.763 169.54 155.864 169.367 155.935C169.193 156.003 168.994 156.037 168.768 156.037ZM170.732 156.037C170.608 156.037 170.501 155.995 170.411 155.912C170.324 155.825 170.281 155.715 170.281 155.582C170.281 155.449 170.324 155.342 170.411 155.262C170.501 155.178 170.608 155.136 170.732 155.136C170.859 155.136 170.965 155.178 171.052 155.262C171.139 155.342 171.182 155.449 171.182 155.582C171.182 155.715 171.139 155.825 171.052 155.912C170.965 155.995 170.859 156.037 170.732 156.037ZM172.775 152.749H173.643L174.317 153.734L174.99 152.749H175.873L174.791 154.305L175.961 156H175.074L174.317 154.922L173.569 156H172.701L173.862 154.337L172.775 152.749ZM177.435 156.037C177.15 156.037 176.899 155.981 176.683 155.87C176.469 155.758 176.303 155.607 176.186 155.415C176.068 155.22 176.009 154.998 176.009 154.751C176.009 154.5 176.067 154.278 176.181 154.086C176.299 153.891 176.458 153.74 176.659 153.631C176.861 153.52 177.088 153.464 177.342 153.464C177.587 153.464 177.807 153.517 178.002 153.622C178.2 153.724 178.356 153.873 178.471 154.068C178.585 154.26 178.643 154.491 178.643 154.76C178.643 154.788 178.641 154.82 178.638 154.857C178.635 154.892 178.632 154.924 178.629 154.955H176.599V154.532H178.248L177.969 154.658C177.969 154.528 177.943 154.415 177.89 154.319C177.838 154.223 177.765 154.148 177.672 154.096C177.579 154.04 177.471 154.012 177.347 154.012C177.223 154.012 177.113 154.04 177.017 154.096C176.924 154.148 176.851 154.224 176.799 154.323C176.746 154.419 176.72 154.534 176.72 154.667V154.779C176.72 154.915 176.749 155.036 176.808 155.141C176.87 155.243 176.955 155.322 177.064 155.378C177.175 155.43 177.305 155.457 177.454 155.457C177.587 155.457 177.703 155.436 177.802 155.396C177.904 155.356 177.997 155.296 178.081 155.215L178.466 155.633C178.352 155.763 178.208 155.864 178.034 155.935C177.861 156.003 177.661 156.037 177.435 156.037ZM179.198 156V153.501H179.918V154.477H181.005V153.501H181.729V156H181.005V155.066H179.918V156H179.198ZM184.141 155.675V154.096H183.324L183.31 154.416C183.304 154.549 183.296 154.676 183.287 154.797C183.277 154.918 183.259 155.028 183.231 155.127C183.206 155.223 183.169 155.305 183.12 155.373C183.07 155.438 183.003 155.483 182.92 155.508L182.205 155.406C182.294 155.406 182.367 155.379 182.423 155.327C182.479 155.271 182.522 155.195 182.553 155.099C182.584 155 182.607 154.888 182.623 154.765C182.638 154.638 182.649 154.504 182.655 154.365L182.688 153.501H184.866V155.675H184.141ZM182.121 156.539V155.406H185.223V156.539H184.55V156H182.794V156.539H182.121ZM186.919 156.056C186.715 156.056 186.529 156.026 186.362 155.967C186.195 155.906 186.049 155.811 185.926 155.684C185.805 155.554 185.71 155.388 185.642 155.187C185.577 154.986 185.545 154.746 185.545 154.467C185.545 154.269 185.562 154.088 185.596 153.924C185.63 153.76 185.681 153.611 185.749 153.478C185.817 153.342 185.904 153.223 186.009 153.12C186.118 153.015 186.243 152.928 186.385 152.86C186.531 152.789 186.695 152.735 186.878 152.698L188.067 152.461L188.164 153.083L187.115 153.292C187.053 153.305 186.981 153.322 186.901 153.343C186.823 153.362 186.745 153.391 186.664 153.432C186.587 153.472 186.514 153.529 186.446 153.603C186.381 153.675 186.328 153.769 186.288 153.887C186.248 154.001 186.227 154.144 186.227 154.314C186.227 154.367 186.229 154.407 186.232 154.435C186.238 154.463 186.243 154.492 186.246 154.523C186.252 154.554 186.255 154.602 186.255 154.667L186.023 154.439C186.091 154.294 186.178 154.17 186.283 154.068C186.392 153.966 186.515 153.888 186.655 153.836C186.797 153.78 186.955 153.752 187.128 153.752C187.364 153.752 187.57 153.8 187.746 153.896C187.926 153.989 188.065 154.121 188.164 154.291C188.263 154.461 188.313 154.655 188.313 154.871C188.313 155.107 188.254 155.314 188.136 155.494C188.019 155.67 187.855 155.808 187.644 155.907C187.437 156.006 187.195 156.056 186.919 156.056ZM186.957 155.494C187.077 155.494 187.184 155.467 187.277 155.415C187.37 155.359 187.441 155.286 187.491 155.197C187.543 155.104 187.57 155 187.57 154.885C187.57 154.774 187.543 154.675 187.491 154.588C187.441 154.501 187.37 154.433 187.277 154.384C187.184 154.334 187.076 154.309 186.952 154.309C186.831 154.309 186.723 154.334 186.627 154.384C186.531 154.43 186.457 154.495 186.404 154.579C186.351 154.662 186.325 154.76 186.325 154.871C186.325 154.986 186.351 155.091 186.404 155.187C186.46 155.28 186.534 155.354 186.627 155.41C186.723 155.466 186.833 155.494 186.957 155.494ZM189.075 156.938C188.945 156.938 188.817 156.918 188.69 156.878C188.563 156.838 188.459 156.782 188.379 156.711L188.643 156.195C188.699 156.245 188.763 156.283 188.834 156.311C188.908 156.339 188.981 156.353 189.052 156.353C189.154 156.353 189.235 156.328 189.294 156.279C189.356 156.232 189.411 156.153 189.461 156.042L189.591 155.735L189.647 155.656L190.543 153.501H191.24L190.111 156.153C190.031 156.355 189.938 156.512 189.832 156.627C189.73 156.742 189.616 156.822 189.489 156.869C189.365 156.915 189.227 156.938 189.075 156.938ZM189.503 156.098L188.388 153.501H189.136L190 155.591L189.503 156.098ZM193.359 156L192.523 154.816L193.113 154.467L194.213 156H193.359ZM191.589 156V153.501H192.314V156H191.589ZM192.1 155.053V154.472H192.973V155.053H192.1ZM193.182 154.834L192.504 154.76L193.382 153.501H194.153L193.182 154.834ZM195.884 156V153.501H198.369V156H197.645V153.933L197.807 154.096H196.442L196.604 153.933V156H195.884ZM200.234 156.037C199.968 156.037 199.731 155.981 199.524 155.87C199.319 155.758 199.157 155.607 199.036 155.415C198.918 155.22 198.86 154.998 198.86 154.751C198.86 154.5 198.918 154.278 199.036 154.086C199.157 153.891 199.319 153.74 199.524 153.631C199.731 153.52 199.968 153.464 200.234 153.464C200.497 153.464 200.733 153.52 200.94 153.631C201.148 153.74 201.31 153.89 201.428 154.082C201.546 154.274 201.604 154.497 201.604 154.751C201.604 154.998 201.546 155.22 201.428 155.415C201.31 155.607 201.148 155.758 200.94 155.87C200.733 155.981 200.497 156.037 200.234 156.037ZM200.234 155.443C200.355 155.443 200.463 155.415 200.559 155.359C200.655 155.303 200.731 155.224 200.787 155.122C200.843 155.017 200.871 154.893 200.871 154.751C200.871 154.605 200.843 154.481 200.787 154.379C200.731 154.277 200.655 154.198 200.559 154.142C200.463 154.086 200.355 154.059 200.234 154.059C200.114 154.059 200.005 154.086 199.909 154.142C199.813 154.198 199.736 154.277 199.677 154.379C199.621 154.481 199.593 154.605 199.593 154.751C199.593 154.893 199.621 155.017 199.677 155.122C199.736 155.224 199.813 155.303 199.909 155.359C200.005 155.415 200.114 155.443 200.234 155.443ZM204.914 156V155.512L204.867 155.406V154.532C204.867 154.378 204.819 154.257 204.723 154.17C204.63 154.083 204.486 154.04 204.291 154.04C204.158 154.04 204.027 154.062 203.896 154.105C203.77 154.145 203.661 154.201 203.571 154.272L203.311 153.766C203.447 153.67 203.612 153.596 203.804 153.543C203.996 153.49 204.191 153.464 204.389 153.464C204.77 153.464 205.065 153.554 205.276 153.734C205.486 153.913 205.592 154.193 205.592 154.574V156H204.914ZM204.152 156.037C203.957 156.037 203.79 156.005 203.65 155.94C203.511 155.872 203.404 155.78 203.33 155.666C203.256 155.551 203.218 155.423 203.218 155.28C203.218 155.131 203.254 155.001 203.325 154.89C203.4 154.779 203.516 154.692 203.674 154.63C203.831 154.565 204.037 154.532 204.291 154.532H204.955V154.955H204.37C204.2 154.955 204.082 154.983 204.017 155.039C203.955 155.094 203.924 155.164 203.924 155.248C203.924 155.34 203.96 155.415 204.031 155.471C204.105 155.523 204.206 155.549 204.333 155.549C204.454 155.549 204.562 155.522 204.658 155.466C204.754 155.407 204.824 155.322 204.867 155.21L204.979 155.545C204.926 155.706 204.83 155.828 204.691 155.912C204.551 155.995 204.372 156.037 204.152 156.037ZM206.221 156V153.501H206.941V154.477H208.028V153.501H208.752V156H208.028V155.066H206.941V156H206.221ZM210.941 156V155.512L210.895 155.406V154.532C210.895 154.378 210.847 154.257 210.751 154.17C210.658 154.083 210.514 154.04 210.319 154.04C210.186 154.04 210.054 154.062 209.924 154.105C209.797 154.145 209.689 154.201 209.599 154.272L209.339 153.766C209.475 153.67 209.639 153.596 209.831 153.543C210.023 153.49 210.218 153.464 210.417 153.464C210.797 153.464 211.093 153.554 211.304 153.734C211.514 153.913 211.619 154.193 211.619 154.574V156H210.941ZM210.18 156.037C209.985 156.037 209.817 156.005 209.678 155.94C209.539 155.872 209.432 155.78 209.358 155.666C209.283 155.551 209.246 155.423 209.246 155.28C209.246 155.131 209.282 155.001 209.353 154.89C209.427 154.779 209.543 154.692 209.701 154.63C209.859 154.565 210.065 154.532 210.319 154.532H210.983V154.955H210.398C210.228 154.955 210.11 154.983 210.045 155.039C209.983 155.094 209.952 155.164 209.952 155.248C209.952 155.34 209.988 155.415 210.059 155.471C210.133 155.523 210.234 155.549 210.361 155.549C210.482 155.549 210.59 155.522 210.686 155.466C210.782 155.407 210.852 155.322 210.895 155.21L211.006 155.545C210.954 155.706 210.858 155.828 210.718 155.912C210.579 155.995 210.4 156.037 210.18 156.037ZM211.933 155.995L211.97 155.401C211.989 155.404 212.007 155.407 212.026 155.41C212.045 155.41 212.062 155.41 212.077 155.41C212.164 155.41 212.232 155.385 212.281 155.336C212.331 155.286 212.368 155.22 212.393 155.136C212.418 155.049 212.435 154.952 212.444 154.844C212.456 154.735 212.466 154.622 212.472 154.504L212.509 153.501H214.645V156H213.921V153.919L214.083 154.096H212.987L213.141 153.91L213.108 154.537C213.099 154.76 213.08 154.964 213.052 155.15C213.028 155.336 212.986 155.497 212.927 155.633C212.868 155.766 212.789 155.87 212.69 155.944C212.591 156.015 212.464 156.051 212.309 156.051C212.254 156.051 212.195 156.046 212.133 156.037C212.071 156.028 212.004 156.014 211.933 155.995ZM215.342 156V153.501H216.062V154.988L217.279 153.501H217.943V156H217.223V154.514L216.011 156H215.342ZM219.462 156.046C219.27 156.046 219.078 156.026 218.886 155.986C218.697 155.946 218.522 155.885 218.361 155.805L218.556 155.299C218.683 155.361 218.821 155.409 218.97 155.443C219.122 155.474 219.275 155.489 219.43 155.489C219.541 155.489 219.637 155.478 219.718 155.457C219.801 155.432 219.865 155.398 219.908 155.354C219.951 155.311 219.973 155.258 219.973 155.197C219.973 155.116 219.939 155.056 219.871 155.015C219.803 154.972 219.704 154.95 219.574 154.95H219.063V154.5H219.513C219.597 154.5 219.668 154.491 219.727 154.472C219.786 154.453 219.829 154.427 219.857 154.393C219.888 154.356 219.903 154.313 219.903 154.263C219.903 154.21 219.885 154.165 219.848 154.128C219.81 154.091 219.756 154.063 219.685 154.045C219.614 154.023 219.524 154.012 219.416 154.012C219.292 154.012 219.163 154.028 219.03 154.059C218.897 154.086 218.761 154.128 218.621 154.184L218.445 153.682C218.609 153.614 218.772 153.56 218.933 153.52C219.094 153.48 219.253 153.458 219.411 153.455C219.643 153.449 219.852 153.473 220.038 153.529C220.224 153.585 220.369 153.665 220.475 153.771C220.583 153.876 220.637 154.004 220.637 154.156C220.637 154.277 220.6 154.385 220.526 154.481C220.454 154.577 220.355 154.653 220.228 154.709C220.102 154.761 219.959 154.788 219.801 154.788L219.82 154.644C220.095 154.644 220.312 154.7 220.47 154.811C220.628 154.919 220.707 155.068 220.707 155.257C220.707 155.418 220.651 155.559 220.54 155.68C220.431 155.797 220.283 155.889 220.094 155.954C219.908 156.015 219.697 156.046 219.462 156.046ZM221.564 156.938C221.434 156.938 221.305 156.918 221.178 156.878C221.051 156.838 220.948 156.782 220.867 156.711L221.132 156.195C221.188 156.245 221.251 156.283 221.322 156.311C221.397 156.339 221.469 156.353 221.541 156.353C221.643 156.353 221.723 156.328 221.782 156.279C221.844 156.232 221.9 156.153 221.949 156.042L222.079 155.735L222.135 155.656L223.031 153.501H223.728L222.6 156.153C222.519 156.355 222.426 156.512 222.321 156.627C222.219 156.742 222.104 156.822 221.977 156.869C221.853 156.915 221.716 156.938 221.564 156.938ZM221.991 156.098L220.876 153.501H221.624L222.488 155.591L221.991 156.098ZM227.111 155.675V154.096H226.294L226.28 154.416C226.274 154.549 226.266 154.676 226.257 154.797C226.248 154.918 226.229 155.028 226.201 155.127C226.176 155.223 226.139 155.305 226.09 155.373C226.04 155.438 225.974 155.483 225.89 155.508L225.175 155.406C225.265 155.406 225.337 155.379 225.393 155.327C225.449 155.271 225.492 155.195 225.523 155.099C225.554 155 225.577 154.888 225.593 154.765C225.608 154.638 225.619 154.504 225.625 154.365L225.658 153.501H227.836V155.675H227.111ZM225.091 156.539V155.406H228.194V156.539H227.52V156H225.765V156.539H225.091ZM230.145 156V155.512L230.099 155.406V154.532C230.099 154.378 230.051 154.257 229.955 154.17C229.862 154.083 229.718 154.04 229.523 154.04C229.39 154.04 229.258 154.062 229.128 154.105C229.001 154.145 228.893 154.201 228.803 154.272L228.543 153.766C228.679 153.67 228.843 153.596 229.035 153.543C229.227 153.49 229.422 153.464 229.62 153.464C230.001 153.464 230.297 153.554 230.507 153.734C230.718 153.913 230.823 154.193 230.823 154.574V156H230.145ZM229.383 156.037C229.188 156.037 229.021 156.005 228.882 155.94C228.742 155.872 228.636 155.78 228.561 155.666C228.487 155.551 228.45 155.423 228.45 155.28C228.45 155.131 228.485 155.001 228.557 154.89C228.631 154.779 228.747 154.692 228.905 154.63C229.063 154.565 229.269 154.532 229.523 154.532H230.187V154.955H229.602C229.431 154.955 229.314 154.983 229.249 155.039C229.187 155.094 229.156 155.164 229.156 155.248C229.156 155.34 229.191 155.415 229.263 155.471C229.337 155.523 229.438 155.549 229.565 155.549C229.685 155.549 229.794 155.522 229.89 155.466C229.986 155.407 230.055 155.322 230.099 155.21L230.21 155.545C230.157 155.706 230.061 155.828 229.922 155.912C229.783 155.995 229.603 156.037 229.383 156.037ZM231.453 156V153.501H232.172V154.477H233.259V153.501H233.984V156H233.259V155.066H232.172V156H231.453ZM234.677 156V153.501H235.397V154.477H236.484V153.501H237.209V156H236.484V155.066H235.397V156H234.677ZM240.475 156V153.501H241.195V156H240.475ZM239.217 154.3C239.545 154.303 239.791 154.378 239.955 154.523C240.122 154.665 240.206 154.868 240.206 155.131C240.206 155.407 240.111 155.622 239.923 155.777C239.734 155.929 239.466 156.005 239.119 156.005L237.902 156V153.501H238.622V154.3H239.217ZM239.054 155.489C239.193 155.492 239.3 155.463 239.374 155.401C239.449 155.339 239.486 155.246 239.486 155.122C239.486 154.998 239.449 154.91 239.374 154.857C239.3 154.802 239.193 154.772 239.054 154.769L238.622 154.765V155.489H239.054ZM241.559 156L242.678 154.532L242.664 154.932L241.592 153.501H242.404L243.082 154.435L242.776 154.444L243.477 153.501H244.248L243.171 154.918V154.528L244.285 156H243.463L242.753 155.006L243.055 155.048L242.349 156H241.559ZM244.902 156.037C244.778 156.037 244.671 155.995 244.582 155.912C244.495 155.825 244.452 155.715 244.452 155.582C244.452 155.449 244.495 155.342 244.582 155.262C244.671 155.178 244.778 155.136 244.902 155.136C245.029 155.136 245.136 155.178 245.223 155.262C245.309 155.342 245.353 155.449 245.353 155.582C245.353 155.715 245.309 155.825 245.223 155.912C245.136 155.995 245.029 156.037 244.902 156.037ZM249.458 152.749H250.21V156H249.458V152.749ZM247.981 156H247.229V152.749H247.981V156ZM249.514 154.667H247.925V154.031H249.514V154.667ZM252.465 156V155.512L252.418 155.406V154.532C252.418 154.378 252.37 154.257 252.274 154.17C252.181 154.083 252.037 154.04 251.842 154.04C251.709 154.04 251.578 154.062 251.448 154.105C251.321 154.145 251.212 154.201 251.122 154.272L250.862 153.766C250.999 153.67 251.163 153.596 251.355 153.543C251.547 153.49 251.742 153.464 251.94 153.464C252.321 153.464 252.616 153.554 252.827 153.734C253.038 153.913 253.143 154.193 253.143 154.574V156H252.465ZM251.703 156.037C251.508 156.037 251.341 156.005 251.201 155.94C251.062 155.872 250.955 155.78 250.881 155.666C250.807 155.551 250.77 155.423 250.77 155.28C250.77 155.131 250.805 155.001 250.876 154.89C250.951 154.779 251.067 154.692 251.225 154.63C251.383 154.565 251.588 154.532 251.842 154.532H252.507V154.955H251.921C251.751 154.955 251.633 154.983 251.568 155.039C251.506 155.094 251.475 155.164 251.475 155.248C251.475 155.34 251.511 155.415 251.582 155.471C251.657 155.523 251.757 155.549 251.884 155.549C252.005 155.549 252.113 155.522 252.209 155.466C252.305 155.407 252.375 155.322 252.418 155.21L252.53 155.545C252.477 155.706 252.381 155.828 252.242 155.912C252.102 155.995 251.923 156.037 251.703 156.037ZM255.347 155.043C255.244 155.099 255.131 155.144 255.008 155.178C254.884 155.212 254.748 155.229 254.599 155.229C254.271 155.229 254.018 155.155 253.842 155.006C253.665 154.854 253.577 154.614 253.577 154.286V153.501H254.302V154.24C254.302 154.395 254.342 154.506 254.422 154.574C254.503 154.639 254.616 154.672 254.761 154.672C254.867 154.672 254.967 154.659 255.063 154.635C255.162 154.61 255.257 154.574 255.347 154.528V155.043ZM255.296 156V153.501H256.02V156H255.296ZM258.211 156V155.512L258.165 155.406V154.532C258.165 154.378 258.117 154.257 258.021 154.17C257.928 154.083 257.784 154.04 257.589 154.04C257.456 154.04 257.324 154.062 257.194 154.105C257.067 154.145 256.959 154.201 256.869 154.272L256.609 153.766C256.745 153.67 256.909 153.596 257.101 153.543C257.293 153.49 257.488 153.464 257.686 153.464C258.067 153.464 258.363 153.554 258.574 153.734C258.784 153.913 258.889 154.193 258.889 154.574V156H258.211ZM257.45 156.037C257.255 156.037 257.087 156.005 256.948 155.94C256.809 155.872 256.702 155.78 256.628 155.666C256.553 155.551 256.516 155.423 256.516 155.28C256.516 155.131 256.552 155.001 256.623 154.89C256.697 154.779 256.813 154.692 256.971 154.63C257.129 154.565 257.335 154.532 257.589 154.532H258.253V154.955H257.668C257.498 154.955 257.38 154.983 257.315 155.039C257.253 155.094 257.222 155.164 257.222 155.248C257.222 155.34 257.258 155.415 257.329 155.471C257.403 155.523 257.504 155.549 257.631 155.549C257.752 155.549 257.86 155.522 257.956 155.466C258.052 155.407 258.122 155.322 258.165 155.21L258.276 155.545C258.224 155.706 258.128 155.828 257.988 155.912C257.849 155.995 257.669 156.037 257.45 156.037ZM259.203 155.995L259.24 155.401C259.259 155.404 259.277 155.407 259.296 155.41C259.314 155.41 259.331 155.41 259.347 155.41C259.434 155.41 259.502 155.385 259.551 155.336C259.601 155.286 259.638 155.22 259.663 155.136C259.688 155.049 259.705 154.952 259.714 154.844C259.726 154.735 259.736 154.622 259.742 154.504L259.779 153.501H261.915V156H261.191V153.919L261.353 154.096H260.257L260.411 153.91L260.378 154.537C260.369 154.76 260.35 154.964 260.322 155.15C260.298 155.336 260.256 155.497 260.197 155.633C260.138 155.766 260.059 155.87 259.96 155.944C259.861 156.015 259.734 156.051 259.579 156.051C259.523 156.051 259.465 156.046 259.403 156.037C259.341 156.028 259.274 156.014 259.203 155.995ZM263.964 154.3C264.292 154.303 264.541 154.378 264.711 154.523C264.885 154.665 264.971 154.868 264.971 155.131C264.971 155.407 264.874 155.622 264.679 155.777C264.484 155.929 264.213 156.005 263.866 156.005L262.612 156V153.501H263.332V154.3H263.964ZM263.801 155.489C263.94 155.492 264.047 155.463 264.122 155.401C264.196 155.339 264.233 155.246 264.233 155.122C264.233 154.998 264.196 154.91 264.122 154.857C264.047 154.802 263.94 154.772 263.801 154.769L263.332 154.765V155.489H263.801ZM265.424 156V153.501H266.144V154.477H267.231V153.501H267.955V156H267.231V155.066H266.144V156H265.424ZM271.222 156V153.501H271.942V156H271.222ZM269.963 154.3C270.292 154.303 270.538 154.378 270.702 154.523C270.869 154.665 270.953 154.868 270.953 155.131C270.953 155.407 270.858 155.622 270.669 155.777C270.48 155.929 270.213 156.005 269.866 156.005L268.649 156V153.501H269.369V154.3H269.963ZM269.801 155.489C269.94 155.492 270.047 155.463 270.121 155.401C270.196 155.339 270.233 155.246 270.233 155.122C270.233 154.998 270.196 154.91 270.121 154.857C270.047 154.802 269.94 154.772 269.801 154.769L269.369 154.765V155.489H269.801ZM272.64 156V153.501H273.36V154.988L274.577 153.501H275.241V156H274.521V154.514L273.309 156H272.64ZM273.894 153.232C273.622 153.232 273.417 153.173 273.281 153.055C273.145 152.935 273.075 152.754 273.072 152.512H273.546C273.549 152.617 273.578 152.701 273.634 152.763C273.69 152.825 273.775 152.856 273.89 152.856C274.001 152.856 274.086 152.825 274.145 152.763C274.207 152.701 274.238 152.617 274.238 152.512H274.721C274.721 152.754 274.651 152.935 274.512 153.055C274.373 153.173 274.167 153.232 273.894 153.232ZM277.592 156.938C277.462 156.938 277.333 156.918 277.207 156.878C277.08 156.838 276.976 156.782 276.895 156.711L277.16 156.195C277.216 156.245 277.279 156.283 277.35 156.311C277.425 156.339 277.498 156.353 277.569 156.353C277.671 156.353 277.751 156.328 277.81 156.279C277.872 156.232 277.928 156.153 277.977 156.042L278.108 155.735L278.163 155.656L279.06 153.501H279.756L278.628 156.153C278.547 156.355 278.454 156.512 278.349 156.627C278.247 156.742 278.132 156.822 278.005 156.869C277.881 156.915 277.744 156.938 277.592 156.938ZM278.019 156.098L276.905 153.501H277.652L278.516 155.591L278.019 156.098ZM281.578 156.037C281.368 156.037 281.183 155.991 281.025 155.898C280.868 155.805 280.744 155.664 280.654 155.475C280.567 155.283 280.524 155.042 280.524 154.751C280.524 154.456 280.566 154.215 280.649 154.026C280.733 153.837 280.854 153.696 281.012 153.603C281.169 153.511 281.358 153.464 281.578 153.464C281.813 153.464 282.024 153.518 282.21 153.627C282.399 153.732 282.547 153.881 282.656 154.073C282.767 154.265 282.823 154.491 282.823 154.751C282.823 155.014 282.767 155.241 282.656 155.433C282.547 155.625 282.399 155.774 282.21 155.879C282.024 155.985 281.813 156.037 281.578 156.037ZM280.101 156.901V153.501H280.793V154.012L280.779 154.755L280.826 155.494V156.901H280.101ZM281.453 155.443C281.573 155.443 281.68 155.415 281.773 155.359C281.869 155.303 281.945 155.224 282.001 155.122C282.06 155.017 282.089 154.893 282.089 154.751C282.089 154.605 282.06 154.481 282.001 154.379C281.945 154.277 281.869 154.198 281.773 154.142C281.68 154.086 281.573 154.059 281.453 154.059C281.332 154.059 281.224 154.086 281.128 154.142C281.032 154.198 280.956 154.277 280.9 154.379C280.844 154.481 280.816 154.605 280.816 154.751C280.816 154.893 280.844 155.017 280.9 155.122C280.956 155.224 281.032 155.303 281.128 155.359C281.224 155.415 281.332 155.443 281.453 155.443ZM284.501 156.037C284.235 156.037 283.998 155.981 283.79 155.87C283.586 155.758 283.424 155.607 283.303 155.415C283.185 155.22 283.126 154.998 283.126 154.751C283.126 154.5 283.185 154.278 283.303 154.086C283.424 153.891 283.586 153.74 283.79 153.631C283.998 153.52 284.235 153.464 284.501 153.464C284.764 153.464 285 153.52 285.207 153.631C285.414 153.74 285.577 153.89 285.695 154.082C285.812 154.274 285.871 154.497 285.871 154.751C285.871 154.998 285.812 155.22 285.695 155.415C285.577 155.607 285.414 155.758 285.207 155.87C285 155.981 284.764 156.037 284.501 156.037ZM284.501 155.443C284.622 155.443 284.73 155.415 284.826 155.359C284.922 155.303 284.998 155.224 285.054 155.122C285.109 155.017 285.137 154.893 285.137 154.751C285.137 154.605 285.109 154.481 285.054 154.379C284.998 154.277 284.922 154.198 284.826 154.142C284.73 154.086 284.622 154.059 284.501 154.059C284.38 154.059 284.272 154.086 284.176 154.142C284.08 154.198 284.003 154.277 283.944 154.379C283.888 154.481 283.86 154.605 283.86 154.751C283.86 154.893 283.888 155.017 283.944 155.122C284.003 155.224 284.08 155.303 284.176 155.359C284.272 155.415 284.38 155.443 284.501 155.443ZM286.369 156V153.501H287.647C287.959 153.501 288.204 153.559 288.381 153.673C288.557 153.785 288.645 153.943 288.645 154.147C288.645 154.351 288.562 154.512 288.394 154.63C288.23 154.744 288.012 154.802 287.74 154.802L287.814 154.635C288.117 154.635 288.343 154.69 288.492 154.802C288.644 154.913 288.72 155.076 288.72 155.289C288.72 155.509 288.636 155.683 288.469 155.81C288.302 155.937 288.046 156 287.702 156H286.369ZM287.034 155.508H287.642C287.775 155.508 287.874 155.486 287.939 155.443C288.007 155.396 288.041 155.327 288.041 155.234C288.041 155.138 288.011 155.068 287.949 155.025C287.887 154.978 287.789 154.955 287.656 154.955H287.034V155.508ZM287.034 154.528H287.582C287.709 154.528 287.803 154.504 287.865 154.458C287.93 154.412 287.963 154.345 287.963 154.258C287.963 154.169 287.93 154.102 287.865 154.059C287.803 154.015 287.709 153.994 287.582 153.994H287.034V154.528ZM290.48 156.037C290.195 156.037 289.944 155.981 289.728 155.87C289.514 155.758 289.348 155.607 289.231 155.415C289.113 155.22 289.054 154.998 289.054 154.751C289.054 154.5 289.112 154.278 289.226 154.086C289.344 153.891 289.503 153.74 289.705 153.631C289.906 153.52 290.133 153.464 290.387 153.464C290.632 153.464 290.852 153.517 291.047 153.622C291.245 153.724 291.401 153.873 291.516 154.068C291.63 154.26 291.688 154.491 291.688 154.76C291.688 154.788 291.686 154.82 291.683 154.857C291.68 154.892 291.677 154.924 291.674 154.955H289.644V154.532H291.293L291.014 154.658C291.014 154.528 290.988 154.415 290.935 154.319C290.883 154.223 290.81 154.148 290.717 154.096C290.624 154.04 290.516 154.012 290.392 154.012C290.268 154.012 290.158 154.04 290.062 154.096C289.969 154.148 289.896 154.224 289.844 154.323C289.791 154.419 289.765 154.534 289.765 154.667V154.779C289.765 154.915 289.794 155.036 289.853 155.141C289.915 155.243 290 155.322 290.109 155.378C290.22 155.43 290.35 155.457 290.499 155.457C290.632 155.457 290.748 155.436 290.847 155.396C290.949 155.356 291.042 155.296 291.126 155.215L291.511 155.633C291.397 155.763 291.253 155.864 291.079 155.935C290.906 156.003 290.706 156.037 290.48 156.037ZM292.243 156V153.501H292.963V154.477H294.05V153.501H294.774V156H294.05V155.066H292.963V156H292.243ZM296.819 154.3C297.148 154.303 297.397 154.378 297.567 154.523C297.741 154.665 297.827 154.868 297.827 155.131C297.827 155.407 297.73 155.622 297.535 155.777C297.34 155.929 297.069 156.005 296.722 156.005L295.468 156V153.501H296.188V154.3H296.819ZM296.657 155.489C296.796 155.492 296.903 155.463 296.977 155.401C297.052 155.339 297.089 155.246 297.089 155.122C297.089 154.998 297.052 154.91 296.977 154.857C296.903 154.802 296.796 154.772 296.657 154.769L296.188 154.765V155.489H296.657Z" fill="#D8D8D8"/>
<rect x="62" y="66" width="60" height="16" rx="8" fill="#FF6B26"/>
<path d="M68.87 78V71H75.25V78H73.64V71.95L74.01 72.32H70.11L70.48 71.95V78H68.87ZM77.2064 78.11C77.0864 78.11 76.9597 78.1 76.8264 78.08C76.6997 78.06 76.5597 78.0333 76.4064 78L76.5064 76.63C76.5997 76.6567 76.6964 76.67 76.7964 76.67C77.0697 76.67 77.2831 76.56 77.4364 76.34C77.5897 76.1133 77.6997 75.79 77.7664 75.37C77.8331 74.95 77.8764 74.44 77.8964 73.84L77.9964 71H83.3764V78H81.7764V71.95L82.1464 72.32H79.0564L79.3864 71.93L79.3264 73.78C79.3064 74.4667 79.2597 75.0767 79.1864 75.61C79.1131 76.1433 78.9997 76.5967 78.8464 76.97C78.6931 77.3433 78.4831 77.6267 78.2164 77.82C77.9497 78.0133 77.6131 78.11 77.2064 78.11ZM88.6747 78.12C88.1214 78.12 87.608 78.03 87.1347 77.85C86.668 77.67 86.2614 77.4167 85.9147 77.09C85.5747 76.7633 85.308 76.38 85.1147 75.94C84.928 75.5 84.8347 75.02 84.8347 74.5C84.8347 73.98 84.928 73.5 85.1147 73.06C85.308 72.62 85.578 72.2367 85.9247 71.91C86.2714 71.5833 86.678 71.33 87.1447 71.15C87.6114 70.97 88.118 70.88 88.6647 70.88C89.218 70.88 89.7247 70.97 90.1847 71.15C90.6514 71.33 91.0547 71.5833 91.3947 71.91C91.7414 72.2367 92.0114 72.62 92.2047 73.06C92.398 73.4933 92.4947 73.9733 92.4947 74.5C92.4947 75.02 92.398 75.5033 92.2047 75.95C92.0114 76.39 91.7414 76.7733 91.3947 77.1C91.0547 77.42 90.6514 77.67 90.1847 77.85C89.7247 78.03 89.2214 78.12 88.6747 78.12ZM88.6647 76.74C88.978 76.74 89.2647 76.6867 89.5247 76.58C89.7914 76.4733 90.0247 76.32 90.2247 76.12C90.4247 75.92 90.578 75.6833 90.6847 75.41C90.798 75.1367 90.8547 74.8333 90.8547 74.5C90.8547 74.1667 90.798 73.8633 90.6847 73.59C90.578 73.3167 90.4247 73.08 90.2247 72.88C90.0314 72.68 89.8014 72.5267 89.5347 72.42C89.268 72.3133 88.978 72.26 88.6647 72.26C88.3514 72.26 88.0614 72.3133 87.7947 72.42C87.5347 72.5267 87.3047 72.68 87.1047 72.88C86.9047 73.08 86.748 73.3167 86.6347 73.59C86.528 73.8633 86.4747 74.1667 86.4747 74.5C86.4747 74.8267 86.528 75.13 86.6347 75.41C86.748 75.6833 86.9014 75.92 87.0947 76.12C87.2947 76.32 87.528 76.4733 87.7947 76.58C88.0614 76.6867 88.3514 76.74 88.6647 76.74ZM92.9188 78L95.4188 74.42L93.0788 71H94.9488L96.3988 73.12L97.8488 71H99.7488L97.4188 74.35L99.9388 78H98.0288L96.3988 75.68L94.7888 78H92.9188ZM99.9445 78L103.064 71H104.664L107.794 78H106.094L103.534 71.82H104.174L101.604 78H99.9445ZM101.504 76.5L101.934 75.27H105.534L105.974 76.5H101.504ZM112.542 78V75.79L112.942 76.14H111.022C110.415 76.14 109.892 76.04 109.452 75.84C109.012 75.64 108.675 75.35 108.442 74.97C108.208 74.59 108.092 74.1367 108.092 73.61C108.092 73.0633 108.215 72.5967 108.462 72.21C108.715 71.8167 109.068 71.5167 109.522 71.31C109.975 71.1033 110.508 71 111.122 71H114.142V78H112.542ZM108.112 78L109.852 75.49H111.492L109.822 78H108.112ZM112.542 75.27V71.9L112.942 72.32H111.162C110.702 72.32 110.348 72.4267 110.102 72.64C109.862 72.8533 109.742 73.17 109.742 73.59C109.742 73.9967 109.858 74.31 110.092 74.53C110.325 74.75 110.668 74.86 111.122 74.86H112.942L112.542 75.27Z" fill="white"/>
<rect x="204" y="66" width="73" height="16" rx="8" fill="#DCFF00"/>
<path d="M214.22 78.12C213.667 78.12 213.153 78.03 212.68 77.85C212.213 77.67 211.807 77.4167 211.46 77.09C211.12 76.7633 210.853 76.38 210.66 75.94C210.473 75.5 210.38 75.02 210.38 74.5C210.38 73.98 210.473 73.5 210.66 73.06C210.853 72.62 211.123 72.2367 211.47 71.91C211.817 71.5833 212.223 71.33 212.69 71.15C213.157 70.97 213.663 70.88 214.21 70.88C214.763 70.88 215.27 70.97 215.73 71.15C216.197 71.33 216.6 71.5833 216.94 71.91C217.287 72.2367 217.557 72.62 217.75 73.06C217.943 73.4933 218.04 73.9733 218.04 74.5C218.04 75.02 217.943 75.5033 217.75 75.95C217.557 76.39 217.287 76.7733 216.94 77.1C216.6 77.42 216.197 77.67 215.73 77.85C215.27 78.03 214.767 78.12 214.22 78.12ZM214.21 76.74C214.523 76.74 214.81 76.6867 215.07 76.58C215.337 76.4733 215.57 76.32 215.77 76.12C215.97 75.92 216.123 75.6833 216.23 75.41C216.343 75.1367 216.4 74.8333 216.4 74.5C216.4 74.1667 216.343 73.8633 216.23 73.59C216.123 73.3167 215.97 73.08 215.77 72.88C215.577 72.68 215.347 72.5267 215.08 72.42C214.813 72.3133 214.523 72.26 214.21 72.26C213.897 72.26 213.607 72.3133 213.34 72.42C213.08 72.5267 212.85 72.68 212.65 72.88C212.45 73.08 212.293 73.3167 212.18 73.59C212.073 73.8633 212.02 74.1667 212.02 74.5C212.02 74.8267 212.073 75.13 212.18 75.41C212.293 75.6833 212.447 75.92 212.64 76.12C212.84 76.32 213.073 76.4733 213.34 76.58C213.607 76.6867 213.897 76.74 214.21 76.74ZM220.7 78V71.95L221.07 72.32H218.47V71H224.54V72.32H221.94L222.3 71.95V78H220.7ZM225.237 78.11C225.117 78.11 224.99 78.1 224.857 78.08C224.73 78.06 224.59 78.0333 224.437 78L224.537 76.63C224.63 76.6567 224.727 76.67 224.827 76.67C225.1 76.67 225.314 76.56 225.467 76.34C225.62 76.1133 225.73 75.79 225.797 75.37C225.864 74.95 225.907 74.44 225.927 73.84L226.027 71H231.407V78H229.807V71.95L230.177 72.32H227.087L227.417 71.93L227.357 73.78C227.337 74.4667 227.29 75.0767 227.217 75.61C227.144 76.1433 227.03 76.5967 226.877 76.97C226.724 77.3433 226.514 77.6267 226.247 77.82C225.98 78.0133 225.644 78.11 225.237 78.11ZM233.155 78V71H234.765V75.56L238.105 71H239.625V78H238.025V73.45L234.685 78H233.155ZM243.628 75.81C242.688 75.81 241.968 75.5867 241.468 75.14C240.968 74.6867 240.718 74.0367 240.718 73.19V71H242.318V73.01C242.318 73.49 242.448 73.8533 242.708 74.1C242.968 74.34 243.338 74.46 243.818 74.46C244.125 74.46 244.421 74.4267 244.708 74.36C244.995 74.2867 245.261 74.1833 245.508 74.05L245.548 75.39C245.201 75.53 244.868 75.6367 244.548 75.71C244.228 75.7767 243.921 75.81 243.628 75.81ZM245.318 78V71H246.918V78H245.318ZM253.453 78V71H255.073V78H253.453ZM248.653 78V71H250.273V78H248.653ZM250.153 75.13V73.76H253.573V75.13H250.153ZM256.037 78L259.157 71H260.757L263.887 78H262.187L259.627 71.82H260.267L257.697 78H256.037ZM257.597 76.5L258.027 75.27H261.627L262.067 76.5H257.597ZM268.434 78V75.79L268.834 76.14H266.914C266.308 76.14 265.784 76.04 265.344 75.84C264.904 75.64 264.568 75.35 264.334 74.97C264.101 74.59 263.984 74.1367 263.984 73.61C263.984 73.0633 264.108 72.5967 264.354 72.21C264.608 71.8167 264.961 71.5167 265.414 71.31C265.868 71.1033 266.401 71 267.014 71H270.034V78H268.434ZM264.004 78L265.744 75.49H267.384L265.714 78H264.004ZM268.434 75.27V71.9L268.834 72.32H267.054C266.594 72.32 266.241 72.4267 265.994 72.64C265.754 72.8533 265.634 73.17 265.634 73.59C265.634 73.9967 265.751 74.31 265.984 74.53C266.218 74.75 266.561 74.86 267.014 74.86H268.834L268.434 75.27Z" fill="black"/>
<path d="M181.712 127.096C181.253 127.096 180.843 126.984 180.48 126.76C180.117 126.531 179.832 126.2 179.624 125.768C179.416 125.336 179.312 124.813 179.312 124.2C179.312 123.587 179.416 123.064 179.624 122.632C179.832 122.2 180.117 121.872 180.48 121.648C180.843 121.419 181.253 121.304 181.712 121.304C182.176 121.304 182.587 121.419 182.944 121.648C183.307 121.872 183.592 122.2 183.8 122.632C184.008 123.064 184.112 123.587 184.112 124.2C184.112 124.813 184.008 125.336 183.8 125.768C183.592 126.2 183.307 126.531 182.944 126.76C182.587 126.984 182.176 127.096 181.712 127.096ZM181.712 126C181.931 126 182.12 125.939 182.28 125.816C182.445 125.693 182.573 125.499 182.664 125.232C182.76 124.965 182.808 124.621 182.808 124.2C182.808 123.779 182.76 123.435 182.664 123.168C182.573 122.901 182.445 122.707 182.28 122.584C182.12 122.461 181.931 122.4 181.712 122.4C181.499 122.4 181.309 122.461 181.144 122.584C180.984 122.707 180.856 122.901 180.76 123.168C180.669 123.435 180.624 123.779 180.624 124.2C180.624 124.621 180.669 124.965 180.76 125.232C180.856 125.499 180.984 125.693 181.144 125.816C181.309 125.939 181.499 126 181.712 126ZM185.536 127.064C185.323 127.064 185.139 126.992 184.984 126.848C184.835 126.699 184.76 126.509 184.76 126.28C184.76 126.051 184.835 125.867 184.984 125.728C185.139 125.584 185.323 125.512 185.536 125.512C185.755 125.512 185.939 125.584 186.088 125.728C186.237 125.867 186.312 126.051 186.312 126.28C186.312 126.509 186.237 126.699 186.088 126.848C185.939 126.992 185.755 127.064 185.536 127.064ZM189.456 127.096C188.944 127.096 188.499 126.989 188.12 126.776C187.747 126.563 187.459 126.251 187.256 125.84C187.054 125.429 186.952 124.923 186.952 124.32C186.952 123.675 187.072 123.128 187.312 122.68C187.558 122.232 187.894 121.891 188.32 121.656C188.752 121.421 189.248 121.304 189.808 121.304C190.107 121.304 190.392 121.336 190.664 121.4C190.936 121.464 191.171 121.56 191.368 121.688L190.888 122.64C190.734 122.533 190.568 122.461 190.392 122.424C190.216 122.381 190.032 122.36 189.84 122.36C189.355 122.36 188.971 122.507 188.688 122.8C188.406 123.093 188.264 123.528 188.264 124.104C188.264 124.2 188.264 124.307 188.264 124.424C188.27 124.541 188.286 124.659 188.312 124.776L187.952 124.44C188.054 124.232 188.184 124.059 188.344 123.92C188.504 123.776 188.694 123.669 188.912 123.6C189.136 123.525 189.382 123.488 189.648 123.488C190.011 123.488 190.336 123.56 190.624 123.704C190.912 123.848 191.142 124.051 191.312 124.312C191.488 124.573 191.576 124.88 191.576 125.232C191.576 125.611 191.48 125.941 191.288 126.224C191.102 126.501 190.848 126.717 190.528 126.872C190.214 127.021 189.856 127.096 189.456 127.096ZM189.384 126.128C189.566 126.128 189.726 126.096 189.864 126.032C190.008 125.963 190.12 125.864 190.2 125.736C190.28 125.608 190.32 125.461 190.32 125.296C190.32 125.04 190.232 124.837 190.056 124.688C189.886 124.533 189.656 124.456 189.368 124.456C189.176 124.456 189.008 124.493 188.864 124.568C188.72 124.637 188.606 124.736 188.52 124.864C188.44 124.987 188.4 125.131 188.4 125.296C188.4 125.456 188.44 125.6 188.52 125.728C188.6 125.851 188.712 125.949 188.856 126.024C189 126.093 189.176 126.128 189.384 126.128Z" fill="black"/>
<path d="M209.712 127.096C209.253 127.096 208.843 126.984 208.48 126.76C208.117 126.531 207.832 126.2 207.624 125.768C207.416 125.336 207.312 124.813 207.312 124.2C207.312 123.587 207.416 123.064 207.624 122.632C207.832 122.2 208.117 121.872 208.48 121.648C208.843 121.419 209.253 121.304 209.712 121.304C210.176 121.304 210.587 121.419 210.944 121.648C211.307 121.872 211.592 122.2 211.8 122.632C212.008 123.064 212.112 123.587 212.112 124.2C212.112 124.813 212.008 125.336 211.8 125.768C211.592 126.2 211.307 126.531 210.944 126.76C210.587 126.984 210.176 127.096 209.712 127.096ZM209.712 126C209.931 126 210.12 125.939 210.28 125.816C210.445 125.693 210.573 125.499 210.664 125.232C210.76 124.965 210.808 124.621 210.808 124.2C210.808 123.779 210.76 123.435 210.664 123.168C210.573 122.901 210.445 122.707 210.28 122.584C210.12 122.461 209.931 122.4 209.712 122.4C209.499 122.4 209.309 122.461 209.144 122.584C208.984 122.707 208.856 122.901 208.76 123.168C208.669 123.435 208.624 123.779 208.624 124.2C208.624 124.621 208.669 124.965 208.76 125.232C208.856 125.499 208.984 125.693 209.144 125.816C209.309 125.939 209.499 126 209.712 126ZM213.536 127.064C213.323 127.064 213.139 126.992 212.984 126.848C212.835 126.699 212.76 126.509 212.76 126.28C212.76 126.051 212.835 125.867 212.984 125.728C213.139 125.584 213.323 125.512 213.536 125.512C213.755 125.512 213.939 125.584 214.088 125.728C214.237 125.867 214.312 126.051 214.312 126.28C214.312 126.509 214.237 126.699 214.088 126.848C213.939 126.992 213.755 127.064 213.536 127.064ZM215.817 127L218.073 121.896L218.409 122.456H215.393L215.969 121.848V123.368H214.817V121.4H219.305V122.24L217.225 127H215.817Z" fill="black"/>
<path d="M237.712 127.096C237.253 127.096 236.843 126.984 236.48 126.76C236.117 126.531 235.832 126.2 235.624 125.768C235.416 125.336 235.312 124.813 235.312 124.2C235.312 123.587 235.416 123.064 235.624 122.632C235.832 122.2 236.117 121.872 236.48 121.648C236.843 121.419 237.253 121.304 237.712 121.304C238.176 121.304 238.587 121.419 238.944 121.648C239.307 121.872 239.592 122.2 239.8 122.632C240.008 123.064 240.112 123.587 240.112 124.2C240.112 124.813 240.008 125.336 239.8 125.768C239.592 126.2 239.307 126.531 238.944 126.76C238.587 126.984 238.176 127.096 237.712 127.096ZM237.712 126C237.931 126 238.12 125.939 238.28 125.816C238.445 125.693 238.573 125.499 238.664 125.232C238.76 124.965 238.808 124.621 238.808 124.2C238.808 123.779 238.76 123.435 238.664 123.168C238.573 122.901 238.445 122.707 238.28 122.584C238.12 122.461 237.931 122.4 237.712 122.4C237.499 122.4 237.309 122.461 237.144 122.584C236.984 122.707 236.856 122.901 236.76 123.168C236.669 123.435 236.624 123.779 236.624 124.2C236.624 124.621 236.669 124.965 236.76 125.232C236.856 125.499 236.984 125.693 237.144 125.816C237.309 125.939 237.499 126 237.712 126ZM241.536 127.064C241.323 127.064 241.139 126.992 240.984 126.848C240.835 126.699 240.76 126.509 240.76 126.28C240.76 126.051 240.835 125.867 240.984 125.728C241.139 125.584 241.323 125.512 241.536 125.512C241.755 125.512 241.939 125.584 242.088 125.728C242.237 125.867 242.312 126.051 242.312 126.28C242.312 126.509 242.237 126.699 242.088 126.848C241.939 126.992 241.755 127.064 241.536 127.064ZM245.452 127.096C244.983 127.096 244.572 127.027 244.22 126.888C243.868 126.744 243.593 126.544 243.396 126.288C243.199 126.027 243.1 125.723 243.1 125.376C243.1 125.029 243.196 124.736 243.388 124.496C243.585 124.251 243.86 124.067 244.212 123.944C244.564 123.816 244.977 123.752 245.452 123.752C245.932 123.752 246.348 123.816 246.7 123.944C247.057 124.067 247.332 124.251 247.524 124.496C247.721 124.736 247.82 125.029 247.82 125.376C247.82 125.723 247.721 126.027 247.524 126.288C247.327 126.544 247.049 126.744 246.692 126.888C246.34 127.027 245.927 127.096 245.452 127.096ZM245.452 126.144C245.777 126.144 246.033 126.072 246.22 125.928C246.412 125.784 246.508 125.587 246.508 125.336C246.508 125.085 246.412 124.891 246.22 124.752C246.033 124.608 245.777 124.536 245.452 124.536C245.132 124.536 244.879 124.608 244.692 124.752C244.505 124.891 244.412 125.085 244.412 125.336C244.412 125.587 244.505 125.784 244.692 125.928C244.879 126.072 245.132 126.144 245.452 126.144ZM245.452 123.648C245.724 123.648 245.937 123.587 246.092 123.464C246.252 123.341 246.332 123.173 246.332 122.96C246.332 122.736 246.249 122.563 246.084 122.44C245.924 122.317 245.713 122.256 245.452 122.256C245.196 122.256 244.988 122.317 244.828 122.44C244.668 122.563 244.588 122.736 244.588 122.96C244.588 123.173 244.665 123.341 244.82 123.464C244.975 123.587 245.185 123.648 245.452 123.648ZM245.452 124.408C245.02 124.408 244.641 124.349 244.316 124.232C243.996 124.115 243.745 123.944 243.564 123.72C243.388 123.491 243.3 123.219 243.3 122.904C243.3 122.573 243.391 122.291 243.572 122.056C243.753 121.816 244.007 121.632 244.332 121.504C244.657 121.371 245.031 121.304 245.452 121.304C245.884 121.304 246.26 121.371 246.58 121.504C246.905 121.632 247.159 121.816 247.34 122.056C247.527 122.291 247.62 122.573 247.62 122.904C247.62 123.219 247.529 123.491 247.348 123.72C247.172 123.944 246.921 124.115 246.596 124.232C246.271 124.349 245.889 124.408 245.452 124.408Z" fill="black"/>
<path d="M264.712 127.096C264.253 127.096 263.843 126.984 263.48 126.76C263.117 126.531 262.832 126.2 262.624 125.768C262.416 125.336 262.312 124.813 262.312 124.2C262.312 123.587 262.416 123.064 262.624 122.632C262.832 122.2 263.117 121.872 263.48 121.648C263.843 121.419 264.253 121.304 264.712 121.304C265.176 121.304 265.587 121.419 265.944 121.648C266.307 121.872 266.592 122.2 266.8 122.632C267.008 123.064 267.112 123.587 267.112 124.2C267.112 124.813 267.008 125.336 266.8 125.768C266.592 126.2 266.307 126.531 265.944 126.76C265.587 126.984 265.176 127.096 264.712 127.096ZM264.712 126C264.931 126 265.12 125.939 265.28 125.816C265.445 125.693 265.573 125.499 265.664 125.232C265.76 124.965 265.808 124.621 265.808 124.2C265.808 123.779 265.76 123.435 265.664 123.168C265.573 122.901 265.445 122.707 265.28 122.584C265.12 122.461 264.931 122.4 264.712 122.4C264.499 122.4 264.309 122.461 264.144 122.584C263.984 122.707 263.856 122.901 263.76 123.168C263.669 123.435 263.624 123.779 263.624 124.2C263.624 124.621 263.669 124.965 263.76 125.232C263.856 125.499 263.984 125.693 264.144 125.816C264.309 125.939 264.499 126 264.712 126ZM268.536 127.064C268.323 127.064 268.139 126.992 267.984 126.848C267.835 126.699 267.76 126.509 267.76 126.28C267.76 126.051 267.835 125.867 267.984 125.728C268.139 125.584 268.323 125.512 268.536 125.512C268.755 125.512 268.939 125.584 269.088 125.728C269.237 125.867 269.312 126.051 269.312 126.28C269.312 126.509 269.237 126.699 269.088 126.848C268.939 126.992 268.755 127.064 268.536 127.064ZM271.67 127.096C271.377 127.096 271.094 127.064 270.822 127C270.55 126.936 270.315 126.84 270.118 126.712L270.598 125.76C270.753 125.867 270.918 125.941 271.094 125.984C271.27 126.021 271.454 126.04 271.646 126.04C272.126 126.04 272.507 125.893 272.79 125.6C273.078 125.307 273.222 124.872 273.222 124.296C273.222 124.2 273.219 124.093 273.214 123.976C273.209 123.859 273.195 123.741 273.174 123.624L273.526 123.96C273.435 124.168 273.307 124.344 273.142 124.488C272.977 124.627 272.785 124.733 272.566 124.808C272.347 124.877 272.102 124.912 271.83 124.912C271.473 124.912 271.147 124.84 270.854 124.696C270.566 124.552 270.334 124.349 270.158 124.088C269.987 123.827 269.902 123.52 269.902 123.168C269.902 122.784 269.995 122.453 270.182 122.176C270.374 121.899 270.63 121.685 270.95 121.536C271.275 121.381 271.633 121.304 272.022 121.304C272.539 121.304 272.985 121.411 273.358 121.624C273.731 121.837 274.019 122.149 274.222 122.56C274.425 122.965 274.526 123.472 274.526 124.08C274.526 124.725 274.403 125.272 274.158 125.72C273.918 126.168 273.585 126.509 273.158 126.744C272.731 126.979 272.235 127.096 271.67 127.096ZM272.118 123.944C272.305 123.944 272.47 123.909 272.614 123.84C272.763 123.765 272.878 123.664 272.958 123.536C273.038 123.408 273.078 123.264 273.078 123.104C273.078 122.944 273.038 122.803 272.958 122.68C272.883 122.552 272.774 122.453 272.63 122.384C272.486 122.309 272.31 122.272 272.102 122.272C271.915 122.272 271.753 122.307 271.614 122.376C271.475 122.44 271.366 122.536 271.286 122.664C271.206 122.787 271.166 122.933 271.166 123.104C271.166 123.36 271.251 123.565 271.422 123.72C271.598 123.869 271.83 123.944 272.118 123.944Z" fill="black"/>
<path d="M153.712 127.096C153.253 127.096 152.843 126.984 152.48 126.76C152.117 126.531 151.832 126.2 151.624 125.768C151.416 125.336 151.312 124.813 151.312 124.2C151.312 123.587 151.416 123.064 151.624 122.632C151.832 122.2 152.117 121.872 152.48 121.648C152.843 121.419 153.253 121.304 153.712 121.304C154.176 121.304 154.587 121.419 154.944 121.648C155.307 121.872 155.592 122.2 155.8 122.632C156.008 123.064 156.112 123.587 156.112 124.2C156.112 124.813 156.008 125.336 155.8 125.768C155.592 126.2 155.307 126.531 154.944 126.76C154.587 126.984 154.176 127.096 153.712 127.096ZM153.712 126C153.931 126 154.12 125.939 154.28 125.816C154.445 125.693 154.573 125.499 154.664 125.232C154.76 124.965 154.808 124.621 154.808 124.2C154.808 123.779 154.76 123.435 154.664 123.168C154.573 122.901 154.445 122.707 154.28 122.584C154.12 122.461 153.931 122.4 153.712 122.4C153.499 122.4 153.309 122.461 153.144 122.584C152.984 122.707 152.856 122.901 152.76 123.168C152.669 123.435 152.624 123.779 152.624 124.2C152.624 124.621 152.669 124.965 152.76 125.232C152.856 125.499 152.984 125.693 153.144 125.816C153.309 125.939 153.499 126 153.712 126ZM157.536 127.064C157.323 127.064 157.139 126.992 156.984 126.848C156.835 126.699 156.76 126.509 156.76 126.28C156.76 126.051 156.835 125.867 156.984 125.728C157.139 125.584 157.323 125.512 157.536 125.512C157.755 125.512 157.939 125.584 158.088 125.728C158.237 125.867 158.312 126.051 158.312 126.28C158.312 126.509 158.237 126.699 158.088 126.848C157.939 126.992 157.755 127.064 157.536 127.064ZM160.958 127.096C160.569 127.096 160.182 127.045 159.798 126.944C159.419 126.837 159.094 126.688 158.822 126.496L159.334 125.504C159.547 125.659 159.793 125.781 160.07 125.872C160.353 125.963 160.638 126.008 160.926 126.008C161.251 126.008 161.507 125.944 161.694 125.816C161.881 125.688 161.974 125.509 161.974 125.28C161.974 125.136 161.937 125.008 161.862 124.896C161.787 124.784 161.654 124.699 161.462 124.64C161.275 124.581 161.011 124.552 160.67 124.552H159.238L159.526 121.4H162.942V122.44H159.99L160.662 121.848L160.462 124.096L159.79 123.504H160.974C161.529 123.504 161.974 123.581 162.31 123.736C162.651 123.885 162.899 124.091 163.054 124.352C163.209 124.613 163.286 124.909 163.286 125.24C163.286 125.571 163.203 125.877 163.038 126.16C162.873 126.437 162.617 126.664 162.27 126.84C161.929 127.011 161.491 127.096 160.958 127.096Z" fill="black"/>
<path d="M20.068 130.144C19.38 130.144 18.764 129.976 18.22 129.64C17.676 129.296 17.248 128.8 16.936 128.152C16.624 127.504 16.468 126.72 16.468 125.8C16.468 124.88 16.624 124.096 16.936 123.448C17.248 122.8 17.676 122.308 18.22 121.972C18.764 121.628 19.38 121.456 20.068 121.456C20.764 121.456 21.38 121.628 21.916 121.972C22.46 122.308 22.888 122.8 23.2 123.448C23.512 124.096 23.668 124.88 23.668 125.8C23.668 126.72 23.512 127.504 23.2 128.152C22.888 128.8 22.46 129.296 21.916 129.64C21.38 129.976 20.764 130.144 20.068 130.144ZM20.068 128.5C20.396 128.5 20.68 128.408 20.92 128.224C21.168 128.04 21.36 127.748 21.496 127.348C21.64 126.948 21.712 126.432 21.712 125.8C21.712 125.168 21.64 124.652 21.496 124.252C21.36 123.852 21.168 123.56 20.92 123.376C20.68 123.192 20.396 123.1 20.068 123.1C19.748 123.1 19.464 123.192 19.216 123.376C18.976 123.56 18.784 123.852 18.64 124.252C18.504 124.652 18.436 125.168 18.436 125.8C18.436 126.432 18.504 126.948 18.64 127.348C18.784 127.748 18.976 128.04 19.216 128.224C19.464 128.408 19.748 128.5 20.068 128.5Z" fill="black"/>
<path d="M295.065 130V122.32L295.905 123.16H293.385V121.6H297.009V130H295.065Z" fill="black"/>
<path d="M24.696 41L21.648 36.752L20.592 37.904V41H18.552V31.292H20.592V35.324L24.288 31.292H26.664L23.016 35.252L27.096 41H24.696ZM31.0626 31.088C33.7146 31.088 35.6946 32.96 35.6946 36.14C35.6946 39.464 33.5946 41.18 31.0626 41.18C28.5306 41.18 26.4426 39.452 26.4426 36.14C26.4426 32.9 28.5306 31.088 31.0626 31.088ZM31.0626 39.176C32.5146 39.176 33.5946 38.228 33.5946 36.14C33.5946 34.064 32.5026 33.104 31.0626 33.104C29.6346 33.104 28.5306 34.064 28.5306 36.14C28.5306 38.228 29.6226 39.176 31.0626 39.176ZM40.61 31.088C43.142 31.088 45.242 32.9 45.242 36.14C45.242 39.452 43.142 41.18 40.61 41.18C38.33 41.18 36.41 39.8 36.05 37.088H38.186C38.39 38.516 39.398 39.176 40.61 39.176C41.894 39.176 42.902 38.42 43.106 36.788H39.926V35.156H43.046C42.746 33.764 41.798 33.104 40.61 33.104C39.494 33.104 38.546 33.716 38.282 34.904H36.098C36.542 32.48 38.318 31.088 40.61 31.088ZM51.6965 32.348C53.8925 32.648 55.8005 33.884 55.8005 36.2C55.8005 38.552 53.8565 39.8 51.6965 39.908V41H49.7045V39.908C48.1445 39.752 45.6005 39.044 45.6005 36.176C45.6005 34.448 46.6925 32.6 49.7045 32.3V31.292H51.6965V32.348ZM47.7845 36.2C47.7845 37.7 48.6485 38.108 49.7045 38.216V34.172C48.6485 34.28 47.7845 34.688 47.7845 36.2ZM51.6965 38.192C52.6445 38.06 53.6045 37.628 53.6045 36.176C53.6045 34.796 52.7525 34.34 51.6965 34.208V38.192ZM62.1379 32.348C64.3339 32.648 66.2419 33.884 66.2419 36.2C66.2419 38.552 64.2979 39.8 62.1379 39.908V41H60.1459V39.908C58.5859 39.752 56.0419 39.044 56.0419 36.176C56.0419 34.448 57.1339 32.6 60.1459 32.3V31.292H62.1379V32.348ZM58.2259 36.2C58.2259 37.7 59.0899 38.108 60.1459 38.216V34.172C59.0899 34.28 58.2259 34.688 58.2259 36.2ZM62.1379 38.192C63.0859 38.06 64.0459 37.628 64.0459 36.176C64.0459 34.796 63.1939 34.34 62.1379 34.208V38.192ZM66.9153 31.292H68.9553V37.64L73.6593 31.292H75.6993V41H73.6593V34.604L68.9553 41H66.9153V31.292ZM84.7976 39.068H86.3096V42.944H84.3656V41.012H76.8176V31.292H78.8336V39.068H82.7696V31.292H84.7976V39.068ZM86.884 31.292H93.82V33.236H88.984V34.964L93.016 34.988V36.92L88.984 36.908V39.068H93.82V41H86.884V31.292ZM96.7078 31.292V34.964H100.8V31.292H102.96V41H100.8V36.908H96.7078V41H94.5598V31.292H96.7078ZM103.844 31.292H112.76V33.236H109.376V41H107.228V33.236H103.844V31.292ZM123.861 39.056V33.236H121.545V34.436C121.545 36.56 121.089 38.024 120.597 39.056H123.861ZM126.021 39.056H127.521V42.944H125.589V41H118.989V42.944H117.057V39.056C118.293 39.056 119.205 39.056 118.209 39.056C119.049 39.056 119.649 36.716 119.649 34.088V31.292C120.717 31.292 124.785 31.292 126.021 31.292V39.056ZM128.111 31.292H135.047V33.236H130.211V34.964L134.243 34.988V36.92L130.211 36.908V39.068H135.047V41H128.111V31.292ZM135.414 31.292H144.33V33.236H140.946V41H138.798V33.236H135.414V31.292ZM145.103 31.292H152.039V33.236H147.203V34.964L151.235 34.988V36.92L147.203 36.908V39.068H152.039V41H145.103V31.292ZM157.267 31.292C159.367 31.292 160.459 32.9 160.459 34.424C160.459 36.428 158.947 37.52 157.351 37.52H154.927V41H152.779V31.292H154.207H157.267ZM157.219 35.636C157.999 35.636 158.575 35.168 158.575 34.424C158.575 33.68 157.963 33.176 157.219 33.176H154.927V35.636H157.219ZM168.887 31.292H171.143V41H169.103V35.444L166.931 41H165.323L163.151 35.432V41H161.111V31.292H163.355L166.127 38.936L168.887 31.292ZM172.255 31.292H174.295V37.64L178.999 31.292H181.039V41H178.999V34.604L174.295 41H172.255V31.292ZM184.305 31.292V34.964H188.397V31.292H190.557V41H188.397V36.908H184.305V41H182.157V31.292H184.305ZM198.177 41L197.421 38.996H193.845L193.089 41H191.049L194.613 31.292H196.869L200.217 41H198.177ZM194.517 37.208H196.749L195.633 34.256L194.517 37.208ZM208.677 39.068H210.189V42.944H208.245V41.012H200.697V31.292H202.713V39.068H206.649V31.292H208.677V39.068ZM210.763 31.292H212.803V37.64L217.507 31.292H219.547V41H217.507V34.604L212.803 41H210.763V31.292ZM220.665 31.292H222.705V37.64L227.409 31.292H229.449V41H227.409V34.604L222.705 41H220.665V31.292ZM239.517 29.876C236.193 33.596 234.729 38.756 239.505 43.52H237.645C233.097 38.984 233.793 34.112 237.777 29.876H239.517ZM239.713 40.6953C240.119 40.6758 240.396 40.5996 240.545 40.4668C240.693 40.334 240.768 40.0449 240.768 39.5996V34.2969C240.768 33.832 240.68 33.5293 240.504 33.3887C240.387 33.2949 240.123 33.2305 239.713 33.1953V32.8906H243.574C244.375 32.8906 245.023 32.9746 245.52 33.1426C246.48 33.4824 246.961 34.0938 246.961 34.9766C246.961 35.6289 246.721 36.1426 246.24 36.5176C245.873 36.7988 245.484 36.9785 245.074 37.0566L247.488 40.4727C247.555 40.5664 247.625 40.6289 247.699 40.6602C247.773 40.6875 247.865 40.7051 247.975 40.7129V41H245.52L243.029 37.25H242.713V39.5996C242.713 40.0215 242.783 40.3066 242.924 40.4551C243.064 40.5996 243.346 40.6797 243.768 40.6953V41H239.713V40.6953ZM242.713 36.8633C243.498 36.8516 244.059 36.7422 244.395 36.5352C244.734 36.3242 244.904 35.8398 244.904 35.082C244.904 34.6172 244.84 34.25 244.711 33.9805C244.488 33.5234 244.082 33.2949 243.492 33.2949C243.172 33.2949 242.961 33.3359 242.859 33.418C242.762 33.4961 242.713 33.627 242.713 33.8105V36.8633ZM248.537 37.6133C249.342 36.7969 249.873 36.2246 250.131 35.8965C250.541 35.3691 250.746 34.9141 250.746 34.5312C250.746 34.3203 250.676 34.1113 250.535 33.9043C250.395 33.6934 250.164 33.5879 249.844 33.5879C249.559 33.5879 249.326 33.6719 249.146 33.8398C249.049 33.9336 248.957 34.0703 248.871 34.25H248.648C248.883 33.6172 249.217 33.1797 249.65 32.9375C249.877 32.8125 250.113 32.75 250.359 32.75C250.734 32.75 251.07 32.8652 251.367 33.0957C251.664 33.3262 251.812 33.6523 251.812 34.0742C251.812 34.4648 251.689 34.8086 251.443 35.1055C251.201 35.3984 250.625 35.9473 249.715 36.752V36.8105H250.828C251.242 36.8105 251.504 36.7812 251.613 36.7227C251.727 36.6602 251.836 36.498 251.941 36.2363H252.135L251.783 37.7832H248.537V37.6133ZM253.697 29.876C257.681 34.112 258.377 38.984 253.829 43.52H251.969C256.745 38.756 255.281 33.596 251.969 29.876H253.697Z" fill="black"/>
<rect x="18" y="101" width="278" height="7" rx="3.5" fill="url(#paint0_linear_193_4682)"/>
<rect x="17" y="92" width="5" height="24" rx="2.5" fill="#FF6B26"/>
<rect x="155" y="92" width="5" height="24" rx="2.5" fill="#ECBA12"/>
<rect x="183" y="92" width="5" height="24" rx="2.5" fill="#E7D10C"/>
<rect x="211" y="92" width="5" height="24" rx="2.5" fill="#E3E008"/>
<rect x="239" y="92" width="5" height="24" rx="2.5" fill="#E1EC05"/>
<rect x="266" y="92" width="5" height="24" rx="2.5" fill="#DDFC01"/>
<rect x="293" y="92" width="5" height="24" rx="2.5" fill="#DCFF00"/>
<defs>
<linearGradient id="paint0_linear_193_4682" x1="18.222" y1="104.5" x2="279.5" y2="104.5" gradientUnits="userSpaceOnUse">
<stop stop-color="#FF6B26"/>
<stop offset="0.966346" stop-color="#DCFF00"/>
</linearGradient>
</defs>
</svg>
