<svg width="318" height="177" viewBox="0 0 318 177" fill="none" xmlns="http://www.w3.org/2000/svg">
<rect width="318" height="177" fill="white"/>
<rect x="66" y="76" width="53" height="16" rx="8" fill="#DCFF00"/>
<path d="M72.94 88.11C72.82 88.11 72.6933 88.1 72.56 88.08C72.4333 88.06 72.2933 88.0333 72.14 88L72.24 86.63C72.3333 86.6567 72.43 86.67 72.53 86.67C72.8033 86.67 73.0167 86.56 73.17 86.34C73.3233 86.1133 73.4333 85.79 73.5 85.37C73.5667 84.95 73.61 84.44 73.63 83.84L73.73 81H79.11V88H77.51V81.95L77.88 82.32H74.79L75.12 81.93L75.06 83.78C75.04 84.4667 74.9933 85.0767 74.92 85.61C74.8467 86.1433 74.7333 86.5967 74.58 86.97C74.4267 87.3433 74.2167 87.6267 73.95 87.82C73.6833 88.0133 73.3467 88.11 72.94 88.11ZM80.513 87.91L80.903 86.68C81.2896 86.7933 81.613 86.8267 81.873 86.78C82.1396 86.7267 82.3763 86.54 82.583 86.22L82.923 85.71L83.073 85.54L85.393 81H86.983L84.003 86.54C83.7363 87.04 83.4196 87.4233 83.053 87.69C82.693 87.9567 82.2963 88.1067 81.863 88.14C81.4296 88.18 80.9796 88.1033 80.513 87.91ZM83.043 86.89L79.883 81H81.613L83.933 85.7L83.043 86.89ZM90.1593 85.81C89.2193 85.81 88.4993 85.5867 87.9993 85.14C87.4993 84.6867 87.2493 84.0367 87.2493 83.19V81H88.8493V83.01C88.8493 83.49 88.9793 83.8533 89.2393 84.1C89.4993 84.34 89.8693 84.46 90.3493 84.46C90.656 84.46 90.9526 84.4267 91.2393 84.36C91.526 84.2867 91.7926 84.1833 92.0393 84.05L92.0793 85.39C91.7326 85.53 91.3993 85.6367 91.0793 85.71C90.7593 85.7767 90.4526 85.81 90.1593 85.81ZM91.8493 88V81H93.4493V88H91.8493ZM95.1845 88V81H96.7945V87.05L96.4245 86.68H99.3645L99.0045 87.05V81H100.614V87.05L100.234 86.68H103.194L102.814 87.05V81H104.424V88H95.1845ZM106.161 88V81H111.451V82.3H107.771V86.7H111.581V88H106.161ZM107.651 85.08V83.82H111.021V85.08H107.651Z" fill="black"/>
<path d="M139.385 166V162.749H140.862C141.215 162.749 141.527 162.817 141.796 162.953C142.065 163.086 142.276 163.274 142.428 163.515C142.579 163.757 142.655 164.043 142.655 164.374C142.655 164.703 142.579 164.989 142.428 165.234C142.276 165.475 142.065 165.664 141.796 165.8C141.527 165.933 141.215 166 140.862 166H139.385ZM140.138 165.382H140.825C141.042 165.382 141.229 165.342 141.387 165.262C141.548 165.178 141.672 165.06 141.759 164.909C141.849 164.757 141.893 164.579 141.893 164.374C141.893 164.167 141.849 163.989 141.759 163.84C141.672 163.689 141.548 163.573 141.387 163.492C141.229 163.408 141.042 163.367 140.825 163.367H140.138V165.382ZM144.704 166V165.512L144.658 165.406V164.532C144.658 164.378 144.61 164.257 144.514 164.17C144.421 164.083 144.277 164.04 144.082 164.04C143.949 164.04 143.817 164.062 143.687 164.105C143.56 164.145 143.452 164.201 143.362 164.272L143.102 163.766C143.238 163.67 143.402 163.596 143.594 163.543C143.786 163.49 143.981 163.464 144.179 163.464C144.56 163.464 144.856 163.554 145.066 163.734C145.277 163.913 145.382 164.193 145.382 164.574V166H144.704ZM143.942 166.037C143.747 166.037 143.58 166.005 143.441 165.94C143.302 165.872 143.195 165.78 143.12 165.666C143.046 165.551 143.009 165.423 143.009 165.28C143.009 165.131 143.045 165.001 143.116 164.89C143.19 164.779 143.306 164.692 143.464 164.63C143.622 164.565 143.828 164.532 144.082 164.532H144.746V164.955H144.161C143.99 164.955 143.873 164.983 143.808 165.039C143.746 165.094 143.715 165.164 143.715 165.248C143.715 165.34 143.751 165.415 143.822 165.471C143.896 165.523 143.997 165.549 144.124 165.549C144.244 165.549 144.353 165.522 144.449 165.466C144.545 165.407 144.614 165.322 144.658 165.21L144.769 165.545C144.717 165.706 144.621 165.828 144.481 165.912C144.342 165.995 144.162 166.037 143.942 166.037ZM147.06 166.037C146.766 166.037 146.537 165.963 146.372 165.814C146.208 165.663 146.126 165.438 146.126 165.141V162.949H146.851V165.131C146.851 165.237 146.879 165.319 146.934 165.378C146.99 165.433 147.066 165.461 147.162 165.461C147.277 165.461 147.374 165.43 147.455 165.368L147.65 165.879C147.575 165.932 147.486 165.972 147.38 166C147.278 166.025 147.171 166.037 147.06 166.037ZM145.741 164.114V163.557H147.473V164.114H145.741ZM149.589 166V165.512L149.543 165.406V164.532C149.543 164.378 149.495 164.257 149.399 164.17C149.306 164.083 149.162 164.04 148.967 164.04C148.834 164.04 148.702 164.062 148.572 164.105C148.445 164.145 148.337 164.201 148.247 164.272L147.987 163.766C148.123 163.67 148.287 163.596 148.479 163.543C148.671 163.49 148.866 163.464 149.064 163.464C149.445 163.464 149.741 163.554 149.951 163.734C150.162 163.913 150.267 164.193 150.267 164.574V166H149.589ZM148.827 166.037C148.632 166.037 148.465 166.005 148.326 165.94C148.186 165.872 148.08 165.78 148.005 165.666C147.931 165.551 147.894 165.423 147.894 165.28C147.894 165.131 147.929 165.001 148.001 164.89C148.075 164.779 148.191 164.692 148.349 164.63C148.507 164.565 148.713 164.532 148.967 164.532H149.631V164.955H149.046C148.875 164.955 148.758 164.983 148.693 165.039C148.631 165.094 148.6 165.164 148.6 165.248C148.6 165.34 148.635 165.415 148.707 165.471C148.781 165.523 148.882 165.549 149.008 165.549C149.129 165.549 149.238 165.522 149.334 165.466C149.43 165.407 149.499 165.322 149.543 165.21L149.654 165.545C149.601 165.706 149.505 165.828 149.366 165.912C149.227 165.995 149.047 166.037 148.827 166.037ZM153.845 166.056C153.594 166.056 153.361 166.015 153.144 165.935C152.93 165.851 152.744 165.734 152.586 165.582C152.429 165.43 152.305 165.252 152.215 165.048C152.128 164.844 152.085 164.619 152.085 164.374C152.085 164.13 152.128 163.905 152.215 163.701C152.305 163.497 152.429 163.319 152.586 163.167C152.747 163.015 152.935 162.899 153.148 162.819C153.362 162.735 153.596 162.693 153.85 162.693C154.132 162.693 154.385 162.743 154.611 162.842C154.841 162.938 155.033 163.08 155.187 163.269L154.704 163.715C154.593 163.588 154.469 163.494 154.333 163.432C154.197 163.367 154.048 163.334 153.887 163.334C153.735 163.334 153.596 163.359 153.469 163.408C153.342 163.458 153.232 163.529 153.139 163.622C153.046 163.715 152.974 163.825 152.921 163.952C152.871 164.079 152.847 164.22 152.847 164.374C152.847 164.529 152.871 164.67 152.921 164.797C152.974 164.924 153.046 165.034 153.139 165.127C153.232 165.22 153.342 165.291 153.469 165.34C153.596 165.39 153.735 165.415 153.887 165.415C154.048 165.415 154.197 165.384 154.333 165.322C154.469 165.257 154.593 165.159 154.704 165.029L155.187 165.475C155.033 165.664 154.841 165.808 154.611 165.907C154.385 166.006 154.13 166.056 153.845 166.056ZM156.64 166.037C156.432 166.037 156.246 165.997 156.082 165.916C155.921 165.836 155.796 165.714 155.706 165.549C155.616 165.382 155.571 165.17 155.571 164.913V163.501H156.296V164.806C156.296 165.014 156.339 165.167 156.426 165.266C156.516 165.362 156.641 165.41 156.802 165.41C156.914 165.41 157.013 165.387 157.1 165.34C157.186 165.291 157.254 165.217 157.304 165.118C157.353 165.015 157.378 164.888 157.378 164.737V163.501H158.103V166H157.415V165.313L157.541 165.512C157.457 165.686 157.333 165.817 157.169 165.907C157.008 165.994 156.832 166.037 156.64 166.037ZM158.774 166V162.554H159.498V166H158.774ZM161.379 166.037C161.084 166.037 160.855 165.963 160.691 165.814C160.527 165.663 160.445 165.438 160.445 165.141V162.949H161.17V165.131C161.17 165.237 161.198 165.319 161.253 165.378C161.309 165.433 161.385 165.461 161.481 165.461C161.595 165.461 161.693 165.43 161.773 165.368L161.968 165.879C161.894 165.932 161.804 165.972 161.699 166C161.597 166.025 161.49 166.037 161.379 166.037ZM160.06 164.114V163.557H161.792V164.114H160.06ZM163.429 166.037C163.222 166.037 163.036 165.997 162.872 165.916C162.711 165.836 162.586 165.714 162.496 165.549C162.406 165.382 162.361 165.17 162.361 164.913V163.501H163.086V164.806C163.086 165.014 163.129 165.167 163.216 165.266C163.306 165.362 163.431 165.41 163.592 165.41C163.704 165.41 163.803 165.387 163.889 165.34C163.976 165.291 164.044 165.217 164.094 165.118C164.143 165.015 164.168 164.888 164.168 164.737V163.501H164.892V166H164.205V165.313L164.331 165.512C164.247 165.686 164.123 165.817 163.959 165.907C163.798 165.994 163.621 166.037 163.429 166.037ZM165.564 166V163.501H166.256V164.207L166.158 164.003C166.233 163.826 166.352 163.693 166.516 163.603C166.68 163.511 166.88 163.464 167.115 163.464V164.133C167.084 164.13 167.056 164.128 167.031 164.128C167.007 164.125 166.98 164.124 166.952 164.124C166.754 164.124 166.593 164.181 166.469 164.295C166.349 164.407 166.288 164.582 166.288 164.82V166H165.564ZM168.768 166.037C168.483 166.037 168.232 165.981 168.015 165.87C167.802 165.758 167.636 165.607 167.518 165.415C167.401 165.22 167.342 164.998 167.342 164.751C167.342 164.5 167.399 164.278 167.514 164.086C167.631 163.891 167.791 163.74 167.992 163.631C168.193 163.52 168.421 163.464 168.675 163.464C168.919 163.464 169.139 163.517 169.334 163.622C169.532 163.724 169.689 163.873 169.803 164.068C169.918 164.26 169.975 164.491 169.975 164.76C169.975 164.788 169.974 164.82 169.971 164.857C169.968 164.892 169.964 164.924 169.961 164.955H167.932V164.532H169.58L169.302 164.658C169.302 164.528 169.275 164.415 169.223 164.319C169.17 164.223 169.097 164.148 169.005 164.096C168.912 164.04 168.803 164.012 168.679 164.012C168.556 164.012 168.446 164.04 168.35 164.096C168.257 164.148 168.184 164.224 168.131 164.323C168.079 164.419 168.052 164.534 168.052 164.667V164.779C168.052 164.915 168.082 165.036 168.141 165.141C168.203 165.243 168.288 165.322 168.396 165.378C168.508 165.43 168.638 165.457 168.786 165.457C168.919 165.457 169.036 165.436 169.135 165.396C169.237 165.356 169.33 165.296 169.413 165.215L169.799 165.633C169.684 165.763 169.54 165.864 169.367 165.935C169.193 166.003 168.994 166.037 168.768 166.037ZM170.732 166.037C170.608 166.037 170.501 165.995 170.411 165.912C170.324 165.825 170.281 165.715 170.281 165.582C170.281 165.449 170.324 165.342 170.411 165.262C170.501 165.178 170.608 165.136 170.732 165.136C170.859 165.136 170.965 165.178 171.052 165.262C171.139 165.342 171.182 165.449 171.182 165.582C171.182 165.715 171.139 165.825 171.052 165.912C170.965 165.995 170.859 166.037 170.732 166.037ZM172.775 162.749H173.643L174.317 163.734L174.99 162.749H175.873L174.791 164.305L175.961 166H175.074L174.317 164.922L173.569 166H172.701L173.862 164.337L172.775 162.749ZM177.435 166.037C177.15 166.037 176.899 165.981 176.683 165.87C176.469 165.758 176.303 165.607 176.186 165.415C176.068 165.22 176.009 164.998 176.009 164.751C176.009 164.5 176.067 164.278 176.181 164.086C176.299 163.891 176.458 163.74 176.659 163.631C176.861 163.52 177.088 163.464 177.342 163.464C177.587 163.464 177.807 163.517 178.002 163.622C178.2 163.724 178.356 163.873 178.471 164.068C178.585 164.26 178.643 164.491 178.643 164.76C178.643 164.788 178.641 164.82 178.638 164.857C178.635 164.892 178.632 164.924 178.629 164.955H176.599V164.532H178.248L177.969 164.658C177.969 164.528 177.943 164.415 177.89 164.319C177.838 164.223 177.765 164.148 177.672 164.096C177.579 164.04 177.471 164.012 177.347 164.012C177.223 164.012 177.113 164.04 177.017 164.096C176.924 164.148 176.851 164.224 176.799 164.323C176.746 164.419 176.72 164.534 176.72 164.667V164.779C176.72 164.915 176.749 165.036 176.808 165.141C176.87 165.243 176.955 165.322 177.064 165.378C177.175 165.43 177.305 165.457 177.454 165.457C177.587 165.457 177.703 165.436 177.802 165.396C177.904 165.356 177.997 165.296 178.081 165.215L178.466 165.633C178.352 165.763 178.208 165.864 178.034 165.935C177.861 166.003 177.661 166.037 177.435 166.037ZM179.198 166V163.501H179.918V164.477H181.005V163.501H181.729V166H181.005V165.066H179.918V166H179.198ZM184.141 165.675V164.096H183.324L183.31 164.416C183.304 164.549 183.296 164.676 183.287 164.797C183.277 164.918 183.259 165.028 183.231 165.127C183.206 165.223 183.169 165.305 183.12 165.373C183.07 165.438 183.003 165.483 182.92 165.508L182.205 165.406C182.294 165.406 182.367 165.379 182.423 165.327C182.479 165.271 182.522 165.195 182.553 165.099C182.584 165 182.607 164.888 182.623 164.765C182.638 164.638 182.649 164.504 182.655 164.365L182.688 163.501H184.866V165.675H184.141ZM182.121 166.539V165.406H185.223V166.539H184.55V166H182.794V166.539H182.121ZM186.919 166.056C186.715 166.056 186.529 166.026 186.362 165.967C186.195 165.906 186.049 165.811 185.926 165.684C185.805 165.554 185.71 165.388 185.642 165.187C185.577 164.986 185.545 164.746 185.545 164.467C185.545 164.269 185.562 164.088 185.596 163.924C185.63 163.76 185.681 163.611 185.749 163.478C185.817 163.342 185.904 163.223 186.009 163.12C186.118 163.015 186.243 162.928 186.385 162.86C186.531 162.789 186.695 162.735 186.878 162.698L188.067 162.461L188.164 163.083L187.115 163.292C187.053 163.305 186.981 163.322 186.901 163.343C186.823 163.362 186.745 163.391 186.664 163.432C186.587 163.472 186.514 163.529 186.446 163.603C186.381 163.675 186.328 163.769 186.288 163.887C186.248 164.001 186.227 164.144 186.227 164.314C186.227 164.367 186.229 164.407 186.232 164.435C186.238 164.463 186.243 164.492 186.246 164.523C186.252 164.554 186.255 164.602 186.255 164.667L186.023 164.439C186.091 164.294 186.178 164.17 186.283 164.068C186.392 163.966 186.515 163.888 186.655 163.836C186.797 163.78 186.955 163.752 187.128 163.752C187.364 163.752 187.57 163.8 187.746 163.896C187.926 163.989 188.065 164.121 188.164 164.291C188.263 164.461 188.313 164.655 188.313 164.871C188.313 165.107 188.254 165.314 188.136 165.494C188.019 165.67 187.855 165.808 187.644 165.907C187.437 166.006 187.195 166.056 186.919 166.056ZM186.957 165.494C187.077 165.494 187.184 165.467 187.277 165.415C187.37 165.359 187.441 165.286 187.491 165.197C187.543 165.104 187.57 165 187.57 164.885C187.57 164.774 187.543 164.675 187.491 164.588C187.441 164.501 187.37 164.433 187.277 164.384C187.184 164.334 187.076 164.309 186.952 164.309C186.831 164.309 186.723 164.334 186.627 164.384C186.531 164.43 186.457 164.495 186.404 164.579C186.351 164.662 186.325 164.76 186.325 164.871C186.325 164.986 186.351 165.091 186.404 165.187C186.46 165.28 186.534 165.354 186.627 165.41C186.723 165.466 186.833 165.494 186.957 165.494ZM189.075 166.938C188.945 166.938 188.817 166.918 188.69 166.878C188.563 166.838 188.459 166.782 188.379 166.711L188.643 166.195C188.699 166.245 188.763 166.283 188.834 166.311C188.908 166.339 188.981 166.353 189.052 166.353C189.154 166.353 189.235 166.328 189.294 166.279C189.356 166.232 189.411 166.153 189.461 166.042L189.591 165.735L189.647 165.656L190.543 163.501H191.24L190.111 166.153C190.031 166.355 189.938 166.512 189.832 166.627C189.73 166.742 189.616 166.822 189.489 166.869C189.365 166.915 189.227 166.938 189.075 166.938ZM189.503 166.098L188.388 163.501H189.136L190 165.591L189.503 166.098ZM193.359 166L192.523 164.816L193.113 164.467L194.213 166H193.359ZM191.589 166V163.501H192.314V166H191.589ZM192.1 165.053V164.472H192.973V165.053H192.1ZM193.182 164.834L192.504 164.76L193.382 163.501H194.153L193.182 164.834ZM195.884 166V163.501H198.369V166H197.645V163.933L197.807 164.096H196.442L196.604 163.933V166H195.884ZM200.234 166.037C199.968 166.037 199.731 165.981 199.524 165.87C199.319 165.758 199.157 165.607 199.036 165.415C198.918 165.22 198.86 164.998 198.86 164.751C198.86 164.5 198.918 164.278 199.036 164.086C199.157 163.891 199.319 163.74 199.524 163.631C199.731 163.52 199.968 163.464 200.234 163.464C200.497 163.464 200.733 163.52 200.94 163.631C201.148 163.74 201.31 163.89 201.428 164.082C201.546 164.274 201.604 164.497 201.604 164.751C201.604 164.998 201.546 165.22 201.428 165.415C201.31 165.607 201.148 165.758 200.94 165.87C200.733 165.981 200.497 166.037 200.234 166.037ZM200.234 165.443C200.355 165.443 200.463 165.415 200.559 165.359C200.655 165.303 200.731 165.224 200.787 165.122C200.843 165.017 200.871 164.893 200.871 164.751C200.871 164.605 200.843 164.481 200.787 164.379C200.731 164.277 200.655 164.198 200.559 164.142C200.463 164.086 200.355 164.059 200.234 164.059C200.114 164.059 200.005 164.086 199.909 164.142C199.813 164.198 199.736 164.277 199.677 164.379C199.621 164.481 199.593 164.605 199.593 164.751C199.593 164.893 199.621 165.017 199.677 165.122C199.736 165.224 199.813 165.303 199.909 165.359C200.005 165.415 200.114 165.443 200.234 165.443ZM204.914 166V165.512L204.867 165.406V164.532C204.867 164.378 204.819 164.257 204.723 164.17C204.63 164.083 204.486 164.04 204.291 164.04C204.158 164.04 204.027 164.062 203.896 164.105C203.77 164.145 203.661 164.201 203.571 164.272L203.311 163.766C203.447 163.67 203.612 163.596 203.804 163.543C203.996 163.49 204.191 163.464 204.389 163.464C204.77 163.464 205.065 163.554 205.276 163.734C205.486 163.913 205.592 164.193 205.592 164.574V166H204.914ZM204.152 166.037C203.957 166.037 203.79 166.005 203.65 165.94C203.511 165.872 203.404 165.78 203.33 165.666C203.256 165.551 203.218 165.423 203.218 165.28C203.218 165.131 203.254 165.001 203.325 164.89C203.4 164.779 203.516 164.692 203.674 164.63C203.831 164.565 204.037 164.532 204.291 164.532H204.955V164.955H204.37C204.2 164.955 204.082 164.983 204.017 165.039C203.955 165.094 203.924 165.164 203.924 165.248C203.924 165.34 203.96 165.415 204.031 165.471C204.105 165.523 204.206 165.549 204.333 165.549C204.454 165.549 204.562 165.522 204.658 165.466C204.754 165.407 204.824 165.322 204.867 165.21L204.979 165.545C204.926 165.706 204.83 165.828 204.691 165.912C204.551 165.995 204.372 166.037 204.152 166.037ZM206.221 166V163.501H206.941V164.477H208.028V163.501H208.752V166H208.028V165.066H206.941V166H206.221ZM210.941 166V165.512L210.895 165.406V164.532C210.895 164.378 210.847 164.257 210.751 164.17C210.658 164.083 210.514 164.04 210.319 164.04C210.186 164.04 210.054 164.062 209.924 164.105C209.797 164.145 209.689 164.201 209.599 164.272L209.339 163.766C209.475 163.67 209.639 163.596 209.831 163.543C210.023 163.49 210.218 163.464 210.417 163.464C210.797 163.464 211.093 163.554 211.304 163.734C211.514 163.913 211.619 164.193 211.619 164.574V166H210.941ZM210.18 166.037C209.985 166.037 209.817 166.005 209.678 165.94C209.539 165.872 209.432 165.78 209.358 165.666C209.283 165.551 209.246 165.423 209.246 165.28C209.246 165.131 209.282 165.001 209.353 164.89C209.427 164.779 209.543 164.692 209.701 164.63C209.859 164.565 210.065 164.532 210.319 164.532H210.983V164.955H210.398C210.228 164.955 210.11 164.983 210.045 165.039C209.983 165.094 209.952 165.164 209.952 165.248C209.952 165.34 209.988 165.415 210.059 165.471C210.133 165.523 210.234 165.549 210.361 165.549C210.482 165.549 210.59 165.522 210.686 165.466C210.782 165.407 210.852 165.322 210.895 165.21L211.006 165.545C210.954 165.706 210.858 165.828 210.718 165.912C210.579 165.995 210.4 166.037 210.18 166.037ZM211.933 165.995L211.97 165.401C211.989 165.404 212.007 165.407 212.026 165.41C212.045 165.41 212.062 165.41 212.077 165.41C212.164 165.41 212.232 165.385 212.281 165.336C212.331 165.286 212.368 165.22 212.393 165.136C212.418 165.049 212.435 164.952 212.444 164.844C212.456 164.735 212.466 164.622 212.472 164.504L212.509 163.501H214.645V166H213.921V163.919L214.083 164.096H212.987L213.141 163.91L213.108 164.537C213.099 164.76 213.08 164.964 213.052 165.15C213.028 165.336 212.986 165.497 212.927 165.633C212.868 165.766 212.789 165.87 212.69 165.944C212.591 166.015 212.464 166.051 212.309 166.051C212.254 166.051 212.195 166.046 212.133 166.037C212.071 166.028 212.004 166.014 211.933 165.995ZM215.342 166V163.501H216.062V164.988L217.279 163.501H217.943V166H217.223V164.514L216.011 166H215.342ZM219.462 166.046C219.27 166.046 219.078 166.026 218.886 165.986C218.697 165.946 218.522 165.885 218.361 165.805L218.556 165.299C218.683 165.361 218.821 165.409 218.97 165.443C219.122 165.474 219.275 165.489 219.43 165.489C219.541 165.489 219.637 165.478 219.718 165.457C219.801 165.432 219.865 165.398 219.908 165.354C219.951 165.311 219.973 165.258 219.973 165.197C219.973 165.116 219.939 165.056 219.871 165.015C219.803 164.972 219.704 164.95 219.574 164.95H219.063V164.5H219.513C219.597 164.5 219.668 164.491 219.727 164.472C219.786 164.453 219.829 164.427 219.857 164.393C219.888 164.356 219.903 164.313 219.903 164.263C219.903 164.21 219.885 164.165 219.848 164.128C219.81 164.091 219.756 164.063 219.685 164.045C219.614 164.023 219.524 164.012 219.416 164.012C219.292 164.012 219.163 164.028 219.03 164.059C218.897 164.086 218.761 164.128 218.621 164.184L218.445 163.682C218.609 163.614 218.772 163.56 218.933 163.52C219.094 163.48 219.253 163.458 219.411 163.455C219.643 163.449 219.852 163.473 220.038 163.529C220.224 163.585 220.369 163.665 220.475 163.771C220.583 163.876 220.637 164.004 220.637 164.156C220.637 164.277 220.6 164.385 220.526 164.481C220.454 164.577 220.355 164.653 220.228 164.709C220.102 164.761 219.959 164.788 219.801 164.788L219.82 164.644C220.095 164.644 220.312 164.7 220.47 164.811C220.628 164.919 220.707 165.068 220.707 165.257C220.707 165.418 220.651 165.559 220.54 165.68C220.431 165.797 220.283 165.889 220.094 165.954C219.908 166.015 219.697 166.046 219.462 166.046ZM221.564 166.938C221.434 166.938 221.305 166.918 221.178 166.878C221.051 166.838 220.948 166.782 220.867 166.711L221.132 166.195C221.188 166.245 221.251 166.283 221.322 166.311C221.397 166.339 221.469 166.353 221.541 166.353C221.643 166.353 221.723 166.328 221.782 166.279C221.844 166.232 221.9 166.153 221.949 166.042L222.079 165.735L222.135 165.656L223.031 163.501H223.728L222.6 166.153C222.519 166.355 222.426 166.512 222.321 166.627C222.219 166.742 222.104 166.822 221.977 166.869C221.853 166.915 221.716 166.938 221.564 166.938ZM221.991 166.098L220.876 163.501H221.624L222.488 165.591L221.991 166.098ZM227.111 165.675V164.096H226.294L226.28 164.416C226.274 164.549 226.266 164.676 226.257 164.797C226.248 164.918 226.229 165.028 226.201 165.127C226.176 165.223 226.139 165.305 226.09 165.373C226.04 165.438 225.974 165.483 225.89 165.508L225.175 165.406C225.265 165.406 225.337 165.379 225.393 165.327C225.449 165.271 225.492 165.195 225.523 165.099C225.554 165 225.577 164.888 225.593 164.765C225.608 164.638 225.619 164.504 225.625 164.365L225.658 163.501H227.836V165.675H227.111ZM225.091 166.539V165.406H228.194V166.539H227.52V166H225.765V166.539H225.091ZM230.145 166V165.512L230.099 165.406V164.532C230.099 164.378 230.051 164.257 229.955 164.17C229.862 164.083 229.718 164.04 229.523 164.04C229.39 164.04 229.258 164.062 229.128 164.105C229.001 164.145 228.893 164.201 228.803 164.272L228.543 163.766C228.679 163.67 228.843 163.596 229.035 163.543C229.227 163.49 229.422 163.464 229.62 163.464C230.001 163.464 230.297 163.554 230.507 163.734C230.718 163.913 230.823 164.193 230.823 164.574V166H230.145ZM229.383 166.037C229.188 166.037 229.021 166.005 228.882 165.94C228.742 165.872 228.636 165.78 228.561 165.666C228.487 165.551 228.45 165.423 228.45 165.28C228.45 165.131 228.485 165.001 228.557 164.89C228.631 164.779 228.747 164.692 228.905 164.63C229.063 164.565 229.269 164.532 229.523 164.532H230.187V164.955H229.602C229.431 164.955 229.314 164.983 229.249 165.039C229.187 165.094 229.156 165.164 229.156 165.248C229.156 165.34 229.191 165.415 229.263 165.471C229.337 165.523 229.438 165.549 229.565 165.549C229.685 165.549 229.794 165.522 229.89 165.466C229.986 165.407 230.055 165.322 230.099 165.21L230.21 165.545C230.157 165.706 230.061 165.828 229.922 165.912C229.783 165.995 229.603 166.037 229.383 166.037ZM231.453 166V163.501H232.172V164.477H233.259V163.501H233.984V166H233.259V165.066H232.172V166H231.453ZM234.677 166V163.501H235.397V164.477H236.484V163.501H237.209V166H236.484V165.066H235.397V166H234.677ZM240.475 166V163.501H241.195V166H240.475ZM239.217 164.3C239.545 164.303 239.791 164.378 239.955 164.523C240.122 164.665 240.206 164.868 240.206 165.131C240.206 165.407 240.111 165.622 239.923 165.777C239.734 165.929 239.466 166.005 239.119 166.005L237.902 166V163.501H238.622V164.3H239.217ZM239.054 165.489C239.193 165.492 239.3 165.463 239.374 165.401C239.449 165.339 239.486 165.246 239.486 165.122C239.486 164.998 239.449 164.91 239.374 164.857C239.3 164.802 239.193 164.772 239.054 164.769L238.622 164.765V165.489H239.054ZM241.559 166L242.678 164.532L242.664 164.932L241.592 163.501H242.404L243.082 164.435L242.776 164.444L243.477 163.501H244.248L243.171 164.918V164.528L244.285 166H243.463L242.753 165.006L243.055 165.048L242.349 166H241.559ZM244.902 166.037C244.778 166.037 244.671 165.995 244.582 165.912C244.495 165.825 244.452 165.715 244.452 165.582C244.452 165.449 244.495 165.342 244.582 165.262C244.671 165.178 244.778 165.136 244.902 165.136C245.029 165.136 245.136 165.178 245.223 165.262C245.309 165.342 245.353 165.449 245.353 165.582C245.353 165.715 245.309 165.825 245.223 165.912C245.136 165.995 245.029 166.037 244.902 166.037ZM249.458 162.749H250.21V166H249.458V162.749ZM247.981 166H247.229V162.749H247.981V166ZM249.514 164.667H247.925V164.031H249.514V164.667ZM252.465 166V165.512L252.418 165.406V164.532C252.418 164.378 252.37 164.257 252.274 164.17C252.181 164.083 252.037 164.04 251.842 164.04C251.709 164.04 251.578 164.062 251.448 164.105C251.321 164.145 251.212 164.201 251.122 164.272L250.862 163.766C250.999 163.67 251.163 163.596 251.355 163.543C251.547 163.49 251.742 163.464 251.94 163.464C252.321 163.464 252.616 163.554 252.827 163.734C253.038 163.913 253.143 164.193 253.143 164.574V166H252.465ZM251.703 166.037C251.508 166.037 251.341 166.005 251.201 165.94C251.062 165.872 250.955 165.78 250.881 165.666C250.807 165.551 250.77 165.423 250.77 165.28C250.77 165.131 250.805 165.001 250.876 164.89C250.951 164.779 251.067 164.692 251.225 164.63C251.383 164.565 251.588 164.532 251.842 164.532H252.507V164.955H251.921C251.751 164.955 251.633 164.983 251.568 165.039C251.506 165.094 251.475 165.164 251.475 165.248C251.475 165.34 251.511 165.415 251.582 165.471C251.657 165.523 251.757 165.549 251.884 165.549C252.005 165.549 252.113 165.522 252.209 165.466C252.305 165.407 252.375 165.322 252.418 165.21L252.53 165.545C252.477 165.706 252.381 165.828 252.242 165.912C252.102 165.995 251.923 166.037 251.703 166.037ZM255.347 165.043C255.244 165.099 255.131 165.144 255.008 165.178C254.884 165.212 254.748 165.229 254.599 165.229C254.271 165.229 254.018 165.155 253.842 165.006C253.665 164.854 253.577 164.614 253.577 164.286V163.501H254.302V164.24C254.302 164.395 254.342 164.506 254.422 164.574C254.503 164.639 254.616 164.672 254.761 164.672C254.867 164.672 254.967 164.659 255.063 164.635C255.162 164.61 255.257 164.574 255.347 164.528V165.043ZM255.296 166V163.501H256.02V166H255.296ZM258.211 166V165.512L258.165 165.406V164.532C258.165 164.378 258.117 164.257 258.021 164.17C257.928 164.083 257.784 164.04 257.589 164.04C257.456 164.04 257.324 164.062 257.194 164.105C257.067 164.145 256.959 164.201 256.869 164.272L256.609 163.766C256.745 163.67 256.909 163.596 257.101 163.543C257.293 163.49 257.488 163.464 257.686 163.464C258.067 163.464 258.363 163.554 258.574 163.734C258.784 163.913 258.889 164.193 258.889 164.574V166H258.211ZM257.45 166.037C257.255 166.037 257.087 166.005 256.948 165.94C256.809 165.872 256.702 165.78 256.628 165.666C256.553 165.551 256.516 165.423 256.516 165.28C256.516 165.131 256.552 165.001 256.623 164.89C256.697 164.779 256.813 164.692 256.971 164.63C257.129 164.565 257.335 164.532 257.589 164.532H258.253V164.955H257.668C257.498 164.955 257.38 164.983 257.315 165.039C257.253 165.094 257.222 165.164 257.222 165.248C257.222 165.34 257.258 165.415 257.329 165.471C257.403 165.523 257.504 165.549 257.631 165.549C257.752 165.549 257.86 165.522 257.956 165.466C258.052 165.407 258.122 165.322 258.165 165.21L258.276 165.545C258.224 165.706 258.128 165.828 257.988 165.912C257.849 165.995 257.669 166.037 257.45 166.037ZM259.203 165.995L259.24 165.401C259.259 165.404 259.277 165.407 259.296 165.41C259.314 165.41 259.331 165.41 259.347 165.41C259.434 165.41 259.502 165.385 259.551 165.336C259.601 165.286 259.638 165.22 259.663 165.136C259.688 165.049 259.705 164.952 259.714 164.844C259.726 164.735 259.736 164.622 259.742 164.504L259.779 163.501H261.915V166H261.191V163.919L261.353 164.096H260.257L260.411 163.91L260.378 164.537C260.369 164.76 260.35 164.964 260.322 165.15C260.298 165.336 260.256 165.497 260.197 165.633C260.138 165.766 260.059 165.87 259.96 165.944C259.861 166.015 259.734 166.051 259.579 166.051C259.523 166.051 259.465 166.046 259.403 166.037C259.341 166.028 259.274 166.014 259.203 165.995ZM263.964 164.3C264.292 164.303 264.541 164.378 264.711 164.523C264.885 164.665 264.971 164.868 264.971 165.131C264.971 165.407 264.874 165.622 264.679 165.777C264.484 165.929 264.213 166.005 263.866 166.005L262.612 166V163.501H263.332V164.3H263.964ZM263.801 165.489C263.94 165.492 264.047 165.463 264.122 165.401C264.196 165.339 264.233 165.246 264.233 165.122C264.233 164.998 264.196 164.91 264.122 164.857C264.047 164.802 263.94 164.772 263.801 164.769L263.332 164.765V165.489H263.801ZM265.424 166V163.501H266.144V164.477H267.231V163.501H267.955V166H267.231V165.066H266.144V166H265.424ZM271.222 166V163.501H271.942V166H271.222ZM269.963 164.3C270.292 164.303 270.538 164.378 270.702 164.523C270.869 164.665 270.953 164.868 270.953 165.131C270.953 165.407 270.858 165.622 270.669 165.777C270.48 165.929 270.213 166.005 269.866 166.005L268.649 166V163.501H269.369V164.3H269.963ZM269.801 165.489C269.94 165.492 270.047 165.463 270.121 165.401C270.196 165.339 270.233 165.246 270.233 165.122C270.233 164.998 270.196 164.91 270.121 164.857C270.047 164.802 269.94 164.772 269.801 164.769L269.369 164.765V165.489H269.801ZM272.64 166V163.501H273.36V164.988L274.577 163.501H275.241V166H274.521V164.514L273.309 166H272.64ZM273.894 163.232C273.622 163.232 273.417 163.173 273.281 163.055C273.145 162.935 273.075 162.754 273.072 162.512H273.546C273.549 162.617 273.578 162.701 273.634 162.763C273.69 162.825 273.775 162.856 273.89 162.856C274.001 162.856 274.086 162.825 274.145 162.763C274.207 162.701 274.238 162.617 274.238 162.512H274.721C274.721 162.754 274.651 162.935 274.512 163.055C274.373 163.173 274.167 163.232 273.894 163.232ZM277.592 166.938C277.462 166.938 277.333 166.918 277.207 166.878C277.08 166.838 276.976 166.782 276.895 166.711L277.16 166.195C277.216 166.245 277.279 166.283 277.35 166.311C277.425 166.339 277.498 166.353 277.569 166.353C277.671 166.353 277.751 166.328 277.81 166.279C277.872 166.232 277.928 166.153 277.977 166.042L278.108 165.735L278.163 165.656L279.06 163.501H279.756L278.628 166.153C278.547 166.355 278.454 166.512 278.349 166.627C278.247 166.742 278.132 166.822 278.005 166.869C277.881 166.915 277.744 166.938 277.592 166.938ZM278.019 166.098L276.905 163.501H277.652L278.516 165.591L278.019 166.098ZM281.578 166.037C281.368 166.037 281.183 165.991 281.025 165.898C280.868 165.805 280.744 165.664 280.654 165.475C280.567 165.283 280.524 165.042 280.524 164.751C280.524 164.456 280.566 164.215 280.649 164.026C280.733 163.837 280.854 163.696 281.012 163.603C281.169 163.511 281.358 163.464 281.578 163.464C281.813 163.464 282.024 163.518 282.21 163.627C282.399 163.732 282.547 163.881 282.656 164.073C282.767 164.265 282.823 164.491 282.823 164.751C282.823 165.014 282.767 165.241 282.656 165.433C282.547 165.625 282.399 165.774 282.21 165.879C282.024 165.985 281.813 166.037 281.578 166.037ZM280.101 166.901V163.501H280.793V164.012L280.779 164.755L280.826 165.494V166.901H280.101ZM281.453 165.443C281.573 165.443 281.68 165.415 281.773 165.359C281.869 165.303 281.945 165.224 282.001 165.122C282.06 165.017 282.089 164.893 282.089 164.751C282.089 164.605 282.06 164.481 282.001 164.379C281.945 164.277 281.869 164.198 281.773 164.142C281.68 164.086 281.573 164.059 281.453 164.059C281.332 164.059 281.224 164.086 281.128 164.142C281.032 164.198 280.956 164.277 280.9 164.379C280.844 164.481 280.816 164.605 280.816 164.751C280.816 164.893 280.844 165.017 280.9 165.122C280.956 165.224 281.032 165.303 281.128 165.359C281.224 165.415 281.332 165.443 281.453 165.443ZM284.501 166.037C284.235 166.037 283.998 165.981 283.79 165.87C283.586 165.758 283.424 165.607 283.303 165.415C283.185 165.22 283.126 164.998 283.126 164.751C283.126 164.5 283.185 164.278 283.303 164.086C283.424 163.891 283.586 163.74 283.79 163.631C283.998 163.52 284.235 163.464 284.501 163.464C284.764 163.464 285 163.52 285.207 163.631C285.414 163.74 285.577 163.89 285.695 164.082C285.812 164.274 285.871 164.497 285.871 164.751C285.871 164.998 285.812 165.22 285.695 165.415C285.577 165.607 285.414 165.758 285.207 165.87C285 165.981 284.764 166.037 284.501 166.037ZM284.501 165.443C284.622 165.443 284.73 165.415 284.826 165.359C284.922 165.303 284.998 165.224 285.054 165.122C285.109 165.017 285.137 164.893 285.137 164.751C285.137 164.605 285.109 164.481 285.054 164.379C284.998 164.277 284.922 164.198 284.826 164.142C284.73 164.086 284.622 164.059 284.501 164.059C284.38 164.059 284.272 164.086 284.176 164.142C284.08 164.198 284.003 164.277 283.944 164.379C283.888 164.481 283.86 164.605 283.86 164.751C283.86 164.893 283.888 165.017 283.944 165.122C284.003 165.224 284.08 165.303 284.176 165.359C284.272 165.415 284.38 165.443 284.501 165.443ZM286.369 166V163.501H287.647C287.959 163.501 288.204 163.559 288.381 163.673C288.557 163.785 288.645 163.943 288.645 164.147C288.645 164.351 288.562 164.512 288.394 164.63C288.23 164.744 288.012 164.802 287.74 164.802L287.814 164.635C288.117 164.635 288.343 164.69 288.492 164.802C288.644 164.913 288.72 165.076 288.72 165.289C288.72 165.509 288.636 165.683 288.469 165.81C288.302 165.937 288.046 166 287.702 166H286.369ZM287.034 165.508H287.642C287.775 165.508 287.874 165.486 287.939 165.443C288.007 165.396 288.041 165.327 288.041 165.234C288.041 165.138 288.011 165.068 287.949 165.025C287.887 164.978 287.789 164.955 287.656 164.955H287.034V165.508ZM287.034 164.528H287.582C287.709 164.528 287.803 164.504 287.865 164.458C287.93 164.412 287.963 164.345 287.963 164.258C287.963 164.169 287.93 164.102 287.865 164.059C287.803 164.015 287.709 163.994 287.582 163.994H287.034V164.528ZM290.48 166.037C290.195 166.037 289.944 165.981 289.728 165.87C289.514 165.758 289.348 165.607 289.231 165.415C289.113 165.22 289.054 164.998 289.054 164.751C289.054 164.5 289.112 164.278 289.226 164.086C289.344 163.891 289.503 163.74 289.705 163.631C289.906 163.52 290.133 163.464 290.387 163.464C290.632 163.464 290.852 163.517 291.047 163.622C291.245 163.724 291.401 163.873 291.516 164.068C291.63 164.26 291.688 164.491 291.688 164.76C291.688 164.788 291.686 164.82 291.683 164.857C291.68 164.892 291.677 164.924 291.674 164.955H289.644V164.532H291.293L291.014 164.658C291.014 164.528 290.988 164.415 290.935 164.319C290.883 164.223 290.81 164.148 290.717 164.096C290.624 164.04 290.516 164.012 290.392 164.012C290.268 164.012 290.158 164.04 290.062 164.096C289.969 164.148 289.896 164.224 289.844 164.323C289.791 164.419 289.765 164.534 289.765 164.667V164.779C289.765 164.915 289.794 165.036 289.853 165.141C289.915 165.243 290 165.322 290.109 165.378C290.22 165.43 290.35 165.457 290.499 165.457C290.632 165.457 290.748 165.436 290.847 165.396C290.949 165.356 291.042 165.296 291.126 165.215L291.511 165.633C291.397 165.763 291.253 165.864 291.079 165.935C290.906 166.003 290.706 166.037 290.48 166.037ZM292.243 166V163.501H292.963V164.477H294.05V163.501H294.774V166H294.05V165.066H292.963V166H292.243ZM296.819 164.3C297.148 164.303 297.397 164.378 297.567 164.523C297.741 164.665 297.827 164.868 297.827 165.131C297.827 165.407 297.73 165.622 297.535 165.777C297.34 165.929 297.069 166.005 296.722 166.005L295.468 166V163.501H296.188V164.3H296.819ZM296.657 165.489C296.796 165.492 296.903 165.463 296.977 165.401C297.052 165.339 297.089 165.246 297.089 165.122C297.089 164.998 297.052 164.91 296.977 164.857C296.903 164.802 296.796 164.772 296.657 164.769L296.188 164.765V165.489H296.657Z" fill="#D8D8D8"/>
<rect x="211" y="76" width="45" height="16" rx="8" fill="#FF6B26"/>
<path d="M217.1 88L219.6 84.42L217.26 81H219.13L220.58 83.12L222.03 81H223.93L221.6 84.35L224.12 88H222.21L220.58 85.68L218.97 88H217.1ZM225.029 87.91L225.419 86.68C225.806 86.7933 226.129 86.8267 226.389 86.78C226.656 86.7267 226.893 86.54 227.099 86.22L227.439 85.71L227.589 85.54L229.909 81H231.499L228.519 86.54C228.253 87.04 227.936 87.4233 227.569 87.69C227.209 87.9567 226.813 88.1067 226.379 88.14C225.946 88.18 225.496 88.1033 225.029 87.91ZM227.559 86.89L224.399 81H226.129L228.449 85.7L227.559 86.89ZM240.272 88L238.392 84.63L239.762 83.84L242.142 88H240.272ZM231.612 88L233.992 83.84L235.362 84.63L233.482 88H231.612ZM233.912 84.68L231.742 81H233.452L235.392 84.5L233.912 84.68ZM234.372 85.18V83.83H236.562V85.18H234.372ZM236.092 88V81H237.682V88H236.092ZM237.202 85.18V83.83H239.382V85.18H237.202ZM239.852 84.68L238.352 84.5L240.302 81H242.012L239.852 84.68ZM243.148 88V81H248.438V82.3H244.758V86.7H248.568V88H243.148ZM244.638 85.08V83.82H248.008V85.08H244.638Z" fill="white"/>
<path d="M20.068 140.144C19.38 140.144 18.764 139.976 18.22 139.64C17.676 139.296 17.248 138.8 16.936 138.152C16.624 137.504 16.468 136.72 16.468 135.8C16.468 134.88 16.624 134.096 16.936 133.448C17.248 132.8 17.676 132.308 18.22 131.972C18.764 131.628 19.38 131.456 20.068 131.456C20.764 131.456 21.38 131.628 21.916 131.972C22.46 132.308 22.888 132.8 23.2 133.448C23.512 134.096 23.668 134.88 23.668 135.8C23.668 136.72 23.512 137.504 23.2 138.152C22.888 138.8 22.46 139.296 21.916 139.64C21.38 139.976 20.764 140.144 20.068 140.144ZM20.068 138.5C20.396 138.5 20.68 138.408 20.92 138.224C21.168 138.04 21.36 137.748 21.496 137.348C21.64 136.948 21.712 136.432 21.712 135.8C21.712 135.168 21.64 134.652 21.496 134.252C21.36 133.852 21.168 133.56 20.92 133.376C20.68 133.192 20.396 133.1 20.068 133.1C19.748 133.1 19.464 133.192 19.216 133.376C18.976 133.56 18.784 133.852 18.64 134.252C18.504 134.652 18.436 135.168 18.436 135.8C18.436 136.432 18.504 136.948 18.64 137.348C18.784 137.748 18.976 138.04 19.216 138.224C19.464 138.408 19.748 138.5 20.068 138.5Z" fill="black"/>
<path d="M282.228 138.572V133.028H283.776V138.572H282.228ZM280.152 136.532V135.068H285.864V136.532H280.152ZM295.052 138.344C294.596 138.344 294.2 138.276 293.864 138.14C293.536 138.004 293.248 137.824 293 137.6C292.76 137.376 292.548 137.132 292.364 136.868C292.18 136.604 292.004 136.34 291.836 136.076C291.676 135.804 291.508 135.556 291.332 135.332C291.156 135.108 290.956 134.932 290.732 134.804C290.508 134.668 290.24 134.6 289.928 134.6C289.696 134.6 289.488 134.656 289.304 134.768C289.12 134.872 288.976 135.012 288.872 135.188C288.768 135.364 288.716 135.568 288.716 135.8C288.716 136.024 288.768 136.228 288.872 136.412C288.976 136.588 289.12 136.732 289.304 136.844C289.488 136.948 289.696 137 289.928 137C290.24 137 290.508 136.936 290.732 136.808C290.956 136.672 291.156 136.492 291.332 136.268C291.508 136.044 291.676 135.8 291.836 135.536C292.004 135.272 292.18 135.008 292.364 134.744C292.548 134.472 292.76 134.224 293 134C293.248 133.776 293.536 133.596 293.864 133.46C294.2 133.324 294.596 133.256 295.052 133.256C295.54 133.256 295.976 133.368 296.36 133.592C296.744 133.808 297.048 134.108 297.272 134.492C297.496 134.868 297.608 135.3 297.608 135.788C297.608 136.276 297.496 136.712 297.272 137.096C297.048 137.48 296.744 137.784 296.36 138.008C295.976 138.232 295.54 138.344 295.052 138.344ZM289.796 138.344C289.308 138.344 288.868 138.232 288.476 138.008C288.092 137.784 287.784 137.48 287.552 137.096C287.328 136.712 287.216 136.28 287.216 135.8C287.216 135.312 287.328 134.876 287.552 134.492C287.784 134.108 288.092 133.808 288.476 133.592C288.868 133.368 289.308 133.256 289.796 133.256C290.26 133.256 290.656 133.324 290.984 133.46C291.32 133.596 291.608 133.776 291.848 134C292.088 134.224 292.3 134.468 292.484 134.732C292.668 134.996 292.84 135.264 293 135.536C293.16 135.8 293.328 136.044 293.504 136.268C293.68 136.492 293.88 136.672 294.104 136.808C294.328 136.936 294.596 137 294.908 137C295.14 137 295.348 136.948 295.532 136.844C295.716 136.732 295.86 136.588 295.964 136.412C296.068 136.228 296.12 136.02 296.12 135.788C296.12 135.564 296.068 135.364 295.964 135.188C295.86 135.004 295.716 134.86 295.532 134.756C295.348 134.652 295.14 134.6 294.908 134.6C294.596 134.6 294.328 134.668 294.104 134.804C293.88 134.932 293.68 135.108 293.504 135.332C293.328 135.556 293.16 135.8 293 136.064C292.84 136.328 292.668 136.596 292.484 136.868C292.3 137.132 292.088 137.376 291.848 137.6C291.608 137.824 291.32 138.004 290.984 138.14C290.656 138.276 290.26 138.344 289.796 138.344Z" fill="black"/>
<path d="M25.212 33.088H27.408C27.036 35.8 25.116 37.18 22.836 37.18C20.304 37.18 18.216 35.452 18.216 32.14C18.216 28.9 20.304 27.088 22.836 27.088C25.128 27.088 26.904 28.492 27.36 30.904H25.116C24.864 29.692 23.952 29.104 22.836 29.104C21.408 29.104 20.304 30.064 20.304 32.14C20.304 34.228 21.396 35.176 22.836 35.176C24.048 35.176 25.056 34.504 25.212 33.088ZM32.6025 27.292C34.7025 27.292 35.7945 28.9 35.7945 30.424C35.7945 32.428 34.2825 33.52 32.6865 33.52H30.2625V37H28.1145V27.292H29.5425H32.6025ZM32.5545 31.636C33.3345 31.636 33.9105 31.168 33.9105 30.424C33.9105 29.68 33.2985 29.176 32.5545 29.176H30.2625V31.636H32.5545ZM36.4465 27.292H43.3825V29.236H38.5465V30.964L42.5785 30.988V32.92L38.5465 32.908V35.068H43.3825V37H36.4465V27.292ZM50.3263 35.056V29.236H48.0103V30.436C48.0103 32.56 47.5543 34.024 47.0623 35.056H50.3263ZM52.4863 35.056H53.9863V38.944H52.0543V37H45.4543V38.944H43.5223V35.056C44.7583 35.056 45.6703 35.056 44.6743 35.056C45.5143 35.056 46.1143 32.716 46.1143 30.088V27.292C47.1823 27.292 51.2503 27.292 52.4863 27.292V35.056ZM56.7234 27.292V30.964H60.8154V27.292H62.9754V37H60.8154V32.908H56.7234V37H54.5754V27.292H56.7234ZM64.1028 27.292H71.0388V29.236H66.2028V30.964L70.2348 30.988V32.92L66.2028 32.908V35.068H71.0388V37H64.1028V27.292ZM77.9226 37L74.8746 32.752L73.8186 33.904V37H71.7786V27.292H73.8186V31.324L77.5146 27.292H79.8906L76.2426 31.252L80.3226 37H77.9226ZM80.7434 27.292H84.7874C86.5754 27.292 87.8234 28.72 87.8234 30.136C87.8234 31.336 87.0074 32.164 86.6834 32.164C87.5954 32.164 88.5314 33.148 88.5314 34.396C88.5314 35.716 87.4994 37 85.7114 37H80.7434V27.292ZM82.8914 29.176V31.204H84.9674C85.5194 31.204 85.9634 30.736 85.9634 30.196C85.9634 29.656 85.4954 29.176 84.9794 29.176H82.8914ZM85.5794 35.116C86.1314 35.116 86.5754 34.672 86.5754 34.12C86.5754 33.556 86.1194 33.088 85.5554 33.088H82.8914V35.116H85.5794ZM95.7549 37L94.9989 34.996H91.4229L90.6669 37H88.6269L92.1909 27.292H94.4469L97.7949 37H95.7549ZM92.0949 33.208H94.3269L93.2109 30.256L92.0949 33.208ZM104.666 35.056V29.236H102.35V30.436C102.35 32.56 101.894 34.024 101.402 35.056H104.666ZM106.826 35.056H108.326V38.944H106.394V37H99.7942V38.944H97.8622V35.056C99.0982 35.056 100.01 35.056 99.0142 35.056C99.8542 35.056 100.454 32.716 100.454 30.088V27.292C101.522 27.292 105.59 27.292 106.826 27.292V35.056ZM113.403 27.292C115.503 27.292 116.595 28.9 116.595 30.424C116.595 32.428 115.083 33.52 113.487 33.52H111.063V37H108.915V27.292H110.343H113.403ZM113.355 31.636C114.135 31.636 114.711 31.168 114.711 30.424C114.711 29.68 114.099 29.176 113.355 29.176H111.063V31.636H113.355ZM122.837 37L122.081 34.996H118.505L117.749 37H115.709L119.273 27.292H121.529L124.877 37H122.837ZM119.177 33.208H121.409L120.293 30.256L119.177 33.208ZM123.907 27.292H132.823V29.236H129.439V37H127.291V29.236H123.907V27.292ZM133.595 27.292H135.635V33.64L140.339 27.292H142.379V37H140.339V30.604L135.635 37H133.595V27.292ZM148.165 27.292H150.325V37H148.165V32.608C147.397 33.124 146.185 33.124 146.185 33.124C144.409 33.124 143.089 32.116 143.089 30.34V27.292H145.057V30.112C145.057 30.94 145.753 31.3 146.557 31.3C147.349 31.3 148.165 30.928 148.165 30.112V27.292ZM153.591 27.292V30.964H157.683V27.292H159.843V37H157.683V32.908H153.591V37H151.443V27.292H153.591ZM167.462 37L166.706 34.996H163.13L162.374 37H160.334L163.898 27.292H166.154L169.502 37H167.462ZM163.802 33.208H166.034L164.918 30.256L163.802 33.208ZM169.478 37L171.758 33.292C170.618 32.86 169.886 31.672 169.886 30.424C169.886 28.816 171.182 27.292 173.294 27.292H177.794V37H175.634V33.508C175.634 33.508 175.394 33.508 173.858 33.508L171.938 37H169.478ZM173.126 31.624H175.634V29.176H173.126C172.382 29.176 171.77 29.668 171.77 30.424C171.77 31.168 172.382 31.624 173.126 31.624ZM187.32 27.088C189.972 27.088 191.952 28.96 191.952 32.14C191.952 35.464 189.852 37.18 187.32 37.18C184.788 37.18 182.7 35.452 182.7 32.14C182.7 28.9 184.788 27.088 187.32 27.088ZM187.32 35.176C188.772 35.176 189.852 34.228 189.852 32.14C189.852 30.064 188.76 29.104 187.32 29.104C185.892 29.104 184.788 30.064 184.788 32.14C184.788 34.228 185.88 35.176 187.32 35.176ZM202.352 27.292H204.38V37H192.728V27.292H194.744V35.068H197.54V27.292H199.556V35.068H202.352V27.292ZM205.501 27.292H207.541V33.64L212.245 27.292H214.285V37H212.245V30.604L207.541 37H205.501V27.292ZM219.424 31.204C222.328 31.204 223.288 32.524 223.288 34.156C223.288 36.676 220.984 37 218.944 37H215.404V27.292H222.484V29.236H217.552V31.204H219.424ZM221.26 34.12V33.856C221.26 33.22 220.636 32.704 219.676 32.704H217.588V35.272H219.676C220.636 35.272 221.26 34.756 221.26 34.12ZM230.161 37L227.113 32.752L226.057 33.904V37H224.017V27.292H226.057V31.324L229.753 27.292H232.129L228.481 31.252L232.561 37H230.161ZM239.685 37L238.929 34.996H235.353L234.597 37H232.557L236.121 27.292H238.377L241.725 37H239.685ZM236.025 33.208H238.257L237.141 30.256L236.025 33.208ZM251.153 25.876C247.829 29.596 246.365 34.756 251.141 39.52H249.281C244.733 34.984 245.429 30.112 249.413 25.876H251.153ZM251.32 36.6953C251.777 36.6914 252.074 36.6113 252.211 36.4551C252.348 36.2949 252.416 36.0566 252.416 35.7402V30.0449C252.416 29.7168 252.338 29.502 252.182 29.4004C252.025 29.2949 251.748 29.2266 251.35 29.1953V28.8906H254.373L256.734 34.4453H256.834L259.184 28.8906H262.207V29.1953C261.801 29.2266 261.523 29.3027 261.375 29.4238C261.227 29.541 261.152 29.832 261.152 30.2969V35.5996C261.152 36.041 261.227 36.3301 261.375 36.4668C261.523 36.6035 261.801 36.6797 262.207 36.6953V37H258.223V36.6953C258.578 36.6836 258.846 36.625 259.025 36.5195C259.205 36.4102 259.295 36.1738 259.295 35.8105V29.9453H259.207L256.266 37H255.943L252.973 30.0859H252.92V35.5176C252.92 35.916 252.994 36.207 253.143 36.3906C253.291 36.5742 253.619 36.6758 254.127 36.6953V37H251.32V36.6953ZM262.904 34.1992H263.25C263.445 35.0938 263.76 35.7441 264.193 36.1504C264.631 36.5566 265.131 36.7598 265.693 36.7598C266.24 36.7598 266.629 36.6211 266.859 36.3438C267.09 36.0625 267.205 35.7676 267.205 35.459C267.205 35.0996 267.084 34.8066 266.842 34.5801C266.682 34.4316 266.359 34.2383 265.875 34L265.096 33.6133C264.322 33.2305 263.777 32.8516 263.461 32.4766C263.145 32.1016 262.986 31.6387 262.986 31.0879C262.986 30.502 263.195 29.9551 263.613 29.4473C264.035 28.9395 264.68 28.6855 265.547 28.6855C265.988 28.6855 266.414 28.752 266.824 28.8848C267.238 29.0176 267.475 29.084 267.533 29.084C267.666 29.084 267.758 29.0469 267.809 28.9727C267.859 28.8945 267.9 28.793 267.932 28.668H268.289V31.2812H267.955C267.795 30.6758 267.512 30.1543 267.105 29.7168C266.703 29.2793 266.213 29.0605 265.635 29.0605C265.229 29.0605 264.906 29.1719 264.668 29.3945C264.434 29.6133 264.316 29.8809 264.316 30.1973C264.316 30.5762 264.428 30.8594 264.65 31.0469C264.869 31.2383 265.355 31.5195 266.109 31.8906L267.012 32.3359C267.414 32.5352 267.734 32.7559 267.973 32.998C268.418 33.4512 268.641 34.002 268.641 34.6504C268.641 35.2559 268.4 35.8281 267.92 36.3672C267.443 36.9023 266.678 37.1699 265.623 37.1699C265.381 37.1699 265.135 37.1465 264.885 37.0996C264.639 37.0566 264.395 36.9883 264.152 36.8945L263.918 36.8066C263.863 36.791 263.811 36.7793 263.76 36.7715C263.709 36.7598 263.666 36.7539 263.631 36.7539C263.506 36.7539 263.42 36.791 263.373 36.8652C263.326 36.9355 263.285 37.0371 263.25 37.1699H262.904V34.1992ZM269.361 37V36.6953C269.705 36.6836 269.949 36.6367 270.094 36.5547C270.316 36.4297 270.428 36.1953 270.428 35.8516V30.0449C270.428 29.6934 270.312 29.457 270.082 29.3359C269.949 29.2617 269.709 29.2148 269.361 29.1953V28.8906H276.275V31.3105H275.982C275.83 30.5371 275.57 30.0078 275.203 29.7227C274.84 29.4375 274.176 29.2949 273.211 29.2949C272.844 29.2949 272.609 29.334 272.508 29.4121C272.41 29.4863 272.361 29.6367 272.361 29.8633V32.6406C273.045 32.6484 273.508 32.5254 273.75 32.2715C273.992 32.0137 274.178 31.5449 274.307 30.8652H274.611V34.9199H274.307C274.221 34.2363 274.045 33.7559 273.779 33.4785C273.518 33.1973 273.045 33.0566 272.361 33.0566V35.9629C272.361 36.2168 272.426 36.3906 272.555 36.4844C272.688 36.5742 272.957 36.6191 273.363 36.6191C274.129 36.6191 274.754 36.4707 275.238 36.1738C275.723 35.877 276.152 35.3203 276.527 34.5039H276.861L276.375 37H269.361ZM279.08 25.876C283.064 30.112 283.76 34.984 279.212 39.52H277.352C282.128 34.756 280.664 29.596 277.352 25.876H279.08ZM25.212 47.088H27.408C27.036 49.8 25.116 51.18 22.836 51.18C20.304 51.18 18.216 49.452 18.216 46.14C18.216 42.9 20.304 41.088 22.836 41.088C25.128 41.088 26.904 42.492 27.36 44.904H25.116C24.864 43.692 23.952 43.104 22.836 43.104C21.408 43.104 20.304 44.064 20.304 46.14C20.304 48.228 21.396 49.176 22.836 49.176C24.048 49.176 25.056 48.504 25.212 47.088ZM32.6025 41.292C34.7025 41.292 35.7945 42.9 35.7945 44.424C35.7945 46.428 34.2825 47.52 32.6865 47.52H30.2625V51H28.1145V41.292H29.5425H32.6025ZM32.5545 45.636C33.3345 45.636 33.9105 45.168 33.9105 44.424C33.9105 43.68 33.2985 43.176 32.5545 43.176H30.2625V45.636H32.5545ZM36.4465 41.292H43.3825V43.236H38.5465V44.964L42.5785 44.988V46.92L38.5465 46.908V49.068H43.3825V51H36.4465V41.292ZM50.3263 49.056V43.236H48.0103V44.436C48.0103 46.56 47.5543 48.024 47.0623 49.056H50.3263ZM52.4863 49.056H53.9863V52.944H52.0543V51H45.4543V52.944H43.5223V49.056C44.7583 49.056 45.6703 49.056 44.6743 49.056C45.5143 49.056 46.1143 46.716 46.1143 44.088V41.292C47.1823 41.292 51.2503 41.292 52.4863 41.292V49.056ZM56.7234 41.292V44.964H60.8154V41.292H62.9754V51H60.8154V46.908H56.7234V51H54.5754V41.292H56.7234ZM63.5988 51L65.8788 47.292C64.7388 46.86 64.0068 45.672 64.0068 44.424C64.0068 42.816 65.3028 41.292 67.4148 41.292H71.9148V51H69.7548V47.508C69.7548 47.508 69.5148 47.508 67.9788 47.508L66.0588 51H63.5988ZM67.2468 45.624H69.7548V43.176H67.2468C66.5028 43.176 65.8908 43.668 65.8908 44.424C65.8908 45.168 66.5028 45.624 67.2468 45.624ZM72.5285 51L74.8085 47.292C73.6685 46.86 72.9365 45.672 72.9365 44.424C72.9365 42.816 74.2325 41.292 76.3445 41.292H80.8445V51H78.6845V47.508C78.6845 47.508 78.4445 47.508 76.9085 47.508L74.9885 51H72.5285ZM76.1765 45.624H78.6845V43.176H76.1765C75.4325 43.176 74.8205 43.668 74.8205 44.424C74.8205 45.168 75.4325 45.624 76.1765 45.624ZM92.5792 51L91.8232 48.996H88.2472L87.4912 51H85.4512L89.0152 41.292H91.2712L94.6192 51H92.5792ZM88.9192 47.208H91.1512L90.0352 44.256L88.9192 47.208ZM99.1189 45.204C102.023 45.204 102.983 46.524 102.983 48.156C102.983 50.676 100.679 51 98.6389 51H95.0989V41.292H102.179V43.236H97.2469V45.204H99.1189ZM100.955 48.12V47.856C100.955 47.22 100.331 46.704 99.3709 46.704H97.2829V49.272H99.3709C100.331 49.272 100.955 48.756 100.955 48.12ZM110.372 47.088H112.568C112.196 49.8 110.276 51.18 107.996 51.18C105.464 51.18 103.376 49.452 103.376 46.14C103.376 42.9 105.464 41.088 107.996 41.088C110.288 41.088 112.064 42.492 112.52 44.904H110.276C110.024 43.692 109.112 43.104 107.996 43.104C106.568 43.104 105.464 44.064 105.464 46.14C105.464 48.228 106.556 49.176 107.996 49.176C109.208 49.176 110.216 48.504 110.372 47.088ZM117.559 41.088C120.211 41.088 122.191 42.96 122.191 46.14C122.191 49.464 120.091 51.18 117.559 51.18C115.027 51.18 112.939 49.452 112.939 46.14C112.939 42.9 115.027 41.088 117.559 41.088ZM117.559 49.176C119.011 49.176 120.091 48.228 120.091 46.14C120.091 44.064 118.999 43.104 117.559 43.104C116.131 43.104 115.027 44.064 115.027 46.14C115.027 48.228 116.119 49.176 117.559 49.176ZM124.253 41.292H130.541V50.988H128.429V43.224H126.053V45.42C126.053 47.028 126.053 50.196 124.025 50.904C123.581 51.06 122.993 51.012 122.237 50.964V49.044C122.789 49.092 123.197 49.056 123.473 48.9C124.241 48.48 124.253 45.9 124.253 44.964V41.292ZM139.701 41.088C142.353 41.088 144.333 42.96 144.333 46.14C144.333 49.464 142.233 51.18 139.701 51.18C137.337 51.18 135.369 49.68 135.105 46.8H133.833V50.988H131.685V41.28H133.833V45.168H135.141C135.513 42.54 137.433 41.088 139.701 41.088ZM139.701 49.176C141.093 49.176 142.233 48.228 142.233 46.14C142.233 44.064 141.141 43.104 139.701 43.104C138.261 43.104 137.169 43.956 137.169 46.14C137.169 48.228 138.285 49.176 139.701 49.176ZM144.66 41.292H153.576V43.236H150.192V51H148.044V43.236H144.66V41.292ZM156.497 41.292V44.964H160.589V41.292H162.749V51H160.589V46.908H156.497V51H154.349V41.292H156.497ZM170.368 51L169.612 48.996H166.036L165.28 51H163.24L166.804 41.292H169.06L172.408 51H170.368ZM166.708 47.208H168.94L167.824 44.256L166.708 47.208ZM172.384 51L174.664 47.292C173.524 46.86 172.792 45.672 172.792 44.424C172.792 42.816 174.088 41.292 176.2 41.292H180.7V51H178.54V47.508C178.54 47.508 178.3 47.508 176.764 47.508L174.844 51H172.384ZM176.032 45.624H178.54V43.176H176.032C175.288 43.176 174.676 43.668 174.676 44.424C174.676 45.168 175.288 45.624 176.032 45.624ZM190.227 41.088C192.879 41.088 194.859 42.96 194.859 46.14C194.859 49.464 192.759 51.18 190.227 51.18C187.695 51.18 185.607 49.452 185.607 46.14C185.607 42.9 187.695 41.088 190.227 41.088ZM190.227 49.176C191.679 49.176 192.759 48.228 192.759 46.14C192.759 44.064 191.667 43.104 190.227 43.104C188.799 43.104 187.695 44.064 187.695 46.14C187.695 48.228 188.787 49.176 190.227 49.176ZM205.258 41.292H207.286V51H195.634V41.292H197.65V49.068H200.446V41.292H202.462V49.068H205.258V41.292ZM208.407 41.292H210.447V47.64L215.151 41.292H217.191V51H215.151V44.604L210.447 51H208.407V41.292ZM222.33 45.204C225.234 45.204 226.194 46.524 226.194 48.156C226.194 50.676 223.89 51 221.85 51H218.31V41.292H225.39V43.236H220.458V45.204H222.33ZM224.166 48.12V47.856C224.166 47.22 223.542 46.704 222.582 46.704H220.494V49.272H222.582C223.542 49.272 224.166 48.756 224.166 48.12ZM233.067 51L230.019 46.752L228.963 47.904V51H226.923V41.292H228.963V45.324L232.659 41.292H235.035L231.387 45.252L235.467 51H233.067ZM242.591 51L241.835 48.996H238.259L237.503 51H235.463L239.027 41.292H241.283L244.631 51H242.591ZM238.931 47.208H241.163L240.047 44.256L238.931 47.208ZM254.06 39.876C250.736 43.596 249.272 48.756 254.048 53.52H252.188C247.64 48.984 248.336 44.112 252.32 39.876H254.06ZM254.227 50.6953C254.684 50.6914 254.98 50.6113 255.117 50.4551C255.254 50.2949 255.322 50.0566 255.322 49.7402V44.0449C255.322 43.7168 255.244 43.502 255.088 43.4004C254.932 43.2949 254.654 43.2266 254.256 43.1953V42.8906H257.279L259.641 48.4453H259.74L262.09 42.8906H265.113V43.1953C264.707 43.2266 264.43 43.3027 264.281 43.4238C264.133 43.541 264.059 43.832 264.059 44.2969V49.5996C264.059 50.041 264.133 50.3301 264.281 50.4668C264.43 50.6035 264.707 50.6797 265.113 50.6953V51H261.129V50.6953C261.484 50.6836 261.752 50.625 261.932 50.5195C262.111 50.4102 262.201 50.1738 262.201 49.8105V43.9453H262.113L259.172 51H258.85L255.879 44.0859H255.826V49.5176C255.826 49.916 255.9 50.207 256.049 50.3906C256.197 50.5742 256.525 50.6758 257.033 50.6953V51H254.227V50.6953ZM270.111 48.1699L268.963 45.3926H268.863L267.779 48.1699H270.111ZM265.611 50.6953C265.9 50.6758 266.133 50.5449 266.309 50.3027C266.422 50.1504 266.584 49.8145 266.795 49.2949L269.461 42.7266H269.795L272.473 49.0312C272.773 49.7383 272.998 50.1953 273.146 50.4023C273.295 50.6055 273.506 50.7031 273.779 50.6953V51H269.895V50.6953C270.285 50.6797 270.541 50.6465 270.662 50.5957C270.787 50.5449 270.85 50.416 270.85 50.209C270.85 50.1152 270.818 49.9727 270.756 49.7812C270.717 49.668 270.664 49.5312 270.598 49.3711L270.293 48.6445H267.598C267.422 49.1211 267.309 49.4316 267.258 49.5762C267.152 49.8848 267.1 50.1094 267.1 50.25C267.1 50.4219 267.215 50.5469 267.445 50.625C267.582 50.668 267.787 50.6914 268.061 50.6953V51H265.611V50.6953ZM274.26 51V50.6953C274.604 50.6836 274.848 50.6367 274.992 50.5547C275.215 50.4297 275.326 50.1953 275.326 49.8516V44.0449C275.326 43.6934 275.211 43.457 274.98 43.3359C274.848 43.2617 274.607 43.2148 274.26 43.1953V42.8906H281.174V45.3105H280.881C280.729 44.5371 280.469 44.0078 280.102 43.7227C279.738 43.4375 279.074 43.2949 278.109 43.2949C277.742 43.2949 277.508 43.334 277.406 43.4121C277.309 43.4863 277.26 43.6367 277.26 43.8633V46.6406C277.943 46.6484 278.406 46.5254 278.648 46.2715C278.891 46.0137 279.076 45.5449 279.205 44.8652H279.51V48.9199H279.205C279.119 48.2363 278.943 47.7559 278.678 47.4785C278.416 47.1973 277.943 47.0566 277.26 47.0566V49.9629C277.26 50.2168 277.324 50.3906 277.453 50.4844C277.586 50.5742 277.855 50.6191 278.262 50.6191C279.027 50.6191 279.652 50.4707 280.137 50.1738C280.621 49.877 281.051 49.3203 281.426 48.5039H281.76L281.273 51H274.26ZM283.978 39.876C287.962 44.112 288.658 48.984 284.11 53.52H282.25C287.026 48.756 285.562 43.596 282.25 39.876H283.978Z" fill="black"/>
<path d="M278.423 102.369C279.215 101.238 280.774 100.963 281.905 101.755L297.469 112.653C298.177 113.149 298.549 113.946 298.534 114.75C298.55 115.555 298.177 116.352 297.469 116.848L281.905 127.746C280.774 128.538 279.215 128.263 278.423 127.132C277.631 126.001 277.906 124.442 279.037 123.65L287.106 118H21.5C19.567 118 18 116.433 18 114.5C18 112.567 19.567 111 21.5 111H286.391L279.037 105.851C277.906 105.059 277.631 103.5 278.423 102.369Z" fill="url(#paint0_linear_195_5126)"/>
<rect x="17" y="102" width="5" height="24" rx="2.5" fill="#DCFF00"/>
<defs>
<linearGradient id="paint0_linear_195_5126" x1="18" y1="114.751" x2="308.5" y2="114.751" gradientUnits="userSpaceOnUse">
<stop stop-color="#DCFF00"/>
<stop offset="0.6875" stop-color="#EBC110"/>
<stop offset="1" stop-color="#FF6B26"/>
</linearGradient>
</defs>
</svg>
